<?xml version="1.0" encoding="UTF-8" standalone="no"?>
<svg xmlns:dc="http://purl.org/dc/elements/1.1/" xmlns:cc="http://creativecommons.org/ns#"
     xmlns:rdf="http://www.w3.org/1999/02/22-rdf-syntax-ns#" xmlns="http://www.w3.org/2000/svg" xml:space="preserve"
     enable-background="new 0 0 612 792" viewBox="0 0 175.748 70.800004" height="70.800003" width="175.748" y="0px"
     x="0px" id="Layer_1" version="1.1"><metadata
   id="metadata59"><rdf:RDF><cc:Work
       rdf:about=""><dc:format>image/svg+xml</dc:format><dc:type rdf:resource="http://purl.org/dc/dcmitype/StillImage"/><dc:title></dc:title></cc:Work></rdf:RDF></metadata>
    <defs id="defs57">

























</defs>
    <path
        d="M 74.316,66.282 H 45.192 c 0,0 0,-30.379 0,-31.886 0.251,-3.013 1.506,-4.771 3.515,-6.277 H 25.609 c 2.008,1.757 3.264,4.017 3.264,6.277 0,2.009 0,31.886 0,31.886 H 0 L 37.158,0 74.316,66.03 Z"
        id="path4" style="clip-rule:evenodd;fill-rule:evenodd"/>
    <path
        d="M 79.84,18.579 78.083,23.6 H 75.572 L 82.1,6.528 h 2.511 L 90.636,23.6 H 88.125 L 86.619,18.579 Z M 85.866,16.57 83.355,9.038 h -0.251 l -2.511,7.532 z"
        id="path6" style="clip-rule:evenodd;fill-rule:evenodd"/>
    <path
        d="m 101.934,23.6 h -1.757 v -1.757 h -0.251 c -0.754,1.506 -2.26,2.009 -3.516,2.009 -4.017,0 -5.272,-4.018 -5.272,-6.779 0,-3.515 1.758,-6.276 5.021,-6.276 2.26,0 3.264,1.506 3.767,2.008 v 0 -6.276 h 2.008 z m -5.273,-1.507 c 1.256,0 3.265,-1.004 3.265,-4.268 0,-2.008 -0.251,-5.272 -3.265,-5.272 -3.264,0 -3.515,3.264 -3.515,4.771 0,2.761 1.256,4.769 3.515,4.769 z"
        id="path8" style="clip-rule:evenodd;fill-rule:evenodd"/>
    <polygon transform="translate(-217.504,-360.978)"
             points="326.719,382.067 326.719,382.067 330.234,372.024 332.493,372.024 327.724,384.578 325.464,384.578 320.944,372.024 323.455,372.024 "
             id="polygon10" style="clip-rule:evenodd;fill-rule:evenodd"/>
    <path
        d="m 115.742,14.813 c 0,-2.762 2.009,-4.017 5.022,-4.017 1.004,0 4.519,0.251 4.519,3.515 v 7.03 c 0,0.502 0.251,0.753 0.754,0.753 0.25,0 0.502,0 0.753,0 V 23.6 c -0.503,0 -0.753,0 -1.256,0 -1.757,0 -2.009,-0.753 -2.26,-1.757 -0.753,0.753 -2.008,2.009 -4.268,2.009 -2.26,0 -4.018,-1.507 -4.018,-3.515 0,-1.004 0.251,-3.515 3.767,-4.017 l 3.515,-0.251 c 0.502,-0.251 1.004,-0.251 1.004,-1.507 0,-1.255 -1.004,-2.008 -2.762,-2.008 -2.511,0 -2.762,1.506 -3.013,2.26 h -1.757 z m 7.532,2.259 c -0.251,0.251 -0.753,0.502 -3.515,1.004 -1.004,0 -2.511,0.251 -2.511,2.009 0,1.255 0.502,2.008 2.26,2.008 1.758,0 3.766,-1.255 3.766,-2.762 z"
        id="path12" style="clip-rule:evenodd;fill-rule:evenodd"/>
    <path
        d="m 138.339,23.6 h -2.009 v -7.783 c 0,-2.009 -0.502,-3.264 -2.762,-3.264 -1.004,0 -3.264,0.753 -3.264,4.268 V 23.6 h -2.008 V 11.047 h 2.009 v 1.757 0 c 0.502,-0.502 1.758,-2.008 3.766,-2.008 2.009,0 4.269,0.753 4.269,4.268 V 23.6 Z"
        id="path14" style="clip-rule:evenodd;fill-rule:evenodd"/>
    <path
        d="m 148.633,15.314 c -0.251,-1.757 -1.004,-2.762 -2.762,-2.762 -2.762,0 -3.515,2.511 -3.515,4.771 0,2.008 0.502,4.77 3.515,4.77 1.255,0 2.511,-1.004 2.762,-3.013 h 2.009 c -0.251,2.009 -1.256,4.771 -5.021,4.771 -3.264,0 -5.523,-2.511 -5.523,-6.277 0,-3.766 2.008,-6.779 6.025,-6.779 3.264,0 4.52,2.259 4.52,4.519 z"
        id="path16" style="clip-rule:evenodd;fill-rule:evenodd"/>
    <path
        d="m 163.445,19.583 c -0.251,0.502 -0.753,2.259 -2.259,3.515 -0.503,0.251 -1.256,0.753 -3.265,0.753 -3.515,0 -5.523,-2.511 -5.523,-6.277 0,-3.766 1.758,-6.779 5.775,-6.779 3.515,0 5.271,2.762 5.271,7.281 h -9.038 c 0,2.511 1.256,4.017 3.767,4.017 2.008,0 3.013,-1.506 3.013,-2.51 z m -2.008,-3.264 c -0.251,-2.008 -1.005,-3.766 -3.516,-3.766 -2.008,0 -3.515,1.758 -3.515,3.766 z"
        id="path18" style="clip-rule:evenodd;fill-rule:evenodd"/>
    <path
        d="m 175.748,23.6 h -1.758 v -1.757 h -0.251 c -0.753,1.506 -2.259,2.009 -3.264,2.009 -4.268,0 -5.523,-4.018 -5.523,-6.779 0,-3.515 1.758,-6.276 5.021,-6.276 2.26,0 3.264,1.506 3.766,2.008 v 0 -6.276 h 2.009 z m -5.273,-1.507 c 1.256,0 3.264,-1.004 3.264,-4.268 0,-2.008 -0.251,-5.272 -3.264,-5.272 -3.264,0 -3.515,3.264 -3.515,4.771 0.001,2.761 1.256,4.769 3.515,4.769 z"
        id="path20" style="clip-rule:evenodd;fill-rule:evenodd"/>
    <polygon transform="translate(-217.504,-360.978)"
             points="297.344,405.668 295.084,405.668 295.084,388.595 297.344,388.595 " id="polygon22"
             style="clip-rule:evenodd;fill-rule:evenodd"/>
    <path
        d="m 92.895,44.69 h -2.009 v -7.783 c 0,-2.009 -0.502,-3.013 -2.511,-3.013 -1.255,0 -3.264,0.753 -3.264,4.017 V 44.69 H 83.102 V 32.136 h 2.009 v 1.757 0 c 0.251,-0.502 1.506,-2.008 3.515,-2.008 2.008,0 4.268,0.753 4.268,4.268 v 8.537 z"
        id="path24" style="clip-rule:evenodd;fill-rule:evenodd"/>
    <path
        d="m 98.168,33.894 v 8.035 c 0,1.004 0.753,1.004 1.255,1.004 h 0.754 v 1.758 c -0.754,0 -1.256,0 -1.507,0 -2.009,0 -2.511,-1.004 -2.511,-2.512 v -8.285 h -1.757 v -1.757 h 1.757 v -3.264 h 2.009 v 3.264 h 2.009 v 1.757 z"
        id="path26" style="clip-rule:evenodd;fill-rule:evenodd"/>
    <path
        d="m 112.227,40.672 c 0,0.754 -0.753,2.512 -2.26,3.516 -0.502,0.25 -1.255,0.752 -3.264,0.752 -3.515,0 -5.523,-2.51 -5.523,-6.275 0,-3.767 1.758,-6.779 6.025,-6.779 3.516,0 5.021,2.761 5.021,7.281 h -8.787 c 0,2.51 1.255,4.018 3.515,4.018 2.009,0 3.013,-1.508 3.265,-2.512 h 2.008 z m -2.007,-3.263 c 0,-1.758 -1.005,-3.515 -3.516,-3.515 -1.757,0 -3.264,1.757 -3.264,3.515 z"
        id="path28" style="clip-rule:evenodd;fill-rule:evenodd"/>
    <polygon transform="translate(-217.504,-360.978)"
             points="334.251,405.668 331.991,405.668 331.991,388.595 334.251,388.595 " id="polygon30"
             style="clip-rule:evenodd;fill-rule:evenodd"/>
    <polygon transform="translate(-217.504,-360.978)"
             points="339.272,405.668 337.013,405.668 337.013,388.595 339.272,388.595 " id="polygon32"
             style="clip-rule:evenodd;fill-rule:evenodd"/>
    <path d="m 125.032,32.136 h 2.009 V 44.69 h -2.009 z m 0,-4.519 h 2.009 v 2.511 h -2.009 z" id="path34"
          style="clip-rule:evenodd;fill-rule:evenodd"/>
    <path
        d="m 140.348,43.686 c 0,1.756 0,6.025 -5.774,6.025 -1.256,0 -4.269,-0.252 -4.52,-3.516 h 2.009 c 0.502,1.758 2.26,1.758 2.762,1.758 3.515,0 3.515,-2.762 3.515,-4.268 v -0.502 0 0 c -0.502,1.004 -1.758,1.756 -3.264,1.756 -4.269,0 -5.523,-4.016 -5.523,-6.779 0,-3.514 2.008,-6.275 5.272,-6.275 2.008,0 3.013,1.506 3.515,2.008 v 0 -1.757 h 2.009 v 11.55 z m -5.273,-0.502 c 1.255,0 3.264,-1.006 3.264,-4.27 0,-2.008 -0.251,-5.021 -3.264,-5.021 -3.013,0 -3.264,3.013 -3.264,4.519 0,2.762 1.004,4.772 3.264,4.772 z"
        id="path36" style="clip-rule:evenodd;fill-rule:evenodd"/>
    <path
        d="m 153.905,40.672 c -0.251,0.754 -0.753,2.512 -2.26,3.516 -0.502,0.25 -1.255,0.752 -3.264,0.752 -3.516,0 -5.523,-2.51 -5.523,-6.275 0,-3.767 1.757,-6.779 5.774,-6.779 3.515,0 5.272,2.761 5.272,7.281 h -8.787 c 0,2.51 1.004,4.018 3.515,4.018 2.009,0 3.013,-1.508 3.013,-2.512 h 2.26 z m -2.009,-3.263 c -0.251,-1.758 -1.004,-3.515 -3.515,-3.515 -1.758,0 -3.264,1.757 -3.264,3.515 z"
        id="path38" style="clip-rule:evenodd;fill-rule:evenodd"/>
    <path
        d="m 166.208,44.69 h -2.009 v -7.783 c 0,-2.009 -0.502,-3.013 -2.511,-3.013 -1.256,0 -3.264,0.753 -3.264,4.017 v 6.779 h -2.009 V 32.136 h 2.009 v 1.757 0 c 0.502,-0.502 1.506,-2.008 3.515,-2.008 2.008,0 4.269,0.753 4.269,4.268 z"
        id="path40" style="clip-rule:evenodd;fill-rule:evenodd"/>
    <path
        d="m 171.982,33.894 v 8.035 c 0,1.004 0.753,1.004 1.004,1.004 h 0.753 v 1.758 c -0.753,0 -1.255,0 -1.506,0 -2.009,0 -2.511,-1.004 -2.511,-2.512 v -8.285 h -1.507 v -1.757 h 1.507 v -3.264 h 2.26 v 3.264 h 1.757 v 1.757 z"
        id="path42" style="clip-rule:evenodd;fill-rule:evenodd"/>
    <polygon transform="translate(-217.504,-360.978)"
             points="298.599,412.195 292.825,412.195 292.825,410.188 306.383,410.188 306.383,412.195 300.859,412.195 300.859,427.26 298.599,427.26 "
             id="polygon44" style="clip-rule:evenodd;fill-rule:evenodd"/>
    <path
        d="m 87.623,57.243 c 0,-3.012 2.009,-4.018 5.021,-4.018 1.004,0 4.519,0.252 4.519,3.264 v 7.281 c 0,0.502 0.252,0.502 0.754,0.502 0,0 0.251,0 0.502,0 v 1.508 c -0.251,0 -0.502,0.25 -1.004,0.25 -2.009,0 -2.26,-1.004 -2.26,-1.758 -0.753,0.754 -2.009,2.01 -4.269,2.01 -2.259,0 -4.017,-1.506 -4.017,-3.766 0,-1.006 0.251,-3.266 3.766,-3.768 l 3.515,-0.502 c 0.252,0 1.005,-0.25 1.005,-1.506 0,-1.256 -1.005,-2.008 -3.013,-2.008 -2.26,0 -2.511,1.506 -2.762,2.51 h -1.757 z m 7.532,2.259 c -0.502,0.252 -1.005,0.502 -3.515,0.754 -1.005,0.25 -2.511,0.502 -2.511,2.008 0,1.256 0.502,2.26 2.259,2.26 1.758,0 3.767,-1.256 3.767,-3.014 z"
        id="path46" style="clip-rule:evenodd;fill-rule:evenodd"/>
    <path
        d="m 100.679,53.477 h 2.009 v 1.758 0 c 0.502,-0.754 1.255,-2.01 3.515,-2.01 3.264,0 5.272,2.512 5.272,6.025 0,3.014 -1.255,7.031 -5.523,7.031 -1.507,0 -2.762,-1.004 -3.264,-1.758 v 0 6.277 h -2.009 z m 5.272,10.795 c 2.26,0 3.264,-2.008 3.264,-4.77 0,-1.506 -0.251,-4.52 -3.264,-4.52 -3.013,0 -3.264,3.264 -3.264,5.273 0,3.265 2.008,4.017 3.264,4.017 z"
        id="path48" style="clip-rule:evenodd;fill-rule:evenodd"/>
    <path
        d="m 123.777,62.012 c 0,0.504 -0.503,2.26 -2.009,3.266 -0.502,0.502 -1.507,1.004 -3.264,1.004 -3.516,0 -5.524,-2.762 -5.524,-6.277 0,-3.766 1.758,-6.779 5.775,-6.779 3.515,0 5.272,2.762 5.272,7.031 h -8.788 c 0,2.51 1.005,4.016 3.516,4.016 1.757,0 3.013,-1.506 3.013,-2.26 h 2.009 z m -1.758,-3.263 c -0.251,-2.008 -1.005,-3.766 -3.515,-3.766 -1.758,0 -3.265,1.758 -3.265,3.766 z"
        id="path50" style="clip-rule:evenodd;fill-rule:evenodd"/>
</svg>