<?xml version="1.0" encoding="UTF-8" standalone="no"?>
<svg xmlns:dc="http://purl.org/dc/elements/1.1/" xmlns:cc="http://creativecommons.org/ns#"
     xmlns:rdf="http://www.w3.org/1999/02/22-rdf-syntax-ns#" xmlns="http://www.w3.org/2000/svg" version="1.1"
     id="Layer_1" width="324.88956" height="173.28061" viewBox="-0.744 82.256 324.88956 173.28061" overflow="visible"
     enable-background="new -0.744 82.256 386 207" xml:space="preserve" style="overflow:visible"><metadata
   id="metadata41"><rdf:RDF><cc:Work
       rdf:about=""><dc:format>image/svg+xml</dc:format><dc:type rdf:resource="http://purl.org/dc/dcmitype/StillImage"/><dc:title></dc:title></cc:Work></rdf:RDF></metadata>
    <defs id="defs39"/>
    <g id="g34" transform="translate(-31.053319,-23.428396)">
	<path
        d="m 91.59,237.719 c -0.693,0 -3.053,0.693 -5.135,3.746 -2.081,3.053 -11.518,18.596 -13.183,21.51 -1.805,2.914 -1.249,4.164 0.693,4.164 1.665,0 2.082,0 4.163,0 1.943,0 3.747,-2.221 4.441,-3.748 0.972,-1.387 12.073,-19.428 13.877,-22.063 1.526,-2.638 0.556,-3.607 -0.694,-3.607 -1.108,-0.002 -4.162,-0.002 -4.162,-0.002 z"
        id="path2" style="fill:#0095d5"/>
        <path
            d="m 53.705,267.139 c 7.078,-0.277 11.796,-0.557 17.347,-10.686 2.359,-4.58 -4.302,-4.72 -4.302,-4.72 -0.972,0 6.106,0.14 9.853,-7.771 3.47,-7.217 -2.637,-6.66 -3.746,-6.799 -5.274,-0.695 -15.127,-0.418 -22.62,0 -1.527,0 -3.331,2.08 -4.303,3.33 -0.693,1.387 -12.212,19.981 -13.877,22.619 -1.805,2.774 0,3.887 1.804,4.024 5.273,0.28 11.934,0.28 19.844,0.003 z m 6.106,-9.715 c -1.942,4.025 -5.551,4.164 -7.632,4.164 -1.942,0 -4.857,0 -5.551,0 -0.694,0 -1.388,0 -0.694,-1.527 0.972,-1.248 2.359,-3.469 2.915,-4.303 0.555,-0.971 1.109,-1.248 2.358,-1.248 0,0 4.719,0 5.968,0 1.11,0 4.024,-0.139 2.636,2.914 z m 5.134,-11.934 c -1.942,4.022 -5.689,4.022 -7.632,4.022 -2.081,0 -2.498,0 -3.33,0 -0.556,0 -1.527,0 -0.556,-1.248 0.972,-1.389 2.081,-3.748 2.775,-4.58 0.693,-0.832 1.249,-1.25 2.221,-1.25 0,0 2.914,0 4.024,0 1.111,0.002 4.026,0.002 2.498,3.056 z"
            id="path4" style="fill:#0095d5"/>
        <path
            d="m 284.762,248.82 -9.158,14.57 c -1.942,3.053 -0.276,3.748 0.693,3.748 0.973,0 2.359,0 4.025,0 1.525,0 2.637,-0.139 4.996,-3.748 l 9.158,-14.848 c 2.498,-4.025 -0.556,-3.746 -2.498,-3.746 -3.468,0.138 -4.3,0.001 -7.216,4.024 z"
            id="path6" style="fill:#0095d5"/>
        <path
            d="m 322.51,249.791 h -10.965 c -1.109,0 -2.637,0.973 -3.469,2.082 -0.693,1.11 -0.277,2.221 0.832,2.221 0,-0.139 4.44,0 7.771,0 3.47,-0.139 4.72,2.221 0.974,7.355 -0.695,1.108 -2.222,2.914 -3.472,3.606 0,0 -3.053,2.498 -12.905,2.498 -9.021,0 -9.437,-0.973 -9.437,-0.973 -0.832,-0.693 -1.108,-1.941 -0.832,-2.638 0.416,-0.555 1.806,-1.108 2.914,-1.108 H 305.3 c 1.109,0 2.637,-0.971 3.33,-2.221 0.834,-1.109 0.416,-2.496 -0.693,-2.496 0,0 -4.44,0 -8.464,0 -4.024,0 -3.47,-2.64 -0.416,-7.078 0.832,-1.25 2.358,-2.775 3.469,-3.609 0,0 3.33,-2.498 13.045,-2.498 3.887,0 10.407,-0.416 9.992,2.916 -0.139,1.527 -2.36,1.943 -3.053,1.943 z"
            id="path8" style="fill:#0095d5"/>
        <path
            d="m 351.234,249.93 h -8.882 c -1.11,0 -2.637,0.973 -3.329,2.359 l -5.273,8.188 c -0.695,1.111 -0.277,2.359 0.555,2.359 0,0 9.021,0 10.547,0 1.525,0 2.498,0.139 2.359,0.555 -0.139,1.527 -2.359,4.164 -14.711,4.164 -11.102,0 -10.408,-1.527 -10.27,-3.19 0.278,-1.806 5.688,-10.408 7.354,-13.046 1.666,-2.774 4.025,-6.385 14.988,-6.385 10.27,0 9.713,2.359 9.574,2.916 0.002,0.554 -0.552,2.08 -2.912,2.08 z"
            id="path10" style="fill:#0095d5"/>
        <path
            d="m 299.75,236.469 c 0.832,0 1.805,0.834 1.109,2.221 -0.832,1.111 -1.109,1.666 -1.525,2.498 -0.555,0.832 -1.805,1.248 -3.33,1.248 -1.527,0 -5.135,0 -5.689,0 -1.11,0 -1.11,-0.971 -0.557,-1.94 0.416,-0.832 0.693,-1.25 1.111,-1.806 0.416,-0.692 1.109,-2.221 3.33,-2.221 z"
            id="path12" style="fill:#0095d5"/>
        <path
            d="m 133.777,252.428 c -2.081,0 -2.914,1.389 -3.33,2.082 -0.278,0.555 -0.694,0.971 -1.249,1.943 -0.417,0.971 -0.278,1.94 0.277,1.94 0.693,0 4.44,0 5.967,0 1.805,0 2.775,-0.555 3.33,-1.387 0.556,-0.971 0.694,-1.25 1.527,-2.637 0.971,-1.388 -0.278,-1.943 -0.972,-1.943 z"
            id="path14" style="fill:#0095d5"/>
        <path
            d="m 271.719,258.119 c 3.607,-5.83 1.387,-2.222 6.521,-10.408 4.996,-8.328 -2.914,-9.992 -10.686,-9.992 -11.935,0 -15.544,0.555 -15.544,0.555 -1.247,0 -2.913,1.109 -3.606,2.498 l -14.434,23.314 c -0.832,1.387 -0.556,2.496 0.557,2.774 0,0 3.469,0.277 15.402,0.277 16.378,0.002 17.903,-3.051 21.79,-9.018 z m -4.858,-10.408 c 0,0 -6.244,9.852 -6.662,10.408 -0.555,0.832 -2.498,3.469 -5.412,3.469 -1.803,0 -4.301,0 -6.105,0 -1.111,0 -1.666,-0.139 -0.971,-1.25 l 9.99,-15.959 c 0.418,-0.555 1.111,-0.971 1.943,-0.971 1.666,0 4.719,0 5.967,0 1.944,0 2.498,2.082 1.25,4.303 z"
            id="path16" style="fill:#0095d5"/>
        <path
            d="m 176.103,253.539 c -3.469,0 -4.579,0.276 -7.632,0.416 -1.249,0 -2.914,0.971 -3.608,2.358 l -2.914,4.996 c -3.608,5.689 4.163,6.105 10.269,6.105 9.854,0 14.571,-2.775 14.571,-2.775 1.249,-0.555 2.776,-2.082 3.47,-3.33 l 6.384,-10.408 c 0.694,-1.11 0.973,-3.053 0.276,-4.163 0,0 -0.832,-1.941 -10.685,-1.941 -9.714,0 -13.6,1.525 -13.6,1.525 -1.11,0.555 -2.498,1.526 -2.915,2.082 -0.276,0.831 0.278,1.387 1.389,1.387 h 14.432 c 1.111,0 1.527,0.973 0.972,1.942 -1.249,1.666 -3.33,1.806 -3.33,1.806 z m 5.551,6.799 v 0.139 c -0.972,1.39 -2.915,2.638 -4.024,2.638 h -2.914 -2.637 c -1.11,0 -1.527,-1.248 -0.556,-2.638 v -0.139 c 0.972,-1.525 2.914,-2.775 4.024,-2.775 h 5.551 c 1.111,0 1.527,1.25 0.556,2.775 z"
            id="path18" style="fill:#0095d5"/>
        <path
            d="m 156.953,251.873 c 0.971,-1.388 2.497,-2.359 3.607,-2.359 H 165 c 0.694,0 2.914,-0.139 3.054,-1.524 0.139,-2.222 -4.58,-2.775 -6.384,-2.775 -6.522,0 -10.131,0.277 -13.878,5.828 -2.914,4.438 -5.828,9.02 -7.771,12.35 -1.665,3.054 -0.138,3.748 0.833,3.748 0.972,0 2.498,0 4.024,0 1.526,0 2.637,-0.139 4.996,-3.748 z"
            id="path20" style="fill:#0095d5"/>
        <path
            d="m 127.949,248.959 -6.245,10.408 c -0.833,1.108 0,1.664 0.693,1.664 0.833,0 1.527,0 2.221,0 0.694,0 1.665,0.834 0.832,2.082 -0.693,1.389 -0.832,1.942 -1.525,2.774 -0.556,0.973 -1.527,1.25 -3.192,1.25 -1.109,0 -1.942,0 -2.637,0 -1.804,0 -0.833,-2.637 -0.833,-2.637 -2.636,2.914 -8.742,2.914 -15.126,2.914 -6.105,0 -14.016,0 -10.407,-6.105 l 7.771,-12.49 c 1.249,-2.082 2.22,-2.913 3.469,-3.469 0,0 0.277,-0.418 3.607,-0.418 2.221,0 5.135,0 2.638,3.887 l -7.078,11.519 c -0.832,1.111 -0.416,2.221 0.833,2.221 h 4.856 c 1.249,0 2.776,-1.108 3.747,-2.221 0,0 3.608,-6.244 6.801,-11.379 0.832,-1.248 2.914,-4.025 4.995,-4.025 0,0 1.943,0 3.47,0 1.527,0 3.33,0.418 1.11,4.025 z"
            id="path22" style="fill:#0095d5"/>
        <path
            d="m 191.091,272.967 h 11.519 l 2.359,0.139 c 1.248,0 2.775,-1.108 3.469,-2.498 l 2.359,-3.469 c -1.527,0.277 -3.053,0.277 -4.857,0.277 -5.828,0 -13.876,0 -10.27,-6.105 l 7.494,-12.073 c 0.971,-1.388 2.498,-2.914 3.469,-3.47 0,-0.276 0.555,-0.416 3.748,-0.416 2.08,0 5.412,-0.555 2.496,3.886 l -6.66,11.102 c -0.832,1.111 -0.555,2.221 0.555,2.221 h 4.72 c 0.971,0 2.774,-1.108 3.469,-2.221 l 6.938,-11.103 c 0.693,-1.387 2.359,-2.913 3.47,-3.469 0,0 0.557,-0.416 3.745,-0.416 1.806,0 5.414,-0.555 2.5,3.885 l -5.829,9.3 c -0.277,0.416 -0.416,0.555 -0.693,1.248 l -7.354,11.934 c -0.832,1.25 -2.359,2.777 -3.469,3.471 0,0 -4.857,2.775 -14.57,2.775 -0.416,0 -0.973,0 -1.389,0 -9.021,-0.277 -8.604,-0.834 -9.159,-1.25 -0.556,-0.139 -1.111,-0.971 -0.973,-2.082 0.137,-0.973 1.386,-1.666 2.913,-1.666 z"
            id="path24" style="fill:#0095d5"/>
        <path
            d="m 99.501,117.401 c -0.278,0 -0.278,0.141 -0.417,0.278 -12.073,16.93 -19.15,28.171 -26.645,42.048 l -0.832,1.526 -0.14,0.556 c -0.693,1.389 -0.555,2.914 0.417,4.163 4.44,6.938 29.281,15.126 84.651,15.126 41.354,0 85.345,-6.661 85.345,-19.149 0,-11.797 -43.297,-18.873 -85.345,-18.873 -14.017,0 -27.755,1.804 -31.641,2.498 3.747,-5.829 19.567,-27.063 19.567,-27.2 0.277,-0.277 0.277,-0.277 0.277,-0.416 v -0.277 c -0.277,-0.139 -0.416,-0.278 -0.693,-0.278 z m 16.097,44.547 c 0,-2.498 15.682,-6.106 40.938,-6.106 25.256,0 40.8,3.608 40.8,6.106 0,2.774 -15.543,6.244 -40.8,6.244 -25.257,0.001 -40.938,-3.468 -40.938,-6.244 z"
            id="path26" style="fill:#0095d5"/>
        <path
            d="m 130.863,224.258 c 7.077,0.139 206.217,7.076 210.659,-63.559 3.606,-58.425 -142.938,-52.873 -142.938,-52.873 -0.276,0 -1.248,0 -1.248,0.693 0,0.833 0.416,0.973 0.972,0.973 40.659,0 106.717,16.235 104.635,51.207 -1.666,28.31 -53.289,61.614 -172.079,61.614 -0.555,0 -1.11,0.556 -1.11,0.972 -0.001,0.418 0.415,0.834 1.109,0.973 z"
            id="path28" style="fill:#0095d5"/>
        <polygon
            points="313.488,219.123 309.604,219.123 309.604,218.291 318.484,218.291 318.484,219.123 314.877,219.123 314.877,226.061 313.488,226.061 "
            id="polygon30" style="fill:#0095d5"/>
        <polygon
            points="328.477,219.678 325.563,226.061 324.451,226.061 321.537,219.678 321.537,226.061 320.428,226.061 320.428,218.291 322.092,218.291 325.008,224.813 328.061,218.291 329.725,218.291 329.725,226.061 328.615,226.061 328.615,219.678 "
            id="polygon32" style="fill:#0095d5"/>
</g>
</svg>