<?xml version="1.0" encoding="UTF-8" standalone="no"?><!-- Created with Inkscape (http://www.inkscape.org/) -->
<svg xmlns="http://www.w3.org/2000/svg" version="1.0" width="4.5500002in" height="2.8in" viewBox="0 0 4.55 2.8"
     id="svg2" xml:space="preserve">
 <defs id="defs4">
  <style type="text/css" id="style6"/>
 </defs>
  <g id="Layer_x0020_1">

  <g id="_57392336">
   <path
       d="M 4.0644,0.307535 C 4.0640614,0.3203263 4.0636441,0.3308342 4.0632189,0.3345941 C 4.0599433,0.363413 4.0632189,0.377035 3.9801244,0.377035 C 3.8970378,0.377035 3.9003134,0.363413 3.8970378,0.3345941 C 3.8959748,0.32521221 3.8949827,0.2739012 3.895085,0.2498933 C 3.8951874,0.2258854 3.8959709,0.1745744 3.8970378,0.1651964 C 3.9003134,0.1363775 3.8970378,0.1227515 3.9801244,0.1227515 C 4.0632189,0.1227515 4.0599394,0.1363775 4.0632189,0.1651964 C 4.0636638,0.1691216 4.0640614,0.1804287 4.0643803,0.1939995 L 4.1780453,0.19399556 C 4.177317,0.16823576 4.1760965,0.14671206 4.1748209,0.13549556 C 4.1682697,0.077857763 4.1909744,0.022668563 3.9802539,0.022668563 C 3.7695369,0.022664626 3.7922419,0.077857563 3.7856869,0.13549556 C 3.783557,0.15425536 3.7815806,0.20187746 3.7817853,0.24989356 C 3.7819901,0.29790926 3.783557,0.34553136 3.7856869,0.36429556 C 3.792246,0.42192946 3.7695373,0.47712256 3.9802539,0.47712256 C 4.1909779,0.47712256 4.1682699,0.42192966 4.1748209,0.36429556 C 4.1760689,0.35333496 4.1771201,0.33252386 4.1778209,0.30753966 L 4.0643999,0.30753573 L 4.0644,0.307535 z "
       style="fill:black" id="_58592456"/>
    <polygon
        points="2.71661,0.0341929 2.60572,0.358185 2.4948,0.0341929 2.32888,0.0333307 2.32888,0.46822 2.4398,0.46822 2.4398,0.144228 2.55069,0.46822 2.66161,0.46822 2.77164,0.144228 2.77164,0.46822 2.88254,0.46822 2.88254,0.0333307 2.71661,0.0341929 "
        style="fill:black" id="_58339264"/>
    <polygon
        points="4.20294,0.0333307 4.52169,0.0333307 4.52169,0.144228 4.41776,0.144228 4.41776,0.46822 4.30686,0.46822 4.30686,0.144228 4.20294,0.144228 4.20294,0.0333307 "
        style="fill:black" id="_58829024"/>
    <polygon
        points="3.348,0.46822 3.47521,0.0328976 3.64054,0.0328976 3.76804,0.46822 3.65714,0.46822 3.63094,0.378268 3.48542,0.378268 3.50604,0.307535 3.60999,0.307535 3.55846,0.130256 3.4589,0.46822 3.348,0.46822 "
        style="fill:black" id="_58332768"/>
    <path
        d="M 2.0618,0.122752 C 2.1448945,0.122752 2.141611,0.136378 2.1448906,0.1651969 C 2.1459575,0.17457485 2.1467371,0.2258859 2.1468394,0.2498938 C 2.1469457,0.2739017 2.1459536,0.3252166 2.1448906,0.3345946 C 2.1416111,0.3634135 2.1448906,0.3770355 2.0618,0.3770355 C 1.9787094,0.3770355 1.981985,0.3634135 1.9787094,0.3345946 C 1.9776425,0.32521271 1.9766543,0.2739017 1.9767566,0.2498938 C 1.9768629,0.2258859 1.9776425,0.1745749 1.9787094,0.1651969 C 1.9819889,0.136378 1.9787094,0.122752 2.0618,0.122752 L 2.0619299,0.022665 C 1.8512169,0.022665 1.8739219,0.0778579 1.8673709,0.135496 C 1.8652371,0.1542558 1.8632607,0.2018779 1.8634654,0.249894 C 1.8636701,0.2979097 1.8652371,0.3455318 1.8673709,0.364296 C 1.873926,0.4219299 1.8512174,0.477123 2.0619259,0.477123 C 2.2726459,0.477123 2.2499419,0.4219301 2.2564929,0.364296 C 2.2586268,0.3455322 2.2601937,0.2979102 2.2603984,0.249894 C 2.2606032,0.2018783 2.2586268,0.1542562 2.2564929,0.135496 C 2.2499457,0.0778582 2.2726464,0.022669 2.0619259,0.022669 L 2.0617999,0.122752 L 2.0618,0.122752 z "
        style="fill:black" id="_58606024"/>
    <path
        d="M 1.68734,0.307535 C 1.6870014,0.3203263 1.686588,0.3308342 1.6861589,0.3345941 C 1.6828873,0.363413 1.6861589,0.377035 1.6030683,0.377035 C 1.5199817,0.377035 1.5232573,0.363413 1.5199777,0.3345941 C 1.5189147,0.32521221 1.5179265,0.2739012 1.5180289,0.2498933 C 1.5181312,0.2258854 1.5189147,0.1745744 1.5199777,0.1651964 C 1.5232572,0.1363775 1.5199777,0.1227515 1.6030683,0.1227515 C 1.6861628,0.1227515 1.6828833,0.1363775 1.6861589,0.1651964 C 1.6866077,0.1691216 1.6870054,0.1804287 1.6873243,0.1939995 L 1.8009893,0.19399556 C 1.800257,0.16823576 1.7990404,0.14671206 1.7977648,0.13549556 C 1.7912137,0.077857763 1.8139144,0.022668563 1.6031978,0.022668563 C 1.3924808,0.022664626 1.4151858,0.077857563 1.4086348,0.13549556 C 1.406501,0.15425536 1.4045246,0.20187746 1.4047333,0.24989356 C 1.4049341,0.29790926 1.406501,0.34553136 1.4086348,0.36429556 C 1.415186,0.42192946 1.3924813,0.47712256 1.6031978,0.47712256 C 1.8139178,0.47712256 1.7912138,0.42192966 1.7977648,0.36429556 C 1.7990089,0.35333496 1.8000601,0.33252386 1.8007648,0.30753966 L 1.6873398,0.30753573 L 1.68734,0.307535 z "
        style="fill:black" id="_58847472"/>
    <path
        d="M 3.15258,0.368756 L 3.0852887,0.36872057 L 3.0852887,0.26951587 L 3.1525643,0.26911429 C 3.2356549,0.26911429 3.2330761,0.25549229 3.2363517,0.22667339 C 3.2374226,0.2172915 3.2371982,0.22500016 3.2370958,0.20099229 C 3.2369934,0.17698049 3.2374186,0.18522849 3.2363517,0.17585059 C 3.2330761,0.14702779 3.2356548,0.13340569 3.1525643,0.13340569 L 3.0852533,0.13357892 L 3.0853635,0.46778792 L 2.9742455,0.46778792 L 2.9742455,0.03333092 L 3.1525805,0.033326983 C 3.3633005,0.033326983 3.3402025,0.088661583 3.3479545,0.14614998 C 3.3488797,0.15295707 3.3488758,0.18439798 3.3488758,0.20134688 C 3.3488797,0.21496108 3.3488758,0.24640198 3.3479545,0.25637048 C 3.3426356,0.31413428 3.363297,0.36875648 3.1525805,0.36875648 L 3.15258,0.368756 z "
        style="fill:black" id="_58005976"/>
    <path
        d="M 4.32707,2.42296 C 4.4101645,2.42296 4.406885,2.436586 4.4101606,2.4654049 C 4.4112315,2.4747829 4.412011,2.5260978 4.4121134,2.5501057 C 4.4122197,2.5741096 4.4112315,2.6254246 4.4101606,2.6348065 C 4.4068889,2.6636215 4.4101606,2.6772474 4.32707,2.6772474 C 4.2439834,2.6772474 4.247259,2.6636254 4.2439834,2.6348065 C 4.2429204,2.6254246 4.2419283,2.5741096 4.2420306,2.5501057 C 4.242133,2.5260939 4.2429165,2.4747868 4.2439834,2.4654049 C 4.2472629,2.4365821 4.2439834,2.422964 4.32707,2.422964 L 4.3272039,2.322881 C 4.1164869,2.322881 4.1391879,2.37807 4.1326369,2.435704 C 4.1304991,2.4544638 4.1285266,2.5020898 4.1287313,2.550106 C 4.12894,2.5981178 4.1304991,2.6457438 4.1326369,2.664504 C 4.139192,2.7221418 4.1164834,2.777335 4.3271999,2.777335 C 4.5379199,2.7773311 4.5152119,2.7221421 4.5217669,2.664504 C 4.5239007,2.6457402 4.5254676,2.5981182 4.5256684,2.550106 C 4.5258771,2.5020863 4.5239007,2.4544682 4.5217669,2.435704 C 4.5152157,2.3780662 4.5379204,2.322881 4.3271999,2.322881 L 4.3270699,2.42296 L 4.32707,2.42296 z "
        style="fill:black" id="_58004040"/>
    <polygon
        points="2.57176,2.76422 2.69896,2.32889 2.8643,2.32889 2.9918,2.76422 2.88089,2.76422 2.85469,2.67426 2.70917,2.67426 2.72979,2.60353 2.83374,2.60353 2.78221,2.42625 2.68265,2.76422 2.57176,2.76422 "
        style="fill:black" id="_58041912"/>
    <polygon
        points="1.64756,2.76422 1.77477,2.32889 1.9401,2.32889 2.06759,2.76422 1.9567,2.76422 1.9305,2.67426 1.78498,2.67426 1.8056,2.60353 1.90954,2.60353 1.85802,2.42625 1.75846,2.76422 1.64756,2.76422 "
        style="fill:black" id="_58000272"/>
    <polygon points="0.625579,2.33354 0.625579,2.76843 0.514669,2.76843 0.514669,2.33354 0.625579,2.33354 "
             style="fill:black" id="_58002936"/>
    <polygon points="1.27441,2.33354 1.27441,2.76843 1.1635,2.76843 1.1635,2.33354 1.27441,2.33354 "
             style="fill:black" id="_58834912"/>
    <polygon
        points="1.33335,2.33354 1.65211,2.33354 1.65211,2.44443 1.54818,2.44443 1.54818,2.76843 1.43728,2.76843 1.43728,2.44443 1.33335,2.44443 1.33335,2.33354 "
        style="fill:black" id="_58366056"/>
    <polygon
        points="2.23894,2.6584 2.23894,2.33354 2.12803,2.33354 2.12803,2.76887 2.41446,2.76887 2.41446,2.6584 2.23894,2.6584 "
        style="fill:black" id="_58602296"/>
    <polygon points="4.0619,2.33354 4.0619,2.76843 3.951,2.76843 3.951,2.33354 4.0619,2.33354 " style="fill:black"
             id="_57319360"/>
    <path
        d="M 3.62483,2.3338 L 3.6850859,2.3338 C 3.8958059,2.3338 3.8730979,2.3892488 3.8796529,2.446887 C 3.8817868,2.4656468 3.8837592,2.4992964 3.8835545,2.547312 C 3.8833537,2.5953277 3.8817828,2.6368435 3.8796529,2.655607 C 3.8730978,2.7132409 3.8958025,2.768434 3.6850859,2.768434 L 3.4916529,2.768434 L 3.4916529,2.3338 L 3.6248299,2.3338 L 3.6230819,2.4337409 L 3.6029992,2.433611 L 3.6029992,2.669225 L 3.6849559,2.668347 C 3.7680465,2.668347 3.7647709,2.654725 3.7680465,2.6259061 C 3.7691134,2.6165203 3.7701016,2.5713195 3.7699992,2.5473116 C 3.7698969,2.5233037 3.7691134,2.4859651 3.7680465,2.4765833 C 3.7647709,2.4477644 3.7680465,2.4341424 3.684952,2.4341424 L 3.6230819,2.4337409 L 3.6248299,2.3338 L 3.62483,2.3338 z "
        style="fill:black" id="_57953720"/>
    <path
        d="M 3.41885,2.5501 L 3.4187358,2.333529 L 3.3054128,2.333529 L 3.3054128,2.5501 C 3.3055113,2.5741079 3.304527,2.6254228 3.3034601,2.6348047 C 3.3001845,2.6636197 3.3034601,2.6772456 3.2203695,2.6772456 C 3.1372829,2.6772456 3.1405545,2.6636236 3.1372789,2.6348047 C 3.1362159,2.6254228 3.1353891,2.5741078 3.1354915,2.5501039 L 3.1356608,2.3335329 L 3.0220308,2.3335329 L 3.0220308,2.5500999 C 3.0222355,2.5981156 3.0237985,2.6457416 3.0259323,2.6645019 C 3.0324835,2.7221397 3.0097788,2.7773329 3.2204993,2.7773329 C 3.4312193,2.777329 3.4085113,2.72214 3.4150663,2.6645019 C 3.4171962,2.6457381 3.4186451,2.5981161 3.4188498,2.5500999 L 3.41885,2.5501 z "
        style="fill:black" id="_57974016"/>
    <path
        d="M 0.978508,2.60775 C 0.97817335,2.6205374 0.97775603,2.6310453 0.9773269,2.6348091 C 0.97405131,2.6636241 0.9773269,2.67725 0.8942403,2.67725 C 0.8111497,2.67725 0.8144253,2.663628 0.8111458,2.6348091 C 0.81008281,2.6254272 0.80909462,2.5741122 0.80919698,2.5501083 C 0.80929934,2.5260965 0.81008281,2.4747894 0.8111458,2.4654075 C 0.81442533,2.4365847 0.8111458,2.4229666 0.8942403,2.4229666 C 0.9773269,2.4229627 0.9740513,2.4365886 0.9773269,2.4654075 C 0.97777572,2.4693406 0.97817336,2.4666673 0.97848832,2.4802382 L 1.0921573,2.4802382 C 1.091425,2.4544744 1.0902085,2.4469232 1.0889329,2.4357067 C 1.0823778,2.3780689 1.1050825,2.3228837 0.89436591,2.3228837 C 0.68364891,2.3228837 0.70635391,2.3780727 0.69979891,2.4357067 C 0.69766899,2.4544665 0.69569655,2.5020925 0.69589734,2.5501087 C 0.69610206,2.5981205 0.69766899,2.6457465 0.69979891,2.6645067 C 0.70635403,2.7221445 0.68364931,2.7773377 0.89436591,2.7773377 C 1.1050859,2.7773338 1.0823779,2.7221448 1.0889329,2.6645067 C 1.0901809,2.6535421 1.0912321,2.632739 1.0919329,2.6077547 L 0.97850791,2.6077508 L 0.978508,2.60775 z "
        style="fill:black" id="_57950280"/>
    <polygon points="0.894102,2.53789 0.894102,2.60775 1.09193,2.60775 1.09193,2.53789 0.894102,2.53789 "
             style="fill:black" id="_57977608"/>
    <path
        d="M 0.185,2.3338 L 0.2452559,2.3338 C 0.4559759,2.3338 0.4332719,2.3892488 0.4398229,2.446887 C 0.44195676,2.4656468 0.4439292,2.4992964 0.44372447,2.547312 C 0.44352368,2.5953277 0.44195675,2.6368435 0.4398229,2.655607 C 0.43327172,2.7132409 0.4559764,2.768434 0.2452559,2.768434 L 0.0518229,2.768434 L 0.0518229,2.3338 L 0.1849999,2.3338 L 0.18325581,2.4337409 L 0.16316921,2.433611 L 0.16316921,2.669225 L 0.24512981,2.668347 C 0.32822041,2.668347 0.32494081,2.654725 0.32821641,2.6259061 C 0.32928334,2.6165203 0.33027153,2.5713195 0.33016917,2.5473116 C 0.33007074,2.5233037 0.32928334,2.4859651 0.32821641,2.4765833 C 0.32494082,2.4477644 0.32821641,2.4341424 0.24512581,2.4341424 L 0.18325571,2.4337409 L 0.1849998,2.3338 L 0.185,2.3338 z "
        style="fill:black" id="_58059312"/>
    <path
        d="M 0.995768,2.10578 L 0.301571,2.104969 C 0.201126,2.104969 0.119709,2.0235359 0.119709,1.923103 L 0.119709,0.86643298 C 0.119709,0.76598398 0.2011263,0.68457098 0.301571,0.68457098 L 0.736043,0.68407885 C 0.7882202,0.68407885 0.8305273,0.64178755 0.8305273,0.58959855 L 0.83179895,0.16711455 C 0.83179895,0.14524845 0.84953125,0.12751615 0.87139735,0.12751615 L 1.1261024,0.12751615 C 1.1479685,0.12751615 1.1657126,0.14524845 1.1657126,0.16711455 L 1.1683228,2.0663146 C 1.1683228,2.0881768 1.1505945,2.1059248 1.1287283,2.1059248 L 0.99576729,2.1057712 L 0.99253501,2.2001334 L 1.166271,2.2000822 C 1.2184442,2.2000822 1.2607513,2.1577909 1.2607513,2.1056019 L 1.2607513,0.12676193 C 1.2607513,0.074588726 1.2184442,0.032293426 1.166271,0.032293426 L 0.83210601,0.032293426 C 0.77993671,0.032293426 0.73762571,0.074588726 0.73762571,0.12676193 L 0.73810209,0.55030493 C 0.73810209,0.57217103 0.72036589,0.58991913 0.69848789,0.58991913 L 0.30157089,0.58919078 C 0.14845289,0.58919078 0.024318888,0.71330878 0.024318888,0.86643478 L 0.024318888,1.9230948 C 0.024318888,2.0762048 0.14844889,2.2003388 0.30157089,2.2003388 L 0.99253589,2.2001341 L 0.99576817,2.1057719 L 0.995768,2.10578 z "
        style="fill:black" id="_58027024"/>
    <path
        d="M 0.73761,1.71683 L 0.73761,1.03322 C 0.73761,0.9759287 0.6911651,0.929488 0.633866,0.929488 C 0.5765786,0.92948406 0.530134,0.9759329 0.530134,1.03322 L 0.530134,1.771141 C 0.530134,1.8284284 0.5765789,1.874889 0.633866,1.874889 C 0.6911652,1.874889 0.73761,1.8284323 0.73761,1.771145 L 0.73761,1.71683 L 0.8319131,1.7200623 L 0.8319131,1.771141 C 0.8319131,1.880507 0.7432399,1.969176 0.6338661,1.969176 C 0.5245041,1.969176 0.4358351,1.8805067 0.4358351,1.771145 L 0.4358351,1.03322 C 0.4358351,0.92385798 0.5245044,0.83518898 0.6338661,0.83518898 C 0.7432401,0.83518898 0.8319091,0.92385828 0.8319091,1.03322 L 0.83191304,1.720063 L 0.73760994,1.7168307 L 0.73761,1.71683 z "
        style="fill:black" id="_57444416"/>
    <path
        d="M 1.65558,2.10577 L 1.525655,2.1057779 C 1.5037731,2.1057779 1.4860408,2.0880338 1.4860408,2.0661677 L 1.4876353,0.72501767 C 1.4876353,0.70313577 1.5053636,0.68540747 1.5272455,0.68540747 L 1.7819505,0.68540747 C 1.8038285,0.68540747 1.8215607,0.70313577 1.8215607,0.72501767 L 1.8241749,2.0661477 C 1.8241749,2.0880257 1.8064426,2.1057579 1.7845765,2.1057579 L 1.6555805,2.1057657 L 1.6555805,2.199746 L 1.8221195,2.1999193 C 1.8743085,2.1999193 1.9165998,2.157624 1.9165998,2.1054547 L 1.9166037,0.68466468 C 1.9166037,0.63249148 1.8743084,0.59018438 1.8221194,0.59018438 L 1.4879424,0.59018438 C 1.4357692,0.59018438 1.3934739,0.63249148 1.3934739,0.68466868 L 1.393277,2.1050887 C 1.393277,2.1572816 1.4352494,2.1995769 1.4874227,2.1995769 L 1.6555797,2.1997501 L 1.6555797,2.1057698 L 1.65558,2.10577 z "
        style="fill:black" id="_59621320"/>
    <path
        d="M 2.85552,0.949295 L 2.575701,0.94891311 C 2.4896026,0.94891311 2.41978,1.0187359 2.41978,1.1048341 C 2.4197839,1.1909404 2.4896028,1.2607511 2.575701,1.2607511 L 2.959075,1.2617984 C 3.059508,1.2617984 3.140941,1.3432315 3.140941,1.4436644 L 3.1396575,1.9209284 C 3.1396575,2.0213814 3.0582244,2.1027984 2.9577915,2.1027984 L 2.1967565,2.1041802 C 2.1748904,2.1041802 2.1571423,2.0864361 2.1571423,2.06457 L 2.1571423,1.879727 C 2.1571423,1.8578451 2.1748864,1.8401168 2.1967525,1.8401168 L 2.7154255,1.8384239 C 2.8015357,1.8384239 2.8713585,1.7686208 2.8713585,1.6825069 C 2.8713585,1.5963967 2.8015357,1.5265899 2.7154215,1.5265899 L 2.3399175,1.5251096 C 2.2394845,1.5251096 2.1580475,1.4436765 2.1580475,1.3432436 L 2.1580475,0.86643262 C 2.1580475,0.76598362 2.2394806,0.68457062 2.3399135,0.68457062 L 3.0453705,0.68127141 C 3.0672366,0.68127141 3.084965,0.69901941 3.084965,0.72088561 L 3.0849847,0.90994061 C 3.0849847,0.93181071 3.0672485,0.94955481 3.0453666,0.94955481 L 2.8555206,0.94929497 L 2.8522883,1.0422478 L 3.0843123,1.0423186 C 3.1364855,1.0423186 3.1787926,1.0003462 3.1787926,0.94817293 L 3.179143,0.68333793 C 3.179143,0.63115293 3.1368477,0.58885763 3.0846587,0.58885763 L 2.3399187,0.58919228 C 2.1868087,0.58919228 2.0626747,0.71331028 2.0626747,0.86643628 L 2.0626787,1.3432433 C 2.0626787,1.4963533 2.1868047,1.6204833 2.3399147,1.6204833 L 2.7154267,1.6198415 C 2.7500487,1.6198415 2.7781039,1.6478966 2.7781039,1.6825069 C 2.7781039,1.7171289 2.7500488,1.745188 2.7154228,1.745188 L 2.1564068,1.7450739 C 2.1042296,1.7450739 2.0619344,1.7873692 2.0619344,1.8395582 L 2.0619383,2.1038612 C 2.0619383,2.1560462 2.1042296,2.1983415 2.1564029,2.1983415 L 2.9577929,2.1981722 C 3.1109029,2.1981722 3.2350329,2.0740582 3.2350329,1.9209322 L 3.2363164,1.4436602 C 3.2363164,1.2905502 3.1121864,1.1664202 2.9590764,1.1664202 L 2.5757024,1.1675107 C 2.5410922,1.1675107 2.513037,1.1394556 2.513037,1.1048335 C 2.513037,1.0702193 2.5410921,1.0421681 2.5757024,1.0421681 L 2.8522894,1.0422469 L 2.8555217,0.94929407 L 2.85552,0.949295 z "
        style="fill:black" id="_57306704"/>
    <path
        d="M 4.26571,1.2115 L 4.385891,1.2115 C 4.407769,1.2115 4.4254973,1.1937717 4.4254973,1.1718898 L 4.4249973,0.8664368 C 4.4249973,0.7659878 4.34358,0.6845748 4.2431313,0.6845748 L 3.6418993,0.6845748 C 3.5414543,0.6845748 3.4600213,0.7659921 3.4600213,0.8664408 L 3.4600213,1.9231008 C 3.4600213,2.0235338 3.5414504,2.1049668 3.6418993,2.1049668 L 4.2431313,2.1049668 C 4.3435803,2.1049668 4.4249973,2.0235337 4.4249973,1.9231008 L 4.4254973,1.6326718 C 4.4254973,1.6107899 4.407769,1.5930576 4.3858871,1.5930576 L 4.1590761,1.5930576 C 4.137206,1.5930576 4.1194737,1.6107899 4.1194737,1.6326718 L 4.1207493,1.7711478 C 4.1207493,1.8805138 4.0518753,1.9691828 3.9425173,1.9691828 C 3.8331393,1.9691828 3.7642853,1.8805135 3.7642853,1.7711518 L 3.7642853,1.0332268 C 3.7642853,0.9238648 3.8331396,0.8351958 3.9425173,0.8351958 C 4.0518793,0.8351958 4.1207453,0.9238651 4.1207453,1.0332268 L 4.1194776,1.1718878 C 4.1194776,1.1937697 4.1372059,1.211498 4.1590721,1.211498 L 4.2657101,1.211498 L 4.2624778,1.3067224 L 4.1197848,1.3067224 C 4.0676116,1.3067224 4.0253045,1.2644153 4.0253045,1.2122421 L 4.0264502,1.0332261 C 4.0264502,0.9759348 3.9998045,0.9294941 3.9425171,0.9294941 C 3.885214,0.92949016 3.8585683,0.975939 3.8585683,1.0332261 L 3.8585683,1.7711471 C 3.8585683,1.8284345 3.885214,1.8748951 3.9425171,1.8748951 C 3.9998045,1.8748951 4.0264462,1.8284384 4.0264462,1.7711511 L 4.0253044,1.5923201 C 4.0253044,1.5401429 4.0676115,1.4978358 4.1197847,1.4978358 L 4.4260607,1.4978358 C 4.4782497,1.4978358 4.520541,1.5401468 4.520541,1.5923201 L 4.5203757,1.9231001 C 4.5203757,2.0762101 4.3962577,2.2003441 4.2431317,2.2003441 L 3.6418997,2.2003441 C 3.4887777,2.2003441 3.3646437,2.0762101 3.3646437,1.9231001 L 3.3646437,0.8664301 C 3.3646437,0.7133081 3.4887777,0.5891941 3.6418997,0.5891941 L 4.2431317,0.58919016 C 4.3962577,0.58919016 4.5203717,0.71330816 4.5203717,0.86643416 L 4.520541,1.2122372 C 4.520541,1.2644104 4.4782457,1.3067175 4.4260607,1.3067175 L 4.2624777,1.3067175 L 4.2657099,1.2114931 L 4.26571,1.2115 z "
        style="fill:black" id="_57310208"/>
  </g>
 </g>
</svg>