<?xml version="1.0" encoding="UTF-8" standalone="no"?><!-- Created with Inkscape (http://www.inkscape.org/) -->
<svg xmlns="http://www.w3.org/2000/svg" version="1.0" width="4.6500001in" height="4.5999999in" viewBox="0 0 4.65 4.6"
     id="svg2275" xml:space="preserve">
 <defs id="defs2277">
  <style type="text/css" id="style2279"/>
 </defs>
    <g id="Layer_x0020_1">

  <g id="_40602536">
   <path
       d="M 4.56762,3.73632 L 4.56762,3.125308 C 4.56762,3.0600836 4.5147302,3.007202 4.449529,3.007202 L 0.213489,3.007202 C 0.1482843,3.007202 0.095398,3.0600839 0.095398,3.125308 L 0.095398,3.73632 L 4.567618,3.73632 L 4.56762,3.73632 z "
       style="fill:black;stroke:black;stroke-width:0.0972205" id="_58961472"/>
      <path
          d="M 4.44953,4.52109 C 4.5147347,4.52109 4.567617,4.4682081 4.567617,4.402984 L 4.5676209,3.125304 C 4.5676209,3.0600796 4.5147311,3.007198 4.4495299,3.007198 L 0.21348994,3.007198 C 0.14828524,3.007198 0.095398937,3.0600799 0.095398937,3.125304 L 0.095398937,4.402984 C 0.095398937,4.4682084 0.14828474,4.52109 0.21348994,4.52109 L 4.4495299,4.52109 L 4.44953,4.52109 z "
          style="fill:none;stroke:black;stroke-width:0.0972205" id="_58961520"/>
      <path
          d="M 0.873016,4.17473 L 0.670788,4.17473 L 0.670788,4.11623 L 0.922134,4.11623 L 0.922134,4.2014544 C 0.922134,4.2700646 0.92213006,4.3191784 0.8903505,4.3545684 C 0.8643505,4.3841826 0.8202914,4.3877928 0.7538465,4.3877928 L 0.6130075,4.3877928 C 0.5508973,4.3877928 0.5082795,4.3834621 0.4786685,4.3502377 C 0.4505031,4.3184582 0.4418339,4.269344 0.4418339,4.1949547 L 0.4418339,4.0519467 C 0.4418339,3.9710569 0.45049925,3.9183327 0.4786685,3.8865527 C 0.5068378,3.8547732 0.549448,3.8497181 0.6122825,3.8497181 L 0.7538455,3.8497181 C 0.8816845,3.8497181 0.9250185,3.8814976 0.9177985,4.0259461 L 0.873015,4.0259461 C 0.87445988,3.9356666 0.8499048,3.9074971 0.7805701,3.9074971 L 0.5927871,3.9074971 C 0.5501729,3.9074971 0.524169,3.915442 0.5082792,3.9457766 C 0.4938383,3.9732215 0.4938343,4.0086112 0.4938343,4.0577256 L 0.49383824,4.1768946 C 0.49383824,4.2260088 0.4938343,4.2613985 0.50827914,4.2888476 C 0.52416894,4.3184578 0.55017284,4.3271271 0.59278304,4.3271271 L 0.77912604,4.3271232 C 0.85857484,4.3271232 0.87301584,4.3004027 0.87301584,4.2014542 L 0.87301584,4.1747298 L 0.873016,4.17473 z "
          style="fill:black" id="_58847624"/>
      <path
          d="M 1.00872,3.85622 L 1.289677,3.85622 C 1.400901,3.85622 1.44496,3.8742751 1.44496,3.981169 L 1.44496,4.0440076 C 1.44496,4.1061178 1.4297946,4.1335627 1.3756214,4.1487316 C 1.4182356,4.1552316 1.4406253,4.1899009 1.4406253,4.2512906 L 1.4406292,4.3812946 L 1.391515,4.3812946 L 1.391515,4.2642906 C 1.391515,4.181956 1.3640662,4.175456 1.2961764,4.175456 L 1.0571134,4.1754521 L 1.0571134,4.3812951 L 1.0087197,4.3812951 L 1.0087197,3.8562201 L 1.00872,3.85622 z M 1.0571137,4.114787 L 1.3055667,4.114787 C 1.3756258,4.114787 1.3929604,4.0981728 1.3929604,4.0266728 L 1.3929604,4.0013933 C 1.3929604,3.9298894 1.3756218,3.9132791 1.3055667,3.9132791 L 1.0571137,3.9132791 L 1.0571137,4.1147871 L 1.0571137,4.114787 z "
          style="fill:black" id="_59403008"/>
      <path
          d="M 1.77566,3.85622 L 2.004617,4.381295 L 1.9526131,4.381295 L 1.9013336,4.265736 L 1.5878766,4.265736 L 1.538042,4.381295 L 1.4817074,4.381295 L 1.7106604,3.85622 L 1.7756604,3.85622 L 1.77566,3.85622 z M 1.7438844,3.90822 L 1.6117114,4.210122 L 1.8774984,4.210122 L 1.7438844,3.90822 L 1.7438844,3.90822 z "
          style="fill:black" id="_59362616"/>
      <path
          d="M 2.05221,3.85622 L 2.325942,3.85622 C 2.435725,3.85622 2.479781,3.8735546 2.479781,3.981169 L 2.479781,4.0497832 C 2.479781,4.1573972 2.4357259,4.1740112 2.325942,4.1740112 L 2.100603,4.1740112 L 2.100603,4.3812942 L 2.0522093,4.3812942 L 2.0522093,3.8562192 L 2.05221,3.85622 z M 2.427781,4.026669 L 2.427781,4.0013934 C 2.427781,3.9306099 2.4126156,3.9132792 2.3396668,3.9132792 L 2.1006038,3.9132792 L 2.1006038,4.1147872 L 2.3396668,4.1147872 C 2.4126156,4.1147872 2.427781,4.0974526 2.427781,4.0266691 L 2.427781,4.026669 z "
          style="fill:black" id="_59894560"/>
      <polygon
          points="2.55403,3.85622 2.60242,3.85622 2.60242,4.08228 2.95993,4.08228 2.95993,3.85622 3.00831,3.85622 3.00831,4.3813 2.95993,4.3813 2.95993,4.13934 2.60242,4.13934 2.60242,4.3813 2.55403,4.3813 2.55403,3.85622 "
          style="fill:black" id="_59353656"/>
      <polygon points="3.10576,3.85622 3.15704,3.85622 3.15704,4.3813 3.10576,4.3813 3.10576,3.85622 "
               style="fill:black" id="_59878464"/>
      <path
          d="M 3.24714,4.19496 L 3.24714,4.051952 C 3.24714,3.9710622 3.2558014,3.918338 3.2839707,3.886558 C 3.3121439,3.8547785 3.3547502,3.8497234 3.4175847,3.8497234 L 3.5418127,3.8497234 C 3.6696517,3.8497234 3.7122657,3.8815029 3.7050407,4.0259514 L 3.6609856,4.0259514 C 3.6624305,3.9363923 3.6378714,3.9075024 3.5685368,3.9075024 L 3.3980878,3.9075024 C 3.3554736,3.9075024 3.3294697,3.9161677 3.3135839,3.9457819 C 3.299139,3.9732268 3.2991351,4.0086165 3.2991351,4.0577309 L 3.299139,4.1768999 C 3.299139,4.2260141 3.2991351,4.2614038 3.3135839,4.2888529 C 3.3294737,4.3184631 3.3554737,4.3271324 3.3980839,4.3271324 L 3.5678159,4.3271285 C 3.6436505,4.3271285 3.6674852,4.3011285 3.6645954,4.2014595 L 3.7093749,4.2014595 C 3.7115442,4.2765697 3.7057647,4.3242395 3.6783198,4.3545735 C 3.6523198,4.3841877 3.6082607,4.3877979 3.5418118,4.3877979 L 3.4183078,4.3877979 C 3.3561936,4.3877979 3.3135838,4.3841876 3.2839688,4.3509633 C 3.2558034,4.3191838 3.2471342,4.2693491 3.2471381,4.1949593 L 3.24714,4.19496 z "
          style="fill:black" id="_58402072"/>
      <path
          d="M 3.83133,4.24118 C 3.83133,4.3126839 3.8652749,4.3292981 3.946889,4.3292981 L 4.049452,4.3292981 C 4.1455111,4.3292981 4.178732,4.3155737 4.178732,4.2274591 C 4.178732,4.1530654 4.1534525,4.1407898 4.0920627,4.1407898 L 3.9259487,4.1407898 C 3.8233857,4.1407898 3.7829407,4.1046796 3.7829407,3.9963408 C 3.7829407,3.8793328 3.8334958,3.8497228 3.9526647,3.8497228 L 4.0422277,3.8497228 C 4.1144521,3.8497228 4.1621177,3.8518921 4.1902867,3.8829472 C 4.211956,3.9067818 4.218456,3.9450614 4.2170111,4.0021162 L 4.1700662,4.0021162 C 4.1715111,3.9190611 4.1476764,3.9060571 4.0725623,3.9060571 L 3.9382233,3.9060571 C 3.8609438,3.9060571 3.8342153,3.9226713 3.8342153,3.9934508 C 3.8342192,4.0707303 3.8652744,4.0822854 3.9411093,4.0822854 L 4.0826723,4.0822854 C 4.1317865,4.0822854 4.1671762,4.0851752 4.1902863,4.1032342 C 4.2199005,4.1270649 4.2271209,4.1660688 4.2271209,4.2310692 C 4.2271248,4.3516872 4.1837863,4.3877972 4.0646129,4.3877972 L 3.9310029,4.3877972 C 3.8284399,4.3877972 3.7843809,4.3509626 3.7843809,4.2498482 C 3.7843848,4.2382931 3.7851053,4.2252931 3.7851053,4.2101238 L 3.8327746,4.2101238 C 3.8320541,4.2238482 3.8313297,4.2339584 3.8313297,4.2411789 L 3.83133,4.24118 z "
          style="fill:black" id="_59371256"/>
      <polygon
          points="0.738374,3.12011 0.738374,3.17861 0.398193,3.17861 0.398193,3.34329 0.723929,3.34329 0.723929,3.40179 0.398193,3.40179 0.398193,3.58668 0.738374,3.58668 0.738374,3.64519 0.350528,3.64519 0.350528,3.12011 0.738374,3.12011 "
          style="fill:white" id="_59565488"/>
      <polygon
          points="0.783815,3.12011 0.852429,3.12011 1.01638,3.33462 1.18394,3.12011 1.25039,3.12011 1.0626,3.36495 1.27567,3.64519 1.20633,3.64519 1.01782,3.39456 0.830039,3.64519 0.75926,3.64519 0.972323,3.36495 0.783815,3.12011 "
          style="fill:white" id="_58326816"/>
      <polygon
          points="1.48061,3.17861 1.28561,3.17861 1.28561,3.12011 1.72473,3.12011 1.72473,3.17861 1.53189,3.17861 1.53189,3.64519 1.48061,3.64519 1.48061,3.17861 "
          style="fill:white" id="_58618128"/>
      <polygon
          points="2.17453,3.12011 2.17453,3.17861 1.83435,3.17861 1.83435,3.34329 2.16009,3.34329 2.16009,3.40179 1.83435,3.40179 1.83435,3.58668 2.17453,3.58668 2.17453,3.64519 1.78669,3.64519 1.78669,3.12011 2.17453,3.12011 "
          style="fill:white" id="_59531856"/>
      <polygon
          points="2.24669,3.12011 2.32325,3.12011 2.67931,3.58524 2.67931,3.12011 2.72843,3.12011 2.72843,3.64519 2.65693,3.64519 2.29509,3.17283 2.29509,3.64519 2.24669,3.64519 2.24669,3.12011 "
          style="fill:white" id="_58266024"/>
      <path
          d="M 3.30246,3.3115 L 3.30246,3.453787 C 3.30246,3.5296216 3.2909009,3.578732 3.2562317,3.611236 C 3.2258971,3.6408462 3.1811175,3.6451809 3.1204487,3.6451809 L 2.8243307,3.6451809 L 2.8243307,3.1201059 L 3.1204527,3.1201059 C 3.181122,3.1201059 3.2258977,3.1244406 3.2562327,3.1540508 C 3.290902,3.1865508 3.3024571,3.235665 3.302461,3.3114998 L 3.30246,3.3115 z M 2.87272,3.586677 L 3.152228,3.586677 C 3.2251729,3.586677 3.2518973,3.554177 3.2518973,3.459563 L 3.2519012,3.306445 C 3.2519012,3.2082206 3.2295114,3.178606 3.152228,3.178606 L 2.87272,3.178606 L 2.87272,3.586677 L 2.87272,3.586677 z "
          style="fill:white" id="_57898744"/>
      <polygon
          points="3.77537,3.12011 3.77537,3.17861 3.43519,3.17861 3.43519,3.34329 3.76093,3.34329 3.76093,3.40179 3.43519,3.40179 3.43519,3.58668 3.77537,3.58668 3.77537,3.64519 3.38752,3.64519 3.38752,3.12011 3.77537,3.12011 "
          style="fill:white" id="_58894464"/>
      <path
          d="M 4.32566,3.3115 L 4.32566,3.453787 C 4.32566,3.5296216 4.3141009,3.578732 4.2794356,3.611236 C 4.249101,3.6408462 4.2043214,3.6451809 4.1436526,3.6451809 L 3.8475346,3.6451809 L 3.8475346,3.1201059 L 4.1436526,3.1201059 C 4.2043219,3.1201059 4.2490976,3.1244406 4.2794356,3.1540508 C 4.3141049,3.1865508 4.32566,3.235665 4.32566,3.3114998 L 4.32566,3.3115 z M 3.895924,3.586677 L 4.175432,3.586677 C 4.2483769,3.586677 4.2751013,3.554177 4.2751013,3.459563 L 4.2751052,3.306445 C 4.2751052,3.2082206 4.2527115,3.178606 4.175428,3.178606 L 3.895924,3.178606 L 3.895924,3.586677 L 3.895924,3.586677 z "
          style="fill:white" id="_57430640"/>
      <path
          d="M 4.11439,0.363787 C 4.1140593,0.3765705 4.113638,0.3870823 4.1132128,0.3908421 C 4.1099372,0.419661 4.1132128,0.433283 4.0301183,0.433283 C 3.9470356,0.433283 3.9503073,0.419661 3.9470317,0.3908421 C 3.9459648,0.38146021 3.9449766,0.3301492 3.945079,0.3061413 C 3.9451813,0.2821334 3.9459648,0.2308224 3.9470317,0.2214405 C 3.9503073,0.1926216 3.9470317,0.1789996 4.0301183,0.1789996 C 4.1132128,0.1789996 4.1099333,0.1926256 4.1132128,0.2214405 C 4.1136577,0.22536963 4.1140554,0.2366767 4.1143743,0.2502476 L 4.2280393,0.25024366 C 4.2273109,0.22448386 4.2260904,0.20296016 4.2248188,0.19174366 C 4.2182637,0.13410586 4.2409684,0.078916663 4.0302518,0.078916663 C 3.8195348,0.078912726 3.8422358,0.13410566 3.8356848,0.19174366 C 3.8335549,0.21050346 3.8315745,0.25812946 3.8317793,0.30614166 C 3.8319879,0.35415736 3.8335509,0.40177946 3.8356848,0.42054366 C 3.8422399,0.47817756 3.8195313,0.53337066 4.0302518,0.53337066 C 4.2409718,0.53336673 4.2182638,0.47818166 4.2248188,0.42054366 C 4.2260668,0.40958306 4.2271141,0.38877196 4.2278148,0.36379166 L 4.1143898,0.36378773 L 4.11439,0.363787 z "
          style="fill:black" id="_59268504"/>
      <polygon
          points="2.76661,0.0904409 2.65572,0.414433 2.54481,0.0904409 2.37889,0.0895748 2.37889,0.524465 2.4898,0.524465 2.4898,0.200472 2.6007,0.524465 2.71161,0.524465 2.82164,0.200472 2.82164,0.524465 2.93254,0.524465 2.93254,0.0895748 2.76661,0.0904409 "
          style="fill:black" id="_58345216"/>
      <polygon
          points="4.25293,0.0895748 4.57168,0.0895748 4.57168,0.200472 4.46776,0.200472 4.46776,0.524465 4.35685,0.524465 4.35685,0.200472 4.25293,0.200472 4.25293,0.0895748 "
          style="fill:black" id="_57451528"/>
      <polygon
          points="3.398,0.524465 3.5252,0.0891457 3.69054,0.0891457 3.81804,0.524465 3.70714,0.524465 3.68094,0.434512 3.53541,0.434512 3.55604,0.363787 3.65998,0.363787 3.60845,0.1865 3.5089,0.524465 3.398,0.524465 "
          style="fill:black" id="_58593856"/>
      <path
          d="M 2.1118,0.179 C 2.1948906,0.179 2.191611,0.192626 2.1948906,0.2214409 C 2.1959536,0.23081885 2.1967371,0.2821338 2.1968434,0.3061417 C 2.1969418,0.3301496 2.1959536,0.3814645 2.1948906,0.3908425 C 2.191615,0.4196614 2.1948906,0.4332834 2.1118,0.4332834 C 2.0287094,0.4332834 2.031985,0.4196614 2.0287094,0.3908425 C 2.0276425,0.38146061 2.0266543,0.3301496 2.0267566,0.3061417 C 2.026859,0.2821338 2.0276425,0.2308228 2.0287094,0.2214409 C 2.031985,0.192622 2.0287094,0.179 2.1118,0.179 L 2.1119299,0.078913 C 1.9012099,0.078913 1.9239139,0.1341059 1.9173629,0.191744 C 1.9152291,0.2105038 1.9132527,0.2581298 1.9134574,0.306142 C 1.9136621,0.3541577 1.9152291,0.4017798 1.9173629,0.420544 C 1.9239141,0.4781779 1.9012094,0.533371 2.1119299,0.533371 C 2.3226499,0.53336706 2.2999419,0.478182 2.3064969,0.420544 C 2.3086268,0.4017802 2.3101938,0.3541582 2.3103985,0.306142 C 2.3106032,0.2581263 2.3086268,0.2105042 2.3064969,0.191744 C 2.2999418,0.1341062 2.3226465,0.078917 2.1119299,0.078917 L 2.1118,0.179 L 2.1118,0.179 z "
          style="fill:black" id="_58859480"/>
      <path
          d="M 1.73734,0.363787 C 1.7370054,0.3765705 1.736592,0.3870823 1.7361628,0.3908421 C 1.7328872,0.419661 1.7361628,0.433283 1.6530683,0.433283 C 1.5699777,0.433283 1.5732573,0.419661 1.5699777,0.3908421 C 1.5689147,0.38146021 1.5679265,0.3301492 1.5680289,0.3061413 C 1.5681313,0.2821334 1.5689147,0.2308224 1.5699777,0.2214405 C 1.5732573,0.1926216 1.5699777,0.1789996 1.6530683,0.1789996 C 1.7361628,0.1789996 1.7328833,0.1926256 1.7361628,0.2214405 C 1.7366116,0.22536963 1.7370054,0.2366767 1.7373243,0.2502476 L 1.8509893,0.25024366 C 1.8502609,0.22448386 1.8490404,0.20296016 1.8477648,0.19174366 C 1.8412137,0.13410586 1.8639183,0.078916663 1.6532018,0.078916663 C 1.4424848,0.078912726 1.4651858,0.13410566 1.4586348,0.19174366 C 1.456501,0.21050346 1.4545246,0.25812946 1.4547333,0.30614166 C 1.4549341,0.35415736 1.456501,0.40177946 1.4586348,0.42054366 C 1.465186,0.47817756 1.4424813,0.53337066 1.6532018,0.53337066 C 1.8639188,0.53336673 1.8412138,0.47818166 1.8477648,0.42054366 C 1.8490129,0.40958306 1.8500641,0.38877196 1.8507648,0.36379166 L 1.7373398,0.36378773 L 1.73734,0.363787 z "
          style="fill:black" id="_58799920"/>
      <path
          d="M 3.20258,0.425004 L 3.1352847,0.42496463 L 3.1352847,0.32576773 L 3.2025642,0.32535828 C 3.2856508,0.32535828 3.2830721,0.31174018 3.2863477,0.28292128 C 3.2874186,0.27353545 3.2871942,0.28124805 3.2870918,0.25724018 C 3.2869934,0.23323228 3.2874146,0.24148038 3.2863477,0.23209448 C 3.2830761,0.20327948 3.2856509,0.18965358 3.2025603,0.18965358 L 3.1352493,0.18982681 L 3.1353635,0.52403181 L 3.0242375,0.52403181 L 3.0242375,0.089574809 L 3.2025805,0.089570872 C 3.4132935,0.089570872 3.3901985,0.14490947 3.3979545,0.20239787 C 3.3988757,0.20920889 3.3988718,0.24064587 3.3988718,0.25759077 C 3.3988757,0.27121277 3.3988718,0.30264987 3.3979545,0.31261837 C 3.3926356,0.37038217 3.4132931,0.42500437 3.2025805,0.42500437 L 3.20258,0.425004 z "
          style="fill:black" id="_59260544"/>
      <path
          d="M 4.37707,2.47921 C 4.4601606,2.47921 4.456885,2.492832 4.4601606,2.5216509 C 4.4612275,2.5310289 4.4620071,2.5823438 4.4621094,2.6063517 C 4.4622157,2.6303556 4.4612275,2.6816706 4.4601606,2.6910525 C 4.456885,2.7198675 4.4601606,2.7334934 4.3770661,2.7334934 C 4.2939795,2.7334934 4.2972551,2.7198714 4.2939755,2.6910525 C 4.2929125,2.6816706 4.2919243,2.6303596 4.2920267,2.6063517 C 4.292133,2.5823399 4.2929125,2.5310328 4.2939755,2.5216509 C 4.297255,2.4928281 4.2939755,2.47921 4.3770661,2.47921 L 4.3772,2.379123 C 4.166483,2.379123 4.189184,2.4343159 4.182633,2.49195 C 4.1804991,2.5107138 4.1785227,2.5583358 4.1787314,2.606352 C 4.1789361,2.6543599 4.1804991,2.7019898 4.182633,2.72075 C 4.1891841,2.7783839 4.1664834,2.833577 4.3772,2.833577 C 4.587917,2.833577 4.565212,2.778388 4.571763,2.72075 C 4.5738968,2.7019862 4.5754637,2.6543642 4.5756645,2.606352 C 4.5758732,2.5583323 4.5738968,2.5107142 4.571763,2.49195 C 4.5652118,2.4343122 4.5879165,2.379123 4.3772,2.379123 L 4.37707,2.47921 L 4.37707,2.47921 z "
          style="fill:black" id="_58604336"/>
      <polygon
          points="2.62176,2.82046 2.74896,2.38514 2.91429,2.38514 3.04179,2.82046 2.93089,2.82046 2.90469,2.73051 2.75917,2.73051 2.77978,2.65978 2.88373,2.65978 2.8322,2.4825 2.73265,2.82046 2.62176,2.82046 "
          style="fill:black" id="_58848560"/>
      <polygon
          points="1.69756,2.82046 1.82476,2.38514 1.9901,2.38514 2.1176,2.82046 2.0067,2.82046 1.9805,2.73051 1.83498,2.73051 1.85559,2.65978 1.95954,2.65978 1.90801,2.4825 1.80846,2.82046 1.69756,2.82046 "
          style="fill:black" id="_58950064"/>
      <polygon points="0.675575,2.38979 0.675575,2.82468 0.564665,2.82468 0.564665,2.38979 0.675575,2.38979 "
               style="fill:black" id="_58591960"/>
      <polygon points="1.3244,2.38979 1.3244,2.82468 1.2135,2.82468 1.2135,2.38979 1.3244,2.38979 " style="fill:black"
               id="_57896616"/>
      <polygon
          points="1.38335,2.38979 1.7021,2.38979 1.7021,2.50069 1.59817,2.50069 1.59817,2.82468 1.48728,2.82468 1.48728,2.50069 1.38335,2.50069 1.38335,2.38979 "
          style="fill:black" id="_57422256"/>
      <polygon
          points="2.28894,2.71465 2.28894,2.38979 2.17803,2.38979 2.17803,2.82511 2.46447,2.82511 2.46447,2.71465 2.28894,2.71465 "
          style="fill:black" id="_58973848"/>
      <polygon points="4.11189,2.38979 4.11189,2.82468 4.001,2.82468 4.001,2.38979 4.11189,2.38979 " style="fill:black"
               id="_57453184"/>
      <path
          d="M 3.67483,2.39005 L 3.7350898,2.39005 C 3.9458068,2.39005 3.9230978,2.4454988 3.9296528,2.503137 C 3.9317867,2.5218968 3.9337591,2.5555464 3.9335544,2.603562 C 3.9333536,2.6515738 3.9317827,2.6930935 3.9296528,2.711857 C 3.9231016,2.7694909 3.9458024,2.824684 3.7350858,2.824684 L 3.5416528,2.824684 L 3.5416528,2.39005 L 3.6748298,2.39005 L 3.6730857,2.4899909 L 3.653003,2.489857 L 3.653003,2.725475 L 3.7349558,2.7245971 C 3.8180503,2.7245971 3.8147708,2.7109751 3.8180464,2.6821562 C 3.8191173,2.6727743 3.8201015,2.6275696 3.8199992,2.6035617 C 3.8198968,2.5795499 3.8191133,2.5422152 3.8180464,2.5328334 C 3.8147708,2.5040106 3.8180464,2.4903925 3.7349558,2.4903925 L 3.6730857,2.4899909 L 3.6748298,2.39005 L 3.67483,2.39005 z "
          style="fill:black" id="_58589048"/>
      <path
          d="M 3.46885,2.60635 L 3.4687319,2.389779 L 3.3554129,2.389779 L 3.3554129,2.60635 C 3.3555153,2.6303579 3.3545271,2.6816728 3.3534601,2.6910547 C 3.3501845,2.7198697 3.3534601,2.7334956 3.2703695,2.7334956 C 3.1872789,2.7334956 3.1905545,2.7198736 3.1872789,2.6910547 C 3.186212,2.6816728 3.1853931,2.6303618 3.1854955,2.6063539 L 3.1856608,2.3897869 L 3.0720308,2.3897869 L 3.0720308,2.6063499 C 3.0722355,2.6543617 3.0737985,2.7019916 3.0759324,2.7207519 C 3.0824875,2.7783858 3.0597789,2.8335789 3.2704994,2.8335789 C 3.4812164,2.8335789 3.4585114,2.7783899 3.4650664,2.7207519 C 3.4671963,2.7019881 3.4686451,2.6543661 3.4688499,2.6063499 L 3.46885,2.60635 z "
          style="fill:black" id="_58966864"/>
      <path
          d="M 1.0285,2.664 C 1.0281654,2.6767874 1.027752,2.6872953 1.0273228,2.6910591 C 1.0240472,2.7198741 1.0273228,2.7335 0.94423223,2.7335 C 0.86114163,2.7335 0.86441723,2.719878 0.86113773,2.6910591 C 0.86007474,2.6816772 0.85908655,2.6303662 0.85918891,2.6063583 C 0.85929127,2.5823465 0.86007474,2.5310394 0.86113773,2.5216575 C 0.86441726,2.4928347 0.86113773,2.4792166 0.94423223,2.4792166 C 1.0273228,2.4792166 1.0240432,2.4928386 1.0273228,2.5216575 C 1.0277716,2.5255906 1.0281653,2.5229173 1.0284843,2.5364882 L 1.1421492,2.5364843 C 1.141417,2.5107245 1.1402004,2.5031733 1.1389248,2.4919567 C 1.1323737,2.4343189 1.1550783,2.3791297 0.94435784,2.3791297 C 0.73364084,2.3791297 0.75634584,2.4343226 0.74979484,2.4919567 C 0.74766098,2.5107205 0.74568854,2.5583425 0.74589327,2.6063587 C 0.74609799,2.6543666 0.74766099,2.7019965 0.74979484,2.7207567 C 0.75634602,2.7783906 0.73364134,2.8335837 0.94435784,2.8335837 C 1.1550778,2.8335837 1.1323738,2.7783947 1.1389248,2.7207567 C 1.1401689,2.7097961 1.141224,2.688989 1.1419248,2.6640047 L 1.0284998,2.6640007 L 1.0285,2.664 z "
          style="fill:black" id="_58602128"/>
      <polygon points="0.944098,2.59413 0.944098,2.664 1.14193,2.664 1.14193,2.59413 0.944098,2.59413 "
               style="fill:black" id="_58353848"/>
      <path
          d="M 0.235,2.39005 L 0.295252,2.39005 C 0.505972,2.39005 0.483268,2.4454988 0.489819,2.503137 C 0.49195286,2.5218968 0.49392924,2.5555464 0.49372057,2.603562 C 0.49351978,2.6515738 0.49195285,2.6930935 0.489819,2.711857 C 0.48326782,2.7694909 0.5059725,2.824684 0.295252,2.824684 L 0.101819,2.824684 L 0.101819,2.39005 L 0.235,2.39005 L 0.23325197,2.4899909 L 0.21316537,2.489857 L 0.21316537,2.725475 L 0.29512597,2.7245971 C 0.37821257,2.7245971 0.37493697,2.7109751 0.37821257,2.6821562 C 0.37928344,2.6727743 0.38026769,2.6275696 0.38016533,2.6035617 C 0.3800669,2.5795499 0.37928344,2.5422152 0.37821257,2.5328334 C 0.37494092,2.5040106 0.37821257,2.4903925 0.29512597,2.4903925 L 0.23325197,2.4899909 L 0.235,2.39005 L 0.235,2.39005 z "
          style="fill:black" id="_57314048"/>
      <path
          d="M 1.04577,2.16202 L 0.351573,2.1612129 C 0.251128,2.1612129 0.169707,2.0797798 0.169707,1.9793469 L 0.169707,0.92267691 C 0.169707,0.82223191 0.2511243,0.74081491 0.351573,0.74081491 L 0.786045,0.74032279 C 0.8382182,0.74032279 0.8805253,0.69803149 0.8805253,0.64584249 L 0.88179695,0.22335849 C 0.88179695,0.20149239 0.89952925,0.18376009 0.92139535,0.18376009 L 1.1761004,0.18376009 C 1.1979665,0.18376009 1.2157106,0.20149239 1.2157106,0.22336249 L 1.2183247,2.1225625 C 1.2183247,2.1444286 1.2005924,2.1621767 1.1787263,2.1621767 L 1.0457693,2.1620192 L 1.042537,2.2563814 L 1.216269,2.2563342 C 1.2684422,2.2563342 1.3107493,2.2140429 1.3107493,2.1618539 L 1.3107493,0.18300386 C 1.3107493,0.13083066 1.2684422,0.088539263 1.216269,0.088539263 L 0.88210404,0.088539263 C 0.82993084,0.088539263 0.78762374,0.13083456 0.78762374,0.18300776 L 0.78810012,0.60655076 C 0.78810012,0.62841686 0.77036782,0.64616496 0.74848592,0.64616496 L 0.35157292,0.64543662 C 0.19845092,0.64543662 0.074316918,0.76955462 0.074316918,0.92268062 L 0.074316918,1.9793406 C 0.074316918,2.1324546 0.19845092,2.2565886 0.35157292,2.2565886 L 1.0425379,2.25638 L 1.0457702,2.1620178 L 1.04577,2.16202 z "
          style="fill:black" id="_58407952"/>
      <path
          d="M 0.78761,1.77308 L 0.78761,1.089466 C 0.78761,1.0321825 0.7411612,0.985738 0.683862,0.985738 C 0.6265746,0.985738 0.58013,1.0321829 0.58013,1.08947 L 0.58013394,1.827391 C 0.58013394,1.8846823 0.62657484,1.931139 0.68386194,1.931139 C 0.74116114,1.931139 0.78760594,1.8846823 0.78760594,1.827395 L 0.78760987,1.77308 L 0.88190907,1.7763123 L 0.88190907,1.827391 C 0.88190907,1.936757 0.79323587,2.025426 0.68386207,2.025426 C 0.57450007,2.025422 0.48583107,1.9367567 0.48583107,1.827395 L 0.48583501,1.089466 C 0.48583501,0.98010398 0.57450041,0.89143798 0.68386301,0.89143798 C 0.79323701,0.89143798 0.88191001,0.98010728 0.88191001,1.089469 L 0.88191001,1.776312 L 0.78761081,1.7730797 L 0.78761,1.77308 z "
          style="fill:black" id="_58955384"/>
      <path
          d="M 1.70558,2.16202 L 1.575655,2.1620279 C 1.5537731,2.1620279 1.5360408,2.1442799 1.5360408,2.1224137 L 1.5376353,0.78127367 C 1.5376353,0.75938787 1.5553636,0.74166347 1.5772455,0.74166347 L 1.8319505,0.74166347 C 1.8538324,0.74166347 1.8715647,0.75939177 1.8715647,0.78127367 L 1.8741749,2.1224037 C 1.8741749,2.1442856 1.8564426,2.1620179 1.8345765,2.1620179 L 1.7055805,2.1620257 L 1.7055805,2.2560021 L 1.8721235,2.2561793 C 1.9243085,2.2561793 1.9665999,2.213884 1.9665999,2.1617108 L 1.9666039,0.74092081 C 1.9666039,0.68874761 1.9243086,0.64644051 1.8721196,0.64644051 L 1.5379426,0.64644051 C 1.4857694,0.64644051 1.4434741,0.68875151 1.4434741,0.74092481 L 1.4432772,2.1613448 C 1.4432772,2.2135338 1.4852536,2.2558291 1.5374229,2.2558291 L 1.7055799,2.2560023 L 1.7055799,2.1620259 L 1.70558,2.16202 z "
          style="fill:black" id="_58354176"/>
      <path
          d="M 2.90552,1.00554 L 2.625705,1.0051581 C 2.5396105,1.0051581 2.469788,1.0749809 2.469788,1.1610791 C 2.469788,1.2471893 2.5396069,1.3169961 2.625705,1.3169961 L 3.009075,1.3180394 C 3.109508,1.3180394 3.190937,1.3994764 3.190937,1.4999094 L 3.1896496,1.9771774 C 3.1896496,2.0776264 3.1082205,2.1590434 3.0077836,2.1590434 L 2.2467596,2.1604253 C 2.2248935,2.1604253 2.2071454,2.1426812 2.2071454,2.1208151 L 2.2071493,1.9359721 C 2.2071493,1.9140902 2.2248934,1.8963619 2.2467595,1.8963619 L 2.7654205,1.894669 C 2.8515347,1.894669 2.9213495,1.8248659 2.9213495,1.738752 C 2.9213535,1.6526418 2.8515306,1.582835 2.7654205,1.582835 L 2.3899205,1.5813508 C 2.2894835,1.5813508 2.2080545,1.4999217 2.2080545,1.3994888 L 2.2080545,0.92267775 C 2.2080545,0.82223275 2.2894836,0.74081575 2.3899205,0.74081575 L 3.0953655,0.73751654 C 3.1172316,0.73751654 3.13496,0.75526454 3.13496,0.77713074 L 3.1349797,0.96618974 C 3.1349797,0.98805584 3.1172474,1.0057999 3.0953655,1.0057999 L 2.9055195,1.0055401 L 2.9022833,1.0984929 L 3.1343073,1.0985638 C 3.1864805,1.0985638 3.2287876,1.0565914 3.2287876,1.0044181 L 3.2291419,0.73958306 C 3.2291419,0.68739406 3.1868427,0.64510276 3.1346576,0.64510276 L 2.3899216,0.64543741 C 2.2368116,0.64543741 2.1126816,0.76955541 2.1126816,0.92268141 L 2.1126816,1.3994844 C 2.1126816,1.5525984 2.2368076,1.6767284 2.3899216,1.6767284 L 2.7654216,1.6760867 C 2.8000476,1.6760867 2.8281027,1.7041418 2.8281027,1.7387521 C 2.8281027,1.7733741 2.8000436,1.8014332 2.7654216,1.8014332 L 2.2064056,1.801319 C 2.1542324,1.801319 2.1119371,1.8436143 2.1119371,1.8958033 L 2.1119371,2.1601023 C 2.1119371,2.2122913 2.1542324,2.2545866 2.2064056,2.2545866 L 3.0077876,2.2544173 C 3.1608976,2.2544173 3.2850276,2.1303033 3.2850276,1.9771773 L 3.2863111,1.4999053 C 3.2863111,1.3467993 3.1621811,1.2226693 3.0090711,1.2226693 L 2.6257051,1.2237559 C 2.5910988,1.2237559 2.5630397,1.1957008 2.5630397,1.1610787 C 2.5630397,1.1264645 2.5910948,1.0984094 2.6257051,1.0984094 L 2.9022841,1.0984921 L 2.9055203,1.0055393 L 2.90552,1.00554 z "
          style="fill:black" id="_57896456"/>
      <path
          d="M 4.3157,1.26775 L 4.435881,1.26775 C 4.457759,1.26775 4.4754912,1.2500177 4.4754912,1.2281358 L 4.4749912,0.9226828 C 4.4749912,0.8222378 4.3935699,0.7408208 4.2931212,0.7408208 L 3.6918892,0.74081686 C 3.5914442,0.74081686 3.5100112,0.82223816 3.5100112,0.92268686 L 3.5100112,1.9793469 C 3.5100112,2.0797839 3.5914403,2.1612169 3.6918892,2.1612169 L 4.2931252,2.1612169 C 4.3935742,2.1612169 4.4749872,2.0797838 4.4749872,1.9793509 L 4.4754911,1.6889179 C 4.4754911,1.6670399 4.4577588,1.6493077 4.4358769,1.6493077 L 4.2090659,1.6493077 C 4.1871958,1.6493077 4.1694635,1.66704 4.1694635,1.6889219 L 4.1707391,1.8273979 C 4.1707391,1.9367639 4.101869,2.0254329 3.9925071,2.0254329 C 3.8831331,2.0254289 3.8142751,1.9367636 3.8142751,1.8274019 L 3.8142751,1.0894729 C 3.8142751,0.98011086 3.8831294,0.89144486 3.9925071,0.89144486 C 4.1018691,0.89144486 4.1707391,0.98011416 4.1707391,1.0894759 L 4.1694675,1.2281369 C 4.1694675,1.2500149 4.1871958,1.2677511 4.209062,1.2677511 L 4.3157,1.2677511 L 4.3124677,1.3629676 L 4.1697747,1.3629676 C 4.1176015,1.3629676 4.0752944,1.3206645 4.0752944,1.2684912 L 4.0764401,1.0894712 C 4.0764401,1.0321877 4.0497944,0.98574316 3.992507,0.98574316 C 3.9352039,0.98574316 3.9085582,1.0321881 3.9085582,1.0894752 L 3.9085621,1.8273962 C 3.9085621,1.8846875 3.9352038,1.9311442 3.992507,1.9311442 C 4.0497944,1.9311442 4.0764401,1.8846875 4.0764401,1.8274002 L 4.0752944,1.6485652 C 4.0752944,1.596392 4.1176015,1.5540849 4.1697747,1.5540849 L 4.4760547,1.5540849 C 4.5282358,1.5540849 4.5705311,1.5963959 4.5705311,1.6485692 L 4.5703658,1.9793452 C 4.5703658,2.1324592 4.4462478,2.2565932 4.2931218,2.2565932 L 3.6918898,2.2565892 C 3.5387678,2.2565892 3.4146378,2.1324592 3.4146378,1.9793492 L 3.4146378,0.92267923 C 3.4146378,0.76955323 3.5387678,0.64544323 3.6918898,0.64544323 L 4.2931258,0.64543929 C 4.4462478,0.64543929 4.5703658,0.76955729 4.5703658,0.92268329 L 4.5705351,1.2684823 C 4.5705351,1.3206555 4.5282359,1.3629666 4.4760508,1.3629666 L 4.3124678,1.3629627 L 4.3157001,1.2677462 L 4.3157,1.26775 z "
          style="fill:black" id="_58807968"/>
  </g>
 </g>
</svg>