<?xml version="1.0" encoding="UTF-8" standalone="no"?><!-- Created with Inkscape (http://www.inkscape.org/) -->
<svg xmlns="http://www.w3.org/2000/svg" version="1.0" width="4.6500001in" height="4.0500002in" viewBox="0 0 4.65 4.05"
     id="svg2229" xml:space="preserve">
 <defs id="defs2231">
  <style type="text/css" id="style2233"/>
 </defs>
    <g id="Layer_x0020_1">

  <g id="_58806848">
   <path
       d="M 4.45368,3.96939 C 4.5188847,3.96939 4.571767,3.916512 4.571767,3.851288 L 4.5717709,3.101386 C 4.5717709,3.0361616 4.5188811,2.98328 4.4536799,2.98328 L 0.21763994,2.98328 C 0.15243524,2.98328 0.099548937,3.0361619 0.099548937,3.101386 L 0.099548937,3.851288 C 0.099548937,3.9165085 0.15243474,3.969394 0.21763994,3.969394 L 4.4536799,3.9693901 L 4.45368,3.96939 z "
       style="fill:none;stroke:black;stroke-width:0.0972205" id="_58008768"/>
      <path
          d="M 0.941591,3.54619 L 0.739359,3.54619 L 0.739359,3.48769 L 0.990705,3.48769 L 0.990705,3.5729144 C 0.990705,3.6415286 0.99070106,3.6906424 0.9589255,3.7260324 C 0.9329216,3.7556426 0.8888664,3.7592568 0.8224175,3.7592568 L 0.6815785,3.7592529 C 0.6194683,3.7592529 0.5768545,3.7549222 0.5472395,3.7216978 C 0.5190741,3.6899183 0.5104049,3.640808 0.5104049,3.5664148 L 0.5104049,3.4234068 C 0.5104049,3.342517 0.51907419,3.2897928 0.5472395,3.2580168 C 0.5754088,3.2262333 0.618023,3.2211782 0.6808575,3.2211782 L 0.8224165,3.2211782 C 0.9502595,3.2211782 0.9935895,3.2529577 0.9863695,3.3974102 L 0.94159,3.3974062 C 0.94303488,3.3071267 0.9184758,3.2789572 0.8491412,3.2789572 L 0.6613582,3.2789572 C 0.618744,3.2789572 0.592744,3.286906 0.5768543,3.3172367 C 0.5624094,3.3446816 0.5624094,3.3800753 0.5624094,3.4291857 L 0.5624094,3.5483587 C 0.5624094,3.5974689 0.5624094,3.6328626 0.5768543,3.6603077 C 0.5927441,3.6899179 0.6187441,3.6985872 0.6613582,3.6985872 L 0.8476972,3.6985872 C 0.927146,3.6985872 0.941587,3.6718628 0.941587,3.5729142 L 0.94159094,3.5461898 L 0.941591,3.54619 z "
          style="fill:black" id="_58931640"/>
      <path
          d="M 1.06286,3.22767 L 1.343817,3.22767 C 1.455045,3.22767 1.4991,3.2457291 1.4991,3.352619 L 1.4991,3.4154536 C 1.4991,3.4775717 1.4839307,3.5050166 1.4297654,3.5201816 C 1.4723756,3.5266816 1.4947654,3.5613509 1.4947654,3.6227406 L 1.4947693,3.7527446 L 1.4456551,3.7527446 L 1.4456551,3.6357406 C 1.4456551,3.553406 1.4182102,3.546906 1.3503165,3.546906 L 1.1112535,3.546906 L 1.1112535,3.752745 L 1.0628598,3.752745 L 1.0628598,3.22767 L 1.06286,3.22767 z M 1.1112537,3.486237 L 1.3597067,3.486237 C 1.4297658,3.486237 1.4470965,3.4696268 1.4470965,3.3981228 L 1.4470965,3.3728433 C 1.4470965,3.3013394 1.4297658,3.2847291 1.3597067,3.2847291 L 1.1112537,3.2847291 L 1.1112537,3.4862371 L 1.1112537,3.486237 z "
          style="fill:black" id="_58370552"/>
      <path
          d="M 1.81536,3.22767 L 2.044313,3.752745 L 1.992313,3.752745 L 1.9410335,3.637186 L 1.6275765,3.637186 L 1.5777419,3.752745 L 1.5214033,3.752745 L 1.7503603,3.22767 L 1.8153603,3.22767 L 1.81536,3.22767 z M 1.7835805,3.27967 L 1.6514115,3.581576 L 1.9171985,3.581576 L 1.7835805,3.27967 L 1.7835805,3.27967 z "
          style="fill:black" id="_58348160"/>
      <path
          d="M 2.07747,3.22767 L 2.351202,3.22767 C 2.460985,3.22767 2.505041,3.2450046 2.505041,3.352619 L 2.505041,3.4212332 C 2.505041,3.5288512 2.4609819,3.5454612 2.351202,3.5454612 L 2.125859,3.5454612 L 2.125859,3.7527442 L 2.0774692,3.7527442 L 2.0774692,3.2276692 L 2.07747,3.22767 z M 2.453041,3.398123 L 2.453041,3.3728435 C 2.453041,3.302064 2.4378717,3.2847293 2.3649268,3.2847293 L 2.1258598,3.2847293 L 2.1258598,3.4862373 L 2.3649268,3.4862373 C 2.4378717,3.4862373 2.453037,3.4689027 2.453041,3.3981231 L 2.453041,3.398123 z "
          style="fill:black" id="_58332112"/>
      <polygon
          points="2.56485,3.22767 2.61324,3.22767 2.61324,3.45374 2.97075,3.45374 2.97075,3.22767 3.01914,3.22767 3.01914,3.75275 2.97075,3.75275 2.97075,3.5108 2.61324,3.5108 2.61324,3.75275 2.56485,3.75275 2.56485,3.22767 "
          style="fill:black" id="_58856320"/>
      <polygon points="3.10214,3.22767 3.15342,3.22767 3.15342,3.75275 3.10214,3.75275 3.10214,3.22767 "
               style="fill:black" id="_58603752"/>
      <path
          d="M 3.22908,3.56641 L 3.22908,3.423402 C 3.22908,3.3425122 3.2377454,3.289788 3.2659146,3.258012 C 3.2940839,3.2262285 3.3366941,3.2211734 3.3995326,3.2211734 L 3.5237606,3.2211734 C 3.6515996,3.2211734 3.6942096,3.2529529 3.6869846,3.3974054 L 3.6429295,3.3974015 C 3.6443744,3.3078464 3.6198153,3.2789525 3.5504807,3.2789525 L 3.3800317,3.2789525 C 3.3374175,3.2789525 3.3114175,3.2876218 3.2955238,3.317232 C 3.2810829,3.3446769 3.2810829,3.3800706 3.2810829,3.429181 L 3.2810829,3.548354 C 3.2810829,3.5974642 3.2810829,3.6328579 3.2955238,3.660303 C 3.3114175,3.6899132 3.3374175,3.6985825 3.3800317,3.6985825 L 3.5497597,3.6985825 C 3.6255943,3.6985825 3.649429,3.6725786 3.6465392,3.5729095 L 3.6913187,3.5729095 C 3.693488,3.6480237 3.6877085,3.6956925 3.6602596,3.7260275 C 3.6342635,3.7556377 3.5902045,3.7592519 3.5237556,3.7592519 L 3.4002556,3.7592479 C 3.3381414,3.7592479 3.2955236,3.7556377 3.2659126,3.7224172 C 3.2377472,3.6906377 3.229078,3.640803 3.229078,3.5664092 L 3.22908,3.56641 z "
          style="fill:black" id="_58885256"/>
      <path
          d="M 3.79883,3.61263 C 3.79883,3.6841339 3.8327788,3.7007442 3.914393,3.7007442 L 4.016952,3.7007442 C 4.1130111,3.7007442 4.146235,3.6870198 4.146235,3.5989052 C 4.1462389,3.5245154 4.1209555,3.5122359 4.0595618,3.5122359 L 3.8934478,3.5122359 C 3.7908888,3.5122359 3.7504398,3.4761257 3.7504398,3.3677869 C 3.7504398,3.2507829 3.8009989,3.2211689 3.9201678,3.2211689 L 4.0097308,3.2211689 C 4.0819552,3.2211689 4.1296208,3.2233382 4.1577898,3.2543933 C 4.1794591,3.2782279 4.1859552,3.3165075 4.1845142,3.3735663 L 4.1375693,3.3735663 C 4.1390142,3.2905072 4.1151756,3.2775072 4.0400614,3.2775072 L 3.9057264,3.2775033 C 3.8284429,3.2775033 3.8017184,3.2941175 3.8017184,3.364897 C 3.8017223,3.4421765 3.8327775,3.4537356 3.9086124,3.4537356 L 4.0501754,3.4537316 C 4.0992896,3.4537316 4.1346754,3.4566253 4.1577894,3.4746804 C 4.1873996,3.4985111 4.194624,3.537515 4.194624,3.6025194 C 4.194624,3.7231334 4.1512894,3.7592474 4.032116,3.7592474 L 3.898502,3.7592435 C 3.795943,3.7592435 3.751884,3.7224128 3.751884,3.6212985 C 3.751884,3.6097394 3.7526084,3.5967394 3.7526084,3.5815741 L 3.8002777,3.5815741 C 3.7995533,3.5952946 3.7988289,3.6054087 3.7988289,3.6126292 L 3.79883,3.61263 z "
          style="fill:black" id="_58897592"/>
      <path
          d="M 4.07793,0.362634 C 4.0775993,0.3752915 4.0771859,0.385697 4.0767607,0.3894214 C 4.0735166,0.417945 4.0767607,0.4314371 3.9945009,0.4314371 C 3.912245,0.43143316 3.9154852,0.4179489 3.9122411,0.3894214 C 3.911186,0.38013006 3.9102057,0.3293348 3.910308,0.3055671 C 3.9104104,0.2817994 3.911186,0.2310002 3.9122411,0.2217128 C 3.9154852,0.1931813 3.9122411,0.1796971 3.9945009,0.1796971 C 4.0767647,0.1796971 4.0735166,0.1931814 4.0767607,0.2217128 C 4.0772056,0.22560256 4.0775993,0.2367955 4.0779143,0.2502285 L 4.1904423,0.2502285 C 4.1897218,0.2247246 4.1885131,0.2034135 4.1872533,0.1923112 C 4.180769,0.1352482 4.2032415,0.0806102 3.9946273,0.0806102 C 3.7860173,0.0806102 3.8084973,0.1352519 3.8020093,0.1923112 C 3.7998951,0.210886 3.7979423,0.2580317 3.7981431,0.3055672 C 3.7983479,0.3530987 3.7998951,0.4002483 3.8020093,0.4188232 C 3.8084975,0.4758823 3.7860172,0.5305242 3.9946273,0.5305242 C 4.2032453,0.53052026 4.1807653,0.4758825 4.1872533,0.4188232 C 4.1884856,0.4079689 4.1895249,0.3873704 4.1902218,0.3626382 L 4.0779308,0.36263426 L 4.07793,0.362634 z "
          style="fill:black" id="_58891200"/>
      <polygon
          points="2.74362,0.0920197 2.63384,0.412776 2.52403,0.0920197 2.35977,0.0911654 2.35977,0.521709 2.46957,0.521709 2.46957,0.200953 2.57936,0.521709 2.68916,0.521709 2.79809,0.200953 2.79809,0.521709 2.90789,0.521709 2.90789,0.0911654 2.74362,0.0920197 "
          style="fill:black" id="_58970040"/>
      <polygon
          points="4.21508,0.0911654 4.53065,0.0911654 4.53065,0.200953 4.42776,0.200953 4.42776,0.521709 4.31797,0.521709 4.31797,0.200953 4.21508,0.200953 4.21508,0.0911654 "
          style="fill:black" id="_58970272"/>
      <polygon
          points="3.3687,0.521709 3.49463,0.0907362 3.65831,0.0907362 3.78454,0.521709 3.67475,0.521709 3.64881,0.432654 3.50474,0.432654 3.52515,0.362634 3.62806,0.362634 3.57705,0.187122 3.47849,0.521709 3.3687,0.521709 "
          style="fill:black" id="_58883592"/>
      <path
          d="M 2.09535,0.179697 C 2.1776098,0.179697 2.1743657,0.1931813 2.1776098,0.2217127 C 2.1786649,0.23099616 2.1794405,0.2817993 2.1795429,0.305567 C 2.1796452,0.3293347 2.1786649,0.3801339 2.1776098,0.3894213 C 2.1743657,0.4179449 2.1776098,0.431437 2.09535,0.431437 C 2.0130902,0.43143306 2.0163343,0.4179488 2.0130902,0.3894213 C 2.0120351,0.38012996 2.0110587,0.3293347 2.0111571,0.305567 C 2.0112595,0.2817993 2.0120351,0.2310001 2.0130902,0.2217127 C 2.0163343,0.1931812 2.0130902,0.179697 2.09535,0.179697 L 2.0954799,0.0806104 C 1.8868659,0.0806104 1.9093419,0.1352521 1.9028579,0.1923114 C 1.9007477,0.2108862 1.898791,0.2580319 1.8989918,0.3055674 C 1.8991965,0.3530989 1.9007438,0.4002485 1.9028579,0.4188234 C 1.9093422,0.4758825 1.8868658,0.5305244 2.0954799,0.5305244 C 2.3040899,0.53052046 2.2816099,0.4758827 2.2881019,0.4188234 C 2.2902122,0.4002486 2.2917633,0.3531029 2.2919641,0.3055674 C 2.2921649,0.258028 2.2902122,0.2108863 2.2881019,0.1923114 C 2.2816137,0.1352484 2.3040901,0.0806104 2.0954799,0.0806104 L 2.09535,0.179697 L 2.09535,0.179697 z "
          style="fill:black" id="_56724008"/>
      <path
          d="M 1.72463,0.362634 C 1.7242993,0.3752915 1.7238859,0.385697 1.7234607,0.3894214 C 1.7202206,0.417945 1.7234607,0.4314371 1.6412009,0.4314371 C 1.558945,0.43143316 1.5621891,0.4179489 1.558945,0.3894214 C 1.5578899,0.38013006 1.5569096,0.3293348 1.5570119,0.3055671 C 1.5571104,0.2817994 1.557886,0.2310002 1.558945,0.2217128 C 1.5621891,0.1931813 1.558945,0.1796971 1.6412009,0.1796971 C 1.7234647,0.1796971 1.7202206,0.1931814 1.7234607,0.2217128 C 1.7239056,0.22560256 1.7242993,0.2367955 1.7246143,0.2502285 L 1.8371423,0.2502285 C 1.8364218,0.2247246 1.8352131,0.2034135 1.8339533,0.1923112 C 1.8274651,0.1352482 1.8499415,0.0806102 1.6413313,0.0806102 C 1.4327213,0.0806102 1.4551973,0.1352519 1.4487093,0.1923112 C 1.4465951,0.210886 1.4446423,0.2580317 1.4448471,0.3055672 C 1.4450518,0.3530987 1.4465951,0.4002483 1.4487093,0.4188232 C 1.4551975,0.4758823 1.4327211,0.5305242 1.6413313,0.5305242 C 1.8499413,0.53052026 1.8274653,0.4758825 1.8339533,0.4188232 C 1.8351856,0.4079689 1.8362249,0.3873704 1.8369218,0.3626382 L 1.7246308,0.36263426 L 1.72463,0.362634 z "
          style="fill:black" id="_41447016"/>
      <path
          d="M 3.17523,0.42324 L 3.108608,0.42320457 L 3.108608,0.32499197 L 3.1752143,0.32459039 C 3.2574702,0.32459039 3.254919,0.31111009 3.2581631,0.28257859 C 3.2592222,0.27328725 3.2589977,0.28092111 3.2588993,0.25714949 C 3.2588009,0.23338569 3.2592182,0.24154709 3.2581631,0.23225969 C 3.254919,0.20372819 3.2574702,0.19023999 3.1752103,0.19023999 L 3.1085725,0.19041322 L 3.1086867,0.52127922 L 2.9986747,0.52127922 L 2.9986747,0.09116522 L 3.1752297,0.091161283 C 3.3838357,0.091161283 3.3609737,0.14594478 3.3686507,0.20285828 C 3.3695641,0.20959844 3.3695601,0.24072438 3.3695601,0.25749998 C 3.3695641,0.27098028 3.3695601,0.30211018 3.3686507,0.31197638 C 3.363379,0.36916538 3.3838357,0.42324038 3.1752297,0.42324038 L 3.17523,0.42324 z "
          style="fill:black" id="_58015624"/>
      <path
          d="M 4.33798,2.45691 C 4.4202438,2.45691 4.4169997,2.4703982 4.4202398,2.4989297 C 4.4212989,2.5082171 4.4220705,2.5590163 4.4221729,2.582784 C 4.4222792,2.6065478 4.4212989,2.6573509 4.4202398,2.6666383 C 4.4169996,2.6951659 4.4202398,2.708658 4.33798,2.708658 C 4.2557241,2.7086541 4.2589682,2.6951698 4.2557202,2.6666383 C 4.254669,2.6573509 4.2536887,2.6065517 4.2537911,2.582784 C 4.2538895,2.5590123 4.2546651,2.5082171 4.2557202,2.4989297 C 4.2589682,2.4703943 4.2557202,2.456914 4.33798,2.456914 L 4.3381099,2.3578274 C 4.1294999,2.3578274 4.1519759,2.4124691 4.1454879,2.4695284 C 4.1433738,2.4881032 4.141421,2.5352489 4.1416257,2.5827844 C 4.1418265,2.6303198 4.1433738,2.6774655 4.1454879,2.6960404 C 4.1519761,2.7530995 4.1294997,2.8077414 4.3381099,2.8077414 C 4.5467239,2.8077414 4.5242439,2.7530997 4.5307319,2.6960404 C 4.5328422,2.6774617 4.5343933,2.6303199 4.5345941,2.5827844 C 4.5347988,2.535249 4.5328422,2.4881033 4.5307319,2.4695284 C 4.5242477,2.4124654 4.5467201,2.3578274 4.3381099,2.3578274 L 4.33798,2.4569101 L 4.33798,2.45691 z "
          style="fill:black" id="_57445664"/>
      <polygon
          points="2.60022,2.79476 2.72614,2.36379 2.88982,2.36379 3.01605,2.79476 2.90626,2.79476 2.88032,2.7057 2.73625,2.7057 2.75666,2.63569 2.85957,2.63569 2.80856,2.46017 2.71,2.79476 2.60022,2.79476 "
          style="fill:black" id="_59576224"/>
      <polygon
          points="1.68525,2.79476 1.81119,2.36379 1.97487,2.36379 2.10109,2.79476 1.9913,2.79476 1.96536,2.7057 1.8213,2.7057 1.84171,2.63569 1.94461,2.63569 1.8936,2.46017 1.79504,2.79476 1.68525,2.79476 "
          style="fill:black" id="_58032096"/>
      <polygon points="0.673484,2.36839 0.673484,2.79893 0.563681,2.79893 0.563681,2.36839 0.673484,2.36839 "
               style="fill:black" id="_58425352"/>
      <polygon points="1.31582,2.36839 1.31582,2.79893 1.20603,2.79893 1.20603,2.36839 1.31582,2.36839 "
               style="fill:black" id="_58600816"/>
      <polygon
          points="1.37418,2.36839 1.68975,2.36839 1.68975,2.47817 1.58686,2.47817 1.58686,2.79893 1.47707,2.79893 1.47707,2.47817 1.37418,2.47817 1.37418,2.36839 "
          style="fill:black" id="_58000040"/>
      <polygon
          points="2.27072,2.69 2.27072,2.36839 2.16092,2.36839 2.16092,2.79936 2.4445,2.79936 2.4445,2.69 2.27072,2.69 "
          style="fill:black" id="_58350728"/>
      <polygon points="4.07545,2.36839 4.07545,2.79893 3.96567,2.79893 3.96567,2.36839 4.07545,2.36839 "
               style="fill:black" id="_57461944"/>
      <path
          d="M 3.64276,2.36864 L 3.7024096,2.36864 C 3.9110236,2.36864 3.8885436,2.4235376 3.8950316,2.480597 C 3.8971458,2.4991718 3.8990985,2.5324828 3.8988977,2.5800183 C 3.898697,2.6275537 3.8971418,2.6686561 3.8950316,2.6872313 C 3.8885474,2.7442904 3.9110237,2.7989323 3.7024096,2.7989323 L 3.5109096,2.7989284 L 3.5109096,2.3686414 L 3.6427596,2.3686414 L 3.6410273,2.4675823 L 3.6211454,2.4674563 L 3.6211454,2.7007163 L 3.7022871,2.6998462 C 3.784543,2.6998462 3.7812989,2.686358 3.784543,2.6578305 C 3.7855981,2.6485392 3.7865784,2.6037872 3.7864761,2.5800195 C 3.7863737,2.5562518 3.7855981,2.5192872 3.784543,2.5099998 C 3.7812989,2.4814683 3.784543,2.4679841 3.7022832,2.4679841 L 3.6410273,2.4675825 L 3.6427596,2.3686416 L 3.64276,2.36864 z "
          style="fill:black" id="_58073544"/>
      <path
          d="M 3.43884,2.58279 L 3.4387298,2.368384 L 3.3265368,2.368384 L 3.3265407,2.58279 C 3.3266391,2.6065538 3.3256588,2.6573569 3.3246037,2.6666443 C 3.3213596,2.6951719 3.3246037,2.708664 3.2423439,2.708664 C 3.160088,2.7086601 3.1633282,2.6951758 3.1600841,2.6666443 C 3.159029,2.6573569 3.158214,2.6065577 3.1583164,2.58279 L 3.1584817,2.368388 L 3.0459857,2.368388 L 3.0459857,2.58279 C 3.0461904,2.6303254 3.0477377,2.6774711 3.0498519,2.696046 C 3.0563401,2.7531051 3.0338598,2.807747 3.2424739,2.807747 C 3.4510879,2.807747 3.4286079,2.7531053 3.4350959,2.696046 C 3.4372061,2.6774673 3.4386392,2.6303255 3.43884,2.58279 L 3.43884,2.58279 z "
          style="fill:black" id="_59567632"/>
      <path
          d="M 1.02289,2.63986 C 1.0225554,2.6525135 1.0221459,2.6629191 1.0217207,2.6666435 C 1.0184766,2.6951711 1.0217207,2.7086632 0.93946091,2.7086632 C 0.85720111,2.7086593 0.86044521,2.695175 0.85720111,2.6666435 C 0.85614599,2.6573561 0.85516961,2.6065569 0.85526804,2.5827892 C 0.8553704,2.5590175 0.85614599,2.5082223 0.85720111,2.4989349 C 0.8604452,2.4703995 0.85720111,2.4569192 0.93946091,2.4569192 C 1.0217207,2.4569153 1.0184766,2.4704035 1.0217207,2.4989349 C 1.0221656,2.5028286 1.0225554,2.5001829 1.0228703,2.5136199 L 1.1354013,2.513616 C 1.1346769,2.4881121 1.1334722,2.4806396 1.1322084,2.4695333 C 1.1257242,2.4124703 1.1482005,2.3578323 0.93958641,2.3578323 C 0.73097641,2.3578323 0.75345241,2.412474 0.74696841,2.4695333 C 0.74485817,2.4881081 0.74290148,2.5352538 0.74310227,2.5827893 C 0.74330699,2.6303247 0.74485424,2.6774704 0.74696841,2.6960453 C 0.75345266,2.7531044 0.73097231,2.8077463 0.93958641,2.8077463 C 1.1482004,2.8077463 1.1257204,2.7531046 1.1322084,2.6960453 C 1.1334446,2.685191 1.134484,2.6645925 1.1351769,2.6398603 L 1.0228899,2.6398603 L 1.02289,2.63986 z "
          style="fill:black" id="_57960072"/>
      <polygon points="0.939323,2.57069 0.939323,2.63986 1.13517,2.63986 1.13517,2.57069 0.939323,2.57069 "
               style="fill:black" id="_58020624"/>
      <path
          d="M 0.237307,2.36864 L 0.2969605,2.36864 C 0.5055745,2.36864 0.4830985,2.4235376 0.4895825,2.480597 C 0.49169667,2.4991718 0.49364943,2.5324828 0.4934447,2.5800183 C 0.49324391,2.6275537 0.49169667,2.6686561 0.4895825,2.6872313 C 0.48309825,2.7442904 0.5055746,2.7989323 0.2969605,2.7989323 L 0.1054605,2.7989284 L 0.1054605,2.3686414 L 0.2373065,2.3686414 L 0.23557815,2.4675823 L 0.21569235,2.4674563 L 0.21569235,2.7007163 L 0.29683405,2.6998462 C 0.37909385,2.6998462 0.37584975,2.686358 0.37909385,2.6578305 C 0.38014897,2.6485392 0.38112535,2.6037872 0.38102692,2.5800195 C 0.38092456,2.5562518 0.38014897,2.5192872 0.37909385,2.5099998 C 0.37584976,2.4814683 0.37909385,2.4679841 0.29683405,2.4679841 L 0.23557815,2.4675825 L 0.2373065,2.3686416 L 0.237307,2.36864 z "
          style="fill:black" id="_58013624"/>
      <path
          d="M 1.03998,2.14289 L 0.35272,2.1420908 C 0.2532751,2.1420908 0.172669,2.0614727 0.172669,1.9620438 L 0.172669,0.91593379 C 0.172669,0.81649289 0.2532753,0.73589079 0.35272,0.73589079 L 0.782846,0.7354026 C 0.8345035,0.7354026 0.8763854,0.6935325 0.8763854,0.6418672 L 0.87764524,0.2236072 C 0.87764524,0.2019576 0.89520034,0.1844064 0.91684604,0.1844064 L 1.169007,0.18440246 C 1.1906527,0.18440246 1.2082196,0.20196156 1.2082196,0.22360716 L 1.2108062,2.1038272 C 1.2108062,2.1254729 1.1932511,2.1430437 1.1716054,2.1430437 L 1.0399794,2.1428862 L 1.0367747,2.2363114 L 1.2087747,2.2362602 C 1.2604243,2.2362602 1.3023101,2.1943901 1.3023101,2.1427248 L 1.3023101,0.1836548 C 1.3023101,0.1320013 1.2604243,0.0901312 1.2087707,0.0901312 L 0.87794773,0.0901312 C 0.82629813,0.0901312 0.78441233,0.1320052 0.78441233,0.1836548 L 0.78488083,0.6029658 C 0.78488083,0.6246154 0.76732573,0.6421823 0.74566433,0.6421823 L 0.35271933,0.64146183 C 0.20112533,0.64146183 0.078231334,0.76433983 0.078231334,0.91593383 L 0.078235271,1.9620338 C 0.078235271,2.1136128 0.20112527,2.2365058 0.35271927,2.2365058 L 1.0367743,2.236305 L 1.039979,2.1428798 L 1.03998,2.14289 z "
          style="fill:black" id="_58347016"/>
      <path
          d="M 0.784394,1.75785 L 0.784394,1.081067 C 0.784394,1.0243583 0.7384137,0.978378 0.681685,0.978378 C 0.6249724,0.978378 0.578992,1.0243583 0.578992,1.081071 L 0.578992,1.811618 C 0.578992,1.8683345 0.6249723,1.914331 0.681685,1.914331 C 0.7384133,1.914331 0.784394,1.8683349 0.784394,1.811622 L 0.784394,1.7578503 L 0.8777523,1.7610472 L 0.8777523,1.8116181 C 0.8777523,1.9198941 0.7899688,2.0076731 0.6816853,2.0076731 C 0.5734173,2.0076731 0.4856343,1.9198936 0.4856343,1.8116221 L 0.4856343,1.0810671 C 0.4856343,0.97279905 0.5734178,0.88502005 0.6816853,0.88502005 C 0.7899683,0.88501611 0.8777523,0.97280355 0.8777523,1.0810711 L 0.8777523,1.7610471 L 0.784394,1.7578502 L 0.784394,1.75785 z "
          style="fill:black" id="_57376136"/>
      <path
          d="M 1.69319,2.14289 L 1.564564,2.1428939 C 1.5429026,2.1428939 1.5253475,2.1253309 1.5253475,2.1036813 L 1.5269262,0.77594134 C 1.5269262,0.75427994 1.5444774,0.73672874 1.5661388,0.73672874 L 1.8182998,0.73672874 C 1.8399612,0.73672874 1.8575124,0.75427994 1.8575124,0.77594524 L 1.860099,2.1036652 C 1.860099,2.1253306 1.8425478,2.1428817 1.8208982,2.1428817 L 1.6931892,2.1428896 L 1.6931892,2.235929 L 1.8580672,2.2361022 C 1.9097327,2.2361022 1.9516026,2.1942321 1.9516026,2.1425786 L 1.9516026,0.73598864 C 1.9516026,0.68433904 1.9097326,0.64245324 1.8580672,0.64245324 L 1.5272282,0.6424493 C 1.4755747,0.6424493 1.4337046,0.6843391 1.4337046,0.7359926 L 1.4335117,2.1422126 C 1.4335117,2.193878 1.4750629,2.235752 1.5267164,2.235752 L 1.6931884,2.2359213 L 1.6931884,2.1428819 L 1.69319,2.14289 z "
          style="fill:black" id="_58888648"/>
      <path
          d="M 2.88114,0.997976 L 2.604124,0.99759805 C 2.5188838,0.99759805 2.449762,1.06672 2.449762,1.15196 C 2.449762,1.237208 2.518884,1.306318 2.60412,1.306318 L 2.983659,1.3073574 C 3.0830881,1.3073574 3.163706,1.3879755 3.163706,1.4874044 L 3.1624344,1.9599004 C 3.1624344,2.0593492 3.0818124,2.1399514 2.9823874,2.1399514 L 2.2289624,2.1413215 C 2.2073128,2.1413215 2.1897459,2.1237546 2.1897459,2.102105 L 2.1897498,1.919109 C 2.1897498,1.8974476 2.2073128,1.8798925 2.2289624,1.8798925 L 2.7424424,1.8782193 C 2.8276983,1.8782193 2.8968164,1.809113 2.8968164,1.7238613 C 2.8968164,1.6386093 2.8276944,1.5695033 2.7424424,1.5695033 L 2.3706944,1.5680348 C 2.2712653,1.5680348 2.1906474,1.4874167 2.1906474,1.3879878 L 2.1906474,0.91594077 C 2.1906474,0.81649987 2.2712616,0.73589777 2.3706944,0.73589777 L 3.0690884,0.73263005 C 3.090738,0.73263005 3.1082931,0.75020095 3.1082931,0.77185055 L 3.1083049,0.95901555 C 3.1083049,0.98066515 3.0907537,0.99823605 3.0690884,0.99823605 L 2.8811394,0.9979762 L 2.8779347,1.0899998 L 3.1076437,1.0900707 C 3.1592933,1.0900707 3.2011791,1.0485195 3.2011791,0.99686597 L 3.2015255,0.73468097 C 3.2015255,0.68301167 3.1596515,0.64114157 3.1079861,0.64114157 L 2.3706951,0.64147228 C 2.2191121,0.64147228 2.0962231,0.76435028 2.0962231,0.91594428 L 2.0962271,1.3879833 C 2.0962271,1.5395663 2.2191131,1.6624553 2.3706961,1.6624553 L 2.7424441,1.6618214 C 2.7767236,1.6618214 2.8044953,1.689597 2.8044953,1.7238608 C 2.8044992,1.7581364 2.7767197,1.7859159 2.7424441,1.7859159 L 2.1890151,1.7858057 C 2.1373616,1.7858057 2.0954915,1.8276758 2.0954915,1.8793411 L 2.0954915,2.1409981 C 2.0954915,2.1926635 2.1373616,2.2345375 2.1890151,2.2345375 L 2.9823891,2.2343721 C 3.1339641,2.2343721 3.2568581,2.1114981 3.2568581,1.9599031 L 3.2581297,1.4873991 C 3.2581297,1.3358201 3.1352397,1.2129341 2.9836577,1.2129341 L 2.6041267,1.2140089 C 2.569859,1.2140089 2.5420834,1.1862333 2.5420834,1.1519577 C 2.5420874,1.11769 2.569859,1.0899183 2.6041228,1.0899183 L 2.8779378,1.0899971 L 2.8811425,0.99797347 L 2.88114,0.997976 z "
          style="fill:black" id="_58404952"/>
      <path
          d="M 4.27723,1.25756 L 4.396206,1.25756 C 4.4178674,1.25756 4.4354186,1.2400128 4.4354186,1.2183474 L 4.4349225,0.9159454 C 4.4349225,0.8165045 4.3543201,0.7359024 4.2548755,0.7359024 L 3.6596555,0.73589846 C 3.5602106,0.73589846 3.4795925,0.81650476 3.4795925,0.91594946 L 3.4795925,1.9620495 C 3.4795925,2.0614786 3.5602067,2.1420965 3.6596515,2.1420965 L 4.2548755,2.1420965 C 4.3543204,2.1420965 4.4349225,2.0614784 4.4349225,1.9620495 L 4.4354225,1.6745215 C 4.4354225,1.6528601 4.4178634,1.635305 4.396206,1.635305 L 4.171659,1.635305 C 4.1500094,1.635305 4.1324543,1.6528601 4.1324543,1.6745215 L 4.1337181,1.8116155 C 4.1337181,1.9198915 4.0655331,2.0076705 3.9572651,2.0076705 C 3.8489821,2.0076705 3.7808121,1.919891 3.7808121,1.8116195 L 3.7808121,1.0810645 C 3.7808121,0.97279646 3.8489775,0.88501746 3.9572651,0.88501746 C 4.0655331,0.88501353 4.1337141,0.97280096 4.1337141,1.0810685 L 4.1324543,1.2183445 C 4.1324543,1.2400059 4.1500094,1.257561 4.171659,1.257561 L 4.27723,1.257557 L 4.2740253,1.3518326 L 4.1327653,1.3518326 C 4.0811118,1.3518326 4.0392259,1.3099468 4.0392259,1.2582932 L 4.0403558,1.0810652 C 4.0403558,1.0243565 4.0139778,0.97837623 3.9572652,0.97837623 C 3.9005369,0.97837623 3.874155,1.0243565 3.874155,1.0810692 L 3.8741589,1.8116162 C 3.8741589,1.8683327 3.9005329,1.9143292 3.9572652,1.9143292 C 4.0139778,1.9143292 4.0403558,1.8683331 4.0403558,1.8116202 L 4.0392259,1.6345732 C 4.0392259,1.5829197 4.0811078,1.5410338 4.1327613,1.5410338 L 4.4359743,1.5410338 C 4.4876436,1.5410338 4.5295137,1.5829236 4.5295137,1.6345732 L 4.5293444,1.9620492 C 4.5293444,2.1136282 4.4064704,2.2365212 4.2548754,2.2365212 L 3.6596554,2.2365173 C 3.5080614,2.2365173 3.3851674,2.1136313 3.3851674,1.9620483 L 3.3851713,0.91593829 C 3.3851713,0.76434729 3.5080613,0.64147329 3.6596513,0.64147329 L 4.2548753,0.64146935 C 4.4064693,0.64146935 4.5293443,0.76434735 4.5293443,0.91594135 L 4.5295136,1.2582874 C 4.5295136,1.309937 4.4876396,1.3518268 4.4359742,1.3518268 L 4.2740252,1.3518268 L 4.27723,1.2575512 L 4.27723,1.25756 z "
          style="fill:black" id="_58831872"/>
  </g>
 </g>
</svg>