<?xml version="1.0" encoding="UTF-8" standalone="no"?>
<svg xmlns:dc="http://purl.org/dc/elements/1.1/" xmlns:cc="http://creativecommons.org/ns#"
     xmlns:rdf="http://www.w3.org/1999/02/22-rdf-syntax-ns#" xmlns="http://www.w3.org/2000/svg" xml:space="preserve"
     id="svg2484" viewBox="0 0 4.4973708 3.3205473" height="3.3205473in" width="4.4973707in" version="1.0"><metadata
   id="metadata33"><rdf:RDF><cc:Work
       rdf:about=""><dc:format>image/svg+xml</dc:format><dc:type rdf:resource="http://purl.org/dc/dcmitype/StillImage"/><dc:title></dc:title></cc:Work></rdf:RDF></metadata>
    <defs id="defs2486">
  <style id="style2488" type="text/css"/>
 </defs>
    <g transform="translate(-0.05131919,-0.039724)" id="Layer_x0020_1">

  <g id="_59007160">
   <path id="_120344872" transform="scale(0.01041667)"
         d="m 16.751953,227.91992 c -6.259297,0 -11.3378905,5.07675 -11.3378905,11.33789 v 71.99024 c 0,6.26116 5.0781715,11.33789 11.3378905,11.33789 H 423.41016 c 6.25965,0 11.33789,-5.07638 11.33789,-11.33789 v -71.99024 c 0,-6.26154 -5.07819,-11.33789 -11.33789,-11.33789 z m 5.183594,13.37696 h 6.619141 V 311.375 h -6.619141 z m 296.179683,0 h 6.42383 v 8.6621 h -6.42383 z m -223.982418,5.64453 h 5.839844 v 14.01562 h 9.441404 v 4.86719 h -9.441404 v 34.55273 c 0,4.96404 0.194024,7.10547 5.060544,7.10547 1.55755,0 3.21199,-0.29235 4.76953,-0.68164 v 4.76953 c -1.36251,0.29178 -3.89229,1.16797 -6.71484,1.16797 -5.742622,0 -8.955069,-2.53136 -8.955078,-10.02539 v -36.88867 h -7.105468 v -4.86719 h 7.105468 z m 202.292968,0 h 5.83789 v 14.01562 h 9.44336 v 4.86719 h -9.44336 v 34.55273 c 0,4.96404 0.19598,7.10547 5.0625,7.10547 1.55754,0 3.21237,-0.29235 4.76953,-0.68164 v 4.76953 c -1.36252,0.29178 -3.89424,1.16797 -6.71679,1.16797 -5.74227,0 -8.95508,-2.53136 -8.95508,-10.02539 l 0.002,-36.88867 h -7.10547 v -4.86719 h 7.10547 z M 63.966797,259.5957 c 6.131922,0 11.777745,1.94528 15.378906,7.20118 2.433648,3.60113 2.529297,7.39683 2.529297,11.58203 V 311.375 h -5.837891 v -32.89844 c 0,-9.05159 -3.699223,-13.625 -13.042968,-13.625 -7.202293,0 -12.166281,4.67137 -14.015625,9.83008 -1.167888,3.21147 -1.265625,6.03506 -1.265625,9.53906 v 27.1543 h -5.839844 v -50.41797 h 5.839844 v 7.00781 c 4.671887,-4.96365 9.246262,-8.36914 16.253906,-8.36914 z m 71.808593,0 c 13.82109,0 22.28856,9.83004 22.19141,27.9336 h -39.12696 c -0.0975,10.90089 5.74253,19.95312 16.93555,19.95312 7.59194,0 13.52749,-4.18665 15.2793,-11.58398 h 6.52148 c -2.92006,9.53839 -8.95306,16.83984 -21.80078,16.83984 -16.1567,0 -23.16601,-11.48524 -23.16601,-26.37695 0,-14.6971 8.76111,-26.76563 23.16601,-26.76563 z m 52.45313,0 v 6.32618 c -13.13958,-0.29185 -16.64258,9.43986 -16.64258,20.73046 V 311.375 h -5.83985 v -50.41797 h 5.83985 v 9.44141 h 0.19336 c 3.21184,-8.07842 7.98147,-10.80274 16.44922,-10.80274 z m 26.25976,0 c 10.21987,0 18.29688,3.99046 18.29688,15.66992 v 27.44727 c 0,4.57474 1.16878,5.64477 6.13281,3.89258 v 4.57422 c -0.8761,0.29215 -2.9215,0.97461 -4.57617,0.97461 -0.97323,0 -1.75086,-0.0983 -2.62696,-0.29297 -3.89291,-0.58394 -4.57435,-3.99014 -4.67187,-7.49414 -4.86615,5.45046 -11.48541,8.37109 -18.78516,8.37109 -8.85732,0 -16.83789,-4.77087 -16.83789,-14.5039 0,-8.46809 5.84017,-13.62609 17.61719,-15.1836 l 8.07812,-1.07031 c 2.14115,-0.19465 5.743,-0.77858 7.68946,-1.6543 1.94683,-0.87609 2.14062,-3.50367 2.14062,-5.25586 0,-5.93688 -3.50308,-10.21875 -12.55469,-10.21875 -8.07836,0 -13.62657,2.62691 -14.69726,11.38672 h -5.9375 c 0.8761,-11.87414 9.73399,-16.64258 20.73242,-16.64258 z m 50.4082,0 c 11.58244,0 19.17359,5.54663 20.92579,17.22657 h -5.93555 c -2.04435,-7.49447 -7.20397,-11.97071 -14.99024,-11.97071 -11.97091,0 -16.93554,10.9005 -16.93554,21.41211 3.7e-4,10.60919 4.86709,21.21875 16.93554,21.21875 8.66235,0 14.11404,-5.15913 15.47657,-13.5293 h 6.22851 c -2.04435,11.19278 -9.05236,18.78516 -21.70508,18.78516 -16.05888,0 -23.16406,-11.58286 -23.16406,-26.47461 0,-14.01561 8.07849,-26.66797 23.16406,-26.66797 z m 135.65235,0 c 13.82102,0 22.28894,9.83011 22.1914,27.9336 h -39.12695 c -0.0971,10.90089 5.74252,19.95312 16.93555,19.95312 7.59194,0 13.52944,-4.18665 15.28125,-11.58398 h 6.52148 c -2.91968,9.53839 -8.95502,16.83984 -21.80273,16.83984 -16.15671,0 -23.16406,-11.48524 -23.16406,-26.37695 0,-14.69703 8.75916,-26.76563 23.16406,-26.76563 z m -82.14258,1.36133 h 5.83984 V 311.375 h -5.83984 z m 11.48047,0 h 6.32617 l 16.35156,43.21485 16.35157,-43.21485 h 6.32617 L 355.67773,311.375 h -6.52148 z m -194.11133,3.89453 c -10.31702,0 -15.76732,8.2722 -16.93555,17.81055 h 32.89649 c 0,-9.83059 -5.4489,-17.81055 -15.96094,-17.81055 z m 264.77344,0 c -10.31664,0 -15.76732,8.2722 -16.93555,17.81055 h 32.89844 c 0,-9.83059 -5.45124,-17.81055 -15.96289,-17.81055 z m -173.60352,20.04883 c -4.96403,2.04435 -10.02472,2.43298 -15.08593,2.82227 -8.857,0.68107 -14.21094,3.89363 -14.21094,10.70703 0,6.13153 5.35439,9.05273 10.90234,9.05273 9.24662,0 18.39453,-4.47747 18.39453,-14.69726 z"
         style="fill:#000000;stroke-width:96"/>


      <path id="_59759256" style="fill:#000000"
            d="m 4.09139,0.324598 c -3.386e-4,0.0127874 -7.52e-4,0.0232913 -0.00118,0.0270551 -0.00328,0.0288189 0,0.0424409 -0.083094,0.0424409 -0.083091,0 -0.079811,-0.013622 -0.083091,-0.0424409 -0.00106,-0.009382 -0.00205,-0.0606929 -0.00195,-0.0847008 9.84e-5,-0.0240079 8.819e-4,-0.0753189 0.00195,-0.0846969 0.00328,-0.0288228 0,-0.0424449 0.083091,-0.0424449 0.083094,0 0.079815,0.013626 0.083094,0.0424449 4.449e-4,0.003925 8.425e-4,0.0152323 0.00116,0.0288031 l 0.113665,-3.94e-6 c -7.322e-4,-0.0257598 -0.00195,-0.0472835 -0.00322,-0.0585 -0.00655,-0.0576378 0.016153,-0.112827 -0.194567,-0.112827 -0.210717,-3.93e-6 -0.188012,0.055189 -0.194567,0.112827 -0.00213,0.0187598 -0.00411,0.0663819 -0.0039,0.114398 2.047e-4,0.0480157 0.00177,0.0956378 0.0039,0.114402 0.00656,0.0576339 -0.01615,0.112827 0.194567,0.112827 0.210724,-3.93e-6 0.188016,-0.0551929 0.194567,-0.112827 0.00125,-0.0109646 0.0023,-0.0317717 0.003,-0.056752 z"/>
      <polygon id="_59358120" style="fill:#000000"
               points="2.35589,0.48528 2.4668,0.48528 2.4668,0.161283 2.5777,0.48528 2.68861,0.48528 2.79864,0.161283 2.79864,0.48528 2.90954,0.48528 2.90954,0.0503858 2.74361,0.051252 2.63272,0.375244 2.52181,0.051252 2.35589,0.0503858 "/>
      <polygon id="_58923920" style="fill:#000000"
               points="4.44476,0.48528 4.33386,0.48528 4.33386,0.161283 4.22993,0.161283 4.22993,0.0503858 4.54869,0.0503858 4.54869,0.161283 4.44476,0.161283 "/>
      <polygon id="_59357072" style="fill:#000000"
               points="3.68414,0.48528 3.65794,0.395323 3.51242,0.395323 3.53304,0.324598 3.63698,0.324598 3.58546,0.147311 3.4859,0.48528 3.375,0.48528 3.5022,0.0499567 3.66754,0.0499567 3.79504,0.48528 "/>
      <path id="_119970072" style="fill:#000000"
            d="m 2.0888,0.139811 c 0.083095,0 0.079815,0.013626 0.083095,0.0424449 0.00107,0.009378 0.00185,0.060689 0.00195,0.0846969 1.024e-4,0.0240079 -8.858e-4,0.0753189 -0.00195,0.0847008 -0.00328,0.0288189 0,0.0424409 -0.083095,0.0424409 -0.083087,0 -0.079815,-0.013622 -0.083091,-0.0424409 -0.00106,-0.009382 -0.00205,-0.0606929 -0.00195,-0.0847008 1.023e-4,-0.0240079 8.819e-4,-0.0753189 0.00195,-0.0846969 0.00328,-0.0288228 0,-0.0424449 0.083091,-0.0424449 l 1.299e-4,-0.100087 c -0.210717,0 -0.188012,0.0551929 -0.194567,0.112831 -0.00213,0.0187598 -0.00411,0.0663819 -0.0039,0.114398 2.047e-4,0.0480157 0.00177,0.0956378 0.0039,0.114402 0.00656,0.0576339 -0.01615,0.112827 0.194567,0.112827 0.21072,-3.94e-6 0.188016,-0.0551929 0.194567,-0.112827 0.00213,-0.0187638 0.0037,-0.0663858 0.0039,-0.114402 2.047e-4,-0.0480157 -0.00177,-0.0956339 -0.0039,-0.114398 -0.00655,-0.0576378 0.016154,-0.112827 -0.194567,-0.112827 z"/>
      <path id="_60339936" style="fill:#000000"
            d="m 1.71434,0.324598 c -3.386e-4,0.0127874 -7.52e-4,0.0232913 -0.00118,0.0270551 -0.00328,0.0288189 0,0.0424409 -0.083091,0.0424409 -0.083087,0 -0.079811,-0.013622 -0.083091,-0.0424409 -0.00106,-0.009382 -0.00205,-0.0606929 -0.00195,-0.0847008 9.84e-5,-0.0240079 8.858e-4,-0.0753189 0.00195,-0.0846969 0.00328,-0.0288228 0,-0.0424449 0.083091,-0.0424449 0.083091,0 0.079815,0.013626 0.083091,0.0424449 4.488e-4,0.003925 8.425e-4,0.0152323 0.00116,0.0288031 l 0.113669,-3.94e-6 c -7.323e-4,-0.0257598 -0.00195,-0.0472835 -0.00322,-0.0585 -0.00655,-0.0576378 0.01615,-0.112827 -0.194567,-0.112827 -0.210717,-3.93e-6 -0.188012,0.055189 -0.194567,0.112827 -0.00213,0.0187598 -0.00411,0.0663819 -0.0039,0.114398 2.048e-4,0.0480157 0.00177,0.0956378 0.0039,0.114402 0.00656,0.0576339 -0.01615,0.112827 0.194567,0.112827 0.21072,-3.93e-6 0.188012,-0.0551929 0.194567,-0.112827 0.00124,-0.0109646 0.0023,-0.0317717 0.003,-0.056752 l -0.113421,-3.93e-6 z"/>
      <path id="_59963744" style="fill:#000000"
            d="m 3.17957,0.385815 -0.067291,-3.543e-5 v -0.0992008 l 0.067276,-4.0552e-4 c 0.083095,0 0.080516,-0.013622 0.083791,-0.0424409 0.00107,-0.009386 8.465e-4,-0.001673 7.441e-4,-0.0256811 -1.024e-4,-0.0240079 3.228e-4,-0.0157638 -7.441e-4,-0.0251417 -0.00328,-0.0288189 -7.008e-4,-0.0424488 -0.083791,-0.0424488 l -0.067311,1.7717e-4 1.142e-4,0.334209 h -0.111122 v -0.434461 l 0.178335,-3.94e-6 c 0.210724,0 0.187626,0.0553386 0.195378,0.112827 9.212e-4,0.006811 9.212e-4,0.038248 9.212e-4,0.0551969 0,0.0136181 0,0.0450551 -9.212e-4,0.0550236 -0.00532,0.0577598 0.015343,0.11239 -0.195378,0.112386 z"/>
      <path id="_59947616" style="fill:#000000"
            d="M 1.02277,2.12283 0.328573,2.1220229 c -0.100445,0 -0.181862,-0.081429 -0.181862,-0.181862 V 0.88349091 c 0,-0.100449 0.0814173,-0.181866 0.181862,-0.181866 l 0.434472,-4.9212e-4 c 0.0521772,0 0.0944843,-0.0422953 0.0944843,-0.0944803 l 0.001272,-0.422484 c 0,-0.0218661 0.0177283,-0.0395984 0.0395984,-0.0395984 h 0.2547006 c 0.02187,0 0.039614,0.0177323 0.039614,0.0396024 l 0.00261,1.89920001 c 0,0.021866 -0.017732,0.039614 -0.039594,0.039614 l -0.132961,-1.575e-4 -0.00323,0.094366 0.173736,-5.12e-5 c 0.052173,0 0.09448,-0.042291 0.09448,-0.09448 V 0.14381383 c 0,-0.0521693 -0.042307,-0.0944646 -0.094484,-0.0944646 l -0.33416099,-3.94e-6 c -0.0521732,0 -0.0944843,0.0422992 -0.0944843,0.0944724 l 4.7638e-4,0.423543 c 0,0.0218661 -0.0177323,0.0396142 -0.0396142,0.0396142 l -0.396913,-7.2835e-4 c -0.153122,0 -0.277256,0.124118 -0.277256,0.277244 l 3.93e-6,1.05665996 c 0,0.153106 0.12413001,0.27724 0.27725201,0.27724 l 0.69096497,-2.007e-4 0.00323,-0.094366 z"/>
      <path id="_59263952" style="fill:#000000"
            d="M 0.76461,1.73389 V 1.050276 c 0,-0.0572835 -0.0464449,-0.103728 -0.103748,-0.103728 -0.0572835,0 -0.103728,0.0464449 -0.103728,0.103732 v 0.737921 c 0,0.057291 0.0464409,0.103748 0.103728,0.103748 0.0573031,0 0.103748,-0.046457 0.103748,-0.103744 V 1.73389 l 0.0942992,0.00323 v 0.051079 c 0,0.109366 -0.0886693,0.198035 -0.198047,0.198035 -0.109358,0 -0.198028,-0.088669 -0.198028,-0.198031 V 1.050276 c 0,-0.10936202 0.0886693,-0.19802802 0.198028,-0.19802802 0.109378,-3.94e-6 0.198047,0.0886693 0.198047,0.19803102 V 1.737122 L 0.76461,1.7338897 Z"/>
      <path id="_59378368" style="fill:#000000"
            d="m 1.68258,2.12283 -0.129921,7.9e-6 c -0.021886,0 -0.039614,-0.017748 -0.039614,-0.039614 l 0.00159,-1.34114003 c 0,-0.0218819 0.017728,-0.0396102 0.039606,-0.0396102 H 1.80895 c 0.021878,0 0.03961,0.0177283 0.03961,0.0396102 L 1.85117,2.0832139 c 0,0.021882 -0.017732,0.039614 -0.039602,0.039614 l -0.128996,7.8e-6 v 0.09398 l 0.166543,1.733e-4 c 0.052189,0 0.09448,-0.042291 0.09448,-0.094468 V 0.70173078 c 0,-0.0521693 -0.042295,-0.0944803 -0.09448,-0.0944803 H 1.514938 c -0.052173,0 -0.094469,0.042311 -0.094469,0.0944803 L 1.4202812,2.1221608 c 0,0.052185 0.041972,0.09448 0.094146,0.09448 l 0.168154,1.771e-4 v -0.09398 z"/>
      <path id="_59501248" style="fill:#000000"
            d="M 2.88252,0.966354 2.602709,0.96597211 c -0.086098,0 -0.155921,0.0698189 -0.155921,0.15592099 0,0.08611 0.069819,0.155917 0.155917,0.155917 l 0.38337,0.00104 c 0.100433,0 0.181862,0.081437 0.181862,0.18187 l -0.00128,0.477268 c 0,0.100449 -0.081433,0.181866 -0.181866,0.181866 l -0.761028,0.00138 c -0.021866,0 -0.03961,-0.017744 -0.03961,-0.03961 v -0.184843 c 0,-0.021882 0.017744,-0.03961 0.03961,-0.03961 l 0.518665,-0.00169 c 0.08611,0 0.155929,-0.069803 0.155929,-0.155917 4e-6,-0.086114 -0.069819,-0.155917 -0.155933,-0.155917 l -0.3755,-0.00148 c -0.100433,0 -0.181866,-0.081429 -0.181866,-0.181862 V 0.88349575 c 0,-0.100449 0.081433,-0.181866 0.181866,-0.181866 l 0.705449,-0.003299 c 0.021866,0 0.039594,0.017748 0.039594,0.0396142 l 1.58e-5,0.189059 c 0,0.0218661 -0.017732,0.0396142 -0.039614,0.0396142 l -0.189846,-2.6378e-4 -0.00323,0.0929528 0.232024,7.08e-5 c 0.052169,0 0.09448,-0.041972 0.09448,-0.0941417 l 3.504e-4,-0.264839 c 0,-0.052189 -0.042295,-0.0944803 -0.094484,-0.0944803 l -0.744736,3.3464e-4 c -0.15311,0 -0.27724,0.124118 -0.27724,0.277244 V 1.3603025 c 0,0.153106 0.12413,0.27724 0.27724,0.27724 l 0.375504,-6.418e-4 c 0.034622,0 0.062677,0.028055 0.062677,0.062665 0,0.034622 -0.028055,0.062681 -0.062681,0.062681 l -0.559012,-1.141e-4 c -0.052177,0 -0.094469,0.042295 -0.094469,0.094484 v 0.264303 c 0,0.052185 0.042291,0.09448 0.094465,0.09448 l 0.801386,-1.693e-4 c 0.15311,0 0.277236,-0.124114 0.277236,-0.277236 l 0.00129,-0.477276 c 0,-0.153106 -0.12413,-0.27724 -0.27724,-0.27724 l -0.383366,0.00109 c -0.03461,0 -0.062669,-0.028059 -0.062669,-0.062681 0,-0.034614 0.028055,-0.062669 0.062665,-0.062669 l 0.276583,8.26e-5 0.00323,-0.0929528 z"/>
      <path id="_59390680" style="fill:#000000"
            d="m 4.29271,1.22856 h 0.120181 c 0.021878,0 0.039606,-0.017728 0.039606,-0.03961 l -5e-4,-0.305449 c 0,-0.100449 -0.081417,-0.181866 -0.181866,-0.181866 H 3.668899 c -0.100445,0 -0.181882,0.0814173 -0.181882,0.181866 v 1.05666 c 0,0.100437 0.081433,0.181866 0.181878,0.181866 h 0.601236 c 0.100449,0 0.181866,-0.081429 0.181866,-0.181862 l 5e-4,-0.290437 c 0,-0.021878 -0.017728,-0.039606 -0.03961,-0.039606 H 4.186072 c -0.021866,0 -0.039598,0.017728 -0.039598,0.03961 l 0.00128,0.138476 c 0,0.109366 -0.068874,0.198035 -0.178236,0.198035 -0.109374,0 -0.178228,-0.088669 -0.178228,-0.198031 V 1.050283 c 0,-0.109362 0.068854,-0.198028 0.178228,-0.198028 0.109366,-3.94e-6 0.178236,0.0886693 0.178236,0.198031 l -0.00127,0.138661 c 0,0.021882 0.017728,0.03961 0.039594,0.03961 h 0.106638 l -0.00323,0.09522 H 4.146793 c -0.052173,0 -0.094484,-0.042303 -0.094484,-0.094476 l 0.00115,-0.17902 c 0,-0.0572835 -0.02665,-0.103728 -0.083937,-0.103728 -0.057299,0 -0.083945,0.0464449 -0.083945,0.103732 v 0.737921 c 0,0.057291 0.026646,0.103748 0.083945,0.103748 0.057291,0 0.083933,-0.046457 0.083933,-0.103744 L 4.052315,1.609375 c 0,-0.052173 0.042303,-0.09448 0.09448,-0.09448 l 0.306272,-3.9e-6 c 0.052189,0 0.094484,0.042311 0.094484,0.094488 l -1.653e-4,0.33078 c 0,0.153106 -0.124122,0.27724 -0.277244,0.27724 h -0.601232 c -0.153122,0 -0.277256,-0.12413 -0.277256,-0.277236 V 0.88349296 c 0,-0.153126 0.12413,-0.277244 0.277252,-0.277244 h 0.601236 c 0.153126,0 0.27724,0.124118 0.27724,0.277244 L 4.5475411,1.229292 c 0,0.052177 -0.042295,0.094484 -0.094484,0.094484 l -0.163579,-4e-6 0.00323,-0.09522 z"/>
  </g>
 </g>
</svg>