<?xml version="1.0" encoding="UTF-8" standalone="no"?>
<svg xmlns:dc="http://purl.org/dc/elements/1.1/" xmlns:cc="http://creativecommons.org/ns#"
     xmlns:rdf="http://www.w3.org/1999/02/22-rdf-syntax-ns#" xmlns="http://www.w3.org/2000/svg" version="1.1" id="svg2"
     xml:space="preserve" width="36.723465" height="31.885149" viewBox="0 0 36.723465 31.885149"><metadata
     id="metadata8"><rdf:RDF><cc:Work
         rdf:about=""><dc:format>image/svg+xml</dc:format><dc:type
    rdf:resource="http://purl.org/dc/dcmitype/StillImage"/><dc:title></dc:title></cc:Work></rdf:RDF></metadata>
    <defs id="defs6"/>
    <path d="m 25.254132,24.89141 h 0.4964 v 4.91827 h -0.499066 l 0.0027,-4.91827"
          style="fill:#000000;fill-opacity:1;fill-rule:evenodd;stroke:none;stroke-width:0.13333333" id="path326"/>
    <path d="m 18.131199,24.89141 h 0.501067 v 4.91507 h -0.5036 l 0.0025,-4.91507"
          style="fill:#000000;fill-opacity:1;fill-rule:evenodd;stroke:none;stroke-width:0.13333333" id="path328"/>
    <path
        d="m 11.259333,29.80648 v -4.91507 h 0.634933 l 2.226,4.25827 2.1812,-4.25827 h 0.6724 v 4.91507 h -0.4416 v -4.28013 l -2.2188,4.28013 h -0.3656 l -2.233867,-4.25733 v 4.25733 h -0.454666"
        style="fill:#000000;fill-opacity:1;fill-rule:evenodd;stroke:none;stroke-width:0.13333333" id="path330"/>
    <path
        d="m 19.786933,24.88875 c 0.979733,0 2.510933,-0.001 3.174,0.005 0.512,0.004 1.080666,0.298 1.198399,0.9772 0.09427,0.54267 0.1136,1.9328 0.0604,2.614 -0.06827,0.84534 -0.454666,1.31147 -1.389599,1.32187 -0.676,0.006 -2.0416,0.003 -3.040534,0.003 0,-1.686 -0.0057,-4.40627 -0.0027,-4.92093 z m 0.466133,0.56306 c 0,0.16454 0,2.71774 0,3.80934 1.0208,0.005 2.359867,0.0375 2.868267,-0.0151 0.507333,-0.0516 0.642133,-0.59693 0.642133,-0.9036 0,-0.30627 0.04373,-1.6084 -0.0296,-2.17347 -0.0792,-0.60213 -0.354267,-0.70786 -0.9636,-0.7172 -0.390133,-0.006 -2.0692,0.008 -2.5172,0"
        style="fill:#000000;fill-opacity:1;fill-rule:evenodd;stroke:none;stroke-width:0.13333333" id="path332"/>
    <path
        d="M 1.2072,31.88515 C 0.6552,31.88515 0,31.18355 0,30.63101 v -6.34173 c 0,-0.5536 0.6552,-1.1708 1.2072,-1.1708 h 34.392266 c 0.551066,0 1.124,0.57493 1.124,1.12867 v 6.426 c 0,0.55266 -0.572934,1.212 -1.124,1.212 z m 34.016266,-0.79947 c 0.550933,0 0.7468,-0.19227 0.7468,-0.74227 v -5.7708 c 0,-0.5484 -0.238,-0.65733 -0.788534,-0.65733 H 1.459333 c -0.551067,0 -0.7052,0.23547 -0.7052,0.7844 v 5.812 c 0,0.55 0.446933,0.574 0.997333,0.574 h 33.472"
        style="fill:#000000;fill-opacity:1;fill-rule:evenodd;stroke:none;stroke-width:0.13333333" id="path334"/>
    <path
        d="m 30.023866,19.27675 c 0.1792,0.0204 0.257333,0.0735 0.2688,0.22813 0.02813,0.3724 0.0516,1.02613 0.0079,1.386 -0.01667,0.13547 -0.08493,0.21827 -0.269866,0.2416 -0.233867,0.0261 -0.749467,0.007 -1.051067,0.0131 5.33e-4,-0.5432 0.0027,-1.24734 5.33e-4,-1.8896 0.352134,0.007 0.879734,0 1.043734,0.0208 z m -1.940534,2.66826 c 0.851067,0 1.8448,0.074 2.466134,-0.0531 0.219733,-0.0459 0.447333,-0.0871 0.6,-0.36307 0.130666,-0.238 0.1276,-2.33067 0,-2.64893 -0.03493,-0.0869 -0.181334,-0.31307 -0.640667,-0.38334 -0.537467,-0.0839 -1.582267,-0.0489 -2.425467,-0.0489 0.0052,0.31347 0.0052,2.44373 0,3.49733"
        style="fill:#000000;fill-opacity:1;fill-rule:evenodd;stroke:none;stroke-width:0.13333333" id="path336"/>
    <path
        d="m 33.737466,18.47368 c 0.5932,-0.1448 1.689066,-0.13333 2.0964,0.0271 0.226533,0.0896 0.3848,0.16453 0.430666,0.45053 0.06987,0.4552 0.08227,1.9172 0.01987,2.38693 -0.02507,0.18814 -0.02507,0.48187 -0.559467,0.60574 -0.598933,0.13653 -1.6552,0.10626 -2.102533,-0.0343 -0.133867,-0.0428 -0.4256,-0.15 -0.4584,-0.5912 -0.03587,-0.48907 -0.06507,-2.0396 0.0276,-2.3672 0.07813,-0.27813 0.1308,-0.37707 0.545867,-0.4776 z m 0.5568,0.7536 c -0.123467,0.0412 -0.2,0.0537 -0.226534,0.22133 -0.0272,0.16827 -0.0256,1.16147 0.02547,1.54534 0.0136,0.0907 0.06093,0.14533 0.1568,0.1824 0.178667,0.0719 0.658267,0.0447 0.9296,0.014 0.09387,-0.0109 0.159467,-0.0443 0.188533,-0.18174 0.05573,-0.26773 0.0448,-1.1464 -0.0036,-1.58853 -0.0172,-0.16093 -0.156266,-0.1844 -0.182266,-0.1928 -0.196934,-0.0656 -0.661467,-0.0744 -0.888,0"
        style="fill:#000000;fill-opacity:1;fill-rule:evenodd;stroke:none;stroke-width:0.13333333" id="path338"/>
    <path d="m 31.736399,18.44968 h 0.9104 v 3.5032 h -0.9104 v -3.5032"
          style="fill:#000000;fill-opacity:1;fill-rule:evenodd;stroke:none;stroke-width:0.13333333" id="path340"/>
    <path
        d="m 25.253066,18.44861 -0.9036,5.4e-4 c 0,0 5.33e-4,2.53906 0.0011,2.82093 0.0015,0.4452 0.255734,0.65773 0.687467,0.7328 0.701067,0.1208 1.536933,0.0677 1.8464,-0.007 0.3104,-0.074 0.5744,-0.17454 0.573333,-0.6052 -0.002,-0.69734 0.0021,-2.6052 -0.0041,-2.94174 -0.316133,0 -0.650533,-0.007 -0.8588,0 -0.0011,0.29587 5.33e-4,2.20214 5.33e-4,2.36414 0,0.16093 0.01347,0.42346 -0.310533,0.42973 -0.323867,0.007 -0.612933,0.0276 -0.7484,-0.006 -0.1344,-0.0333 -0.276533,-0.0199 -0.282267,-0.32973 -0.0052,-0.29733 -0.0011,-2.45787 -0.0011,-2.45787"
        style="fill:#000000;fill-opacity:1;fill-rule:evenodd;stroke:none;stroke-width:0.13333333" id="path342"/>
    <path d="m 17.167199,18.44715 h 0.9104 v 2.6156 h 1.3948 v 0.888 h -2.3052 v -3.5036"
          style="fill:#000000;fill-opacity:1;fill-rule:evenodd;stroke:none;stroke-width:0.13333333" id="path344"/>
    <path d="m 9.4312,18.44915 h 0.916133 v 3.50373 h -0.9224 l 0.0063,-3.50373"
          style="fill:#000000;fill-opacity:1;fill-rule:evenodd;stroke:none;stroke-width:0.13333333" id="path346"/>
    <path d="M 4.215066,18.44555 H 5.1312 v 3.5036 H 4.221866 l -0.0068,-3.5036"
          style="fill:#000000;fill-opacity:1;fill-rule:evenodd;stroke:none;stroke-width:0.13333333" id="path348"/>
    <path
        d="m 22.861466,20.66008 c -0.2688,0 -0.538533,0 -0.808933,0 0.132266,-0.44787 0.296933,-0.9952 0.411466,-1.3916 0.135467,0.4104 0.2688,0.92347 0.397467,1.3916 z m -2.094267,1.28907 c 0.356667,0 0.713467,0.002 0.901467,0.002 0.08853,-0.2964 0.1552,-0.54374 0.208933,-0.7188 0.202,0 1.017734,-4e-4 1.1792,-4e-4 0.0468,0.16813 0.171334,0.61973 0.209334,0.7192 0.282266,0 0.709866,0 0.869199,0 -0.0812,-0.30254 -0.881733,-3.11094 -1.030133,-3.50107 -0.2828,0.006 -0.992266,-0.006 -1.295333,5.3e-4 -0.161467,0.51094 -0.928667,3.11614 -1.042667,3.49894"
        style="fill:#000000;fill-opacity:1;fill-rule:evenodd;stroke:none;stroke-width:0.13333333" id="path350"/>
    <path
        d="m 10.818666,18.44661 h 2.533333 v 0.90734 l -0.828533,-0.006 v 2.60667 h -0.8964 v -2.6004 h -0.8084 v -0.90734"
        style="fill:#000000;fill-opacity:1;fill-rule:evenodd;stroke:none;stroke-width:0.13333333" id="path352"/>
    <path
        d="m 14.335333,18.44968 c 0.303733,-0.007 0.993733,0.006 1.276133,-5.3e-4 0.148933,0.39013 0.949467,3.19853 1.030667,3.5016 -0.1276,0 -0.580667,0 -0.863067,0 -0.038,-0.0995 -0.161867,-0.52027 -0.2088,-0.688 -0.161467,0 -0.9776,0 -1.1792,0 -0.05413,0.17453 -0.114533,0.39066 -0.202533,0.6864 -0.188534,0 -0.539067,0 -0.8964,0 0.115066,-0.3828 0.881333,-2.98854 1.0432,-3.49947 z m 0.641733,0.84333 c -0.114667,0.3968 -0.279733,0.94427 -0.410933,1.3916 0.2692,0 0.5396,0 0.8088,0 -0.1296,-0.46826 -0.262934,-0.9812 -0.397867,-1.3916"
        style="fill:#000000;fill-opacity:1;fill-rule:evenodd;stroke:none;stroke-width:0.13333333" id="path354"/>
    <path
        d="m 2.442133,19.27941 c 0.1792,0.0208 0.257867,0.074 0.269867,0.22814 0.0276,0.3724 0.05093,1.026 0.0067,1.3864 -0.01667,0.13493 -0.0848,0.21773 -0.2692,0.2412 -0.233333,0.0265 -0.749466,0.008 -1.051066,0.014 5.33e-4,-0.5432 0.0027,-1.24734 5.33e-4,-1.89 0.352133,0.007 0.879733,0 1.0432,0.0203 z M 0.502,21.94915 c 0.851066,0 1.8448,0.0729 2.466133,-0.0547 0.219867,-0.0448 0.446933,-0.0864 0.5996,-0.36253 0.130667,-0.23747 0.128,-2.33067 0,-2.64947 -0.0344,-0.0869 -0.1808,-0.31293 -0.6396,-0.3828 -0.537067,-0.0839 -1.5828,-0.0489 -2.426133,-0.0489 0.0048,0.3136 0.0048,2.44426 0,3.4984"
        style="fill:#000000;fill-opacity:1;fill-rule:evenodd;stroke:none;stroke-width:0.13333333" id="path356"/>
    <path
        d="m 6.283866,18.45288 c 0.5432,-0.13707 1.664534,-0.124 2.059334,0.0135 0.213066,0.0735 0.452133,0.18186 0.5016,0.5584 0.02547,0.19586 0.02707,0.45466 0.03387,0.61146 -0.306266,0 -0.610533,0 -0.916666,0 0,-0.0667 -0.02347,-0.17093 -0.03653,-0.23853 -0.01307,-0.0729 -0.0432,-0.15467 -0.226533,-0.18493 -0.148933,-0.0255 -0.528667,-0.0489 -0.782267,-0.0145 -0.2224,0.0323 -0.289066,0.1072 -0.3032,0.29574 -0.0344,0.48493 -0.01453,1.22666 0.0073,1.46613 0.01613,0.18853 0.1416,0.21573 0.248933,0.236 0.153733,0.0287 0.547467,0.038 0.781733,0.007 0.1688,-0.0235 0.242267,-0.0323 0.283867,-0.23547 0.0136,-0.0692 0.02667,-0.1776 0.02667,-0.2828 -0.195334,-0.0156 -0.5052,0.008 -0.701067,-0.0136 0,-0.18333 -5.33e-4,-0.39426 -5.33e-4,-0.5776 0.521866,0 1.076533,0 1.597333,0 0.06467,0.33387 0.04853,1.2152 -0.0604,1.50627 -0.0484,0.1256 -0.1984,0.2448 -0.323467,0.2948 -0.4,0.15947 -1.473866,0.18493 -2.076,0.0855 -0.214,-0.0355 -0.3916,-0.1136 -0.4844,-0.19267 -0.06813,-0.0579 -0.145733,-0.1808 -0.161466,-0.28187 -0.064,-0.4 -0.08173,-0.76093 -0.08227,-1.4864 0,-0.23546 0.0412,-0.93546 0.06827,-1.0688 0.06973,-0.3568 0.2588,-0.426 0.545866,-0.49733"
        style="fill:#000000;fill-opacity:1;fill-rule:evenodd;stroke:none;stroke-width:0.13333333" id="path358"/>
    <path
        d="m 6.021333,8.1190098 c 0,1.726 0,5.3582702 0,5.7620002 0,0.53587 -0.3032,0.9 -0.856267,0.9 -0.4984,-10e-4 -0.795333,-0.44946 -0.795333,-0.8 0,-0.10573 -0.01293,-3.2172 -0.01293,-5.9494602 0,-0.48854 0.4036,-0.81414 0.8624,-0.81414 0.4584,0 0.802133,0.40214 0.802133,0.9016 z m -2.426533,0 c 0,4.7568002 0.0072,5.1134702 0.0072,5.9634702 0,0.32973 0.2152,0.8068 0.5052,1.04853 0.2896,0.24214 0.576133,0.4104 1.064666,0.4104 0.531734,-5.3e-4 0.8292,-0.1584 1.159334,-0.46413 0.316666,-0.29427 0.4656,-0.6916 0.4656,-1.16293 0,-0.31574 -0.0124,-4.4937402 -0.0124,-5.8693402 0,-0.71973 -0.574,-1.59373 -1.525067,-1.59373 -0.862533,0 -1.664533,0.51827 -1.664533,1.66773"
        style="fill:#000000;fill-opacity:1;fill-rule:evenodd;stroke:none;stroke-width:0.13333333" id="path360"/>
    <path
        d="m 33.987466,5.2772798 c 0.525466,0.0136 1.524,0.31987 1.533333,1.40893 0.01093,1.20254 -0.0104,2.02187 -0.0104,2.32707 0,0.3088 0,0.55107 -0.390133,0.53747 -0.350534,-0.012 -1.397334,-0.012 -1.6312,-0.0135 -0.198,-0.003 -0.4204,-0.0683 -0.4104,-0.44333 0.0061,-0.21867 0.06973,-0.4656 0.0061,-1.18387 -0.05987,-0.66347 -0.483333,-1.4224 -1.402,-1.3984 -0.723467,0.0183 -1.375067,0.4532 -1.442667,1.49227 -0.0256,0.39466 0.0036,4.3306602 -0.0095,6.1000002 -0.0068,0.88373 0.740133,1.4968 1.4656,1.49786 0.5876,0 1.1204,-0.4432 1.307866,-0.90053 0.1844,-0.45213 0.09373,-1.64213 0.09373,-1.6948 0,-0.28493 0.109866,-0.41667 0.3636,-0.41667 0.2624,-5.3e-4 1.381733,-0.006 1.509866,-0.006 0.158267,0 0.5792,-0.0577 0.5792,0.4896 0,0.6208 -0.01413,1.3516 -0.01307,2.03067 0,1.00266 -0.701067,1.5464 -1.226534,1.5464 -0.374,0 -4.649466,0 -5.000533,0 -1.131733,0 -1.487467,-0.96347 -1.487467,-1.51147 0,-2.00773 0.01867,-7.7129302 0.0052,-8.4254702 -0.01307,-0.71306 0.6656,-1.43653 1.353067,-1.45 0.687467,-0.0136 4.280267,0 4.806267,0.0135 z m -6.6984,0.48133 c -0.2876,0.57867 -0.2156,0.91507 -0.2156,1.18334 0,1.7312 0.002,7.9686602 0.0056,8.2864002 0.01307,1.31773 1.126133,2.17813 2.293866,2.16466 1.461867,-0.008 4.302534,0 4.878534,0 1.1996,0 2.0412,-1.16826 2.0412,-2.0068 -0.0025,-0.99533 0.01307,-2.28546 0.01307,-2.64893 0,-0.56413 -0.328666,-0.92613 -0.728133,-0.9136 -0.6948,0.0219 -1.833333,-0.0151 -2.590133,-0.006 -0.557867,0.007 -0.657867,0.51933 -0.657867,1.0276 0,0.75053 0.04067,0.8604 0.04067,1.12973 0,0.30827 -0.134934,0.8468 -0.6468,0.8468 -0.512,0 -0.715734,-0.37133 -0.714667,-0.94107 5.33e-4,-0.35946 -0.0011,-5.4234602 -0.01307,-5.8360002 -0.0104,-0.3172 0.214667,-0.78333 0.684934,-0.77813 0.4188,0.006 0.653733,0.34587 0.648933,0.65733 -0.0088,0.5896 -0.01093,0.82654 -0.01293,1.5192 -0.0021,0.52614 0.3364,0.8600002 0.821333,0.8600002 0.2968,0 1.8088,-0.005 2.3484,-0.005 0.539067,0 0.806267,-0.3224002 0.792267,-0.9496002 -0.01307,-0.6312 -0.0079,-1.0796 -0.0079,-2.64893 0,-0.7932 -0.588533,-2.2208 -2.2156,-2.2208 -0.553733,-5.3e-4 -3.815067,-0.0104 -4.8928,0 -0.914,0.008 -1.55,0.62707 -1.873333,1.27973"
        style="fill:#000000;fill-opacity:1;fill-rule:evenodd;stroke:none;stroke-width:0.13333333" id="path362"/>
    <path
        d="m 24.459332,5.2747498 c 0.3812,0 0.376,0.30466 0.376,0.39013 0,-0.29067 0,1.1156 0,1.38427 0,0.26933 -0.0536,0.3464 -0.390533,0.33653 -0.471867,-0.0131 -3.2396,0.005 -3.657333,0.005 -0.950533,0 -1.302133,0.88067 -1.288533,1.23227 0.02653,0.70466 0.525466,1.29586 1.347866,1.30933 0.821334,0.0136 2.130267,-0.006 2.790134,-0.006 1.132266,0 1.619333,0.5532002 1.619333,1.6953302 0,1.3152 -0.0021,2.8636 -0.0021,3.52293 0,1.20934 -1.0828,1.486 -1.3656,1.486 -0.283333,0 -5.751066,-0.007 -6.115066,-0.007 -0.3636,0 -0.35,-0.2552 -0.35,-0.56453 0,-0.30947 -0.0089,-0.64227 -0.0057,-1.1568 0,-0.28134 0.206666,-0.376 0.45,-0.376 1.315066,0 3.2624,0 4.070266,0 0.4188,0 1.227067,-0.35 1.212534,-1.26414 -0.0057,-0.4568 -0.4032,-1.23746 -1.212534,-1.23746 -0.5756,0 -1.668266,0 -2.9104,0 -0.981333,0 -1.5912,-0.6052 -1.5912,-1.55947 0,-0.9552002 0.0052,-2.9572002 0.0057,-3.7109302 -0.0016,-0.8296 0.6464,-1.4796 1.477066,-1.4796 1.374,-0.002 4.933334,0 5.540133,0 z m -7.809866,1.31253 c -0.0021,0.85253 0.0057,3.2728 0.0057,3.7437302 0,1.6672 1.0948,2.4604 2.358267,2.4604 1.254267,-5.3e-4 2.1032,-0.001 2.709467,-0.001 0.606133,0 0.673866,0.29693 0.673866,0.512 0,0.21506 -0.201066,0.4692 -0.524933,0.4692 -0.3396,0 -4.216667,10e-4 -4.556267,0.002 -0.351066,10e-4 -0.674,0.35213 -0.674,0.726 -0.002,0.60213 0,1.58653 0,2.1376 0,0.55146 0.5792,0.7672 0.848934,0.7672 0.269866,0 5.629733,-0.0157 6.726666,-0.003 0.623867,0.007 1.180133,-0.52027 1.343733,-0.74734 0.120267,-0.16826 0.473867,-0.648 0.473867,-1.38813 0,-1.538 0.0057,-4.44787 -0.01093,-3.83173 0.01827,-0.68494 -0.2536,-1.24427 -0.568667,-1.5734702 -0.235467,-0.2468 -0.753733,-0.7124 -1.630266,-0.7124 -0.876,0 -2.2724,0 -3.072934,0 -0.345733,0 -0.471333,-0.26933 -0.471333,-0.53853 0,-0.1876 0.140133,-0.45734 0.566133,-0.45734 1.330267,0 3.7328,0 4.0568,0 0.322933,0 0.654133,-0.28693 0.678667,-0.64426 0.02453,-0.35574 -0.0032,-1.81667 -0.0047,-2.25934 -0.0021,-0.4272 -0.275067,-0.7724 -1.043733,-0.7584 -0.448,0.007 -3.878133,0.0131 -5.668267,0 -1.143733,-0.0109 -2.216133,0.96094 -2.216133,2.09747"
        style="fill:#000000;fill-opacity:1;fill-rule:evenodd;stroke:none;stroke-width:0.13333333" id="path364"/>
    <path
        d="m 14.377599,5.2747498 c 0.159867,-0.001 0.368667,0.10053 0.368667,0.39533 0,8.2926702 0.0089,9.8509302 0.0089,10.4290702 0,0.57813 -0.2156,0.52453 -0.364133,0.52453 -0.1484,0 -1.5948,0.007 -1.995333,0.007 -0.214534,0 -0.363467,-0.1016 -0.363467,-0.46413 0,-0.96827 0.01347,-9.9770702 0.01347,-10.4349302 -0.0041,-0.28947 0.06933,-0.4572 0.390666,-0.4572 0.0256,0 1.3104,0 1.9412,0 z m -3.073466,0.0401 c 0,0.3228 0.0057,10.8686702 0.0057,11.1634702 0,0.6188 0.361467,0.92453 0.843733,0.9256 1.287467,0 2.290134,-10e-4 2.681734,-10e-4 0.485466,0 0.687066,-0.5292 0.674533,-0.9136 -0.0099,-0.26867 -0.01413,-6.5073302 -0.01413,-11.0530702 0,-0.70573 -0.3828,-0.9604 -0.814,-0.9604 -0.457867,0 -1.7432,0.0124 -2.609334,0.014 -0.598,0.006 -0.768266,0.50267 -0.768266,0.82507"
        style="fill:#000000;fill-opacity:1;fill-rule:evenodd;stroke:none;stroke-width:0.13333333" id="path366"/>
    <path
        d="m 29.013999,2.2892798 c -0.268667,0 -0.539067,0 -0.808267,0 0.1312,-0.44733 0.2968,-0.9948 0.411467,-1.39159997 0.133867,0.41039997 0.2676,0.92332997 0.3968,1.39159997 z m -2.094267,1.31467 c 0.3568,0 0.676,4e-4 0.8776,4e-4 0.08707,-0.29574 0.1792,-0.56134 0.2328,-0.7364 0.202134,0 1.011467,-5.4e-4 1.173467,-5.4e-4 0.04747,0.16774 0.177067,0.6328 0.215067,0.7312 0.281866,0 0.7224,0 0.8824,0 -0.08133,-0.302 -0.9136,-3.14839997 -1.062,-3.53852997 -0.283334,0.007 -0.960934,-0.007 -1.264134,5.3e-4 -0.173866,0.55054 -0.953066,3.19999997 -1.0552,3.54333997"
        style="fill:#000000;fill-opacity:1;fill-rule:evenodd;stroke:none;stroke-width:0.13333333" id="path368"/>
    <path
        d="m 25.968666,0.97994983 c 0.101066,0.0749 0.1344,0.68639997 0.0204,0.85412997 -0.114667,0.16773 -0.792267,0.10893 -1.145867,0.10787 0.0068,-0.31147 -0.0068,-0.7604 0,-1.06253997 0.526,0 0.9364,-0.038 1.125467,0.10054 z m -2.0088,2.61865997 c 0.286933,0 0.595866,0.006 0.882266,0.006 0,-0.25414 -0.0057,-0.6156 0.0011,-0.83067 0.127067,0.01 0.545867,0.007 0.862,-10e-4 0.521867,-0.0109 1.005733,-0.0708 1.152533,-0.362 0.133867,-0.26613 0.114134,-1.00986 0.088,-1.3656 -0.0176,-0.23745997 -0.0083,-0.45879997 -0.149466,-0.64532997 -0.0848,-0.1124 -0.154667,-0.2052 -0.4,-0.29213 -0.402,-0.14267 -1.6176,-0.0489 -2.430134,-0.0489 0.0025,1.11239997 -0.0052,3.23479997 -0.0063,3.53999997"
        style="fill:#000000;fill-opacity:1;fill-rule:evenodd;stroke:none;stroke-width:0.13333333" id="path370"/>
    <path
        d="m 18.784399,0.05914983 c 0.208267,0 0.873334,-5.4e-4 1.321867,-5.4e-4 0.431733,1.20986997 0.780667,2.19053997 0.9088,2.57333997 0.207867,-0.564 0.428133,-1.1848 0.888533,-2.57279997 0.433867,-0.005 0.886,-5.4e-4 1.316134,-5.4e-4 0,1.20573997 -5.34e-4,3.21239997 -5.34e-4,3.53999997 -0.181733,0.007 -0.491066,0.005 -0.8828,0 -0.0016,-0.3656 -0.0016,-1.92333 0,-2.5328 -0.175466,0.47094 -0.430133,1.2052 -0.881733,2.5328 -0.2964,0 -0.569333,0.006 -0.864533,0.006 -0.381334,-1.07334 -0.740667,-2.088 -0.8896,-2.55147 -0.0057,0.22813 0,1.7192 0,2.54573 -0.2912,0 -0.624,0.006 -0.916134,0.006 0.0036,-1.07547 -0.0053,-3.21293997 0,-3.54519997"
        style="fill:#000000;fill-opacity:1;fill-rule:evenodd;stroke:none;stroke-width:0.13333333" id="path372"/>
    <path
        d="m 9.101066,0.83047983 c 0.3364,-0.007 0.352,0.24532997 0.356667,0.35679997 0.0089,0.20467 0.0084,14.7333302 0.0084,14.9874702 0,0.30933 -0.0896,0.45773 -0.429733,0.45626 -3.4244,-0.0141 -6.0208,-0.007 -6.533334,-0.007 -0.633333,0 -1.455733,-0.5036 -1.455733,-1.42507 -0.01453,-4.44106 0.02347,-8.1686602 0.01413,-8.6260002 -0.01413,-0.61866 0.6624,-1.31293 1.3676,-1.31146 1.058934,0.003 2.811067,0.001 3.511067,0 0.526,-5.4e-4 0.850933,-0.2572 0.842133,-0.89374 0.0192,-1.63226 0.0192,-2.41453 0.0079,-3.1 -0.01053,-0.55159997 0.366133,-0.42812997 0.478,-0.44372997 -0.01667,0.002 1.360933,-0.007 1.832933,0.007 z m -3.079733,0.007 c 0.0172,0.46039997 0,1.04679997 0,3.32132997 0.0021,0.19787 -0.140133,0.3172 -0.3828,0.3172 -0.2428,0 -2.076533,-0.005 -3.269867,0.005 -1.1468,0.007 -2.0828,1.13907 -2.0828,1.94374 0.01093,4.1582602 -0.0063,7.5448002 -0.0063,8.7462602 0,1.22867 0.8276,1.83134 1.428133,2.07147 0.41,0.16293 0.9896,0.1604 1.5636,0.1604 0.777067,0 4.179733,-0.009 5.964,0.001 1.088533,0.005 1.022933,-0.80054 1.022933,-1.06147 0,-0.174 -0.0057,-3.41987 -0.0057,-15.46520017 0,-0.0801 0,-0.82027 -0.808267,-0.82027 -0.498533,0 -1.824533,-0.024 -2.749466,0 -0.2792,0.007 -0.694267,0.2912 -0.673467,0.78027"
        style="fill:#000000;fill-opacity:1;fill-rule:evenodd;stroke:none;stroke-width:0.13333333" id="path374"/>
    <path
        d="m 17.166666,0.86900983 c 0.02493,0.008 0.1208,0.0249 0.137467,0.18639997 0.04893,0.44227 0.05987,1.31987 0.0041,1.58854 -0.0292,0.13706 -0.0948,0.17093 -0.189067,0.18133 -0.2708,0.0312 -0.750533,0.0572 -0.9296,-0.0131 -0.09533,-0.038 -0.142266,-0.0932 -0.156266,-0.1828 -0.05107,-0.38386 -0.05267,-1.37706 -0.0256,-1.54533 0.02667,-0.16826997 0.0776,-0.18639997 0.195866,-0.21506997 0.269334,-0.0661 0.793734,-0.0568 0.963067,0 z m -2.0344,-0.28226 c -0.0932,0.3276 -0.06413,1.87705997 -0.0276,2.36665997 0.0328,0.44214 0.323467,0.54894 0.458267,0.5916 0.446933,0.14067 1.5032,0.1708 2.102666,0.0333 0.533867,-0.124 0.533867,-0.41667 0.559334,-0.60467 0.062,-0.4708 0.04947,-1.93173 -0.02027,-2.38692997 -0.04587,-0.28547 -0.204133,-0.36147 -0.4312,-0.45107 -0.4068,-0.15987 -1.502133,-0.17133 -2.095867,-0.0265 -0.416133,0.10053 -0.468266,0.19893 -0.545333,0.4776"
        style="fill:#000000;fill-opacity:1;fill-rule:evenodd;stroke:none;stroke-width:0.13333333" id="path376"/>
    <path
        d="m 13.117199,0.00127983 c 0.209334,-0.007 0.535867,0.014 0.830667,0.0807 0.3312,0.0745 0.550533,0.26626 0.578133,0.4912 0.02133,0.17973 0.04013,0.48172997 0.04013,0.81359997 -0.296934,0 -0.681334,0.006 -0.897467,-5.4e-4 -0.01973,-0.1948 0.0068,-0.34533 -0.05987,-0.44319997 -0.0864,-0.12866 -1.149466,-0.1688 -1.253066,0 -0.05,0.0807 -0.0464,0.28279997 -0.05427,0.38999997 -0.02187,0.28854 -0.04467,1.20734 0.06093,1.37814 0.102134,0.16613 1.083334,0.188 1.219867,0.0265 0.0604,-0.0719 0.0828,-0.3244 0.0864,-0.43693 0.2604,0 0.606267,0 0.897467,0 0,0.25893 0.01253,0.5068 -0.03707,0.7104 -0.07707,0.32186 -0.167067,0.436 -0.408267,0.51413 -0.435466,0.13853 -1.669733,0.19427 -2.214533,0.009 -0.2376,-0.0817 -0.4344,-0.1328 -0.474,-0.51347 -0.111467,-1.06053 -0.01987,-2.11719997 0.0068,-2.42039997 0.03387,-0.39013 0.431733,-0.50466 0.747333,-0.5468 0.326534,-0.0428 0.7016,-0.0443 0.9308,-0.0521"
        style="fill:#000000;fill-opacity:1;fill-rule:evenodd;stroke:none;stroke-width:0.13333333" id="path378"/>
    <path
        d="m 32.113466,0.01634983 c 0.208933,-0.007 0.534933,0.0136 0.831333,0.0808 0.330133,0.0744 0.55,0.26506 0.577067,0.49053 0.02133,0.18027 0.04053,0.47506997 0.04053,0.80732997 -0.2968,0 -0.638533,0 -0.910933,-5.3e-4 0,-0.20107 0.0011,-0.28853 -0.04627,-0.43692997 -0.04693,-0.14787 -1.116133,-0.1756 -1.1928,-0.0333 -0.04627,0.0823 -0.0796,0.12133997 -0.09467,0.38279997 -0.0172,0.29014 -0.06467,1.24787 0.04107,1.4188 0.102133,0.16667 1.083867,0.18854 1.219333,0.0271 0.0604,-0.0719 0.07653,-0.3308 0.0812,-0.4432 0.2604,0 0.605734,0 0.896934,0 -0.0272,0.2588 -0.0204,0.4536 -0.05787,0.71667 -0.0312,0.22186 -0.140133,0.43586 -0.3812,0.51293 -0.435467,0.1396 -1.6704,0.19533 -2.214667,0.009 -0.238,-0.0812 -0.4344,-0.13226 -0.473466,-0.51346 -0.111867,-1.05987 -0.02027,-2.11666997 0.0057,-2.41986997 0.03387,-0.39 0.432933,-0.5056 0.748,-0.5468 0.326533,-0.0427 0.701067,-0.0448 0.930667,-0.0521"
        style="fill:#000000;fill-opacity:1;fill-rule:evenodd;stroke:none;stroke-width:0.13333333" id="path380"/>
    <path
        d="m 33.763999,0.06060983 h 2.5344 V 1.0116798 h -0.828667 v 2.588 h -0.896266 v -2.5812 H 33.763999 V 0.06060983"
        style="fill:#000000;fill-opacity:1;fill-rule:evenodd;stroke:none;stroke-width:0.13333333" id="path382"/></svg>