<?xml version="1.0" encoding="UTF-8" standalone="no"?>
<svg xmlns:dc="http://purl.org/dc/elements/1.1/" xmlns:cc="http://creativecommons.org/ns#"
     xmlns:rdf="http://www.w3.org/1999/02/22-rdf-syntax-ns#" xmlns="http://www.w3.org/2000/svg" xml:space="preserve"
     id="svg2952" viewBox="0 0 4.009009 1.9715039" height="1.9715039in" width="4.0090089in" version="1.0"><metadata
   id="metadata35"><rdf:RDF><cc:Work
       rdf:about=""><dc:format>image/svg+xml</dc:format><dc:type rdf:resource="http://purl.org/dc/dcmitype/StillImage"/><dc:title></dc:title></cc:Work></rdf:RDF></metadata>
  <defs id="defs2954">
  <style id="style2956" type="text/css"/>
 </defs>
  <g transform="translate(-0.04549679,-0.0392481)" id="Layer_x0020_1">

  <g id="_58019296">
   <path id="_58968216" style="fill:#000000"
         d="m 2.93695,0.24313 c -2.441e-4,0.00915 -5.394e-4,0.0166732 -8.465e-4,0.0193661 -0.00234,0.020622 0,0.030374 -0.059469,0.030374 -0.059465,0 -0.057122,-0.009748 -0.059468,-0.030374 -7.598e-4,-0.006717 -0.00147,-0.043437 -0.00139,-0.0606181 7.48e-5,-0.017185 6.339e-4,-0.0539055 0.00139,-0.060622 0.00235,-0.020626 0,-0.030374 0.059468,-0.030374 0.059469,-3.94e-6 0.057122,0.009748 0.059469,0.030374 3.229e-4,0.002815 6.024e-4,0.0109055 8.308e-4,0.0206142 h 0.08135 c -5.197e-4,-0.018437 -0.00139,-0.0338425 -0.00231,-0.0418701 -0.00469,-0.041252 0.011559,-0.080748 -0.139248,-0.080748 -0.150807,-3.94e-6 -0.134563,0.0395 -0.139252,0.080748 -0.00152,0.0134252 -0.00294,0.0475118 -0.00279,0.081878 1.457e-4,0.0343622 0.00127,0.0684449 0.00279,0.081874 0.00469,0.041248 -0.011559,0.080748 0.139252,0.080748 0.150807,0 0.134559,-0.0395 0.139248,-0.080748 8.937e-4,-0.007846 0.00165,-0.0227362 0.00215,-0.0406181 l -0.081173,-3.94e-6 z"/>
    <polygon id="_20054976" style="fill:#000000"
             points="1.81361,0.0475 1.69487,0.046878 1.69487,0.35813 1.77424,0.35813 1.77424,0.126248 1.8536,0.35813 1.93298,0.35813 2.01174,0.126248 2.01174,0.35813 2.0911,0.35813 2.0911,0.046878 1.97235,0.0475 1.89298,0.279378 "/>
    <polygon id="_120206880" style="fill:#000000"
             points="3.26423,0.126248 3.18985,0.126248 3.18985,0.35813 3.11048,0.35813 3.11048,0.126248 3.0361,0.126248 3.0361,0.046878 3.26423,0.046878 "/>
    <polygon id="_120203320" style="fill:#000000"
             points="2.6336,0.0465709 2.72485,0.35813 2.64548,0.35813 2.62673,0.293748 2.52258,0.293748 2.53734,0.24313 2.61173,0.24313 2.57485,0.116248 2.5036,0.35813 2.42423,0.35813 2.51527,0.0465709 "/>
    <path id="_58461800" style="fill:#000000"
          d="m 1.50371,0.110878 c 0.059465,0 0.057118,0.009752 0.059465,0.030378 7.638e-4,0.006713 0.00132,0.043437 0.0014,0.060622 7.48e-5,0.0171811 -6.338e-4,0.0539055 -0.0014,0.0606181 -0.00235,0.020622 0,0.030374 -0.059468,0.030374 -0.059465,0 -0.057122,-0.009748 -0.059465,-0.030374 -7.638e-4,-0.006717 -0.00147,-0.043437 -0.0014,-0.0606181 7.48e-5,-0.017185 6.338e-4,-0.0539055 0.0014,-0.060622 0.00234,-0.020626 0,-0.030374 0.059465,-0.030374 l 9.45e-5,-0.0716339 c -0.150811,0 -0.134559,0.0395039 -0.139252,0.080752 -0.00152,0.0134252 -0.00294,0.0475118 -0.00279,0.081878 1.457e-4,0.0343622 0.00127,0.0684449 0.00279,0.081874 0.00469,0.041248 -0.011559,0.080748 0.139252,0.080748 0.150811,0 0.134559,-0.0395 0.139248,-0.080748 0.00153,-0.0134331 0.00265,-0.0475118 0.0028,-0.081874 1.456e-4,-0.0343661 -0.00127,-0.0684488 -0.0028,-0.081878 -0.00469,-0.041252 0.011563,-0.080748 -0.139248,-0.080748 z"/>
    <path id="_58008344" style="fill:#000000"
          d="m 1.23571,0.24313 c -2.402e-4,0.00915 -5.394e-4,0.0166732 -8.465e-4,0.0193661 -0.00234,0.020622 0,0.030374 -0.059465,0.030374 -0.059468,0 -0.057122,-0.009748 -0.059468,-0.030374 -7.598e-4,-0.006717 -0.00147,-0.043437 -0.00139,-0.0606181 7.09e-5,-0.017185 6.3e-4,-0.0539055 0.00139,-0.060622 0.00235,-0.020626 0,-0.030374 0.059468,-0.030374 0.059468,-3.94e-6 0.057122,0.009748 0.059465,0.030374 3.229e-4,0.002815 6.063e-4,0.0109055 8.347e-4,0.0206142 h 0.08135 c -5.236e-4,-0.018437 -0.0014,-0.0338425 -0.00231,-0.0418701 -0.00469,-0.041252 0.011559,-0.080748 -0.139248,-0.080748 -0.150811,-3.94e-6 -0.134563,0.0395 -0.139252,0.080748 -0.00153,0.0134252 -0.00294,0.0475118 -0.00279,0.081878 1.456e-4,0.0343622 0.00126,0.0684449 0.00279,0.081874 0.00469,0.041248 -0.011559,0.080748 0.139252,0.080748 0.150807,0 0.134555,-0.0395 0.139248,-0.080748 8.898e-4,-0.007846 0.00164,-0.0227362 0.00215,-0.0406181 l -0.081177,-3.94e-6 z"/>
    <path id="_60009952" style="fill:#000000"
          d="m 2.28437,0.286945 -0.048161,-2.756e-5 v -0.071 l 0.04815,-2.874e-4 c 0.059469,0 0.057622,-0.009748 0.059965,-0.030374 7.677e-4,-0.006717 6.063e-4,-0.001197 5.354e-4,-0.018378 -7.08e-5,-0.017185 2.284e-4,-0.0112835 -5.354e-4,-0.0179961 -0.00234,-0.0206299 -5e-4,-0.030378 -0.059965,-0.030378 l -0.048173,1.2598e-4 7.87e-5,0.239189 h -0.079528 v -0.310941 h 0.127634 c 0.150811,0 0.13428,0.0396063 0.139831,0.080748 6.575e-4,0.004874 6.575e-4,0.027374 6.575e-4,0.0395039 0,0.009744 0,0.032248 -6.575e-4,0.0393819 -0.00381,0.0413386 0.010976,0.0804331 -0.1398317,0.0804333 z"/>
    <path id="_121376752" style="fill:#000000"
          d="m 3.12495,1.75713 c 0.059468,0 0.057122,0.00975 0.059465,0.030374 7.677e-4,0.00672 0.00132,0.043437 0.0014,0.060622 7.88e-5,0.017177 -6.338e-4,0.053906 -0.0014,0.060618 -0.00234,0.020622 0,0.030378 -0.059469,0.030378 -0.059461,-3.9e-6 -0.057118,-0.00975 -0.059465,-0.030378 -7.598e-4,-0.00671 -0.00147,-0.043437 -0.0014,-0.060618 7.48e-5,-0.017185 6.338e-4,-0.053905 0.0014,-0.060622 0.00235,-0.020626 0,-0.030374 0.059465,-0.030374 l 9.45e-5,-0.07163 c -0.150807,0 -0.134559,0.0395 -0.139248,0.080748 -0.00153,0.013429 -0.00294,0.047512 -0.0028,0.081878 1.496e-4,0.034362 0.00127,0.068445 0.0028,0.081874 0.00469,0.041252 -0.011559,0.080752 0.139248,0.080752 0.150811,0 0.134559,-0.0395 0.139252,-0.080752 0.00153,-0.013429 0.00265,-0.047512 0.00279,-0.081874 1.457e-4,-0.03437 -0.00127,-0.068445 -0.00279,-0.081878 C 3.2596025,1.725 3.2758515,1.6855 3.1250405,1.6855 Z"/>
    <polygon id="_59760576" style="fill:#000000"
             points="2.07805,1.6898 2.1693,2.00136 2.08993,2.00136 2.07118,1.93698 1.96702,1.93698 1.98178,1.88636 2.05618,1.88636 2.0193,1.75948 1.94805,2.00136 1.86868,2.00136 1.95972,1.6898 "/>
    <polygon id="_59723992" style="fill:#000000"
             points="1.41661,1.6898 1.50786,2.00136 1.42849,2.00136 1.40974,1.93698 1.30559,1.93698 1.32035,1.88636 1.39474,1.88636 1.35786,1.75948 1.28661,2.00136 1.20724,2.00136 1.29828,1.6898 "/>
    <polygon id="_58592752" style="fill:#000000"
             points="0.396437,2.00437 0.396437,1.69313 0.475815,1.69313 0.475815,2.00437 "/>
    <polygon id="_120835072" style="fill:#000000"
             points="0.860803,2.00437 0.860803,1.69313 0.940173,1.69313 0.940173,2.00437 "/>
    <polygon id="_59242136" style="fill:#000000"
             points="1.21049,1.7725 1.13611,1.7725 1.13611,2.00437 1.05674,2.00437 1.05674,1.7725 0.982366,1.7725 0.982366,1.69313 1.21049,1.69313 "/>
    <polygon id="_59378280" style="fill:#000000"
             points="1.55111,1.69313 1.55111,2.00469 1.75611,2.00469 1.75611,1.92563 1.63049,1.92563 1.63049,1.69313 "/>
    <polygon id="_120332480" style="fill:#000000"
             points="2.85579,2.00437 2.85579,1.69313 2.93516,1.69313 2.93516,2.00437 "/>
    <path id="_59995448" style="fill:#000000"
          d="m 2.62236,1.69331 h 0.043126 c 0.150807,0 0.134555,0.039685 0.139248,0.080937 0.00153,0.013425 0.00294,0.037508 0.00279,0.071874 -1.417e-4,0.034362 -0.00127,0.064075 -0.00279,0.077504 -0.00469,0.041248 0.011559,0.080752 -0.139252,0.080752 l -0.138437,-4e-6 V 1.69331 H 2.62236 L 2.62111,1.764838 2.606736,1.7647474 v 0.168626 l 0.058658,-6.26e-4 c 0.059468,0 0.057122,-0.00975 0.059468,-0.030378 7.599e-4,-0.00671 0.00147,-0.039067 0.00139,-0.056248 -7.08e-5,-0.017185 -6.338e-4,-0.043905 -0.00139,-0.050622 -0.00235,-0.020626 0,-0.030374 -0.059468,-0.030374 L 2.621108,1.7648376 Z"/>
    <path id="_58931640" style="fill:#000000"
          d="m 2.47494,1.84812 -8.66e-5,-0.155 H 2.393751 v 0.155 c 7.48e-5,0.017177 -6.378e-4,0.053905 -0.0014,0.060618 -0.00235,0.020622 0,0.030378 -0.059468,0.030378 C 2.273418,1.9391121 2.275761,1.929366 2.273415,1.908738 2.2726552,1.902028 2.272065,1.865301 2.272135,1.84812 L 2.2722589,1.693124 H 2.1909361 V 1.84812 c 1.456e-4,0.034362 0.00126,0.068445 0.00279,0.081874 0.00469,0.041252 -0.011559,0.080752 0.139252,0.080752 0.150811,0 0.134559,-0.0395 0.139248,-0.080752 0.00153,-0.013429 0.00256,-0.047512 0.00271,-0.081874 z"/>
    <path id="_59987096" style="fill:#000000"
          d="m 0.728406,1.88937 c -2.4016e-4,0.00915 -5.3937e-4,0.016673 -8.4646e-4,0.019366 -0.002343,0.020622 0,0.030378 -0.0594646,0.030378 -0.0594685,-3.9e-6 -0.057122,-0.00975 -0.0594685,-0.030378 -7.6378e-4,-0.00671 -0.001468,-0.043437 -0.001398,-0.060618 7.481e-5,-0.017185 6.3386e-4,-0.053905 0.001398,-0.060622 0.002346,-0.020626 0,-0.030374 0.0594685,-0.030374 0.0594646,0 0.057122,0.00975 0.0594646,0.030374 3.2284e-4,0.00282 6.063e-4,9.055e-4 8.3465e-4,0.010618 l 0.0813465,-3.9e-6 c -5.1969e-4,-0.018437 -0.001394,-0.023842 -0.002307,-0.03187 -0.004689,-0.041248 0.011563,-0.080748 -0.139248,-0.080748 -0.150811,0 -0.134559,0.0395 -0.139248,0.080748 -0.001528,0.013429 -0.002941,0.047512 -0.002795,0.081878 1.4567e-4,0.034362 0.001268,0.068445 0.002795,0.081874 0.004689,0.041252 -0.011563,0.080752 0.139248,0.080752 0.150811,0 0.134559,-0.0395 0.139248,-0.080752 8.937e-4,-0.00785 0.001646,-0.022736 0.002146,-0.040618 z"/>
    <polygon id="_58359976" style="fill:#000000"
             points="0.809583,1.88937 0.809583,1.83937 0.667996,1.83937 0.667996,1.88937 "/>
    <path id="_59501232" style="fill:#000000"
          d="m 0.160496,1.69331 h 0.043126 c 0.150811,0 0.134559,0.039685 0.139248,0.080937 C 0.344402,1.787672 0.345811,1.811755 0.345665,1.846121 0.34551933,1.880483 0.344397,1.910196 0.34287,1.923625 0.338185,1.964873 0.354433,2.004377 0.203622,2.004377 l -0.138437,-4e-6 V 1.69331 H 0.160496 L 0.159248,1.764838 0.144874,1.7647474 v 0.168626 l 0.0586535,-6.26e-4 c 0.0594685,0 0.057122,-0.00975 0.0594685,-0.030378 7.6378e-4,-0.00671 0.001472,-0.039067 0.001398,-0.056248 -7.087e-5,-0.017185 -6.3386e-4,-0.043905 -0.001398,-0.050622 -0.002343,-0.020626 0,-0.030374 -0.0594685,-0.030374 l -0.0442795,-2.878e-4 z"/>
    <path id="_120326544" style="fill:#000000"
          d="M 0.74076,1.53011 0.243929,1.5295313 c -0.0718898,0 -0.130161,-0.058279 -0.130161,-0.130157 V 0.64312626 c 0,-0.0718898 0.0582717,-0.130157 0.130157,-0.130157 l 0.310953,-3.5039e-4 c 0.0373386,0 0.0676181,-0.0302717 0.0676181,-0.067622 l 9.0945e-4,-0.30237 c 0,-0.0156496 0.012689,-0.0283386 0.0283386,-0.0283386 l 0.182291,-3.94e-6 c 0.0156496,0 0.0283504,0.0126969 0.0283504,0.0283465 l 0.00187,1.35923997 c 0,0.015653 -0.0126929,0.028354 -0.0283425,0.028354 l -0.0951535,-1.141e-4 -0.002315,0.067539 0.124339,-3.94e-5 c 0.0373425,0 0.067622,-0.030268 0.067622,-0.067618 V 0.11374289 c 0,-0.0373386 -0.0302795,-0.0676063 -0.067622,-0.0676063 h -0.239157 c -0.0373386,0 -0.067622,0.0302717 -0.067622,0.0676102 l 3.4252e-4,0.303126 c 0,0.0156496 -0.012689,0.0283543 -0.0283504,0.0283543 l -0.284067,-5.1969e-4 c -0.109591,0 -0.198433,0.0888268 -0.198433,0.198417 v 0.756244 c 0,0.109583 0.0888425,0.198425 0.198429,0.198425 l 0.49452,-1.457e-4 0.002315,-0.067539 z"/>
    <path id="_57898688" style="fill:#000000"
          d="M 0.555996,1.25175 V 0.762498 c 0,-0.041 -0.0332402,-0.0742402 -0.074252,-0.0742402 -0.041,-3.94e-6 -0.0742402,0.0332402 -0.0742402,0.0742402 v 0.528126 c 0,0.041 0.0332402,0.074252 0.0742402,0.074252 0.0410118,-3.9e-6 0.074252,-0.033252 0.074252,-0.074252 V 1.25175 l 0.0674921,0.00232 v 0.036559 c 0,0.078272 -0.0634646,0.141732 -0.141744,0.141732 C 0.4034764,1.432357 0.3400161,1.3689 0.3400161,1.290629 V 0.76249806 c 0,-0.0782717 0.0634606,-0.141728 0.141728,-0.141728 0.0782795,-3.94e-6 0.14174,0.0634567 0.14174,0.141728 l 3.94e-6,0.49156704 -0.0674921,-0.00232 z"/>
    <path id="_59555528" style="fill:#000000"
          d="m 1.21298,1.53011 -0.092988,7.9e-6 c -0.015661,0 -0.02835,-0.012701 -0.02835,-0.02835 l 0.00114,-0.95985003 c 0,-0.0156614 0.012689,-0.0283465 0.02835,-0.0283465 h 0.182291 c 0.015658,0 0.02835,0.012689 0.02835,0.0283504 l 0.00187,0.95983103 c 0,0.015661 -0.012693,0.028354 -0.028342,0.028354 l -0.092319,3.9e-6 v 0.06726 l 0.119189,1.26e-4 c 0.03735,0 0.067618,-0.030268 0.067618,-0.06761 l 3.9e-6,-1.01685 c 0,-0.0373386 -0.030272,-0.0676181 -0.067622,-0.0676181 l -0.239169,-3.94e-6 c -0.037339,0 -0.06761,0.0302835 -0.06761,0.067622 L 1.0252517,1.5296262 c 0,0.03735 0.030039,0.067622 0.067378,0.067622 l 0.12035,1.22e-4 z"/>
    <path id="_58603048" style="fill:#000000"
          d="M 2.07177,0.702433 1.871502,0.70215741 c -0.06161,0 -0.111583,0.0499724 -0.111583,0.111591 3.9e-6,0.0616299 0.049972,0.111591 0.111583,0.111591 l 0.274382,7.4803e-4 c 0.071878,0 0.130157,0.0582835 0.130157,0.13016096 l -9.213e-4,0.341575 c 0,0.071894 -0.058279,0.130165 -0.130157,0.130165 l -0.544661,9.882e-4 c -0.01565,0 -0.02835,-0.012697 -0.02835,-0.02835 v -0.132291 c 0,-0.015657 0.012701,-0.028347 0.02835,-0.028347 l 0.371201,-0.00121 c 0.06163,0 0.111598,-0.049957 0.111598,-0.111587 0,-0.06163 -0.049969,-0.111591 -0.111598,-0.111591 l -0.26874,-0.00106 c -0.071882,0 -0.130161,-0.05828 -0.130161,-0.13016103 v -0.341248 c 0,-0.0718898 0.058279,-0.130157 0.130161,-0.130157 l 0.504878,-0.002362 c 0.015654,0 0.028343,0.0127008 0.028343,0.0283504 l 7.9e-6,0.135307 c 0,0.0156496 -0.012689,0.0283504 -0.02835,0.0283504 l -0.13587,-1.8504e-4 -0.00231,0.0665236 0.166055,5.118e-5 c 0.037342,0 0.067622,-0.0300394 0.067622,-0.067378 l 2.519e-4,-0.189539 c 0,-0.0373504 -0.030272,-0.0676181 -0.067622,-0.0676181 l -0.533,2.4016e-4 c -0.109579,0 -0.198421,0.0888268 -0.198421,0.198417 v 0.341248 c 0,0.10957903 0.088839,0.19842103 0.198421,0.19842103 l 0.26874,-4.646e-4 c 0.024783,0 0.044858,0.020083 0.044858,0.044854 4e-6,0.024776 -0.020079,0.044858 -0.044858,0.044858 l -0.400079,-8.27e-5 c -0.037343,0 -0.067614,0.030272 -0.067614,0.067622 v 0.189161 c 0,0.037346 0.030272,0.067618 0.06761,0.067618 l 0.573547,-1.181e-4 c 0.109575,0 0.198413,-0.088831 0.198413,-0.198421 l 9.213e-4,-0.341583 c 0,-0.10957499 -0.088839,-0.19841299 -0.198421,-0.19841299 l -0.274378,7.7953e-4 c -0.02476,0 -0.044842,-0.0200827 -0.044842,-0.0448622 3.9e-6,-0.0247717 0.020079,-0.0448465 0.044842,-0.0448465 l 0.197953,5.512e-5 0.00231,-0.0665236 z"/>
    <path id="_58840136" style="fill:#000000"
          d="m 3.08103,0.890087 h 0.086012 c 0.015661,0 0.02835,-0.012685 0.02835,-0.0283465 l -3.583e-4,-0.21861 c 0,-0.0718898 -0.058272,-0.130157 -0.130161,-0.130157 l -0.430299,-3.94e-6 c -0.07189,0 -0.130169,0.0582717 -0.130169,0.130161 l 4e-6,0.75624404 c 0,0.071878 0.058276,0.130165 0.130165,0.130165 l 0.430303,-4e-6 c 0.07189,0 0.130157,-0.05828 0.130157,-0.130157 l 3.622e-4,-0.207862 c 0,-0.015661 -0.012693,-0.028346 -0.028354,-0.028346 h -0.162327 c -0.015653,0 -0.028342,0.012689 -0.028342,0.02835 l 9.134e-4,0.099106 c 0,0.078272 -0.049291,0.141732 -0.127563,0.141732 -0.078276,-3.9e-6 -0.127559,-0.063461 -0.127559,-0.141732 V 0.76250083 c 0,-0.0782717 0.04928,-0.141728 0.127559,-0.141728 0.078272,-3.94e-6 0.127559,0.0634567 0.127559,0.141728 l -9.056e-4,0.0992402 c 0,0.0156575 0.012685,0.0283504 0.028335,0.0283504 l 0.076319,-3.94e-6 -0.00231,0.0681535 h -0.102126 c -0.037339,0 -0.067618,-0.0302795 -0.067618,-0.067622 l 8.189e-4,-0.128118 c 0,-0.041 -0.019071,-0.0742402 -0.060071,-0.0742402 -0.041008,-3.94e-6 -0.060079,0.0332402 -0.060079,0.0742402 V 1.290627 c 0,0.041 0.019067,0.074252 0.060079,0.074252 0.041004,-3.9e-6 0.060071,-0.033252 0.060071,-0.074252 L 2.9089785,1.162639 c 0,-0.037343 0.030276,-0.067618 0.067614,-0.067618 l 0.219201,-3.9e-6 c 0.03735,0 0.067618,0.030284 0.067618,0.067622 l -1.181e-4,0.236736 c 0,0.109583 -0.088831,0.198425 -0.198421,0.198425 l -0.430299,-4e-6 c -0.109587,0 -0.198429,-0.088839 -0.198429,-0.198417 V 0.64313101 c 0,-0.109591 0.088843,-0.198417 0.198429,-0.198417 h 0.430303 c 0.109591,0 0.198417,0.0888268 0.198417,0.198417 l 1.22e-4,0.247488 c 0,0.0373386 -0.030276,0.067622 -0.067622,0.067622 h -0.117075 l 0.00231,-0.0681535 z"/>
    <path id="_59557240" style="fill:#000000"
          d="M 3.69214,1.1505 H 3.615069 C 3.597884,1.1505 3.581703,1.14378 3.56951,1.131591 3.557313,1.119394 3.550597,1.103217 3.550597,1.086032 v -0.15622 c 0,-5.0394e-4 -2.047e-4,-9.6063e-4 -6.063e-4,-0.001362 -3.976e-4,-4.0158e-4 -8.583e-4,-6.063e-4 -0.00136,-6.063e-4 h -0.156217 c -0.017185,0 -0.033366,-0.006713 -0.045559,-0.0189094 -0.012193,-0.0121929 -0.018909,-0.028374 -0.018909,-0.0455591 l 3.9e-6,-0.152311 c 0,-0.0355512 0.028913,-0.0644685 0.064465,-0.0644685 h 0.15622 c 0.00101,0 0.00196,-9.5669e-4 0.00196,-0.001969 v -0.156224 c 0,-0.0355472 0.028921,-0.0644646 0.064468,-0.0644646 h 0.152319 c 0.017181,0 0.033358,0.006717 0.045551,0.0189134 0.012197,0.0121929 0.018913,0.0283701 0.018913,0.0455551 v 0.15622 c 0,5.0394e-4 2.008e-4,9.6063e-4 6.063e-4,0.001362 4.016e-4,4.0158e-4 8.583e-4,6.063e-4 0.00136,6.063e-4 h 0.156217 c 0.017185,0 0.033366,0.006717 0.045559,0.0189094 0.012197,0.0121969 0.018913,0.028374 0.018913,0.0455591 v 0.152311 c 0,0.017185 -0.00672,0.0333661 -0.018913,0.0455591 -0.012193,0.0121969 -0.028374,0.0189094 -0.045559,0.0189094 h -0.156213 c -5.079e-4,0 -9.685e-4,2.0472e-4 -0.00137,6.063e-4 -4.015e-4,4.0157e-4 -6.023e-4,8.622e-4 -6.023e-4,0.001362 v 0.15622 c 0,0.017185 -0.00672,0.033362 -0.018913,0.045559 -0.012193,0.012189 -0.028374,0.018909 -0.045555,0.018909 h -0.07524 l -0.00232,-0.0625 h 0.077559 c 0.00101,0 0.00196,-9.567e-4 0.00196,-0.00197 v -0.15622 c 0,-0.0355512 0.028921,-0.0644685 0.064468,-0.0644685 h 0.156217 c 0.00102,0 0.00197,-9.5669e-4 0.00197,-0.001969 v -0.152311 c 0,-5.0394e-4 -2.047e-4,-9.6063e-4 -6.063e-4,-0.001362 -4.016e-4,-4.0551e-4 -8.622e-4,-6.063e-4 -0.00137,-6.063e-4 h -0.156213 c -0.017189,0 -0.03337,-0.006717 -0.045563,-0.0189094 C 3.7760605,0.6779886 3.769348,0.6618115 3.769348,0.6446264 v -0.156224 c 0,-5e-4 -2.047e-4,-9.5669e-4 -6.063e-4,-0.001358 -3.977e-4,-4.0158e-4 -8.622e-4,-6.063e-4 -0.00136,-6.063e-4 h -0.152311 c -5.079e-4,0 -9.646e-4,2.0472e-4 -0.00137,6.063e-4 -4.015e-4,3.9764e-4 -6.063e-4,8.5827e-4 -6.063e-4,0.001362 v 0.15622 c 0,0.0171811 -0.00672,0.0333622 -0.018909,0.0455591 -0.012197,0.0121929 -0.028378,0.0189094 -0.045559,0.0189094 h -0.156217 c -5.039e-4,0 -9.645e-4,2.0472e-4 -0.00137,6.0236e-4 -4.016e-4,4.0158e-4 -6.024e-4,8.6221e-4 -6.024e-4,0.001366 l 4e-6,0.152311 c 0,5.0394e-4 1.968e-4,9.6457e-4 5.984e-4,0.001366 4.055e-4,4.0158e-4 8.622e-4,6.0236e-4 0.00137,6.0236e-4 h 0.15622 c 0.017185,0 0.033358,0.006717 0.045555,0.0189134 0.012197,0.0121929 0.018909,0.028374 0.018909,0.0455551 V 1.0860313 c 0,5.04e-4 2.048e-4,9.607e-4 6.063e-4,0.00136 4.016e-4,4.016e-4 8.583e-4,6.063e-4 0.00136,6.063e-4 h 0.07476 l 0.00231,0.0625 z"/>
  </g>
 </g>
</svg>