<?xml version="1.0" encoding="UTF-8" standalone="no"?>
<svg xmlns:dc="http://purl.org/dc/elements/1.1/" xmlns:cc="http://creativecommons.org/ns#"
     xmlns:rdf="http://www.w3.org/1999/02/22-rdf-syntax-ns#" xmlns="http://www.w3.org/2000/svg" version="1.0"
     width="4.498147in" height="3.3281589in" viewBox="0 0 4.4981471 3.3281588" id="svg3033" xml:space="preserve"><metadata
   id="metadata32"><rdf:RDF><cc:Work
       rdf:about=""><dc:format>image/svg+xml</dc:format><dc:type rdf:resource="http://purl.org/dc/dcmitype/StillImage"/><dc:title></dc:title></cc:Work></rdf:RDF></metadata>
    <defs id="defs3035">
  <style type="text/css" id="style3037"/>
 </defs>
    <g id="Layer_x0020_1" transform="translate(-0.05092689,-0.035917)">

  <g id="_60187376">
   <path id="_120699384" transform="matrix(0.01041667,0,0,0.01041667,0.05092689,0.035917)"
         d="M 13.826172 224.83789 C 7.566502 224.83789 2.4882813 229.91418 2.4882812 236.17578 L 2.4882812 308.16602 C 2.4882812 314.42756 7.566454 319.50391 13.826172 319.50391 L 420.48633 319.50391 C 426.74598 319.50391 431.82227 314.42715 431.82227 308.16602 L 431.82227 236.17578 C 431.82227 229.91378 426.74565 224.83789 420.48633 224.83789 L 13.826172 224.83789 z M 23.072266 242.71484 L 50.078125 242.71484 C 59.675886 242.71484 69.273438 246.0484 69.273438 258.41211 C 69.273438 267.03396 64.880031 270.20801 61.138672 272.4043 C 64.47374 273.78647 67.809346 275.25083 68.134766 283.38477 L 68.623047 293.95898 C 68.704687 297.21241 69.110713 298.4319 71.550781 299.81445 L 71.550781 301.11523 L 61.871094 301.11523 C 60.732313 297.5364 60.488281 288.67051 60.488281 286.47461 C 60.488659 281.67528 59.511808 276.0625 50.076172 276.0625 L 30.962891 276.0625 L 30.962891 301.11523 L 23.072266 301.11523 L 23.072266 242.71484 z M 258.0918 242.71484 L 265.25 242.71484 L 265.25 301.11523 L 258.49805 301.11523 L 258.49805 295.25977 L 258.33594 295.25977 C 255.24466 301.03489 250.36444 302.33594 246.2168 302.33594 C 231.73813 302.33594 227.50781 288.75164 227.50781 278.58398 C 227.50819 266.62708 233.93408 257.35547 245.24023 257.35547 C 252.9671 257.35547 256.21979 262.15365 257.92773 264.59375 L 258.0918 264.02539 L 258.0918 242.71484 z M 316.55469 242.71484 L 323.71289 242.71484 L 323.71289 263.94336 L 323.875 263.94336 C 326.9659 259.46992 331.19642 257.43673 336.1582 257.35547 C 347.46432 257.35547 353.89063 266.62705 353.89062 278.58398 C 353.89062 288.75164 349.66027 302.33594 335.18164 302.33594 C 327.94271 302.33594 324.93256 298.18694 323.46875 295.82812 L 323.30664 295.82812 L 323.30664 301.11523 L 316.55469 301.11523 L 316.55469 242.71484 z M 360.875 242.71484 L 368.03125 242.71484 L 368.03125 301.11523 L 360.875 301.11523 L 360.875 242.71484 z M 30.962891 249.46484 L 30.962891 269.3125 L 49.263672 269.3125 C 55.03881 269.3125 61.138672 267.84881 61.138672 259.22656 C 61.138672 250.19764 54.550736 249.46484 50.646484 249.46484 L 30.962891 249.46484 z M 96.675781 257.35547 C 108.95819 257.35547 114.97656 267.11618 114.97656 282.16406 L 83.90625 282.16406 C 83.90625 291.03008 88.054015 296.1543 96.269531 296.1543 C 103.02059 296.15392 107.00587 290.94755 107.25 287.77539 L 114.4082 287.77539 L 114.4082 287.77734 C 114.16397 289.8111 112.21219 295.82941 106.84375 299.4082 C 104.89163 300.70987 102.12561 302.33594 95.292969 302.33594 C 83.336049 302.33594 76.25976 293.3077 76.259766 281.02539 C 76.260144 267.84797 82.60424 257.35547 96.675781 257.35547 z M 139.44922 257.35547 C 150.5928 257.35547 154.82143 265.48876 155.39062 272.89062 L 148.47852 272.89062 C 147.5839 267.19714 144.41148 263.78125 138.39258 263.78125 C 129.52657 263.78125 126.67969 272.24 126.67969 279.80469 C 126.67969 287.12532 128.46869 296.1543 138.31055 296.1543 C 143.10979 296.15393 147.2589 292.57564 148.47852 286.06836 L 155.39258 286.06836 C 154.66048 292.81941 150.51121 302.33594 138.06641 302.33594 C 126.10944 302.33594 119.03313 293.3077 119.0332 281.02539 C 119.0332 267.84798 125.37768 257.35547 139.44922 257.35547 z M 178.24609 257.35547 C 191.8301 257.35547 198.01172 268.82372 198.01172 279.80469 C 198.0121 290.78503 191.83011 302.25391 178.24609 302.25391 C 164.66242 302.25391 158.48047 290.78532 158.48047 279.80469 C 158.48047 268.82363 164.66239 257.35547 178.24609 257.35547 z M 224.35742 257.35547 C 225.25241 257.35547 225.65737 257.43666 226.22656 257.59961 L 226.22656 265 L 223.54297 265 C 216.87324 265 212.64258 270.20687 212.64258 276.38867 L 212.64258 301.11523 L 205.48633 301.11523 L 205.48633 258.57422 L 212.23633 258.57422 L 212.23633 265.65234 L 212.40039 265.65234 C 215.24751 260.6902 218.989 257.35547 224.35742 257.35547 z M 290.86133 257.35547 C 294.27803 257.35547 306.64062 258.33105 306.64062 269.23047 L 306.64062 293.71289 C 306.64062 295.50249 307.53581 296.23633 309 296.23633 C 309.65122 296.23633 310.54563 296.07306 311.35938 295.91016 L 311.35938 301.11523 C 310.13933 301.44065 309.08021 301.92969 307.45312 301.92969 C 301.10916 301.92932 300.13246 298.67568 299.88867 295.42188 C 297.12319 298.43114 292.81209 302.33594 284.51562 302.33594 C 276.70709 302.33594 271.17578 297.37332 271.17578 290.05273 C 271.17616 286.47351 272.23373 278.17708 284.10938 276.71289 L 295.9043 275.25 C 297.61265 275.0871 299.64453 274.4367 299.64453 270.20703 C 299.64453 265.73282 296.39204 263.29297 289.64062 263.29297 C 281.50668 263.2926 280.36682 268.25401 279.87891 271.50781 L 273.29102 271.50781 C 273.61644 261.34014 280.36859 257.35547 290.86133 257.35547 z M 395.51758 257.35547 C 407.79991 257.35547 413.82031 267.11625 413.82031 282.16406 L 382.74805 282.16211 C 382.74805 291.02809 386.89622 296.1543 395.11133 296.1543 C 401.86272 296.15391 405.84805 290.94761 406.0918 287.77539 L 413.25 287.77539 C 413.00616 289.80915 411.05396 295.82747 405.68555 299.40625 C 403.73377 300.70791 400.96737 302.33594 394.13477 302.33594 C 382.17825 302.33594 375.10156 293.30773 375.10156 281.02539 C 375.10156 267.84805 381.44609 257.35547 395.51758 257.35547 z M 178.24609 263.53711 C 167.99746 263.53711 165.88281 274.11084 165.88281 279.80469 C 165.88281 285.49784 167.99751 296.07266 178.24609 296.07227 C 188.49506 296.07227 190.60938 285.49822 190.60938 279.80469 C 190.60975 274.11084 188.495 263.53711 178.24609 263.53711 z M 95.699219 263.78125 C 89.110733 263.78125 83.904297 269.88224 83.904297 276.4707 L 107.57422 276.4707 C 107.16755 269.88184 104.40237 263.78125 95.699219 263.78125 z M 246.54297 263.78125 C 235.4807 263.78125 234.91016 274.27292 234.91016 279.72266 C 234.91053 289.07661 238.57006 296.15469 246.37891 296.1543 C 250.93286 296.1543 258.00977 293.14395 258.00977 281.83789 C 258.01014 274.92396 256.87245 263.78125 246.54297 263.78125 z M 334.85742 263.78125 C 324.52725 263.78125 323.38672 274.92405 323.38672 281.83789 C 323.3871 293.144 330.46448 296.1543 335.01953 296.1543 C 342.82842 296.15393 346.48828 289.07704 346.48828 279.72266 C 346.48828 274.27295 345.91932 263.78125 334.85742 263.78125 z M 394.54297 263.78125 C 387.9541 263.78125 382.74805 269.88027 382.74805 276.46875 L 406.41797 276.46875 C 406.01093 269.87989 403.24614 263.78125 394.54297 263.78125 z M 299.48242 279.39844 C 298.34328 280.29268 296.55548 280.94363 287.68945 282.08203 C 284.19188 282.56997 278.57812 283.62764 278.57812 288.99609 C 278.57812 293.63245 280.93821 296.39844 286.30664 296.39844 C 292.97638 296.39844 299.48242 292.08612 299.48242 286.39258 L 299.48242 279.39844 z "
         style="fill:#000000;stroke-width:96"/>


      <path
          d="m 4.09101,0.320791 c -3.386e-4,0.0127874 -7.52e-4,0.0232913 -0.00118,0.0270551 -0.00328,0.0288189 0,0.0424409 -0.083094,0.0424409 -0.083091,0 -0.079811,-0.013622 -0.083091,-0.0424409 -0.00106,-0.009382 -0.00205,-0.0606929 -0.00195,-0.0847008 9.84e-5,-0.0240079 8.819e-4,-0.0753189 0.00195,-0.0846969 0.00328,-0.0288228 0,-0.0424449 0.083091,-0.0424449 0.083094,0 0.079815,0.013626 0.083094,0.0424449 4.449e-4,0.003925 8.425e-4,0.0152323 0.00116,0.0288031 l 0.113665,-3.94e-6 c -7.322e-4,-0.0257598 -0.00195,-0.0472835 -0.00322,-0.0585 -0.00655,-0.0576378 0.016153,-0.112827 -0.194567,-0.112827 -0.210717,-3.93e-6 -0.188012,0.055189 -0.194567,0.112827 -0.00213,0.0187598 -0.00411,0.0663819 -0.0039,0.114398 2.047e-4,0.0480157 0.00177,0.0956378 0.0039,0.114402 0.00656,0.0576339 -0.01615,0.112827 0.194567,0.112827 0.210724,-3.93e-6 0.188016,-0.0551929 0.194567,-0.112827 0.00125,-0.0109646 0.0023,-0.0317717 0.003,-0.056752 z"
          style="fill:#000000" id="_59919848"/>
      <polygon
          points="2.52143,0.0474449 2.3555,0.0465787 2.3555,0.481472 2.46641,0.481472 2.46641,0.157476 2.57731,0.481472 2.68822,0.481472 2.79825,0.157476 2.79825,0.481472 2.90915,0.481472 2.90915,0.0465787 2.74323,0.0474449 2.63234,0.371437 "
          style="fill:#000000" id="_59962648"/>
      <polygon
          points="4.5483,0.157476 4.44437,0.157476 4.44437,0.481472 4.33348,0.481472 4.33348,0.157476 4.22955,0.157476 4.22955,0.0465787 4.5483,0.0465787 "
          style="fill:#000000" id="_59940264"/>
      <polygon
          points="3.66715,0.0461496 3.79465,0.481472 3.68376,0.481472 3.65756,0.391516 3.51203,0.391516 3.53265,0.320791 3.6366,0.320791 3.58507,0.143504 3.48552,0.481472 3.37461,0.481472 3.50182,0.0461496 "
          style="fill:#000000" id="_59931912"/>
      <path
          d="m 2.08841,0.136004 c 0.083095,0 0.079815,0.013626 0.083095,0.0424449 0.00107,0.009378 0.00185,0.060689 0.00195,0.0846969 1.024e-4,0.0240079 -8.858e-4,0.0753189 -0.00195,0.0847008 -0.00328,0.0288189 0,0.0424409 -0.083095,0.0424409 -0.083087,0 -0.079815,-0.013622 -0.083091,-0.0424409 -0.00106,-0.009382 -0.00205,-0.0606929 -0.00195,-0.0847008 1.023e-4,-0.0240079 8.819e-4,-0.0753189 0.00195,-0.0846969 0.00328,-0.0288228 0,-0.0424449 0.083091,-0.0424449 l 1.299e-4,-0.100087 c -0.210717,0 -0.188012,0.0551929 -0.194567,0.112831 -0.00213,0.0187598 -0.00411,0.0663819 -0.0039,0.114398 2.047e-4,0.0480157 0.00177,0.0956378 0.0039,0.114402 0.00656,0.0576339 -0.01615,0.112827 0.194567,0.112827 0.21072,-3.94e-6 0.188016,-0.0551929 0.194567,-0.112827 0.00213,-0.0187638 0.0037,-0.0663858 0.0039,-0.114402 2.047e-4,-0.0480157 -0.00177,-0.0956339 -0.0039,-0.114398 -0.00655,-0.0576378 0.016154,-0.112827 -0.194567,-0.112827 z"
          style="fill:#000000" id="_57434608"/>
      <path
          d="m 1.71396,0.320791 c -3.386e-4,0.0127874 -7.52e-4,0.0232913 -0.00118,0.0270551 -0.00328,0.0288189 0,0.0424409 -0.083091,0.0424409 -0.083087,0 -0.079811,-0.013622 -0.083091,-0.0424409 -0.00106,-0.009382 -0.00205,-0.0606929 -0.00195,-0.0847008 9.84e-5,-0.0240079 8.858e-4,-0.0753189 0.00195,-0.0846969 0.00328,-0.0288228 0,-0.0424449 0.083091,-0.0424449 0.083091,0 0.079815,0.013626 0.083091,0.0424449 4.488e-4,0.003925 8.425e-4,0.0152323 0.00116,0.0288031 l 0.113669,-3.94e-6 c -7.323e-4,-0.0257598 -0.00195,-0.0472835 -0.00322,-0.0585 -0.00655,-0.0576378 0.01615,-0.112827 -0.194567,-0.112827 -0.210717,-3.93e-6 -0.188012,0.055189 -0.194567,0.112827 -0.00213,0.0187598 -0.00411,0.0663819 -0.0039,0.114398 2.048e-4,0.0480157 0.00177,0.0956378 0.0039,0.114402 0.00656,0.0576339 -0.01615,0.112827 0.194567,0.112827 0.21072,-3.93e-6 0.188012,-0.0551929 0.194567,-0.112827 0.00124,-0.0109646 0.0023,-0.0317717 0.003,-0.056752 l -0.113421,-3.93e-6 z"
          style="fill:#000000" id="_57422616"/>
      <path
          d="m 3.17919,0.382008 -0.067291,-3.543e-5 v -0.0992008 l 0.067276,-4.0552e-4 c 0.083095,0 0.080516,-0.013622 0.083791,-0.0424409 0.00107,-0.009386 8.465e-4,-0.001673 7.441e-4,-0.0256811 -1.024e-4,-0.0240079 3.228e-4,-0.0157638 -7.441e-4,-0.0251417 -0.00328,-0.0288189 -7.008e-4,-0.0424488 -0.083791,-0.0424488 l -0.067311,1.7717e-4 1.142e-4,0.334209 h -0.111122 v -0.434461 l 0.178335,-3.94e-6 c 0.210724,0 0.187626,0.0553386 0.195378,0.112827 9.212e-4,0.006811 9.212e-4,0.038248 9.212e-4,0.0551969 0,0.0136181 0,0.0450551 -9.212e-4,0.0550236 -0.00532,0.0577598 0.015343,0.11239 -0.195378,0.112386 z"
          style="fill:#000000" id="_120904000"/>
      <path
          d="M 1.02238,2.11902 0.328183,2.1182129 c -0.100445,0 -0.181862,-0.081429 -0.181862,-0.181862 V 0.87968091 c 0,-0.100449 0.0814173,-0.181866 0.181862,-0.181866 l 0.434472,-4.9212e-4 c 0.0521772,0 0.0944843,-0.0422953 0.0944843,-0.0944803 l 0.001272,-0.422484 c 0,-0.0218661 0.0177283,-0.0395984 0.0395984,-0.0395984 h 0.2547007 c 0.02187,0 0.039614,0.0177323 0.039614,0.0396024 l 0.00261,1.89920001 c 0,0.021866 -0.017732,0.039614 -0.039594,0.039614 l -0.132961,-1.575e-4 -0.00323,0.094366 0.173736,-5.12e-5 c 0.052173,0 0.09448,-0.042291 0.09448,-0.09448 V 0.14000383 c 0,-0.0521693 -0.042307,-0.0944646 -0.094484,-0.0944646 l -0.33416099,-3.94e-6 c -0.0521732,0 -0.0944843,0.0422992 -0.0944843,0.0944724 l 4.7638e-4,0.423543 c 0,0.0218661 -0.0177323,0.0396142 -0.0396142,0.0396142 l -0.396913,-7.2835e-4 c -0.153122,0 -0.277256,0.124118 -0.277256,0.277244 l 3.93e-6,1.05665996 c 0,0.153106 0.12413001,0.27724 0.27725201,0.27724 l 0.69096497,-2.007e-4 0.00323,-0.094366 z"
          style="fill:#000000" id="_59501176"/>
      <path
          d="M 0.764224,1.73009 V 1.046476 c 0,-0.0572835 -0.0464449,-0.103728 -0.103748,-0.103728 -0.0572835,0 -0.103728,0.0464449 -0.103728,0.103732 v 0.737921 c 0,0.057291 0.0464409,0.103748 0.103728,0.103748 0.0573031,0 0.103748,-0.046457 0.103748,-0.103744 V 1.73009 l 0.0942992,0.00323 v 0.051079 c 0,0.109366 -0.0886693,0.198035 -0.198047,0.198035 -0.109358,0 -0.198028,-0.088669 -0.198028,-0.198031 V 1.046476 c 0,-0.10936202 0.0886693,-0.19802802 0.198028,-0.19802802 0.109378,-3.94e-6 0.198047,0.0886693 0.198047,0.19803102 V 1.733322 L 0.764224,1.7300897 Z"
          style="fill:#000000" id="_58322920"/>
      <path
          d="m 1.68219,2.11902 -0.129921,7.9e-6 c -0.021886,0 -0.039614,-0.017748 -0.039614,-0.039614 l 0.00159,-1.34114003 c 0,-0.0218819 0.017728,-0.0396102 0.039606,-0.0396102 H 1.80856 c 0.021878,0 0.03961,0.0177283 0.03961,0.0396102 L 1.85078,2.0794039 c 0,0.021882 -0.017732,0.039614 -0.039602,0.039614 l -0.128996,7.8e-6 v 0.09398 l 0.166543,1.733e-4 c 0.052189,0 0.09448,-0.042291 0.09448,-0.094469 V 0.69792078 c 0,-0.0521693 -0.042295,-0.0944803 -0.09448,-0.0944803 H 1.514548 c -0.052173,0 -0.094468,0.042311 -0.094468,0.0944803 L 1.4198912,2.1183508 c 0,0.052185 0.041972,0.09448 0.094146,0.09448 l 0.168154,1.771e-4 v -0.09398 z"
          style="fill:#000000" id="_59749864"/>
      <path
          d="M 2.88214,0.962547 2.602329,0.96216511 c -0.086098,0 -0.155921,0.0698189 -0.155921,0.15592099 0,0.08611 0.069819,0.155917 0.155917,0.155917 l 0.38337,0.00104 c 0.100433,0 0.181862,0.081437 0.181862,0.18187 l -0.00128,0.477268 c 0,0.100449 -0.081433,0.181866 -0.181866,0.181866 l -0.761028,0.00138 c -0.021866,0 -0.03961,-0.017744 -0.03961,-0.03961 v -0.184843 c 0,-0.021882 0.017744,-0.03961 0.03961,-0.03961 l 0.518665,-0.00169 c 0.08611,0 0.155929,-0.069803 0.155929,-0.155917 4e-6,-0.086114 -0.069819,-0.155917 -0.155933,-0.155917 l -0.3755,-0.00148 c -0.100433,0 -0.181866,-0.081429 -0.181866,-0.181862 V 0.87968875 c 0,-0.100449 0.081433,-0.181866 0.181866,-0.181866 l 0.705449,-0.003299 c 0.021866,0 0.039595,0.017748 0.039595,0.0396142 l 1.58e-5,0.189059 c 0,0.0218661 -0.017732,0.0396142 -0.039614,0.0396142 l -0.189846,-2.6378e-4 -0.00323,0.0929528 0.232024,7.08e-5 c 0.052169,0 0.09448,-0.041972 0.09448,-0.0941417 l 3.504e-4,-0.264839 c 0,-0.052189 -0.042295,-0.0944803 -0.094484,-0.0944803 l -0.744736,3.3464e-4 c -0.15311,0 -0.27724,0.124118 -0.27724,0.277244 V 1.3564955 c 0,0.153106 0.12413,0.27724 0.27724,0.27724 l 0.375504,-6.418e-4 c 0.034622,0 0.062677,0.028055 0.062677,0.062665 0,0.034622 -0.028055,0.062681 -0.062681,0.062681 l -0.559012,-1.141e-4 c -0.052177,0 -0.094469,0.042295 -0.094469,0.094484 v 0.264303 c 0,0.052185 0.042291,0.09448 0.094465,0.09448 l 0.801386,-1.693e-4 c 0.15311,0 0.277236,-0.124114 0.277236,-0.277236 l 0.00129,-0.477276 c 0,-0.153106 -0.12413,-0.27724 -0.27724,-0.27724 l -0.383366,0.00109 c -0.03461,0 -0.062669,-0.028059 -0.062669,-0.062681 0,-0.034614 0.028055,-0.062669 0.062665,-0.062669 l 0.276583,8.26e-5 0.00323,-0.0929528 z"
          style="fill:#000000" id="_40602280"/>
      <path
          d="m 4.29232,1.22475 h 0.120181 c 0.021878,0 0.039606,-0.017728 0.039606,-0.03961 l -5e-4,-0.305449 c 0,-0.100449 -0.081417,-0.181866 -0.181866,-0.181866 H 3.668509 c -0.100445,0 -0.181882,0.0814173 -0.181882,0.181866 v 1.05666 c 0,0.100437 0.081433,0.181866 0.181878,0.181866 h 0.601236 c 0.100449,0 0.181866,-0.081429 0.181866,-0.181862 l 5e-4,-0.290437 c 0,-0.021878 -0.017728,-0.039606 -0.03961,-0.039606 H 4.185682 c -0.021866,0 -0.039598,0.017728 -0.039598,0.03961 l 0.00128,0.138476 c 0,0.109366 -0.068874,0.198035 -0.178236,0.198035 C 3.859754,1.982433 3.7909,1.893764 3.7909,1.784402 V 1.046473 c 0,-0.109362 0.068854,-0.198028 0.178228,-0.198028 0.109366,-3.94e-6 0.178236,0.0886693 0.178236,0.198031 l -0.00127,0.138661 c 0,0.021882 0.017728,0.03961 0.039594,0.03961 h 0.106638 l -0.00323,0.09522 H 4.146403 c -0.052173,0 -0.094484,-0.042303 -0.094484,-0.094476 l 0.00115,-0.17902 c 0,-0.0572835 -0.02665,-0.103728 -0.083937,-0.103728 -0.057299,0 -0.083945,0.0464449 -0.083945,0.103732 v 0.737921 c 0,0.057291 0.026646,0.103748 0.083945,0.103748 0.057291,0 0.083933,-0.046457 0.083933,-0.103744 L 4.051925,1.605565 c 0,-0.052173 0.042303,-0.09448 0.09448,-0.09448 l 0.306272,-3.9e-6 c 0.052189,0 0.094484,0.042311 0.094484,0.094488 l -1.653e-4,0.33078 c 0,0.153106 -0.124122,0.27724 -0.277244,0.27724 h -0.601232 c -0.153122,0 -0.277256,-0.12413 -0.277256,-0.277236 V 0.87968296 c 0,-0.153126 0.12413,-0.277244 0.277252,-0.277244 h 0.601236 c 0.153126,0 0.27724,0.124118 0.27724,0.277244 L 4.5471511,1.225482 c 0,0.052177 -0.042295,0.094484 -0.094484,0.094484 l -0.163579,-4e-6 0.00323,-0.09522 z"
          style="fill:#000000" id="_120136872"/>
  </g>
 </g>
</svg>