<?xml version="1.0" encoding="UTF-8" standalone="no"?>
<svg xmlns:dc="http://purl.org/dc/elements/1.1/" xmlns:cc="http://creativecommons.org/ns#"
     xmlns:rdf="http://www.w3.org/1999/02/22-rdf-syntax-ns#" xmlns="http://www.w3.org/2000/svg" version="1.1" id="svg2"
     xml:space="preserve" width="636.73657" height="390.32925" viewBox="0 0 636.73656 390.32925"><metadata
     id="metadata8"><rdf:RDF><cc:Work
         rdf:about=""><dc:format>image/svg+xml</dc:format><dc:type
    rdf:resource="http://purl.org/dc/dcmitype/StillImage"/><dc:title></dc:title></cc:Work></rdf:RDF></metadata>
    <defs id="defs6"/>
    <path d="m 112.86461,347.89593 h 13.632 v 41.18493 h 14.4 v -41.18493 h 13.63199 v -11.8068 h -41.66399 v 11.8068"
          style="fill:#000000;fill-opacity:1;fill-rule:nonzero;stroke:none;stroke-width:0.13333333" id="path32"/>
    <path
        d="m 182.9446,368.921 h -5.664 l 5.28,-21.888 h 0.864 l 5.184,21.888 z m 0,-32.83187 h -10.944 l -15.36,52.99173 h 15.36 l 2.592,-9.2156 h 8.352 8.352 l 2.208,9.2156 h 15.264 l -14.88,-52.99173 h -10.944"
        style="fill:#000000;fill-opacity:1;fill-rule:nonzero;stroke:none;stroke-width:0.13333333" id="path34"/>
    <path
        d="m 84.928611,368.921 h -5.75974 l 5.27974,-21.888 h 0.864 l 5.28,21.888 z m 0,-32.83187 h -11.04 l -15.264,52.99173 h 15.264 l 2.688,-9.2156 h 8.352 8.256 l 2.208,9.2156 H 110.65661 L 95.776611,336.08913 h -10.848"
        style="fill:#000000;fill-opacity:1;fill-rule:nonzero;stroke:none;stroke-width:0.13333333" id="path36"/>
    <path
        d="m 33.185009,366.71313 c 0,8.35053 -0.4808,10.55987 -7.8724,10.55987 h -1.343733 -9.216267 v -29.37707 h 9.216267 1.343733 c 7.3916,0 7.8724,2.20947 7.8724,10.08134 z m -5.664133,-30.624 H 0.35260967 v 52.99173 H 27.520876 c 15.263599,0 20.543733,-5.75986 20.543733,-21.02399 v -10.94374 c 0,-15.35986 -5.280134,-21.024 -20.543733,-21.024"
        style="fill:#000000;fill-opacity:1;fill-rule:nonzero;stroke:none;stroke-width:0.13333333" id="path38"/>
    <path
        d="m 442.2406,355.76887 c 0,4.41613 -1.344,5.66413 -6.144,5.66413 h -0.864 -7.008 v -13.53707 h 7.008 0.864 c 4.8,0 6.144,1.34534 6.144,5.6652 z m -7.008,-19.67974 h -21.504 v 52.99173 h 14.496 V 373.721 h 7.008 0.864 c 4.416,0 6.144,1.34266 6.144,5.664 v 9.69586 h 14.496 v -10.94373 c 0,-6.624 -3.072,-10.08026 -10.08,-11.424 6.528,-0.864 10.08,-4.8 10.08,-11.80773 v -4.41627 c 0,-11.80826 -6.624,-14.4 -21.504,-14.4"
        style="fill:#000000;fill-opacity:1;fill-rule:nonzero;stroke:none;stroke-width:0.13333333" id="path40"/>
    <path
        d="m 495.6166,368.921 h -5.664 l 5.28,-21.888 h 0.864 l 5.28,21.888 z m 0,-32.83187 h -10.848 l -15.36,52.99173 h 15.36 l 2.592,-9.2156 h 8.256 8.352 l 2.208,9.2156 h 15.36 l -14.88,-52.99173 h -11.04"
        style="fill:#000000;fill-opacity:1;fill-rule:nonzero;stroke:none;stroke-width:0.13333333" id="path42"/>
    <path
        d="m 560.51259,335.22513 h -7.872 c -14.49599,0 -20.15999,7.39214 -20.15999,24.09587 v 7.8724 c 0,14.8796 6.144,23.13586 17.95199,23.13586 h 9.6 c 14.016,0 19.77734,-7.00826 19.77734,-21.40826 v -8.736 h -21.98534 v 9.59893 h 8.352 v 2.20893 c 0,3.9364 -2.208,5.28014 -7.872,5.28014 h -3.936 c -7.00799,0 -7.87199,-2.20934 -7.87199,-10.55987 v -8.73586 c 0,-7.87187 0.864,-10.08134 7.87199,-10.08134 h 3.456 c 5.28,0 7.968,1.34534 7.968,4.4172 h 14.01734 v -2.20773 c 0,-8.35213 -7.48934,-14.88027 -19.29734,-14.88027"
        style="fill:#000000;fill-opacity:1;fill-rule:nonzero;stroke:none;stroke-width:0.13333333" id="path44"/>
    <path
        d="m 610.43259,377.273 v -10.0796 h 24.96 v -10.08027 h -24.96 v -9.2172 h 25.824 v -11.8068 h -40.32 v 52.99173 h 40.8 V 377.273 h -26.304"
        style="fill:#000000;fill-opacity:1;fill-rule:nonzero;stroke:none;stroke-width:0.13333333" id="path46"/>
    <path
        d="m 383.1046,366.71313 c 0,8.35053 -0.384,10.55987 -7.872,10.55987 h -1.344 -1.248 c -7.488,0 -7.968,-2.20934 -7.968,-10.55987 v -8.73586 c 0,-7.87187 0.48,-10.08134 7.968,-10.08134 h 1.248 1.344 c 7.488,0 7.872,2.20947 7.872,10.08134 z m -5.664,-31.488 h -7.008 c -15.36,0 -20.16,5.664 -20.16,21.888 v 10.94374 c 0,15.74426 4.8,22.27239 20.16,22.27239 h 3.456 3.552 c 15.264,0 20.544,-6.52813 20.544,-22.27239 v -10.94374 c 0,-16.224 -5.28,-21.888 -20.544,-21.888"
        style="fill:#000000;fill-opacity:1;fill-rule:nonzero;stroke:none;stroke-width:0.13333333" id="path48"/>
    <path d="m 295.5526,347.89593 h 13.536 v 41.18493 h 14.496 v -41.18493 h 13.536 v -11.8068 h -41.568 v 11.8068"
          style="fill:#000000;fill-opacity:1;fill-rule:nonzero;stroke:none;stroke-width:0.13333333" id="path50"/>
    <path
        d="m 269.6326,357.11313 -10.464,-1.34426 c -3.936,-0.47974 -5.664,-0.47974 -5.664,-3.45574 v -2.20773 c 0,-2.68813 1.728,-3.55213 5.664,-3.55213 h 3.456 c 3.552,0 4.896,0.864 4.896,4.4156 v 0.3844 h 14.016 v -3.45734 c 0,-8.35106 -5.76,-12.6708 -16.704,-12.6708 h -8.256 c -5.76,0 -10.08,0.38387 -13.152,3.07187 -2.688,2.112 -4.416,6.04693 -4.416,11.32813 v 3.07187 c 0,8.736 3.936,13.15213 12.288,14.01613 l 11.808,1.34374 c 3.552,0.3844 5.664,0.86413 5.664,3.93599 v 2.20827 c 0,3.07187 -1.728,3.936 -6.144,3.936 h -3.456 c -5.28,0 -7.008,-1.34427 -7.008,-4.8 v -0.95987 h -13.536 v 3.93587 c 0,9.21613 5.664,14.01613 17.952,14.01613 h 11.328 c 9.696,0 15.36,-6.52813 15.36,-15.2656 v -4.7984 c 0,-7.96826 -4.416,-12.28799 -13.632,-13.15213"
        style="fill:#000000;fill-opacity:1;fill-rule:nonzero;stroke:none;stroke-width:0.13333333" id="path52"/>
    <g id="g30" transform="matrix(141.49682,0,0,152.17273,-3.7227813,-5.5025659)"><path
       d="m 4.0664,0.32104 c -3e-4,0.01278 -8e-4,0.02329 -0.0012,0.02705 -0.0033,0.02882 0,0.04245 -0.0831,0.04245 C 3.899,0.39054 3.9023,0.37691 3.899,0.34809 3.898,0.33871 3.897,0.2874 3.8971,0.26339 c 1e-4,-0.02401 9e-4,-0.07532 0.0019,-0.0847 0.0033,-0.02882 0,-0.04244 0.0831,-0.04244 0.0831,0 0.0798,0.01362 0.0831,0.04244 5e-4,0.00393 9e-4,0.01524 0.0012,0.02881 L 4.18,0.20749 C 4.1793,0.18173 4.1781,0.16021 4.1768,0.14899 4.1703,0.091354 4.193,0.03617 3.9822,0.03617 3.7715,0.036161 3.7942,0.091358 3.7877,0.14899 3.7856,0.16775 3.7836,0.21538 3.7838,0.26339 3.784,0.31141 3.7855,0.35903 3.7877,0.37779 3.7942,0.43543 3.7715,0.49062 3.9822,0.49062 4.193,0.49061 4.1703,0.43543 4.1768,0.37779 4.1781,0.36683 4.1791,0.34602 4.1798,0.32104 Z"
       id="path6" />
        <polygon
            points="2.6636,0.48172 2.7736,0.15772 2.7736,0.48172 2.8845,0.48172 2.8845,0.046823 2.7186,0.047689 2.6077,0.37168 2.4968,0.047689 2.3309,0.046823 2.3309,0.48172 2.4418,0.48172 2.4418,0.15772 2.5527,0.48172 "
            id="polygon8"/>
        <polygon
            points="4.5237,0.15772 4.4198,0.15772 4.4198,0.48172 4.3088,0.48172 4.3088,0.15772 4.2049,0.15772 4.2049,0.046823 4.5237,0.046823 "
            id="polygon10"/>
        <polygon
            points="3.4772,0.046394 3.6425,0.046394 3.77,0.48172 3.6591,0.48172 3.6329,0.39176 3.4874,0.39176 3.508,0.32104 3.612,0.32104 3.5604,0.14375 3.4609,0.48172 3.35,0.48172 "
            id="polygon12"/>
        <path
            d="m 2.0638,0.13625 c 0.0831,0 0.0798,0.01362 0.0831,0.04244 0.0011,0.00938 0.0018,0.0607 0.0019,0.0847 10e-5,0.02401 -8e-4,0.07532 -0.0019,0.0847 -0.0033,0.02882 0,0.04245 -0.0831,0.04245 C 1.9807,0.39054 1.984,0.37691 1.9807,0.34809 1.9796,0.33871 1.9787,0.2874 1.9788,0.26339 c 1e-4,-0.02401 8e-4,-0.07532 0.0019,-0.0847 0.0033,-0.02882 0,-0.04244 0.0831,-0.04244 l 10e-5,-0.10009 c -0.2107,1e-6 -0.188,0.055198 -0.1945,0.11283 -0.0022,0.01876 -0.0041,0.06639 -0.0039,0.1144 2e-4,0.04802 0.0017,0.09564 0.0039,0.1144 0.0065,0.05764 -0.0162,0.11283 0.1945,0.11283 0.2107,0 0.188,-0.05519 0.1946,-0.11283 C 2.2606,0.35903 2.2622,0.31141 2.2624,0.26339 2.2626,0.21538 2.2606,0.16776 2.2585,0.14899 2.2519,0.091354 2.2747,0.03617 2.0639,0.03617 Z"
            id="path14-3"/>
        <path
            d="m 1.6893,0.32104 c -3e-4,0.01278 -7e-4,0.02329 -0.0011,0.02705 -0.0033,0.02882 0,0.04245 -0.0831,0.04245 C 1.522,0.39054 1.5253,0.37691 1.522,0.34809 1.5209,0.33871 1.5199,0.2874 1.52,0.26339 c 10e-5,-0.02401 9e-4,-0.07532 0.002,-0.0847 0.0033,-0.02882 0,-0.04244 0.0831,-0.04244 0.0831,0 0.0798,0.01362 0.0831,0.04244 4e-4,0.00393 8e-4,0.01524 0.0011,0.02881 L 1.803,0.20749 C 1.8023,0.18173 1.801,0.16021 1.7998,0.14899 1.7932,0.091354 1.8159,0.03617 1.6052,0.03617 1.3945,0.036161 1.4172,0.091358 1.4106,0.14899 1.4085,0.16775 1.4065,0.21538 1.4067,0.26339 1.4069,0.31141 1.4085,0.35903 1.4106,0.37779 1.4172,0.43543 1.3945,0.49062 1.6052,0.49062 1.8159,0.49061 1.7932,0.43543 1.7998,0.37779 1.801,0.36683 1.8021,0.34602 1.8028,0.32104 Z"
            id="path16-6"/>
        <path
            d="m 3.1546,0.38225 -0.0673,-3e-5 v -0.0992 l 0.0673,-4.1e-4 c 0.083,0 0.0805,-0.01362 0.0837,-0.04244 C 3.2394,0.23079 3.2392,0.2385 3.2391,0.21449 3.239,0.19048 3.2394,0.19872 3.2383,0.18935 3.2351,0.16053 3.2376,0.1469 3.1546,0.1469 l -0.0674,1.8e-4 2e-4,0.3342 H 2.9762 V 0.04682 l 0.1784,-1e-6 c 0.2107,0 0.1876,0.055341 0.1953,0.11283 0.001,0.00681 0.001,0.03825 0.001,0.05519 0,0.01362 0,0.04506 -0.001,0.05503 -0.0053,0.05776 0.0154,0.11239 -0.1953,0.112381 z"
            id="path18-7"/>
        <path
            d="M 0.99776,2.1193 0.30357,2.1185 C 0.20312,2.1185 0.1217,2.037 0.1217,1.9366 V 0.8799 c 0,-0.10042 0.08142,-0.18184 0.18187,-0.18184 l 0.43447,-4.9e-4 c 0.05217,0 0.09448,-0.04229 0.09448,-0.09448 L 0.83379,0.1806 c 0,-0.02186 0.01773,-0.03959 0.0396,-0.03959 H 1.1281 c 0.0219,0 0.0396,0.01773 0.0396,0.0396 l 0.0026,1.8992 c 0,0.0219 -0.0177,0.0396 -0.0396,0.0396 L 0.99776,2.11931 0.99453,2.21361 H 1.1683 c 0.0521,0 0.0944,-0.0423 0.0944,-0.0945 V 0.14031 C 1.2627,0.08809 1.2204,0.045795 1.1683,0.045795 H 0.8341 c -0.05217,0 -0.09448,0.042299 -0.09448,0.094465 l 4.7e-4,0.42355 c 0,0.02186 -0.01773,0.03961 -0.03961,0.03961 L 0.30357,0.60269 c -0.15312,0 -0.27726,0.12412 -0.27726,0.27725 l 5e-6,1.0567 c 0,0.1531 0.12414,0.2772 0.27726,0.2772 l 0.69095,-2e-4 0.00323,-0.0943 z"
            id="path20-5"/>
        <path
            d="M 0.73961,1.7303 V 1.0467 c 0,-0.05727 -0.04645,-0.10371 -0.10375,-0.10371 -0.05729,0 -0.10373,0.04644 -0.10373,0.10371 v 0.7379 c 0,0.0573 0.04644,0.1038 0.10373,0.1038 0.0573,0 0.10375,-0.0465 0.10375,-0.1038 V 1.7303 l 0.0943,0.0033 v 0.051 c 0,0.1094 -0.08867,0.1981 -0.19805,0.1981 C 0.5265,1.9827 0.43783,1.894 0.43783,1.7846 V 1.0467 c 0,-0.10934 0.08867,-0.19801 0.19803,-0.19801 0.10938,0 0.19805,0.08867 0.19805,0.19801 v 0.6869 z"
            id="path22-3"/>
        <path
            d="m 1.6576,2.1193 h -0.13 C 1.5058,2.1193 1.488,2.1015 1.488,2.0797 L 1.4896,0.7385 c 0,-0.02187 0.0178,-0.0396 0.0396,-0.0396 h 0.2547 c 0.0219,0 0.0397,0.01773 0.0397,0.03961 l 0.0026,1.3411 c 0,0.0219 -0.0178,0.0396 -0.0396,0.0396 l -0.129,1e-4 v 0.0939 l 0.1665,2e-4 c 0.0522,0 0.0945,-0.0423 0.0945,-0.0945 v -1.4208 c 0,-0.05212 -0.0423,-0.09442 -0.0945,-0.09442 l -0.3342,-10e-6 c -0.0521,0 -0.0944,0.04231 -0.0944,0.09449 l -2e-4,1.4204 c 0,0.0522 0.0419,0.0945 0.0941,0.0945 l 0.1682,10e-5 v -0.0939 z"
            id="path24-5"/>
        <path
            d="M 2.8575,0.96279 2.5777,0.96241 c -0.0861,0 -0.1559,0.06979 -0.1559,0.15589 0,0.0861 0.0698,0.1559 0.1559,0.1559 l 0.3834,0.0011 c 0.1004,0 0.1818,0.0814 0.1818,0.1819 L 3.1417,1.9344 c 0,0.1005 -0.0815,0.1819 -0.1819,0.1819 L 2.1988,2.1177 C 2.1769,2.1177 2.1591,2.0999 2.1591,2.0781 V 1.8932 c 0,-0.0219 0.0178,-0.0396 0.0397,-0.0396 L 2.7174,1.8519 c 0.0861,0 0.156,-0.0698 0.156,-0.1559 0,-0.0861 -0.0699,-0.1559 -0.156,-0.1559 L 2.3419,1.5386 C 2.2415,1.5386 2.1601,1.4572 2.1601,1.3567 V 0.87993 c 0,-0.10045 0.0814,-0.18186 0.1818,-0.18186 l 0.7055,-0.0033 c 0.0218,0 0.0396,0.01775 0.0396,0.03961 v 0.18906 c 0,0.02187 -0.0178,0.03961 -0.0396,0.03961 L 2.8575,0.96279 2.8543,1.0557 l 0.232,10e-5 c 0.0522,0 0.0945,-0.042 0.0945,-0.09413 l 3e-4,-0.26484 c 0,-0.05218 -0.0423,-0.09447 -0.0944,-0.09447 l -0.7448,3.3e-4 c -0.1531,0 -0.2772,0.12412 -0.2772,0.27724 V 1.3567 c 0,0.1531 0.1241,0.2773 0.2772,0.2773 l 0.3755,-7e-4 c 0.0346,0 0.0627,0.0281 0.0627,0.0627 0,0.0346 -0.0281,0.0627 -0.0627,0.0627 l -0.559,-10e-5 c -0.0522,0 -0.0945,0.0423 -0.0945,0.0945 v 0.2643 c 0,0.0521 0.0423,0.0944 0.0945,0.0944 l 0.8014,-1e-4 c 0.1531,0 0.2772,-0.1241 0.2772,-0.2773 L 3.2383,1.4572 C 3.2383,1.3041 3.1142,1.1799 2.9611,1.1799 L 2.5777,1.181 C 2.5431,1.181 2.515,1.153 2.515,1.1183 2.515,1.0837 2.5431,1.0557 2.5777,1.0557 h 0.2766 z"
            id="path26-6"/>
        <path
            d="m 4.2677,1.225 h 0.1202 c 0.0219,0 0.0396,-0.0177 0.0396,-0.0396 L 4.427,0.87994 C 4.427,0.77949 4.3456,0.69807 4.2451,0.69807 H 3.6439 c -0.1005,0 -0.1819,0.08142 -0.1819,0.18187 v 1.0567 c 0,0.1004 0.0814,0.1819 0.1819,0.1819 h 0.6012 c 0.1005,0 0.1819,-0.0815 0.1819,-0.1819 l 5e-4,-0.2904 c 0,-0.0219 -0.0177,-0.0396 -0.0396,-0.0396 H 4.1611 c -0.0219,0 -0.0396,0.0177 -0.0396,0.0396 l 0.0012,0.1384 c 0,0.1094 -0.0688,0.1981 -0.1782,0.1981 -0.1094,0 -0.1782,-0.0887 -0.1782,-0.1981 v -0.7379 c 0,-0.10934 0.0688,-0.19801 0.1782,-0.19801 0.1094,0 0.1782,0.08867 0.1782,0.19801 l -0.0012,0.1387 c 0,0.0219 0.0177,0.0396 0.0396,0.0396 H 4.2677 L 4.2645,1.32024 H 4.1218 c -0.0522,0 -0.0945,-0.0423 -0.0945,-0.0945 l 0.0011,-0.179 c 0,-0.05727 -0.0266,-0.10371 -0.0839,-0.10371 -0.0573,0 -0.0839,0.04645 -0.0839,0.10371 v 0.7379 c 0,0.0573 0.0266,0.1038 0.0839,0.1038 0.0573,0 0.0839,-0.0465 0.0839,-0.1038 L 4.0273,1.60584 c 0,-0.0522 0.0423,-0.0945 0.0945,-0.0945 H 4.428 c 0.0522,0 0.0945,0.0423 0.0945,0.0945 l -10e-5,0.3308 c 0,0.1531 -0.1242,0.2772 -0.2773,0.2772 H 3.6439 c -0.1531,0 -0.2773,-0.1241 -0.2773,-0.2772 v -1.0567 c 0,-0.1531 0.1242,-0.27721 0.2773,-0.27721 h 0.6012 c 0.1531,0 0.2773,0.12411 0.2773,0.27724 l 10e-5,0.34577 c 0,0.0522 -0.0423,0.0945 -0.0945,0.0945 H 4.2645 l 0.0032,-0.0952 z"
            id="path28-2"/></g></svg>