<?xml version="1.0" encoding="UTF-8" standalone="no"?>
<svg xmlns:dc="http://purl.org/dc/elements/1.1/" xmlns:cc="http://creativecommons.org/ns#"
     xmlns:rdf="http://www.w3.org/1999/02/22-rdf-syntax-ns#" xmlns="http://www.w3.org/2000/svg" id="svg12" version="1.1"
     viewBox="0 0 187.0882 117.96291" height="1529.9512" width="2426.49">
  <metadata id="metadata18">
    <rdf:RDF>
      <cc:Work rdf:about="">
        <dc:format>image/svg+xml</dc:format>
        <dc:type rdf:resource="http://purl.org/dc/dcmitype/StillImage"/>
        <dc:title></dc:title>
      </cc:Work>
    </rdf:RDF>
  </metadata>
  <defs id="defs16"/>
  <path id="path4"
        d="M 89.059017,0 C 62.100014,0 39.376072,18.136 32.420072,42.872999 h 41.626863 c 3.974003,-3.508999 9.286019,-5.656032 15.125022,-5.656032 5.839998,0 11.151023,2.147033 15.125023,5.656032 h 41.40203 C 138.74201,18.136 116.01901,0 89.059017,0 Z m -7.201094,5.9936576 c 0.86953,-0.00247 1.664965,0.1253701 2.024085,0.5023699 0.553001,0.5809998 0.469029,0.8959107 0.504026,1.45591 0.006,0.049 2.064,24.9950325 2.064,24.9950325 -0.356999,-0.252 -2.75099,-0.168 -3.106988,0 L 77.665927,7.336022 c -0.035,-0.4690001 0.427063,-0.6160043 1.036064,-0.8680042 0.455999,-0.1888122 1.885076,-0.470741 3.155932,-0.4743602 z M 68.94116,10.156284 c 0.286573,0.0042 0.480796,0.08652 0.563811,0.259768 l 9.287075,22.486945 c 0.414996,1.22 0.162964,1.975974 0.01596,2.185974 -0.923996,-0.168 -6.69798,4.241976 -7.159981,4.850976 -0.378,0.398997 -1.049953,1.301003 -2.435954,0 l -17.920133,-16.9809 c -0.497,-0.427 -0.30798,-1.582107 0.05602,-2.016108 C 52.405529,18.896353 65.893072,10.11145 68.94116,10.156284 Z M 32.348993,74.923958 c 6.9,24.819995 29.664022,43.038952 56.68502,43.038952 27.020007,0 49.783967,-18.218957 56.683977,-43.038952 h -42.041 c -3.901996,3.206997 -8.978934,5.150047 -14.530932,5.150047 -5.554002,0 -10.628041,-1.94305 -14.530039,-5.150047 z m 99.038027,8.706095 c 1.02901,0 1.70093,0.74292 1.70093,1.853919 v 4.516065 c 0,1.280995 -1.99593,1.343995 -1.99593,0 v -3.738109 c 0,-1.260008 -3.5681,-1.365006 -3.5681,0 v 3.654075 c 0,1.153999 -2.01595,1.113004 -2.01595,0 v -3.548969 c 0,-1.449001 -3.9899,-1.489997 -3.9899,0 v 3.464943 c 0,1.344003 -2.078,1.364998 -2.078,0 V 85.72703 c 0,-1.123004 0.58798,-2.096075 2.09998,-2.096075 z m -55.603024,0.112939 h 11.27608 c 0.713999,0 0.73393,1.42705 0.02093,1.428052 h -9.806014 c -0.735002,0 -0.692002,1.321882 0,1.321882 h 8.483068 c 1.260008,0 2.057979,1.198079 2.057979,2.352079 0,1.156998 -0.840015,2.354036 -1.953012,2.354036 H 75.153923 c -0.713999,0 -0.734994,-1.471121 0,-1.471121 h 9.659034 c 1.008006,0 0.924003,-1.552889 0,-1.552889 h -8.902913 c -1.113004,0 -1.701073,-1.241087 -1.701073,-2.227087 0,-1.113004 0.420024,-2.204952 1.575025,-2.204952 z m -30.280008,0.04292 h 11.276076 c 0.714,0 0.734932,1.42705 0.02093,1.428052 h -9.806009 c -0.735,0 -0.692,1.322029 0,1.322029 h 8.483071 c 1.26,0 2.057972,1.19693 2.057972,2.351924 0,1.155001 -0.84101,2.352078 -1.95301,2.352078 h -10.70895 c -0.714,0 -0.734001,-1.469009 0,-1.469009 h 9.658883 c 1.007999,0 0.923999,-1.555001 0,-1.555001 h -8.902918 c -1.113,0 -1.701072,-1.238936 -1.701072,-2.226933 0,-1.111 0.420027,-2.20314 1.575027,-2.20314 z m 44.515941,0.01912 h 12.326001 c 0.672,0 0.715,1.196899 0,1.196899 h -2.01596 -1.995927 c -0.986001,0 -1.142981,0.631114 -1.142981,1.22912 v 4.378869 c 0,1.238002 -2.00602,1.196999 -2.00602,0 v -4.388962 c 0,-0.692996 -0.48199,-1.197045 -1.259992,-1.197045 h -3.927103 c -0.607004,0 -0.628014,-1.218881 0.02198,-1.218881 z m 15.244141,0 h 12.09589 c 0.84,0 0.86198,1.386887 -0.042,1.385884 h -9.97498 c -0.84,0 -0.79899,1.428052 0,1.428052 h 8.46305 c 1.008,0 1.049,1.533012 0,1.533012 h -8.46305 c -0.734,0 -0.75599,1.300957 0,1.300957 h 9.764 c 0.777,0 0.883,1.5181 0,1.5181 h -11.06992 c -1.07599,0 -1.83208,-0.781086 -1.83208,-1.832085 V 84.86595 c 0,-0.514003 0.3871,-1.060913 1.0591,-1.060913 z m -45.015754,0.02981 c 0.502251,-0.0094 1.004645,0.230683 1.005645,0.721185 v 0.923872 c 0,1.034999 0.04202,1.260138 1.12702,1.260138 h 6.858951 c 1.204,0 1.5681,-0.05705 1.5681,-1.428052 V 84.69503 c 0,-0.959 2.037039,-0.973002 2.037039,0 v 4.607014 c 0,0.978006 -0.672071,1.831938 -1.701071,1.831938 H 60.365024 c -0.91,0 -0.938,-1.455007 0,-1.455007 h 9.126996 c 1.126001,0 1.106,-1.462987 0,-1.462987 h -8.945986 c -0.77,0 -1.302007,-0.672025 -1.302007,-1.422031 v -2.18401 c 0,-0.507002 0.50204,-0.765719 1.004289,-0.775095 z"
        style="clip-rule:evenodd;fill-rule:evenodd;stroke-width:1"/>
  <path
      d="M 28.558,49.276981 H 7.448 c -2.24,0 -7.448,3.416 -7.448,9.967 0,5.879 5.544,10.246 7.504,10.246 H 28.67 c 1.512,0 1.344,-4.982 0,-4.982 H 10.191 c -1.68,0 -4.647,-2.408 -4.647,-5.264 0,-3.024 2.352,-5.096 3.976,-5.096 h 19.095 c 1.624,0 1.567,-4.871 -0.057,-4.871 z m 24.806,-0.224 H 34.997 c -1.344,0 -1.876,0.672 -1.876,1.875 v 16.603 c 0,1.4 0.336,1.723 1.722,1.723 h 18.969 c 2.464,0 8.623,-1.666 8.623,-10.122 0,-8.455 -6.439,-10.079 -9.071,-10.079 z m -0.392,15.147 H 40.681 c -1.344,0 -1.876,-0.252 -1.876,-1.428 v -6.58 c 0,-1.092 0.56,-1.932 1.932,-1.932 h 11.815 c 2.015,0 4.144,1.624 4.144,4.591 0,2.97 -2.1,5.349 -3.724,5.349 z m 15.294,-2.317 c 1.682,0 3.045,-1.176 3.045,-2.625 0,-1.45 -1.363,-2.625 -3.045,-2.625 -1.682,0 -3.045,1.175 -3.045,2.625 0,1.45 1.363,2.625 3.045,2.625 z m 35.663,-7.58 c 0,-2.884 -4.27,-5.642 -6.719,-5.642 H 75.147 c -0.792,0 -1.204,0.399 -1.204,1.204 v 18.506 c 0,2.015 6.02,1.891 6.02,0 v -4.48 c 0,-1.062 0.574,-1.65 1.652,-1.65 h 14.252 c 1.441,0 2.07,1.455 2.07,2.492 v 3.582 c 0,2.072 5.992,1.918 5.992,0 v -4.479 c 0,-1.68 -1.4,-3.641 -1.4,-3.641 0,0 1.4,-1.924 1.4,-3.5 z m -7.364,2.729 H 80.83 c -1.12,0 -1.148,-2.884 0,-2.884 h 15.735 c 1.036,0 1.092,2.884 0,2.884 z m 34.243,-7.979 h -15.68 c -3.584,0 -9.127,2.912 -9.127,9.855 0,8.623 6.887,10.416 8.959,10.416 h 16.35 c 2.186,0 8.457,-2.576 8.457,-10.416 0,-6.663 -5.825,-9.855 -8.959,-9.855 z m -0.801,14.951 h -13.656 c -1.32,0 -4.205,-1.723 -4.205,-5.129 0,-3.187 3.01,-4.559 4.312,-4.559 h 13.229 c 1.303,0 3.85,1.75 3.85,4.559 -0.001,4.038 -2.38,5.129 -3.53,5.129 z m 18.215,-15.063 c -4.066,0 -5.852,3.507 -5.852,5.852 v 13.69 c 0,2.129 5.74,1.961 5.74,0 v -12.081 c 0,-1.47 0.811,-2.142 1.902,-2.142 h 3.697 c 0.783,0 1.344,0.392 1.344,1.736 v 12.375 c 0,2.016 5.768,2.129 5.768,0 v -11.871 c 0,-0.784 0.168,-2.24 1.959,-2.24 h 3.248 c 1.287,0 1.932,0.952 1.932,1.932 v 12.068 c 0,2.295 5.627,2.295 5.627,0 v -14.616 c 0,-1.792 -2.225,-4.718 -6.816,-4.718 -4.591,0 -15.008,0.015 -18.549,0.015 z m 29.117,-5.824 c -0.93,0 -0.824,2.38 0,2.38 h 5.6 c 1.541,0 1.568,2.996 0,2.996 -1.566,0 -4.143,0.196 -4.982,0.196 -0.839,0 -1.82,1.204 -1.82,1.932 v 3.01 c 0,0.546 0.531,0.798 0.861,0.798 h 9.723 c 0.504,0 0.475,-1.848 0,-1.848 h -7.084 c -0.785,0 -0.869,-1.596 0.111,-1.596 h 2.744 c 2.771,0 4.508,-2.268 4.508,-3.835 0,-2.772 -2.465,-4.06 -4.199,-4.06 -1.738,-0.001 -4.734,0.027 -5.462,0.027 z"
      id="path8" style="clip-rule:evenodd;fill-rule:evenodd"/>
</svg>
