<?xml version="1.0" encoding="UTF-8" standalone="no"?>
<svg xmlns:dc="http://purl.org/dc/elements/1.1/" xmlns:cc="http://creativecommons.org/ns#"
     xmlns:rdf="http://www.w3.org/1999/02/22-rdf-syntax-ns#" xmlns="http://www.w3.org/2000/svg" version="1.0"
     width="4.4760342in" height="3.2831709in" viewBox="0 0 4.476034 3.283171" id="svg3116" xml:space="preserve"><metadata
   id="metadata37"><rdf:RDF><cc:Work
       rdf:about=""><dc:format>image/svg+xml</dc:format><dc:type rdf:resource="http://purl.org/dc/dcmitype/StillImage"/><dc:title></dc:title></cc:Work></rdf:RDF></metadata>
    <defs id="defs3118">
  <style type="text/css" id="style3120"/>
 </defs>
    <g id="Layer_x0020_1" transform="translate(-0.0369858,-0.0334173)">

  <g id="_58591368">
   <path
       d="M 4.50867,2.49025 V 3.156817 C 4.50867,3.19949 4.492201,3.239612 4.4623,3.269793 4.432406,3.29997 4.392658,3.316588 4.350391,3.316588 H 0.195261 C 0.1529933,3.316588 0.1132492,3.29997 0.083352,3.269793 0.0534503,3.2396119 0.0369858,3.1994899 0.0369858,3.156817 V 2.49025 c 0,-0.088098 0.071,-0.159772 0.158276,-0.159772 h 4.15513 c 0.042272,0 0.082012,0.016618 0.111909,0.046795 0.029902,0.030181 0.046366,0.070299 0.04637,0.112976 z M 4.403654,2.43538 C 4.389174,2.420762 4.370752,2.413034 4.35039,2.413034 l -4.15513,3.9e-6 c -0.019874,0 -0.0386811,0.00786 -0.0529567,0.02213 -0.0146772,0.014681 -0.0227598,0.03424 -0.0227598,0.055083 v 0.666567 c 0,0.020768 0.007976,0.040256 0.0224528,0.05487 0.0144843,0.014618 0.0329016,0.022343 0.0532638,0.022343 h 4.15513 c 0.020362,0 0.03878,-0.00773 0.05326,-0.022343 0.014484,-0.014618 0.022461,-0.034106 0.022461,-0.05487 v -0.666567 c 0,-0.020768 -0.00798,-0.040256 -0.022457,-0.054871 z"
       style="fill:#000000" id="_122650584"/>
      <path
          d="m 4.05846,0.316587 c -3.346e-4,0.0127087 -7.48e-4,0.0231535 -0.00117,0.0268937 -0.00326,0.0286457 0,0.042189 -0.082594,0.042189 -0.082591,0 -0.079335,-0.0135433 -0.082591,-0.042189 -0.00106,-0.009323 -0.00204,-0.0603307 -0.00194,-0.0841929 1.024e-4,-0.0238622 8.819e-4,-0.0748701 0.00194,-0.0841929 0.00326,-0.0286457 0,-0.042189 0.082591,-0.042189 0.082598,0 0.079339,0.0135433 0.082594,0.042189 4.449e-4,0.003909 8.386e-4,0.0151417 0.00116,0.0286299 h 0.1129879 c -7.283e-4,-0.0256063 -0.00194,-0.0470039 -0.00321,-0.0581535 -0.00651,-0.0572913 0.016059,-0.112154 -0.193402,-0.112154 -0.209457,0 -0.18689,0.0548622 -0.193402,0.112154 -0.00212,0.0186496 -0.00408,0.0659882 -0.00388,0.113717 2.008e-4,0.0477283 0.00176,0.0950669 0.00388,0.113717 0.00651,0.0572913 -0.016055,0.11215 0.193402,0.11215 0.209461,0 0.18689,-0.0548583 0.193402,-0.11215 0.00124,-0.0108937 0.00229,-0.0315827 0.00298,-0.0564134 l -0.112744,-3.94e-6 z"
          style="fill:#000000" id="_120360168"/>
      <path style="fill:#000000;stroke-width:96"
            d="m 296.12109,57.238281 -71.06836,0.03125 c -14.61052,0 -26.45507,11.843015 -26.45507,26.455078 v 45.500001 c 0,14.61091 11.84455,26.45703 26.45507,26.45703 l 35.83399,-0.0625 c 3.30406,0 5.98047,2.67793 5.98047,5.98047 0,3.30406 -2.67641,5.98242 -5.98047,5.98242 l -53.3457,-0.0117 c -4.97878,0 -9.01563,4.0373 -9.01563,9.01758 v 25.2207 c 0,4.97991 4.03723,9.01563 9.01563,9.01563 l 76.47265,-0.0156 c 14.61091,0 26.45703,-11.84496 26.45703,-26.45703 l 0.12305,-45.54297 c 0,-14.61091 -11.84612,-26.45703 -26.45703,-26.45703 l -36.58399,0.10547 c -3.30292,0 -5.98046,-2.67836 -5.98046,-5.98242 3.8e-4,-3.30255 2.67792,-5.98047 5.98046,-5.98047 l 48.53516,0.0156 c 4.97877,0 9.01563,-4.005603 9.01563,-8.984379 l 0.0332,-25.271485 c 0,-4.979904 -4.03572,-9.015625 -9.01563,-9.015625 z m -3.75,8.81836 c 2.08668,0 3.7793,1.692621 3.7793,3.779297 v 18.041015 c 0,2.086685 -1.6911,3.78125 -3.7793,3.78125 l -44.81836,-0.0625 c -8.21591,0 -14.8789,6.662967 -14.8789,14.878907 0,8.21743 6.66259,14.87891 14.8789,14.87891 l 36.58399,0.0996 c 9.58417,0 17.35547,7.77135 17.35547,17.35547 l -0.12305,45.54297 c 0,9.58569 -7.77135,17.35547 -17.35547,17.35547 l -72.62305,0.13086 c -2.0863,0 -3.77929,-1.69262 -3.77929,-3.7793 v -17.63867 c 0,-2.08819 1.69262,-3.7793 3.77929,-3.7793 l 49.4961,-0.1621 c 8.21745,0 14.8789,-6.66146 14.8789,-14.87891 0,-8.21704 -6.66145,-14.87891 -14.8789,-14.87891 l -35.83399,-0.14062 c -9.58417,0 -17.35546,-7.77135 -17.35546,-17.35547 V 83.724609 c 0,-9.585302 7.77134,-17.353515 17.35546,-17.353515 z"
            transform="scale(0.01041667)" id="_59377256"/>
      <path style="fill:#000000;stroke-width:96"
            d="m 143.75,57.363281 c -4.9784,0 -9.01367,4.038807 -9.01367,9.017578 l -0.0176,135.544921 h -0.002 c 0,4.97991 4.0056,9.01563 8.98437,9.01563 l 31.93945,0.0332 c 4.97991,0 9.01563,-4.03685 9.01563,-9.01563 V 66.380859 c 0,-4.978771 -4.03572,-9.017578 -9.01563,-9.017578 z m 3.75195,9.087891 h 24.30469 c 2.08781,0 3.78125,1.693442 3.78125,3.78125 l 0.24805,127.978518 c 0,2.08781 -1.69067,3.77929 -3.77735,3.77929 h -24.70898 c -2.08753,0 -3.77822,-1.69158 -3.7793,-3.77734 l 0.15235,-127.980468 c 0,-2.087808 1.69149,-3.78125 3.77929,-3.78125 z"
            transform="scale(0.01041667)" id="_59788944"/>
      <path style="fill:#000000;stroke-width:96"
            d="m 81.167969,4.1269531 c -4.978771,0 -9.015625,4.0352752 -9.015625,9.0136719 l 0.04492,40.417969 c 0,2.086675 -1.693058,3.779297 -3.78125,3.779297 l -37.875,-0.06836 c -14.612064,0 -26.4570316,11.843015 -26.4570316,26.455078 V 184.55859 c 0,14.61092 11.8450636,26.45508 26.4570316,26.45508 l 82.513676,-0.0234 c 4.97877,0 9.01758,-4.03572 9.01758,-9.01562 V 13.140625 c 0,-4.9783967 -4.03881,-9.0136719 -9.01758,-9.0136719 z m 3.748047,9.0859379 H 109.2207 c 2.08669,0 3.78125,1.692621 3.78125,3.779297 l 0.25,181.232422 c 0,2.08667 -1.69262,3.78125 -3.77929,3.78125 l -78.931644,-0.0918 c -9.585303,0 -17.355469,-7.77134 -17.355469,-17.35547 V 83.724609 c 0,-9.585302 7.770205,-17.355468 17.355469,-17.355468 L 72,66.324219 c 4.978771,0 9.015625,-4.037674 9.015625,-9.017578 l 0.123047,-40.314453 c 0,-2.086676 1.690668,-3.779297 3.777344,-3.779297 z"
            transform="scale(0.01041667)" id="_59925752"/>

      <path style="fill:#000000;stroke-width:96"
            d="m 62.25,80.744141 c -10.435987,0 -18.896484,8.46042 -18.896484,18.896484 v 70.417965 c 0,10.43562 8.46042,18.89649 18.896484,18.89649 10.437523,0 18.898438,-8.46042 18.898438,-18.89649 V 99.640625 C 81.148437,89.204638 72.687504,80.744141 62.25,80.744141 Z m 0,8.998047 c 5.468218,0 9.900391,4.431755 9.900391,9.898437 v 70.417965 c 0,5.46671 -4.432173,9.90039 -9.900391,9.90039 -5.466326,3.8e-4 -9.898438,-4.43406 -9.898438,-9.90039 V 99.640625 c 0,-5.46671 4.431756,-9.898438 9.898438,-9.898437 z"
            transform="scale(0.01041667)" id="_59749840"/>


      <path style="fill:#000000;stroke-width:96"
            d="m 349.29492,57.269531 c -14.61206,0 -26.45703,11.844968 -26.45703,26.457031 V 184.55859 c 0,14.61092 11.84506,26.45703 26.45703,26.45703 h 57.37305 c 14.61091,0 26.45508,-11.84611 26.45508,-26.45703 l 0.0176,-31.56445 c 0,-4.97877 -4.03729,-9.01562 -9.01757,-9.01562 h -29.22461 c -4.97877,0 -9.01758,4.03685 -9.01758,9.01562 l 0.10937,17.06641 c -6.1e-4,5.4658 -2.54214,9.89843 -8.00781,9.89843 -5.46784,3.8e-4 -8.01172,-4.43406 -8.01172,-9.90039 V 99.642578 c 0,-5.46671 2.5435,-9.90039 8.01172,-9.90039 5.46671,0 8.00781,4.433709 8.00781,9.90039 l -0.10937,17.082032 c 0,4.97877 4.03881,9.01562 9.01758,9.01562 h 29.22461 c 4.9799,0 9.01562,-4.03685 9.01562,-9.01562 l -0.0156,-32.998048 c 0,-14.612063 -11.84379,-26.457031 -26.45508,-26.457031 z m 0.002,9.101563 h 57.37304 c 9.58412,0 17.35352,7.768213 17.35352,17.353515 l 0.0488,29.148441 c 0,2.0878 -1.69306,3.78125 -3.78125,3.78125 h -21.64258 c -2.08668,0 -3.7793,-1.69345 -3.7793,-3.78125 l 0.12109,-13.232425 c 0,-10.436064 -6.57181,-18.896484 -17.00781,-18.896484 -10.43712,0 -17.00781,8.460497 -17.00781,18.896484 v 70.417965 c 0,10.43607 6.5703,18.89844 17.00781,18.89844 10.43607,0 17.00781,-8.46282 17.00781,-18.89844 l -0.12109,-13.21484 c 0,-2.08819 1.69262,-3.7793 3.7793,-3.7793 h 21.64258 c 2.0878,0 3.77929,1.69111 3.77929,3.7793 l -0.0469,27.71484 c 0,9.58413 -7.76898,17.35547 -17.35352,17.35547 h -57.37304 c -9.58527,0 -17.35743,-7.7713 -17.35743,-17.35547 V 83.724609 c 0,-9.585263 7.77182,-17.353515 17.35743,-17.353515 z"
            transform="scale(0.01041667)" id="_59258872"/>

      <polygon
          points="2.49826,0.044878 2.33333,0.0440157 2.33333,0.476307 2.44358,0.476307 2.44358,0.154252 2.55381,0.476307 2.66406,0.476307 2.77344,0.154252 2.77344,0.476307 2.88368,0.476307 2.88368,0.0440157 2.71874,0.044878 2.60851,0.366933 "
          style="fill:#000000" id="_120867768"/>
      <polygon
          points="4.51302,0.154252 4.40971,0.154252 4.40971,0.476307 4.29948,0.476307 4.29948,0.154252 4.19618,0.154252 4.19618,0.0440157 4.51302,0.0440157 "
          style="fill:#000000" id="_59315552"/>
      <polygon
          points="3.63715,0.0435866 3.76389,0.476307 3.65365,0.476307 3.62761,0.38689 3.45312,0.38689 3.45312,0.316587 3.60677,0.316587 3.55555,0.140362 3.45659,0.476307 3.34636,0.476307 3.4728,0.0435866 "
          style="fill:#000000" id="_59262960"/>
      <path
          d="m 2.06784,0.132906 c 0.082594,0 0.079335,0.0135433 0.082594,0.042189 0.00106,0.009323 0.00183,0.0603307 0.00194,0.0841929 1.024e-4,0.0238622 -8.779e-4,0.0748701 -0.00194,0.0841929 -0.00326,0.0286457 0,0.042189 -0.082594,0.042189 -0.082594,0 -0.079339,-0.0135433 -0.082594,-0.042189 -0.00106,-0.009323 -0.00204,-0.0603307 -0.00194,-0.0841929 1.023e-4,-0.0238622 8.819e-4,-0.0748701 0.00194,-0.0841929 0.00326,-0.0286457 0,-0.042189 0.082594,-0.042189 l 1.26e-4,-0.0994882 c -0.209457,0 -0.186886,0.0548622 -0.193402,0.112154 -0.00212,0.0186496 -0.00408,0.0659882 -0.00388,0.113717 2.008e-4,0.0477283 0.00176,0.0950669 0.00388,0.113717 0.00652,0.0572913 -0.016055,0.11215 0.193402,0.11215 0.209461,0 0.18689,-0.0548583 0.193406,-0.11215 0.00212,-0.0186496 0.00368,-0.0659882 0.00388,-0.113717 C 2.2654568,0.2115605 2.263492,0.1642219 2.261372,0.1455718 2.254852,0.0882805 2.277427,0.0334178 2.067966,0.0334178 Z"
          style="fill:#000000" id="_58643680"/>
      <path
          d="m 1.69562,0.316587 c -3.346e-4,0.0127087 -7.48e-4,0.0231535 -0.00117,0.0268937 -0.00326,0.0286457 0,0.042189 -0.082594,0.042189 -0.082591,0 -0.079335,-0.0135433 -0.082595,-0.042189 -0.00106,-0.009323 -0.00204,-0.0603307 -0.00194,-0.0841929 1.023e-4,-0.0238622 8.779e-4,-0.0748701 0.00194,-0.0841929 0.00326,-0.0286457 0,-0.042189 0.082595,-0.042189 0.082594,0 0.079339,0.0135433 0.082594,0.042189 4.449e-4,0.003909 8.386e-4,0.0151417 0.00116,0.0286299 H 1.808594 C 1.8078696,0.1781185 1.806654,0.1567209 1.805394,0.1455713 1.798884,0.08828 1.821449,0.0334173 1.611992,0.0334173 c -0.209457,0 -0.18689,0.0548622 -0.193402,0.112154 -0.00212,0.0186496 -0.00409,0.0659882 -0.00388,0.113717 2.048e-4,0.0477283 0.00176,0.0950669 0.00388,0.113717 0.00651,0.0572913 -0.016055,0.11215 0.193402,0.11215 0.209457,0 0.18689,-0.0548583 0.193402,-0.11215 0.00124,-0.0108937 0.00229,-0.0315827 0.00298,-0.0564134 l -0.112744,-3.94e-6 z"
          style="fill:#000000" id="_120210744"/>
      <path
          d="M 3.1521,0.377441 3.038187,0.37700399 v -0.0986142 h 0.113898 c 0.082594,0 0.080028,-0.0135394 0.083283,-0.042185 0.00106,-0.009327 8.425e-4,-0.001665 7.441e-4,-0.0255276 -1.024e-4,-0.0238661 3.189e-4,-0.0156693 -7.441e-4,-0.0249921 -0.00326,-0.0286496 -6.929e-4,-0.0421929 -0.083287,-0.0421929 l -0.066906,1.7717e-4 1.102e-4,0.332209 h -0.110461 v -0.431862 l 0.177276,-3.94e-6 c 0.209457,0 0.1865,0.0550079 0.194209,0.11215 9.134e-4,0.006772 9.134e-4,0.0380236 9.134e-4,0.0548661 0,0.0135394 0,0.0447874 -9.134e-4,0.0546969 -0.00529,0.0574173 0.015248,0.111717 -0.194209,0.111717 z"
          style="fill:#000000" id="_120218448"/>
      <path
          d="M 0.327606,3.12906 H 0.2438147 V 2.508843 h 0.286787 c 0.101929,0 0.203862,0.035413 0.203862,0.166713 0,0.091567 -0.0466457,0.125256 -0.0863819,0.148579 0.0354173,0.014685 0.0708307,0.030232 0.0742874,0.116614 l 0.005185,0.112295 c 8.6221e-4,0.034555 0.005181,0.047512 0.0310945,0.062197 V 3.12906 H 0.6558577 C 0.6437632,3.091056 0.6411727,2.996899 0.6411727,2.973576 c 0,-0.050965 -0.0103701,-0.110571 -0.110571,-0.110571 h -0.202996 z m 0,-0.337748 h 0.194358 c 0.0613307,0 0.126118,-0.015551 0.126118,-0.107118 0,-0.095882 -0.0699685,-0.103657 -0.111433,-0.103657 H 0.327606 v 0.210776 z"
          style="fill:#000000" id="_58966152"/>
      <path
          d="M 1.20952,2.9874 C 1.20693,3.008994 1.186197,3.072916 1.129185,3.110924 1.108453,3.124743 1.079083,3.142022 1.006524,3.142022 c -0.12698,0 -0.202134,-0.095886 -0.202134,-0.226323 0,-0.139937 0.067378,-0.25137 0.216819,-0.25137 0.130437,0 0.194358,0.103657 0.194358,0.263465 h -0.32998 c 0,0.094158 0.0440591,0.148579 0.131303,0.148579 0.071697,0 0.114024,-0.055287 0.116614,-0.088976 z M 1.1369609,2.867325 c -0.00432,-0.069969 -0.033689,-0.134756 -0.126118,-0.134756 -0.0699685,3.9e-6 -0.125256,0.064787 -0.125256,0.134756 z"
          style="fill:#000000" id="_59557712"/>
      <polygon
          points="1.24228,2.50885 1.33298,2.50885 1.44873,3.01331 1.45045,3.01331 1.58953,2.50885 1.68109,2.50885 1.82017,3.01331 1.8219,3.01331 1.93765,2.50885 2.03007,2.50885 1.86681,3.12906 1.7787,3.12906 1.63704,2.61509 1.63531,2.61509 1.49192,3.12906 1.40381,3.12906 "
          style="fill:#000000" id="_59922096"/>
      <path
          d="M 2.16661,3.12906 H 2.0905943 V 2.677284 h 0.071697 v 0.075153 h 0.00172 c 0.030236,-0.052693 0.069968,-0.08811 0.12698,-0.08811 0.0095,0 0.013823,8.622e-4 0.01987,0.00259 v 0.078606 h -0.028504 c -0.070835,0 -0.115756,0.055287 -0.115756,0.120937 l 3.9e-6,0.262598 z"
          style="fill:#000000" id="_59091112"/>
      <path
          d="M 2.44111,3.12906 H 2.3650943 V 2.677284 H 2.44111 Z M 2.3650943,2.595221 V 2.508843 H 2.44111 v 0.086378 z"
          style="fill:#000000" id="_60436928"/>
      <path
          d="m 2.64405,2.74035 v 0.293697 c 0,0.035417 0.030232,0.035417 0.04578,0.035417 h 0.026779 v 0.059602 c -0.027642,0.00259 -0.04924,0.00605 -0.057012,0.00605 -0.075153,0 -0.091567,-0.042327 -0.091567,-0.096748 V 2.740352 H 2.506699 V 2.677293 H 2.56803 V 2.551179 H 2.64405 V 2.677293 H 2.716609 V 2.740352 H 2.64405 Z"
          style="fill:#000000" id="_58602736"/>
      <path
          d="M 2.78385,2.81463 C 2.7873,2.706658 2.859,2.664327 2.970433,2.664327 c 0.03628,0 0.167579,0.010366 0.167579,0.126118 l 3.9e-6,0.260008 c 0,0.019004 0.0095,0.026779 0.025047,0.026779 0.00691,0 0.016413,-0.00173 0.025051,-0.00346 v 0.055284 c -0.012957,0.00346 -0.024185,0.00864 -0.041461,0.00864 -0.067378,0 -0.077744,-0.034555 -0.080335,-0.069106 -0.029374,0.031961 -0.075153,0.073425 -0.163264,0.073425 -0.082925,0 -0.141665,-0.052693 -0.141665,-0.130441 0,-0.038004 0.011228,-0.126114 0.137346,-0.141661 l 0.125252,-0.015551 c 0.018142,-0.00172 0.039736,-0.00864 0.039736,-0.053555 0,-0.047512 -0.034551,-0.073425 -0.106248,-0.073425 -0.086382,0 -0.098476,0.052693 -0.103657,0.087244 H 2.7838508 Z M 3.062,2.8984213 c -0.012094,0.0095 -0.031098,0.016413 -0.125256,0.028508 -0.037142,0.00518 -0.096748,0.016409 -0.096748,0.073421 0,0.04924 0.025051,0.078606 0.082063,0.078606 0.070835,0 0.139937,-0.045779 0.139937,-0.106248 z"
          style="fill:#000000" id="_57939144"/>
      <path
          d="M 3.25629,3.12906 V 2.508843 h 0.076016 v 0.225453 h 0.00173 C 3.366863,2.686788 3.411776,2.66519 3.464469,2.664328 c 0.120075,0 0.1883149,0.098476 0.1883149,0.225457 0,0.107976 -0.044921,0.252236 -0.198681,0.252236 -0.076878,0 -0.108839,-0.044059 -0.124386,-0.069106 h -0.00173 V 3.129061 H 3.2562898 Z M 3.450648,2.732572 c -0.109705,0 -0.121799,0.118339 -0.121799,0.191764 0,0.120075 0.075153,0.152035 0.123528,0.152035 0.082925,0 0.121795,-0.075153 0.121795,-0.174492 3.9e-6,-0.057878 -0.00604,-0.169311 -0.123524,-0.169307 z"
          style="fill:#000000" id="_59952272"/>
      <polygon points="3.73996,2.50885 3.81598,2.50885 3.81598,3.12906 3.73996,3.12906 " style="fill:#000000"
               id="_120902960"/>
      <path
          d="M 4.30915,2.9874 C 4.30656,3.008994 4.285831,3.072916 4.228819,3.110924 4.208091,3.124743 4.178721,3.142022 4.106158,3.142022 c -0.126976,0 -0.202134,-0.095886 -0.202134,-0.226323 0,-0.139937 0.067378,-0.25137 0.216819,-0.25137 0.130437,0 0.19435,0.103657 0.19435,0.263465 H 3.985224 c 0,0.094158 0.044055,0.148579 0.131299,0.148579 0.071697,0 0.114024,-0.055287 0.116618,-0.088976 l 0.076008,3.9e-6 z M 4.2365988,2.867325 c -0.00432,-0.069969 -0.033693,-0.134756 -0.126122,-0.134756 -0.069968,3.9e-6 -0.125252,0.064787 -0.125252,0.134756 z"
          style="fill:#000000" id="_60535856"/>
  </g>
 </g>
</svg>