<?xml version="1.0" encoding="UTF-8" standalone="no"?>
<svg xmlns:dc="http://purl.org/dc/elements/1.1/" xmlns:cc="http://creativecommons.org/ns#"
     xmlns:rdf="http://www.w3.org/1999/02/22-rdf-syntax-ns#" xmlns="http://www.w3.org/2000/svg" xml:space="preserve"
     enable-background="new 0 0 1300 700" viewBox="0 0 1265.6726 651.62067" height="651.62067" width="1265.6726" y="0px"
     x="0px" id="Layer_1" version="1.1"><metadata
   id="metadata73"><rdf:RDF><cc:Work
       rdf:about=""><dc:format>image/svg+xml</dc:format><dc:type rdf:resource="http://purl.org/dc/dcmitype/StillImage"/><dc:title></dc:title></cc:Work></rdf:RDF></metadata>
  <defs id="defs71"/>
  <g transform="translate(-19.66539,-24.515489)" id="g66">
	<g id="g4">
		<path id="path2"
          d="m 151.848,40.913 c 31.269,-12.338 65.234,-15.194 98.5,-16.311 6.862,-0.44 13.616,0.934 20.456,1.084 19.468,1.911 38.872,4.907 57.91,9.493 32.16,7.484 62.71,20.649 91.746,36.176 16.311,8.719 32.117,18.362 47.409,28.746 5.304,3.801 10.383,7.924 15.785,11.586 21.089,15.721 40.472,33.621 58.759,52.488 1.536,1.46 2.899,3.747 5.369,3.296 18.76,-0.494 37.637,2.083 55.526,7.785 16.505,5.487 32.59,15.033 41.878,30.174 10.18,16.096 11.672,35.747 12.112,54.302 0.011,32.569 0.011,65.126 0,97.695 0.043,3.683 -0.333,7.431 0.613,11.039 10.685,43.682 13.884,89.77 4.725,134.021 -7.377,37.949 -24.461,74.243 -50.405,103.043 -27.457,30.915 -64.793,52.444 -104.761,62.538 -35.134,9.106 -72.052,10.04 -107.896,5.122 C 353.54,666.973 309.192,651.134 268.258,629.432 201.961,593.9 144.566,542.411 100.604,481.483 63.386,429.596 35.918,370.043 24.825,306.935 22.409,292.783 20.605,278.49 20.24,264.122 c -0.752,-8.311 -0.773,-16.676 -0.021,-24.988 1.6,-45.991 15.334,-92.24 42.802,-129.522 7.538,-8.451 14.174,-17.718 22.496,-25.46 19.105,-18.434 41.752,-33.21 66.331,-43.239 z m 66.426,-11.265 c -40.547,4.692 -80.342,21.057 -110.216,49.245 -5.187,3.694 -8.794,8.988 -13.111,13.552 -12.489,14.121 -22.346,30.388 -30.077,47.537 -8.741,20.725 -14.55,42.738 -16.73,65.126 -1.289,5.67 -0.483,11.533 -1.428,17.256 -1.536,39.935 5.197,79.999 17.686,117.925 14.207,43.156 35.586,83.811 61.798,120.868 40.354,56.46 91.832,105.125 151.417,140.862 37.755,22.572 78.914,39.785 122.028,48.88 30.614,6.389 62.27,8.386 93.335,4.456 36.874,-4.618 72.922,-18.877 101.41,-42.995 23.796,-19.812 41.954,-46.045 53.046,-74.898 11.801,-30.174 15.86,-62.894 15.259,-95.129 -1.01,-15.849 -2.041,-31.795 -5.401,-47.354 -0.075,6.518 -0.569,12.993 -1.149,19.479 -1.933,18.781 -7.023,38.432 -20.563,52.327 -10.095,10.974 -23.613,18.556 -38.11,21.906 -22.25,5.336 -45.283,3.694 -67.961,3.973 -33.976,-0.021 -67.94,0.011 -101.915,-0.01 -0.097,-108.401 -0.064,-216.791 -0.021,-325.192 36.241,0.011 72.482,-0.011 108.723,0.011 C 510.297,140.091 481.24,115.619 449.821,94.68 394.691,58.299 331.219,32.571 264.879,28.19 249.328,27.372 233.726,27.716 218.274,29.648 Z m 301.428,200.716 c -0.021,67.06 0,134.129 -0.011,201.189 8.3,0.107 16.601,0.097 24.912,0.021 5.831,-0.462 12.5,-1.192 16.408,-6.099 4.843,-6.175 4.22,-14.465 4.338,-21.853 0.021,-49.384 0.064,-98.769 -0.021,-148.153 0.14,-6.979 -0.526,-14.389 -4.864,-20.167 -4.199,-3.296 -9.492,-4.757 -14.765,-4.875 -8.666,-0.17 -17.331,0.002 -25.997,-0.063 z"/>
	</g>
    <path id="path6"
          d="m 251.357,162.457 c 11.737,-0.709 23.57,-2.094 35.307,-0.559 14.099,0.387 28.145,2.899 41.599,7.109 17.696,5.465 34.748,15.098 46.002,30.109 9.503,12.768 12.896,28.918 13.509,44.531 0.054,14.593 0.043,29.186 0,43.779 -29.766,0.096 -59.532,-0.086 -89.308,0.096 -0.827,-10.652 -0.14,-21.39 -0.344,-32.063 -0.247,-6.711 0.612,-13.959 -2.845,-20.026 -2.856,-5.992 -9.74,-8.816 -16.032,-9.192 -7.044,-0.451 -14.754,-0.14 -20.628,4.263 -5.38,3.994 -7.581,11.017 -7.302,17.513 0.011,55.816 -0.032,111.644 0.011,167.46 -0.139,4.972 1.686,9.772 4.725,13.659 6.969,5.809 16.558,6.453 25.202,5.358 5.165,-0.913 10.76,-3.082 13.444,-7.893 4.091,-6.475 3.146,-14.496 3.415,-21.798 -0.075,-10.781 0.097,-21.563 -0.097,-32.333 30.292,0.064 60.584,0.032 90.866,0.011 -0.44,22.238 1.568,44.81 -3.318,66.705 -3.887,16.934 -14.561,32.236 -29.369,41.395 -21.465,13.702 -47.645,17.181 -72.6,17.836 -7.495,0.945 -15.001,-0.301 -22.507,-0.323 -23.602,-1.407 -48.3,-4.918 -68.337,-18.448 -11.543,-7.441 -20.671,-18.416 -25.997,-31.064 -5.573,-12.735 -6.733,-26.856 -6.625,-40.601 0.011,-45.089 0,-90.178 0.011,-135.278 0.118,-14.163 -0.698,-28.477 1.944,-42.458 2.201,-19.457 13.09,-37.776 29.444,-48.622 17.533,-12.186 38.902,-16.976 59.83,-19.166 z"/>
    <path id="path8"
          d="m 1177.27,166.795 c 11.64,-0.064 23.28,-0.054 34.92,0 0.107,2.685 0.107,5.38 0.086,8.075 -4.316,0.118 -8.633,0.075 -12.929,0.054 -0.043,13.101 0.076,26.19 -0.063,39.291 -3.05,0.054 -6.089,0.054 -9.117,0.021 -0.161,-13.09 0,-26.168 -0.075,-39.258 -4.306,-0.043 -8.602,0 -12.886,-0.097 -0.022,-2.695 -0.012,-5.391 0.064,-8.086 z"/>
    <path id="path10"
          d="m 1226.536,166.784 c 4.209,-0.021 8.429,-0.021 12.66,-0.086 3.425,11.501 6.196,23.194 9.363,34.771 3.468,-11.479 6.045,-23.216 9.342,-34.749 4.167,0.043 8.343,0.054 12.521,0.021 0.106,15.839 0.043,31.688 0.032,47.527 -2.845,-0.011 -5.68,-0.021 -8.515,-0.032 -0.236,-12.413 0.698,-24.837 0.601,-37.208 -3.253,11.136 -6.131,22.378 -8.999,33.621 -0.343,1.289 -0.837,2.523 -1.406,3.715 -2.481,-0.118 -4.95,-0.129 -7.409,-0.064 -3.727,-12.5 -6.422,-25.31 -10.352,-37.734 0.548,12.553 0.719,25.138 0.645,37.702 -2.845,-0.032 -5.669,-0.043 -8.494,-0.021 -0.065,-15.829 -0.075,-31.645 0.011,-47.463 z"/>
    <path id="path12"
          d="m 668.049,167.418 c 76.552,0.129 153.104,-0.011 229.666,0.064 0.011,20.714 0.011,41.428 0,62.152 -21.798,0.043 -43.607,0.043 -65.405,-0.011 -1.171,0.29 -3.887,-0.676 -3.844,1.235 -0.033,87.29 0.064,174.58 -0.021,261.859 -30.528,-0.064 -61.046,0.021 -91.563,-0.043 -0.183,-87.612 0.129,-175.234 -0.161,-262.847 -22.947,-0.387 -45.905,-0.054 -68.853,-0.172 -0.387,-14.271 -0.043,-28.563 -0.15,-42.845 0.201,-6.463 -0.4,-12.949 0.331,-19.392 z"/>
    <path id="path14"
          d="m 907.411,167.482 c 29.852,-0.053 59.714,0.011 89.566,-0.021 10.158,74.404 20.359,148.808 30.497,223.212 1.159,8.269 2.051,16.601 3.543,24.816 11.855,-82.608 22.818,-165.377 34.577,-248.017 30.292,0.01 60.584,-0.054 90.887,0.032 -4.843,22.217 -8.697,44.649 -13.165,66.942 -16.859,86.065 -33.245,172.228 -50.265,258.261 -41.599,-0.065 -83.198,0.086 -124.798,-0.075 -19.425,-104.696 -39.376,-209.296 -59.005,-313.949 -0.656,-3.727 -1.611,-7.41 -1.837,-11.201 z"/>
    <path id="path16"
          d="m 1077.663,550.047 c 9.525,-5.412 22.614,-4.875 30.818,2.771 3.104,3.232 5.025,7.345 6.432,11.565 -3.522,0.892 -7.012,1.912 -10.556,2.642 -1.02,-3.329 -2.33,-7.119 -5.745,-8.655 -3.78,-2.233 -8.29,-1.954 -12.413,-1.106 -6.486,3.028 -10.083,10.158 -10.137,17.117 -0.291,6.55 0.751,14.034 6.002,18.577 3.758,3.522 9.428,4.231 14.282,2.964 4.8,-1.697 7.785,-6.207 9.385,-10.834 3.437,1.374 6.83,2.867 10.287,4.209 -0.548,0.935 -1.063,1.89 -1.557,2.846 -3.533,8.44 -12.199,14.314 -21.315,14.636 -7.484,0.623 -15.28,-1.879 -20.606,-7.237 -6.078,-6.357 -8.655,-15.42 -8.279,-24.075 -0.214,-9.946 4.716,-20.265 13.402,-25.42 z"/>
    <path id="path18"
          d="m 785.137,547.825 c 3.521,-0.01 7.055,-0.021 10.587,0.022 0.076,19.21 0.043,38.42 0.021,57.621 -3.543,0.064 -7.076,0.053 -10.609,0.032 -0.042,-19.222 -0.032,-38.454 10e-4,-57.675 z"/>
    <path id="path20"
          d="m 808.868,547.835 c 3.082,-0.011 6.164,-0.011 9.256,-0.107 8.934,13.143 16.805,27.006 25.707,40.171 0.183,-2.695 -0.021,-5.369 -0.301,-8.032 -0.537,-8.633 -0.086,-17.31 -0.87,-25.921 -0.118,-2.083 0.193,-4.145 0.44,-6.196 3.211,0.097 6.443,0.097 9.675,-0.033 0.709,2.771 0.44,5.648 0.473,8.483 0,16.44 -0.033,32.88 0.01,49.32 -3.135,-0.172 -6.443,0.397 -9.46,-0.29 -8.612,-12.972 -16.247,-26.598 -25.02,-39.451 0.365,13.229 0.601,26.458 0.676,39.698 -3.543,0.054 -7.076,0.054 -10.609,0 -0.031,-19.21 -0.074,-38.431 0.023,-57.642 z"/>
    <path id="path22"
          d="m 861.527,547.954 c 14.195,-0.011 28.392,-0.119 42.598,0.043 0,3.318 -0.011,6.636 -0.054,9.954 -5.305,0.032 -10.598,0.021 -15.892,0.053 -0.032,15.817 0.021,31.635 -0.032,47.463 -3.554,0.064 -7.098,0.064 -10.642,0.021 -0.107,-15.828 0,-31.646 -0.053,-47.473 -5.284,-0.119 -10.577,0.042 -15.861,-0.107 -0.064,-3.318 -0.074,-6.636 -0.064,-9.954 z"/>
    <path id="path24"
          d="m 911.867,547.847 c 13.573,-0.022 27.157,-0.086 40.74,0.021 0.032,3.318 0.032,6.658 -0.053,9.986 -10.041,-0.043 -20.069,0.021 -30.099,-0.021 -0.011,4.424 0,8.859 -0.032,13.283 9.267,0.172 18.545,-0.053 27.812,0.14 0,3.039 -0.011,6.089 -0.064,9.138 -9.245,0.064 -18.48,-0.021 -27.715,0.054 -0.011,5.036 0,10.083 -0.021,15.119 10.749,0.236 21.509,-0.064 32.257,0.269 0,3.2 -0.01,6.421 -0.032,9.632 -14.26,0.085 -28.521,0.053 -42.781,0.01 -0.087,-19.211 -0.065,-38.421 -0.012,-57.631 z"/>
    <g id="g28">
		<path id="path26"
          d="m 962.68,547.878 c 7.377,-0.097 14.765,-0.032 22.164,-0.085 5.638,-0.086 11.608,1.514 15.71,5.573 5.605,6.153 6.636,16.451 1.514,23.194 -1.997,2.653 -4.993,4.253 -7.828,5.821 3.952,7.795 8.698,15.173 12.359,23.119 -3.952,0.021 -7.892,-0.043 -11.833,0.064 -4.295,-6.819 -7.474,-14.26 -11.533,-21.197 -3.135,-0.322 -6.282,-0.365 -9.417,-0.3 -0.075,7.13 -0.011,14.25 -0.021,21.38 -3.715,0.086 -7.42,0.086 -11.125,0.01 0.01,-19.19 0.031,-38.39 0.01,-57.579 z m 11.092,9.579 c -0.011,5.97 0.064,11.94 -0.064,17.911 5.036,0.365 10.072,-0.397 15.055,-1.084 5.927,-1.74 7.85,-10.405 3.028,-14.357 -5.015,-4.166 -12.07,-2.234 -18.019,-2.47 z"/>
	</g>
    <g id="g32">
		<path id="path30"
          d="m 1029.095,547.76 c 3.78,0.064 7.57,0.108 11.361,-0.043 1.524,2.266 2.266,4.929 3.125,7.506 5.53,16.827 11.564,33.471 17.041,50.308 -3.726,-0.021 -7.453,-0.043 -11.168,0.042 -1.632,-3.586 -2.255,-7.506 -3.619,-11.178 -7.141,-0.021 -14.271,0 -21.401,-0.021 -1.321,3.651 -2.298,7.409 -3.425,11.125 -3.887,0.021 -7.774,0.043 -11.64,-0.064 6.84,-19.125 12.811,-38.56 19.726,-57.675 z m -1.761,36.896 c 5.176,-0.032 10.362,-0.021 15.548,0.011 -2.416,-8.473 -4.928,-16.913 -7.56,-25.321 -3.382,8.14 -5.4,16.86 -7.988,25.31 z"/>
	</g>
    <path id="path34"
          d="m 1119.069,547.921 c 13.992,0 27.983,0.064 41.975,-0.053 0.526,3.361 0.333,6.765 -0.043,10.136 -5.197,-0.096 -10.383,-0.043 -15.57,-0.021 0.14,15.817 -0.032,31.635 0.086,47.463 -3.694,0.096 -7.377,0.086 -11.06,0.043 -0.043,-15.839 0.011,-31.677 -0.021,-47.516 -5.122,-0.021 -10.244,-0.021 -15.355,0 -0.022,-3.351 -0.022,-6.701 -0.012,-10.052 z"/>
    <path id="path36"
          d="m 1169.592,547.825 c 3.522,-0.01 7.055,-0.01 10.599,0.011 -0.011,19.21 0.032,38.421 -0.021,57.632 -3.543,0.064 -7.076,0.064 -10.609,0.021 -0.023,-19.222 -0.087,-38.443 0.031,-57.664 z"/>
    <path id="path38"
          d="m 1187.6,547.825 c 3.607,-0.01 7.227,0.011 10.846,-0.053 4.789,14.818 8.172,30.13 13.154,44.875 3.318,-12.017 6.647,-24.032 9.976,-36.037 0.944,-2.985 1.299,-6.186 2.92,-8.902 3.544,0.14 7.088,0.107 10.653,0.171 -5.584,19.2 -10.975,38.453 -16.526,57.664 -4.8,-0.064 -9.589,-0.021 -14.368,-0.032 -5.477,-19.244 -11.694,-38.315 -16.655,-57.686 z"/>
    <path id="path40"
          d="m 1242.504,547.793 c 13.497,0.107 27.006,-0.043 40.503,0.054 0.033,3.157 0.033,6.303 0.139,9.46 -2.727,0.88 -5.616,0.473 -8.408,0.526 -7.344,-0.01 -14.689,-0.01 -22.023,0.021 0,4.371 0.043,8.752 -0.043,13.133 9.224,0.44 18.458,0.064 27.694,0.204 0.043,3.103 0.215,6.217 -0.151,9.321 -9.149,-0.214 -18.297,-0.032 -27.447,-0.107 -0.01,5.154 -0.322,10.33 0.226,15.484 10.609,-0.375 21.229,0.064 31.85,-0.214 0.183,3.275 0.172,6.561 0.064,9.847 -14.196,-0.043 -28.392,0.021 -42.587,-0.021 0.246,-19.245 -0.161,-38.477 0.183,-57.708 z"/>
    <path id="path42"
          d="m 785.158,614.219 c 5.251,-0.076 10.491,-0.064 15.742,0.021 3.629,13.959 7.022,28.026 11.156,41.846 3.758,-13.938 7.345,-27.929 10.953,-41.91 5.219,0.021 10.437,-0.033 15.667,0.064 0.011,19.21 0,38.432 0,57.642 -3.543,0 -7.066,0.011 -10.588,0.021 -0.064,-15.248 0.526,-30.475 0.88,-45.701 -4.435,15.097 -8.3,30.377 -12.124,45.647 -3.285,0.064 -6.561,0.064 -9.835,0 -3.952,-15.141 -7.839,-30.292 -12.016,-45.368 -0.784,7.366 0.655,14.711 0.226,22.088 0.526,7.764 0.375,15.538 0.569,23.323 -3.543,0 -7.087,0 -10.63,-0.021 -0.064,-19.221 -0.064,-38.442 0,-57.652 z"/>
    <path id="path44"
          d="m 854.161,614.229 c 3.651,-0.053 7.292,-0.064 10.943,-0.064 -0.011,11.823 -0.065,23.645 -0.011,35.468 0.204,3.329 -0.032,7.216 2.673,9.675 3.555,3.608 9.096,3.748 13.777,2.867 4.435,-0.763 8.258,-4.832 7.967,-9.471 -0.032,-12.821 -0.064,-25.653 -0.021,-38.475 3.748,-0.064 7.484,-0.064 11.243,-0.01 -0.054,12.488 -0.043,24.987 -0.011,37.476 0.043,5.315 -1.396,10.953 -5.272,14.786 -4.885,5.058 -12.188,6.916 -19.039,6.744 -6.668,-0.032 -13.949,-2.094 -18.072,-7.699 -3.543,-3.651 -4.166,-9.009 -4.23,-13.863 0.053,-12.478 -0.044,-24.956 0.053,-37.434 z"/>
    <path id="path46"
          d="m 917.193,614.186 c 3.511,-0.032 7.023,-0.021 10.545,0.064 0.032,15.86 0.054,31.731 0,47.613 7.538,0.022 15.076,0.022 22.614,0.011 0.054,3.329 0.054,6.668 0,10.008 -11.093,0.043 -22.185,-0.064 -33.267,0.075 0.227,-19.253 0.012,-38.518 0.108,-57.771 z"/>
    <path id="path48"
          d="m 950.084,614.219 c 14.088,-0.011 28.177,-0.011 42.266,0 0.01,3.296 0.01,6.604 0.01,9.911 -5.218,0.118 -10.427,-0.075 -15.635,0.086 0,14.518 -0.043,29.036 0.064,43.564 -0.021,1.396 -0.172,2.792 -0.44,4.177 -3.543,-0.097 -7.076,-0.075 -10.609,-0.064 -0.129,-15.914 0.086,-31.817 -0.107,-47.731 -5.154,-0.29 -10.319,0.119 -15.463,-0.128 -0.204,-3.276 -0.043,-6.551 -0.086,-9.815 z"/>
    <path id="path50"
          d="m 1003.41,614.229 c 3.619,-0.053 7.248,-0.064 10.888,-0.032 -0.021,19.242 0.333,38.518 -0.193,57.749 -3.565,-0.075 -7.13,-0.064 -10.685,-0.064 -0.064,-19.221 -0.022,-38.431 -0.01,-57.653 z"/>
    <path id="path52"
          d="m 1029.965,614.186 c 5.208,0 10.405,-0.021 15.613,0.033 3.286,13.874 7.527,27.511 10.566,41.438 1.557,-0.698 1.353,-2.663 1.901,-3.995 3.135,-12.532 6.475,-25.03 9.761,-37.519 5.197,0.086 10.395,0 15.603,0.076 -0.011,19.21 0,38.42 0,57.631 -3.5,0.043 -7.001,0.043 -10.48,0.075 -0.193,-15.28 0.376,-30.55 0.666,-45.819 -4.198,15.194 -8.354,30.399 -12.049,45.723 -3.264,0.075 -6.528,0.086 -9.782,0.032 -3.908,-15.119 -8.193,-30.163 -11.779,-45.379 -1.052,15.13 0.623,30.238 0.59,45.379 -3.554,0.032 -7.109,0.032 -10.652,0.032 0.042,-19.232 -0.012,-38.464 0.042,-57.707 z"/>
    <path id="path54"
          d="m 1098.828,614.197 c 13.54,-0.033 27.07,-0.011 40.611,-0.011 0.011,3.221 0.043,6.454 0.193,9.675 -10.019,-0.021 -20.048,-0.193 -30.056,0.129 -0.269,4.424 -0.172,8.859 -0.129,13.304 9.267,0.279 18.576,-0.408 27.822,0.354 -0.064,2.888 -0.075,5.788 -0.043,8.698 -9.256,0.064 -18.513,-0.064 -27.758,0.075 -0.118,5.101 -0.054,10.201 -0.075,15.313 10.727,0.021 21.454,-0.032 32.182,0.011 0.043,3.383 0.043,6.765 0.021,10.147 -14.25,-0.011 -28.499,0.011 -42.759,0 -0.063,-19.231 -0.03,-38.463 -0.01,-57.695 z"/>
    <g id="g58">
		<path id="path56"
          d="m 1151.724,614.262 c 7.377,-0.097 14.754,0 22.143,-0.076 6.753,-0.075 13.744,2.051 18.651,6.862 6.583,6.969 8.773,17.106 7.946,26.437 -0.849,6.894 -3.254,14.089 -8.784,18.631 -5.477,4.746 -13.058,5.777 -20.038,5.798 -6.646,-0.139 -13.305,0.183 -19.94,-0.204 0.011,-19.146 0.043,-38.302 0.022,-57.448 z m 11.211,9.857 c -0.021,12.521 0.01,25.052 -0.011,37.583 6.357,-0.054 13.166,0.934 19.114,-1.836 5.111,-2.373 6.712,-8.461 6.926,-13.615 0.408,-6.433 -0.278,-13.788 -5.207,-18.48 -5.886,-4.844 -13.8,-3.598 -20.822,-3.652 z"/>
	</g>
    <path id="path60"
          d="m 1213.006,614.219 c 3.651,-0.054 7.302,-0.064 10.964,0.021 -0.043,19.199 -0.011,38.389 -0.011,57.588 -3.468,0.075 -6.937,0.043 -10.384,0.15 -0.354,-1.009 -0.547,-2.029 -0.601,-3.071 0.021,-18.233 0.053,-36.455 0.032,-54.688 z"/>
    <g id="g64">
		<path id="path62"
          d="m 1253.66,614.176 c 4.017,0.021 8.032,0 12.059,0.01 6.476,19.265 13.101,38.475 19.619,57.717 -3.791,-0.021 -7.57,-0.043 -11.339,0.032 -1.407,-3.769 -2.277,-7.699 -3.662,-11.458 -7.066,0.032 -14.132,-0.14 -21.176,0.129 -1.3,3.748 -2.373,7.57 -3.673,11.329 -3.865,-0.075 -7.71,-0.032 -11.554,-0.107 6.754,-19.156 13.004,-38.496 19.726,-57.652 z m -1.642,36.745 c 5.154,-0.01 10.309,0.033 15.473,-0.021 -2.459,-8.516 -4.875,-17.063 -7.667,-25.471 -3.06,8.322 -5.326,16.966 -7.806,25.492 z"/>
	</g>
</g>
</svg>