<?xml version="1.0" encoding="UTF-8" standalone="no"?>
<svg xmlns:dc="http://purl.org/dc/elements/1.1/" xmlns:cc="http://creativecommons.org/ns#"
     xmlns:rdf="http://www.w3.org/1999/02/22-rdf-syntax-ns#" xmlns="http://www.w3.org/2000/svg" xml:space="preserve"
     id="svg2891" viewBox="0 0 7.6406593 3.2491809" height="3.249181in" width="7.6406593in" version="1.0"><metadata
   id="metadata23"><rdf:RDF><cc:Work
       rdf:about=""><dc:format>image/svg+xml</dc:format><dc:type rdf:resource="http://purl.org/dc/dcmitype/StillImage"/><dc:title></dc:title></cc:Work></rdf:RDF></metadata>
    <defs id="defs2893">
  <style id="style2895" type="text/css"/>
 </defs>
    <g transform="translate(-0.05467,-0.0754091)" id="Layer_x0020_1">

  <g id="_57896984">
   <path id="_120606704" style="fill:#000000"
         d="M 5.36126,0.369346 C 6.330457,0.505822 6.98822,0.771618 6.98822,1.077129 6.9882239,1.521893 5.59436,1.882452 3.875,1.882452 3.484512,1.8824481 3.110819,1.8638536 2.76642,1.8298969 l -0.281961,0.180551 c 0.430933,0.044165 0.899945,0.068417 1.39054,0.068417 2.10987,0 3.82033,-0.4485 3.82033,-1.00174 0,-0.376988 -0.79428,-0.705358 -1.96797,-0.876303 l -0.366098,0.16852 z"/>
      <path id="_120293640" style="fill:#000000"
            d="M 5.32293,0.149854 C 4.876375,0.1018619 4.387473,0.0754091 3.875,0.0754091 c -2.10987,0 -3.82033,0.4485 -3.82033,1.00172 0,0.381626 0.813835,0.713406 2.01124,0.882531 l 0.366362,-0.168724 c -0.992988,-0.134571 -1.67048,-0.40372 -1.67048,-0.713807 -3.94e-6,-0.444748 1.39386,-0.805303 3.11322,-0.805303 0.40928,-3.94e-6 0.800126,0.0204291 1.15811,0.0575551 l 0.289819,-0.179528 z"/>
      <path id="_119772968" style="fill:#000000"
            d="M 4.46503,0.682756 C 4.287794,0.6523387 4.087321,0.6352009 3.875002,0.6352009 c -0.721374,-3.94e-6 -1.30618,0.197862 -1.30618,0.441929 0,0.157 0.241945,0.294862 0.606543,0.373268 l -0.57289,0.263665 c -0.889291,-0.119307 -1.49697,-0.359752 -1.49697,-0.636933 0,-0.395933 1.23997,-0.716913 2.7695,-0.716913 0.362484,-3.94e-6 0.708681,0.0180276 1.02598,0.0508031 L 4.465028,0.682756 Z"/>
      <path id="_59741296" style="fill:#000000"
            d="M 5.19108,0.446165 C 6.056596,0.567409 6.6445,0.804508 6.6445,1.07713 c 0,0.395945 -1.23997,0.716933 -2.7695,0.716933 -0.343445,0 -0.672291,-0.016181 -0.97578,-0.045764 L 3.324681,1.478047 C 3.491929,1.504382 3.67839,1.519075 3.875,1.519075 c 0.721374,0 1.30618,-0.197858 1.30618,-0.441945 0,-0.151665 -0.225846,-0.2855 -0.569961,-0.365094 l 0.579862,-0.26587 z"/>
      <polygon id="_58375824" style="fill:#000000"
               points="3.55151,2.33928 3.26817,2.99624 2.98496,2.33928 2.75058,2.33928 3.15104,3.26811 3.38542,3.26811 3.78589,2.33928 "/>
      <path id="_58425768" transform="scale(0.01041667)"
            d="m 671.75,221.81641 c -30.26535,0 -54.80078,21.79033 -54.80078,48.67187 0,26.88 24.53553,48.67188 54.80078,48.67188 30.26535,0 54.80078,-21.79188 54.80078,-48.67188 0,-26.88154 -24.53553,-48.67187 -54.80078,-48.67187 z m 0,18.38476 c 16.72666,0 30.28711,13.56045 30.28711,30.28711 0,16.72666 -13.56045,30.28906 -30.28711,30.28906 -16.72666,0 -30.28906,-13.56279 -30.28906,-30.28906 0,-16.72666 13.5624,-30.28711 30.28906,-30.28711 z"
            style="fill:#000000;stroke-width:96"/>

      <polygon id="_59363200" style="fill:#000000"
               points="3.86632,3.25595 3.86632,2.33928 4.10069,2.33928 4.10069,3.25595 "/>
      <polygon id="_60341256" style="fill:#000000"
               points="6.34375,2.52157 5.73437,2.52157 5.73437,2.69345 6.27257,2.69345 6.27257,2.87574 5.73437,2.87574 5.73437,3.07366 6.34375,3.07366 6.34375,3.25595 5.5,3.25595 5.5,2.33928 6.34375,2.33928 "/>
      <path id="_58433520" transform="scale(0.01041667)"
            d="m 416,224.57227 v 87.99804 l 47.83398,0.002 c 30.26381,0 49.88319,-16.95284 49.88282,-43.83399 0,-26.88 -19.61901,-44.16601 -49.88282,-44.16601 z m 22.5,17.49804 h 24.66602 c 16.72665,0 26.0371,9.94122 26.0371,26.66797 0,16.72781 -9.31048,26.66602 -26.0371,26.66602 H 438.5 Z"
            style="fill:#000000;stroke-width:96"/>

      <path id="_58602736" transform="scale(0.01041667)"
            d="m 137.33398,224.57227 v 87.99804 l 47.83399,0.002 c 30.26534,0 49.88476,-16.95284 49.88476,-43.83399 0,-26.88 -19.61942,-44.16601 -49.88476,-44.16601 z m 22.5,17.49804 H 184.5 c 16.72819,0 26.03906,9.94122 26.03906,26.66797 0,16.72781 -9.3109,26.66602 -26.03906,26.66602 h -24.66602 z"
            style="fill:#000000;stroke-width:96"/>

      <path id="_58431744" style="fill:#000000"
            d="M 1.02804,2.93748 C 0.9808471,3.052267 0.867918,3.13309 0.736111,3.13309 c -0.174236,0 -0.315484,-0.141264 -0.315484,-0.3155 0,-0.174236 0.141248,-0.3155 0.315484,-0.3155 0.131807,0 0.244736,0.080819 0.291933,0.19561 l 0.262874,6.69e-5 C 1.230304,2.4755899 1.004902,2.3105899 0.736111,2.3105899 c -0.315252,0 -0.570831,0.226984 -0.570831,0.507 -3.94e-6,0.28 0.255583,0.507 0.570831,0.507 0.268791,0 0.494197,-0.165 0.554807,-0.387181 z"/>
  </g>
 </g>
</svg>