<?xml version="1.0" encoding="UTF-8" standalone="no"?>
<svg xmlns:dc="http://purl.org/dc/elements/1.1/" xmlns:cc="http://creativecommons.org/ns#"
     xmlns:rdf="http://www.w3.org/1999/02/22-rdf-syntax-ns#" xmlns="http://www.w3.org/2000/svg" id="svg8" version="1.1"
     viewBox="0 0 175.74976 36.689001" height="475.84772" width="2279.4331">
  <metadata id="metadata14">
    <rdf:RDF>
      <cc:Work rdf:about="">
        <dc:format>image/svg+xml</dc:format>
        <dc:type rdf:resource="http://purl.org/dc/dcmitype/StillImage"/>
        <dc:title></dc:title>
      </cc:Work>
    </rdf:RDF>
  </metadata>
  <defs id="defs12"/>
  <path
      d="m 38.473383,9.372 1.751,-3.032 c -1.224,-0.895 -3.06,-1.417 -5.322,-1.417 -6.04,0 -13.125,3.704 -15.794,8.327 -2.626,4.549 0.168,8.278 6.208,8.278 2.262,0 4.687,-0.498 6.943,-1.393 l 1.765,-3.058 c -1.688,0.944 -3.585,1.517 -5.3,1.517 -3.505,0 -4.971,-2.412 -3.264,-5.37 1.723,-2.982 5.973,-5.394 9.478,-5.394 1.715,0.001 2.936,0.597 3.535,1.542 z m 28.431,15.161 1.75,-3.031 c -1.223,-0.895 -3.059,-1.418 -5.321,-1.418 -6.04,0 -13.125,3.705 -15.794,8.328 -2.626,4.549 0.168,8.277 6.208,8.277 2.262,0 4.687,-0.498 6.943,-1.393 l 1.765,-3.057 c -1.688,0.943 -3.585,1.516 -5.3,1.516 -3.505,0 -4.972,-2.41 -3.264,-5.369 1.722,-2.982 5.973,-5.395 9.478,-5.395 1.715,0.001 2.937,0.599 3.535,1.542 z m -20.187,-13.769 c 3.107,0 4.566,1.864 3.231,4.176 -1.32,2.287 -4.932,4.15 -8.039,4.15 -3.107,0 -4.566,-1.864 -3.246,-4.15 1.335,-2.312 4.946,-4.176 8.054,-4.176 z m -0.847,1.466 c 1.466,0 2.006,1.218 1.145,2.709 -0.847,1.466 -2.792,2.685 -4.259,2.685 -1.467,0 -2.006,-1.218 -1.16,-2.685 0.861,-1.491 2.807,-2.709 4.274,-2.709 z m 75.892997,17.126 h -5.195 c 0.983,-1.143 2.525,-1.963 3.769,-1.963 1.167,0 1.763,0.82 1.426,1.963 z m 2.125,1.443 h -8.178 c -0.337,1.143 0.258,1.963 1.525,1.963 l 4.635,0.025 -0.848,1.467 h -4.672 c -3.107,0 -4.566,-1.865 -3.246,-4.152 1.334,-2.311 4.946,-4.176 8.053,-4.176 3.107,0 4.566,1.865 3.232,4.176 -0.072,0.125 -0.39,0.547 -0.501,0.697 z m 34.066,-1.443 h -5.195 c 0.983,-1.143 2.525,-1.963 3.768,-1.963 1.168,0 1.764,0.82 1.427,1.963 z m 2.125,1.443 h -8.178 c -0.337,1.143 0.258,1.963 1.525,1.963 l 4.635,0.025 -0.848,1.467 h -4.673 c -3.106,0 -4.565,-1.865 -3.245,-4.152 1.334,-2.311 4.946,-4.176 8.053,-4.176 3.107,0 4.566,1.865 3.231,4.176 -0.07,0.125 -0.389,0.547 -0.5,0.697 z M 56.759383,10.764 h 2.933 l -0.301,0.522 c 0.981,-0.323 2.017,-0.522 2.986,-0.522 1.616,0 2.781,0.522 3.336,1.367 1.507,-0.845 3.364,-1.392 5.005,-1.392 3.032,0 4.506,1.839 3.235,4.126 l -2.361,4.176 h -2.933 l 2.382,-4.126 c 0.861,-1.491 0.257,-2.685 -1.185,-2.685 -1.466,0 -3.384,1.168 -4.245,2.66 -0.024,0 -2.117,3.753 -2.361,4.177 h -2.933 l 2.396,-4.152 c 0.861,-1.491 0.282,-2.685 -1.16,-2.685 -1.392,0 -3.124,1.02 -4.058,2.336 l -2.612,4.523 h -2.933 z m 74.496997,15.883 h -2.436 l 0.015,1.74 h 1.466 l -0.965,1.715 c -1.271,2.287 0.824,4.127 4.677,4.127 l 0.797,-1.467 c -1.814,0 -2.717,-1.193 -1.855,-2.684 0.272,-0.473 0.617,-1.07 0.951,-1.691 h 6.413 l -0.951,1.691 c -1.271,2.285 0.8,4.125 4.677,4.125 l 0.783,-1.441 c -1.79,0 -2.692,-1.193 -1.831,-2.684 l 0.976,-1.691 h 3.903 l -0.015,-1.74 h -2.884 l 0.976,-1.689 h -3.729 l -0.926,1.689 h -6.363 c 0.345,-0.596 0.688,-1.193 0.976,-1.689 h -3.679 z m -28.75,-12.975 h -4.349997 c -1.591,0 -3.651,1.243 -4.512,2.734 -0.861,1.492 0.239,2.684 1.831,2.684 h 7.183997 l 2.375,-4.2 c 1.271,-2.287 -0.203,-4.126 -3.235,-4.126 h -2.957997 l -0.847,1.466 h 2.982997 c 0.995,0 1.559,0.572 1.529,1.442 z m -0.513,1.491 c -0.499,0.821 -0.958,1.616 -1.432,2.436 h -2.584997 c -0.745,0 -1.026,-0.547 -0.624,-1.243 0.372,-0.646 1.285,-1.193 2.03,-1.193 z M 77.098383,28.834 h -4.35 c -1.591,0 -3.65,1.244 -4.512,2.734 -0.861,1.492 0.24,2.686 1.831,2.686 h 7.184 l 2.375,-4.201 c 1.271,-2.287 -0.203,-4.127 -3.235,-4.127 h -2.958 l -0.847,1.467 h 2.983 c 0.994,0 1.559,0.572 1.529,1.441 z m -0.513,1.492 c -0.499,0.82 -0.958,1.615 -1.432,2.436 h -2.585 c -0.746,0 -1.026,-0.547 -0.625,-1.242 0.373,-0.646 1.286,-1.193 2.031,-1.193 h 2.611 z m 42.504997,-17.35 0.903,-1.566 c -0.64,-0.397 -1.564,-0.646 -2.659,-0.646 -3.156,0 -6.843,1.864 -8.178,4.176 -1.32,2.287 0.214,4.15 3.37,4.15 1.094,0 2.292,-0.223 3.392,-0.621 l 0.904,-1.565 c -0.855,0.447 -1.783,0.721 -2.653,0.721 -1.79,0 -2.603,-1.218 -1.756,-2.685 0.861,-1.492 3.08,-2.709 4.87,-2.709 0.87,-10e-4 1.468,0.298 1.807,0.745 z M 86.485383,12.23 c 1.467,0 2.006,1.218 1.146,2.709 -0.847,1.466 -2.793,2.685 -4.259,2.685 -1.467,0 -2.006,-1.218 -1.16,-2.685 0.861,-1.491 2.807,-2.709 4.273,-2.709 z m -4.831,-1.491 h 2.933 l -0.33,0.572 c 1.021,-0.348 2.08,-0.547 3.075,-0.547 3.107,0 4.566,1.864 3.231,4.176 -1.32,2.287 -4.932,4.15 -8.039,4.15 -0.995,0 -1.838,-0.174 -2.458,-0.521 l -2.253,3.902 h -2.933 z m -0.451,23.515 0.847,-1.467 h 4.276 c 0.472,0 1.031,-0.324 1.261,-0.721 0.244,-0.424 0.058,-0.746 -0.365,-0.746 h -0.696 c -1.864,0 -3.264,-1.193 -2.402,-2.686 0.861,-1.49 3.478,-2.709 5.343,-2.709 h 6.835 l -0.847,1.467 h -4.052 c -0.472,0 -1.031,0.324 -1.261,0.721 -0.244,0.422 -0.058,0.746 0.365,0.746 h 0.695 c 1.864,0 3.264,1.193 2.402,2.684 -0.861,1.492 -3.479,2.711 -5.342,2.711 z m 15.262,0 0.847,-1.467 h 4.274997 c 0.473,0 1.031,-0.324 1.262,-0.721 0.243,-0.424 0.058,-0.746 -0.365,-0.746 h -0.696 c -1.863997,0 -3.263997,-1.193 -2.401997,-2.686 0.860997,-1.49 3.478997,-2.709 5.342997,-2.709 h 6.835 l -0.847,1.467 h -4.051 c -0.473,0 -1.032,0.324 -1.262,0.721 -0.244,0.422 -0.058,0.746 0.365,0.746 h 0.695 c 1.865,0 3.264,1.193 2.402,2.684 -0.861,1.492 -3.479,2.711 -5.342,2.711 z M 124.35438,13.2 l -0.98,1.74 c -1.27,2.287 0.179,4.127 3.236,4.127 l 36.425,0.023 c 1.616,0 3.694,-1.317 4.627,-2.933 l 7.635,-13.224 c 0.933,-1.616 0.376,-2.933 -1.24,-2.933 H 18.927383 c -1.616,0 -3.693,1.317 -4.626,2.933 L 0.45238252,26.92 c -0.933,1.615 -0.376,2.934 1.23999998,2.934 H 41.338383 l 0.861,-1.492 H 2.5523825 c -0.82,0 -1.093,-0.645 -0.62,-1.465 L 15.766383,2.934 c 0.474,-0.82 1.493,-1.466 2.313,-1.466 H 173.18438 c 0.82,0 1.094,0.646 0.62,1.466 l -7.621,13.199 c -0.474,0.82 -1.492,1.466 -2.313,1.466 h -36.439 c -1.441,0 -2.021,-1.193 -1.159,-2.685 0.287,-0.497 0.631,-1.094 0.965,-1.715 h 4.475 l -0.026,-1.591 h -3.505 l 1.048,-1.814 h -2.933 l -1.048,1.814 h -1.467 l 0.026,1.591 h 0.547 z"
      id="path4" style="clip-rule:evenodd;fill-rule:evenodd"/>
</svg>
