<?xml version="1.0" encoding="UTF-8" standalone="no"?>
<svg xmlns:dc="http://purl.org/dc/elements/1.1/" xmlns:cc="http://creativecommons.org/ns#"
     xmlns:rdf="http://www.w3.org/1999/02/22-rdf-syntax-ns#" xmlns="http://www.w3.org/2000/svg" width="1421.7864"
     height="563.07031" viewBox="0 0 109.62314 43.414073" version="1.1" id="svg185">
    <metadata id="metadata191">
        <rdf:RDF>
            <cc:Work rdf:about="">
                <dc:format>image/svg+xml</dc:format>
                <dc:type rdf:resource="http://purl.org/dc/dcmitype/StillImage"/>
                <dc:title></dc:title>
            </cc:Work>
        </rdf:RDF>
    </metadata>
    <defs id="defs189"/>
    <path id="path143"
          d="M 2.5754288e-5,0 V 40.146105 C -0.00897425,41.683105 2.3430058,42.179048 3.6800078,41.572047 11.072008,38.670048 16.382025,30.681057 16.382025,21.279057 16.382025,10.379057 9.2440248,1.377 2.5754288e-5,0 Z M 19.37908,0 v 40.146105 c -0.008,1.537 2.343984,2.032943 3.679983,1.425942 7.392001,-2.901999 12.702018,-10.89099 12.702018,-20.29299 C 35.761081,10.379057 28.62408,1.377 19.37908,0 Z m 28.086959,0.260069 c -5.025,0 -9.947017,2.254939 -10.254017,9.022939 -0.307,6.768 5.230022,9.330979 8.101023,10.664979 2.870999,1.332 6.357032,3.279073 6.357032,8.611073 0,8.511 -8.51004,8.817985 -11.48404,8.817985 -1.846001,0.204999 -1.743005,3.076018 -0.103005,3.077018 H 58.02711 V 0.260069 Z m 17.326957,1.291917 v 9.370051 h 3.216014 c 3.123002,0 4.501,-1.77105 4.501,-4.90805 0,-3.018001 -1.614,-4.462001 -4.501,-4.462001 z m 1.245987,1.050069 h 2.100137 c 2.296997,0 3.124005,1.352003 3.124005,3.583003 0,3.451999 -2.297058,3.687964 -3.150057,3.687964 h -2.073031 -0.0011 z"
          style="clip-rule:evenodd;fill-rule:evenodd;stroke-width:1"/>
    <path id="path147"
          d="m 73.913065,1.551986 v 1.365105 h 1.11497 V 1.551986 Z m 5.617033,2.428124 c -2.349001,0 -3.137104,1.982003 -3.137104,3.583002 0,1.850001 1.010088,3.438889 3.031089,3.438889 0.853993,0 1.744989,-0.406941 2.113985,-1.23394 h 0.02501 v 0.446049 c 0,1.522 -0.578029,2.571938 -2.034031,2.571938 -0.736004,0 -1.706053,-0.289023 -1.759053,-1.102023 h -1.11497 c 0.066,1.483 1.536065,1.995025 2.808062,1.995025 2.139006,0 3.150959,-1.128023 3.150959,-3.333023 V 4.137026 h -1.050967 v 0.971008 h -0.01295 C 81.144129,4.360034 80.382103,3.98011 79.530106,3.98011 Z m -5.617033,0.15797 v 6.785011 h 1.11497 V 4.13808 Z m 5.668985,0.827043 c 1.403001,0 1.928015,1.233972 1.928015,2.427972 0,1.273001 -0.550026,2.623892 -2.020029,2.623892 -1.469996,0 -1.917012,-1.363888 -1.917012,-2.584889 0,-1.298999 0.578028,-2.466975 2.009026,-2.466975 z"
          style="clip-rule:evenodd;fill-rule:evenodd;stroke-width:1"/>
    <path id="path151"
          d="M 84.358035,1.551986 V 2.917091 H 85.47511 V 1.551986 Z m 3.281971,0.55312 V 4.139134 H 86.48603 v 0.983959 h 1.153976 v 4.316981 c 0,1.247 0.459122,1.483017 1.613121,1.483017 h 0.854002 V 9.939132 h -0.512006 c -0.695001,0 -0.839992,-0.09202 -0.839992,-0.60402 V 5.122039 h 1.351998 V 4.13808 H 88.755131 V 2.105106 Z m 6.46801,1.875908 c -1.508,0 -2.80896,0.590003 -2.87296,2.270002 h 1.11497 c 0.052,-0.996999 0.74809,-1.285893 1.69309,-1.285893 0.709,0 1.50787,0.157978 1.50787,1.128978 0,0.84 -1.04896,0.76091 -2.28296,0.99691 -1.154,0.223 -2.296957,0.551036 -2.296957,2.087035 0,1.352001 1.011957,1.903015 2.243947,1.903015 0.946,0 1.77197,-0.328069 2.38897,-1.05007 0,0.735001 0.36711,1.05007 0.94511,1.05007 0.356,0 0.60399,-0.06602 0.80099,-0.184022 h 9.3e-4 v -0.866048 c -0.10915,0.04211 -0.22501,0.06415 -0.342,0.06506 -0.354,0 -0.35388,-0.235935 -0.35388,-0.760935 V 5.844125 c 0,-1.588001 -1.32609,-1.863107 -2.54709,-1.863107 z M 84.358035,4.13808 v 6.785011 H 85.47511 V 4.13808 Z m 11.181951,3.280917 v 1.14208 c 0,0.617 -0.60293,1.53497 -2.07393,1.53497 -0.681,0 -1.31195,-0.262061 -1.31195,-0.997061 0,-0.827 0.63096,-1.089988 1.36496,-1.220988 0.74799,-0.131 1.58692,-0.145 2.02092,-0.459001 z"
          style="clip-rule:evenodd;fill-rule:evenodd;stroke-width:1"/>
    <path id="path155"
          d="m 98.452106,1.551986 v 9.371105 h 1.11498 V 1.551986 Z M 64.792996,16.523104 V 25.8921 h 3.216014 c 3.123002,0 4.501,-1.77105 4.501,-4.90805 0,-3.018 -1.614,-4.460946 -4.501,-4.460946 z m 1.245987,1.049015 h 2.100137 c 2.296997,0 3.124005,1.352002 3.124005,3.583002 0,3.452001 -2.297058,3.687965 -3.150057,3.687965 h -2.073031 -0.0011 z"
          style="clip-rule:evenodd;fill-rule:evenodd;stroke-width:1"/>
    <path id="path159"
          d="m 76.616013,18.951077 c -1.508994,0 -2.808015,0.591003 -2.874015,2.270003 h 1.116026 c 0.052,-0.996 0.748086,-1.28499 1.693084,-1.28499 0.708001,0 1.508925,0.156978 1.508925,1.128978 0,0.84 -1.050011,0.760006 -2.284012,0.996007 -1.153999,0.225 -2.296958,0.552939 -2.296958,2.087939 0,1.351 1.011006,1.90211 2.245006,1.90211 0.944998,0 1.771968,-0.328015 2.388972,-1.049015 0,0.735001 0.366953,1.049015 0.944952,1.049015 0.354,0 0.603087,-0.06702 0.800091,-0.184022 h -0.0011 v -0.864993 c -0.143997,0.05 -0.249935,0.064 -0.340939,0.064 -0.354001,0 -0.354039,-0.236989 -0.354039,-0.761988 v -3.490089 c 0,-1.588 -1.325036,-1.862956 -2.546037,-1.862956 z m 1.430011,3.436929 h 0.0011 c 0,2.32e-4 -7.71e-4,5.4e-4 -0.0011,7.71e-4 v 1.14223 c 0,0.617001 -0.603026,1.535121 -2.073029,1.535121 -0.682002,0 -1.311944,-0.262006 -1.311944,-0.996006 0,-0.828001 0.62995,-1.089989 1.364951,-1.220989 0.747408,-0.132895 1.586722,-0.145085 2.020022,-0.460356 z"
          style="clip-rule:evenodd;fill-rule:evenodd;stroke-width:1"/>
    <path id="path163"
          d="m 81.327093,17.074115 v 2.033877 h -1.153976 v 0.98411 h 1.153976 v 4.316981 c 0,1.248 0.458975,1.481963 1.612975,1.481963 h 0.854001 v -0.982002 h -0.512006 c -0.695001,0 -0.84,-0.09092 -0.84,-0.604922 v -4.21202 h 1.352006 v -0.98411 h -1.352006 v -2.033877 z m 6.468922,1.876962 c -1.507999,0 -2.808971,0.591003 -2.872966,2.270003 h 1.11497 c 0.052,-0.996 0.748094,-1.28499 1.693092,-1.28499 0.709002,0 1.508015,0.156978 1.508015,1.128978 0,0.84 -1.049102,0.760006 -2.283103,0.996007 -1.153999,0.225 -2.296957,0.552939 -2.296957,2.087939 0,1.351 1.011945,1.90211 2.243949,1.90211 0.946,0 1.771968,-0.328015 2.388964,-1.049015 0,0.735001 0.369113,1.049015 0.945114,1.049015 0.355997,0 0.603989,-0.06702 0.800986,-0.184022 h 9.25e-4 v -0.864993 c -0.144999,0.05 -0.249989,0.064 -0.341988,0.064 -0.354,0 -0.353884,-0.236989 -0.353884,-0.761988 v -3.490089 c 0,-1.588 -1.326092,-1.862956 -2.547094,-1.862956 z m 1.431059,3.436929 v 1.142983 c 0,0.617001 -0.603079,1.535122 -2.074077,1.535122 -0.681007,0 -1.311952,-0.262007 -1.311952,-0.996007 0,-0.828 0.630952,-1.089989 1.36496,-1.220989 0.747993,-0.133 1.587075,-0.145108 2.021069,-0.461109 z"
          style="clip-rule:evenodd;fill-rule:evenodd;stroke-width:1"/>
    <path id="path167"
          d="m 67.941093,31.065039 c -1.707,0 -3.398981,0.840062 -3.398981,2.744062 0,1.718 1.508885,2.151926 3.004886,2.479926 1.496002,0.328 2.992081,0.551001 2.992081,1.836001 0,1.353 -1.245959,1.707096 -2.374961,1.707096 -1.417,0 -2.729003,-0.682107 -2.729003,-2.258107 h -1.181986 c 0,2.284 1.771986,3.309079 3.871986,3.309079 1.706003,0 3.661913,-0.801071 3.661913,-2.797071 0,-1.836 -1.495933,-2.360951 -2.991935,-2.702951 -1.509001,-0.34 -3.005036,-0.511984 -3.005036,-1.665984 0,-1.221 1.049986,-1.601983 2.099986,-1.601983 1.285997,0 2.17801,0.577964 2.323009,1.915965 v 0.0011 h 1.180029 c -0.079,-2.061001 -1.535988,-2.967087 -3.451988,-2.967087 z m 5.606036,0.775089 v 2.032974 h -1.155032 v 0.985013 h 1.155032 V 39.176 c 0,1.246 0.458883,1.482113 1.613885,1.482113 h 0.853092 v -0.984109 h -0.512007 c -0.695001,0 -0.84,-0.09187 -0.84,-0.603869 v -4.213074 h 1.352007 v -0.983959 h -1.352007 v -2.032974 z m 6.62689,1.875908 c -2.151997,0 -3.294015,1.56095 -3.294015,3.55695 0,1.981001 1.141015,3.543097 3.294015,3.543097 2.152005,0 3.292966,-1.563096 3.292966,-3.543097 0,-1.996 -1.140961,-3.55695 -3.292966,-3.55695 z m 0,0.985013 c 1.168001,0 2.110979,0.917938 2.110979,2.571937 0,1.641 -0.942978,2.559138 -2.110979,2.559138 -1.168001,0 -2.112991,-0.918138 -2.113986,-2.559138 0,-1.653999 0.945985,-2.571937 2.113986,-2.571937 z"
          style="clip-rule:evenodd;fill-rule:evenodd;stroke-width:1"/>
    <path id="path171"
          d="m 91.917076,33.716036 c -1.509996,0 -2.808963,0.590003 -2.872966,2.270003 h 1.11497 c 0.05201,-0.996 0.74794,-1.28499 1.692946,-1.28499 0.707,0 1.50801,0.155978 1.50801,1.128978 0,0.84 -1.04895,0.760006 -2.28295,0.996007 -1.154001,0.222999 -2.296959,0.551089 -2.296959,2.088089 0,1.351 1.011946,1.90196 2.24395,1.90196 0.945999,0 1.771969,-0.327972 2.388969,-1.050972 0,0.737 0.36696,1.050972 0.94495,1.050972 0.354,0 0.604,-0.06702 0.801,-0.184022 h 0.001 v -0.86695 c -0.10912,0.04231 -0.22497,0.06466 -0.342,0.06596 -0.354,10e-7 -0.35404,-0.236988 -0.35404,-0.761988 v -3.490088 c 0,-1.588001 -1.32593,-1.862957 -2.54693,-1.862957 z m -3.826954,4.63e-4 c -1.078693,0.03085 -1.767703,0.566705 -2.273017,1.58858 h -0.025 v -1.431966 h -1.051122 v 6.785915 h 1.115116 v -3.017987 c 0,-1.719 0.655934,-2.743912 2.454933,-2.743912 v -1.180028 c -0.07543,-0.0024 -0.149004,-0.0027 -0.22091,-6.17e-4 z m 5.257864,3.437532 v 1.142982 c 0,0.617001 -0.60493,1.535122 -2.07393,1.535122 -0.680997,0 -1.311941,-0.262115 -1.311941,-0.998116 0,-0.825999 0.630952,-1.087988 1.364951,-1.220988 0.748,-0.131 1.58692,-0.145 2.02092,-0.459 z"
          style="clip-rule:evenodd;fill-rule:evenodd;stroke-width:1"/>
    <path id="path175"
          d="m 98.964116,33.717994 c -2.35,0 -3.1371,1.980099 -3.1371,3.582099 0,1.851 1.01009,3.439038 3.03109,3.439038 0.853,0 1.745934,-0.40809 2.112944,-1.23409 h 0.025 v 0.444995 c 0,1.523 -0.57597,2.572088 -2.032974,2.572088 -0.737,0 -1.70696,-0.288022 -1.75996,-1.102022 h -1.11512 c 0.067,1.482 1.53612,1.99397 2.80912,1.99397 2.138004,0 3.149904,-1.126968 3.149904,-3.331968 v -6.209002 h -1.05097 v 0.97402 h -0.011 c -0.408,-0.748 -1.166934,-1.129128 -2.020934,-1.129128 z m 0.052,0.982001 c 1.404994,0 1.928004,1.233124 1.928004,2.428123 0,1.272001 -0.55102,2.624946 -2.020024,2.624946 -1.471,0 -1.91596,-1.364942 -1.91596,-2.585943 0,-1.299 0.57598,-2.467126 2.00798,-2.467126 z"
          style="clip-rule:evenodd;fill-rule:evenodd;stroke-width:1"/>
    <path id="path179"
          d="m 106.54907,33.71709 c -1.851,0 -3.18906,1.495941 -3.18906,3.528941 0.065,2.073999 1.09011,3.570052 3.25411,3.570052 1.5227,0 2.59853,-0.814638 2.89978,-2.31006 h -1.10187 c -0.198,0.880999 -0.83995,1.326101 -1.75996,1.326101 -1.482,0 -2.15198,-1.050097 -2.11097,-2.230097 h 5.07791 c 0.067,-1.641 -0.66994,-3.884937 -3.06994,-3.884937 z m 2.96483,4.788933 v 0 -9.02e-4 c -6e-5,3.08e-4 0,6.16e-4 0,9.02e-4 z m -3.03079,-3.804974 c 1.101,0 1.90197,0.851965 1.95497,1.915965 H 104.542 c 0.078,-1.037 0.77311,-1.915965 1.94111,-1.915965 z"
          style="clip-rule:evenodd;fill-rule:evenodd;stroke-width:1"/>
</svg>
