<?xml version="1.0" encoding="UTF-8" standalone="no"?>
<svg xmlns:dc="http://purl.org/dc/elements/1.1/" xmlns:cc="http://creativecommons.org/ns#"
     xmlns:rdf="http://www.w3.org/1999/02/22-rdf-syntax-ns#" xmlns="http://www.w3.org/2000/svg" id="svg10" version="1.1"
     viewBox="0 0 187.087 79.657001" height="1033.1326" width="2426.4744">
  <metadata id="metadata16">
    <rdf:RDF>
      <cc:Work rdf:about="">
        <dc:format>image/svg+xml</dc:format>
        <dc:type rdf:resource="http://purl.org/dc/dcmitype/StillImage"/>
        <dc:title></dc:title>
      </cc:Work>
    </rdf:RDF>
  </metadata>
  <defs id="defs14"/>
  <path
      d="m 32.37,0 0.001,18.618 c 0,3.173 0.212,6.876 0.423,8.039 C 30.149,24.542 27.081,23.59 23.167,23.59 9.415,23.591 0,35.227 0,52.153 c 0.001,16.82 8.676,27.504 22.429,27.504 4.867,0 8.992,-1.482 12.482,-4.551 0.212,1.48 0.423,2.328 0.847,3.174 H 48.453 C 47.501,76.165 46.443,71.827 46.442,58.499 L 46.44,2.221 Z m 0.214,64.212 c -1.375,1.691 -4.337,3.49 -6.982,3.49 -7.405,0 -9.838,-3.809 -9.839,-15.443 0,-12.061 2.75,-17.349 9.097,-17.349 2.539,0 5.077,1.163 7.723,3.49 z M 53.928,78.28 68.104,78.278 68.102,22.848 53.925,25.07 Z M 52.337,9.202 c 10e-4,4.866 3.915,8.78 8.676,8.779 a 8.758,8.758 0 0 0 8.78,-8.78 c 0,-4.866 -3.809,-8.78 -8.569,-8.779 -4.867,0 -8.887,3.915 -8.887,8.78 z m 38.921,14.809 c 0,-5.501 0.317,-11.319 0.846,-16.291 l -14.388,3.597 c -0.529,4.02 -0.528,7.616 -0.528,12.906 h -5.395 v 9.203 h 5.395 l 10e-4,29.831 c 0,4.973 0.106,6.029 0.952,8.357 1.587,4.76 7.406,7.934 14.6,7.934 3.702,0 7.405,-0.742 11.53,-2.434 l -1.797,-8.463 c -2.539,0.74 -3.809,1.059 -5.078,1.059 -4.867,0 -6.136,-1.799 -6.137,-8.676 L 91.258,33.426 h 9.097 l 0.035,-9.415 z m 31.088,-0.002 c -0.002,-5.5 0.316,-11.319 0.844,-16.291 l -14.387,3.598 c -0.529,4.02 -0.527,7.616 -0.527,12.906 h -5.396 l 0.002,9.204 h 5.395 l 0.002,29.83 c 0,4.973 0.105,6.031 0.951,8.357 1.588,4.76 7.406,7.934 14.6,7.934 3.703,0 7.406,-0.74 11.531,-2.434 l -1.799,-8.463 c -2.539,0.74 -3.809,1.059 -5.078,1.059 -4.865,0 -6.137,-1.799 -6.137,-8.674 v -27.61 h 9.098 l 3.596,-9.416 z"
      id="path4" style="clip-rule:evenodd;fill-rule:evenodd"/>
  <path
      d="m 133.014,51.407 c 0.002,17.031 9.629,28.031 24.332,28.031 8.357,0 13.754,-2.857 17.879,-7.512 4.654,-5.289 6.77,-11.637 6.77,-20.945 0,-8.779 -1.904,-14.704 -6.242,-19.781 -4.654,-5.501 -10.686,-8.145 -18.408,-8.145 -14.599,0.001 -24.331,11.321 -24.331,28.352 z m 30.677,-15.023 c 1.904,2.433 2.857,7.193 2.857,14.492 0.002,12.801 -2.643,18.301 -8.779,18.301 -2.75,0 -5.924,-1.48 -7.193,-4.441 -1.164,-2.75 -1.799,-7.406 -1.799,-13.646 0,-5.395 0.527,-9.203 1.48,-12.06 1.162,-3.385 3.914,-5.501 7.299,-5.501 2.54,-0.001 4.76,1.057 6.135,2.855 z m 16.733,-15.545 h -1.528 v 4.811 h -0.746 v -4.811 h -1.529 v -0.502 h 3.803 z m 3.728,4.048 c 0.311,-0.88 0.879,-2.307 1.777,-4.55 h 1.158 v 5.313 h -0.695 c 0,-2.339 0.004,-3.917 0.023,-4.768 h -0.027 c -0.316,0.848 -0.928,2.379 -1.9,4.768 h -0.697 c -0.941,-2.343 -1.576,-3.919 -1.896,-4.768 h -0.027 c 0.023,0.851 0.025,2.426 0.025,4.768 H 181.2 v -5.313 h 1.16 c 0.895,2.257 1.467,3.673 1.773,4.55 z"
      id="path6" style="clip-rule:evenodd;fill-rule:evenodd"/>
</svg>
