<?xml version="1.0" encoding="UTF-8" standalone="no"?>
<svg xmlns:dc="http://purl.org/dc/elements/1.1/" xmlns:cc="http://creativecommons.org/ns#"
     xmlns:rdf="http://www.w3.org/1999/02/22-rdf-syntax-ns#" xmlns="http://www.w3.org/2000/svg" id="svg16" version="1.1"
     viewBox="0 0 187.08799 93.380004" height="1211.1167" width="2426.4873">
  <metadata id="metadata22">
    <rdf:RDF>
      <cc:Work rdf:about="">
        <dc:format>image/svg+xml</dc:format>
        <dc:type rdf:resource="http://purl.org/dc/dcmitype/StillImage"/>
        <dc:title></dc:title>
      </cc:Work>
    </rdf:RDF>
  </metadata>
  <defs id="defs20"/>
  <path d="M -2.835,-49.689 H 189.921 V 143.067 H -2.835 Z" id="path2"
        style="clip-rule:evenodd;fill:#ffffff;fill-opacity:0;fill-rule:evenodd"/>
  <path
      d="m 9.174,47.18 c 0,-22.607 18.348,-40.956 40.956,-40.956 22.28,0 40.628,18.349 40.628,40.956 0,22.607 -18.349,40.957 -40.628,40.957 C 27.522,88.137 9.174,69.788 9.174,47.18 Z"
      id="path4" style="clip-rule:evenodd;fill:#e5e1b6;fill-rule:evenodd"/>
  <path
      d="m 9.174,47.18 c 0,-22.607 18.348,-40.956 40.956,-40.956 22.28,0 40.628,18.349 40.628,40.956 0,22.607 -18.349,40.957 -40.628,40.957 C 27.522,88.137 9.174,69.788 9.174,47.18 Z"
      id="path6" style="clip-rule:evenodd;fill:#e5e1b6;fill-rule:evenodd"/>
  <path
      d="m 88.137,78.963 h -2.621 v -0.656 h 5.569 v 0.656 h -2.293 v 6.879 h -0.655 z m 3.932,6.879 v -7.535 h 1.31 l 2.622,6.553 2.949,-6.553 h 0.983 v 7.535 h -0.657 v -6.879 l -2.947,6.879 h -0.656 l -2.949,-6.879 v 6.879 z M 144.165,72.737 H 129.421 V 32.764 h -14.09 V 19.986 h 42.596 v 12.778 h -13.762 z"
      id="path8" style="clip-rule:evenodd;fill:#c23c40;fill-rule:evenodd"/>
  <path
      d="m 121.558,60.286 h -19.66 v -40.3 H 84.861 C 76.67,8.519 62.581,0 46.526,0 21.297,0 0,21.297 0,46.526 0,72.083 21.297,93.38 46.526,93.38 c 16.055,0 30.144,-8.848 38.662,-20.643 h 36.37 z M 50.457,86.17 c -21.953,0 -39.318,-17.365 -39.318,-39.645 0,-21.953 17.365,-39.318 39.318,-39.318 22.28,0 39.645,17.366 39.645,39.318 10e-4,22.28 -17.365,39.645 -39.645,39.645 z"
      id="path10" style="clip-rule:evenodd;fill:#c23c40;fill-rule:evenodd"/>
  <path
      d="m 31.454,19.986 h 19.659 c 14.416,0.656 26.867,12.123 26.867,26.54 0,14.416 -12.778,25.557 -26.867,26.211 H 31.454 Z m 14.744,40.3 h 2.294 c 7.208,0 14.089,-5.896 14.089,-13.76 0,-7.864 -6.226,-13.762 -14.089,-13.762 h -2.294 z m 117.953,-1.311 h 4.26 v 4.916 h 18.676 v 4.26 h -18.676 v 4.586 h -4.26 z m 0.328,-8.518 22.607,-4.587 v 3.605 l -4.26,0.982 v 4.586 l 4.26,0.656 v 3.932 l -22.607,-4.914 z m 5.569,2.293 9.502,1.639 v -3.604 z m 17.039,-9.174 H 164.48 v -4.915 c 0,-1.966 1.311,-6.225 6.553,-6.225 5.242,0 6.553,4.259 6.553,6.553 v 0.655 h 9.502 v 3.932 z m -19.332,-3.603 h 6.553 l -0.326,-0.983 c 0,-0.982 -0.656,-2.621 -2.949,-2.621 -2.295,0 -3.277,1.639 -3.277,2.621 z m -3.276,-19.987 h 3.604 v 6.553 h 5.57 v -5.897 h 3.604 v 5.569 l 6.224,0.328 v -6.553 h 3.606 v 10.485 h -22.608 z"
      id="path12" style="clip-rule:evenodd;fill:#c23c40;fill-rule:evenodd"/>
</svg>
