<?xml version="1.0" encoding="UTF-8" standalone="no"?>
<svg xmlns:dc="http://purl.org/dc/elements/1.1/" xmlns:cc="http://creativecommons.org/ns#"
     xmlns:rdf="http://www.w3.org/1999/02/22-rdf-syntax-ns#" xmlns="http://www.w3.org/2000/svg" id="svg12" version="1.1"
     viewBox="0 0 199.99913 97.452003" height="97.452003" width="199.99913">
  <metadata id="metadata18">
    <rdf:RDF>
      <cc:Work rdf:about="">
        <dc:format>image/svg+xml</dc:format>
        <dc:type rdf:resource="http://purl.org/dc/dcmitype/StillImage"/>
        <dc:title>DVD logo</dc:title>
      </cc:Work>
    </rdf:RDF>
  </metadata>
  <defs id="defs16"/>
  <title id="title2">DVD logo</title>
  <path id="path4"
        d="m 113.895,15.572 c 0,0 -13.743,16.922 -13.04,18.001 0.975,-1.079 -4.934,-18.186 -4.934,-18.186 0,0 -1.233,-3.597 -5.102,-15.387 H 76.81 42.812 17.175 l -2.56,11.068 h 19.299 4.579 c 12.415,0 19.995,5.132 17.878,14.225 -2.287,9.901 -13.123,14.128 -24.665,14.128 H 27.39 L 32.942,15.213 H 13.647 L 5.455,50.581 h 27.398 c 20.612,0 40.166,-11.067 43.692,-25.288 0.617,-2.614 0.53,-9.185 -1.054,-13.053 0,-0.093 -0.091,-0.271 -0.178,-0.537 -0.087,-0.093 -0.178,-0.722 0.178,-0.814 0.172,-0.092 0.525,0.271 0.525,0.358 0,0 0.179,0.456 0.351,0.813 l 17.44,50.315 44.404,-51.216 18.761,-0.092 h 4.579 c 12.424,0 20.09,5.132 17.969,14.225 -2.29,9.901 -13.205,14.128 -24.75,14.128 h -4.405 L 156,15.213 h -19.287 l -8.198,35.368 h 27.398 c 20.611,0 40.343,-11.067 43.604,-25.288 C 202.864,11.068 188.416,0 167.627,0 h -18.143 -22.727 c -10.834,13.049 -12.862,15.572 -12.862,15.572 z"/>
  <path id="path6"
        d="M 94.424,62.555 C 42.281,62.555 0,68.675 0,76.238 c 0,7.558 42.281,13.678 94.424,13.678 52.239,0 94.524,-6.12 94.524,-13.678 0.001,-7.563 -42.284,-13.683 -94.524,-13.683 z m -3.346,18.544 c -11.98,0 -21.58,-2.072 -21.58,-4.595 0,-2.523 9.599,-4.59 21.58,-4.59 11.888,0 21.498,2.066 21.498,4.59 0,2.523 -9.61,4.595 -21.498,4.595 z"/>
  <polygon transform="translate(-5,-4.774)" id="polygon8"
           points="177.098,93.653 176.859,94.635 179.251,94.635 178.286,102.226 179.49,102.226 180.445,94.635 182.843,94.635 182.843,93.653 "/>
  <polygon transform="translate(-5,-4.774)" id="polygon10"
           points="190.504,93.653 187.384,99.534 185.968,93.653 185.013,93.653 182.36,102.226 183.337,102.226 185.475,95.617 186.917,102.226 190.276,95.617 190.504,102.226 191.453,102.226 191.453,93.653 "/>
</svg>
