<?xml version="1.0" encoding="UTF-8" standalone="no"?>
<svg xmlns:dc="http://purl.org/dc/elements/1.1/" xmlns:cc="http://creativecommons.org/ns#"
     xmlns:rdf="http://www.w3.org/1999/02/22-rdf-syntax-ns#" xmlns="http://www.w3.org/2000/svg" version="1.1" id="svg2"
     xml:space="preserve" width="28.522932" height="19.33696" viewBox="0 0 28.522932 19.33696"><metadata
     id="metadata8"><rdf:RDF><cc:Work
         rdf:about=""><dc:format>image/svg+xml</dc:format><dc:type
    rdf:resource="http://purl.org/dc/dcmitype/StillImage"/><dc:title></dc:title></cc:Work></rdf:RDF></metadata>
  <defs id="defs6"/>
  <g id="g10" transform="matrix(1.3333333,0,0,-1.3333333,0,24.332266)"><g
       id="g12"
       transform="scale(0.1)"><path
         d="m 181.469,82.8281 c 0,-12.4179 -12.821,-12.8164 -12.821,-12.8164 h -18.929 c -5.899,0 -7.731,5.8985 -7.731,5.8985 -2.039,2.8437 -3.465,0.4062 -3.465,0.4062 -1.429,-6.7187 -10.378,-6.3047 -10.378,-6.3047 h -15.059 c -14.4415,0 -14.6485,14.6524 -14.6485,14.6524 V 147.738 H 114.922 V 88.9297 c 0,-6.1016 7.738,-5.6953 7.738,-5.6953 9.969,0 9.559,6.0976 9.559,6.0976 v 58.203 h 16.277 V 89.1328 c 0,0 -0.812,-5.6914 8.957,-5.6914 6.297,0 6.719,5.4883 6.719,5.4883 v 59.4143 h 17.297 z M 72.1914,70.4102 62.0156,97.6758 c 0,0 0.2032,2.4532 -4.6797,2.4532 0,0 -6.707,-0.6212 -7.3281,-3.6759 V 70.2109 H 35.7656 v 30.1251 c 0,0 0.1953,13.215 12.0039,13.215 h 20.1563 c 0,0 5.8867,-0.203 5.8867,5.094 v 10.175 c 0,0 -1.2187,3.668 -4.4727,3.668 H 33.1172 l 0.2031,16.063 h 39.8789 c 0,0 15.0586,0.211 15.0586,-12.414 V 114.77 c 0,0 1.0195,-10.782 -11.7969,-14.247 L 88.4688,70.4102 Z M 195.164,182.492 H 18.7578 C 8.39453,182.492 0,174.105 0,163.738 V 56.2188 C 0,45.8594 8.39453,37.4648 18.7578,37.4648 H 195.164 c 10.359,0 18.758,8.3946 18.758,18.754 V 163.738 c 0,10.367 -8.399,18.754 -18.758,18.754"
         style="fill:#000000;fill-opacity:1;fill-rule:nonzero;stroke:none"
         id="path24" /></g></g></svg>