<?xml version="1.0" encoding="UTF-8" standalone="no"?>
<svg xmlns:dc="http://purl.org/dc/elements/1.1/" xmlns:cc="http://creativecommons.org/ns#"
     xmlns:rdf="http://www.w3.org/1999/02/22-rdf-syntax-ns#" xmlns="http://www.w3.org/2000/svg"
     viewBox="0 0 28.52 24.333332" height="24.333332" width="28.52" xml:space="preserve" id="svg2" version="1.1"><metadata
     id="metadata8"><rdf:RDF><cc:Work
         rdf:about=""><dc:format>image/svg+xml</dc:format><dc:type
    rdf:resource="http://purl.org/dc/dcmitype/StillImage"/><dc:title></dc:title></cc:Work></rdf:RDF></metadata>
    <defs id="defs6"/>
    <g transform="matrix(1.3333333,0,0,-1.3333333,0,24.333333)" id="g10"><g
       transform="scale(0.1)"
       id="g12"><path
         id="path14"
         style="fill:#000000;fill-opacity:1;fill-rule:nonzero;stroke:none"
         d="m 62.1211,4.12109 c 0.5508,0.19141 1.0469,0.61329 1.5195,1.27344 0.5782,0.82813 0.8946,2.3125 0.8946,4.45703 v 1.58594 2.5938 c 0,1.3671 -0.0977,2.4218 -0.2852,3.1367 -0.1523,0.7031 -0.6094,1.2734 -1.293,1.6718 -0.7187,0.4024 -1.8398,0.5821 -3.3125,0.5821 H 53.2227 V 3.80469 h 6.7148 c 0.9141,0 1.6211,0.09765 2.1836,0.3164 z M 48.7539,0 v 23.2344 h 11.1836 c 4.0977,0 6.7852,-1.0821 8.0156,-3.3086 0.7344,-1.3672 1.0742,-3.2539 1.0742,-5.6992 V 9.26563 c 0,-4.125 -1.1796,-6.87891 -3.5156,-8.24219 C 64.9961,0.726563 64.25,0.460938 63.3516,0.28125 62.4609,0.09375 61.6133,0 60.8516,0 H 48.7539" /><path
        id="path16" style="fill:#000000;fill-opacity:1;fill-rule:nonzero;stroke:none"
        d="M 77.3242,0 69.8594,23.2344 H 74.418 L 80.6406,3.68359 h 0.0664 l 6.2305,19.55081 h 4.6172 L 84.0195,0 h -6.6953"/><path
        id="path18" style="fill:#000000;fill-opacity:1;fill-rule:nonzero;stroke:none"
        d="m 106.484,4.12109 c 0.563,0.19141 1.055,0.61329 1.516,1.27344 0.59,0.82813 0.895,2.3125 0.895,4.45703 v 1.58594 2.5938 c 0,1.3671 -0.086,2.4218 -0.278,3.1367 -0.148,0.7031 -0.617,1.2734 -1.297,1.6718 -0.715,0.4024 -1.828,0.5821 -3.312,0.5821 H 97.5898 V 3.80469 h 6.7302 c 0.887,0 1.61,0.09765 2.164,0.3164 z M 93.1328,0 V 23.2344 H 104.32 c 4.086,0 6.785,-1.0821 7.993,-3.3086 0.734,-1.3672 1.078,-3.2539 1.078,-5.6992 V 9.26563 c 0,-4.125 -1.172,-6.87891 -3.493,-8.24219 C 109.363,0.726563 108.617,0.460938 107.723,0.28125 106.824,0.09375 105.988,0 105.207,0 H 93.1328"/><path
        id="path20" style="fill:#000000;fill-opacity:1;fill-rule:nonzero;stroke:none"
        d="m 122.164,10.2266 v 6.039 h 2.973 v -6.039 h 5.984 V 7.25 h -5.984 V 1.26953 h -2.973 V 7.25 h -6.039 v 2.9766 h 6.039"/><path
        id="path22" style="fill:#000000;fill-opacity:1;fill-rule:nonzero;stroke:none"
        d="M 139.055,19.4219 V 11.5 h 6.406 c 0.773,0 1.367,0.0547 1.797,0.1836 0.398,0.1211 0.805,0.3633 1.117,0.7109 0.434,0.5547 0.652,1.6368 0.652,3.2227 0,1.4609 -0.191,2.4531 -0.531,2.9805 -0.289,0.3242 -0.676,0.5859 -1.18,0.6757 -0.488,0.086 -1.171,0.1485 -1.984,0.1485 z m 13.066,2.0469 c 0.93,-1.0508 1.395,-2.75 1.395,-5.1524 0,-2.5586 -0.34,-4.2695 -1.028,-5.0703 -0.609,-0.75 -1.633,-1.27344 -3.093,-1.51563 V 9.64063 c 1.367,-0.13282 2.394,-0.58594 3.093,-1.40235 0.563,-0.89062 0.852,-2.1914 0.852,-3.92578 V 0 h -4.504 v 3.50781 c 0,0.80469 -0.027,1.47657 -0.121,1.9961 -0.063,0.54297 -0.285,0.96484 -0.598,1.34375 -0.297,0.33203 -0.672,0.58984 -1.113,0.68359 -0.426,0.09766 -1.024,0.14844 -1.731,0.14844 h -0.468 -5.75 V 0 h -4.465 v 23.2344 h 11.426 c 3.011,0 5.043,-0.5821 6.105,-1.7656"/><path
        id="path24" style="fill:#000000;fill-opacity:1;fill-rule:nonzero;stroke:none"
        d="m 181.469,82.8281 c 0,-12.4179 -12.821,-12.8164 -12.821,-12.8164 h -18.929 c -5.899,0 -7.731,5.8985 -7.731,5.8985 -2.039,2.8437 -3.465,0.4062 -3.465,0.4062 -1.429,-6.7187 -10.378,-6.3047 -10.378,-6.3047 h -15.059 c -14.4415,0 -14.6485,14.6524 -14.6485,14.6524 V 147.738 H 114.922 V 88.9297 c 0,-6.1016 7.738,-5.6953 7.738,-5.6953 9.969,0 9.559,6.0976 9.559,6.0976 v 58.203 h 16.277 V 89.1328 c 0,0 -0.812,-5.6914 8.957,-5.6914 6.297,0 6.719,5.4883 6.719,5.4883 v 59.4143 h 17.297 z M 72.1914,70.4102 62.0156,97.6758 c 0,0 0.2032,2.4532 -4.6797,2.4532 0,0 -6.707,-0.6212 -7.3281,-3.6759 V 70.2109 H 35.7656 v 30.1251 c 0,0 0.1953,13.215 12.0039,13.215 h 20.1563 c 0,0 5.8867,-0.203 5.8867,5.094 v 10.175 c 0,0 -1.2187,3.668 -4.4727,3.668 H 33.1172 l 0.2031,16.063 h 39.8789 c 0,0 15.0586,0.211 15.0586,-12.414 V 114.77 c 0,0 1.0195,-10.782 -11.7969,-14.247 L 88.4688,70.4102 Z M 195.164,182.492 H 18.7578 C 8.39453,182.492 0,174.105 0,163.738 V 56.2188 C 0,45.8594 8.39453,37.4648 18.7578,37.4648 H 195.164 c 10.359,0 18.758,8.3946 18.758,18.754 V 163.738 c 0,10.367 -8.399,18.754 -18.758,18.754"/></g></g></svg>