<?xml version="1.0" encoding="UTF-8" standalone="no"?>
<svg xmlns:dc="http://purl.org/dc/elements/1.1/" xmlns:cc="http://creativecommons.org/ns#"
     xmlns:rdf="http://www.w3.org/1999/02/22-rdf-syntax-ns#" xmlns="http://www.w3.org/2000/svg"
     viewBox="0 0 213.65412 166.3116" height="166.3116" width="213.65413" xml:space="preserve" id="svg2" version="1.1"><metadata
     id="metadata8"><rdf:RDF><cc:Work
         rdf:about=""><dc:format>image/svg+xml</dc:format><dc:type
    rdf:resource="http://purl.org/dc/dcmitype/StillImage"/><dc:title></dc:title></cc:Work></rdf:RDF></metadata>
    <defs id="defs6"/>
    <g transform="matrix(1.3333333,0,0,-1.3333333,-21.676533,211.65999)" id="g10"><path
       d="M 28.6395,140.205 H 143.35 c 6.813,0 12.381,-5.568 12.381,-12.381 V 64.2117 c 0,-6.8129 -5.568,-12.3812 -12.381,-12.3812 H 28.6395 c -6.8137,0 -12.3821,5.5683 -12.3821,12.3812 v 63.6123 c 0,6.813 5.5684,12.381 12.3821,12.381 z m 16.3777,18.54 H 161.627 c 8.189,0 14.871,-6.748 14.871,-14.937 V 78.6902 c 0,-8.189 -6.682,-14.8714 -14.871,-14.8714 h -2.816 v 3.4718 h 2.816 c 6.289,0 11.399,5.1106 11.399,11.3996 v 65.1178 c 0,6.289 -5.11,11.465 -11.399,11.465 H 45.0172 c -6.2891,0 -11.4649,-5.176 -11.4649,-11.465 v -0.131 h -3.4718 v 0.131 c 0,8.189 6.7476,14.937 14.9367,14.937 z M 130.247,84.9137 c 0,-13.1024 -8.451,-13.1024 -8.451,-13.1024 h -8.713 c -5.24,0 -7.272,5.5684 -7.272,5.5684 0,0 -2.03,-5.5684 -7.2712,-5.5684 h -9.0406 c 0,0 -8.4512,0 -8.4512,13.1024 v 35.2453 h 9.0407 V 85.241 c 0,0 0,-4.1269 2.8824,-4.1269 H 97.95 c 0,0 3.473,-0.2621 3.473,4.1269 v 35.18 h 8.45 v -35.18 c 0,-4.389 3.8,-4.1269 3.8,-4.1269 h 4.651 c 3.21,0 3.21,4.1269 3.21,4.1269 v 34.918 h 8.713 z M 74.1039,100.636 c 0,0 0,-6.9438 -6.4199,-9.6297 L 74.1039,72.4012 H 64.2117 L 58.6434,90.482 c 0,0 -8.1235,2.293 -8.1235,-2.6203 V 72.1391 h -8.4508 v 18.605 c 0,0 0,2.6207 2.8825,5.8305 2.6203,3.2102 5.241,2.8828 5.241,2.8828 h 13.1023 c 0,0 2.0305,-0.2625 2.0305,2.0966 v 7.534 c 0,0 0,2.358 -2.6203,2.358 H 41.4793 v 8.975 h 23.2566 c 0,0 9.368,-0.262 9.368,-10.155 z M 43.0516,47.1789 c -0.6551,0.7207 -1.834,1.1793 -3.4719,1.1793 H 29.8184 V 34.0113 h 9.7613 c 1.6379,0 2.8168,0.393 3.4719,1.1793 0.655,0.786 0.9828,2.0305 0.9828,3.7992 v 4.3243 c 0,1.8343 -0.3278,3.1441 -0.9828,3.8648 z m -9.9578,-9.4992 v 7.141 h 5.6996 c 0.7207,0 1.3105,-0.1965 1.5722,-0.5242 0.2621,-0.393 0.3934,-1.1137 0.3934,-2.0965 v -1.8996 c 0,-0.9828 -0.1313,-1.7688 -0.3934,-2.0965 -0.2617,-0.3277 -0.8515,-0.5242 -1.5722,-0.5242 z m 42.4515,9.4992 c -0.6551,0.7207 -1.8344,1.1793 -3.4066,1.1793 H 62.2461 V 34.0113 h 9.8926 c 1.5722,0 2.7515,0.393 3.4066,1.1793 0.7207,0.786 0.9828,2.0305 0.9828,3.7992 v 4.3243 c 0,1.8343 -0.2621,3.1441 -0.9828,3.8648 z m -4.2582,-2.3582 c 0.7863,0 1.2445,-0.1965 1.507,-0.5242 0.3274,-0.393 0.4582,-1.1137 0.4582,-2.0965 v -1.8996 c 0,-0.9828 -0.1308,-1.7688 -0.4582,-2.0965 -0.2625,-0.3277 -0.7207,-0.5242 -1.507,-0.5242 h -5.6992 v 7.141 z m 57.6499,2.3582 c -0.721,0.7207 -1.834,1.1793 -3.472,1.1793 h -9.826 V 34.0113 h 9.826 c 1.638,0 2.751,0.393 3.472,1.1793 0.655,0.786 0.917,2.0305 0.917,3.7992 v 4.3243 c 0,1.8343 -0.262,3.1441 -0.917,3.8648 z m -4.258,-2.3582 c 0.72,0 1.179,-0.1965 1.441,-0.5242 0.328,-0.393 0.524,-1.1137 0.524,-2.0965 v -1.8996 c 0,-0.9828 -0.196,-1.7688 -0.524,-2.0965 -0.262,-0.3277 -0.721,-0.5242 -1.441,-0.5242 h -5.765 v 7.141 z M 60.8711,48.3582 H 57.2676 L 53.0098,37.6797 48.8824,48.3582 h -3.6035 l 5.7652,-14.3469 h 4.0618 z m 43.0409,0 H 93.9539 V 34.0113 h 3.3414 v 3.734 h 5.1097 c 0.524,0 0.917,-0.1308 1.114,-0.3933 0.196,-0.393 0.262,-0.8512 0.262,-1.6375 v -1.7032 h 3.275 v 2.4239 c 0,1.1136 -0.196,1.8996 -0.524,2.3582 -0.262,0.3933 -0.655,0.7207 -1.31,0.8515 v 0.0656 c 0.786,0.1309 1.245,0.5899 1.573,1.1797 0.196,0.4582 0.327,1.3098 0.327,2.2926 V 44.1 c 0,1.3758 -0.197,2.4238 -0.655,3.0789 -0.524,0.7207 -1.376,1.1793 -2.555,1.1793 z m -1.507,-3.5375 c 0.524,0 0.983,-0.1312 1.179,-0.3277 0.197,-0.1965 0.328,-0.5895 0.328,-1.245 v -0.4582 c 0,-0.9828 -0.393,-1.507 -1.245,-1.507 h -5.3717 v 3.5379 z M 86.3547,45.4758 H 84.1273 V 41.8727 H 80.459 v -2.1622 h 3.6683 v -3.7996 h 2.2274 v 3.7996 h 3.6687 v 2.1622 h -3.6687 z m 45.9233,2.8168 h 3.472 l 0.066,-11.3988 h 8.451 v -2.8172 h -11.989 v 14.216"
       style="fill:#000000;fill-opacity:1;fill-rule:evenodd;stroke:none;stroke-width:0.1"
       id="path16" /></g></svg>