<?xml version="1.0" encoding="UTF-8" standalone="no"?>
<svg xmlns:dc="http://purl.org/dc/elements/1.1/" xmlns:cc="http://creativecommons.org/ns#"
     xmlns:rdf="http://www.w3.org/1999/02/22-rdf-syntax-ns#" xmlns="http://www.w3.org/2000/svg" id="svg8" version="1.1"
     height="299.23242" width="505.25351">
  <metadata id="metadata14">
    <rdf:RDF>
      <cc:Work rdf:about="">
        <dc:format>image/svg+xml</dc:format>
        <dc:type rdf:resource="http://purl.org/dc/dcmitype/StillImage"/>
        <dc:title></dc:title>
      </cc:Work>
    </rdf:RDF>
  </metadata>
  <defs id="defs12"/>
  <g style="fill:#000000;fill-rule:evenodd" transform="matrix(6,0,0,6,217.95,160.93236)" id="g1">
    <path
        d="m 1.9089,-26.82206 0.075,0.14999 0.075,0.29999 0.15001,0.44998 0.22499,0.67505 0.22501,0.67497 0.225,0.75005 0.375,0.82496 0.22501,0.67497 0.22499,0.75005 0.22499,0.59998 0.15001,0.44999 0.525,1.575 0.45,1.35002 0.37499,1.04996 0.22501,0.90004 0.22499,0.74998 0.075,0.59997 0.15,0.45005 v 0.29999 l 0.075,0.22499 v 0.15 -0.075 l 0.15,-0.22499 0.22501,-0.22499 0.22499,-0.37499 0.30001,-0.45006 0.375,-0.67497 0.525,-0.67497 0.75,-0.90003 0.75001,-1.04997 1.04998,-1.20002 1.12501,-1.42503 0.29999,-0.29998 0.375,-0.44998 0.52502,-0.67497 0.59998,-0.67505 0.6,-0.67498 0.59999,-0.82504 0.67501,-0.67497 0.525,-0.59998 0.45,-0.67505 0.45,-0.44998 0.22501,-0.22499 0.075,-0.14999 h 17.25 l 2.1,0.075 2.02501,0.29999 1.875,0.44999 1.72499,0.52505 1.50001,0.82497 1.27499,0.82504 1.12501,0.97496 0.9,1.20003 0.59999,1.12496 0.37501,1.27501 0.075,1.42503 -0.15,1.34995 -0.45,1.50001 -0.825,1.35001 -0.975,1.35003 -1.20001,1.125 -1.42497,1.12498 -1.57502,1.05 -1.79998,0.825 -1.80003,0.67498 -2.02499,0.67501 -2.025,0.45001 -2.175,0.22499 -2.1,0.075 h -11.55 l 3.44999,-14.54997 h 8.10001 l -2.325,10.05001 h 1.79999 l 1.50001,-0.075 1.425,-0.15 1.27499,-0.37498 1.275,-0.37502 1.20001,-0.44999 1.125,-0.59997 0.9,-0.82504 0.825,-0.82498 0.525,-1.05002 0.375,-1.20003 0.15,-0.97496 -0.075,-1.05004 -0.30001,-0.82496 -0.52499,-0.82505 -0.75001,-0.59997 -0.82499,-0.52498 -1.12501,-0.37499 -1.19999,-0.37506 -1.425,-0.14999 -1.425,-0.075 h -9.825 l -18.75,21.07503 -7.35,-20.69996 v -0.075 l -0.075,-0.0751 v -0.075 l -0.075,-0.075 v -0.075 l -0.075,-0.075 h -0.225 v 0.29999 l 0.075,0.0751 v 0.22499 l 0.22502,0.67498 0.22498,0.82497 0.075,0.90004 0.075,0.82496 v 0.82496 l -0.075,0.67505 -0.075,0.52499 -0.52498,1.50001 -0.75002,1.35002 -0.975,1.35002 -1.27498,1.125 -1.425,1.12499 -1.57502,1.05 -1.72498,0.825 -1.875,0.67497 -1.95002,0.67502 -2.025,0.45001 -2.175,0.22499 -2.17498,0.075 h -11.55002 l 3.45002,-14.54998 h 8.175 l -2.325,10.05001 h 1.8 l 1.5,-0.075 1.42498,-0.15 1.27502,-0.37497 1.275,-0.37503 1.19998,-0.44998 1.125,-0.59998 0.825,-0.82504 0.75002,-0.82497 0.67498,-1.05003 0.375,-1.20002 0.15,-0.97496 -0.15,-1.05004 -0.22498,-0.82496 -0.52502,-0.82505 -0.74998,-0.59998 -0.82499,-0.52497 -1.12501,-0.37499 -1.275,-0.37506 -1.34999,-0.14999 -1.42503,-0.075 h -10.04998 l 1.05,-4.57496 h 30.975"
        id="path1"/>
    <path
        d="m 2.075,6.475 h -1.5 L -0.84999,6.4 -2.12498,6.325 -3.32499,6.175 -4.37499,5.94997 -5.35,5.72502 -6.02499,5.49998 -6.54999,5.275 l -0.45,-0.37499 -0.075,-0.30003 0.075,-0.29998 0.45,-0.22503 0.525,-0.29999 0.67499,-0.225 0.97501,-0.29998 1.05,-0.14999 1.20001,-0.15004 1.27499,-0.075 1.42499,-0.075 1.5,-0.075 2.85,0.15 1.275,0.075 1.20001,0.15004 1.125,0.14999 0.825,0.29998 0.825,0.225 0.525,0.29999 0.30001,0.22503 0.075,0.29998 -0.075,0.30003 -0.30001,0.37499 -0.525,0.22498 -0.825,0.22504 -0.825,0.22495 L 7.40001,6.175 6.2,6.325 4.925,6.4 3.50002,6.475 Z M 3.50002,-1.1 h -3.60001 l -3.6,0.075 -3.45,0.15 -3.3,0.075 -3.15,0.22503 -3.00001,0.22499 -2.85,0.29999 -2.775,0.30002 -2.39998,0.29999 -2.40002,0.37499 -2.02499,0.30002 -1.875,0.52498 -1.575,0.37502 -1.35,0.44999 -1.05001,0.45001 -0.82499,0.52498 -0.45,0.45002 -0.15001,0.52498 0.15001,0.45002 0.45,0.59998 0.82499,0.45002 1.05001,0.44998 1.35,0.45002 1.575,0.44998 1.875,0.37502 2.02499,0.37499 2.40002,0.37499 2.39998,0.37501 2.775,0.29999 2.85,0.225 3.00001,0.22502 3.15,0.15 3.3,0.14999 3.45,0.15 h 3.6 l 3.60001,0.075 3.59999,-0.075 h 3.525 l 3.45,-0.15 3.3,-0.14999 3.15,-0.15 L 23.6,9.40001 26.37502,9.17501 29.15001,8.87502 31.62502,8.50001 33.95,8.12502 l 2.02501,-0.37499 1.875,-0.37502 1.575,-0.44998 1.35,-0.45002 L 41.9,6.02503 42.65001,5.57501 43.10001,4.97503 43.325,4.52501 43.10001,4.00003 42.65001,3.55001 41.9,3.02503 40.77501,2.57502 39.42501,2.12503 37.85001,1.75001 35.97501,1.22503 33.95,0.92501 31.62502,0.55002 29.15001,0.25003 26.37502,-0.04999 23.6,-0.34998 20.52501,-0.57497 17.37501,-0.8 l -3.3,-0.075 -3.45,-0.15 -3.525,-0.075 H 3.50002"
        id="path2"/>
    <path d="m 42.8,8.95 h -0.9 l -0.52498,2.85004 h -0.375 L 41.37502,8.95 H 40.40001 V 8.50003 H 42.8 V 8.95"
          id="path3"/>
    <path
        d="M 46.175,11.8 H 45.8 V 9.32499 H 45.725 L 44.45001,11.8 43.85,9.24999 43.02501,11.8 h -0.45 L 43.7,8.49999 h 0.37501 L 44.52501,10.75 45.8,8.49999 h 0.375 V 11.8"
        id="path4"/>
    <path
        d="m 2.525,14.875 h 1.05 L 4.4,15.025 5.15001,15.25002 5.75002,15.62501 6.2,16.07498 6.42501,16.675 6.65001,17.35001 6.57501,17.875 6.275,18.40001 5.97501,18.775 5.52501,19.15002 4.925,19.45001 4.10001,19.675 l 3.45,3.37501 h -2.925 l -2.85,-3.22503 v 3.22503 h -2.4 V 14.875 Z m -0.45,1.35002 H 2.6 l 0.60001,0.075 0.45,0.14995 0.29999,0.15004 0.22501,0.37502 0.075,0.37498 L 4.17501,17.875 3.95,18.17502 3.65001,18.40001 3.20001,18.55 2.6,18.625 H 1.77501 V 16.22502 H 2.075"
        id="path5"/>
  </g>
</svg>
