<?xml version="1.0" encoding="UTF-8" standalone="no"?>
<svg xmlns:dc="http://purl.org/dc/elements/1.1/" xmlns:cc="http://creativecommons.org/ns#"
     xmlns:rdf="http://www.w3.org/1999/02/22-rdf-syntax-ns#" xmlns="http://www.w3.org/2000/svg" id="svg9" version="1.1"
     height="299.70023" width="505.34988">
  <metadata id="metadata15">
    <rdf:RDF>
      <cc:Work rdf:about="">
        <dc:format>image/svg+xml</dc:format>
        <dc:type rdf:resource="http://purl.org/dc/dcmitype/StillImage"/>
        <dc:title></dc:title>
      </cc:Work>
    </rdf:RDF>
  </metadata>
  <defs id="defs13"/>
  <g style="fill:#000000;fill-rule:evenodd" transform="matrix(6,0,0,6,187.89636,-1.01556)" id="g1">
    <path
        d="m 6.93393,0.1693 v 0.15 l 0.15001,0.30003 0.15,0.44998 0.22499,0.60002 0.22501,0.75 0.22499,0.74997 0.30001,0.825 0.3,0.67501 0.22501,0.75002 0.22499,0.59997 0.15,0.45001 0.45,1.57502 0.525,1.34998 0.3,1.05 0.29999,0.9 0.15001,0.75 0.15,0.67502 0.075,0.37498 0.075,0.37499 v 0.29999 l 0.075,-0.075 0.075,-0.22503 0.225,-0.225 0.225,-0.37497 0.37501,-0.52503 0.375,-0.59997 0.59998,-0.67501 0.67501,-0.9 0.74999,-1.04999 0.97501,-1.20003 1.19999,-1.42498 0.30001,-0.29999 0.375,-0.45003 0.44999,-0.675 0.67501,-0.67501 0.59999,-0.67497 0.67501,-0.825 0.525,-0.67502 0.6,-0.67497 0.45,-0.60001 0.45,-0.37499 0.22499,-0.30003 0.075,-0.15 h 17.24999 l 2.17501,0.15 1.94999,0.22503 1.875,0.44999 1.65001,0.52501 1.57499,0.82497 1.20001,0.825 1.19999,1.05 0.90002,1.05003 0.59998,1.19999 0.375,1.34998 0.075,1.35003 -0.14999,1.34997 -0.525,1.50003 -0.67501,1.34997 -1.05,1.35003 -1.19999,1.12499 -1.50001,1.125 -1.57498,1.04998 -1.72502,0.82502 -1.875,0.75 -1.95,0.59997 -2.02499,0.45003 -2.10001,0.22498 -2.24999,0.075 h -11.55 L 26.20892,6.46928 h 8.17501 l -2.325,9.97497 h 1.8 l 1.5,-0.075 1.425,-0.15 1.275,-0.29999 1.27499,-0.37498 1.20001,-0.52502 1.12499,-0.60001 0.9,-0.825 0.75001,-0.82497 0.59999,-1.05003 0.37501,-1.2 0.14999,-0.975 -0.075,-1.04999 -0.30003,-0.82501 -0.525,-0.75 L 42.7839,6.24428 41.9589,5.71926 40.8339,5.26928 39.5589,4.96925 38.28389,4.81926 36.7839,4.74426 h -9.9 L 8.2089,25.81924 0.78389,5.11925 v -0.075 l -0.075,-0.15 v -0.075 l -0.075,-0.075 v -0.075 h -0.15 l -0.075,0.075 v 0.29999 l 0.075,0.075 v 0.075 l 0.225,0.82501 0.15001,0.75 0.14999,0.9 v 2.32503 l -0.14999,0.52497 -0.45002,1.50003 -0.82499,1.34997 -0.975,1.35003 -1.2,1.12498 -1.425,1.125 -1.575,1.04999 -1.725,0.82501 -1.875,0.67502 -1.95,0.67496 -2.02501,0.45002 -2.09994,0.22504 -2.24999,0.075 h -11.55002 l 3.45001,-14.47499 h 8.17499 l -2.32498,9.97498 h 1.79998 l 1.425,-0.075 1.425,-0.15 1.27501,-0.29999 1.35,-0.37499 1.19999,-0.52501 1.05001,-0.60001 0.9,-0.825 0.82501,-0.82498 0.52498,-1.05002 0.375,-1.2 0.15001,-0.975 -0.075,-1.04999 -0.29999,-0.82501 -0.45,-0.75 -0.75001,-0.67498 -0.9,-0.52501 -1.04999,-0.44999 -1.27498,-0.30002 -1.27502,-0.14999 -1.57501,-0.075 h -10.04999 l 1.05,-4.57501 H 6.93394"
        id="path1"/>
    <path
        d="m 7.00893,33.46933 h -1.425 l -1.425,-0.075 -1.35,-0.075 -1.125,-0.14999 -1.04999,-0.22499 -0.9,-0.15 -0.74999,-0.29999 -0.52502,-0.30002 -0.375,-0.29999 -0.15,-0.29999 0.15,-0.30002 0.375,-0.22499 0.52502,-0.29999 0.74999,-0.30002 0.9,-0.225 1.04999,-0.14999 1.125,-0.15004 1.35,-0.075 2.85,-0.14998 1.50001,0.075 1.425,0.075 1.27499,0.075 1.20001,0.15003 1.04999,0.14999 0.90002,0.225 0.74999,0.30003 0.525,0.29998 0.375,0.22499 0.075,0.30003 -0.075,0.29998 -0.375,0.29999 -0.525,0.30003 -0.74999,0.29998 -0.90002,0.15 -1.04999,0.22499 -1.20001,0.14999 -1.27499,0.075 -1.425,0.075 H 7.00893 Z m 1.50001,-7.575 h -3.6 l -3.52501,0.075 -3.52499,0.14998 -3.3,0.15 -3.15001,0.14999 -2.99999,0.225 -2.925,0.22503 -2.7,0.37498 -2.47501,0.29999 -2.24999,0.37503 -2.10001,0.37497 -1.875,0.37503 -1.57499,0.44998 -1.35,0.44998 -1.05,0.45002 -0.825,0.44999 -0.45,0.52501 -0.15,0.52502 0.15,0.44998 0.45,0.59998 0.825,0.45001 1.05,0.45003 1.35,0.44997 1.57499,0.45003 1.875,0.37498 2.10001,0.37499 2.24999,0.37501 2.47501,0.29999 2.7,0.37503 2.925,0.225 2.99999,0.22498 3.15001,0.14999 3.3,0.15 3.52499,0.14999 h 3.52501 l 3.6,0.075 3.60001,-0.075 h 3.52499 l 3.375,-0.14999 3.37499,-0.15 3.15001,-0.14999 3.075,-0.22498 2.85,-0.225 2.62499,-0.37503 2.55001,-0.29999 2.24999,-0.37501 2.10001,-0.37499 1.8,-0.37498 1.64999,-0.45003 1.35,-0.44997 1.05,-0.45003 0.75001,-0.45001 0.59999,-0.59998 0.15001,-0.44998 -0.15001,-0.52502 -0.59999,-0.52501 -0.75001,-0.44999 -1.05,-0.45002 -1.35,-0.44998 -1.64999,-0.44998 -1.8,-0.37503 -2.10001,-0.37497 -2.24999,-0.37503 -2.55001,-0.29999 -2.62499,-0.37498 -2.85,-0.22503 -3.075,-0.225 -3.15001,-0.14999 -6.74999,-0.29998 -3.52499,-0.075 H 8.50894"
        id="path2"/>
    <path
        d="m 47.73395,35.8693 h -0.90002 l -0.45,2.925 h -0.45 l 0.45,-2.925 h -1.05 l 0.075,-0.37499 h 2.4 l -0.075,0.37499"
        id="path3"/>
    <path
        d="m 51.18394,38.7943 h -0.45 v -2.47501 l -1.35,2.47501 -0.525,-2.47501 -0.9,2.47501 h -0.375 l 1.12499,-3.29999 h 0.375 l 0.45,2.17499 1.20001,-2.17499 h 0.45 v 3.29999"
        id="path4"/>
    <path
        d="m 0.10894,41.86933 0.975,0.075 0.9,0.075 0.67499,0.22498 0.67501,0.37499 0.45,0.52501 0.225,0.52502 0.075,0.67497 v 0.45003 l -0.225,0.59997 -0.375,0.45001 -0.525,0.29999 -0.525,0.29999 -0.75001,0.15004 3.375,3.52497 h -2.85 l -2.92499,-3.30002 v 3.30002 h -2.325 v -8.24997 z m -0.525,1.34998 h 0.6 l 0.525,0.075 0.45,0.15 0.375,0.22503 0.22499,0.29999 0.075,0.37498 -0.075,0.45003 -0.22499,0.37497 -0.375,0.225 -0.45,0.15003 -0.525,0.075 -0.67501,0.075 h -0.22499 v -2.47498 h 0.3"
        id="path5"/>
    <path
        d="m 11.50894,47.1943 h 0.075 l 1.65001,-5.32497 h 1.64999 l 1.425,5.32497 h 0.15001 l 1.34999,-5.32497 h 2.25 l -2.54999,8.24997 h -2.10001 l -1.42497,-4.8 -1.57502,4.8 h -2.025 l -2.325,-8.24997 h 2.09999 l 1.35,5.32497"
        id="path6"/>
  </g>
</svg>
