<?xml version="1.0" encoding="UTF-8" standalone="no"?>
<svg xmlns:dc="http://purl.org/dc/elements/1.1/" xmlns:cc="http://creativecommons.org/ns#"
     xmlns:rdf="http://www.w3.org/1999/02/22-rdf-syntax-ns#" xmlns="http://www.w3.org/2000/svg" version="1.1" id="svg2"
     xml:space="preserve" width="234.33078" height="137.20067" viewBox="0 0 234.33078 137.20067"><metadata
     id="metadata8"><rdf:RDF><cc:Work
         rdf:about=""><dc:format>image/svg+xml</dc:format><dc:type
    rdf:resource="http://purl.org/dc/dcmitype/StillImage"/><dc:title></dc:title></cc:Work></rdf:RDF></metadata>
    <defs id="defs6"/>
    <path
        d="m 71.173505,136.85212 h -7.233333 l -7.438133,-8.23386 h -0.08173 v 8.23386 h -5.9724 V 116.4288 h 8.086533 c 6.054666,0 10.241066,1.78907 10.241066,6.15054 0,2.59786 -2.154133,5.2004 -6.257733,5.66093 z M 56.420306,125.82773 h 0.774 c 3.290533,0 5.608266,-0.65054 5.608266,-3.1412 0,-2.5172 -2.398933,-3.0068 -5.5692,-3.0068 h -0.813066 v 6.148"
        style="fill:#000000;fill-opacity:1;fill-rule:evenodd;stroke:none;stroke-width:0.13333333" id="path16"/>
    <path
        d="m 158.65777,124.17559 h -0.0827 l -6.95067,12.94747 h -2.07333 l -6.704,-12.94747 h -0.0827 l -2.72,12.67653 h -6.01466 l 5.16133,-20.96398 h 4.22133 l 7.564,13.46092 7.23067,-13.46092 h 4.31067 l 4.59066,20.96398 h -6.01333 l -2.43733,-12.67653"
        style="fill:#000000;fill-opacity:1;fill-rule:evenodd;stroke:none;stroke-width:0.13333333" id="path18"/>
    <path
        d="M 133.46977,17.914666 C 135.8231,15.078666 148.5151,0.048 148.5151,0.048 h 26.628 21.28667 c 24.26133,0 41.232,12.710666 37.34666,29.038666 -3.87333,16.330669 -26.99466,29.037329 -51.14533,29.037329 h -32.116 L 160.15377,17.56 h 22.64133 l -6.596,27.777335 h 5.08 c 13.52,0 26.31867,-4.92934 29.012,-16.250669 2.468,-10.396 -6.50267,-16.252 -21.06,-16.252 h -5.31333 L 161.8791,12.853336 109.85577,71.575595 89.422442,13.874669 c 0,0 -0.148,-0.368 -0.3376,-0.865333 -0.0479,-0.118667 -0.436404,-0.528 -0.648404,-0.450667 -0.3792,0.144 -0.3192,0.805334 -0.252533,0.948 0.1656,0.356 0.215067,0.490667 0.260933,0.665334 1.823864,4.451999 1.927604,11.923999 1.185864,14.914666 -4.04053,16.289326 -26.999997,29.037326 -51.144796,29.037326 H 6.366707 L 16.00364,17.564 h 22.643199 l -6.597866,27.773335 h 5.082266 c 13.5172,0 26.242666,-4.92934 28.9308,-16.250669 2.470266,-10.396 -6.4204,-16.252 -20.978133,-16.252 h -5.3136 L 17.126573,12.826666 20.16204,0.048 H 50.167239 L 89.960972,0 V 0.048 H 106.3463 c 0,0 4.6224,13.549333 6.05947,17.650666 6.8656,19.609333 5.72867,20.934666 5.72867,20.934666 0,0 -0.82094,-1.261333 15.33533,-20.718666"
        style="fill:#000000;fill-opacity:1;fill-rule:evenodd;stroke:none;stroke-width:0.13333333" id="path20"/>
    <path
        d="m 0,87.507865 c 0,-8.66347 49.551106,-15.68387 110.66977,-15.68387 61.11733,0 110.66666,7.0204 110.66666,15.68387 0,8.6604 -49.54933,15.686525 -110.66666,15.686525 C 49.551106,103.19439 0,96.168265 0,87.507865 Z m 106.66404,5.53653 c 13.95626,0 25.27106,-2.34426 25.27106,-5.22973 0,-2.88493 -11.3148,-5.2292 -25.27106,-5.2292 -13.956798,0 -25.270268,2.34427 -25.270268,5.2292 0,2.88547 11.31347,5.22973 25.270268,5.22973"
        style="fill:#000000;fill-opacity:1;fill-rule:evenodd;stroke:none;stroke-width:0.13333333" id="path22"/>
    <path
        d="m 212.86843,100.01879 h -1.01866 l -0.448,3.1704 h -0.49734 l 0.44667,-3.1704 h -1.02133 l 0.0627,-0.450925 h 2.53734 l -0.0613,0.450925"
        style="fill:#000000;fill-opacity:1;fill-rule:evenodd;stroke:none;stroke-width:0.13333333" id="path24"/>
    <path
        d="m 216.62177,103.18919 h -0.47867 v -2.7464 h -0.007 l -1.45466,2.7464 -0.628,-2.77093 h -0.0107 l -0.88933,2.77093 h -0.48 l 1.19333,-3.621325 h 0.41467 l 0.56533,2.454125 1.296,-2.454125 h 0.47867 v 3.621325"
        style="fill:#000000;fill-opacity:1;fill-rule:evenodd;stroke:none;stroke-width:0.13333333" id="path26"/>
    <path
        d="m 99.736442,129.00066 3.563598,-6.7084 3.464,6.7084 z m 8.919328,3.86506 2.29267,4.33494 h 6.20053 L 105.8979,116.41413 h -4.95306 l -11.371868,20.78653 h 5.91813 l 2.27347,-4.33494 h 10.891198"
        style="fill:#000000;fill-opacity:1;fill-rule:evenodd;stroke:none;stroke-width:0.13333333" id="path28"/></svg>