<?xml version="1.0" encoding="UTF-8" standalone="no"?><!-- Created with Inkscape (http://www.inkscape.org/) -->

<svg xmlns="http://www.w3.org/2000/svg" width="510" height="305" version="1.1">
  <g id="g1" transform="matrix(6,0,0,6,83.12115,-24.53027)" style="fill:#000000;fill-rule:evenodd;">
    <path id="path1"
          d="m 24.78395,4.45503 0.075,0.075 0.075,0.29999 0.14999,0.45005 0.225,0.67498 0.22499,0.67497 0.22502,0.82496 0.37499,0.75005 0.22503,0.74998 0.22498,0.75004 0.225,0.52498 0.14999,0.52505 0.52503,1.49994 0.44997,1.35003 0.37499,1.12502 0.22502,0.97496 0.225,0.67505 0.075,0.59998 0.15004,0.52497 0,0.67505 0.075,-0.15006 0.14999,-0.225 0.22502,-0.22499 0.225,-0.44998 0.29999,-0.44998 0.37501,-0.60005 0.52503,-0.74997 0.74996,-0.82497 0.75001,-1.05003 1.05,-1.27503 1.12499,-1.35001 0.29999,-0.37499 0.37502,-0.44999 0.52502,-0.59997 0.59997,-0.75004 0.60001,-0.67497 0.59998,-0.74998 0.67501,-0.75004 0.52503,-0.59998 0.44997,-0.59998 0.44999,-0.45005 0.22502,-0.29999 0.075,-0.075 17.24999,0 2.09999,0.075 2.02502,0.22499 1.875,0.44999 1.64998,0.60005 1.57501,0.74996 1.27499,0.89996 1.12502,0.97504 0.9,1.12504 0.59999,1.20002 0.37501,1.27495 0.075,1.35002 -0.14998,1.50002 -0.45003,1.42501 -0.825,1.34995 -0.97496,1.35002 -1.20008,1.12503 -1.42498,1.12495 -1.57502,1.05004 -1.8,0.82496 -1.8,0.82498 -2.025,0.52505 -2.02502,0.44997 -2.17499,0.225 -2.1,0.14999 -11.54999,0 3.44998,-14.54994 8.10001,0 -2.32501,9.97498 1.8,0 1.50001,-0.075 1.42499,-0.22499 1.27502,-0.22506 1.27499,-0.37499 1.19999,-0.52499 1.12502,-0.67496 0.9,-0.67505 0.82502,-0.97496 0.52497,-0.97504 0.37499,-1.12495 0.15002,-1.12504 -0.075,-0.89996 -0.30002,-0.90004 -0.52498,-0.75005 -0.75,-0.67496 -0.82501,-0.52499 -1.12499,-0.44997 -1.19998,-0.29999 -1.42503,-0.15 -1.42501,-0.15006 -9.82499,0 -18.75,21.15005 -7.35,-20.7 -0.075,-0.0751 0,-0.0749 -0.075,-0.15 0,-0.15006 -0.075,0 -0.075,-0.0749 -0.075,0 -0.075,0.0749 0,0.37497 0.075,0.0751 0,0.075 0.22499,0.74997 0.22499,0.82504 0.075,0.82496 0.075,0.90004 0,0.82497 -0.075,0.75004 -0.075,0.52499 -0.52498,1.42501 -0.75,1.34995 -0.975,1.35001 -1.27502,1.12504 -1.42499,1.12495 -1.57501,1.05004 -1.725,0.82496 -1.875,0.82498 -1.95,0.52505 -2.02499,0.44997 -2.17499,0.225 -2.175,0.14999 -11.55002,0 3.45001,-14.54994 8.17501,0 -2.32501,9.97498 1.8,0 1.50001,-0.075 1.42499,-0.22499 1.27501,-0.22506 1.27499,-0.37499 1.2,-0.52499 1.12499,-0.67496 0.825,-0.67505 0.75001,-0.97496 0.67501,-0.97504 0.37499,-1.12495 0.14999,-1.12504 -0.14999,-0.89996 -0.225,-0.90004 -0.52501,-0.75005 -0.74998,-0.67496 -0.9,-0.52499 -1.04999,-0.44997 -1.27502,-0.29999 -1.34999,-0.15 -1.42501,-0.15006 -10.04998,0 0.975,-4.49998 31.04999,0"/>
    <path id="path2"
          d="m 24.93395,37.90505 -1.50001,-0.075 -1.42499,-0.075 -1.35002,-0.075 -1.12499,-0.15 -1.05,-0.14999 -0.97499,-0.225 -0.67501,-0.29999 -0.52499,-0.30006 -0.44997,-0.29999 -0.075,-0.22499 0.075,-0.29998 0.44997,-0.29999 0.52499,-0.29999 0.67501,-0.30006 0.97499,-0.15 1.05,-0.22499 1.12499,-0.15 1.35002,-0.075 1.42499,-0.075 2.92503,0 1.42498,0.075 1.27499,0.075 1.19999,0.15 1.05002,0.22499 0.9,0.15 0.74998,0.30006 0.52501,0.29999 0.37503,0.29999 0.075,0.29998 -0.075,0.22499 -0.37503,0.29999 -0.52501,0.30006 -0.74998,0.29999 -0.9,0.225 -1.05002,0.14999 -1.19999,0.15 -1.27499,0.075 -1.42498,0.075 -1.42502,0.075 z m 1.42502,-7.72499 -3.60004,0.075 -3.59998,0 -3.45001,0.225 -3.30001,0.14999 -3.14999,0.15 -2.99999,0.22498 -2.85,0.22507 -2.775,0.29998 -2.39998,0.29992 -2.40002,0.45006 -2.025,0.37499 -1.875,0.37498 -1.57501,0.37505 -1.34997,0.52499 -1.05004,0.44998 -0.82496,0.44998 -0.45003,0.60005 -0.14999,0.44998 0.14999,0.52499 0.45003,0.45005 0.82496,0.52498 1.05004,0.44998 1.34997,0.44999 1.57501,0.45005 1.875,0.44998 2.025,0.29999 2.40002,0.37499 2.39998,0.29999 2.775,0.37498 2.85,0.22507 2.99999,0.22498 3.14999,0.22492 3.30001,0.0751 3.45001,0.15 3.59998,0.075 7.20001,0 3.525,-0.075 3.45001,-0.15 3.30003,-0.0751 3.14995,-0.22492 3.07502,-0.22498 2.775,-0.22507 2.775,-0.37498 2.47502,-0.29999 2.32498,-0.37499 2.02499,-0.29999 1.875,-0.44998 1.57501,-0.45005 1.34999,-0.44999 1.12499,-0.44998 0.75001,-0.52498 0.45001,-0.45005 0.225,-0.52499 -0.225,-0.44998 -0.45001,-0.60005 -0.75001,-0.44998 -1.12499,-0.44998 -1.34999,-0.52499 -1.57501,-0.37505 -1.875,-0.37498 -2.02499,-0.37499 -2.32498,-0.45006 -2.47502,-0.29992 -2.775,-0.29998 -2.775,-0.22507 -3.07502,-0.22498 -3.14995,-0.15 -3.30003,-0.14999 -3.45001,-0.225 -3.525,0 -3.59997,-0.075"/>
    <path id="path3"
          d="m 65.58394,40.30502 -0.82501,0 -0.52498,2.85004 -0.37498,0 0.37498,-2.85004 -0.975,0 0,-0.44997 2.39998,0 -0.075,0.44997"/>
    <path id="path4"
          d="m 69.03395,43.15506 -0.37502,0 0,-2.47498 -0.075,0 -1.27499,2.47498 -0.60001,-2.47498 -0.825,2.47498 -0.44999,0 1.125,-3.30001 0.37501,0 0.44999,2.24998 1.27499,-2.24998 0.37502,0 0,3.30001"/>
    <path id="path5"
          d="m 6.55894,46.23008 0.97499,0.075 0.90001,0.14993 0.675,0.22506 0.67501,0.37499 0.45003,0.44997 0.22495,0.52499 0.15004,0.75004 -0.075,0.52497 -0.22499,0.44999 -0.29999,0.52505 -0.45002,0.37499 -0.67498,0.22499 -0.75,0.15 3.45,3.52501 -2.84999,0 -3,-3.37503 0,3.37503 -2.32501,0 0,-8.32498 3.14999,0 z m -0.44999,1.34995 0.52498,0 0.52502,0.075 0.52498,0.14999 0.30002,0.225 0.22499,0.29999 0.075,0.52505 -0.075,0.37499 -0.22499,0.29998 -0.30002,0.29999 -0.52498,0.075 -0.45002,0.075 -0.59998,0.075 -0.37498,0 0,-2.47505 0.37498,0"/>
    <path id="path6"
          d="m 23.73397,54.55506 1.27498,-0.075 1.19999,-0.22499 0.975,-0.37499 0.9,-0.60005 0.67501,-0.59997 0.44998,-0.67498 0.37502,-0.82505 0.14999,-0.74996 -0.14999,-0.90004 -0.37502,-0.67497 -0.44998,-0.74998 -0.67501,-0.60005 -0.9,-0.52497 -0.975,-0.44999 -1.19999,-0.22499 -1.27498,-0.075 -1.27503,0.075 -1.125,0.22499 -0.975,0.44999 -0.825,0.52497 -0.75001,0.60005 -0.52498,0.74998 -0.30002,0.67497 -0.14999,0.90004 0.14999,0.74996 0.30002,0.82505 0.52498,0.67498 0.75001,0.59997 0.825,0.60005 0.975,0.37499 1.125,0.22499 1.27503,0.075 z m 0,-6.82503 0.89996,0.075 0.75,0.225 0.67501,0.29999 0.52501,0.45005 0.37499,0.44999 0.225,0.52497 0.075,0.60005 -0.075,0.52498 -0.225,0.52499 -0.45001,0.52505 -0.59998,0.44998 -0.60001,0.29999 -0.67501,0.29999 -0.89996,0.075 -0.75002,-0.075 -0.825,-0.29999 -0.60001,-0.29999 -0.59999,-0.44998 -0.37501,-0.52505 -0.29999,-0.52499 -0.075,-0.52498 0.075,-0.60005 0.29999,-0.52497 0.37501,-0.44999 0.52503,-0.45005 0.67497,-0.29999 0.75,-0.225 0.82502,-0.075"/>
    <path id="path7"
          d="m 45.85898,49.45503 -2.70005,5.10003 -0.825,0 -2.62498,-5.10003 -1.12502,5.02503 -2.32498,0 2.02499,-8.24998 1.65001,0 2.99999,5.24995 2.775,-5.24995 1.72501,0 1.8,8.24998 -2.32502,0 -1.04995,-5.02503"/>
  </g>
</svg>
