<?xml version="1.0" encoding="UTF-8" standalone="no"?>
<svg xmlns:dc="http://purl.org/dc/elements/1.1/" xmlns:cc="http://creativecommons.org/ns#"
     xmlns:rdf="http://www.w3.org/1999/02/22-rdf-syntax-ns#" xmlns="http://www.w3.org/2000/svg" id="svg2"
     height="126.65115" width="200" version="1.0">
  <metadata id="metadata12">
    <rdf:RDF>
      <cc:Work rdf:about="">
        <dc:format>image/svg+xml</dc:format>
        <dc:type rdf:resource="http://purl.org/dc/dcmitype/StillImage"/>
        <dc:title></dc:title>
      </cc:Work>
    </rdf:RDF>
  </metadata>
  <defs id="defs4"/>
  <g id="layer1" transform="matrix(0.35306564,0,0,0.35306564,-31.832403,-124.54016)">
    <path style="fill:#ed9f21;fill-opacity:1;fill-rule:evenodd;stroke:none" id="path2396"
          d="m 381.15625,352.75 c -62.58463,0.64707 -92.48965,30.76001 -107.90625,58.15625 -45.10828,1.14558 -71.53013,20.99433 -87.875,54.5625 -18.21488,37.4087 25.51866,36.55463 39.875,28.28125 6.36634,-3.66886 19.4654,6.28206 10.875,11.125 -36.17309,20.39299 -83.92576,64.72365 -83.46875,78.28125 0.32644,9.77419 10.07151,18.04061 23.21875,7.6875 59.09948,-46.53933 126.65563,-76.82163 169.875,-75.5 -16.03765,16.43465 -32.81657,50.66706 -28.28125,47.40625 24.37338,-17.52396 78.39692,-37.38067 96.1875,-39.1875 C 403.34856,539.81221 393.93996,564.00635 396,562.46875 500.78216,484.26047 636.29466,454.56 618.96875,454 c -86.20474,-2.79782 -134.62145,11.9276 -160.625,14.5 -14.96631,1.48053 31.80704,-25.80104 33.34375,-29.6875 1.99751,-5.05185 -52.29254,-0.0282 -65.34375,0.5625 -3.95438,0.18072 10.03802,-10.69057 12.9375,-14.1875 4.64217,-5.59868 -69.0561,-2.29213 -106.6875,15.40625 -15.73062,7.39824 -27.10141,-3.29392 -17.90625,-10.84375 20.47093,-16.80794 49.81769,5.18511 111.5,-41.59375 6.17931,-4.69523 -22.86184,-10.6717 -41,-8.28125 -2.22564,0.29333 -2.89316,-2.25564 -1.1875,-3.53125 7.24844,-5.4209 27.00942,-22.03334 17.65625,-22.8125 -7.19372,-0.59927 -14.02573,-0.84819 -20.5,-0.78125 z m -142.625,85.9375 c 3.97293,-10e-6 7.1875,3.24582 7.1875,7.21875 -1e-5,3.97293 -3.21457,7.1875 -7.1875,7.1875 -3.97293,10e-6 -7.21875,-3.21457 -7.21875,-7.1875 1e-5,-3.97293 3.24582,-7.21875 7.21875,-7.21875 z"/>
    <path
        style="font-style:normal;font-weight:normal;font-size:357.53179932px;line-height:125%;font-family:'Bitstream Vera Sans';fill:#000000;fill-opacity:1;stroke:none"
        id="text2384"
        d="m 499.56285,630.81474 c -2.23832,-0.97197 -4.53245,-1.66468 -6.8824,-2.07813 -2.35004,-0.41333 -4.73355,-0.61444 -7.15054,-0.60333 -9.70354,0.13228 -17.5803,3.06325 -23.63031,8.79294 -6.05004,5.72979 -9.16723,13.46503 -9.35157,23.20575 0.13593,10.03685 3.14883,17.93968 9.03873,23.70852 5.88987,5.76885 13.84112,8.711 23.85377,8.82645 1.89932,0.0298 4.13386,-0.0968 6.70363,-0.37987 2.56968,-0.28305 5.07237,-0.90127 7.50807,-1.85467 l -0.53629,-8.67004 c -1.65547,0.94783 -3.75222,1.68895 -6.29024,2.22337 -2.53812,0.53444 -4.97004,0.80631 -7.29579,0.81561 -6.64966,-0.10054 -12.18761,-2.33509 -16.61384,-6.70363 -4.42628,-4.36852 -6.72413,-10.26771 -6.89357,-17.6976 0.0987,-7.15609 2.29225,-12.97707 6.58073,-17.46297 4.28844,-4.4858 10.07963,-6.79855 17.37359,-6.93826 2.28478,6e-5 4.50815,0.29055 6.67011,0.87148 2.16188,0.58103 4.22883,1.4525 6.20087,2.61441 z m 11.21865,25.56319 c 1.74107,-1.44497 3.77823,-2.57714 6.11148,-3.39651 2.33322,-0.81929 4.70556,-1.23641 7.11703,-1.25134 4.14505,0.004 7.0723,1.00186 8.78176,2.99429 1.70939,1.9925 2.53617,4.95699 2.48035,8.89349 -1.61263,-0.0856 -3.10233,-0.13777 -4.46909,-0.15642 -1.36683,-0.0186 -2.85652,-0.026 -4.46909,-0.0224 -2.99101,-0.0264 -6.10613,0.42377 -9.34537,1.35066 -3.23927,0.92695 -5.99686,2.48947 -8.27278,4.68758 -2.27593,2.19815 -3.46438,5.19078 -3.56534,8.97791 0.0819,4.93276 1.63866,8.54155 4.6702,10.82637 3.03152,2.28482 7.04625,3.41326 12.0442,3.38533 3.82849,-0.11731 6.89726,-0.93292 9.20632,-2.44683 2.309,-1.5139 3.94766,-3.02221 4.916,-4.52495 h 0.17876 v 5.8992 h 7.8656 c -0.0931,-0.63498 -0.17508,-1.64425 -0.2458,-3.02781 -0.0708,-1.38355 -0.10805,-3.35367 -0.11172,-5.91037 v -18.85956 c 0.0521,-6.22131 -1.37057,-10.91758 -4.26799,-14.08881 -2.89749,-3.17114 -7.58258,-4.76139 -14.05528,-4.77075 -2.90493,0.0224 -5.60873,0.42461 -8.1114,1.20665 -2.50271,0.78214 -4.80428,1.81003 -6.90475,3.08368 l 0.44691,7.15054 z m 24.49062,17.51883 c -0.009,3.47101 -1.08565,6.31633 -3.22892,8.53596 -2.14333,2.21966 -5.29776,3.36673 -9.4633,3.44121 -2.03532,-0.007 -3.93096,-0.64057 -5.68692,-1.89937 -1.75599,-1.25878 -2.69077,-3.09856 -2.80435,-5.51932 0.11089,-2.64061 1.14043,-4.58935 3.08864,-5.84624 1.94817,-1.25684 4.14961,-2.06679 6.60432,-2.42986 2.45466,-0.36302 4.4972,-0.52413 6.12762,-0.48332 0.89379,0.007 1.7876,0.0373 2.68145,0.0894 0.89379,0.0522 1.7876,0.082 2.68146,0.0894 v 4.02218 z m 15.7772,17.6976 h 8.40189 v -20.73658 c 0.0484,-5.77999 1.18056,-10.30867 3.3965,-13.58603 2.21591,-3.2773 5.22509,-4.94575 9.02757,-5.00538 0.72433,-0.006 1.4878,0.0503 2.29041,0.16759 0.80254,0.11735 1.58835,0.32963 2.35744,0.63684 v -7.50807 c -0.85661,-0.18244 -1.69084,-0.33141 -2.50269,-0.44691 -0.81192,-0.1154 -1.82491,-0.17499 -3.03898,-0.17876 -2.46734,0.0429 -4.77264,0.80635 -6.91592,2.29041 -2.14332,1.48415 -3.8006,3.43193 -4.97186,5.84333 h -0.17876 v -7.06116 h -7.8656 z m 62.05772,0 h 8.04436 v -67.03635 h -8.40189 v 27.70836 h -0.17876 c -1.26628,-2.14326 -3.1135,-3.88993 -5.54167,-5.24001 -2.42824,-1.34999 -5.61619,-2.04643 -9.56385,-2.0893 -6.60683,0.19557 -11.53772,2.50832 -14.79269,6.93827 -3.255,4.43002 -4.87876,9.80409 -4.87131,16.12224 -0.0447,6.46343 1.49714,12.128 4.62551,16.99371 3.12835,4.86572 8.11138,7.42427 14.9491,7.67566 4.06685,-0.10055 7.39632,-0.92733 9.98842,-2.48034 2.59204,-1.55301 4.44671,-3.22892 5.56402,-5.02773 h 0.17876 z m -26.36763,-22.97112 c -0.12664,-4.34058 0.79697,-8.19517 2.77084,-11.56377 1.97383,-3.36854 5.22136,-5.145 9.74261,-5.32939 4.55099,0.18439 7.94005,1.98319 10.16718,5.39642 2.22706,3.4133 3.33688,7.33492 3.32947,11.76488 0.0335,4.03151 -1.01675,7.81162 -3.15071,11.34032 -2.13402,3.52872 -5.55287,5.40946 -10.25656,5.64223 -4.48587,-0.27187 -7.73713,-2.25316 -9.75379,-5.9439 -2.01669,-3.6907 -2.96637,-7.45963 -2.84904,-11.30679 z"/>
    <path
        style="font-style:normal;font-weight:normal;font-size:347.85546875px;line-height:125%;font-family:'Bitstream Vera Sans';fill:#000000;fill-opacity:1;stroke:none"
        id="text2396" transform="scale(0.9403895,1.0633892)"
        d="m 95.87518,650.78528 h 53.2212 v -14.60974 h -30.43696 v -8.26146 h 28.52378 v -14.60975 h -28.52378 v -8.60931 h 29.82822 V 590.08528 H 95.87518 Z m 57.80233,-45.30759 13.82708,20.95802 -14.87063,24.34957 h 22.34943 l 7.39183,-11.91305 7.13095,11.91305 h 23.21905 l -14.95759,-24.69742 12.60959,-20.61017 h -21.47979 l -6.0874,10.37322 -6.08739,-10.37322 z m 64.68729,63.56977 h 21.91461 v -24.08869 h 0.17393 c 1.6885,2.41685 3.65965,4.17059 5.91346,5.26125 2.25376,1.09066 4.83365,1.62693 7.73969,1.60881 6.77761,-0.19023 11.70187,-2.48387 14.7728,-6.88093 3.07081,-4.39704 4.58179,-9.75612 4.53293,-16.07723 0.0779,-6.76314 -1.42588,-12.47731 -4.51119,-17.14254 -3.08542,-4.66514 -8.21984,-7.09647 -15.40328,-7.294 -3.53833,-0.0362 -6.48419,0.66676 -8.83759,2.10885 -2.35346,1.44218 -4.27751,3.8409 -5.77215,7.19617 h -0.17393 v -8.26146 H 218.3648 Z m 21.30587,-40.69857 c -0.0689,-2.25195 0.24275,-4.33543 0.93485,-6.25045 0.69206,-1.91496 2.17767,-2.93315 4.45684,-3.05456 2.32441,0.11054 3.84988,1.15047 4.57642,3.11978 0.72646,1.96937 1.0562,4.20504 0.9892,6.70701 0.0634,2.48389 -0.25912,4.64708 -0.96746,6.48959 -0.70842,1.84253 -2.18316,2.81 -4.42423,2.90238 -2.36252,-0.0815 -3.89886,-1.07071 -4.60903,-2.9676 -0.71022,-1.89686 -1.02908,-4.21224 -0.95659,-6.94615 z m 41.0906,-22.8712 v 45.30759 h 21.91461 v -16.43596 c 0.0869,-3.42957 1.19571,-6.26673 3.32633,-8.51148 2.13055,-2.2447 4.76117,-3.40782 7.89187,-3.48938 1.01633,0.002 1.96205,0.0634 2.83715,0.1848 0.87502,0.12141 1.5816,0.29171 2.11972,0.5109 v -18.17521 c -0.44754,-0.13221 -0.98743,-0.23729 -1.61968,-0.31524 -0.63233,-0.0779 -1.28093,-0.11772 -1.94579,-0.11958 -3.41876,0.0689 -6.25592,1.14868 -8.51148,3.23937 -2.25562,2.09077 -4.02749,4.77936 -5.3156,8.06579 h -0.17392 v -10.2616 z m 64.84196,18.34914 c -0.18301,-1.93308 0.13948,-3.87163 0.96746,-5.81564 0.82793,-1.94394 2.4766,-2.99112 4.94601,-3.14153 2.39688,0.15585 3.92959,1.21389 4.59815,3.17414 0.66849,1.96032 0.96199,3.88799 0.8805,5.78303 z m 30.35,9.5659 v -2.69585 c 0.10865,-7.79038 -1.65234,-14.08068 -5.28299,-18.87091 -3.63074,-4.79016 -9.78335,-7.2541 -18.45784,-7.39184 -9.19815,0.002 -16.17328,1.91142 -20.92541,5.72868 -4.75216,3.81733 -7.14001,9.53151 -7.16356,17.14253 0.0236,7.87014 2.4114,13.91404 7.16356,18.13173 4.75214,4.21769 11.72727,6.34828 20.92541,6.39176 3.83539,0.005 7.4697,-0.2011 10.90295,-0.61961 3.43318,-0.41851 6.61094,-1.0816 9.5333,-1.98927 v -11.73997 c -1.76648,0.91855 -3.92968,1.62512 -6.4896,2.11971 -2.56001,0.49462 -5.35368,0.74463 -8.38103,0.75006 -3.29737,0.0634 -6.07293,-0.38951 -8.32669,-1.35879 -2.25381,-0.96927 -3.50752,-2.83534 -3.76114,-5.59823 z m 5.08661,15.82722 c 3.09442,0.79353 6.23232,1.42401 9.41372,1.89144 3.18137,0.46742 6.36276,0.70657 9.54416,0.71744 3.56813,0.037 7.27317,-0.42354 11.11513,-1.38174 3.84189,-0.9582 7.10889,-2.63626 9.80102,-5.03418 2.69204,-2.39791 4.0974,-5.73792 4.21609,-10.02004 -0.13231,-4.17646 -1.45486,-7.20475 -3.96768,-9.08489 -2.5129,-1.88009 -5.42253,-3.12021 -8.72889,-3.72038 -3.30642,-0.6001 -6.21605,-1.06843 -8.72888,-1.40499 -2.51289,-0.33649 -3.83544,-1.04941 -3.96768,-2.13873 0.0815,-1.34789 0.87504,-2.21752 2.38061,-2.60889 1.50551,-0.3913 3.2339,-0.56522 5.18515,-0.52177 2.47478,0.0109 4.89524,0.25005 7.26139,0.71744 2.36607,0.46746 4.69957,1.09794 7.0005,1.89144 v -12.17479 c -2.6977,-0.57427 -5.41166,-1.03444 -8.14189,-1.38053 -2.7303,-0.34599 -5.466,-0.52354 -8.2071,-0.53265 -3.70936,-0.0526 -7.50888,0.30388 -11.39857,1.06932 -3.88971,0.76554 -7.18034,2.25571 -9.87188,4.47053 -2.69155,2.21491 -4.09476,5.4701 -4.20964,9.7656 0.13226,4.28181 1.45481,7.39842 3.96768,9.34985 2.51285,1.95147 5.42247,3.26633 8.72888,3.94458 3.30638,0.67828 6.216,1.24852 8.72889,1.71072 2.51283,0.46223 3.83539,1.34499 3.96767,2.64829 -0.1051,1.11241 -0.98198,1.88782 -2.63062,2.32625 -1.64869,0.43845 -3.43867,0.64861 -5.36995,0.63048 -2.88247,-0.0127 -5.74861,-0.37864 -8.59844,-1.09791 -2.84985,-0.71924 -5.3464,-1.71569 -7.48967,-2.98934 z m 48.40763,0 c 3.09441,0.79353 6.23232,1.42401 9.41371,1.89144 3.18137,0.46742 6.36276,0.70657 9.54416,0.71744 3.56814,0.037 7.27317,-0.42354 11.11513,-1.38174 3.84189,-0.9582 7.1089,-2.63626 9.80102,-5.03418 2.69205,-2.39791 4.09741,-5.73792 4.21609,-10.02004 -0.1323,-4.17646 -1.45486,-7.20475 -3.96768,-9.08489 -2.5129,-1.88009 -5.42253,-3.12021 -8.72888,-3.72038 -3.30643,-0.6001 -6.21606,-1.06843 -8.72889,-1.40499 -2.51288,-0.33649 -3.83544,-1.04941 -3.96767,-2.13873 0.0815,-1.34789 0.87504,-2.21752 2.3806,-2.60889 1.50552,-0.3913 3.2339,-0.56522 5.18516,-0.52177 2.47478,0.0109 4.89524,0.25005 7.26138,0.71744 2.36608,0.46746 4.69958,1.09794 7.00051,1.89144 v -12.17479 c -2.6977,-0.57427 -5.41166,-1.03444 -8.14189,-1.38053 -2.7303,-0.34599 -5.466,-0.52354 -8.20711,-0.53265 -3.70936,-0.0526 -7.50888,0.30388 -11.39856,1.06932 -3.88972,0.76554 -7.18034,2.25571 -9.87188,4.47053 -2.69156,2.21491 -4.09477,5.4701 -4.20965,9.7656 0.13226,4.28181 1.45482,7.39842 3.96768,9.34985 2.51285,1.95147 5.42248,3.26633 8.72888,3.94458 3.30638,0.67828 6.21601,1.24852 8.72889,1.71072 2.51283,0.46223 3.83539,1.34499 3.96768,2.64829 -0.10511,1.11241 -0.98198,1.88782 -2.63063,2.32625 -1.64869,0.43845 -3.43867,0.64861 -5.36995,0.63048 -2.88247,-0.0127 -5.74861,-0.37864 -8.59844,-1.09791 -2.84985,-0.71924 -5.3464,-1.71569 -7.48966,-2.98934 z"/>
    <path
        style="font-style:normal;font-weight:normal;font-size:126.18586731px;line-height:125%;font-family:'Bitstream Vera Sans';fill:#ed9f21;fill-opacity:1;stroke:none"
        id="text2398"
        d="m 470.34074,565.20674 c 3.22097,-0.0821 5.9037,-1.19546 8.04819,-3.33994 2.14446,-2.14447 3.25777,-4.8272 3.33994,-8.04819 -0.0822,-3.22097 -1.19548,-5.9037 -3.33994,-8.04819 -2.14449,-2.14445 -4.82722,-3.25776 -8.04819,-3.33994 -3.22099,0.0822 -5.90372,1.19549 -8.04818,3.33994 -2.14448,2.14449 -3.25779,4.82722 -3.33994,8.04819 0.0821,3.22099 1.19546,5.90372 3.33994,8.04819 2.14446,2.14447 4.82719,3.25779 8.04818,3.33994 z m 0,-2.20823 c -2.44285,-0.0493 -4.47363,-0.91286 -6.09233,-2.59072 -1.61871,-1.67785 -2.45862,-3.87424 -2.51974,-6.58918 0.0611,-2.71492 0.90103,-4.91131 2.51974,-6.58918 1.6187,-1.67784 3.64948,-2.54141 6.09233,-2.59072 2.44284,0.0493 4.47361,0.91288 6.09234,2.59072 1.61868,1.67787 2.4586,3.87426 2.51974,6.58918 -0.0611,2.71494 -0.90106,4.91133 -2.51974,6.58918 -1.61873,1.67786 -3.6495,2.54144 -6.09234,2.59072 z m -4.3849,-2.77605 h 2.3975 v -5.55211 h 1.45112 l 3.34388,5.55211 h 2.4606 l -3.47007,-5.64674 c 1.06532,-0.0894 1.89209,-0.41535 2.48031,-0.97793 0.58818,-0.56256 0.88656,-1.39327 0.89512,-2.49214 -0.005,-1.34464 -0.41275,-2.31468 -1.22241,-2.91013 -0.8097,-0.59541 -1.99005,-0.88721 -3.54105,-0.8754 h -4.795 z m 2.3975,-11.07267 h 2.14514 c 0.64733,-0.021 1.23751,0.0841 1.77052,0.31546 0.53298,0.23136 0.81558,0.71506 0.8478,1.45112 -0.0217,0.83927 -0.2859,1.37687 -0.7926,1.6128 -0.50672,0.23595 -1.12581,0.33978 -1.85727,0.31151 h -2.11359 z"/>
    <path
        style="font-style:normal;font-weight:normal;font-size:126.18586731px;line-height:125%;font-family:'Bitstream Vera Sans';fill:#000000;fill-opacity:1;stroke:none"
        id="text2402"
        d="m 645.23879,693.85457 c 3.22096,-0.0822 5.90369,-1.19547 8.04818,-3.33994 2.14446,-2.14447 3.25777,-4.8272 3.33994,-8.04819 -0.0822,-3.22097 -1.19548,-5.9037 -3.33994,-8.04819 -2.14449,-2.14445 -4.82722,-3.25777 -8.04818,-3.33994 -3.221,0.0822 -5.90373,1.19549 -8.04819,3.33994 -2.14448,2.14449 -3.25779,4.82722 -3.33994,8.04819 0.0822,3.22099 1.19546,5.90372 3.33994,8.04819 2.14447,2.14447 4.82719,3.25778 8.04819,3.33994 z m 0,-2.20823 c -2.44286,-0.0493 -4.47364,-0.91286 -6.09234,-2.59072 -1.61871,-1.67785 -2.45862,-3.87424 -2.51974,-6.58918 0.0611,-2.71492 0.90103,-4.91131 2.51974,-6.58919 1.6187,-1.67783 3.64948,-2.5414 6.09234,-2.59072 2.44283,0.0493 4.4736,0.91289 6.09233,2.59072 1.61868,1.67788 2.4586,3.87427 2.51974,6.58919 -0.0611,2.71494 -0.90105,4.91133 -2.51974,6.58918 -1.61873,1.67786 -3.6495,2.54143 -6.09233,2.59072 z m -4.38491,-2.77605 h 2.3975 v -5.55211 h 1.45112 l 3.34389,5.55211 h 2.46059 l -3.47007,-5.64675 c 1.06532,-0.0894 1.89209,-0.41534 2.48031,-0.97792 0.58818,-0.56256 0.88656,-1.39328 0.89512,-2.49214 -0.005,-1.34464 -0.41275,-2.31468 -1.22241,-2.91013 -0.8097,-0.59541 -1.99005,-0.88721 -3.54105,-0.8754 h -4.795 z m 2.3975,-11.07267 h 2.14514 c 0.64733,-0.021 1.23751,0.0841 1.77052,0.31546 0.53298,0.23135 0.81558,0.71506 0.8478,1.45112 -0.0217,0.83927 -0.2859,1.37687 -0.7926,1.61279 -0.50672,0.23595 -1.12581,0.33979 -1.85727,0.31152 h -2.11359 z"/>
  </g>
</svg>
