<?xml version="1.0" encoding="UTF-8" standalone="no"?>
<svg xmlns:dc="http://purl.org/dc/elements/1.1/" xmlns:cc="http://creativecommons.org/ns#"
     xmlns:rdf="http://www.w3.org/1999/02/22-rdf-syntax-ns#" xmlns="http://www.w3.org/2000/svg" xml:space="preserve"
     style="enable-background:new 0 0 418.8 427.4;" viewBox="0 0 418.8 427.4" y="0px" x="0px" id="Layer_1"
     version="1.1"><metadata
   id="metadata175"><rdf:RDF><cc:Work
       rdf:about=""><dc:format>image/svg+xml</dc:format><dc:type rdf:resource="http://purl.org/dc/dcmitype/StillImage"/><dc:title></dc:title></cc:Work></rdf:RDF></metadata>
    <defs id="defs173"/>
    <style id="style2" type="text/css">
	.st0{fill:url(#SVGID_1_);}
	.st1{fill:#7A7EAE;}
	.st2{fill:#663399;}
	.st3{fill:#120F22;}
	.st4{fill:url(#SVGID_2_);}
	.st5{fill:url(#SVGID_3_);}
	.st6{fill:url(#SVGID_4_);}
	.st7{fill:#2D2868;}
	.st8{fill:#453D76;}
	.st9{fill:url(#SVGID_5_);}
	.st10{fill:url(#SVGID_6_);}
	.st11{fill:url(#SVGID_7_);}
	.st12{fill:url(#SVGID_8_);}
	.st13{fill:#484592;}
	.st14{fill:none;}
	.st15{fill:url(#SVGID_9_);}
	.st16{fill:url(#SVGID_10_);}
	.st17{fill:url(#SVGID_11_);}
</style>
    <g id="GAMECUBE">
	<path id="path4"
          d="M47.7,386.2v8.8H11.5v22.4h26.4v-6.2H22.6v-9.4h25.7c0,0,0,10.2,0,17.1c-0.1,2.9-5.8,8.6-9,8.6c-5.9,0-22,0-29.5,0   c-4.2,0-9.9-5.7-9.9-8.6c0-8.7,0-17.3,0-24.7c0-4.8,3.1-8,7.2-8C14,386.2,47.7,386.2,47.7,386.2z"/>
        <polygon id="polygon6"
                 points="75.8,417.1 75.8,426.8 45.9,426.8 70.2,385.7 79.8,385.7 98.4,417.1 98.4,385.7 109,385.7 125.6,413.9    142.2,385.7 152.7,385.7 152.7,426.8 142.2,426.8 142.1,405.9 130,426.8 121.1,426.8 109,405.9 109,426.8 91.1,426.8 74.7,398.7    63.7,417.1  "/>
        <polygon id="polygon8"
                 points="156.5,385.7 156.5,426.8 198.7,426.8 198.7,417.1 168,417.1 168,410 185.8,410 185.8,401 168,401 168,394.6    198.7,394.6 198.7,385.7  "/>
        <path id="path10"
              d="M240.8,401.9h10.5V393c0,0,1.1-7.3-6.5-7.3c0,0-24.5,0-33.2,0c-3.3,0-4.8,1.6-4.8,4c0,4.2,0,20.2,0,29.1c0,4.1,3.9,8,6.4,8   c7.3,0,32.5,0,32.5,0s5.7,0.8,5.7-5.6c0-6.3,0-12.1,0-12.1h-10.5v8h-23.5v-21.8H240v6.5L240.8,401.9z"/>
        <path id="path12"
              d="M255.4,385.7h11.3v31.5h23.4v-31.5h11.3v34c0,0,0.7,7.3-9.7,7.3c-10.4,0-27.5,0-27.5,0s-8.9,0.8-8.9-7.3   C255.4,414,255.4,385.7,255.4,385.7z"/>
        <g id="XMLID_1_">
		<g id="g16">
			<path id="path14"
                  d="M350,409.9v10.6c0,3.7-2.8,6.5-11.3,6.5c-7.6,0-33.2,0-33.2,0v-41.3c0,0,33.6,0,38.8,0c3.6,0,5.6,2.1,5.6,5.7     c0,2.9,0,10.1,0,11.3c0,0.9-1.2,2.4-4,2.4c0,0.2,0,0,0,0.8C347.9,405.9,350,408,350,409.9z M339.5,416.4c0-1,0-3.5,0-4.8     c0-1.3-0.3-1.7-0.8-1.7c-1,0-21.8,0-21.8,0v7.3c0,0,15.7,0,21,0C339.1,417.2,339.5,416.8,339.5,416.4z M339.5,400.2     c0-1,0-3.5,0-4.8c0-1.3-0.3-1.6-0.8-1.6c-1,0-21.8,0-21.8,0v7.3c0,0,15.7,0,21,0C339.1,401,339.5,400.6,339.5,400.2z"/>
		</g>
	</g>
        <polygon id="polygon19"
                 points="354,427 396.2,427 396.2,417.2 364.6,417.2 364.6,410 382.4,410 382.4,401 364.6,401 364.6,394.6 395.3,394.6    395.3,385.6 354,385.6  "/>
        <polygon id="polygon21"
                 points="401,417.2 401,418.8 403.5,418.8 403.5,427 405.8,427 405.8,418.9 408.3,418.9 408.3,417.2  "/>
        <polygon id="polygon23"
                 points="409.1,427 411.5,427 411.5,422.1 413.1,427 414.7,427 416.3,422.1 416.3,427 418.8,427 418.8,417.2 415.5,417.2    413.9,422.8 412.3,417.2 409.1,417.2  "/>
</g>
    <g id="NINTENDO">
	<polygon id="polygon26"
             points="8.7,343.6 8.7,374.3 14.4,374.3 14.4,351.7 26.5,374.3 32.9,374.3 32.9,343.6 26.5,343.6 26.5,362.1 16.8,343.6     "/>
        <polygon id="polygon28"
                 points="105.8,343.6 105.8,374.3 111.4,374.3 111.4,351.7 123.6,374.3 130,374.3 130,343.6 123.5,343.6 123.5,362.1    113.8,343.6  "/>
        <rect id="rect30" height="30.7" width="6.5" y="343.6" x="66.1"/>
        <polygon id="polygon32"
                 points="156.7,343.6 156.7,348.5 166.4,348.5 166.4,374.3 172.9,374.3 172.9,348.5 182.6,348.5 182.6,343.6  "/>
        <path id="path34"
              d="M212.6,354.9v0.8h17.8v4.9h-17.8c0,0,0,4.7,0,6.5c0,0.7,1.7,2.4,2.4,2.4c2,0,15.4,0,15.4,0v4.9c0,0-13.1,0-17.8,0   c-3.3,0-5.7-2.9-5.7-5.7c0-0.7,0-14.6,0-19.4c0-3.5,2.1-5.6,5.6-5.6h17.8v4.9c0,0-10.8,0-14.6,0c-1.6,0-3.2,1.7-3.2,2.5"/>
        <polygon id="polygon36"
                 points="259.5,374.4 265.1,374.4 265.1,351.8 277.2,374.4 282.9,374.4 282.9,343.6 277.3,343.6 277.3,362.1 266.8,343.6    259.5,343.6  "/>
        <g id="XMLID_5_">
		<g id="g40">
			<path id="path38"
                  d="M336.4,349.3v19.5c0,1.5-4.2,5.6-6.6,5.6c-4.9,0-17.7,0-17.7,0v-30.8c0,0,12.6,0,16.1,0     C333.2,343.6,336.4,346.8,336.4,349.3z M330.6,367.1c0-2.1,0-11.7,0-16.1c0-0.6-1.9-2.5-3.2-2.5c-2.5,0-9.7,0-9.7,0v21.8     c0,0,6.9,0,9.7,0C328.4,370.3,330.6,368.1,330.6,367.1z"/>
		</g>
	</g>
        <g id="XMLID_4_">
		<g id="g45">
			<path id="path43"
                  d="M388.9,350.9c0,2.2,0,11.7,0,16.1c0,4.6-3.5,8.1-8.8,8.1c0,0,0,0-0.1,0c-4.6,0-3.3,0-8.1,0h-0.1c-5.2,0-8.6-3.2-8.8-7.7     c0-0.2,0-0.3,0-0.5c0-3.1,0-13.1,0-16.1c0-0.6,0-0.9,0-0.9c0-3.1,3.3-6.4,7.3-6.4c2.9,0,11.3,0,11.3,0     C386.3,343.6,388.9,346.1,388.9,350.9z M382.4,366.3c0-0.8,0-13.2,0-14.6c0-1.2-2.1-3.3-3.2-3.3c-1.2,0-6.4,0-6.4,0     c-1.7,0-3.3,1.6-3.3,3.1c0,1,0,13.2,0,14.7c0,2.3,0.9,3.2,2.5,3.2c1.4,0,5.4,0,7.3,0C380.8,369.5,382.4,367.8,382.4,366.3z"/>
		</g>
	</g>
</g>
    <g id="underneath_1_">
</g>
    <g id="_x33_D_PART">

		<linearGradient gradientTransform="matrix(1 0 0 -1 0 773.036)" y2="570.9537" x2="330.3033" y1="536.3686"
                        x1="122.3997" gradientUnits="userSpaceOnUse" id="SVGID_1_">
		<stop id="stop50" style="stop-color:#FFFFFF" offset="3.680000e-02"/>
            <stop id="stop52" style="stop-color:#898CBF" offset="0.8957"/>
	</linearGradient>
        <polygon id="polygon55"
                 points="290.7,161.6 290.7,213.8 198.2,267.2 106.4,213.8 102.3,216.6 198.2,272.9 294.9,216.9 294.9,159.2     "
                 class="st0"/>
</g>
    <g id="black_line_thing">
	<polygon id="polygon58" points="290.7,213.6 294.9,216.6 294.9,216.9 294.6,217.1 290.4,214 290.7,213.8  "
             class="st1"/>
</g>
    <g id="dark_purple_top_line">
	<polygon id="polygon61" points="199,161 133.8,122.8 132.8,123.8 198.2,162.7  " class="st2"/>
        <polygon id="polygon63" points="198.8,161 199.3,161 199.3,161.5 198.5,161.5  " class="st2"/>
</g>
    <g id="top_black_line">
	<polygon id="polygon66" points="199,162.7 199,161 337.8,80.8 338.2,81.9  " class="st3"/>
</g>
    <g id="LOGO_DARK_LINES">

		<linearGradient gradientTransform="matrix(1 0 0 -1 0 773.036)" y2="532.9374" x2="296.6053" y1="532.9374"
                        x1="197.8562" gradientUnits="userSpaceOnUse" id="SVGID_2_">
		<stop id="stop69" style="stop-color:#140F2D" offset="0"/>
            <stop id="stop71" style="stop-color:#3B3C75" offset="1"/>
	</linearGradient>
        <polygon id="polygon74"
                 points="199,321.5 199.9,273.6 296.2,218.1 296.6,158.7 294.9,158.7 294.9,216.9 198.2,272.9 197.9,321.5  "
                 class="st4"/>
</g>
    <g id="LOGO">

		<linearGradient gradientTransform="matrix(1 0 0 -1 0 773.036)" y2="524.0406" x2="340.6143" y1="599.8919"
                        x1="225.0686" gradientUnits="userSpaceOnUse" id="SVGID_3_">
		<stop id="stop77" style="stop-color:#4C5284" offset="0"/>
            <stop id="stop79" style="stop-color:#8789BC" offset="1"/>
	</linearGradient>
        <polygon id="polygon82"
                 points="199,236.1 199,162.7 338.2,81.9 338.2,241.2 199,321.5 199,273.2 295.7,217.6 295.7,158.7    263.3,177.5 263.3,198.2  "
                 class="st5"/>
</g>
    <g id="BOTTOM_LAIN_LEFT_LIGHT_LINE">

		<linearGradient gradientTransform="matrix(1 0 0 -1 0 773.036)" y2="504.7296" x2="196.7767" y1="453.2177"
                        x1="197.5817" gradientUnits="userSpaceOnUse" id="SVGID_4_">
		<stop id="stop85" style="stop-color:#4C407E" offset="0.1104"/>
            <stop id="stop87" style="stop-color:#666699" offset="0.8896"/>
            <stop id="stop89" style="stop-color:#A7B3D9" offset="1"/>
            <stop id="stop91" style="stop-color:#9BA5CD" offset="1"/>
	</linearGradient>
        <polyline id="polyline94" points="197.4,321.5 198.2,321.5 198.2,272.9 195.5,271.2 197.4,321.5  " class="st6"/>
</g>
    <g id="underneath">
	<polyline id="polyline97" points="102,105.3 102.6,105.8 102.9,216.2 102.3,216.6 101.9,216.4 102,105.3  "
              class="st7"/>
</g>
    <g id="LEFT_3D_PURPLE_SHADOW">
	<polygon id="polygon100" points="106.4,213.8 102.3,216.6 102.3,105.5 199,49.6 199,55.1 106.5,108.7  " class="st8"/>
</g>
    <g id="MAIN_DARK_PURPLE_LINE">
	<polygon id="polygon103" points="199,160.7 199,236.1 198.2,236.6 198.2,162.7 198.2,160.5  " class="st8"/>
</g>
    <g id="BOTTOM_LEFT_LINE">
</g>
    <g id="logo_LEFT_side">

		<linearGradient gradientTransform="matrix(1 0 0 -1 0 773.036)" y2="610.7709" x2="230.0909" y1="566.752"
                        x1="71.701" gradientUnits="userSpaceOnUse" id="SVGID_5_">
		<stop id="stop107" style="stop-color:#666699" offset="0.2331"/>
            <stop id="stop109" style="stop-color:#A7B3D9" offset="0.7239"/>
	</linearGradient>
        <polygon id="polygon112" points="132.8,123.8 132.8,198.8 198.2,236.6 198.2,162.7  " class="st9"/>

        <linearGradient gradientTransform="matrix(1 0 0 -1 0 773.036)" y2="600.9347" x2="232.8221" y1="556.9171"
                        x1="74.4373" gradientUnits="userSpaceOnUse" id="SVGID_6_">
		<stop id="stop114" style="stop-color:#666699" offset="0.2331"/>
            <stop id="stop116" style="stop-color:#A7B3D9" offset="0.9907"/>
	</linearGradient>
        <polygon id="polygon119"
                 points="197.4,320.7 197.4,272.4 102.3,216.6 102.3,106 59.2,80.8 59.2,241.5 197.4,321.5  "
                 class="st10"/>
</g>
    <g id="left_purple_line">
	<rect id="rect122" height="111.1" width="0.7" class="st7" y="105.5" x="101.5"/>
        <polygon id="polygon124" points="102.3,105.5 59.8,80.2 59.2,80.8 101.9,105.8  " class="st7"/>
</g>
    <g id="BOTTOM_PURPLE_LINE">

		<linearGradient gradientTransform="matrix(1 0 0 -1 0 773.036)" y2="515.7542" x2="172.882" y1="549.4556"
                        x1="109.9005" gradientUnits="userSpaceOnUse" id="SVGID_7_">
		<stop id="stop127" style="stop-color:#6E70A9" offset="0"/>
            <stop id="stop129" style="stop-color:#514A8E" offset="0.9693"/>
	</linearGradient>
        <polygon id="polygon132" points="197.4,272.4 197.4,273.3 101.5,217.4 101.5,216.6 102.3,216.6  " class="st11"/>
</g>
    <g id="top_middle_light_line">

		<linearGradient gradientTransform="matrix(1 0 0 -1 0 773.036)" y2="696.0524" x2="243.4462" y1="715.5062"
                        x1="203.4582" gradientUnits="userSpaceOnUse" id="SVGID_8_">
		<stop id="stop135" style="stop-color:#9EA5D3" offset="3.680000e-02"/>
            <stop id="stop137" style="stop-color:#7675AE" offset="0.9018"/>
	</linearGradient>
        <polygon id="polygon140" points="199,49.6 260.8,85.8 260.8,91.2 199,55.1  " class="st12"/>
</g>
    <g id="top_right">
	<polygon id="polygon143" points="260.8,85.8 260.8,91.2 303.7,66.1 303.7,61  " class="st13"/>
</g>
    <g id="MAIN_TOP">
	<path id="path146" d="M59.2,80.8" class="st14"/>

        <linearGradient gradientTransform="matrix(1 0 0 -1 0 773.036)" y2="692.8267" x2="59.7803" y1="692.8267"
                        x1="59.7803" gradientUnits="userSpaceOnUse" id="SVGID_9_">
		<stop id="stop148" style="stop-color:#666699" offset="0.2331"/>
            <stop id="stop150" style="stop-color:#A7B3D9" offset="0.9907"/>
	</linearGradient>
        <path id="path153" d="M59.8,80.2" class="st15"/>

        <linearGradient gradientTransform="matrix(1 0 0 -1 0 773.036)" y2="656.5281" x2="177.5963" y1="761.3301"
                        x1="187.0285" gradientUnits="userSpaceOnUse" id="SVGID_10_">
		<stop id="stop155" style="stop-color:#AAACD2" offset="0"/>
            <stop id="stop157" style="stop-color:#FCFAFB" offset="0.6258"/>
	</linearGradient>
        <polygon id="polygon160" points="198.5,0 303.7,61 260.8,85.8 199,49.6 102.3,105.5 59.8,80.2  " class="st16"/>

        <linearGradient gradientTransform="matrix(1 0 0 -1 0 773.036)" y2="668.6439" x2="235.5512" y1="773.4492"
                        x1="244.9837" gradientUnits="userSpaceOnUse" id="SVGID_11_">
		<stop id="stop162" style="stop-color:#AAACD2" offset="0.6743"/>
            <stop id="stop164" style="stop-color:#FCFAFB" offset="1"/>
	</linearGradient>
        <polygon id="polygon167" points="133.8,122.8 198.2,86.5 259.5,121.1 334.2,78.1 337.8,80.8 199,161  "
                 class="st17"/>
</g>
</svg>