<?xml version="1.0" encoding="UTF-8" standalone="no"?>
<svg xmlns:dc="http://purl.org/dc/elements/1.1/" xmlns:cc="http://creativecommons.org/ns#"
     xmlns:rdf="http://www.w3.org/1999/02/22-rdf-syntax-ns#" xmlns="http://www.w3.org/2000/svg" version="1.1" id="svg2"
     xml:space="preserve" width="332.48953" height="109.02131" viewBox="0 0 332.48953 109.02131"><metadata
     id="metadata8"><rdf:RDF><cc:Work
         rdf:about=""><dc:format>image/svg+xml</dc:format><dc:type
    rdf:resource="http://purl.org/dc/dcmitype/StillImage"/><dc:title></dc:title></cc:Work></rdf:RDF></metadata>
    <defs id="defs6"/>
    <g id="g10" transform="matrix(1.3333333,0,0,-1.3333333,-0.06510413,110.1536)"><g
       id="g12"
       transform="scale(0.1)"><path
         d="m 2401.83,244.945 h -15.5 l -6.34,-47.91 h -7.75 l 7.04,47.91 h -15.5 l 0.7,6.352 h 38.05 z m 56.38,-47.91 h -7.76 v 41.574 l -21.85,-41.574 -9.15,41.574 v 0 l -13.39,-41.574 h -7.04 l 17.6,54.262 h 6.36 l 8.46,-36.652 19.01,36.652 h 7.76 z M 1004.79,11.9727 h -45.88 l -47.082,52.3125 h -0.594 V 11.9727 H 873.477 V 140.992 h 51.148 c 38.348,0 65.074,-11.035 65.074,-38.926 0,-16.2847 -13.945,-32.5504 -39.519,-35.4644 z m -93.556,69.7421 h 5.25 c 20.907,0 35.438,4.0665 35.438,19.7622 0,16.257 -15.094,19.179 -35.438,19.179 h -5.25 z m 194.126,-5.2343 c 0,36.6135 39.52,67.9925 95.87,67.9925 56.37,0 95.9,-31.379 95.9,-67.9925 0,-36.6016 -39.53,-67.98831 -95.9,-67.98831 -56.35,0 -95.87,31.38671 -95.87,67.98831 z m 38.93,1.164 c 0,-19.1836 24.99,-44.1718 56.94,-44.1718 31.98,0 56.95,24.9882 56.95,44.1718 0,20.9258 -23.81,41.8435 -56.95,41.8435 -33.13,0 -56.94,-20.9177 -56.94,-41.8435 z m 413.76,14.543 h -0.58 l -44.16,-81.9531 h -12.79 l -42.42,81.9531 h -0.59 l -17.42,-80.2148 h -37.77 l 32.53,132.5003 h 26.74 l 47.64,-84.8363 45.92,84.8363 h 27.31 l 29.05,-132.5003 h -38.34 z M 2272.29,825.574 H 1991.6 c 0,0 -74.38,-87.761 -88.34,-104.617 -73.79,-88.898 -87.15,-112.73 -89.49,-119.129 0.58,6.399 -2.33,30.231 -33.71,120.309 -8.7,24.41 -35.45,103.437 -35.45,103.437 h -95.88 v 0.578 l -233.62,-0.578 h -175.5 l -18.02,-74.394 133.08,-0.571 h 30.79 c 85.43,0 137.75,-34.289 123.22,-94.738 -15.7,-66.242 -90.68,-95.301 -169.7,-95.301 h -29.64 l 38.36,162.711 h -132.49 l -56.38,-237.676 h 188.29 c 141.2,0 276.04,74.391 299.29,170.266 4.65,17.449 4.07,61.035 -6.99,87.176 0,1.168 -0.58,1.75 -1.15,4.07 -0.59,0.578 -1.17,4.653 1.15,5.223 1.18,0.586 3.51,-1.731 4.08,-2.317 1.16,-2.906 1.75,-5.226 1.75,-5.226 l 119.7,-338.223 305.1,344.035 h 129.02 30.79 c 85.44,0 137.74,-34.289 123.78,-94.738 -16.26,-66.242 -91.24,-95.301 -170.26,-95.301 h -29.64 l 38.35,162.711 h -132.5 l -56.36,-237.676 h 188.28 c 141.22,0 276.63,74.391 299.29,170.266 23.24,95.309 -76.71,169.703 -218.51,169.703 z M 835.508,825.57 429.547,825 396.383,686.695 H 221.246 L 254.41,825 121.781,825.168 40.4414,485.957 173.141,486.102 205.113,619.418 H 380.246 L 348.273,486.102 h 132.493 l 63.578,265.128 217.941,-0.625 h 30.801 c 85.426,0 137.73,-34.285 123.781,-94.722 C 900.594,589.629 825.629,560.57 746.59,560.57 h -29.637 l 38.36,162.719 h -132.5 L 566.441,485.605 H 754.73 c 141.215,0 276.62,74.387 299.29,170.278 23.24,95.305 -76.715,169.687 -218.512,169.687 z M 1769.61,405.41 c -357.98,0 -647.98,-41.265 -647.98,-91.816 0,-51.141 290,-91.813 647.98,-91.813 357.97,0 648.54,40.672 648.54,91.813 0,50.551 -290.57,91.816 -648.54,91.816 z m -23.25,-124.359 c -81.95,0 -148.19,13.937 -148.19,30.797 0,16.832 66.24,30.222 148.19,30.222 81.94,0 148.19,-13.39 148.19,-30.222 0,-16.86 -66.25,-30.797 -148.19,-30.797 z m -570.6,124.359 c -357.979,0 -647.971,-41.262 -647.971,-91.824 0,-51.137 289.992,-91.816 647.971,-91.816 43.89,0 86.75,0.613 128.2,1.781 -296.53,8.355 -519.772,45.168 -519.772,90.035 0,44.363 223.242,81.562 519.772,90.019 -41.45,1.18 -84.31,1.805 -128.2,1.805 z m -527.303,0 C 290.48,405.41 0.488281,364.148 0.488281,313.586 0.488281,262.449 290.48,221.77 648.457,221.77 c 43.891,0 86.754,0.613 128.207,1.781 -296.531,8.355 -519.777,45.168 -519.777,90.035 0,44.363 223.246,81.562 519.777,90.019 -41.453,1.18 -84.316,1.805 -128.207,1.805"
         style="fill:#000000;fill-opacity:1;fill-rule:evenodd;stroke:none"
         id="path14" /></g></g></svg>