<?xml version="1.0" encoding="UTF-8" standalone="no"?>
<svg xmlns:dc="http://purl.org/dc/elements/1.1/" xmlns:cc="http://creativecommons.org/ns#"
     xmlns:rdf="http://www.w3.org/1999/02/22-rdf-syntax-ns#" xmlns="http://www.w3.org/2000/svg" version="1.1"
     width="249.36726" height="62.912109" viewBox="-30 -27 249.36726 62.912109" enable-background="new -30 -27 306 113"
     xml:space="preserve" id="svg6"><metadata
   id="metadata10"><rdf:RDF><cc:Work
       rdf:about=""><dc:format>image/svg+xml</dc:format><dc:type rdf:resource="http://purl.org/dc/dcmitype/StillImage"/><dc:title></dc:title></cc:Work></rdf:RDF></metadata>
    <defs id="defs2">
</defs>
    <path
        d="m 210.13477,31.121094 h -1.55079 l -0.63378,4.791015 h -0.7754 l 0.70411,-4.791015 h -1.54981 l 0.0703,-0.635742 h 3.80469 l -0.0693,0.635742 z m 5.63671,4.791015 h -0.77539 v -4.158203 0 l -2.18457,4.158203 -0.91601,-4.158203 v 0 l -1.33789,4.158203 h -0.7041 l 1.75976,-5.426757 h 0.63574 l 0.84571,3.666015 1.90136,-3.666015 h 0.77539 z m -18.59179,-62.854492 h -28.06836 c 0,0 -7.43848,8.776367 -8.83399,10.461914 -7.3789,8.889649 -8.71484,11.273438 -8.94922,11.913086 0.0586,-0.639648 -0.23339,-3.023437 -3.37109,-12.03125 -0.87012,-2.440918 -3.54492,-10.34375 -3.54492,-10.34375 h -9.58789 V -27 l -23.36231,0.05762 H 93.9126 l -1.80225,7.439453 13.30762,0.05713 h 3.0791 c 8.54297,0 13.77539,3.428711 12.32129,9.4736331 -1.56934,6.624512 -9.06738,9.530273 -16.96875,9.530273 h -2.96484 L 104.7207,-16.712891 H 91.47217 L 85.83398,7.0546871 h 18.82911 c 14.12011,0 27.60449,-7.438964 29.92968,-17.026855 0.46387,-1.7446291 0.40625,-6.1035161 -0.69922,-8.7172851 0,-0.116699 -0.0576,-0.174805 -0.11523,-0.407227 -0.0596,-0.05762 -0.11719,-0.465332 0.11523,-0.521973 0.11719,-0.05859 0.35059,0.172852 0.40821,0.231446 0.11523,0.290527 0.17383,0.522949 0.17383,0.522949 l 11.9707,33.822266 30.50976,-34.403809 h 12.90137 3.08008 c 8.54297,0 13.77441,3.428711 12.37793,9.4736331 -1.62695,6.624511 -9.12402,9.530273 -17.02637,9.530273 h -2.96386 l 3.83496,-16.2709961 h -13.25 l -5.63575,23.7675781 h 18.82813 c 14.12207,0 27.66308,-7.438965 29.92871,-17.026855 2.32422,-9.5307621 -7.67188,-16.9702151 -21.85156,-16.9702151 z m -143.677737,4.89e-4 -40.596191,0.05713 -3.316407,13.830079 H -7.924316 l 3.316406,-13.830079 -13.262695,-0.01709 -8.134278,33.921386 13.270508,-0.01416 3.196777,-13.331543 H 7.976074 L 4.778809,7.005371 h 13.249023 l 6.35791,-26.513184 21.793945,0.0625 h 3.080079 c 8.54248,0 13.772949,3.428711 12.378418,9.472657 -1.627442,6.625 -9.124024,9.530761 -17.027832,9.530761 h -2.963868 l 3.835938,-16.271972 h -13.25 L 26.595215,7.054687 h 18.829101 c 14.121582,0 27.661624,-7.438476 29.928224,-17.027343 2.32422,-9.530762 -7.670899,-16.969238 -21.850587,-16.969238 z m 93.410157,42.016113 c -35.79785,0 -64.79736,4.126953 -64.79736,9.18164 0,5.114258 28.99951,9.181641 64.79736,9.181641 35.79687,0 64.85351,-4.067383 64.85351,-9.181641 0,-5.054687 -29.05664,-9.18164 -64.85351,-9.18164 z m -2.3252,12.435547 c -8.19531,0 -14.81933,-1.393555 -14.81933,-3.079102 0,-1.683594 6.62402,-3.022461 14.81933,-3.022461 8.19434,0 14.81934,1.338867 14.81934,3.022461 0,1.685547 -6.625,3.079102 -14.81934,3.079102 z M 87.52734,15.074219 c -35.798336,0 -64.796871,4.125976 -64.796871,9.182617 0,5.113281 28.998535,9.181641 64.796871,9.181641 4.38868,0 8.67481,-0.06152 12.82032,-0.178711 -29.65332,-0.834961 -51.977543,-4.516602 -51.977543,-9.00293 0,-4.436523 22.324223,-8.15625 51.977543,-9.001953 -4.14551,-0.118164 -8.43164,-0.180664 -12.82032,-0.180664 z m -52.730465,0 C -1.000977,15.074219 -30,19.200195 -30,24.256836 c 0,5.113281 28.999023,9.18164 64.796875,9.18164 4.38916,0 8.675293,-0.06152 12.820801,-0.17871 -29.653321,-0.834961 -51.978028,-4.516602 -51.978028,-9.00293 0,-4.436524 22.324707,-8.15625 51.978028,-9.001953 -4.145508,-0.118164 -8.431641,-0.180664 -12.820801,-0.180664 z"
        id="path4" style="clip-rule:evenodd;fill-rule:evenodd"/>
</svg>