<?xml version="1.0" encoding="UTF-8" standalone="no"?>
<svg xmlns:ns="&amp;ns_sfw;" xmlns:dc="http://purl.org/dc/elements/1.1/" xmlns:cc="http://creativecommons.org/ns#"
     xmlns:rdf="http://www.w3.org/1999/02/22-rdf-syntax-ns#" xmlns="http://www.w3.org/2000/svg" id="svg50"
     xml:space="preserve" enable-background="new 0 0 780 300" viewBox="0 0 750.4494 269.07626" height="269.07626"
     width="750.4494" y="0px" x="0px" version="1.1"><defs
   id="defs54" />
  <metadata id="metadata2">
	<ns:sfw>
		<ns:slices/>
    <ns:sliceSourceBounds bottomLeftOrigin="true" y="40.01" x="25.782" height="269.077" width="750.448"/>
	</ns:sfw>
    <rdf:RDF><cc:Work
     rdf:about=""><dc:format>image/svg+xml</dc:format><dc:type rdf:resource="http://purl.org/dc/dcmitype/StillImage"/><dc:title></dc:title></cc:Work></rdf:RDF></metadata>
  <g transform="translate(-16.782272,-13.413727)" id="Background">
</g>
  <g transform="translate(-16.782272,-13.413727)" id="Layer_1">
	<path style="fill:#ff0000" id="path5"
        d="m 166.8,58.93 c 1.02,0.25 1.5,-0.8 2.25,-1.25 1.2,-0.72 12.47,-4.25 12.59,-4.38 1.14,-1.13 -0.57,-3.89 0.41,-4.5 1.05,-0.66 3.26,-0.35 4.13,-0.87 4.35,-2.61 10.89,-2.73 15.13,-5.38 1.3,-0.82 2.53,-2.96 3.87,-3.5 2.76,-1.1 6.15,-1.06 9.13,-2.25 1.54,-0.62 1.96,-3.06 2.88,-4.13 1.74,-2.03 3.69,-2.48 5.75,-4.12 2.96,-2.38 -11.36,0.47 -6.13,-4.76 5.02,-5.02 25.3,-3.04 27.26,-5 l 0.37,-0.62 c 1.37,-1.37 4.75,0.27 4.75,-3.5 v -1.25 c -0.16,-0.11 -13.04,1.26 -14,1.5 -8.41,2.1 -19.25,1.13 -27.13,3.5 -3.41,1.02 -20.98,3.79 -22.27,5.08 l -3.11,2.17 c -14.62,2.92 -29.39,4.56 -44.02,7 -7.25,1.21 -17.839,1.54 -24.17,3.65 -5.78,1.93 -15.09,2.38 -20.84,3.98 -4.52,1.26 -17.25,-1.46 -21.25,0.25 -0.92,0.39 -1.86,4.89 -1.25,5.5 0.54,0.55 2.2,0.41 2.87,0.88 0.59,0.41 1.63,0.93 1.25,1.87 -0.51,1.27 -5.66,-0.24 -7,2 -1.63,2.72 4.14,6.48 5.13,8.13 1.52,2.53 -4.46,3.67 -3.13,7 h 0.63 1.87 c 1.25,0 2.31,0.4 3.13,1.63 l 1.09,0.87 c 2.39,3.38 58.05,-6 58.05,-6 0,0 -16.26,138.73 -82.02,146.04 -15.01,1.67 -30.94,-17.609 -32.01,-18.01 -0.99,-0.37 -2.92,-0.46 -3.56,0.02 -0.64,0.489 -1.35,3.5 0.63,5.75 7.48,8.51 29.74,26.779 51.94,26.239 C 139.04,220.811 166.8,58.93 166.8,58.93 Z"/>
    <path style="fill:#ff0000" id="path7"
          d="m 161.92,133.2 v 0.37 c 0,7.01 4.88,2.13 6.5,3.75 0.31,0.31 -0.14,3.43 -0.37,3.88 -5.77,11.53 -10.72,23.52 -18.13,34.64 -0.44,0.65 -0.4,1.54 -0.75,2.25 -2.59,5.18 -6.63,10.88 -8.75,15.12 -0.81,1.62 -0.96,3.41 -1.88,5.26 -0.1,0.2 -0.5,3.49 -0.75,3 0,4.42 -4.62,12.271 -3,15.5 0.48,0.97 0.22,-0.77 0.75,-1.119 1.17,-0.79 2.94,-1.42 3.75,-2.631 0.69,-1.039 2.15,-7.939 2.63,-8.25 1.74,-1.159 2.75,-3.53 2.75,-0.38 0,1.45 0.07,2.4 -0.38,3.75 -0.19,0.57 0.19,1.32 0,1.88 l -0.5,1.12 v 0.761 1.119 l 0.5,-0.75 0.38,-0.75 c 0.21,-0.42 0.07,-0.89 0.37,-1.5 0.56,-1.119 0.15,-0.859 0.13,-0.88 0,-0.01 0.12,-0.12 0.62,-0.62 0.92,-0.92 0.2,-2.83 1.13,-3.75 0.42,-0.43 2.49,-3.979 3,-5 l 2.25,-4.13 c 0.36,-0.729 0.6,-2.02 1.12,-1.5 2.69,2.691 2.04,9.78 0.75,13.63 -0.12,0.36 -0.93,2.441 -0.75,2.62 0.25,0.25 0.44,-0.59 0.75,-0.75 3.53,-1.76 0.94,-5.559 1.88,-6.5 3.6,-3.6 4.16,-10.159 7.88,-13.88 6.25,-6.25 17.93,-46.56 23.88,-52.51 4.72,-4.72 30.17,-10.17 35.01,-15 3.14,-3.15 3,5.66 3,6.75 0,3.06 -0.18,26.98 0,27.5 0.81,2.43 2.23,3.819 3,6.13 1.19,3.58 -1.08,17.67 2.75,21.51 0.55,0.55 0.34,-0.72 0.38,-0.75 0.47,-0.479 1.87,-3.82 1.87,-4.63 0,-0.79 0.19,-2.81 0.75,-2.25 0.43,0.42 3.76,12.14 4.13,12.5 0.8,0.8 -0.13,2.37 0.37,3.38 0.27,0.53 1.03,0.98 1.13,1.12 0.15,0.24 0.25,1.01 0.37,0.76 0.81,-1.62 0.51,-4.019 1.5,-6.01 0.82,-1.63 0.78,-5.4 1.88,-6.5 1.71,-1.71 4.21,4.34 4.5,4.63 0.29,0.29 1.58,1.42 1.88,1.12 v -7.62 c 0,-11.939 0,-77.65 0.37,-78.4 0.54,-1.08 3.13,-41.05 3.13,-45.64 0,-5.69 -0.95,-4.32 -3.88,-7.25 -0.61,-0.6 -0.26,-6.26 -0.38,-6.38 l -3,-2.62 c -1.15,-1.16 -9.4,3.75 -12.75,3.75 -7.3,0 -5.5,2.37 -9.13,6 -0.19,0.2 -0.55,-0.18 -0.75,-0.37 -0.78,-0.79 -0.75,-0.82 -0.75,-2.25 V 45.3 c -0.56,-0.28 -3.42,0.91 -3.75,1.13 -2,1.33 -3.76,6.14 -4.87,8.37 -2.12,4.24 -5.39,7.52 -7.63,12.01 -0.9,1.8 -1.85,8.34 -3,9.5 -5.54,5.53 -15.55,21.97 -18.88,28.63 -0.38,0.76 -1.88,6 -1.88,6 -1.59,1.59 -9.08,14.61 -9.75,16.63 -0.32,0.95 -5.98,3.26 -7.13,3.75 -1.12,0.49 -2.63,0.26 -3.5,1.13 -0.54,0.54 -0.23,0.55 -0.23,0.57 0,0.02 -0.1,0.04 -0.52,0.18 z m 36.13,-13.45 -0.12,-0.05 c 0,-3.76 8.5,-15.77 9.88,-21.26 v -0.13 c 0.92,-0.46 1.2,-3.52 1.5,-3.75 2.46,-1.84 6.42,-10.54 10.13,-14.25 l 4,-3.88 c 0.27,-0.27 0.85,-0.52 1.12,-0.25 0.65,0.65 -0.15,12.23 -0.37,13.36 -0.72,3.57 0.45,14.77 -0.25,16.4 -0.75,1.76 -3.84,2.64 -7.04,4.38 -4.34,2.37 -9.27,5.41 -12.22,6 -1.65,0.33 -1.4,3.75 -6.5,3.75 z"/>
    <path style="fill:#ff0000" id="path9"
          d="m 324.89,42.83 -0.05,-0.03 h 0.25 c 0.74,0.25 1.61,0.2 2.25,0.62 0.63,0.42 0.15,-0.45 0.75,0 0.92,0.7 2.72,2.61 4,3.26 0.68,0.33 1.86,0.12 2.63,0.12 h 1 c 0.36,1.45 4.43,8.31 6,9.25 0.9,0.54 2.92,0.52 4.13,1.13 0.29,0.14 0.95,-0.02 1.25,0.12 h 0.5 c 0,1.97 -4.9,3.36 -3.5,4.75 2.08,2.09 2.53,4.59 -2.13,5.76 -3.48,0.87 -7.41,-0.47 -10.75,0.87 -3.93,1.57 -7.89,4.72 -12.01,5.75 h -0.12 c -19.61,6.54 -40.14,34.33 -40.14,55.27 v 0.75 c 0,13.82 8.18,29.6 20.76,34.63 1.73,0.7 3.1,2.64 5.25,3 1.7,0.29 3.99,1.38 6.13,1.38 1.5,0 9.93,1.309 11.12,0.62 2.86,-1.63 6.04,-2.6 8.88,-4.5 1.51,-1 0.34,-5.96 -0.25,-6.25 -3.21,-1.61 -0.38,-21.37 0.88,-25.13 1.04,-3.12 3.25,-8 1.5,-9.75 l -0.5,-0.5 c -0.12,-0.12 -2.15,-0.53 -2.38,-0.38 -2.65,1.77 -10.04,0.63 -11.13,1.25 -3.82,2.18 -7.68,3.88 -11.5,6 -1.02,0.57 -7.39,4.48 -8.13,3 -0.16,-0.33 0.81,-0.93 1,-1.12 0.8,-0.8 2.46,-2.5 3.5,-3.13 2.21,-1.32 3.84,-7.41 6.13,-9.25 6.54,-5.23 18.33,-10.71 27.01,-12.88 0.2,-0.05 0.53,0.07 0.62,-0.12 l 0.25,-0.5 4.76,-2.13 c 1.62,-0.81 2.56,-3.09 4.25,-3.37 1.41,-0.24 2,1.62 3,2.12 3.69,1.85 7.75,-2.17 7.75,2.13 v 3.37 c -2.03,2.03 -0.55,7.23 -1.75,9.63 -0.58,1.16 -5.13,18.89 -5.13,19.38 0,0.62 -1.67,8.15 -1.75,8.25 -0.61,0.77 -0.87,21.149 -0.87,23.88 0,4.08 1.05,7.53 2.25,11.13 0.24,0.729 0.75,2.08 0.75,2.75 0,0.44 0.4,0.471 0.25,0.63 -0.81,0.811 -1.85,-1.17 -2.13,-1.25 -6.58,-1.88 -12.92,-12.8 -13.13,-12.88 -3.32,-1.33 -3.13,4.32 -5.75,5.63 -2.45,1.221 -6.1,4.55 -7.84,6.87 -2,2.67 -22.81,2.479 -24.67,0.63 -2.71,-2.71 -7.86,-2.34 -10.75,-4.5 -1.65,-1.24 -18.35,-16.159 -18.63,-17.13 -0.81,-2.84 -2.75,-7.01 -4.13,-9.76 0,0 -2.89,-13.81 -3.53,-22.38 -2.1,-28 13.44,-55.64 32.54,-72.02 2.73,-2.34 5.74,-6.69 9,-8 3.89,-1.55 7.26,-2.25 11.38,-3.62 2.92,-0.98 6.52,-1.45 9.13,-2.76 0.43,-0.21 1.15,-0.77 1.75,-0.62 z"/>
    <path style="fill:#ff0000" id="path11"
          d="m 400.11,36.42 h -0.5 c 0.669,0.67 -0.5,0.5 -0.5,0.5 -0.45,0.45 -2.141,1.94 -2.5,3 -0.591,1.77 -7.09,9.24 -6,12.51 -0.11,-0.11 -1.32,0.81 -1.5,1 -1.23,1.23 -2.35,4.77 -3.5,6.5 -1.03,1.54 -7.05,17.65 -8.01,20.5 -0.2,0.63 0.26,2.49 0,3.01 -1.95,3.91 -4.51,8.03 -6.5,12 -2.88,5.77 -4.98,15.97 -8.5,23 -2.31,4.62 -5,16.51 -6.5,26.01 -0.75,4.739 0,12.239 0,16.51 0,1.51 -0.02,5.96 0.5,7 0.21,0.42 1.16,2.33 1.5,2 -0.53,1.59 2.41,2.41 3,3 0.12,0.12 1.17,2.67 1.5,3 0.03,0.03 1.46,0.54 1,1 4.77,-1.59 11.63,2.25 18.01,-2 1.33,-0.891 11.3,-7.07 11.5,-7 l 1.5,-2 c 1.439,-2.17 4.229,-3.47 5.5,-6 1.239,-2.48 6.529,-11.01 9,-11.01 -4.081,0.59 -1,24.149 -1,27.01 h 1 c 0,1.09 0.659,5.17 2,4.5 -0.37,1.12 2.56,2.87 3.5,3.5 5.829,3.89 14.29,-5.72 16.51,-3.5 0.36,0.359 -2.17,4.69 -2.5,6 -0.301,1.18 -7.78,17.78 -9,19.01 -1.25,1.25 -5.01,5.97 -5.01,8 0,1.37 -0.21,1.78 0.5,2.5 0,0 -0.16,1.17 0.51,0.5 v 1 c 0.59,-0.59 1.96,2.461 2,2.5 0.94,0.95 6.649,-1.55 6,-3.5 0.6,0.6 0.89,-1.8 1.5,-2 2.3,-0.77 2.84,1.83 3.5,1.5 2.35,-1.17 7,-8.53 7,-3 h 1 v -1 c 0.3,0.15 1.79,-0.859 2,-1 1.33,-0.88 8.55,-11.659 9.5,-14.5 0.34,-1 2.94,-4.289 3.5,-4.01 v -1 c 0.46,0.46 0.97,-0.96 1.01,-1 0.39,-0.391 1.649,-0.93 2.5,-1.5 0.34,-0.23 0.45,-0.771 1,-0.5 -0.41,-1.2 0.601,-2.6 1.5,-3.5 6.14,-6.15 19.62,-34.75 24.5,-44.51 0.32,-0.63 7.149,-10.07 8.01,-10.5 l 5.5,-0.5 c 0.351,0 1.94,-0.56 1.5,-1 0.841,0.28 12.8,-9.51 17,-9.51 -0.3,-0.29 1.64,-1.4 2,-1.5 1.851,-0.46 3.65,-1.5 5.5,-1.5 v -1 c 0.61,0 4.171,-1.83 5.011,-1 1.959,1.97 -2.011,17.84 -2.011,18.01 0,1.49 1.511,6.98 1.5,7 h 1.011 c 0,6.97 1,13.83 1,21.01 v 2 c 0.189,0.19 2.8,-0.2 3,0 2.76,2.76 0.459,14.96 4.5,19 0.14,0.14 0,0.309 0,0.5 0,1.12 0.539,1.5 1.5,1.5 0,1.84 -0.121,2.12 -1,3 -0.121,0.12 0.5,1.58 0.5,2.5 1.26,-0.63 0.939,1.45 1,1.5 1.609,1.62 -0.061,5.12 -1,7.01 -0.021,0.03 -0.34,3.33 0.5,2.5 -0.59,1.761 1,0.67 1,2.5 h 1 c -0.211,0.211 1.26,1.271 1.5,2 0.449,1.36 1,2.6 1,4 h 0.5 v 1.5 h 1 l 0.5,1 v 1 c 1.069,1.07 1.169,-3.15 0.5,-4.5 -1.021,-2.039 0.5,-7.069 0.5,-9.5 0,-3.21 1.489,-17.97 2,-19.51 2.169,-6.5 1.34,-41.75 2,-44.51 2.5,-10.5 4,-29.76 4,-43.01 0,-8.86 1.399,-19.59 3.5,-28.01 0.66,-2.65 0.899,-6.79 2,-9 0.319,-0.64 1.189,-0.87 1.5,-1.5 0.039,-0.07 0.319,-2.82 -0.5,-2 v -2.5 h -1 c 0,-0.17 0.279,-2.28 -0.5,-1.5 v -1.01 c -1.871,0 -4.351,-1 -6.5,-1 -0.24,0 -4.461,-0.54 -4,-1 h -1 c 0.529,-0.52 -1.331,-1.33 -2,-1 v -1 l -0.5,-0.5 h -1.5 c 0.419,-0.41 -1.391,-1.39 -1.5,-1.5 -0.791,-0.79 -0.44,-2.64 -1.5,-3 -0.961,-0.32 -2.291,1.22 -3,0.5 0.89,2.69 -2.75,2 -3.5,3.5 -1.45,2.9 0.439,7.11 -1,10.01 l -5,4.5 c -0.141,0.14 -0.141,0.36 0,0.5 -1.681,0 -4.721,3.19 -5.011,3 0.271,0.26 -0.229,0.74 -0.5,1 -0.93,0.93 -3.269,2.04 -4,3.5 -1.51,3.02 -5.92,5.85 -7.5,9 -2.6,5.2 -8.68,14.35 -14,17.01 -0.939,0.47 -2.729,5.64 -4,5 0.29,0.87 -3.79,4.58 -4.51,6 -1.68,3.36 -7.04,13.57 -9,16.5 -1.03,1.55 -4.42,2.75 -4,4.01 -0.02,-0.02 -5.38,3.34 -5,4.5 -0.78,-0.39 -8.28,5.77 -9,6.5 -1.479,1.48 -7.351,1.19 -8.01,2.5 -0.46,0.93 2.729,5.55 1.51,8 -0.8,1.59 -3.51,2.23 -3.51,4 h 2.51 c 2.51,0 3.95,-1.5 6,-1.5 0.33,0 0.83,-0.17 0.5,0.5 -1.18,2.36 -15,23.17 -16.01,23.51 -0.66,0.221 -5.99,-0.49 -6,-0.5 -0.591,-0.59 -0.91,-2.59 -1.5,-2 0,-1.13 -0.14,-9.73 0,-10.01 2.55,-5.09 2.42,-11.84 5,-17 3.43,-6.85 10.43,-26.39 13.51,-31.01 0.8,-1.2 1.931,-1.76 1.5,-3.5 h 0.5 c 2.2,-8.17 7.351,-16.05 10,-24.01 0.66,-1.97 3.34,-9.84 4.5,-11 l 2,-1.5 c -0.26,-0.78 2.01,-4.49 1,-5.5 -0.16,-0.16 -1.87,-1.63 -1.5,-2 h -1 l -0.5,-0.5 v -1 c -1.649,1.64 1.41,-9.41 -0.5,-7.5 0,-4.04 -8.22,-3.5 -11.5,-3.5 l -0.5,-0.5 v -1 c -0.38,0.37 -0.979,-0.51 -1.5,-0.51 -1.09,0 -5.34,0.06 -6.01,0.51 -3.271,2.18 -10.4,20.41 -13.5,23.5 l -1.5,4 c -0.431,0.86 -2.101,1.61 -1.5,2.5 h -0.5 c 1.46,4.39 -2.63,7.7 -4.5,10.51 -0.351,0.52 -3,16.6 -3,19 h -1 c 0,0.45 -0.521,2.49 -1,2 0.54,2.17 -2.86,6.59 -3.5,8.5 -6.82,20.46 -4.601,13.1 -19.01,27.51 -2.641,2.65 -4.71,6.81 -8,9 -1.66,1.11 -3.061,1.56 -4.5,3 -0.14,0.14 -0.14,0.369 0,0.5 h -1 c 0.73,0.73 -3.65,1.86 -3,2.51 -0.23,-0.08 -6.36,6.32 -11.01,4 -6.24,-3.12 5.71,-25.89 5.01,-28.01 0.03,0.04 1.39,-1.28 2,-2.5 1.35,-2.72 0.84,-7.52 2.5,-10 3.85,-5.78 8,-8.16 8,-16.51 l 0.5,-1 h 1 c -0.03,-0.06 1,-2.05 1,-3 0.14,0.14 0.359,0.14 0.5,0 l 2.5,-2.5 c 2.659,-2.66 2.84,-7.68 4.5,-11 0.85,-1.7 3.72,-2.94 4.5,-4.5 0.7,-1.41 -0.61,-5.79 0.5,-8.01 0.169,-0.33 1.069,-2.43 1.5,-2 -0.341,-1.02 9.029,-13.44 8.51,-14.5 h 1 c -0.58,-1.16 4.5,-10.12 4.5,-10.5 h -1 v -1 c -0.74,0.73 -2.63,-2.63 -3,-3.01 -0.14,-0.13 -0.37,-0.13 -0.5,0 v -1 h -1 c 0.659,-0.66 -0.5,-0.5 -0.5,-0.5 -0.04,-0.03 -0.36,-3.14 -1.01,-2.5 0,-1.13 -1.581,-4.76 -1.5,-5 h -1 c 1.899,-3.79 -5.91,-2.69 -8,-2 -1.13,0.38 -3.74,3.51 -4.5,3 z m 103.28,67.27 c 0.171,0 1.24,-3.81 1.87,-4.88 2.641,-4.38 5.391,-9.88 8.38,-13.87 2.58,-3.44 15.37,-19.72 12.38,-4.76 -0.619,3.09 -2,4.58 -2,8.01 0,6.4 -1.51,5.69 -6.25,6.87 -4.76,1.19 -10.23,8.63 -14.38,8.63 z"/>
    <path style="fill:#ff0000" id="path13"
          d="m 555.87,221.42 c -0.15,0 -0.091,-0.3 -0.091,-0.45 v -2.5 c 0,-1.85 2.11,-5.14 1.621,-5.619 -4.711,-4.711 5.31,-18.54 7.76,-24.261 0.26,-0.62 -0.2,-5.559 0,-5.75 0.15,-0.159 1.9,-0.76 1.619,-1.25 -0.5,-0.87 -1.469,-3.359 -0.869,-4.75 0.47,-1.1 2.08,-1.57 2.5,-2.51 1.159,-2.6 0.89,-4.27 2.369,-6.5 0.261,-0.391 0.271,-2.33 0.881,-3.25 0.39,-0.59 0.38,-1.391 0.75,-2 1.17,-1.96 3.029,-2.03 3.619,-4 1.051,-3.5 -0.85,-7.98 0,-10.13 1.591,-3.98 7.4,-23.32 8.511,-24.75 l 1.25,-1.63 c 2.26,-2.95 0.069,-6.62 1.25,-9.38 1.21,-2.83 2.75,-5.79 4.37,-8.5 0.89,-1.48 1.1,-7.28 3.25,-10.88 0.25,-0.4 1.74,-7.64 1.25,-8.12 -0.6,-0.61 -2.521,2.01 -3.25,2.5 -1.271,0.85 -2.7,0.7 -4,2 -0.4,0.4 -12.66,3.05 -11.75,-0.88 -0.21,0.21 -1.51,-1.07 -1.631,-1.12 -1.1,-0.48 -0.659,0.26 -2,-0.5 -0.159,-0.1 -3.969,-0.23 -4.119,-0.38 -2.71,-2.7 -2.7,-3.74 -6.01,-5.63 -0.831,-0.47 -0.141,-0.95 -1.621,-0.5 0.371,-0.27 -1.229,-0.72 -1.25,-0.75 -0.649,-0.64 0.391,-5.76 0.75,-6.12 2.5,-2.5 11.4,-7.89 10.131,-12.13 0.92,-0.4 0.13,-0.01 0.869,-0.75 0.24,-0.24 2.211,-1.37 2.881,-1.63 2.01,-0.75 6.81,-1.98 8.5,-3.25 1.07,-0.8 1.79,-1 3.25,-1.62 5.949,-2.55 11.79,-4.6 18.13,-6.5 1.36,-0.41 1.771,-1.91 3.25,-2.51 1.17,-0.46 3.489,-0.41 4.5,-1.12 l 1.25,-0.88 c 6.489,-4.53 23.489,-2.5 26.76,-4.37 2.05,-1.17 4.12,-3.75 5.63,-4.5 2.46,-1.23 29.37,2.92 31.26,4 3.16,1.8 4.931,1.8 7.25,4.12 0.141,0.14 2.541,3.66 3.25,3.26 -0.029,2.15 5.32,3 5.63,3.62 1.061,2.13 2.65,4.14 4.87,5.25 0.28,0.14 1.061,2.81 1.25,3.25 0.721,1.67 2.25,3 3.25,4 1.461,1.46 -0.17,4.29 0.75,6.13 0.471,0.94 -0.52,4.29 -0.37,5.25 -0.979,2.29 0.44,6.81 -0.35,9.4 -2.04,6.63 -4.86,11.02 -9.03,16.98 -2.58,3.69 -6.899,4.44 -8.879,7.26 -0.35,0.5 -1.141,3.36 -2,3.62 -1.991,0.6 -8.91,4.16 -10.5,5.75 -1.431,1.44 -3.011,2.83 -4.881,3.63 l -1.619,0.38 h -0.881 c 0,0.26 8.73,8.22 9.381,8.87 4.859,4.86 7.329,12.59 11.379,16.63 2.83,2.84 7.16,6.43 9.63,10.13 0.101,0.16 0.311,-0.07 0.5,0 11.231,4.489 22.78,20.93 33.131,25.51 -0.261,0.45 2.18,2.25 2.5,2.5 1.64,1.26 5.46,4.93 6.5,6.5 1.689,2.53 21.729,21.271 26.34,25.88 0.45,0.45 1.26,5.25 0.79,5.75 0.989,-3.28 -16.36,-11.02 -17.5,-13.88 -1.29,-3.22 -17.011,-15.21 -21.011,-16.63 -0.149,-0.05 -10.609,-10.191 -11.75,-10.87 -2.93,-1.76 -7.96,-3.5 -11,-5.63 -4.43,-3.1 -6.149,-7.82 -8.88,-11 -1.81,-2.11 -4.8,-1.56 -7.629,-6.5 -0.261,-0.46 -2.75,-1.68 -3.25,-2.38 l -0.871,-1.25 c -1.229,-1.75 -3,-2.5 -4.5,-4 -0.189,-0.191 -0.47,-1.77 -1.129,-2.13 -0.541,-0.29 -3.041,-1.93 -2.5,-2.75 h -1.121 c 0.261,-0.45 -1.459,-1.42 -1.629,-2 -0.221,-0.73 -2.44,-3.31 -3.25,-4.12 -0.171,-0.17 -2.85,0.2 -3.25,0 l -2,-1.26 c -0.261,-0.14 -1.621,-0.75 -1.25,-1.12 -1.69,0 -5.23,-3.6 -6.5,-4.88 -0.881,-0.87 -5.58,-0.58 -6.881,-3.62 -0.69,-1.61 -2.69,-2.25 -4.13,-3.25 -0.85,-0.6 -1.97,-1.05 -2.37,-2 l -0.75,-1.63 c -0.229,-0.53 -0.18,-0.61 -0.17,-0.61 0.02,0.01 -0.02,0.15 -0.71,-0.26 -0.46,-0.28 -0.37,-0.33 -0.37,-0.75 v -0.88 0.88 0.37 l 0.75,0.75 0.5,1.25 c 0.28,0.92 0.37,0.81 0.37,2 0,1.19 0.42,2.51 1.25,3.25 2.03,1.83 4.25,3.7 6,5.75 1.81,2.11 5.97,5.1 8.13,7.26 4.25,4.24 11.03,8.15 16.26,13.37 2.17,2.18 2.84,3.97 4.371,6.01 0.119,0.15 -0.171,0.4 0,0.5 l 4.5,1.12 c 3.909,4.57 10.67,7.26 13.379,13.38 0.431,-0.279 0.57,0.37 0.75,0.5 1.871,1.309 5.86,4.609 6.13,6.38 1.171,-0.47 1.53,1.26 2.37,1.62 9.45,4.05 20.351,14.221 27.641,21.51 0.66,0.66 3.949,6.07 5.25,6.5 2.02,0.681 7.16,3.131 8.5,4.881 0.54,0.689 0.989,2.839 1.25,3.619 0.01,0.04 14.109,14.461 15.38,15.011 0.13,0.05 -0.04,0.23 0,0.37 0.51,1.719 3.25,1.619 3.25,3.25 0,0.669 0.609,1.739 0,2 -0.23,0.1 -1.101,-0.45 -1.25,-0.75 -0.11,-0.211 -9.49,-9.271 -9.75,-9.37 -6.79,-2.721 -26.021,-21.641 -35.26,-26.261 -7.171,-3.59 -17.16,-14.909 -23.011,-20.76 -2.899,-2.9 -4.58,-5.32 -6.5,-7.25 -0.789,-0.79 -3.989,-1.34 -4.879,-2.38 l -0.871,-1.25 c -7.529,-3.33 -11.52,-9.5 -17.76,-11.37 l -1.25,-0.75 c -0.13,-0.07 -0.31,0.13 -0.369,0 -0.431,-0.99 -20.641,-23.95 -21.511,-24.39 -1.63,-0.81 -18.399,-11.53 -19,-12.12 -0.96,-0.96 0.21,-2.76 0.75,-4 3.31,-7.72 6.17,1.45 11.75,-4.13 0.83,-0.83 -4.19,-5.27 -5.25,-5.63 -0.649,-0.21 -1.8,-1.21 -1.25,-1.62 l -1.13,-0.38 c 0,-2.27 0.2,-3.42 1.63,-4.5 0.61,-0.46 0.58,-1.46 1.12,-2 0.85,-0.84 3.2,1.05 3.25,1.13 3.149,4.18 6,5.75 13.01,5.75 1.09,0 2.59,0.49 3.25,-0.38 4.48,-5.98 11.25,-18.25 15.75,-23.5 0.23,-0.27 0.64,-3 0.381,-3.26 -0.791,-0.78 -2.291,-3.43 -2.75,-4.5 l -5.75,-2 c -0.91,-0.27 -0.5,-0.65 -0.75,-1.25 -0.06,-0.13 -0.241,0.06 -0.381,0 -1.619,-0.69 -5.36,-2.84 -5.75,-3.62 h -1.13 c -0.45,0 -3.59,-0.13 -3.75,0 -0.61,0.52 -0.33,0.68 -0.35,0.73 -0.011,0.02 -0.091,0.02 -0.4,0.02 -13.59,0 -15.66,1.49 -20.63,12.25 -0.49,1.06 -1.53,1.93 -1.62,3.25 -0.97,0.55 -0.731,-3.52 -4.13,-2.5 -0.7,0.21 -3.18,11.95 -4,13 l -5.75,7.26 c -5.45,8.18 -7.93,37.55 -12.13,41.76 -0.29,0.29 0,0.83 0,1.25 0,5.351 -0.94,8.65 -2.75,12.88 -0.63,1.471 -1.65,15.809 -2.88,19.5 -1.18,3.54 -2.41,4.42 -3.62,7.25 -2.479,5.77 1.76,10.21 -4.13,14.63 -0.12,0.091 0,0.23 0,0.38 0,1.82 0.15,5.58 -1.12,6.12 -0.46,0.2 -3.78,-0.72 -4.13,-0.87 -0.61,-0.26 -0.381,-1.46 0,-2 0.67,-0.96 3.369,-3.619 4.13,-4.38 0.72,-0.72 0,-4.87 0.37,-5.75 0.26,-0.609 3.14,-3.51 3.63,-4 0.739,-0.74 0.67,-2.01 1.25,-2.88 0.26,-0.391 -1.15,-2.771 -1.25,-2.87 -0.13,-0.12 0.12,-3.88 0,-4 -0.86,-0.859 -2.87,2.48 -3.25,3.25 -0.94,1.86 -6.09,15.341 -6.13,15.38 -2.51,2.511 -5.44,11.8 -6.881,12.631 -1.879,1.069 -2.6,-8.95 -6.5,-2.131 -0.17,0.311 -0.199,4.36 -0.369,4.881 -0.7,2.069 -1.93,3 -2.76,5.75 v 2.369 c -0.7,0.53 -1.211,-2.35 -2.871,-1.25 -4.619,3.08 -1.799,1.83 -3.629,0 -0.131,-0.14 -0.311,-0.05 -0.5,0 l 0.119,0.1"/>
    <path style="fill:#ff0000" id="path15"
          d="m 613.84,125.11 -0.05,-0.04 c 1.33,0.76 2.41,-0.01 3.38,0.38 3.49,1.39 6.66,0.95 10,2.62 4.641,2.32 10.04,9.39 16.01,11.38 0.32,0.11 0.06,0.71 0.25,1 0.64,1.03 2.06,3.06 3,4 2.32,2.33 10.06,12.04 12,13.01 0.721,0.359 2.75,1.62 3,2.25 0.31,0.76 1.49,3.74 1.75,4 2.6,2.6 4.09,2.471 7.25,4.37 0.721,0.43 2.41,3.34 2.75,4.38 0.21,0.6 1.09,0.66 1.631,1 2.09,1.309 11.989,10.32 13,11 1.31,0.87 1.77,3.26 3.629,4 1.121,0.45 0.931,2.471 2,3 4.851,2.43 19.011,9.63 23.38,14.01 0.9,0.9 0.971,2.5 2,3.25 2.4,1.74 7.69,3.75 9.381,6 3.25,4.341 12.989,16.85 17.63,19.381 0.989,0.539 1.59,0.219 1.62,1.63 0.11,-0.11 0.28,-0.11 0.38,0 0.52,0.52 1.46,1.819 2.38,2.37 2.03,1.219 4.63,5.029 6.25,6.38 0.229,0.2 0.45,0.17 0.75,0.25 1.149,0.289 11.819,6.55 9.63,8.75 -0.39,0.38 -1.33,0.45 -1.63,0 -1.23,-1.841 -2.8,-3.58 -4.75,-4.75 -0.5,-0.3 -1.941,-0.23 -2.25,-1 -2.42,-6.041 -22.26,-15.681 -25.01,-20.261 -0.171,-0.289 -1.931,-0.33 -2,-0.369 -0.841,-0.5 -4.33,-1.961 -4.381,-2 -1.519,-1.521 -3.47,-4.461 -5,-5.381 -3.71,-2.22 -12.689,-12.27 -13.63,-12.63 -5.609,-2.1 -9.979,-7.18 -16.379,-10.37 -0.86,-0.439 -2,-0.51 -2.621,-1.25 -4.01,-4.809 -29.76,-23.85 -30.01,-26.76 h -1 c 0.131,-0.09 -0.97,-0.8 -1.369,-1 -0.19,-0.1 -0.48,0.15 -0.631,0 l -3.38,-2 c -0.22,-0.09 -4.97,-7.6 -6.62,-9.25 l -0.75,-0.76 c -4.63,-4.62 -8.79,-9.33 -14.63,-12.25 -0.13,-0.06 -2.75,-4.87 -3.63,-5.75 -0.101,-0.1 -0.23,0.04 -0.37,0 -4.79,-1.2 -8.93,-0.7 -12.38,-3 -1.22,-0.81 -2,-5.19 -2,-7.63 v -0.37 c 0,-0.25 -0.15,-0.43 0,-0.63 0.2,-0.26 1.7,-0.4 1.37,-0.62 z"/>
    <path style="fill:#ff0000" id="path17"
          d="m 753.83,259.73 c 0.39,-0.391 1.32,-0.08 1.63,0.38 0.95,1.43 2.42,2.09 3,3.62 0.62,1.659 3.84,0.859 4.75,2.38 0.46,0.77 0.809,0.899 1.25,1.63 0.44,0.729 0.75,0.779 0.75,1.75 v 1 0.62 l -0.38,1 c 0,0 0.34,0.079 -0.37,-0.62 -0.58,-0.59 0.33,-0.171 -0.25,-0.75 l -0.38,-0.25 c -0.07,-0.13 0.109,-0.28 0,-0.38 -0.48,-0.48 -0.551,-0.841 -1,-1.37 -0.36,-0.44 -1.7,-0.83 -2.37,-1.63 -0.71,-0.851 -2.31,-1.311 -3,-2 -0.4,-0.391 -4.76,-3.68 -5.63,-4 -3.66,-1.37 -6.641,-3.391 -9.63,-6.38 -2.47,-2.471 -12.771,-8.181 -13.75,-10.63 -0.08,-0.19 -0.481,0.149 -0.631,0 -1.169,-1.17 -1.899,-1.69 -3.619,-2.37 -0.89,-0.36 -20.3,-15.471 -20.381,-15.63 -0.119,-0.23 -0.119,-0.301 -0.109,-0.301 0.03,-0.02 0.14,0.2 -0.271,-0.08 -4.989,-3.319 -9.72,-8.609 -15,-11.25 -0.56,-0.28 -4.25,-5.859 -4.25,-6.75 v -0.25 c -6.81,-4.539 -11.12,-3.019 -19.76,-13.38 -0.14,-0.17 -0.029,-0.55 -0.25,-0.62 -4,-1.34 -24.6,-23.5 -25.75,-26.39 -0.69,-1.7 -3.69,-1.42 -4.63,-3 -1.3,-2.17 -0.78,-3.61 -2.38,-6 -0.5,-0.75 -7.83,-2.45 -8,-2.63 -2.05,-2.05 -2.98,-5.48 -4.25,-6.75 -1.53,-1.53 -5.689,-2.28 -7,-4.25 -0.101,-0.15 0,-1.65 0,-2 0.27,0.17 1.109,-0.7 1.25,-0.75 h 4.75 c 1.57,0.94 7.07,5.71 8.25,6 4.53,1.14 8.8,2.02 12.38,5 5.21,4.34 3.05,7.22 5.63,12.38 2.08,4.17 22.69,22.7 27,27.01 1.65,1.641 2.73,5.16 4.76,6.38 0.78,0.47 5.95,1.32 6.25,1.62 1.86,1.86 4.931,3.561 6.371,5 0.529,0.53 0.859,3.691 1.379,4 0.73,0.441 8.33,6.79 8.63,7.38 0.241,0.49 1.32,-0.2 1.62,0.25 0.811,1.22 3.82,2.29 5,3 0.91,0.55 2.9,4.271 4,5 0.7,0.47 4.98,4.311 5.011,4.381 0.46,1.239 1.819,0.699 2.75,1.63 2.31,2.309 7.75,3.12 10,5.37 10.239,10.239 21.409,17.159 28.63,24.38"/>
    <g id="g31">
		<path style="fill:#fdc007" id="path19"
          d="m 197.06,262.48 c 0,-11.05 8.95,-20 20,-20 11.05,0 20.01,8.95 20.01,20 0,11.05 -8.96,20.01 -20.01,20.01 -11.05,0 -20,-8.96 -20,-20.01 z"/>
      <path style="fill:#fdc007" id="path21"
            d="m 263.07,262.48 c 0,-11.05 8.96,-20 20.01,-20 11.05,0 20,8.95 20,20 0,11.05 -8.95,20.01 -20,20.01 -11.05,0 -20.01,-8.96 -20.01,-20.01 z"/>
      <path style="fill:#fdc007" id="path23"
            d="m 331.09,262.48 c 0,-11.05 8.96,-20 20.01,-20 11.05,0 20,8.95 20,20 0,11.05 -8.95,20.01 -20,20.01 -11.05,0 -20.01,-8.96 -20.01,-20.01 z"/>
      <path style="fill:#fdc007" id="path25"
            d="m 399.11,262.48 c 0,-11.05 8.959,-20 20.01,-20 11.04,0 20,8.95 20,20 0,11.05 -8.96,20.01 -20,20.01 -11.051,0 -20.01,-8.96 -20.01,-20.01 z"/>
      <path style="fill:#fdc007" id="path27"
            d="m 465.13,262.48 c 0,-11.05 8.96,-20 20,-20 11.05,0 20.01,8.95 20.01,20 0,11.05 -8.96,20.01 -20.01,20.01 -11.04,0 -20,-8.96 -20,-20.01 z"/>
      <path style="fill:#fdc007" id="path29"
            d="m 533.15,262.48 c 0,-11.05 8.949,-20 20,-20 11.05,0 20.01,8.95 20.01,20 0,11.05 -8.96,20.01 -20.01,20.01 -11.05,0 -20,-8.96 -20,-20.01 z"/>
	</g>
    <polygon id="polygon33"
             points="551.15,256.48 551.15,272.49 555.15,272.49 555.15,256.48 561.15,256.48 561.15,252.48 545.15,252.48 545.15,256.48 "/>
    <rect id="rect35" height="20.01" width="4" y="252.48" x="483.13"/>
    <rect id="rect37" height="2" width="8" y="261.48001" x="347.10001"/>
    <path id="path39"
          d="m 284.08,254.78 v 9.9 h -6 z m 0,14.31 v 4.4 h 4 v -4.4 h 4 v -4.409 h -4 v -13.2 h -2 -2 -2 l -8,13.2 v 4.409 z"/>
    <g id="g43">
		<path id="path41"
          d="m 422.189,266.71 c 0,-0.67 -0.14,-1.2 -0.41,-1.58 -0.279,-0.38 -0.69,-0.67 -1.23,-0.86 -0.34,-0.13 -0.79,-0.2 -1.38,-0.209 -0.58,-0.02 -1.359,-0.03 -2.33,-0.03 h -1.01 v 5.47 h 0.29 c 1.43,0 2.409,-0.01 2.96,-0.03 0.55,-0.02 1.1,-0.159 1.67,-0.4 0.5,-0.209 0.86,-0.529 1.09,-0.939 0.23,-0.422 0.35,-0.892 0.35,-1.422 z m -1.379,-8.88 c 0,-0.35 -0.091,-0.71 -0.27,-1.08 -0.19,-0.37 -0.471,-0.64 -0.851,-0.811 -0.359,-0.159 -0.789,-0.239 -1.279,-0.259 -0.49,-0.011 -1.23,-0.02 -2.2,-0.02 h -0.38 v 4.62 h 0.68 c 0.94,0 1.601,-0.011 1.971,-0.03 0.38,-0.02 0.77,-0.12 1.17,-0.3 0.439,-0.21 0.739,-0.49 0.91,-0.86 0.159,-0.36 0.249,-0.78 0.249,-1.26 z m 7.02,8.98 c 0,1.079 -0.21,2.029 -0.62,2.85 -0.41,0.82 -0.96,1.5 -1.65,2.04 -0.83,0.64 -1.73,1.1 -2.711,1.38 -0.979,0.27 -2.229,0.41 -3.75,0.41 h -8.739 v -21.82 h 7.72 c 1.609,0 2.82,0.061 3.65,0.181 0.83,0.13 1.6,0.38 2.319,0.77 0.79,0.42 1.37,0.98 1.761,1.69 0.379,0.699 0.579,1.509 0.579,2.43 0,1.06 -0.27,2.01 -0.8,2.84 -0.529,0.83 -1.271,1.439 -2.21,1.84 v 0.11 c 1.351,0.289 2.42,0.859 3.23,1.739 0.811,0.87 1.221,2.049 1.221,3.54 z"/>
	</g>
    <g id="g47">
		<path id="path45"
          d="m 217.81,268.34 c 0.29,-0.359 0.5,-0.739 0.65,-1.15 0.16,-0.42 0.23,-1.05 0.23,-1.89 0,-0.699 -0.09,-1.28 -0.26,-1.739 -0.18,-0.46 -0.43,-0.83 -0.75,-1.1 -0.32,-0.27 -0.69,-0.46 -1.1,-0.56 -0.41,-0.11 -0.84,-0.16 -1.3,-0.16 -0.39,0 -0.78,0.05 -1.18,0.149 -0.41,0.101 -0.79,0.221 -1.14,0.37 l -0.02,0.48 c 0,0.22 -0.01,0.51 -0.01,0.85 0,1.25 0.11,2.261 0.33,3.021 0.22,0.76 0.5,1.34 0.83,1.729 0.25,0.311 0.54,0.53 0.87,0.67 0.33,0.141 0.67,0.21 1.03,0.21 0.3,0 0.62,-0.08 0.96,-0.22 0.34,-0.149 0.63,-0.37 0.86,-0.66 z m 6.37,-3.29 c 0,2.29 -0.73,4.181 -2.18,5.66 -1.46,1.49 -3.46,2.23 -6,2.23 -1.27,0 -2.4,-0.19 -3.4,-0.55 -1,-0.37 -1.84,-0.909 -2.54,-1.62 -0.83,-0.839 -1.46,-1.93 -1.9,-3.26 -0.44,-1.32 -0.66,-2.909 -0.66,-4.76 0,-1.91 0.2,-3.61 0.61,-5.1 0.41,-1.48 1.08,-2.8 2.01,-3.94 0.89,-1.09 2.05,-1.93 3.49,-2.54 1.43,-0.609 3.13,-0.92 5.09,-0.92 0.72,0 1.43,0.05 2.15,0.14 0.72,0.091 1.21,0.171 1.47,0.23 v 4.28 h -0.39 c -0.26,-0.12 -0.68,-0.261 -1.26,-0.42 -0.59,-0.161 -1.26,-0.24 -2.01,-0.24 -1.71,0 -3.03,0.449 -3.96,1.35 -0.92,0.891 -1.5,2.18 -1.71,3.85 0.71,-0.459 1.44,-0.819 2.18,-1.1 0.74,-0.271 1.57,-0.409 2.5,-0.409 0.78,0 1.52,0.109 2.21,0.319 0.69,0.21 1.3,0.51 1.84,0.91 0.75,0.58 1.35,1.34 1.8,2.279 0.44,0.941 0.66,2.141 0.66,3.611 z"/>
	</g>
</g>
</svg>