<?xml version="1.0" encoding="UTF-8" standalone="no"?>
<svg xmlns:dc="http://purl.org/dc/elements/1.1/" xmlns:cc="http://creativecommons.org/ns#"
     xmlns:rdf="http://www.w3.org/1999/02/22-rdf-syntax-ns#" xmlns="http://www.w3.org/2000/svg" id="svg16" version="1.1"
     viewBox="0 0 187.08799 99.958" height="1296.4318" width="2426.4873">
    <metadata id="metadata22">
        <rdf:RDF>
            <cc:Work rdf:about="">
                <dc:format>image/svg+xml</dc:format>
                <dc:type rdf:resource="http://purl.org/dc/dcmitype/StillImage"/>
                <dc:title></dc:title>
            </cc:Work>
        </rdf:RDF>
    </metadata>
    <defs id="defs20"/>
    <path d="M 187.088,0 H 0.074 L 0,99.958 h 187.014 z" id="path4" style="clip-rule:evenodd;fill-rule:evenodd"/>
    <path d="m 10.891,10.818 h 124.16 V 89.223 H 10.891 Z" id="path6"
          style="clip-rule:evenodd;fill:#ffffff;fill-rule:evenodd"/>
    <path d="m 145.4,10.818 h 30.87 V 89.223 H 145.4 Z" id="path8"
          style="clip-rule:evenodd;fill:#c1352c;fill-rule:evenodd"/>
    <path
        d="m 35.876,38.422 9.994,-2.405 v 38.25 c 0,7.289 -1.502,10.22 -2.855,11.948 -1.804,2.33 -4.359,4.208 -7.816,5.637 L 30.991,86.29 c 1.578,-1.277 3.006,-2.931 3.682,-4.358 0.902,-1.653 1.203,-3.758 1.203,-7.364 z m 5.11,-18.487 c 3.382,0 6.237,2.781 6.237,6.163 0,3.457 -2.855,6.312 -6.312,6.312 a 6.143,6.143 0 0 1 -6.163,-6.163 c 0.001,-3.456 2.782,-6.312 6.238,-6.312 z m 7.891,21.493 c 2.479,-1.578 3.532,-2.104 6.237,-3.156 3.757,-1.578 6.989,-2.254 10.521,-2.254 6.463,0 10.897,2.405 12.4,6.688 0.526,1.579 0.676,2.78 0.676,6.913 l -0.226,12.926 v 0.677 c 0,4.133 0.677,5.711 3.607,7.891 l -5.336,6.162 c -2.329,-0.977 -4.434,-2.705 -5.411,-4.659 -1.428,1.353 -1.578,1.503 -2.33,2.029 -1.879,1.353 -4.584,2.104 -7.74,2.104 -8.567,0 -13.226,-4.358 -13.226,-12.023 0,-9.018 6.237,-13.227 18.487,-13.227 0.751,0 1.202,0 2.254,0.076 v -1.578 c 0,-4.284 -0.827,-5.711 -4.509,-5.711 -3.231,0 -6.989,1.578 -11.122,4.358 z m 19.765,17.059 h -0.451 c -6.989,0 -9.393,1.278 -9.393,5.861 0,3.006 1.878,5.035 4.434,5.035 1.879,0 3.757,-0.977 5.26,-2.63 z M 83.806,37.07 h 28.557 v 6.913 L 95.379,68.331 h 17.66 l -2.404,6.99 H 82.303 V 69.082 L 100.414,44.133 H 83.806 Z m 32.467,4.571 c 1.24,0 2.301,-0.963 2.301,-2.281 0,-1.306 -1.061,-2.269 -2.301,-2.269 -1.252,0 -2.311,0.963 -2.311,2.269 10e-4,1.318 1.059,2.281 2.311,2.281 z m -1.853,-2.282 c 0,-1.078 0.812,-1.89 1.854,-1.89 1.029,0 1.842,0.812 1.842,1.89 0,1.095 -0.812,1.902 -1.842,1.902 -1.042,10e-4 -1.854,-0.806 -1.854,-1.902 z m 1.373,0.181 h 0.457 l 0.693,1.138 h 0.445 l -0.748,-1.156 c 0.385,-0.048 0.682,-0.253 0.682,-0.723 0,-0.518 -0.309,-0.746 -0.928,-0.746 h -1 v 2.625 h 0.398 V 39.54 Z m 0,-0.337 v -0.812 h 0.541 c 0.277,0 0.572,0.061 0.572,0.386 0,0.403 -0.301,0.427 -0.639,0.427 h -0.474 z"
        id="path10" style="clip-rule:evenodd;fill-rule:evenodd"/>
    <path
        d="m 154.443,73.083 h 17.614 v -6.046 h -22.735 v 9.377 h 5.121 z m -0.474,-37.568 h 4.006 V 33.82 c 0,-1.988 0,-4.042 -2.068,-4.042 -1.938,0 -1.938,1.956 -1.938,3.976 z m 8.801,0 h 4.656 v -1.792 c 0,-2.216 0,-4.531 -2.295,-4.531 -2.361,0 -2.361,2.38 -2.361,4.465 z m 9.302,6.063 h -22.75 V 31.115 c 0,-4.237 1.857,-7.398 5.77,-7.398 2.867,0 4.465,1.467 5.312,4.009 h 0.064 c 0.619,-3.032 2.25,-4.596 5.02,-4.596 5.443,0 6.584,4.792 6.584,8.865 z m -13.297,2.117 v 9.42 h 5.252 v -3.554 h 2.859 c 0.26,0.554 0.391,1.336 0.391,2.151 0,4.433 -2.018,7.594 -6.482,7.594 -5.312,0 -6.678,-4.041 -6.678,-8.962 0,-1.435 0.014,-3.65 1.123,-5.541 l -5.299,-0.489 c -0.848,2.216 -1.01,5.377 -1.01,6.876 0,8.344 3.291,14.373 11.863,14.373 8.605,0 11.668,-7.007 11.668,-13.068 0,-2.087 -0.064,-4.955 -1.043,-8.801 h -12.644 z"
        id="path12" style="clip-rule:evenodd;fill:#ffffff;fill-rule:evenodd"/>
</svg>
