<?xml version="1.0" encoding="UTF-8" standalone="no"?><!-- Created with Inkscape (http://www.inkscape.org/) -->
<svg xmlns="http://www.w3.org/2000/svg" version="1.0" width="689.37006" height="350.08246" id="svg1978">
  <defs id="defs1980">


  </defs>
  <g transform="translate(-835.0272,818.5344)" id="layer1">
    <g id="g34408">
      <path
          d="M 1490.1636,-818.53445 L 835.28328,-818.53445 L 835.02717,-468.452 L 1489.9137,-468.452 L 1490.1636,-818.53445"
          style="fill:#000000;fill-rule:nonzero;stroke:none" id="path34094"/>
      <path
          d="M 873.16514,-780.61512 L 1307.9383,-780.61512 L 1307.9383,-506.05902 L 873.16514,-506.05902 L 873.16514,-780.61512 z "
          style="fill:white;fill-rule:nonzero;stroke:none" id="path34096"/>
      <path
          d="M 1344.2334,-780.61512 L 1452.3067,-780.61512 L 1452.3067,-506.05902 L 1344.2334,-506.05902 L 1344.2334,-780.61512 z "
          style="fill:#e12526;fill-rule:nonzero;stroke:none" id="path34098"/>
      <path
          d="M 960.66077,-683.97386 L 995.66279,-692.40732 L 995.66279,-558.40895 C 995.66279,-532.92117 990.4028,-522.67607 985.66131,-516.61648 C 979.34556,-508.43289 970.39984,-501.87351 958.29315,-496.87592 L 943.55648,-516.30412 C 949.08507,-520.80198 954.08266,-526.61166 956.45028,-531.6093 C 959.61125,-537.35654 960.66077,-544.72799 960.66077,-557.40945 L 960.66077,-683.97386 z M 978.55845,-748.6929 C 990.4028,-748.6929 1000.398,-738.94753 1000.398,-727.1407 C 1000.398,-715.02152 990.4028,-705.02628 978.2961,-705.02628 C 966.18936,-705.02628 956.71268,-714.7716 956.71268,-726.57848 C 956.71268,-738.69766 966.45176,-748.6929 978.55845,-748.6929"
          style="fill:#000000;fill-rule:nonzero;stroke:none" id="path34100"/>
      <path
          d="M 1006.1952,-673.41641 C 1014.8786,-678.97627 1018.5581,-680.78787 1028.0348,-684.47364 C 1041.191,-690.03346 1052.5105,-692.40732 1064.8796,-692.40732 C 1087.5063,-692.40732 1103.0364,-683.97386 1108.3026,-668.98104 C 1110.1392,-663.42118 1110.6702,-659.23572 1110.6702,-644.74262 L 1109.8768,-599.51428 C 1109.8768,-598.7022 1109.8768,-597.89006 1109.8768,-597.14042 C 1109.8768,-582.64737 1112.2445,-577.15 1122.5083,-569.46619 L 1103.8235,-547.91399 C 1095.6649,-551.34985 1088.2997,-557.40945 1084.8763,-564.21868 C 1079.8787,-559.47095 1079.3539,-558.97118 1076.7177,-557.09709 C 1070.1396,-552.41185 1060.6692,-549.72564 1049.612,-549.72564 C 1019.6138,-549.72564 1003.2966,-565.03082 1003.2966,-591.83047 C 1003.2966,-623.44034 1025.1424,-638.1833 1068.0344,-638.1833 C 1070.6644,-638.1833 1072.2448,-638.1833 1075.9306,-637.93339 L 1075.9306,-643.43076 C 1075.9306,-658.42358 1073.0382,-663.42118 1060.1382,-663.42118 C 1048.8248,-663.42118 1035.6686,-657.92386 1021.1943,-648.17849 L 1006.1952,-673.41641 z M 1075.4059,-613.69502 L 1073.8254,-613.69502 C 1049.3496,-613.69502 1040.9286,-609.2596 1040.9286,-593.20482 C 1040.9286,-582.64737 1047.5067,-575.52578 1056.4587,-575.52578 C 1063.0368,-575.52578 1069.6149,-578.96164 1074.8749,-584.77137 L 1075.4059,-613.69502"
          style="fill:#000000;fill-rule:nonzero;stroke:none" id="path34102"/>
      <path
          d="M 1128.5117,-688.72159 L 1228.4763,-688.72159 L 1228.4763,-664.48318 L 1169.0048,-579.21151 L 1230.9127,-579.21151 L 1222.4792,-554.72323 L 1123.2454,-554.72323 L 1123.2454,-576.58778 L 1186.6838,-663.98345 L 1128.5117,-663.98345 L 1128.5117,-688.72159"
          style="fill:#000000;fill-rule:nonzero;stroke:none" id="path34104"/>
      <path
          d="M 1242.2198,-672.66677 C 1246.5302,-672.66677 1250.2784,-676.10263 1250.2784,-680.66293 C 1250.2784,-685.28573 1246.5302,-688.6591 1242.2198,-688.6591 C 1237.8468,-688.6591 1234.0987,-685.28573 1234.0987,-680.66293 C 1234.0987,-676.10263 1237.8468,-672.66677 1242.2198,-672.66677 z M 1235.7229,-680.66293 C 1235.7229,-684.47364 1238.534,-687.2848 1242.2198,-687.2848 C 1245.843,-687.2848 1248.6542,-684.47364 1248.6542,-680.66293 C 1248.6542,-676.85227 1245.843,-674.04112 1242.2198,-674.04112 C 1238.534,-674.04112 1235.7229,-676.85227 1235.7229,-680.66293 z M 1240.5331,-680.03827 L 1242.1573,-680.03827 L 1244.5311,-676.10263 L 1246.0929,-676.10263 L 1243.4691,-680.10071 C 1244.8435,-680.28814 1245.9055,-680.97529 1245.9055,-682.662 C 1245.9055,-684.47364 1244.7811,-685.28573 1242.6571,-685.28573 L 1239.1587,-685.28573 L 1239.1587,-676.10263 L 1240.5331,-676.10263 L 1240.5331,-680.03827 z M 1240.5331,-681.2252 L 1240.5331,-684.0988 L 1242.4072,-684.0988 C 1243.4067,-684.0988 1244.4062,-683.84893 1244.4062,-682.72444 C 1244.4062,-681.35014 1243.3442,-681.2252 1242.2198,-681.2252 L 1240.5331,-681.2252"
          style="fill:#000000;fill-rule:nonzero;stroke:none" id="path34106"/>
      <path
          d="M 1373.5319,-707.02535 L 1387.4002,-707.02535 L 1387.4002,-712.89752 C 1387.4002,-719.76924 1387.4002,-726.89083 1380.2787,-726.89083 C 1373.5319,-726.89083 1373.5319,-720.14404 1373.5319,-713.08494 L 1373.5319,-707.02535 z M 1404.0173,-707.02535 L 1420.1971,-707.02535 L 1420.1971,-713.20987 C 1420.1971,-720.89368 1420.1971,-728.95234 1412.2634,-728.95234 C 1404.0173,-728.95234 1404.0173,-720.64382 1404.0173,-713.45974 L 1404.0173,-707.02535 z M 1436.3144,-685.97293 L 1357.4146,-685.97293 L 1357.4146,-722.26804 C 1357.4146,-736.94851 1363.849,-747.94325 1377.4051,-747.94325 C 1387.4002,-747.94325 1392.8976,-742.82068 1395.8338,-734.01243 C 1398.2076,-744.50739 1403.8924,-749.94227 1413.4503,-749.94227 C 1432.3163,-749.94227 1436.3144,-733.32522 1436.3144,-719.20702 L 1436.3144,-685.97293"
          style="fill:white;fill-rule:nonzero;stroke:none" id="path34108"/>
      <path
          d="M 1418.3855,-569.96592 L 1407.2657,-585.39603 C 1403.5176,-590.20625 1395.3964,-597.6402 1383.0274,-597.6402 C 1366.5353,-597.6402 1356.1027,-584.27159 1356.1027,-568.40419 C 1356.1027,-550.47528 1367.8471,-539.41805 1385.2138,-538.85583 L 1385.2138,-560.2206 C 1384.0269,-560.2206 1383.0274,-560.2206 1382.0279,-560.2206 C 1376.9053,-560.2206 1372.7823,-563.15668 1372.7823,-568.46663 C 1372.7823,-573.71414 1377.7799,-577.15 1382.5901,-577.15 C 1388.1499,-577.15 1391.7107,-571.65263 1395.2715,-567.65454 L 1418.3855,-537.79383 L 1436.3144,-537.79383 L 1436.3144,-597.95255 L 1418.3855,-597.95255 L 1418.3855,-569.96592"
          style="fill:white;fill-rule:nonzero;stroke:none" id="path34110"/>
      <path
          d="M 1390.2114,-678.66392 L 1390.2114,-645.99205 L 1408.3902,-645.99205 L 1408.3902,-658.29865 L 1418.323,-658.29865 C 1419.1975,-656.36208 1419.6973,-653.67586 1419.6973,-650.86471 C 1419.6973,-635.49708 1412.7007,-624.50234 1397.2081,-624.50234 C 1378.7794,-624.50234 1374.0316,-638.5581 1374.0316,-655.61243 C 1374.0316,-660.54758 1374.0941,-668.2314 1377.9673,-674.79077 L 1359.6011,-676.47743 C 1356.665,-668.79362 1356.1027,-657.86136 1356.1027,-652.67635 C 1356.1027,-623.7527 1367.4723,-602.82521 1397.2081,-602.82521 C 1427.0063,-602.82521 1437.6887,-627.12607 1437.6887,-648.11605 C 1437.6887,-655.36257 1437.4388,-665.29531 1434.0654,-678.66392 L 1390.2114,-678.66392"
          style="fill:white;fill-rule:nonzero;stroke:none" id="path34112"/>
      <path
          d="M 1249.6537,-562.84433 C 1251.9651,-562.84433 1254.5888,-562.15717 1254.5888,-559.40846 C 1254.5888,-556.78473 1251.8402,-555.91016 1249.6537,-555.91016 C 1247.5297,-555.91016 1244.7811,-556.72229 1244.7811,-559.40846 C 1244.7811,-562.15717 1247.4048,-562.84433 1249.6537,-562.84433 z M 1255.5884,-554.47336 L 1255.5884,-555.91016 L 1253.7142,-555.91016 L 1253.7142,-555.97265 C 1255.2135,-556.72229 1255.8382,-557.90923 1255.8382,-559.59589 C 1255.8382,-562.84433 1253.152,-564.46855 1249.6537,-564.46855 C 1246.0929,-564.46855 1243.4691,-563.09424 1243.4691,-559.59589 C 1243.4691,-557.34696 1245.2183,-556.16002 1245.7806,-555.97265 L 1245.7806,-555.91016 L 1238.2217,-555.91016 L 1238.2217,-554.47336 L 1255.5884,-554.47336"
          style="fill:#000000;fill-rule:nonzero;stroke:none" id="path34114"/>
      <path
          d="M 1246.4677,-567.46712 C 1245.1559,-567.46712 1244.6561,-567.46712 1243.7815,-567.34219 L 1243.7815,-568.84148 L 1246.0304,-568.84148 L 1246.0304,-568.84148 C 1244.7186,-569.4037 1243.4691,-570.40321 1243.4691,-571.90249 C 1243.4691,-572.21485 1243.5941,-572.65214 1243.6566,-572.90205 L 1245.1559,-572.90205 C 1245.0309,-572.5897 1245.0309,-572.21485 1245.0309,-571.84005 C 1245.0309,-569.52863 1247.5922,-568.90392 1249.7786,-568.90392 L 1255.5884,-568.90392 L 1255.5884,-567.46712 L 1246.4677,-567.46712"
          style="fill:#000000;fill-rule:nonzero;stroke:none" id="path34116"/>
      <path
          d="M 1250.3409,-581.77279 C 1251.5903,-581.77279 1254.5888,-581.7103 1254.5888,-578.27444 C 1254.5888,-576.96258 1254.0266,-575.83814 1252.4649,-575.83814 C 1249.9036,-575.83814 1249.6537,-578.83671 1249.6537,-581.33551 L 1249.6537,-581.77279 L 1250.3409,-581.77279 z M 1255.5884,-581.89773 L 1255.5884,-583.33452 C 1254.7762,-583.20959 1254.0266,-583.20959 1253.0896,-583.20959 L 1247.9045,-583.20959 C 1244.8435,-583.20959 1243.4691,-582.02266 1243.4691,-579.08658 C 1243.4691,-578.02458 1243.9064,-576.52529 1244.3437,-575.65071 L 1245.7181,-575.65071 C 1245.0309,-576.71271 1244.7811,-577.83715 1244.7811,-579.08658 C 1244.7811,-581.02315 1245.7806,-581.77279 1247.7796,-581.77279 L 1248.4043,-581.77279 L 1248.4043,-581.46044 C 1248.4043,-578.46186 1248.5917,-574.27636 1252.5273,-574.27636 C 1253.5893,-574.27636 1255.8382,-574.77614 1255.8382,-578.08707 C 1255.8382,-579.5863 1255.0886,-581.21057 1253.6518,-581.83524 L 1253.6518,-581.89773 L 1255.5884,-581.89773"
          style="fill:#000000;fill-rule:nonzero;stroke:none" id="path34118"/>
      <path
          d="M 1246.5926,-586.7079 C 1245.6556,-586.7079 1244.7186,-586.7079 1243.7815,-586.64545 L 1243.7815,-588.01981 L 1245.9055,-588.01981 L 1245.9055,-588.08225 C 1244.8435,-588.58203 1243.4691,-589.39411 1243.4691,-591.89296 C 1243.4691,-594.76655 1245.4682,-595.89104 1248.0295,-595.89104 L 1255.5884,-595.89104 L 1255.5884,-594.4542 L 1248.4043,-594.4542 C 1246.2179,-594.4542 1244.7811,-593.64211 1244.7811,-591.64305 C 1244.7811,-589.01932 1247.0924,-588.14474 1249.029,-588.14474 L 1255.5884,-588.14474 L 1255.5884,-586.7079 L 1246.5926,-586.7079"
          style="fill:#000000;fill-rule:nonzero;stroke:none" id="path34120"/>
      <path
          d="M 1249.6537,-600.45135 C 1247.4048,-600.45135 1244.7811,-601.1385 1244.7811,-603.94965 C 1244.7811,-606.51094 1247.5297,-607.44801 1249.6537,-607.44801 C 1251.8402,-607.44801 1254.5888,-606.51094 1254.5888,-603.94965 C 1254.5888,-601.1385 1251.9651,-600.45135 1249.6537,-600.45135 z M 1238.2217,-608.8848 L 1238.2217,-607.44801 L 1245.7806,-607.44801 L 1245.7806,-607.38552 C 1245.2183,-607.19809 1243.4691,-606.01116 1243.4691,-603.69979 C 1243.4691,-600.20148 1246.0929,-598.82713 1249.6537,-598.82713 C 1253.152,-598.82713 1255.8382,-600.45135 1255.8382,-603.69979 C 1255.8382,-605.3865 1255.2135,-606.57343 1253.7142,-607.38552 L 1253.7142,-607.44801 L 1255.5884,-607.44801 L 1255.5884,-608.8848 L 1238.2217,-608.8848"
          style="fill:#000000;fill-rule:nonzero;stroke:none" id="path34122"/>
      <path
          d="M 1518.0877,-810.10099 L 1521.3362,-818.53445 L 1524.3972,-818.53445 L 1524.3972,-807.10242 L 1522.3982,-807.10242 L 1522.3982,-816.41045 L 1522.3357,-816.41045 L 1518.7749,-807.10242 L 1517.4005,-807.10242 L 1513.7773,-816.41045 L 1513.7148,-816.41045 L 1513.7148,-807.10242 L 1511.7158,-807.10242 L 1511.7158,-818.53445 L 1514.8393,-818.53445 L 1518.0877,-810.10099 z M 1509.7167,-816.84779 L 1506.2184,-816.84779 L 1506.2184,-807.10242 L 1504.1569,-807.10242 L 1504.1569,-816.84779 L 1500.6586,-816.84779 L 1500.6586,-818.53445 L 1509.7167,-818.53445 L 1509.7167,-816.84779"
          style="fill:#000000;fill-rule:nonzero;stroke:none" id="path34124"/>
    </g>
  </g>
</svg>
