<?xml version="1.0" encoding="UTF-8" standalone="no"?>
<svg xmlns:dc="http://purl.org/dc/elements/1.1/" xmlns:cc="http://creativecommons.org/ns#"
     xmlns:rdf="http://www.w3.org/1999/02/22-rdf-syntax-ns#" xmlns="http://www.w3.org/2000/svg" xml:space="preserve"
     enable-background="new 0 0 941 197" viewBox="0 0 941.20001 197.10898" height="197.10898" width="941.20001" y="0px"
     x="0px" id="Layer_1" version="1.1"><metadata
   id="metadata49"><rdf:RDF><cc:Work
       rdf:about=""><dc:format>image/svg+xml</dc:format><dc:type rdf:resource="http://purl.org/dc/dcmitype/StillImage"/><dc:title></dc:title></cc:Work></rdf:RDF></metadata>
    <defs id="defs47"/>
    <g transform="translate(0.1,-0.08891773)" id="g42">
	<path style="clip-rule:evenodd;fill-rule:evenodd" id="path2"
          d="m 31.7,0.3 c 17.7,0 35.3,0 53,0 -6,38.3 -12.8,75.7 -19.1,113.6 -17.5,0 -35,0 -52.4,0 C 19.1,76.7 31,0.5 31.7,0.3 Z"/>
        <path style="clip-rule:evenodd;fill-rule:evenodd" id="path4"
              d="m 683.3,116.1 c -18,0 -36,0 -54.1,0 5.1,-22.1 14.6,-67.6 -17.5,-66.6 -4.7,21 -6.9,44.4 -10.9,66.1 -17.1,0 -34.2,0 -51.3,0 1.1,-4.4 1.8,-9.1 2.2,-14.2 -15.4,-5.5 -32.1,3.5 -38.2,14.2 -16.2,0 -32.4,0 -48.6,0 2.5,-20.3 5.6,-39.9 8.7,-59.5 15.3,0 45.9,0 45.9,0 0,0 -0.9,9.6 -1.6,15.3 5.2,-5.7 8.3,-7.7 13.7,-10.9 7.6,-4.5 17.1,-6.3 27.9,-8.2 2.2,-17.5 4.2,-35.1 7.1,-51.9 41.7,-0.1 80.2,-3.7 102.1,16.4 21,19.3 23.5,62.7 14.6,99.3 z"/>
        <path style="clip-rule:evenodd;fill-rule:evenodd" id="path6"
              d="m 755.4,10.1 c -1.9,10.3 -3.2,21.2 -4.9,31.7 -16.4,0 -32.8,0 -49.2,0 2.1,-10.3 3.2,-21.6 5.5,-31.7 16.2,0 32.4,0 48.6,0 z"/>
        <path style="clip-rule:evenodd;fill-rule:evenodd" id="path8"
              d="m 334.8,60.9 c -1.5,12.3 -3.8,23.9 -4.9,36.6 -6.1,-3.6 -12.1,-6.8 -21.3,-8.7 -7.6,-1.6 -20.4,-3.4 -20.8,5.5 -0.5,12.6 28.9,12.5 31.7,21.3 -25.1,0 -50.3,0 -75.4,0 -1.7,-4.1 -2.9,-7.2 -3.3,-10.9 -4.9,-48.3 56.4,-67.9 94,-43.8 z"/>
        <path style="clip-rule:evenodd;fill-rule:evenodd" id="path10"
              d="m 458.8,115.5 c -39.7,0 -79.4,0 -119.1,0 5.6,-32.5 24,-62.4 61.7,-65 17.6,-1.2 33.4,3.3 43.7,12.6 11.7,10.5 16.8,28 13.7,52.4 z M 392.7,99.7 c 8,0 16,0 24,0 5.6,-25 -25.5,-21.1 -24,0 z"/>
        <path style="clip-rule:evenodd;fill-rule:evenodd" id="path12"
              d="m 841.7,60.9 c -1.6,12 -3.7,23.6 -4.9,36 -3,-0.1 -7.5,-4.1 -10.9,-5.5 -9.2,-3.7 -30.8,-8.4 -31.1,2.7 -0.2,6.9 9.2,9.9 14.7,12 7.5,2.9 12.4,5 17.5,8.7 -24.2,1.3 -50.8,0.2 -75.9,0.5 -1.6,-3.7 -2.9,-6.5 -3.3,-9.8 -5.9,-49.2 56.2,-68.7 93.9,-44.6 z"/>
        <path style="clip-rule:evenodd;fill-rule:evenodd" id="path14"
              d="m 941.1,56 c -2.4,12.4 -4,25.5 -6.6,37.7 -19.3,-6.6 -30.1,7.6 -33.9,21.8 -17.8,0 -35.7,0 -53.5,0 5.2,-37.7 24.6,-62 66.6,-64.5 10.7,-0.5 20,0.2 27.4,5 z"/>
        <path style="clip-rule:evenodd;fill-rule:evenodd" id="path16"
              d="m 199.6,68.9 c 1,-2.4 1,-7.5 1.4,-12.9 13.3,0 26.6,0 39.9,0 -3,20.9 -6.3,39.3 -8.7,59.5 -15.5,0 -31,0 -46.4,0 -0.4,-9.4 -0.7,-18.5 -8.2,-19.1 -10.1,-0.9 -12.1,11.3 -15.8,19.1 -16.6,0 -33.1,0 -49.7,0 6.4,-27 19.8,-60.8 53,-62.3 6.9,-0.3 18.1,0.9 24.6,4.9 3.7,2.5 6.1,6.7 9.9,10.8 z"/>
        <path style="clip-rule:evenodd;fill-rule:evenodd" id="path18"
              d="m 748.3,56 c -2.8,20 -5.9,39.7 -8.7,59.5 -16.4,0 -32.8,0 -49.2,0 3.3,-19.7 5.4,-40.4 9.3,-59.5 16.2,0 32.4,0 48.6,0 z"/>
        <path style="clip-rule:evenodd;fill-rule:evenodd" id="path20"
              d="m 10.4,131.4 c 17.5,0 35,0 52.4,0 -0.3,5.2 -1,8.7 -1.1,12.6 3.5,0.2 41.6,0.2 44.4,0.3 -2.2,15.3 -4.4,31 -6.8,46.1 -33.1,0 -66.3,0 -99.4,0 4,-20.9 6.8,-39.9 10.5,-59 z"/>
        <path style="clip-rule:evenodd;fill-rule:evenodd" id="path22"
              d="m 160,131.4 c -1,8.5 -1.5,20.1 4.4,22.4 11.2,4.4 16.9,-12.6 19.1,-22.4 15.1,0 30.2,0 45.3,0 -2.4,20.2 -6.4,38.8 -8.7,59 -13.7,0 -27.3,0 -41,0 0.8,-3.6 1.5,-7.2 2.2,-10.9 -5.4,8.7 -20.8,15.9 -36,15.3 -29.3,-1.1 -36.5,-30.3 -35,-61.7 0,-0.5 0,-1.1 0,-1.6 16.6,-0.1 33.2,-0.1 49.7,-0.1 z"/>
        <path style="clip-rule:evenodd;fill-rule:evenodd" id="path24"
              d="m 332.1,131.4 c 10.1,42.5 -20.5,65 -59.5,65 -17.5,0 -30.6,-5.1 -41.5,-13.1 2,-13.5 4.2,-26.8 6.6,-39.9 2.2,-0.3 3.7,2.4 5.5,3.8 5.4,4.4 15.8,10.7 25.1,11.5 7.6,0.6 18.3,-2.2 18.6,-8.7 0.4,-10.5 -18.1,-12.2 -26.8,-18.5 24.5,-0.1 48.3,-0.1 72,-0.1 z"/>
        <path style="clip-rule:evenodd;fill-rule:evenodd" id="path26"
              d="m 338.1,131.4 c 16,0 32,0 48.1,0 -1.2,13.3 -2.5,31.5 9.3,32.2 9.6,0.6 14.1,-9.8 15.8,-19.7 14.6,0 29.1,0 43.7,0 -4.9,36.2 -28.1,56 -69.9,53 -32.8,-2.3 -50.3,-38.5 -47,-65.5 z"/>
        <path style="clip-rule:evenodd;fill-rule:evenodd" id="path28"
              d="m 511.2,131.4 c -3,19.6 -6.2,39 -8.7,59 -16.4,0 -32.8,0 -49.2,0 3,-19.8 5.2,-40.3 9.3,-59 16.2,0 32.4,0 48.6,0 z"/>
        <path style="clip-rule:evenodd;fill-rule:evenodd" id="path30"
              d="m 598.6,131.4 c -1.4,10.9 -1.2,9.5 -2.2,15.3 15.2,1.5 19.9,-7.4 25.7,-15.3 18.6,0 37.1,0 55.7,0 -8.9,24.9 -23,42.2 -47.5,51.9 -24,9.5 -57.6,6.9 -92.3,7.1 2.4,-19.6 5.9,-38.6 9.8,-59 17,0 33.9,0 50.8,0 z"/>
        <path style="clip-rule:evenodd;fill-rule:evenodd" id="path32"
              d="m 736.8,131.4 c -2.5,20 -5.8,39.4 -8.7,59 -16.4,0 -32.8,0 -49.2,0 3.4,-19.4 5.7,-39.9 9.3,-59 16.2,0 32.4,0 48.6,0 z"/>
        <path style="clip-rule:evenodd;fill-rule:evenodd" id="path34"
              d="m 839.1,131.8 c 10,42.4 -20.7,64.6 -59.7,64.6 -17.5,0 -30.7,-5 -41.5,-13.1 1.9,-13.6 4,-26.9 6.6,-39.9 0.9,-0.6 2.9,1.7 4.9,3.3 6.2,4.9 17.4,12.9 30,12 5.2,-0.4 14.4,-3.5 14.2,-9.8 -0.4,-9.4 -15.5,-11.4 -27.2,-17.1 23.4,0 49.1,0 72.7,0 z"/>
        <path style="clip-rule:evenodd;fill-rule:evenodd" id="path36"
              d="m 899.6,131.4 c 1.3,13 11,19.6 26.8,16.4 -1.6,14.6 -4,28.4 -6,42.6 -46.1,12.4 -79.7,-11.9 -74.8,-59 17.9,0 36,0 54,0 z"/>

        <path id="path38" d="m 924.4,28.1 h -3 v 8.5 H 920 v -8.5 h -3 v -1.2 h 7.5 v 1.2 z"/>
        <path id="path40"
              d="m 936.5,36.6 h -1.4 v -8.5 0 l -3.2,8.5 h -1.4 l -3.2,-8.5 v 0 8.5 h -1.4 v -9.8 h 2.3 l 3.1,8.1 3,-8.1 h 2.3 v 9.8 z"/>
</g>
</svg>