<?xml version="1.0" encoding="UTF-8" standalone="no"?>
<svg xmlns:dc="http://purl.org/dc/elements/1.1/" xmlns:cc="http://creativecommons.org/ns#"
     xmlns:rdf="http://www.w3.org/1999/02/22-rdf-syntax-ns#" xmlns="http://www.w3.org/2000/svg" xml:space="preserve"
     enable-background="new 0 0 640 200" viewBox="0 0 635.104 192.50935" height="192.50935" width="635.104" y="0px"
     x="0px" id="Layer_1" version="1.1"><metadata
   id="metadata85"><rdf:RDF><cc:Work
       rdf:about=""><dc:format>image/svg+xml</dc:format><dc:type rdf:resource="http://purl.org/dc/dcmitype/StillImage"/><dc:title></dc:title></cc:Work></rdf:RDF></metadata>
    <defs id="defs83"/>
    <g transform="translate(-2.196,-3.899)" id="g22">
	<g id="g4">
		<path id="path2"
              d="m 185.36,149 c 2.32,-12.62 8.62,-24.88 18.96,-32.75 7.23,-5.59 16.87,-8.55 25.91,-6.37 8.66,1.96 15.69,8.56 19.56,16.37 3.62,6.99 4.78,14.94 4.89,22.73 z m 41.864,-11.1 c -0.321,-3.14 -1.536,-8.82 -4.344,-8.84 -3.36,0.188 -5.566,5.887 -6.401,8.84 z"/>
	</g>
        <path id="path6"
              d="m 393.69,113.72 c 5.69,-3.2 12.37,-5.26 18.92,-4.27 3.85,0.92 7.81,3.1 9.99,6.41 -0.35,7.55 -1.36,15.08 -2.2,22.6 -8.12,-2.37 -16.65,2.9 -19.61,10.5 -9.99,0.05 -19.98,0.08 -29.96,-0.02 2.31,-14.17 10.32,-27.84 22.86,-35.22 z"/>
        <path id="path8"
              d="m 178.66,136.12 c -5.04,-0.76 -10.13,-2.5 -15.27,-1.65 -1.11,0.37 -2.93,0.98 -2.65,2.49 0.72,1.94 2.71,2.88 4.34,3.94 4.21,2.38 8.4,4.84 12.11,7.97 l -44.23,0.11 c -2.18,-8.04 -1.88,-17.15 2.65,-24.36 4.95,-8.24 14.41,-12.56 23.55,-14.23 7.47,-0.62 16.21,-0.28 21.66,5.61 z"/>
        <path id="path10"
              d="m 256.01,148.96 c 1.03,-12.41 2.3,-24.8 3.73,-37.16 8.25,0.01 16.5,0.02 24.76,0 -0.16,2.1 -0.29,4.21 -0.43,6.32 6.03,-4.28 13,-7.03 20.21,-8.57 -0.64,9.24 -1,18.49 -1.81,27.72 -8.5,1.41 -16.4,5.49 -22.42,11.63 z"/>
        <path id="path12"
              d="m 61.84,148.99 c 1.86,-10.92 6.82,-21.61 15.07,-29.16 5.3,-4.9 12.99,-7.97 20.17,-5.83 3.8,0.97 6.82,3.58 9.67,6.14 l 0.97,-8.28 c 8.27,-0.16 16.54,0.01 24.81,-0.05 l -3.82,37.17 c -8.59,0.03 -17.18,0.01 -25.77,0.01 -0.66,-3.48 -0.96,-8.58 -5.01,-9.72 -4.88,0.17 -6.3,6 -7.78,9.73 z"/>
        <path id="path14"
              d="m 89.54,158.16 c 0.7,3.01 1.07,7.06 4.41,8.36 4.63,0.28 6.27,-5.05 7.83,-8.46 8.66,0.06 17.32,0.04 25.98,0.01 l -3.69,35.5 c -8.31,-0.01 -16.62,-0.01 -24.93,0 0.22,-1.61 0.45,-3.2 0.69,-4.8 -4.43,3.74 -9.8,7.02 -15.79,6.9 -6.66,0.27 -12.73,-3.87 -16.38,-9.2 -5.69,-8.22 -7.36,-18.55 -7.03,-28.37 z"/>
        <path id="path16"
              d="m 131.88,165.09 c 7.24,2.48 14.36,6 22.1,6.56 1.46,0.3 4.27,-0.51 3.26,-2.51 -3.62,-5.59 -11.66,-5.9 -15.7,-10.99 l 42.32,0.04 c 0.19,0.45 0.56,1.34 0.75,1.79 0,-0.47 -0.01,-1.42 -0.01,-1.89 l 29.13,0.01 c 0.44,3.87 0.5,8.07 2.76,11.42 0.81,1.41 3.09,1.52 4.04,0.13 2.47,-2.41 3.42,-5.84 4.63,-8.96 l 27.75,0.01 c -3.15,12.33 -10.3,24.13 -21.32,30.9 -8.32,5.22 -19.36,6.6 -28.28,2.09 -9.76,-4.86 -15.83,-15.1 -17.73,-25.58 -0.89,8.12 -4.48,16.35 -11.53,20.92 -13.22,8.77 -32.52,7.59 -44.29,-3.18 z"/>
        <path id="path18"
              d="m 369.84,158.13 c 10.2,-0.06 20.41,-0.07 30.62,0.01 2.54,6.81 10.22,10.65 17.21,8.46 -0.93,7.64 -1.26,15.38 -2.54,22.97 -4.17,4.18 -10.24,6.89 -16.24,6.19 -10.86,-0.57 -20.18,-8.46 -24.61,-18.08 -3.05,-6.06 -3.92,-12.87 -4.44,-19.55 z"/>
        <path id="path20"
              d="m 567.44,158.1 c 9.67,0.01 19.34,-0.06 29.02,0.04 0.37,4.22 0.34,9.15 3.64,12.31 1.35,0.41 2.45,0.07 3.31,-1.03 2.29,-2.42 3.21,-5.71 4.37,-8.74 9.27,0.01 18.54,0 27.81,0.01 -3.27,12.72 -10.82,24.85 -22.39,31.51 -8.71,5.1 -20.2,5.88 -28.98,0.54 -11.77,-6.98 -17.27,-21.42 -16.78,-34.64 z"/>
</g>
    <g transform="translate(-2.196,-3.899)" id="g26">
	<polygon id="polygon24"
             points="13.898,81.19 2.196,192.529 56.717,192.529 59.563,165.456 36.913,165.456 45.77,81.19 "/>
</g>
    <polygon transform="translate(-2.196,-3.899)" id="polygon28"
             points="547.934,113.77 537.65,148.18 534.051,113.77 508.329,113.77 511.418,149.009 563.45,149.009 573.931,113.77 "/>
    <path id="path30" d="m 558.454,154.201 c -16.09,-0.03 -32.19,0.02 -48.28,-0.02 l 3.519,34.449 h 34.208 z"/>
    <g transform="translate(-2.196,-3.899)" id="g36">
	<polygon id="polygon32" points="494.662,192.529 498.172,158.08 472.048,158.08 468.489,192.529 "/>
        <polygon id="polygon34" points="476.625,113.77 472.985,149 499.097,149 502.687,113.77 "/>
</g>
    <polygon transform="translate(-2.196,-3.899)" id="polygon38"
             points="431.001,158.1 427.715,192.529 453.561,192.529 457.051,158.1 "/>
    <g transform="translate(-2.196,-3.899)" id="g46">
	<path style="fill:none" id="path40"
          d="m 320.58,174.31 -6.05,18.219 h 32.241 L 344.36,174.42 c -7.92,-0.27 -15.85,-0.08 -23.78,-0.11 z"/>
        <polygon id="polygon42" points="276.459,192.529 279.79,158.07 254.93,158.17 251.399,192.529 "/>
        <path style="fill:#ff0000" id="path44"
              d="m 299.97,158.1 -11.376,34.429 h 25.937 l 6.05,-18.219 c 7.93,0.03 15.86,-0.16 23.78,0.11 l 2.411,18.109 h 26.02 l -4.721,-34.379 z"/>
</g>
    <polygon transform="translate(-2.196,-3.899)" id="polygon48"
             points="503.237,106.675 505.475,84.709 479.394,84.709 477.125,106.675 "/>
    <polygon transform="translate(-2.196,-3.899)" id="polygon50"
             points="461.678,113.77 464.475,84.709 438.394,84.709 435.587,113.77 425.5,113.77 422.98,137.9 433.132,137.9 431.985,149 458.097,149 459.228,137.9 469.752,137.9 471.99,113.77 461.687,113.77 "/>
    <path style="fill:#ff0000" id="path52"
          d="m 326.891,145.107 c 0.014,-0.009 0.029,-0.017 0.042,-0.026 2.72,-8.26 5.51,-16.51 8.3,-24.75 1.29,8.24 2.2,16.53 3.44,24.77 0.003,0.002 0.006,0.004 0.009,0.006 h 25.923 c 0.002,-0.002 0.005,-0.004 0.008,-0.006 l -8.892,-67.81 H 323.64 l -22.748,67.74 c 0.042,0.027 0.086,0.049 0.128,0.076 z"/>
    <path id="path54"
          d="m 627.724,118.131 c -4.64,-6.99 -12.34,-12.09 -20.8,-12.76 -8.39,-0.79 -16.71,2.53 -23.16,7.76 -9.71,7.92 -15.78,19.73 -17.91,31.97 l 69.25,-0.01 c -0.02,-9.4 -1.91,-19.14 -7.38,-26.96 z m -26.17,7.637 c 1.1,-0.82 2.997,-0.415 3.708,0.458 1.258,1.543 2.125,4.333 2.472,7.792 h -10.897 c 0.55,-3 1.979,-6.482 4.717,-8.25 z"/>
    <g transform="translate(-2.196,-3.899)" id="g78">
	<path style="clip-rule:evenodd;fill-rule:evenodd" id="path56"
          d="m 82.477,62.697 c 1.261,1.275 0.102,1.697 -0.428,1.802 v 0 L 76.45,65.029 78.457,72 h 19.439 l 0.022,-9.786 v 0 C 87.782,58.719 80.5,49.098 80.5,37.773 c 0,-8.697 4.296,-16.392 10.883,-21.075 3.803,-2.323 3.978,0.792 4.207,1.849 v 0 25.987 0 c 0,4.757 3.086,8.793 7.367,10.213 0.924,0.329 1.447,0.764 1.379,1.952 v 0 L 104.312,72 h 4.202 l -0.006,-15.528 v 0 c 0,-0.697 0,-1.396 1.223,-1.746 4.236,-1.445 7.372,-5.466 7.372,-10.192 v 0 -26.621 0 c 0.019,-2.746 2.123,-2.755 3.506,-1.691 6.654,4.544 11.583,12.351 11.583,21.551 0,11.394 -7.372,21.064 -17.607,24.504 v 0 V 72 h 19.545 l 2.007,-7.079 -5.07,-0.633 v 0 c -0.809,-0.27 -1.903,-0.843 -0.477,-1.957 6.339,-6.256 10.266,-14.947 10.266,-24.559 0,-16.743 -11.921,-30.7 -27.74,-33.847 v 0 l -0.009,35.96 v 0 c 0,3.463 -3.293,6.274 -6.76,6.274 -3.466,0 -6.867,-2.811 -6.867,-6.274 v 0 L 99.489,3.899 v 0 C 83.609,6.995 71.835,20.982 71.835,37.772 71.834,47.573 75.92,56.418 82.477,62.697 Z"/>
        <polygon style="clip-rule:evenodd;fill-rule:evenodd" id="polygon58"
                 points="429.807,35.543 423.101,42.878 398.576,42.878 404.708,35.543 "/>
        <polygon style="clip-rule:evenodd;fill-rule:evenodd" id="polygon60"
                 points="485.647,35.543 478.887,42.878 454.362,42.878 460.495,35.543 "/>
        <path style="clip-rule:evenodd;fill-rule:evenodd" id="path62"
              d="m 164.889,63.155 v -39.299 0 c 0,-1.161 -0.211,-4.752 -0.634,-5.493 v 0 h 42.891 v 0 c 8.766,0 14.366,3.592 14.366,16.903 0,13.312 -6.867,16.058 -16.479,16.058 v 0 h -13.522 l -6.337,-7.184 h 15.421 v 0 c 6.443,0.051 6.338,-6.233 6.443,-8.768 0.108,-2.535 0.53,-9.614 -6.126,-9.614 v 0 h -21.021 v 37.396 h -15.002 z"/>
        <path style="clip-rule:evenodd;fill-rule:evenodd" id="path64"
              d="m 243.276,18.363 v 44.792 h -15.002 v -38.98 0 c -0.315,-2.219 -0.315,-5.176 -0.843,-5.811 v 0 h 15.845 z"/>
        <path style="clip-rule:evenodd;fill-rule:evenodd" id="path66"
              d="m 282.188,16.887 c -11.197,0.211 -31.056,-2.959 -31.056,21.974 0,26.196 10.773,26.196 31.056,26.196 20.285,0 29.792,-2.111 29.792,-25.353 0,-23.24 -13.101,-22.606 -29.792,-22.817 v 0 z m -1.372,41.146 c -12.466,0 -13.838,-5.44 -13.838,-18.117 0,-13.944 4.647,-16.479 14.367,-16.479 9.718,0 14.79,2.114 14.79,16.69 0,14.579 -2.853,17.906 -15.319,17.906 v 0 z"/>
        <path style="clip-rule:evenodd;fill-rule:evenodd" id="path68"
              d="m 318.966,63.155 v -38.663 0 c 0,-1.903 -0.108,-4.015 -0.846,-6.128 v 0 h 16.48 v 0 c 3.805,-0.209 7.184,0.423 11.198,7.184 v 0 l 18.382,27.888 v 0 c 1.268,1.903 2.957,1.479 2.957,-0.632 v 0 -34.44 h 7.606 v 44.792 h -14.788 v 0 c -3.803,0.211 -7.816,-0.635 -12.468,-7.395 v 0 l -17.534,-26.62 v 0 c -1.481,-1.9 -3.381,-2.114 -3.381,0.211 v 0 28.523 0 c 0,1.9 -0.105,3.592 0.527,5.281 v 0 h -8.133 z"/>
        <path style="clip-rule:evenodd;fill-rule:evenodd" id="path70"
              d="m 436.428,18.363 h -39.086 v 0 c -5.706,0 -15.847,0.846 -15.847,21.552 0,20.3 5.492,23.239 15.847,23.239 v 0 h 33.381 l 5.6,-7.395 H 405.74 v 0 c -3.486,-0.054 -8.187,0.582 -8.187,-15.001 0,-16.27 2.957,-15 7.817,-15 v 0 h 25.672 l 5.386,-7.395 z"/>
        <path style="clip-rule:evenodd;fill-rule:evenodd" id="path72"
              d="m 545.039,46.686 6.569,10.764 v 0 c 1.689,2.325 3.379,4.438 4.541,5.706 v 0 h -15.528 v 0 c -2.325,0 -6.233,-1.268 -8.557,-4.649 v 0 l -8.347,-12.676 v 0 c -1.478,-1.268 -2.324,-2.959 -4.646,-5.071 v 0 h 12.887 v 0 c 4.279,0 5.281,-5.069 5.281,-7.606 0,-2.534 0,-7.182 -5.703,-7.182 v 0 h -19.438 v 37.184 h -58.736 v 0 c -10.352,0 -15.847,-2.939 -15.847,-23.239 0,-20.707 10.144,-21.552 15.847,-21.552 v 0 h 38.665 l -6.074,7.395 h -25.142 v 0 c -3.381,0 -7.073,-1.267 -7.238,15 -0.157,15.688 6.287,15.001 8.346,15.001 v 0 h 35.389 V 18.363 h 40.778 v 0 c 13.733,0 14.791,8.876 14.577,14.579 -0.186,5.03 -1.685,9.157 -6.528,11.296 -1.025,0.378 -1.855,1.085 -1.096,2.448 v 0 z"/>
        <path style="clip-rule:evenodd;fill-rule:evenodd" id="path74"
              d="m 559.811,21.683 c -2.451,0 -4.634,1.694 -4.634,4.609 0,2.915 2.183,4.61 4.634,4.61 2.438,0 4.621,-1.695 4.621,-4.61 -10e-4,-2.915 -2.184,-4.609 -4.621,-4.609 v 0 z m 0,8.158 v -0.013 0 c -1.829,0.013 -3.304,-1.414 -3.304,-3.537 0,-2.121 1.475,-3.536 3.304,-3.536 1.779,0 3.291,1.415 3.291,3.536 0,2.124 -1.512,3.55 -3.291,3.55 v 0 z"/>
        <path style="clip-rule:evenodd;fill-rule:evenodd" id="path76"
              d="m 560.677,26.596 c 0.658,-0.047 1.193,-0.377 1.193,-1.292 0,-1.134 -0.756,-1.5 -2.037,-1.5 v 0 h -1.852 v 4.963 h 1.06 v -2.086 h 0.499 l 1.146,2.086 h 1.257 l -1.266,-2.171 z m -0.697,-0.754 h -0.939 v -1.196 h 0.743 v 0 c 0.404,0 0.951,0.036 0.951,0.549 10e-4,0.549 -0.279,0.647 -0.755,0.647 v 0 z"/>
</g>
</svg>