<?xml version="1.0" encoding="UTF-8" standalone="no"?>
<svg xmlns:dc="http://purl.org/dc/elements/1.1/" xmlns:cc="http://creativecommons.org/ns#"
     xmlns:rdf="http://www.w3.org/1999/02/22-rdf-syntax-ns#" xmlns="http://www.w3.org/2000/svg" height="189.8"
     width="600" xml:space="preserve" viewBox="0 0 600 189.8" y="0px" x="0px" id="layer" version="1.1"><metadata
   id="metadata41"><rdf:RDF><cc:Work
       rdf:about=""><dc:format>image/svg+xml</dc:format><dc:type rdf:resource="http://purl.org/dc/dcmitype/StillImage"/><dc:title></dc:title></cc:Work></rdf:RDF></metadata>
    <defs id="defs39"/>
    <style id="style2" type="text/css">
	.st0{fill-rule:evenodd;clip-rule:evenodd;fill:#42388A;}
	.st1{fill-rule:evenodd;clip-rule:evenodd;fill:#2B2A29;}
</style>
    <path style="clip-rule:evenodd;fill:#42388a;fill-rule:evenodd" id="path4"
          d="m 467.6,72.1 c -37,0 -71.9,6.8 -105.1,17.4 43.9,1.5 69.5,10.1 95,21 2.8,1.2 5.7,2.7 8.5,4.4 2,-0.1 4,-0.2 6.1,-0.2 h 4.6 c 29.3,0 45.5,10 45.5,22.4 v 3.2 c 0,5.4 -3.1,10.4 -9.1,14.3 5.1,5.4 8.3,9 8.3,9 L 600,117.9 C 596,114.5 548.7,72.1 467.6,72.1"
          class="st0"/>
    <path style="clip-rule:evenodd;fill:#42388a;fill-rule:evenodd" id="path6"
          d="M 104.8,109.8 C 28.2,110.6 0,89.6 0,89.6 v 94.8 c 0,0 13.4,5.4 54.4,5.4 57.1,0 122.3,-16.8 189.5,-49.7 38,-18.6 77.1,-37.5 118.6,-50.6 -4.6,-0.2 -9.4,-0.3 -14.5,-0.3 -52.4,0 -116.9,19.3 -243.2,20.6"
          class="st0"/>
    <path style="clip-rule:evenodd;fill:#000000;fill-rule:evenodd" id="path8"
          d="m 413.1,55 c -6.7,0 -6.3,-3.8 -6.3,-6.3 0,-2.4 -0.2,-45.8 -0.2,-45.8 -11.6,1 -24,2.3 -37,3.9 0,0 0,31.6 0,43.3 0,11.7 3.4,17.2 28.5,16.7 50.9,-1 59.8,-5.4 59.8,-18.9 0,-9.9 0,-47.9 0,-47.9 -10.4,0.1 -22.9,0.7 -37,1.7 0,0 0,42.5 0,45.4 0.1,2.8 1.1,7.9 -7.8,7.9"
          class="st1"/>
    <path style="clip-rule:evenodd;fill:#000000;fill-rule:evenodd" id="path10"
          d="m 53.2,25.1 c 10.9,1.8 23.2,3.5 36.6,4.8 0,0 0.2,24.3 0.2,32.6 C 90,75.4 80.8,89.8 57,88.7 33.4,87.5 2.1,77.9 2.1,54.6 2.1,42.3 2.2,13.8 2.2,13.8 c 0,0 13.7,4.3 36.6,8.7 0,0 -0.2,29.2 -0.2,34.7 0,5.3 2.2,9.5 7.7,9.5 5.9,0 6.9,-3.4 6.9,-7.7 0,-5.3 0,-33.9 0,-33.9"
          class="st1"/>
    <path style="clip-rule:evenodd;fill:#000000;fill-rule:evenodd" id="path12"
          d="m 556.6,27.3 c 0,0 -4.5,16.3 -6.6,22.7 -5.5,16.1 -7.3,17.6 -7.3,17.6 l 0.5,0.2 c -9.7,-1.2 -20.9,-2.3 -33.8,-3.1 0,0 -5.1,-12.4 -6.7,-17.4 -2.4,-7.2 -6.6,-22.5 -6.6,-22.5 V 64 c -9.6,-0.4 -20,-0.7 -31.1,-0.8 V 0 c 19.3,0.1 36.9,1 51.4,2.1 0,0 1.8,9 4,20 1.7,8.1 6.1,24.5 6.1,24.5 0,0 3.7,-13.7 6.5,-24.7 1.7,-6.7 3.7,-17.8 3.7,-17.8 34.8,4.2 50.9,10 50.9,10 v 61.7 c 0,0 -10.4,-3 -31.1,-6.1 V 27.3 Z"
          class="st1"/>
    <path style="clip-rule:evenodd;fill:#000000;fill-rule:evenodd" id="path14"
          d="m 362.6,71.1 c -12,1.3 -24.3,2.7 -36.8,4.2 v -63 c 12.5,-1.6 24.8,-3.2 36.8,-4.7 z" class="st1"/>
    <path style="clip-rule:evenodd;fill:#000000;fill-rule:evenodd" id="path16"
          d="m 281.3,69.1 c 1.2,5.5 2.9,11 2.9,11 12.2,-1.4 24.6,-2.9 36.8,-4.3 0,0 -2.5,-5.5 -3.7,-11.8 -0.7,-3.7 -1.2,-11.3 -4.6,-14.3 -3.3,-2.9 -12.7,-3.4 -12.7,-3.4 12.9,-4 17.8,-8.5 17.8,-16.6 0,-14.1 -18.2,-14.1 -36,-11.6 -17.4,2.5 -34.7,4.5 -51.1,6.5 l 0.2,61.6 c 11.6,-1.3 23.7,-2.6 36,-4 V 57.4 c 6,-0.4 9.1,-1.4 11.7,1 1.1,1.1 1.6,5.9 2.7,10.7 M 266.8,43.6 V 31.9 c 8.3,-0.6 15.1,-0.4 15.1,4.2 0.1,5.3 -6.8,7.5 -15.1,7.5 z"
          class="st1"/>
    <path style="clip-rule:evenodd;fill:#000000;fill-rule:evenodd" id="path18"
          d="m 159.4,68.4 c -9.3,0.2 -19.5,0.1 -25.4,0.1 V 31.2 c -13.1,0 -25.5,0.2 -37.2,-0.7 v 61.3 c 13,0.6 25.5,0.7 40.8,0.7 5.7,0 13.7,-0.3 21.7,-0.8 z"
          class="st1"/>
    <path style="clip-rule:evenodd;fill:#000000;fill-rule:evenodd" id="path20"
          d="m 145,43.8 c 5.8,-0.2 13,-0.6 21.4,-1.1 v 0 48.6 c 11.2,-0.8 23.4,-1.5 36.6,-2.7 V 39.7 c 6.5,-0.6 13.3,-1.3 20.4,-2.1 V 25 c -34.5,3.8 -62,5.6 -78.4,6.2 z"
          class="st1"/>
    <polygon transform="translate(-25.9,-232.2)" style="clip-rule:evenodd;fill:#000000;fill-rule:evenodd" id="polygon22"
             points="348.9,358.1 348.9,351 198.8,355.4 " class="st1"/>
    <polygon transform="translate(-25.9,-232.2)" style="clip-rule:evenodd;fill:#000000;fill-rule:evenodd" id="polygon24"
             points="348.9,369.2 348.9,362.1 225.8,366.4 " class="st1"/>
    <polygon transform="translate(-25.9,-232.2)" style="clip-rule:evenodd;fill:#000000;fill-rule:evenodd" id="polygon26"
             points="348.9,380.9 348.9,373.8 252.2,378.1 " class="st1"/>
    <polygon transform="translate(-25.9,-232.2)" style="clip-rule:evenodd;fill:#000000;fill-rule:evenodd" id="polygon28"
             points="348.9,392 348.9,384.9 278.6,389.2 " class="st1"/>
    <path style="clip-rule:evenodd;fill:#000000;fill-rule:evenodd" id="path30"
          d="m 351.5,118.2 c 0,3.7 0,33.4 0,33.4 0,0 22.6,0 26.2,0 0,2.3 0,5.8 0,8.1 -3.8,0 -48.8,0 -52.6,0 0,-3.7 0,-37.8 0,-41.5 3.4,0 23,0 26.4,0 m 2.1,-4.2 h -32.8 v 50 h 61.1 v -16.6 c 0,0 -22.6,0 -26.2,0 0,-3.7 0,-33.4 0,-33.4 z"
          class="st1"/>
    <path style="clip-rule:evenodd;fill:#000000;fill-rule:evenodd" id="path32"
          d="m 439.2,123.3 c 7.9,-4.2 19.3,-6.5 33,-6.5 h 4.6 c 30,0 43.4,10.2 43.4,20.3 v 3.2 c 0,10.1 -13.4,20.3 -43.4,20.3 h -4.6 c -30,0 -43.4,-10.2 -43.4,-20.3 v -3.2 c 0,-2.6 0.8,-5 2.5,-7.3 l 2.4,-3.4 h -19.9 c 0,0 0,29.8 0,33.5 -3.3,0 -18.5,0 -21.7,0 0,-3.7 0,-33.5 0,-33.5 0,0 -17,0 -20.4,0 0,-2.3 0,-6 0,-8.4 3.9,0 60.5,0 64.3,0 0,1.6 0,7 0,7 z m 33.1,-10.7 c -12.8,0 -23.6,2 -31.9,5.6 0,-1.1 0,-4.4 0,-4.4 h -72.8 v 16.8 c 0,0 17,0 20.4,0 0,3.7 0,33.5 0,33.5 h 30.2 c 0,0 0,-29.8 0,-33.5 2.1,0 5,0 8,0 -0.9,2.1 -1.6,4.2 -1.6,6.5 v 3.2 c 0,14.7 19.1,24.5 47.6,24.5 h 4.6 c 28.5,0 47.6,-9.9 47.6,-24.5 v -3.2 c 0,-14.7 -19.1,-24.5 -47.6,-24.5 z"
          class="st1"/>
    <path style="clip-rule:evenodd;fill:#2b2a29;fill-rule:evenodd" id="path34"
          d="m 466.7,142.6 v -7.1 c 0,-3.6 2.9,-6.5 6.5,-6.5 h 2.4 c 3.6,0 6.5,2.9 6.5,6.5 v 7.1 c 0,3.6 -2.9,6.5 -6.5,6.5 h -2.4 c -3.6,0 -6.5,-2.9 -6.5,-6.5 m 6.5,-17.8 c -5.9,0 -10.8,4.8 -10.8,10.7 v 7.1 c 0,5.9 4.8,10.7 10.8,10.7 h 2.4 c 5.9,0 10.7,-4.8 10.7,-10.7 v -7.1 c 0,-5.9 -4.8,-10.7 -10.7,-10.7 z"
          class="st1"/>
</svg>