<?xml version="1.0" encoding="UTF-8" standalone="no"?>
<svg xmlns:dc="http://purl.org/dc/elements/1.1/" xmlns:cc="http://creativecommons.org/ns#"
     xmlns:rdf="http://www.w3.org/1999/02/22-rdf-syntax-ns#" xmlns="http://www.w3.org/2000/svg" height="145.22087"
     width="187.57178" version="1.1" id="svg3007">
    <metadata id="metadata3013">
        <rdf:RDF>
            <cc:Work rdf:about="">
                <dc:format>image/svg+xml</dc:format>
                <dc:type rdf:resource="http://purl.org/dc/dcmitype/StillImage"/>
                <dc:title></dc:title>
            </cc:Work>
        </rdf:RDF>
    </metadata>
    <defs id="defs3011"/>
    <path id="rect3017"
          d="M 65.602744,0.04231771 28.741797,79.71875 h -0.03125 L 16.119184,107.4375 H 134.55669 L 147.14805,79.71875 H 60.241795 L 96.864028,0.04231771 Z"
          style="fill:#000000;fill-rule:evenodd;stroke:none"/>
    <path id="rect3021" d="M 122.23563,0 97.081305,55.375 H 158.2063 L 183.36063,0 h -61.12499 z"
          style="fill:#000000;fill-rule:evenodd;stroke:none"/>
    <path id="text3025"
          d="M 12.761708,116.5625 0,144.65625 H 19.78125 L 20.562,142.9375 c 0.101061,0.28874 0.232305,0.5505 0.426364,0.78125 0.838233,0.99674 2.25517,1.50656 4.224868,1.5 1.248618,0.0107 2.540919,-0.17479 3.911768,-0.5625 1.370819,-0.38771 2.734448,-1.0548 4.050563,-1.96875 -0.131088,0.33525 -0.2494,0.66967 -0.329254,1 -0.07989,0.33034 -0.146285,0.65317 -0.190059,0.96875 h 5.65625 c -0.05484,-0.43443 0.02777,-1.05695 0.289227,-1.875 0.261413,-0.81805 0.618205,-1.71033 1.050363,-2.65625 l 4.798061,-10.5625 c 0.960704,-2.37544 0.692192,-3.94658 -0.793987,-4.71875 -1.486227,-0.77213 -3.290203,-1.12641 -5.454855,-1.0625 -2.345236,-0.0434 -4.675111,0.4334 -6.99674,1.4375 -2.321658,1.00414 -4.196422,2.77077 -5.614922,5.34375 h 5.5625 c 0.60286,-1.09181 1.330093,-1.86176 2.189659,-2.34375 0.859532,-0.48196 1.826856,-0.72857 2.888995,-0.71875 1.023013,-0.0352 1.794923,0.11548 2.318318,0.46875 0.523362,0.3533 0.52757,1.11649 0.02623,2.28125 -0.550861,1.0779 -1.51158,1.74345 -2.908509,2 -1.396958,0.25657 -3.022176,0.49489 -4.8748,0.6875 -1.875402,0.17624 -3.695003,0.68124 -5.445577,1.53125 -1.75059,0.85003 -3.181194,2.41441 -4.271371,4.65625 -0.05142,0.11917 -0.07919,0.22814 -0.1249,0.34375 H 8.481442 L 18.886705,116.5625 h -6.125 z m 85.312497,0 -0.9354,7.21875 c -0.0199,-4.3e-4 -0.0426,8e-5 -0.0625,0 -1.39745,0.0205 -2.87148,0.40472 -4.41442,1.1875 -1.54298,0.78282 -2.87719,1.82581 -4.0133,3.125 h -0.0937 l 1.71765,-3.78125 h -5.28125 l -9.24123,20.34375 h 5.5625 L 85.471815,135.5 c 0.80905,-1.83855 1.92363,-3.39136 3.31968,-4.625 1.39601,-1.23362 3.1144,-1.85787 5.14717,-1.90625 0.34235,8.3e-4 0.65651,0.0273 1.00286,0.0625 0.3463,0.0353 0.67472,0.0652 0.91197,0.125 l 0.80914,-1.78125 -2.25633,17.28125 h 6.937495 l 19.0753,-24.3125 -0.38327,0.84375 h 5.5625 l 2.10092,-4.625 h -4.3125 -1.25 -5.09375 l -15.28402,19.75 h -0.0625 l 2.72152,-19.75 h -6.343745 z m 48.749995,0 -2.10092,4.625 h 5.5625 l 2.10092,-4.625 z m -90.341645,7.21875 c -2.245655,-0.0524 -4.48039,0.38136 -6.658704,1.3125 -2.178343,0.93118 -3.869401,2.67445 -5.12064,5.21875 -0.727303,1.74841 -0.634984,3.00174 0.282351,3.78125 0.917315,0.77953 2.137005,1.31271 3.668086,1.625 1.827202,0.40411 3.183171,0.84272 4.074237,1.28125 0.891041,0.43854 1.162679,1.05778 0.804523,1.875 -0.491548,0.96888 -1.203593,1.64272 -2.141454,2.03125 -0.937896,0.38854 -1.845313,0.57726 -2.693018,0.5625 -1.13962,0.01 -2.001705,-0.24025 -2.582614,-0.78125 -0.580933,-0.54099 -0.611736,-1.41514 -0.120082,-2.625 h -5.28125 c -1.001127,2.65661 -0.839679,4.51586 0.521515,5.59375 1.361183,1.07789 3.271829,1.60102 5.727727,1.5625 2.3895,0.0393 4.758384,-0.46893 7.070577,-1.53125 1.981337,-0.91032 3.577666,-2.40276 4.811196,-4.46875 -0.0563,1.12935 0.12142,2.12595 0.54349,3 0.93728,1.94102 2.9993,2.94754 6.19974,3 2.2954,0.0147 4.50322,-0.52826 6.61316,-1.625 2.1099,-1.09674 4.11806,-2.83345 5.99564,-5.21875 h -4.90625 c -0.49761,0.66067 -1.27229,1.24846 -2.30914,1.78125 -1.03689,0.5328 -2.10655,0.81261 -3.25828,0.84375 -1.55433,0.007 -2.56586,-0.41064 -3.02593,-1.25 -0.46009,-0.83936 -0.3507,-2.14227 0.36818,-3.90625 h 14.625 c 1.66445,-3.24021 2.19779,-6.02494 1.61688,-8.375 -0.58095,-2.35003 -2.58191,-3.57518 -5.98119,-3.6875 -3.15162,0.0664 -6.09315,1.07314 -8.8599,3.0625 -2.76676,1.9894 -4.89109,4.54063 -6.35288,7.65625 -0.0935,0.2105 -0.16935,0.41995 -0.25266,0.625 -0.11339,-0.38115 -0.32753,-0.69956 -0.62244,-0.96875 -0.89362,-0.81558 -2.11602,-1.39004 -3.656755,-1.71875 -1.501978,-0.32786 -2.78343,-0.69527 -3.861104,-1.0625 -1.077694,-0.36721 -1.413635,-1.01134 -1.043187,-1.96875 0.414738,-0.80164 0.995242,-1.32149 1.772272,-1.5625 0.776992,-0.24097 1.521221,-0.36832 2.1874,-0.34375 1.031819,-0.0205 1.814542,0.16497 2.338234,0.5625 0.52365,0.39756 0.57398,1.12602 0.19382,2.1875 h 5.28125 c 0.8319,-2.45659 0.63595,-4.13716 -0.62365,-5.09375 -1.25963,-0.95656 -3.04347,-1.41678 -5.34415,-1.375 z m 77.406245,0 c -2.24565,-0.0524 -4.44914,0.38136 -6.62745,1.3125 -2.17834,0.93118 -3.90065,2.67445 -5.15189,5.21875 -0.72731,1.74841 -0.63499,3.00174 0.28235,3.78125 0.91731,0.77953 2.137,1.31271 3.66808,1.625 1.82721,0.40411 3.18317,0.84272 4.07425,1.28125 0.89103,0.43854 1.16267,1.05778 0.80451,1.875 -0.49154,0.96888 -1.20358,1.64272 -2.14144,2.03125 -0.93791,0.38854 -1.81407,0.57726 -2.66177,0.5625 -1.13962,0.01 -2.03295,-0.24025 -2.61386,-0.78125 -0.58094,-0.54099 -0.61174,-1.41514 -0.12009,-2.625 h -5.28125 c -1.00112,2.65661 -0.83967,4.51586 0.52152,5.59375 1.36118,1.07789 3.27183,1.60102 5.72773,1.5625 2.3895,0.0393 4.75838,-0.46893 7.07057,-1.53125 2.31215,-1.06231 4.108,-2.92638 5.40179,-5.5625 0.77292,-1.84347 0.6964,-3.15315 -0.19717,-3.96875 -0.89362,-0.81558 -2.08477,-1.39004 -3.6255,-1.71875 -1.50198,-0.32786 -2.78344,-0.69527 -3.86111,-1.0625 -1.07769,-0.36721 -1.44488,-1.01134 -1.07444,-1.96875 0.41474,-0.80164 0.99525,-1.32149 1.77228,-1.5625 0.77699,-0.24097 1.52122,-0.36832 2.1874,-0.34375 1.03181,-0.0205 1.81454,0.16497 2.33823,0.5625 0.52365,0.39756 0.57398,1.12602 0.19382,2.1875 h 5.3125 c 0.8319,-2.45659 0.6047,-4.13716 -0.6549,-5.09375 -1.25963,-0.95656 -3.04347,-1.41678 -5.34415,-1.375 z m 26.1875,0 c -3.23102,0.0418 -6.19732,1.02191 -8.92812,2.9375 -2.73081,1.91563 -4.84577,4.4935 -6.37841,7.78125 -1.44576,3.26892 -1.68324,5.86974 -0.69092,7.78125 0.99231,1.91151 3.06671,2.89488 6.25938,2.9375 3.25014,-0.0426 6.25759,-1.02599 8.99062,-2.9375 2.73299,-1.91151 4.85511,-4.51233 6.37842,-7.78125 1.4551,-3.28776 1.68541,-5.86562 0.69091,-7.78125 -0.99455,-1.91559 -3.11009,-2.89568 -6.32188,-2.9375 z m 22.5,0 c -1.19725,-0.002 -2.48384,0.25349 -3.83783,0.8125 -1.354,0.55905 -2.6373,1.42315 -3.88277,2.5625 h -0.125 l 1.29179,-2.84375 h -5.28125 L 161.5,144.65625 h 5.5625 L 171.90314,134 c 0.92226,-2.05003 1.9191,-3.54495 3.02996,-4.46875 1.11082,-0.92377 2.39959,-1.35931 3.89166,-1.34375 1.27993,-8e-4 2.0186,0.38842 2.19637,1.21875 0.17771,0.83036 -0.1329,2.10992 -0.90515,3.78125 l -5.20972,11.46875 h 5.5625 l 5.67816,-12.5 c 1.22067,-2.55249 1.66821,-4.5937 1.29938,-6.09375 -0.36891,-1.50001 -1.98944,-2.2468 -4.86999,-2.28125 z m -63.96006,0.53125 -9.24123,20.34375 h 5.5625 l 9.24123,-20.34375 z m 24.6875,0 -9.24124,20.34375 h 5.5625 l 9.24124,-20.34375 z m -70.035875,3.65625 c 1.33358,0.003 2.19482,0.39386 2.55147,1.125 0.3566,0.73118 0.31946,1.79906 -0.0871,3.21875 h -9.0625 c 0.4012,-0.86886 1.16863,-1.78275 2.28045,-2.75 1.11179,-0.96722 2.55041,-1.51176 4.31771,-1.59375 z m 84.906245,0 c 1.83704,0.068 2.82941,0.76987 2.96935,2.0625 0.13991,1.29266 -0.19427,2.76791 -0.99869,4.46875 -0.73225,1.68201 -1.74878,3.18021 -3.0612,4.46875 -1.31246,1.28855 -2.92973,1.9624 -4.82896,2.03125 -1.81793,-0.0688 -2.78335,-0.7427 -2.92104,-2.03125 -0.13772,-1.28854 0.20362,-2.78674 0.9987,-4.46875 0.74159,-1.70084 1.75096,-3.17609 3.06119,-4.46875 1.31021,-1.29263 2.90053,-1.99445 4.78065,-2.0625 z m -121.628707,6.75 -0.9369,2.0625 c -0.24698,0.72871 -0.887548,1.6756 -1.90259,2.8125 -1.015076,1.13691 -2.582809,1.75615 -4.726727,1.875 -0.940373,0.0221 -1.658202,-0.1336 -2.147873,-0.5 -0.489683,-0.3664 -0.51436,-1.07323 -0.08015,-2.09375 0.482512,-0.99755 1.136991,-1.70285 1.965291,-2.125 0.828274,-0.42213 1.718684,-0.72335 2.678722,-0.875 0.949303,-0.13524 1.887418,-0.24466 2.795345,-0.375 0.907889,-0.13032 1.681093,-0.39025 2.354887,-0.78125 z"
          style="font-style:normal;font-weight:normal;font-size:39.25843048px;line-height:125%;font-family:Sans;letter-spacing:-4.18102169px;word-spacing:0px;fill:#000000;fill-opacity:1;stroke:none"/>
</svg>
