<?xml version="1.0" encoding="UTF-8" standalone="no"?>
<svg xmlns:dc="http://purl.org/dc/elements/1.1/" xmlns:cc="http://creativecommons.org/ns#"
     xmlns:rdf="http://www.w3.org/1999/02/22-rdf-syntax-ns#" xmlns="http://www.w3.org/2000/svg" id="svg38"
     xml:space="preserve" enable-background="new 0 -0.333 162 153" viewBox="0 -0.333 149.34599 136.838" height="136.838"
     width="149.34599" y="0px" x="0px" version="1.1"><metadata
   id="metadata42"><rdf:RDF><cc:Work
       rdf:about=""><dc:format>image/svg+xml</dc:format><dc:type rdf:resource="http://purl.org/dc/dcmitype/StillImage"/><dc:title></dc:title></cc:Work></rdf:RDF></metadata>
  <defs id="defs2">
</defs>
  <polygon transform="translate(-5.994,-8.125)" style="clip-rule:evenodd;opacity:0;fill:#ffffff;fill-rule:evenodd"
           id="polygon4" points="161.333,152.422 0,152.422 0,0 161.333,0 "/>
  <path style="clip-rule:evenodd;fill-rule:evenodd" id="path6"
        d="m 28.249,28.153 c 0.704,1.93 0.493,3.727 1.479,8.719 1.268,6.655 6.481,20.898 8.102,27.087 h 0.211 9.299 c 1.691,-6.189 6.834,-20.433 8.102,-27.087 0.986,-4.992 0.775,-6.79 1.479,-8.719 V 63.96 H 66.22 V 20.832 H 51.284 C 48.749,29.151 45.226,39.069 44.028,45.191 42.901,50.914 42.901,53.31 42.619,56.838 42.267,53.31 42.338,50.914 41.14,45.191 40.576,42.129 39.379,38.136 38.04,33.877 36.702,29.617 35.151,25.024 33.884,20.832 H 18.95 v 43.127 h 9.299 z"/>
  <path style="clip-rule:evenodd;fill-rule:evenodd" id="path8"
        d="M 132.58,31.414 V 21.031 h -5.496 -5.494 v 10.382 h 5.494 5.496 z m -7.82,-2.995 V 23.96 h 2.324 2.396 v 4.459 h -2.396 z"/>
  <path style="clip-rule:evenodd;fill-rule:evenodd" id="path10"
        d="m 77.21,77.272 h 5.494 5.495 V 66.888 H 82.704 77.21 Z m 3.099,-7.389 h 2.395 2.325 v 4.459 h -2.325 -2.395 z"/>
  <path style="clip-rule:evenodd;fill-rule:evenodd" id="path12"
        d="M 43.536,66.888 H 38.041 18.95 v 47.853 h 19.091 5.495 c 7.467,0 13.526,-5.724 13.526,-12.777 v -3.261 -4.262 -7.188 -4.991 -2.529 c 0,-7.054 -6.059,-12.845 -13.526,-12.845 z m 4.156,11.581 v 1.796 21.965 1.264 2.063 c 0,0.732 -0.634,1.332 -1.41,1.332 H 45.367 42.761 38.041 28.39 V 75.607 h 9.651 4.72 2.606 0.915 c 0.775,0 1.41,0.6 1.41,1.331 z"/>
  <path style="clip-rule:evenodd;fill-rule:evenodd" id="path14"
        d="M 132.58,63.959 V 34.476 h -5.496 -5.494 V 63.96 h 5.494 5.496 z m -7.82,-2.462 V 37.47 h 2.324 2.396 v 24.026 h -2.396 -2.324 z"/>
  <path style="clip-rule:evenodd;fill-rule:evenodd" id="path16"
        d="M 82.422,31.414 V 21.031 h -5.424 -5.566 v 10.382 h 5.566 5.424 z m -7.89,-2.995 V 23.96 h 2.466 2.254 v 4.459 h -2.254 z"/>
  <path style="clip-rule:evenodd;fill-rule:evenodd" id="path18"
        d="M 117.785,77.272 V 66.888 h -5.494 -5.495 v 10.384 h 5.495 z m -7.889,-2.93 v -4.459 h 2.396 2.323 v 4.459 h -2.323 z"/>
  <path style="clip-rule:evenodd;fill-rule:evenodd" id="path20"
        d="m 114.334,79.733 c -0.705,0 -1.409,0.066 -2.043,0.267 -2.537,0.865 -4.369,3.129 -4.369,5.724 0,7.654 0,15.375 0,23.029 0,2.594 1.832,4.856 4.369,5.724 0.634,0.198 1.338,0.265 2.043,0.265 h 12.75 5.566 v -9.717 h -5.566 -8.594 c 0,-5.191 0,-10.382 0,-15.573 h 8.594 5.566 v -9.718 h -5.566 -12.75 z m 15.216,2.727 v 3.994 h -2.466 -11.764 c 0,7.188 0,14.377 0,21.565 h 11.764 2.466 v 3.992 h -2.466 -12.961 c -0.705,0 -1.339,-0.266 -1.832,-0.599 -0.775,-0.533 -1.269,-1.397 -1.269,-2.396 0,-7.853 0,-15.706 0,-23.56 0,-1 0.493,-1.863 1.269,-2.396 0.493,-0.4 1.127,-0.602 1.832,-0.602 h 12.961 2.466 z"/>
  <path style="clip-rule:evenodd;fill-rule:evenodd" id="path22"
        d="M 134.2,-0.333 H 127.084 112.291 102.146 97.566 82.704 76.998 67.981 38.041 15.075 C 6.762,-0.333 0,6.122 0,13.976 v 108.219 c 0,7.921 6.762,14.31 15.075,14.31 h 22.965 29.94 9.017 5.706 14.863 4.58 10.145 14.793 7.116 c 8.313,0 15.146,-6.455 15.146,-14.31 V 13.976 c 0,-7.853 -6.833,-14.309 -15.146,-14.309 z m 11.552,122.329 c 0,6.058 -5.353,11.114 -11.764,11.114 h -6.904 -14.793 -10.145 -4.58 -14.862 -5.706 -9.017 -29.94 -22.684 c -6.48,0 -11.765,-5.057 -11.765,-11.114 V 14.243 C 3.592,8.12 8.876,3.129 15.357,3.129 h 22.684 29.94 9.017 5.706 14.863 4.58 10.145 14.793 6.904 c 6.411,0 11.764,4.991 11.764,11.114 v 107.753 z"/>
  <path style="clip-rule:evenodd;fill-rule:evenodd" id="path24"
        d="m 121.659,66.888 v 10.384 h 5.425 5.566 V 66.888 h -5.566 z m 7.821,2.995 v 4.459 h -2.396 -2.324 v -4.459 h 2.324 z"/>
  <path style="clip-rule:evenodd;fill-rule:evenodd" id="path26"
        d="m 112.291,63.959 h 4.508 V 42.595 c 0,-3.061 -1.831,-5.791 -4.508,-7.188 -1.269,-0.6 -2.605,-0.932 -4.086,-0.932 h -6.059 -4.58 -1.618 c -4.72,0 -8.666,3.661 -8.666,8.12 v 21.364 h 10.284 0.494 v -19.5 h 4.086 4.086 v 19.5 z M 102.147,41.531 h -4.58 -2.605 V 61.497 H 90.455 V 42.662 c 0,-2.861 2.465,-5.192 5.424,-5.192 h 1.688 4.58 6.269 c 1.48,0 2.89,0.6 3.876,1.531 0.986,0.932 1.549,2.263 1.549,3.661 v 18.834 h -1.549 -2.889 V 41.531 Z"/>
  <path style="clip-rule:evenodd;fill-rule:evenodd" id="path28"
        d="m 62.486,79.733 v 35.008 h 5.495 5.494 V 79.733 h -5.494 z m 7.89,3.128 v 29.284 H 67.981 65.656 V 82.861 h 2.325 z"/>
  <path style="clip-rule:evenodd;fill-rule:evenodd" id="path30"
        d="M 82.491,34.476 H 76.998 71.503 V 63.96 h 5.495 5.493 z M 79.392,61.497 H 76.998 74.673 V 37.47 h 2.325 2.394 z"/>
  <path style="clip-rule:evenodd;fill-rule:evenodd" id="path32"
        d="m 102.147,77.272 h 0.916 V 66.888 h -0.916 -4.58 -5.493 v 10.384 h 5.493 z m -6.973,-2.93 v -4.459 h 2.393 2.324 v 4.459 h -2.324 z"/>
  <path style="clip-rule:evenodd;fill-rule:evenodd" id="path34"
        d="M 73.405,77.272 V 66.888 h -5.424 -5.566 v 10.384 h 5.566 z m -7.89,-2.93 v -4.459 h 2.466 2.254 v 4.459 h -2.254 z"/>
  <path style="clip-rule:evenodd;fill-rule:evenodd" id="path36"
        d="m 102.147,93.911 c -1.128,-1 -2.607,-1.599 -4.298,-1.599 h -0.282 -9.861 v -2.861 h 9.861 4.58 1.551 v -9.718 h -1.551 -4.58 -14.018 c -0.281,0 -0.563,0 -0.845,0 -3.099,0.467 -5.494,2.996 -5.494,5.99 v 0.267 9.915 0.201 c 0,3.062 2.395,5.591 5.494,5.989 0.282,0.066 0.564,0.066 0.845,0.066 h 10.145 v 2.862 h -10.99 -4.931 v 9.717 h 4.931 14.863 0.282 c 1.69,0 3.17,-0.599 4.298,-1.53 1.269,-1.132 2.113,-2.729 2.113,-4.458 v -0.268 -9.917 -0.199 c 0,-1.795 -0.845,-3.394 -2.113,-4.457 z m -0.916,4.657 v 9.917 0.532 c 0,1.664 -1.408,2.995 -3.17,2.995 H 97.567 82.704 80.872 v -3.992 h 1.832 14.16 V 99.366 H 83.408 c -0.281,0 -0.492,0 -0.704,-0.064 -1.409,-0.267 -2.466,-1.466 -2.466,-2.93 V 95.905 85.99 85.458 c 0,-1.398 1.057,-2.597 2.466,-2.929 0.212,0 0.423,-0.068 0.704,-0.068 h 14.159 3.031 v 3.994 H 97.567 84.605 v 8.652 h 12.961 0.494 c 1.762,0 3.17,1.331 3.17,2.93 v 0.531 z"/>
</svg>