<?xml version="1.0" encoding="UTF-8" standalone="no"?>
<svg xmlns:dc="http://purl.org/dc/elements/1.1/" xmlns:cc="http://creativecommons.org/ns#"
     xmlns:rdf="http://www.w3.org/1999/02/22-rdf-syntax-ns#" xmlns="http://www.w3.org/2000/svg" version="1.1" id="svg2"
     xml:space="preserve" width="200.6404" height="249.44858" viewBox="0 0 200.6404 249.44858"><metadata
     id="metadata8"><rdf:RDF><cc:Work
         rdf:about=""><dc:format>image/svg+xml</dc:format><dc:type
    rdf:resource="http://purl.org/dc/dcmitype/StillImage"/><dc:title></dc:title></cc:Work></rdf:RDF></metadata>
    <defs id="defs6"/>
    <path
        d="m 153.01373,97.511994 c 0,22.470666 -18.21334,40.684536 -40.67734,40.684536 l -3.99866,-0.0443 V 123.1485 l 3.99866,-0.0145 c 14.148,0 25.62134,-11.466 25.62134,-25.621996 h 15.056"
        style="fill:#000000;fill-opacity:1;fill-rule:evenodd;stroke:none;stroke-width:0.13333333" id="path16"/>
    <path
        d="m 165.49773,97.533334 c 0,-29.366669 -23.80134,-53.169335 -53.16134,-53.169335 l -3.99866,0.036 V 28.9 l 3.90933,-0.016 c 37.816,0 67.832,30.825332 67.832,68.634664 0,37.816396 -30.016,68.633596 -67.824,68.633596 l -3.91733,-0.007 v -15.50107 l 3.99866,0.0297 c 29.36,0 53.16134,-23.80213 53.16134,-53.161596 v 0.0213"
        style="fill:#000000;fill-opacity:1;fill-rule:evenodd;stroke:none;stroke-width:0.13333333" id="path18"/>
    <path
        d="m 137.95773,97.533334 c 0,-14.156002 -11.47334,-25.629335 -25.62134,-25.629335 l -3.99866,-0.008 V 56.885332 l 3.99866,-0.03733 c 22.464,0 40.67734,18.214666 40.67734,40.685332 h -15.056"
        style="fill:#000000;fill-opacity:1;fill-rule:evenodd;stroke:none;stroke-width:0.13333333" id="path20"/>
    <path
        d="M 69.302532,92.695998 H 56.855199 L 46.206665,58.074666 c 0,0 -1.0176,-3.508 -1.322933,-5.261334 l -1.8056,-9.430666 V 92.741331 H 30.140533 V 29.493333 l 20.547466,-0.0067 c 0,0 6.4724,21.208 7.861466,25.86 1.39,4.66 4.533867,19.766666 4.533867,22.309332 0,-2.542666 3.135866,-17.649332 4.5328,-22.309332 1.3896,-4.652 7.854662,-25.86 7.854662,-25.86 l 20.5468,0.0067 v 63.247998 h -12.938 V 43.382666 L 69.302532,92.695998"
        style="fill:#000000;fill-opacity:1;fill-rule:evenodd;stroke:none;stroke-width:0.13333333" id="path22"/>
    <path
        d="m 83.057734,43.382666 -1.80574,9.430666 c -0.312,1.753334 -1.33013,5.261334 -1.33013,5.261334 L 69.280132,92.695998 83.057734,43.382666"
        style="fill:#000000;fill-opacity:1;fill-rule:evenodd;stroke:none;stroke-width:0.13333333" id="path24"/>
    <path d="m 50.687999,29.486666 c 0,0 -1.524,-5.550666 7.861466,25.86 l -7.861466,-25.86"
          style="fill:#000000;fill-opacity:1;fill-rule:evenodd;stroke:none;stroke-width:0.13333333" id="path26"/>
    <path
        d="m 96.671334,123.83239 c 0,-17.53773 -13.60574,-20.1604 -21.17867,-20.1604 -8.708932,0 -45.277598,0 -45.277598,0 v 63.08227 c 0,0 36.568666,0 45.277598,0.007 7.57293,0 21.17867,-2.62293 21.17867,-20.1604 l 0.0817,-2.09586 v -18.5776 z m -14.45374,26.1428 c 0,2.3484 -2.58533,3.7004 -3.84893,3.7004 -0.40827,0 -1.18853,0.0964 -1.18853,0.0964 H 44.631732 v -37.11066 h 32.548402 c 0,0 0.78026,0.096 1.18853,0.096 1.2636,0 3.84893,1.35333 3.84893,3.70133 v 29.51653"
        style="fill:#000000;fill-opacity:1;fill-rule:evenodd;stroke:none;stroke-width:0.13333333" id="path28"/>
    <path
        d="M 200.64039,96.403994 V 24.106666 c 0,-0.884 -0.19333,-3.894666 -0.19333,-3.894666 0,-11.0493333 -8.96267,-20.0186666 -20.012,-20.0186666 0,0 -2.99467,-0.1933334 -3.88,-0.1933334 H 24.061866 C 23.013999,0 20.190533,0.1933334 20.190533,0.1933334 9.14,0.1933334 0.185333,9.1626667 0.185333,20.22 0.185333,20.22 0,23.222666 0,24.106666 V 170.46999 c 0,1.04054 0.192667,3.87187 0.192667,3.87187 0,11.05 8.961999,20.00413 20.011999,20.00413 0,0 2.823867,0.20107 3.871867,0.20107 H 176.56439 c 0.884,0 3.87867,-0.19374 3.87867,-0.19374 11.05066,0 20.004,-8.96146 20.004,-20.01146 0,0 0.19333,-2.83133 0.19333,-3.87187 V 96.403994 h -4.51867 v 74.110666 c 0,1.472 -0.19333,3.8272 -0.19333,3.8272 0,8.55307 -6.932,15.4864 -15.48533,15.4864 0,0 -3.05467,0.1932 -3.87867,0.1932 H 24.031733 c -1.470267,0 -3.827067,-0.1932 -3.827067,-0.1932 -8.552666,0 -15.485999,-6.93333 -15.485999,-15.4864 0,0 -0.200534,-2.3552 -0.200534,-3.8272 V 24.106666 c 0,-0.825333 0.1928,-3.886666 0.1928,-3.886666 0,-8.561333 6.925467,-15.5080001 15.4796,-15.5080001 0,0 2.3552,-0.1933333 3.826533,-0.1933333 H 176.55506 c 0.82533,0 3.88,0.1933333 3.88,0.1933333 8.55333,0 15.48666,6.9466671 15.48666,15.5000001 0,0 0.2,3.069333 0.2,3.894666 v 72.297328 h 4.51867"
        style="fill:#000000;fill-opacity:1;fill-rule:evenodd;stroke:none;stroke-width:0.13333333" id="path30"/>
    <path
        d="m 65.148398,219.00999 c -3.841733,-7.30467 -9.481733,-9.26667 -13.977599,-9.26667 l -20.331733,-0.0296 v 39.73486 l 19.729599,-0.0297 c 4.555734,0 9.475067,-2.72812 12.477067,-6.97812 2.036533,-2.8313 4.0204,-7.70624 4.0204,-14.63224 0,-4.08706 -1.017734,-7.1636 -1.917734,-8.79853 z m -8.701599,18.2808 c -1.976534,3.92393 -5.276,5.3432 -9.415067,5.3432 h -7.1932 v -26.10573 h 8.092133 c 3.240134,0 5.5812,0.60213 7.854667,3.65626 1.560933,2.01347 2.221867,5.33547 2.221867,8.66454 0.05947,3.26253 -0.542667,6.53906 -1.5604,8.44173"
        style="fill:#000000;fill-opacity:1;fill-rule:evenodd;stroke:none;stroke-width:0.13333333" id="path32"/>
    <path
        d="m 79.706664,241.48972 -3.05413,7.95886 h -9.178669 l 15.234929,-39.73486 h 10.37347 l 14.988796,39.73486 h -9.169596 l -3.00253,-7.95886 h -16.19227 l 2.82347,-6.81453 h 11.2136 l -5.81827,-15.41933 -5.39533,15.41933 -2.82347,6.81453"
        style="fill:#000000;fill-opacity:1;fill-rule:evenodd;stroke:none;stroke-width:0.13333333" id="path34"/>
    <path d="m 137.86973,209.71372 v 6.81454 h -12.76667 v 32.92032 h -9 v -32.92032 h -13.24893 v -6.81454 h 35.0156"
          style="fill:#000000;fill-opacity:1;fill-rule:evenodd;stroke:none;stroke-width:0.13333333" id="path36"/>
    <path
        d="m 145.11506,241.48972 -3.06133,7.95886 h -9.17067 l 15.22667,-39.73486 h 10.38133 l 14.988,39.73486 h -9.17733 l -2.99467,-7.95886 h -16.192 l 2.816,-6.81453 h 11.21333 l -5.81733,-15.41933 -5.396,15.41933 -2.816,6.81453"
        style="fill:#000000;fill-opacity:1;fill-rule:evenodd;stroke:none;stroke-width:0.13333333" id="path38"/></svg>