<?xml version="1.0" encoding="UTF-8" standalone="no"?>
<svg xmlns:dc="http://purl.org/dc/elements/1.1/" xmlns:cc="http://creativecommons.org/ns#"
     xmlns:rdf="http://www.w3.org/1999/02/22-rdf-syntax-ns#" xmlns="http://www.w3.org/2000/svg" version="1.1"
     id="svg6120" height="120.056" width="939.98804">
    <defs id="defs6122"/>
    <metadata id="metadata6125">
        <rdf:RDF>
            <cc:Work rdf:about="">
                <dc:format>image/svg+xml</dc:format>
                <dc:type rdf:resource="http://purl.org/dc/dcmitype/StillImage"/>
                <dc:title></dc:title>
            </cc:Work>
        </rdf:RDF>
    </metadata>
    <g transform="translate(80.636329,-545.25578)" id="layer1">
        <path style="fill:#000000;fill-opacity:1"
              d="m -80.636329,665.31178 v -120.0557 l 470.707689,0.25106 469.28033,-0.25136 v 119.846 z M 195.60133,632.86469 h -3.80634 c 0,3.06324 -2.18414,4.41681 -3.98344,4.89893 h -83.4367 v -27.01409 h 54.13691 c 0.67854,0.008 3.07771,2.40785 3.43391,4.26401 h 3.08307 v -25.36489 h -3.46037 c 0,2.55496 -2.02193,4.95927 -3.35005,4.94365 h -53.84347 v -23.92127 h 80.79306 c 2.125,0.42187 4.34149,3.10651 4.34149,4.9972 h 3.06667 v -26.01927 h -3.01062 c -0.125,1.875 -1.6229,4.40032 -3.96665,4.83782 H 70.396089 v 2.14655 c 3.86699,0.0663 5.626032,3.11858 5.626032,4.44441 v 86.87106 c -0.2516,1.73296 -1.905425,3.95663 -5.842925,3.72856 v 2.89784 H 188.19631 c 1.46649,0.7375 3.38803,1.65281 3.70309,4.87475 h 3.76443 z M 61.760691,623.61175 c -0.713228,-25.82639 -36.843314,-30.27552 -55.8520284,-31.2115 -17.7497016,-0.87398 -34.6444756,-2.75151 -38.2137006,-6.32073 -3.401678,-3.40168 -4.681221,-7.42217 2.266255,-12.46789 5.00475,-3.63478 13.04553,-5.43272 26.4994485,-5.48253 19.6231425,-0.0727 40.1878755,5.80633 46.1094555,13.18774 1.94091,2.4194 0.02282,2.94117 3.04827,3.90762 l 16.08789,-24.0173 -2.697053,-1.44516 c 0,0 -3.117898,1.98796 -4.900438,1.98796 -4.47304,0 -27.651023,-11.18576 -58.287438,-11.19467 -25.983483,0 -56.716201,8.52126 -57.500001,32.05075 0,7.00727 -0.140769,16.72331 20.268132,25.83854 20.528054,9.16845 74.896588,0.42526 74.896588,16.39606 0,16.8934 -44.576204,17.17889 -68.23046,8.90062 -3.467669,-1.21358 -15.289023,-3.62959 -14.67993,-13.10398 l -2.551205,-0.55095 -14.989235,25.08187 c 3.236984,3.23698 2.527094,0.32993 7.04002,0.32993 4.79276,0.26578 25.362611,10.82792 59.21665297,11.44541 C 29.324594,657.49134 60.918547,647.96813 61.760691,623.61175 Z M 850.24993,654.68677 V 554.82963 L 523.52136,554.4582 v 100.6 z M 671.50886,572.22612 c -116.59169,21.76355 -96.34355,75.3269 5.1875,63.64115 -160.75756,33.50157 -206.9903,-37.00108 -5.1875,-63.64115 z m 22.58443,16.68805 10.13664,37.12201 c 85.05381,-9.57298 123.91304,-64.06534 -14.79937,-57.88054 113.64768,-14.8062 153.73117,1.02137 144.02904,17.30319 -9.70213,16.28182 -66.71499,37.61409 -139.83538,47.60587 z m -346.21217,49.55729 c -0.0415,-2.07366 -3.98225,-1.23577 -6.02675,-4.77695 v -24.48816 c -0.0442,-0.92808 2.48306,-3.48564 5.75343,-3.61822 l -0.0723,-2.59979 h -63.52332 c -1.46111,-1.43557 -2.52475,-2.92797 -2.81838,-4.36798 h -3.66388 v 23.61922 h 3.09202 c 1.5534,-1.10938 1.02035,-3.75086 3.98066,-4.622 l 34.31963,0.0661 v 13.61599 c -119.40025,37.34247 -112.61097,-92.2614 -6.44314,-56.74548 11.09246,4.52268 5.54381,9.07616 11.1028,9.07848 l 14.36446,-23.95277 c -1.5,-2.46906 -4.03794,0.51057 -6.86836,0.33014 -5.80964,0 -26.57667,-8.71527 -51.16975,-8.81434 -35.35773,0.0844 -76.78959,12.76665 -76.78959,53.93367 2.34579,39.49365 45.12058,51.95831 79.00168,49.31357 16.32565,0 44.60999,-4.70131 65.76079,-15.97148 z m 40.57791,12.05482 c -1.59268,-0.007 -5.941,-1.17582 -5.85594,-5.61719 l 9.57297,-17.33839 53.81955,0.11298 c 1.1233,2.45647 9.81737,15.36618 9.59088,18.359 0,0.64351 -0.0506,4.11265 -5.79586,4.56298 v 2.7576 l 43.748,-3e-4 v -2.65902 c -3.16702,-0.18627 -5.28866,-0.99566 -6.43188,-2.2695 l -51.34797,-88.13608 c 0.0625,-3.59186 4.33789,-3.93363 5.43789,-4.62059 v -2.81258 h -42.13735 l -0.0193,2.78133 c 4.2767,0.31216 5.99816,2.84811 5.37944,6.07051 l -48.68481,85.93401 c -2.15266,1.88794 -3.71268,3.17164 -6.62681,2.93364 v 2.6201 h 39.41359 z m 11.23191,-36.87115 19.39576,-35.77344 19.4223,35.81274 z"
              id="path6225"/>
    </g>
</svg>
