<?xml version="1.0" encoding="UTF-8" standalone="no"?>
<svg xmlns:dc="http://purl.org/dc/elements/1.1/" xmlns:cc="http://creativecommons.org/ns#"
     xmlns:rdf="http://www.w3.org/1999/02/22-rdf-syntax-ns#" xmlns="http://www.w3.org/2000/svg" version="1.1"
     id="svg3105" height="113.61073" width="214.90283">
  <defs id="defs3107"/>
  <metadata id="metadata3110">
    <rdf:RDF>
      <cc:Work rdf:about="">
        <dc:format>image/svg+xml</dc:format>
        <dc:type rdf:resource="http://purl.org/dc/dcmitype/StillImage"/>
        <dc:title></dc:title>
      </cc:Work>
    </rdf:RDF>
  </metadata>
  <g transform="translate(-358.5335,-567.24281)" id="layer1">
    <g id="g3148">
      <path
          d="m 465.82223,613.95451 c 39.99426,0 83.95792,-2.54782 83.95792,-6.90765 0,-1.40656 -38.07714,-1.812 -83.95792,-1.812 -45.88077,0 -83.95791,0.40544 -83.95791,1.812 0,4.36483 43.95865,6.90765 83.95791,6.90765"
          id="path65"/>
      <path
          d="m 465.82223,627.69972 c 19.1512,0 62.54422,-2.51278 62.54422,-5.94658 0,-1.03115 -29.16227,-1.27642 -62.54422,-1.27642 -33.38695,0 -62.54922,0.24527 -62.54922,1.27642 0,3.4338 43.39803,5.94658 62.54922,5.94658"
          id="path67"/>
      <path
          d="m 465.82223,639.61791 c 21.18345,0 45.22005,-2.3476 45.22005,-5.01055 0,-1.12625 -20.5077,-0.89599 -45.22005,-0.89599 -24.71235,0 -45.22505,-0.23026 -45.22505,0.89599 0,2.66795 24.04161,5.01055 45.22505,5.01055"
          id="path69"/>
      <path
          d="m 465.84726,597.52632 c 2.49776,0 5.37595,-0.0801 8.17905,-0.60567 3.1585,-0.60066 4.50999,-1.98719 4.95048,-4.96549 0.40044,-2.74304 -1.02113,-7.09285 -1.75694,-10.95212 -1.04116,-5.44603 1.47663,-8.02889 8.41431,-8.02889 8.33923,0 10.22632,4.00944 14.00049,14.03053 2.27252,6.01666 4.65015,8.36926 13.30973,9.23022 7.77861,0.76084 17.55943,1.33147 29.60777,1.33147 9.92098,0 10.94211,-2.85816 -3.92435,-5.28585 -9.41542,-1.54171 -15.01661,-3.79921 -18.31026,-7.72855 -3.62902,-4.3348 -4.46995,-7.01777 -6.8726,-9.90597 -2.69799,-3.24859 -6.24692,-4.71521 -10.69184,-5.27583 -10.81697,-1.36151 -23.25073,-2.12736 -36.90584,-2.12736 -13.65011,0 -26.08387,0.76084 -36.90584,2.12736 -4.44492,0.55561 -7.98884,2.02223 -10.69183,5.27583 -2.39766,2.8882 -3.23859,5.57117 -6.87261,9.90597 -3.28864,3.92934 -8.88984,6.18684 -18.31026,7.72855 -14.86145,2.42268 -13.84032,5.28585 -3.91934,5.28585 12.04833,0 21.82916,-0.56563 29.60276,-1.33147 8.65958,-0.86096 11.04222,-3.21356 13.30973,-9.23022 3.77918,-10.02109 5.66627,-14.03053 14.0055,-14.03053 6.93267,0 9.45546,2.58787 8.41431,8.02889 -0.74082,3.85927 -2.15739,8.20908 -1.75694,10.95212 0.43548,2.9783 1.79198,4.36483 4.94547,4.96549 2.8031,0.53059 5.68129,0.60567 8.17905,0.60567"
          id="path71"/>
      <polyline transform="matrix(5.0055395,0,0,5.0055395,-219.54124,-1834.9056)"
                points="119.2,502.593 119.2,497.694 119.187,497.694 118.053,502.593 117.145,502.593 116.138,497.694 116.125,497.694   116.125,502.593 115.487,502.593 115.487,497.06 117.036,497.06 117.812,501.293 118.73,497.06 120.123,497.06 120.123,502.593   119.2,502.593 "
                id="polyline73"/>
      <polyline transform="matrix(5.0055395,0,0,5.0055395,-219.54124,-1834.9056)"
                points="127.539,502.593 127.539,498.833 127.528,498.833 126.641,502.593 126.018,502.593 125.152,498.833   125.142,498.833 125.142,502.593 124.594,502.593 124.594,498.202 125.815,498.202 126.438,501.392 127.204,498.202   128.331,498.202 128.331,502.593 127.539,502.593 "
                id="polyline75"/>
      <path
          d="m 438.97252,662.84861 c 0,-0.89599 -0.34038,-1.16629 -0.88598,-1.16629 h -4.9705 c -0.54561,0 -0.88598,0.27531 -0.88598,1.16629 v 14.01051 c 0,0.89099 0.34037,1.16629 0.88598,1.16629 h 4.9705 c 0.5456,0 0.88598,-0.28031 0.88598,-1.16629 v -14.01051 m 0.84594,17.99492 h -8.42933 c -2.24248,0 -3.27863,-1.64682 -3.27863,-4.32979 V 663.194 c 0,-2.67797 1.03615,-4.32479 3.27863,-4.32479 h 8.42933 c 2.23747,0 3.27862,1.64682 3.27862,4.32479 v 13.31974 c 0,2.68297 -1.04115,4.32979 -3.27862,4.32979 z"
          id="path77"/>
      <polyline transform="matrix(5.0055395,0,0,5.0055395,-219.54124,-1834.9056)"
                points="138.894,500.734 138.894,502.593 138.028,502.593 138.028,500.706 136.937,498.202 137.922,498.202   138.646,500.095 139.38,498.202 139.975,498.202 138.894,500.734 "
                id="polyline79"/>
      <path
          d="m 502.18748,680.83352 h -12.23855 v -3.13848 h 10.39651 c 0.83092,0 1.19132,-0.39043 1.19132,-1.64682 v -6.01165 c 0,-1.03615 -0.29032,-1.55672 -1.19132,-1.55672 h -5.95659 c -2.77808,0 -4.43992,-1.86206 -4.43992,-5.45104 v -4.4349 c 0,-3.11846 1.33648,-5.45604 4.43992,-5.45604 h 11.59783 v 3.14348 H 496.336 c -0.97608,0 -1.30144,0.43548 -1.30144,1.56173 v 4.46994 c 0,0.91602 0.25528,1.47163 1.19132,1.47163 h 5.85148 c 3.13847,0 4.54502,2.25249 4.54502,5.36594 v 6.322 c 0,3.19853 -1.44159,5.36093 -4.4349,5.36093"
          id="path81"/>
      <polyline transform="matrix(5.0055395,0,0,5.0055395,-219.54124,-1834.9056)"
                points="147.521,498.765 147.521,502.594 146.599,502.594 146.599,498.765 145.516,498.765 145.516,498.203   148.604,498.203 148.604,498.765 147.521,498.765 "
                id="polyline83"/>
      <rect x="528.54669" y="658.86926" width="4.6151075" height="21.979322" id="rect85"/>
      <path
          d="m 542.9626,680.84853 c -2.46272,0 -3.60899,-1.65182 -3.60899,-4.32979 V 663.199 c 0,-2.67796 1.14627,-4.32478 3.60899,-4.32478 h 9.96102 v 2.81311 h -7.67349 c -0.60066,0 -0.97608,0.28031 -0.97608,1.1713 v 14.0105 c 0,0.89099 0.37542,1.16629 0.97608,1.16629 h 7.67349 v 2.81812 h -9.96102"
          id="path87"/>
      <path
          d="m 557.84407,658.86921 h 4.61511 v 21.97932 h -4.61511 v -21.97932 z m 11.77803,0 h 3.3437 l -6.22188,9.05002 6.69241,12.9293 h -5.24581 l -5.67628,-11.76802 7.10786,-10.2113 z"
          id="path89"/>
      <path
          d="m 391.82034,661.94261 h 7.38817 v -3.06839 h -8.82977 c -2.46272,0 -3.60899,1.64682 -3.60899,4.32478 v 13.32475 c 0,2.67796 1.14627,4.32478 3.60899,4.32478 h 8.82977 v -3.06339 h -7.38817 c -0.60067,0 -0.97108,-0.28031 -0.97108,-1.16629 v -5.39597 h 7.56838 v -3.13347 h -7.56838 v -4.98051 c 0,-0.89098 0.37041,-1.16629 0.97108,-1.16629"
          id="path91"/>
      <path
          d="m 463.8951,680.84353 h -4.3348 l -5.95158,-12.50384 h 4.59008 c 0.70578,0 0.911,-0.44549 0.911,-1.47663 v -3.77418 c 0,-0.96106 -0.23526,-1.40656 -0.911,-1.40656 h -5.67128 v 19.16121 h -4.12456 v -21.97932 h 11.44766 c 2.18742,0 3.22858,1.68186 3.22858,4.07951 v 4.67517 c 0,1.86707 -1.05617,3.62902 -2.82313,3.62902 h -1.50166 l 5.14069,9.59562"
          id="path93"/>
    </g>
  </g>
</svg>
