<?xml version="1.0" encoding="UTF-8" standalone="no"?>
<svg xmlns:dc="http://purl.org/dc/elements/1.1/" xmlns:cc="http://creativecommons.org/ns#"
     xmlns:rdf="http://www.w3.org/1999/02/22-rdf-syntax-ns#" xmlns="http://www.w3.org/2000/svg" id="svg21372"
     height="235.40703" width="429.13651" version="1.0">
    <metadata id="metadata20">
        <rdf:RDF>
            <cc:Work rdf:about="">
                <dc:format>image/svg+xml</dc:format>
                <dc:type rdf:resource="http://purl.org/dc/dcmitype/StillImage"/>
                <dc:title></dc:title>
            </cc:Work>
        </rdf:RDF>
    </metadata>
    <defs id="defs21374"/>
    <g id="layer1" transform="translate(-210.40042,-587.21772)">
        <g id="g21358" transform="matrix(1.025168,0,0,1.025168,131.3587,344.3593)">
            <path id="path20983" style="fill:#2056ad;fill-rule:nonzero;stroke:none"
                  d="m 477.31931,459.34485 h -2.21826 l -1.00454,6.98015 h -1.08823 l 0.96264,-6.98015 h -2.21837 l 0.1256,-1.01028 h 5.60855 l -0.16739,1.01028"/>
            <path id="path20985" style="fill:#2056ad;fill-rule:nonzero;stroke:none"
                  d="m 485.77409,466.325 h -1.08834 v -6.03882 h -0.0418 l -3.22279,6.03882 -1.33942,-6.13056 h -0.0419 l -2.00897,6.13056 h -1.13014 l 2.72053,-7.99043 h 0.92085 l 1.29752,5.4188 2.84612,-5.4188 h 1.08834 v 7.99043"/>
            <path id="path20987" style="fill:#2056ad;fill-rule:nonzero;stroke:none"
                  d="m 319.81868,439.18481 c 0,-4.33956 -13.81215,-6.7506 -22.43431,-10.10296 -9.16623,-3.42111 -24.2341,-11.20508 -23.02038,-22.38718 1.04644,-8.58758 8.58037,-17.54233 49.05427,-19.56301 28.16834,-1.42363 56.46249,-0.68878 56.46249,-0.68878 l -4.93899,14.23595 c 0,0 -39.42746,0 -49.59823,0.3214 -9.29172,0.25265 -22.76908,0.13782 -22.76908,5.12039 0,3.92631 20.00665,8.44976 31.01457,11.68729 16.28159,4.86774 29.88455,12.23836 26.36867,27.82897 -5.06449,22.2036 -32.81437,20.87181 -66.38208,20.87181 -23.52265,0 -45.53838,-1.49249 -45.53838,-1.49249 l 9.12443,-25.05066 c 0,0 19.4208,2.31909 42.56667,2.73244 14.94217,0.25254 20.09035,0 20.09035,-3.51317"/>
            <path id="path20989" style="fill:#2056ad;fill-rule:nonzero;stroke:none"
                  d="m 427.97217,412.61866 c -0.16749,-0.36737 -0.37668,-0.75763 -0.62786,-1.10212 l 48.71938,-12.33021 c 7.86871,3.85756 14.31441,8.70231 17.6628,14.92483 3.09721,5.46477 2.42755,11.11334 -1.13013,16.66986 -27.83368,34.67152 -100.53587,34.46484 -126.86263,35.58996 l 11.42639,-32.03092 c 6.94797,-0.22966 16.99315,-1.21707 22.93658,-2.41094 6.11082,-1.17098 11.38459,-2.80129 15.73752,-4.61529 4.26913,-1.83689 7.74322,-3.90343 9.96148,-6.10769 2.13467,-2.25013 3.09731,-4.52335 2.72053,-6.84244 -0.0837,-0.59704 -0.25108,-1.17098 -0.54406,-1.74504"/>
            <path id="path20991" style="fill:#2056ad;fill-rule:nonzero;stroke:none"
                  d="m 465.80912,394.9615 -41.31094,13.662 c -0.20918,-0.11483 -0.37667,-0.27564 -0.62775,-0.41346 -0.83726,-0.59693 -2.46956,-1.76792 -3.47409,-2.25013 l 35.74428,-14.41963 c 2.88802,0.78063 6.86428,2.29611 9.6685,3.42122"/>
            <path id="path20993" style="fill:#2056ad;fill-rule:nonzero;stroke:none"
                  d="m 436.46874,388.21091 -24.31779,15.20036 c -3.89246,-1.03328 -8.41288,-1.814 -13.18438,-2.25024 -5.27378,-0.4822 -6.65499,-0.36737 -9.7522,-0.4822 l 5.02269,-14.23595 c 12.68201,-0.046 17.16043,0.16071 28.58693,0.45923 2.84622,0.0688 7.74322,0.45922 13.64475,1.3088"/>
            <path id="path20995" style="fill:#2056ad;fill-rule:nonzero;stroke:none"
                  d="m 233.42984,251.91279 c 9.79409,9.73558 15.15156,22.59386 15.15156,36.32481 V 433.6052 H 213.38128 V 288.2376 c 0,-4.36264 -1.7161,-8.47275 -4.8134,-11.59545 -3.13911,-3.03096 -7.24085,-4.77599 -11.63568,-4.77599 -4.43652,0 -8.53837,1.74503 -11.67758,4.77599 -3.09731,3.1227 -4.7714,7.23281 -4.7714,11.59545 V 433.6052 H 145.2412 V 288.2376 c 0,-4.36264 -1.71609,-8.47275 -4.8134,-11.59545 -3.0971,-3.03096 -7.24085,-4.77599 -11.63568,-4.77599 -4.39472,0 -8.53836,1.74503 -11.67747,4.77599 -3.05551,3.1227 -4.7715,7.23281 -4.7715,11.59545 V 433.6052 H 77.101234 V 288.2376 c 0,-28.31128 23.187656,-51.34138 51.690886,-51.34138 12.68212,0 24.65268,4.54634 34.07009,12.85828 9.12444,-7.99054 21.0112,-12.85828 34.06999,-12.85828 13.77035,0 26.78724,5.32696 36.49764,15.01657"/>
            <path id="path20997" style="fill:#2056ad;fill-rule:nonzero;stroke:none"
                  d="m 419.68478,252.02762 c 9.7523,9.78155 15.15156,22.73168 15.15156,36.57736 v 78.66516 h -35.24191 v -78.66516 c 0,-4.38563 -1.6742,-8.54161 -4.8133,-11.66441 -3.09731,-3.07673 -7.24095,-4.82176 -11.59388,-4.82176 -4.43663,0 -8.58038,1.74503 -11.67758,4.82176 -3.09721,3.1228 -4.8133,7.27878 -4.8133,11.66441 v 78.66516 h -35.24191 v -78.66516 c 0,-28.54084 23.18766,-51.70876 51.73279,-51.70876 13.77024,0 26.74544,5.37294 36.49753,15.1314"/>
            <path id="path20999" style="fill:#2056ad;fill-rule:nonzero;stroke:none"
                  d="m 494.22866,304.8616 v 62.40854 H 459.02864 V 304.8616 c 0,-9.73558 7.86871,-17.61129 17.57911,-17.61129 9.7522,0 17.62091,7.87571 17.62091,17.61129"/>
            <path id="path21001" style="fill:#2056ad;fill-rule:nonzero;stroke:none"
                  d="m 495.65177,255.93115 c 0,10.5162 -8.53837,19.05771 -19.04402,19.05771 -10.50565,0 -19.00222,-8.54151 -19.00222,-19.05771 0,-10.47044 8.49657,-19.03493 19.00222,-19.03493 10.50565,0 19.04402,8.56449 19.04402,19.03493"/>
            <path id="path21003" style="fill:#2056ad;fill-rule:nonzero;stroke:none"
                  d="m 308.01561,304.8616 v 62.40854 H 272.77359 V 304.8616 c 0,-9.73558 7.86882,-17.61129 17.62091,-17.61129 9.7104,0 17.62111,7.87571 17.62111,17.61129"/>
            <path id="path21005" style="fill:#2056ad;fill-rule:nonzero;stroke:none"
                  d="m 309.43862,255.93115 c 0,10.5162 -8.53847,19.05771 -19.04412,19.05771 -10.50555,0 -19.04402,-8.54151 -19.04402,-19.05771 0,-10.47044 8.53847,-19.03493 19.04402,-19.03493 10.50565,0 19.04412,8.56449 19.04412,19.03493"/>
        </g>
    </g>
</svg>
