<svg xmlns="http://www.w3.org/2000/svg" version="1.1" width="328.526741246" height="304.389224514" viewBox="0 0 500.0 463.264"><g transform="matrix(2.4919039,0,0,2.4919039,0,0)"><path style="fill:#0222a9" d="m111.6,82.6 4.4,-5 0,-33.8-21,8.1 0,0-17.4,31 17.4,-6.7z"/><path style="fill:#011da9" d="m148.9,129.7 0,-57 21.3,-8.2 0,89.7-21.3,9 0,0-31.3,-40.9 0,54.1-22.6,9.5 0,-92.4 22.6,-8.6z"/><path style="fill:#0222a9" d="m61.1,154.3-20,-38.8 0,47.7 0,0z"/><path style="fill:#069330" d="m62.4,64.5 0,0 10,20.4 5.2,-2 17.4,-31-21,-8.2z"/><path style="fill:#069330" d="m111.6,82.6 0,0 16,-18.1 21.3,8.2 0,57-31.3,-44.8z"/><path style="fill:#069330" d="m95,185.9 0,-92.4-22.6,-8.6 0,46.9-31.4,-59.1 0,0-21.3,-8.2 0,89.7 21.3,9 0,-47.7 31.4,60.9z"/><path style="fill:#fe2015" d="m41.1,72.7 21.3,-8.2 10,20.4 0,0 0,46.9z"/><path style="fill:#fe2015" d="m117.6,144.6 6.4,9 24.9,9.6 0,0-31.3,-40.9z"/><path style="fill:#ffc001" d="m72.5,84.9 22.6,-8.6 22.6,8.6 0,0-22.6,8.6z"/><path style="fill:#ffc001" d="m148.9,56.3 21.3,8.2-21.3,8.2-21.3,-8.2 0,0z"/><path style="fill:#ffc001" d="m41.1,56.3 21.3,8.2-21.3,8.2-21.3,-8.2 0,0z"/><path style="fill:#ffc001" d="m95,35.6-21,8.1 21,8.2 21,-8.1 0,0z"/><path style="fill:#0124a6" d="m125.2,6.6 9.7,0c8.3,0 10.9,4.7 10.9,11.1 0,6.6-4.1,10.7-10.4,10.7l -10.2,0 0,-21.8 0,0zm8,16.9 0.8,0c1.3,0 2.2,-0.4 2.7,-1.3 0.5,-0.9 0.6,-2.6 0.6,-4.7 0,-2.1-0.1,-3.8-0.6,-4.7-0.5,-0.9-1.4,-1.3-2.7,-1.3l -0.8,0 0,11.9 0,0z"/><path style="fill:#0124a6" d="m158.6,6c7.1,0 10.7,4.7 10.7,11.5 0,6.8-3.5,11.5-10.7,11.5-7.1,0-10.7,-4.7-10.7,-11.5 0,-6.8 3.5,-11.5 10.7,-11.5l0,0zm0,17.4c1.3,0 2.2,-0.6 2.2,-6 0,-5.2-0.9,-6-2.2,-6-1.3,0-2.2,0.7-2.2,6 2.7e-4,5.3 0.9,6 2.2,6l0,0z"/><path style="fill:#0124a6" d="m173.1,23.8c -1.4,0-2.6,1.2-2.6,2.6 0,1.4 1.2,2.6 2.6,2.6 1.4,0 2.6,-1.2 2.6,-2.6 0,-1.4-1.2,-2.6-2.6,-2.6l0,0zm0,4.7c -1.2,0-2.1,-1-2.1,-2.1 0,-1.2 1,-2.1 2.1,-2.1 1.2,0 2.1,1 2.1,2.1 0,1.2-1,2.1-2.1,2.1l0,0z"/><path style="fill:#0124a6" d="m172.7,27.8-0.6,0 0,-2.8 1.2,0c0.5,0 1,0.2 1,0.7 0,0.4-0.2,0.6-0.6,0.7l0,0c0.5,0.1 0.5,0.3 0.5,0.7 0,0.2 0.1,0.5 0.2,0.7l -0.7,0c -0.1,-0.3-0.1,-0.5-0.1,-0.8-0,-0.2-0.1,-0.4-0.3,-0.4l -0.6,0 0,1.1 0,0zm0,-1.6 0.5,0c0.3,-0 0.4,-0.1 0.4,-0.4 0,-0.3-0.2,-0.4-0.4,-0.4l -0.5,0 0,0.8 0,0z"/><path style="fill:#0124a6" d="m14.3,6.6 0,12.5-0.1,0L9.8,6.6 0,6.6 0,28.4l6.6,0 0,-12.6 0.1,0 4.4,12.6 0,0 9.8,0 0,-21.8z"/><path style="fill:#0124a6" d="m51.3,6.6 0,12.5-0.1,0-4.4,-12.5-9.8,0 0,21.8 6.6,0 0,-12.6 0.1,0 4.4,12.6 0,0 9.8,0 0,-21.8z"/><path style="fill:#0124a6" d="m115,6.6 0,12.5-0.1,0-4.4,-12.5-9.8,0 0,21.8 6.6,0 0,-12.6 0.1,0 4.4,12.6 0,0 9.8,0 0,-21.8z"/><path style="fill:#0124a6" d="m33.1,6.6 0,21.8-8.2,0 0,-21.8 0,0z"/><path style="fill:#0124a6" d="m65.5,28.4 0,-15.9 0,0-5.2,0 0,-5.9 18.6,0 0,5.9-5.2,0 0,15.9z"/><path style="fill:#0124a6" d="m89.4,12.4 0,2.3 7.5,0 0,5.6-7.5,0 0,2.4 8.4,0 0,5.7-16.4,0 0,-21.8 0,0 16.2,0 0,5.8z"/><path style="fill:#ff2d1e" d="m184,3.7c -0.4,-0-0.9,-0-1.5,0-3.5,0.2-4.8,1.6-5.3,3.3l0.1,0c0.9,-0.8 1.9,-1.1 3.3,-1.1 2.7,0 5.2,2 5.2,5.7 0,3.6-2.7,6.4-6.4,6.4-4.9,0-7,-3.7-7,-7.7 0,-3.2 1.1,-6 3,-7.7 1.8,-1.7 4.1,-2.5 6.9,-2.6 0.7,-0 1.2,0 1.6,0l0,3.7-2.7e-4,0zm -4.6,10.8c1.1,0 1.8,-1.1 1.8,-2.6-0,-1.2-0.6,-2.6-2.1,-2.6-0.9,0-1.6,0.6-1.9,1.3-0.1,0.2-0.1,0.5-0.1,1 0.1,1.4 0.8,2.9 2.3,2.9l0,0 0,0z"/><path style="fill:#ff2d1e" d="m194.4,17.7 0,-3.9-7.3,0 0,-3.1 5.8,-10.4 5.8,0 0,10 1.8,0 0,3.6-1.8,0 0,3.9-4.4,0 0,0zm0,-7.5 0,-3c0,-1.1 0.1,-2.3 0.1,-3.5l -0.1,0c -0.5,1.2-1,2.3-1.6,3.5l -1.4,2.9-0,0.1 3,0 0,-2.7e-4z"/></g></svg>