<?xml version="1.0" encoding="UTF-8" standalone="no"?>
<svg xmlns:ns="&amp;ns_sfw;" xmlns:dc="http://purl.org/dc/elements/1.1/" xmlns:cc="http://creativecommons.org/ns#"
     xmlns:rdf="http://www.w3.org/1999/02/22-rdf-syntax-ns#" xmlns="http://www.w3.org/2000/svg" xml:space="preserve"
     enable-background="new -5.333 -6.333 260.333 41.333" viewBox="-5.333 -6.333 249.89999 29.6" height="29.6"
     width="249.89999" y="0px" x="0px" id="Layer_1" version="1.1"><defs
   id="defs35" />
    <metadata id="metadata2">
	<ns:sfw>
		<ns:slices/>
        <ns:sliceSourceBounds bottomLeftOrigin="true" y="405.4" x="172.2" height="29.6" width="249.9"/>
	</ns:sfw>
        <rdf:RDF><cc:Work
     rdf:about=""><dc:format>image/svg+xml</dc:format><dc:type rdf:resource="http://purl.org/dc/dcmitype/StillImage"/><dc:title></dc:title></cc:Work></rdf:RDF></metadata>
    <path style="fill:#a09d9e" id="path4"
          d="m 125.567,20.167 c 0,0.3 -0.3,0.6 -0.6,0.6 h -10.9 c -0.3,0 -0.6,-0.3 -0.6,-0.6 v -7.9 c 0,-0.3 0.3,-0.6 0.6,-0.6 h 10.9 c 0.3,0 0.6,0.3 0.6,0.6 z m -0.5,-10.9 -11.1,0.001 c -1.6,0 -2.9,1.3 -2.9,2.9 v 7.9 c 0,1.6 1.3,2.9 2.9,2.9 h 11.1 c 1.6,0 2.9,-1.3 2.9,-2.9 v -7.9 c 0,-1.6 -1.3,-2.9 -2.9,-2.901"/>
    <path style="fill:#000000" id="path6"
          d="m -2.733,-2.533 v 10.2 h -2.6 v -13.8 h 2.2 l 10.4,10.1 v -10.1 h 2 0.5 v 13.8 h -2 c 0,0 -10.5,-10.2 -10.5,-10.2 z"/>
    <path style="fill:#000000" id="path8"
          d="m 22.967,-2.533 v 10.2 h -2.6 v -13.8 h 2.2 l 10.4,10.1 v -10.1 h 2 0.5 v 13.8 h -2 z"/>
    <path style="fill:#000000" id="path10"
          d="m 76.067,-2.533 v 10.2 h -2.6 v -13.8 h 2.2 l 10.4,10.1 v -10.1 h 2 0.5 v 13.8 h -2 z"/>
    <path style="fill:#000000" id="path12" d="m 15.867,-6.133 h 0.5 v 13.8 h -2.6 v -13.8 c 0,0 2.1,0 2.1,0 z"/>
    <path style="fill:#000000" id="path14"
          d="m 52.867,-6.133 h 0.5 v 2.4 h -6.2 v 11.4 h -2.7 v -11.4 h -6.2 v -2.4 h 14.5 z"/>
    <path style="fill:#000000" id="path16"
          d="m 69.167,-6.133 h 0.5 v 2.4 h -10.9 v 3.1 h 8.5 v 2.4 h -8.5 v 3.6 h 10.9 v 2.4 h -13.5 v -13.8 h 13 z"/>
    <path style="fill:#000000" id="path18"
          d="m 102.767,5.267 h -7.8 v -9 h 0.1 7.8 c 2.5,0 3.3,2.4 3.3,4.5 0,2.1 -0.9,4.5 -3.3,4.5 m 4.2,-9.4 c -1,-1.3 -2.5,-2 -4.3,-2 h -10.2 v 13.8 h 10.2 c 1.8,0 3.3,-0.7 4.3,-2 0.9,-1.2 1.4,-2.9 1.4,-4.9 0,-2 -0.5,-3.7 -1.4,-4.9"/>
    <path style="fill:#000000" id="path20"
          d="m 125.567,4.767 c 0,0.3 -0.3,0.6 -0.6,0.6 h -10.9 c -0.3,0 -0.6,-0.3 -0.6,-0.6 v -7.9 c 0,-0.3 0.3,-0.6 0.6,-0.6 h 10.9 c 0.3,0 0.6,0.3 0.6,0.6 z m -0.5,-10.9 h -11.1 c -1.6,0 -2.9,1.3 -2.9,2.9 v 8 c 0,1.6 1.3,2.9 2.9,2.9 h 11.1 c 1.6,0 2.9,-1.3 2.9,-2.9 v -8 c 0,-1.6 -1.3,-2.9 -2.9,-2.9"/>
    <path style="fill:#000000" id="path22"
          d="m 208.067,17.367 c 2.6,1 8.2,1.9 12.6,1.9 4.8,0 6.8,-1.6 6.8,-3.7 0,-1.8 -1.8,-2.9 -7.1,-4.9 -7.1,-2.6 -12.2,-4.7 -12.2,-9.3 0,-4.8 6.2,-7.6 15.7,-7.6 5.1,0 6.8,0.3 10.1,0.9 v 4.6 c -3.2,-0.6 -6,-1.6 -10.4,-1.6 -4.7,0 -6.7,1.5 -6.7,3 0,2.2 3.1,3.3 8.5,5.2 7.5,2.7 11.7,4.8 11.7,9.3 0,4.7 -5.2,8 -17.1,8 -4.8,0 -8.2,-0.3 -11.9,-0.9 z"/>
    <path style="fill:#000000" id="path24"
          d="m 182.967,-2.233 h -5.6 v 21.3 h 5.6 c 8.6,0 14.1,-3.7 14.1,-10.6 0,-6.9 -5.4,-10.7 -14.1,-10.7 m 15.1,23.3 c -2.8,1.3 -8,2.1 -12.6,2.1 h -17.6 v -29.3 h 17.6 c 4.6,0 9.9,0.8 12.7,2.1 6.8,3.1 9,7.9 9,12.6 0,4.6 -2.2,9.5 -9,12.6"/>
    <path style="fill:#cf181f" id="path26"
          d="m 155.467,7.067 c 0,0 8.2,-1.3 8.2,-6.4 0,-5 -8.7,-7 -18,-7 -8.4,0 -13.9,1 -13.9,1 v 4.5 c 3.8,-0.9 7.4,-1.7 12.4,-1.7 5.3,0 9.4,1.6 9.4,3.8 0,2.7 -4,4.3 -12.7,4.3 h -4 v 4.1 h 3.7 c 9.1,0 14.3,1.4 14.3,4.7 0,3 -4.6,4.8 -10.4,4.8 -5,0 -9.6,-1.1 -13.4,-2.1 v 4.9 c 1.8,0.3 6.6,1.3 15.4,1.3 9.8,0 18.4,-3.2 18.4,-8.7 0,-4.7 -5.9,-7.4 -9.4,-7.4"/>
    <path style="fill:#000000" id="path28" d="m 239.467,19.067 h -0.9 v -0.5 h 2.4 v 0.5 h -0.9 v 2.8 h -0.6 z"/>
    <path style="fill:#000000" id="path30"
          d="m 244.067,20.567 c 0,-0.4 0,-0.9 0,-1.4 v 0 c -0.1,0.4 -0.2,0.8 -0.4,1.2 l -0.5,1.4 h -0.5 l -0.4,-1.4 c -0.1,-0.4 -0.2,-0.9 -0.3,-1.3 v 0 c 0,0.4 0,0.9 -0.1,1.4 l -0.1,1.3 h -0.6 l 0.2,-3.2 h 0.8 l 0.4,1.3 c 0.1,0.4 0.2,0.8 0.3,1.1 v 0 c 0.1,-0.4 0.2,-0.8 0.3,-1.1 l 0.4,-1.3 h 0.8 l 0.2,3.2 h -0.6 l -0.1,-1.3 z"/>
</svg>