<?xml version="1.0" encoding="UTF-8" standalone="no"?>
<svg xmlns:dc="http://purl.org/dc/elements/1.1/" xmlns:cc="http://creativecommons.org/ns#"
     xmlns:rdf="http://www.w3.org/1999/02/22-rdf-syntax-ns#" xmlns="http://www.w3.org/2000/svg" style="display:inline"
     id="svg3442" viewBox="0 0 498.09653 357.99966" height="266.83734" width="371.25943" version="1.1">
    <defs id="defs3444"/>
    <metadata id="metadata3447">
        <rdf:RDF>
            <cc:Work rdf:about="">
                <dc:format>image/svg+xml</dc:format>
                <dc:type rdf:resource="http://purl.org/dc/dcmitype/StillImage"/>
                <dc:title></dc:title>
            </cc:Work>
        </rdf:RDF>
    </metadata>
    <g style="display:inline" id="layer2" transform="translate(-114.94783,-143.44408)">
        <path style="fill:#000000;fill-opacity:1;fill-rule:nonzero;stroke:none" id="rect3505"
              d="M 131.82766,143.44408 V 423.55859 H 451.8348 v -0.10054 c 1.16019,0.0278 2.32046,0.0464 3.4874,0.0464 78.16212,0 141.53033,-62.67846 141.53033,-139.99152 0,-77.31307 -63.36839,-139.98379 -141.53033,-139.98379 -1.16677,0 -2.32718,0.0186 -3.4874,0.0464 v -0.13145 z m 318.79867,4.13622 c -0.01,28.34695 -0.006,57.15294 -0.006,81.41759 -31.05491,0.62654 -56.02289,24.74294 -56.02289,54.41451 0,29.67159 24.96798,53.79572 56.02289,54.42225 v 81.8267 c -77.97957,0 -142.47941,-62.44341 -142.47941,-137.69477 0,-75.25135 64.50528,-134.38628 142.48498,-134.38628 z M 153.046,161.79361 h 11.52935 c 0.76115,7e-5 1.51866,0.31237 2.05688,0.85059 0.53821,0.53821 0.85051,1.29572 0.85059,2.05687 v 17.04272 c -8e-5,0.76115 -0.31238,1.51093 -0.85059,2.04915 -0.53822,0.53821 -1.29573,0.85824 -2.05688,0.85832 H 153.046 c -0.76116,-8e-5 -1.51867,-0.32011 -2.05688,-0.85832 -0.53822,-0.53822 -0.85051,-1.288 -0.85059,-2.04915 v -17.04272 c 8e-5,-0.76115 0.31237,-1.51866 0.85059,-2.05687 0.53821,-0.53822 1.29572,-0.85052 2.05688,-0.85059 z m 65.54176,0 h 11.52936 c 0.76115,7e-5 1.51866,0.31237 2.05687,0.85059 0.53822,0.53821 0.85052,1.29572 0.85059,2.05687 v 17.04272 c -7e-5,0.76115 -0.31237,1.51093 -0.85059,2.04915 -0.53821,0.53821 -1.29572,0.85824 -2.05687,0.85832 h -11.52936 c -0.76115,-8e-5 -1.51866,-0.32011 -2.05687,-0.85832 -0.53822,-0.53822 -0.85052,-1.288 -0.85059,-2.04915 v -17.04272 c 7e-5,-0.76115 0.31237,-1.51866 0.85059,-2.05687 0.53821,-0.53822 1.29572,-0.85052 2.05687,-0.85059 z m 66.09079,0 h 11.52935 c 0.76115,7e-5 1.51866,0.31237 2.05688,0.85059 0.53821,0.53821 0.85051,1.29572 0.85059,2.05687 v 17.04272 c -8e-5,0.76115 -0.31238,1.51093 -0.85059,2.04915 -0.53822,0.53821 -1.29573,0.85824 -2.05688,0.85832 h -11.52935 c -0.76115,-8e-5 -1.51866,-0.32011 -2.05688,-0.85832 -0.53822,-0.53822 -0.85051,-1.288 -0.85059,-2.04915 v -17.04272 c 8e-5,-0.76115 0.31237,-1.51866 0.85059,-2.05687 0.53822,-0.53822 1.29573,-0.85052 2.05688,-0.85059 z M 153.0228,381.36162 h 11.52935 c 0.76115,8e-5 1.51866,0.31237 2.05688,0.85059 0.53822,0.53821 0.85051,1.29573 0.85059,2.05688 v 17.04271 c -8e-5,0.76117 -0.31237,1.51087 -0.85059,2.04916 -0.53822,0.53814 -1.29573,0.85824 -2.05688,0.85831 H 153.0228 c -0.76115,-7e-5 -1.51866,-0.32017 -2.05688,-0.85831 -0.53822,-0.53829 -0.85051,-1.28799 -0.85059,-2.04916 v -17.04271 c 8e-5,-0.76115 0.31237,-1.51867 0.85059,-2.05688 0.53822,-0.53822 1.29573,-0.85051 2.05688,-0.85059 z m 65.56496,0 h 11.52936 c 0.76115,8e-5 1.51866,0.31237 2.05687,0.85059 0.53822,0.53821 0.85052,1.29573 0.85059,2.05688 v 17.03497 c -7e-5,0.76116 -0.31237,1.51094 -0.85059,2.04916 -0.53821,0.53821 -1.29572,0.85823 -2.05687,0.85831 h -11.52936 c -0.76115,-5e-5 -1.51866,-0.3201 -2.05687,-0.85831 -0.53822,-0.53822 -0.85052,-1.288 -0.85059,-2.04916 v -17.03497 c 7e-5,-0.76115 0.31237,-1.51867 0.85059,-2.05688 0.53821,-0.53822 1.29572,-0.85051 2.05687,-0.85059 z m 66.05986,0 h 11.52935 c 0.76115,8e-5 1.51866,0.31237 2.05688,0.85059 0.53821,0.53821 0.85051,1.29573 0.85059,2.05688 v 17.03497 c -8e-5,0.76116 -0.31238,1.51094 -0.85059,2.04916 -0.53822,0.53821 -1.29573,0.85823 -2.05688,0.85831 h -11.52935 c -0.76115,-8e-5 -1.51867,-0.3201 -2.05688,-0.85831 -0.53822,-0.53822 -0.85051,-1.288 -0.85059,-2.04916 v -17.03497 c 8e-5,-0.76115 0.31237,-1.51867 0.85059,-2.05688 0.53821,-0.53822 1.29573,-0.85051 2.05688,-0.85059 z"/>
    </g>
    <g style="display:inline" id="layer4" transform="translate(-114.94783,-143.44408)">
        <path
            style="fill:#000000;stroke:#000000;stroke-width:0.24744414px;stroke-linecap:butt;stroke-linejoin:miter;stroke-opacity:1"
            id="path4956" d="m 143.57842,488.21095 h 314.90325 l -4.12737,8.10043 H 139.45104 Z"/>
        <path
            style="fill:#000000;stroke:#000000;stroke-width:0.24744414px;stroke-linecap:butt;stroke-linejoin:miter;stroke-opacity:1"
            id="path4982"
            d="m 115.14973,496.31138 29.35662,-57.61559 h 48.36154 c 10.9929,-0.15188 10.97121,8.95199 9.98852,10.88062 l -9.98852,19.60356 c -2.05389,3.50473 -4.079,7.52861 -12.02853,7.47799 l -38.98534,0.1282 4.2959,-8.59181 h 33.48306 c 1.06318,0 2.36618,-0.0168 3.96,-3.10913 l 6.80376,-13.20031 c 1.44295,-2.79953 1.20207,-4.31092 -1.80167,-4.31092 h -37.37304 l -24.83294,48.73739 z"/>
        <path
            style="fill:#000000;stroke:#000000;stroke-width:0.24744414px;stroke-linecap:butt;stroke-linejoin:miter;stroke-opacity:1"
            id="path5018"
            d="m 191.42041,482.35964 22.24793,-43.66385 h 12.32776 l -5.29979,10.40142 h 26.5918 c 9.11299,0 10.98769,7.72362 8.78357,12.04941 l -10.80857,21.21302 h -12.04954 l 10.80857,-21.21302 c 0.72964,-1.432 1.67675,-3.29081 0.12705,-3.29081 h -27.91561 l -12.62592,24.50383 z"/>
        <g style="font-style:normal;font-variant:normal;font-weight:normal;font-stretch:normal;font-size:13.25075054px;line-height:120.00000477%;font-family:'Arial Unicode MS';-inkscape-font-specification:'Arial Unicode MS';text-align:center;letter-spacing:0px;word-spacing:0px;writing-mode:lr-tb;text-anchor:middle;fill:#000000;fill-opacity:1;stroke:none"
           id="text5020" transform="scale(1.0293189,0.97151621)">
            <path style="font-size:29.81418991px;font-family:Arial;-inkscape-font-specification:Arial" id="path4059"
                  d="m 565.44798,497.9047 v 18.24081 h -2.76596 V 497.9047 h -7.04594 v -2.27101 h 16.85783 v 2.27101 h -7.04593"/>
            <path style="font-size:29.81418991px;font-family:Arial;-inkscape-font-specification:Arial" id="path4061"
                  d="m 593.07852,516.14551 v -13.68425 c -2e-5,-0.49495 0.005,-0.99961 0.0145,-1.514 0.01,-0.51436 0.0242,-0.98506 0.0437,-1.4121 0.0194,-0.49494 0.0436,-0.97535 0.0728,-1.44121 -0.13589,0.49498 -0.27661,0.98509 -0.42217,1.47033 -0.12619,0.41733 -0.26691,0.86377 -0.42217,1.33931 -0.1456,0.46586 -0.29118,0.88803 -0.43673,1.26652 l -5.29901,13.9754 h -1.95073 l -5.3718,-13.9754 c -0.0582,-0.14557 -0.12132,-0.31541 -0.18925,-0.50952 -0.0582,-0.19409 -0.12617,-0.3979 -0.20381,-0.61143 -0.0679,-0.2232 -0.14073,-0.44642 -0.21836,-0.66965 -0.0679,-0.23291 -0.13588,-0.46098 -0.20381,-0.68421 -0.16499,-0.51436 -0.32513,-1.04814 -0.4804,-1.60135 0.01,0.5435 0.0242,1.08214 0.0437,1.6159 0.0194,0.45616 0.034,0.93656 0.0437,1.44122 0.01,0.49497 0.0146,0.9317 0.0146,1.31019 v 13.68425 h -2.47481 v -20.51182 h 3.65398 l 5.45915,14.22289 c 0.0679,0.19411 0.15041,0.44644 0.24748,0.757 0.097,0.30086 0.18923,0.61143 0.27659,0.93169 0.0873,0.32028 0.16498,0.62599 0.23293,0.91714 0.0776,0.28145 0.131,0.49982 0.16013,0.65509 0.0291,-0.15527 0.0825,-0.37849 0.16014,-0.66965 0.0776,-0.29115 0.16497,-0.59686 0.26203,-0.91714 0.10675,-0.32026 0.20865,-0.63083 0.30572,-0.93169 0.097,-0.30085 0.18438,-0.54833 0.26204,-0.74244 l 5.35723,-14.22289 h 3.56664 v 20.51182 h -2.50392"/>
        </g>
        <path
            style="fill:#000000;stroke:#000000;stroke-width:0.24744414px;stroke-linecap:butt;stroke-linejoin:miter;stroke-opacity:1"
            id="path5067"
            d="m 279.21931,449.096 c -8.01902,0 -15.01788,3.25963 -17.32882,7.92595 l -7.44652,15.03995 c -1.72313,3.47939 0.14205,10.29987 8.87706,10.29987 h 28.92776 c 8.10316,0 12.9928,-2.61393 15.89056,-8.2971 l 6.5882,-12.92124 c 2.07927,-4.07795 3.00458,-12.04743 -10.02149,-12.04743 z m -2.08007,7.92595 h 23.94795 c 1.66721,0 4.22312,0.50766 2.43578,4.12148 l -4.68598,9.48795 c -0.45586,0.92168 -1.53278,3.43329 -5.87679,3.43329 h -25.44809 c -3.22386,0 -1.91127,-2.63427 -1.33001,-3.86632 l 4.26841,-9.03171 c 0.91247,-1.93414 3.11818,-4.14469 6.68873,-4.14469 z"/>
        <path
            style="display:inline;fill:#000000;stroke:#000000;stroke-width:0.24744414px;stroke-linecap:butt;stroke-linejoin:miter;stroke-opacity:1"
            id="path5067-1"
            d="m 375.19838,449.09674 c -8.01902,0 -15.01788,3.25963 -17.32883,7.92596 l -7.44651,15.03995 c -1.72313,3.47939 0.14206,10.29986 8.87706,10.29986 h 28.92775 c 8.10315,0 12.9928,-2.61392 15.89057,-8.29709 l 6.5882,-12.92124 c 2.07927,-4.07795 3.00456,-12.04744 -10.02149,-12.04744 z m -2.08009,7.92596 h 23.94797 c 1.6672,0 4.22313,0.50766 2.43576,4.12148 l -4.68597,9.48795 c -0.45584,0.92168 -1.53277,3.43329 -5.8768,3.43329 h -25.44807 c -3.22387,0 -1.91128,-2.63427 -1.33001,-3.86632 l 4.26841,-9.03171 c 0.91248,-1.93415 3.11817,-4.14469 6.68871,-4.14469 z"/>
        <path
            style="display:inline;fill:#000000;stroke:#000000;stroke-width:0.24744414px;stroke-linecap:butt;stroke-linejoin:miter;stroke-opacity:1"
            id="path5102"
            d="m 341.68826,482.35963 h -22.32297 c -5.0048,0 -9.40145,-4.92948 -4.63688,-14.28047 L 327.8212,442.3831 h 11.91314 l -3.42101,6.7141 h 22.323 l -4.46273,8.75861 h -22.32299 l -6.19101,12.15052 c -1.04673,2.05433 -1.7284,3.39219 0.50651,3.39219 h 20.08806 z"/>
        <path
            style="display:inline;fill:#000000;stroke:#000000;stroke-width:0.24744414px;stroke-linecap:butt;stroke-linejoin:miter;stroke-opacity:1"
            id="path5158"
            d="m 521.34018,434.94678 h -66.97499 c -5.9344,0 -13.14648,2.83816 -15.84066,8.12574 l -12.80021,25.12184 c -4.37773,8.59181 1.35741,14.16529 12.79777,14.16529 h 58.66002 l 4.56591,-8.96112 h -61.50758 c -5.46741,0 -4.1194,-2.64557 -2.81574,-5.20417 L 447.9313,447.574 c 1.26689,-2.48639 4.33947,-4.50148 9.06318,-4.50148 h 60.20541 z"/>
        <path
            style="fill:#000000;stroke:#000000;stroke-width:0.24744414px;stroke-linecap:butt;stroke-linejoin:miter;stroke-opacity:1"
            id="path5184"
            d="m 467.77656,496.31138 h 75.30285 c 7.83579,0 11.9979,-1.9335 15.14011,-8.10043 l 12.02312,-23.59669 c 4.83162,-9.48261 -3.10642,-15.51705 -8.55632,-15.51705 h -69.85294 l -9.73047,19.09714 h 11.61045 l 5.59021,-10.97137 h 55.39611 c 4.55139,0 7.22883,2.09496 5.24319,5.99198 l -9.75469,19.14468 c -1.91702,3.76239 -2.9814,5.85131 -7.74042,5.85131 h -70.54383 z"/>
    </g>
</svg>
