<?xml version="1.0" encoding="UTF-8" standalone="no"?>
<svg xmlns:dc="http://purl.org/dc/elements/1.1/" xmlns:cc="http://creativecommons.org/ns#"
     xmlns:rdf="http://www.w3.org/1999/02/22-rdf-syntax-ns#" xmlns="http://www.w3.org/2000/svg" xml:space="preserve"
     enable-background="new 0 0 407 136" viewBox="0 0 393.58401 128.92101" height="128.92101" width="393.58401" y="0px"
     x="0px" id="Layer_1" version="1.1"><metadata
   id="metadata127"><rdf:RDF><cc:Work
       rdf:about=""><dc:format>image/svg+xml</dc:format><dc:type rdf:resource="http://purl.org/dc/dcmitype/StillImage"/><dc:title></dc:title></cc:Work></rdf:RDF></metadata>
    <defs id="defs125"/>
    <g transform="translate(-7.926,-4.079)" id="g6">
	<circle style="fill:#cccccc" id="circle2" r="4.039" cy="13.716" cx="58.075001"/>
        <path style="fill:#cccccc" id="path4"
              d="M 58.075,107.3 30.25,91.462 37.785,87.4 c 0.019,0.044 0.031,0.08 0.051,0.125 5.45,7.98 16.47,8.57 25.22,7.76 5.19,-1.655 -1.06,2.033 -0.73,3.49 0.94,2.7 4.047,1.088 5.482,0.668 3.77,-2.16 7.5,-4.563 9.838,-8.747 1.287,-3.878 0.724,-1.814 3.75,-5.09 2.77,-2.86 3,-7.33 6.24,-9.84 3.47,-3.12 5.02,-7.55 6.87,-11.67 6.24,-5.78 11.96,-13.38 11.74,-22.31 0.34,-6.76 -3.84,-12.78 -8.83,-16.93 -8.22,-6.71 -18.67,-10.14 -29.04,-11.73 -2.41,-0.89 -4.8,1.96 -3.14,4.12 4.75,1.95 10.08,1.89 14.83,3.92 7.63,2.8 15.48,7.04 19.62,14.34 3.53,7.16 -0.16,15.82 -5.54,21 l -0.18,0.18 c -2.04,-3.3 -4.2,-6.63 -7.38,-8.95 C 78.43,41.554 68.028,39.33 58.016,38.722 V 19.505 l -50.09,27 v 56.99 l 0.07,-0.038 v 1.038 L 58.075,133 l 50.08,-28.505 v -25.7 z M 58.016,63.735 c 0.02,0 0.04,0 0.06,0 5.65,0.33 11.49,1.21 16.37,4.26 0.644,0.494 1.383,0.802 -0.533,1.385 -1.422,0.513 -6.265,1.407 -9.925,1.917 0,0 -3.304,0.208 -4.452,0.158 -0.194,-0.008 -0.737,-0.037 -1.52,-0.087 z m -3.548,14.673 c 3.073,-0.293 6.175,-0.152 9.058,0.538 1.72,0.49 3.84,0.49 4.94,2.11 -5.6,0.95 -11.345,1.071 -16.97,0.7 -0.789,-0.161 -1.673,-0.244 -2.56,-0.366 z m 3.088,11.837 c -5.02,-0.24 -10.81,-0.67 -14.48,-4.57 10.02,2.51 20.59,2.43 30.52,-0.5 -4.33,3.85 -10.43,4.94 -16.04,5.07 z m 17.91,-11.82 c -1.345,-1.67 -3.157,-2.545 -5.06,-3.07 3,-0.8 6.01,-1.61 8.99,-2.49 1.68,3.1 -1.275,4.82 -3.93,5.56 z m 9.53,-25.2 c 2.38,2.03 3.62,4.94 4.41,7.89 -1.8,1.3 -3.65,2.53 -5.52,3.72 -1.27,0.35 -2.77,1.98 -3.99,0.58 -6.223,-4.809 -14.171,-6.574 -21.88,-7.073 V 44.185 c 9.55,0.15 19.76,2.41 26.98,9.04 z"/>
</g>
    <g transform="translate(-7.926,-4.079)" id="g10">
	<path id="path8"
          d="m 401.51,129 c -94.34,0 -188.68,0.01 -283.02,-0.01 0.01,-4 0.01,-8 0,-11.99 94.34,0.01 188.68,-0.01 283.02,0 z"/>
</g>
    <g transform="translate(-7.926,-4.079)" id="g16">
	<g id="g14">
		<path style="fill:#01015b" id="path12"
              d="m 69.24,11.49 c -1.66,-2.16 0.73,-5.01 3.14,-4.12 10.37,1.59 20.82,5.02 29.04,11.73 4.99,4.15 9.17,10.17 8.83,16.93 0.22,8.93 -5.5,16.53 -11.74,22.31 -1.85,4.12 -3.4,8.55 -6.87,11.67 -3.24,2.51 -3.47,6.98 -6.24,9.84 -3.026,3.276 -2.463,1.213 -3.75,5.09 -2.338,4.185 -6.068,6.587 -9.838,8.747 -1.435,0.42 -4.543,2.033 -5.482,-0.668 -0.33,-1.457 5.92,-5.145 0.73,-3.49 -8.75,0.81 -19.77,0.22 -25.22,-7.76 -1.048,-2.416 -0.903,-3.166 -0.91,-4.56 -3.95,-2.85 -6.74,-7.22 -6.4,-12.26 -4.38,-3.04 -8.54,-7.37 -8.73,-13.02 -0.75,-5.54 3.55,-10.02 7.92,-12.68 8.43,-5.05 18.55,-6.31 28.21,-6.29 10.04,0.6 20.48,2.82 28.66,9.02 3.18,2.32 5.34,5.65 7.38,8.95 l 0.18,-0.18 c 5.38,-5.18 9.07,-13.84 5.54,-21 C 99.55,22.449 91.7,18.209 84.07,15.409 79.32,13.38 73.99,13.44 69.24,11.49 Z M 33.48,46.04 c -4.98,3.99 -1.3,12.13 3.84,13.72 6.86,-5.61 15.97,-7.23 24.6,-7.18 7.74,0.49 15.73,2.25 21.98,7.08 1.22,1.4 2.72,-0.23 3.99,-0.58 1.87,-1.19 3.72,-2.42 5.52,-3.72 C 92.62,52.41 91.38,49.5 89,47.47 81.78,40.84 71.57,38.58 62.02,38.43 52.15,38.21 41.33,39.52 33.48,46.04 Z m 34.512,19.502 c 3.66,-0.51 8.503,-1.403 9.925,-1.917 1.917,-0.583 1.177,-0.891 0.533,-1.385 -4.88,-3.05 -10.72,-3.93 -16.37,-4.26 -6.18,-0.02 -12.67,0.63 -18.14,3.72 -0.56,0.342 -2.357,0.675 0.01,1.35 5.316,1.856 18.443,2.6 19.59,2.65 1.148,0.05 4.452,-0.158 4.452,-0.158 z M 39.75,67.53 c 0.5,1.298 1.516,3.22 3.547,4.4 0.859,-0.571 2.173,-1.225 3.273,-1.805 0.714,-0.289 1.477,-0.797 2.21,-1.054 C 48.422,69.046 47.885,68.983 46.828,68.937 44.293,68.628 42.14,68.11 39.75,67.53 Z m 34.66,2.07 c 1.902,0.525 3.715,1.4 5.06,3.07 2.655,-0.74 5.61,-2.46 3.93,-5.56 -2.98,0.88 -5.99,1.69 -8.99,2.49 z M 49.688,74.688 C 51.375,75.687 53.69,75.63 55.5,76 61.125,76.371 66.87,76.25 72.47,75.3 71.37,73.68 69.25,73.68 67.53,73.19 61.8,71.82 55.208,72.607 49.688,74.688 Z M 47.08,79.92 c 3.67,3.9 9.46,4.33 14.48,4.57 5.61,-0.13 11.71,-1.22 16.04,-5.07 -9.93,2.93 -20.5,3.01 -30.52,0.5 z"/>
	</g>
</g>
    <path id="path18"
          d="m 130.636,66.12 c 5.059,-0.001 10.095,-0.31 14.848,-2.119 12.71,-4.38 21.13,-17.81 20.71,-31.07 -0.37,-6.5 -2.57,-12.93 -6.5,-18.14 -5.85,-8.27 -16.04,-12.96 -26.09,-12.71 l -22.61,-0.009 v 19.105 l -0.06,0.263 0.06,-0.005 v 69.806 h 9.2 V 66.12 m -0.09,-55.809 c 5.18,-0.01 10.36,-0.12 15.53,0.12 7.7,0.51 15.18,4.81 18.95,11.63 4.72,8.07 4.18,18.99 -1.64,26.36 -4.06,5.47 -10.67,8.97 -17.5,9.08 -5.08,0.07 -10.057,0.033 -15.25,0.033 z"/>
    <path id="path20" d="M 132.574,66.102"/>
    <circle style="fill:#01015b" id="circle22" r="4.039" cy="4.8820004" cx="54.154003"/>
    <polygon transform="translate(-7.926,-4.079)" style="fill:#01015b" id="polygon24"
             points="12,73.04 62.08,101.545 62.08,127.245 12,98.74 "/>
    <polygon transform="translate(-7.926,-4.079)" style="fill:#f00020" id="polygon26"
             points="112.16,73.04 62.08,101.545 62.08,127.245 112.16,98.74 "/>
    <g transform="translate(-7.926,-4.079)" id="g32">
	<path id="path28"
          d="M 274.112,57.437 V 40.11 h -13.535 c 0.92,3.272 1.422,6.719 1.422,10.285 0,2.408 -0.234,4.759 -0.663,7.043 h 12.776 z"/>
        <path id="path30"
              d="m 258.027,67.297 c -6.217,12.473 -19.092,21.045 -33.975,21.045 -20.958,0 -37.948,-16.99 -37.948,-37.948 0,-20.958 16.99,-37.948 37.948,-37.948 13.555,0 25.442,7.112 32.154,17.803 h 9.542 c -7.493,-15.484 -23.341,-26.17 -41.697,-26.17 -25.579,0 -46.315,20.736 -46.315,46.315 0,25.579 20.736,46.315 46.315,46.315 19.612,0 36.362,-12.195 43.115,-29.412 z"/>
</g>
    <polygon transform="translate(-7.926,-4.079)" style="fill:#fec101" id="polygon34"
             points="62.02,13.75 11.93,40.75 11.93,97.74 62.02,70.74 "/>
    <g transform="translate(-7.926,-4.079)" id="g38">
	<path style="fill:#01015b" id="path36"
          d="m 69.24,11.49 c -1.66,-2.16 0.73,-5.01 3.14,-4.12 10.37,1.59 20.82,5.02 29.04,11.73 4.99,4.15 9.17,10.17 8.83,16.93 0.22,8.93 -5.5,16.53 -11.74,22.31 -1.85,4.12 -3.4,8.55 -6.87,11.67 -3.24,2.51 -3.47,6.98 -6.24,9.84 -3.026,3.276 -2.463,1.213 -3.75,5.09 -2.338,4.185 -6.068,6.587 -9.838,8.747 -1.435,0.42 -4.543,2.033 -5.482,-0.668 -0.33,-1.457 5.92,-5.145 0.73,-3.49 -8.75,0.81 -19.77,0.22 -25.22,-7.76 -1.048,-2.416 -0.903,-3.166 -0.91,-4.56 -3.95,-2.85 -6.74,-7.22 -6.4,-12.26 -4.38,-3.04 -8.54,-7.37 -8.73,-13.02 -0.75,-5.54 3.55,-10.02 7.92,-12.68 8.43,-5.05 18.55,-6.31 28.21,-6.29 10.04,0.6 20.48,2.82 28.66,9.02 3.18,2.32 5.34,5.65 7.38,8.95 l 0.18,-0.18 c 5.38,-5.18 9.07,-13.84 5.54,-21 C 99.55,22.449 91.7,18.209 84.07,15.409 79.32,13.38 73.99,13.44 69.24,11.49 Z M 33.48,46.04 c -4.98,3.99 -1.3,12.13 3.84,13.72 6.86,-5.61 15.97,-7.23 24.6,-7.18 7.74,0.49 15.73,2.25 21.98,7.08 1.22,1.4 2.72,-0.23 3.99,-0.58 1.87,-1.19 3.72,-2.42 5.52,-3.72 C 92.62,52.41 91.38,49.5 89,47.47 81.78,40.84 71.57,38.58 62.02,38.43 52.15,38.21 41.33,39.52 33.48,46.04 Z m 34.512,19.502 c 3.66,-0.51 8.503,-1.403 9.925,-1.917 1.917,-0.583 1.177,-0.891 0.533,-1.385 -4.88,-3.05 -10.72,-3.93 -16.37,-4.26 -6.18,-0.02 -12.67,0.63 -18.14,3.72 -0.56,0.342 -2.357,0.675 0.01,1.35 5.316,1.856 18.443,2.6 19.59,2.65 1.148,0.05 4.452,-0.158 4.452,-0.158 z M 39.75,67.53 c 0.5,1.298 1.516,3.22 3.547,4.4 0.859,-0.571 2.173,-1.225 3.273,-1.805 0.714,-0.289 1.477,-0.797 2.21,-1.054 C 48.422,69.046 47.885,68.983 46.828,68.937 44.293,68.628 42.14,68.11 39.75,67.53 Z m 34.66,2.07 c 1.902,0.525 3.715,1.4 5.06,3.07 2.655,-0.74 5.61,-2.46 3.93,-5.56 -2.98,0.88 -5.99,1.69 -8.99,2.49 z M 49.688,74.688 C 51.375,75.687 53.69,75.63 55.5,76 61.125,76.371 66.87,76.25 72.47,75.3 71.37,73.68 69.25,73.68 67.53,73.19 61.8,71.82 55.208,72.607 49.688,74.688 Z M 47.08,79.92 c 3.67,3.9 9.46,4.33 14.48,4.57 5.61,-0.13 11.71,-1.22 16.04,-5.07 -9.93,2.93 -20.5,3.01 -30.52,0.5 z"/>
</g>
    <circle style="fill:#01015b" id="circle40" r="4.039" cy="4.8820004" cx="54.154003"/>
    <polygon transform="translate(-7.926,-4.079)" style="fill:#01015b" id="polygon42"
             points="12,73.04 62.08,101.545 62.08,127.245 12,98.74 "/>
    <polygon transform="translate(-7.926,-4.079)" style="fill:#f00020" id="polygon44"
             points="112.16,73.04 62.08,101.545 62.08,127.245 112.16,98.74 "/>
    <polygon transform="translate(-7.926,-4.079)" id="polygon46"
             points="298.3,6.151 290.5,6.151 281.36,6.151 281.36,95.35 298.3,95.35 298.3,57.437 324.696,57.437 324.696,40.11 298.3,40.11 298.3,23.83 325.97,23.83 325.97,6.151 "/>
    <polygon transform="translate(-7.926,-4.079)" id="polygon48"
             points="395,6.151 374.61,6.151 360.305,31.171 346,6.151 325.61,6.151 350.11,49.002 323.61,95.35 344,95.35 360.305,66.833 376.61,95.35 397,95.35 370.5,49.002 "/>
    <g transform="translate(-7.926,-4.079)" id="g116">
	<path id="path50"
          d="m 128.272,113 v -9.217 L 124.378,113 h -0.896 l -3.88,-9.217 V 113 h -1.037 v -10.352 h 1.611 l 3.768,8.811 3.754,-8.811 h 1.611 V 113 Z"/>
        <path id="path52"
              d="m 134.862,113.182 c -2.087,0 -3.516,-1.261 -3.516,-4.076 v -6.458 h 1.037 v 6.458 c 0,2.115 0.869,3.124 2.493,3.124 1.597,0 2.479,-1.008 2.479,-3.124 v -6.458 h 1.037 v 6.458 c 0,2.815 -1.429,4.076 -3.53,4.076 z"/>
        <path id="path54" d="m 140.432,113 v -10.352 h 1.037 v 9.413 h 4.286 V 113 Z"/>
        <path id="path56" d="M 148.624,103.587 V 113 h -1.037 v -9.413 h -2.367 v -0.938 h 5.771 v 0.938 z"/>
        <path id="path58" d="m 152.066,113 v -10.352 h 1.037 V 113 Z"/>
        <path id="path60"
              d="m 164.854,113 v -9.217 L 160.959,113 h -0.896 l -3.88,-9.217 V 113 h -1.037 v -10.352 h 1.611 l 3.768,8.811 3.754,-8.811 h 1.611 V 113 Z"/>
        <path id="path62"
              d="m 167.928,113 v -10.352 h 5.659 v 0.938 h -4.623 v 3.712 h 4.468 v 0.938 h -4.468 v 3.824 h 4.623 V 113 Z"/>
        <path id="path64"
              d="m 178.136,113 h -2.788 v -10.352 h 2.438 c 1.877,0 2.97,0.224 3.95,0.813 1.541,0.91 2.353,2.451 2.353,4.398 0,2.984 -1.905,5.141 -5.953,5.141 z m 3.026,-8.741 c -0.785,-0.476 -1.765,-0.672 -3.334,-0.672 h -1.443 v 8.475 h 1.443 c 1.835,0 2.899,-0.266 3.726,-0.924 0.953,-0.771 1.485,-1.961 1.485,-3.32 0,-1.542 -0.687,-2.844 -1.877,-3.559 z"/>
        <path id="path66" d="m 185.68,113 v -10.352 h 1.037 V 113 Z"/>
        <path id="path68"
              d="m 196.772,113 -1.499,-3.488 h -4.819 L 188.942,113 h -1.092 l 4.44,-10.352 h 1.163 L 197.907,113 Z m -3.894,-9.175 -2.031,4.749 h 4.02 z"/>
        <path id="path70"
              d="m 202.83,113 v -10.352 h 5.659 v 0.938 h -4.623 v 3.712 h 4.468 v 0.938 h -4.468 v 3.824 h 4.623 V 113 Z"/>
        <path id="path72"
              d="m 217.45,113 -6.164,-9.105 V 113 h -1.037 v -10.352 h 1.401 l 5.799,8.586 v -8.586 h 1.037 V 113 Z"/>
        <path id="path74" d="M 222.963,103.587 V 113 h -1.037 v -9.413 h -2.367 v -0.938 h 5.771 v 0.938 z"/>
        <path id="path76"
              d="m 226.405,113 v -10.352 h 5.659 v 0.938 h -4.623 v 3.712 h 4.468 v 0.938 h -4.468 v 3.824 h 4.623 V 113 Z"/>
        <path id="path78"
              d="M 237.79,109.134 240.689,113 H 239.4 l -3.488,-4.692 c 2.899,0 3.88,-0.504 3.88,-2.367 0,-1.723 -1.064,-2.354 -3.474,-2.354 h -1.457 V 113 h -1.037 v -10.352 h 2.563 c 3.25,0 4.455,1.177 4.455,3.334 10e-4,1.835 -1.064,2.942 -3.052,3.152 z"/>
        <path id="path80" d="M 244.677,103.587 V 113 h -1.037 v -9.413 h -2.367 v -0.938 h 5.771 v 0.938 z"/>
        <path id="path82"
              d="m 255.432,113 -1.499,-3.488 h -4.819 L 247.601,113 h -1.092 l 4.44,-10.352 h 1.163 L 256.566,113 Z m -3.895,-9.175 -2.031,4.749 h 4.02 z"/>
        <path id="path84" d="m 257.695,113 v -10.352 h 1.037 V 113 Z"/>
        <path id="path86"
              d="m 267.975,113 -6.164,-9.105 V 113 h -1.037 v -10.352 h 1.401 l 5.799,8.586 v -8.586 h 1.037 V 113 Z"/>
        <path id="path88"
              d="m 280.758,113 v -9.217 L 276.864,113 h -0.896 l -3.88,-9.217 V 113 h -1.037 v -10.352 h 1.611 l 3.768,8.811 3.754,-8.811 h 1.611 V 113 Z"/>
        <path id="path90"
              d="m 283.833,113 v -10.352 h 5.659 v 0.938 h -4.623 v 3.712 h 4.468 v 0.938 h -4.468 v 3.824 h 4.623 V 113 Z"/>
        <path id="path92"
              d="m 298.453,113 -6.164,-9.105 V 113 h -1.037 v -10.352 h 1.401 l 5.799,8.586 v -8.586 h 1.036 V 113 Z"/>
        <path id="path94" d="M 303.966,103.587 V 113 h -1.037 v -9.413 h -2.367 v -0.938 h 5.771 v 0.938 z"/>
        <path id="path96"
              d="m 314.228,108.812 h -1.989 V 113 h -1.037 v -10.352 h 2.857 c 2.844,0 3.992,0.966 3.992,3.138 0.001,1.961 -1.008,3.026 -3.823,3.026 z m -0.519,-5.225 h -1.471 v 4.286 h 1.919 c 2.059,0 2.844,-0.588 2.844,-2.087 0,-2.101 -1.316,-2.199 -3.292,-2.199 z"/>
        <path id="path98" d="m 319.406,113 v -10.352 h 1.037 v 9.413 h 4.287 V 113 Z"/>
        <path id="path100"
              d="m 334.292,113 -1.499,-3.488 h -4.819 L 326.462,113 h -1.092 l 4.44,-10.352 h 1.163 L 335.427,113 Z m -3.894,-9.175 -2.031,4.749 h 4.02 z"/>
        <path id="path102"
              d="M 339.092,109.54 V 113 h -1.037 v -3.46 l -3.586,-6.892 h 1.149 l 2.941,5.799 3.012,-5.799 h 1.135 z"/>
        <path id="path104"
              d="m 343.71,113 v -10.352 h 5.659 v 0.938 h -4.623 v 3.712 h 4.468 v 0.938 h -4.468 v 3.824 h 4.623 V 113 Z"/>
        <path id="path106"
              d="m 355.094,109.134 2.899,3.866 h -1.289 l -3.488,-4.692 c 2.899,0 3.88,-0.504 3.88,-2.367 0,-1.723 -1.064,-2.354 -3.474,-2.354 h -1.457 V 113 h -1.037 v -10.352 h 2.563 c 3.25,0 4.455,1.177 4.455,3.334 0.002,1.835 -1.063,2.942 -3.052,3.152 z"/>
        <path id="path108"
              d="m 366.363,108.812 h -1.989 V 113 h -1.037 v -10.352 h 2.858 c 2.843,0 3.992,0.966 3.992,3.138 0,1.961 -1.008,3.026 -3.824,3.026 z m -0.518,-5.225 h -1.471 v 4.286 h 1.919 c 2.059,0 2.844,-0.588 2.844,-2.087 0,-2.101 -1.317,-2.199 -3.292,-2.199 z"/>
        <path id="path110"
              d="m 376.528,113.182 c -3.096,0 -5.435,-2.297 -5.435,-5.323 0,-3.096 2.283,-5.393 5.365,-5.393 2.143,0 3.964,1.093 4.762,2.872 h -1.163 c -0.882,-1.387 -2.101,-1.919 -3.558,-1.919 -2.465,0 -4.356,1.905 -4.356,4.398 0,2.423 1.975,4.412 4.37,4.412 1.513,0 2.507,-0.574 3.6,-1.947 h 1.148 c -1.034,1.92 -2.632,2.9 -4.733,2.9 z"/>
        <path id="path112"
              d="m 387.67,103.587 v 3.74 h 4.063 v 0.938 H 387.67 V 113 h -1.037 v -10.352 h 5.253 v 0.938 h -4.216 z"/>
        <path id="path114"
              d="m 399.474,113 -2.927,-4.426 -2.942,4.426 h -1.218 l 3.516,-5.295 -3.32,-5.057 h 1.219 l 2.746,4.146 2.731,-4.146 h 1.205 l -3.32,5.057 3.53,5.295 z"/>
</g>
    <g transform="translate(-7.926,-4.079)" id="g120">
	<path id="path118"
          d="m 383.604,108.757 c -0.42,0 -0.755,-0.336 -0.755,-0.756 0,-0.419 0.335,-0.755 0.755,-0.755 0.408,0 0.756,0.336 0.756,0.755 0,0.42 -0.348,0.756 -0.756,0.756 z"/>
</g>
</svg>