<?xml version="1.0" encoding="UTF-8" standalone="no"?>
<svg xmlns:dc="http://purl.org/dc/elements/1.1/" xmlns:cc="http://creativecommons.org/ns#"
     xmlns:rdf="http://www.w3.org/1999/02/22-rdf-syntax-ns#" xmlns="http://www.w3.org/2000/svg" height="487.20001"
     width="667.79999" xml:space="preserve" viewBox="0 0 667.79999 487.20001" y="0px" x="0px" id="Layer_1"
     version="1.1"><metadata
   id="metadata11"><rdf:RDF><cc:Work
       rdf:about=""><dc:format>image/svg+xml</dc:format><dc:type rdf:resource="http://purl.org/dc/dcmitype/StillImage"/><dc:title></dc:title></cc:Work></rdf:RDF></metadata>
  <defs id="defs9"/>
  <style id="style2" type="text/css">
	.st0{fill:#010101;}
</style>
  <path style="fill:#010101" id="path4"
        d="M 424.2,0 H 277.4 V 65.4 C 244.1,23.8 194.5,0 140.5,0 H 0 v 157.5 h 126 c 11.3,0 20.5,9.2 20.5,20.5 0,11.3 -9.2,20.5 -20.5,20.5 H 0 V 487.2 H 165.1 V 349.6 c 43.8,-6.2 84.3,-29.4 112.3,-63.9 V 348 l 77.1,-51.6 c 1.1,1.6 2.3,3.2 3.5,4.7 l -80.6,67.6 v 60 l 93.9,-114.4 c 1.6,1.3 3.3,2.5 5.1,3.7 l -98.7,152.5 -0.3,0.4 v 16.3 H 424.2 C 558.5,487.2 667.8,377.9 667.8,243.6 667.8,109.3 558.5,0 424.2,0 Z M 305.1,237.1 c 7.4,-19.7 11.1,-40.4 11.1,-61.4 0,-21 -3.7,-41.6 -11.1,-61.4 V 27.7 h 119.1 c 26.3,0 52.1,4.7 76.6,14.1 L 452,169.4 c -9.2,-3.3 -18.7,-5 -28.5,-5 -46.4,0 -84.1,37.7 -84.1,84.1 0,12.4 2.6,24.3 7.8,35.4 L 305,304.7 v -67.6 z m 165.4,-58.3 74,-114.3 c 6,4 11.8,8.4 17.3,13 l -86.3,105.1 c -1.5,-1.4 -3.2,-2.6 -5,-3.8 z m -47,13.2 c 31.1,0 56.4,25.3 56.4,56.4 0,31.1 -25.3,56.4 -56.4,56.4 -31.1,0 -56.4,-25.3 -56.4,-56.4 0,-31.1 25.3,-56.4 56.4,-56.4 z m -28.6,135.5 c 9.2,3.3 18.8,5 28.6,5 46.4,0 84.1,-37.7 84.1,-84.1 0,-12.5 -2.7,-24.4 -8,-35.7 l 120.7,-59.4 c 13.1,28.4 19.8,58.8 19.8,90.2 0,119.1 -96.9,215.9 -215.9,215.9 h -79.8 z m 97.5,-127.2 c -1.1,-1.6 -2.3,-3.1 -3.5,-4.6 l 103.7,-87 c 4.2,5.2 8.2,10.7 12,16.5 z m -355,123.8 V 459.5 H 27.7 V 226.1 H 126 c 26.6,0 48.2,-21.6 48.2,-48.2 0,-26.6 -21.6,-48.2 -48.2,-48.2 H 27.7 v -102 h 112.8 c 61.4,0 115.5,36.9 137.8,94.1 6.7,17.2 10.2,35.4 10.2,53.9 0,18.6 -3.4,36.7 -10.2,53.9 -20.8,53.2 -71.1,90 -128,93.7 z"
        class="st0"/>
</svg>