<?xml version="1.0" encoding="UTF-8" standalone="no"?>
<svg xmlns:dc="http://purl.org/dc/elements/1.1/" xmlns:cc="http://creativecommons.org/ns#"
     xmlns:rdf="http://www.w3.org/1999/02/22-rdf-syntax-ns#" xmlns="http://www.w3.org/2000/svg" xml:space="preserve"
     enable-background="new 0 0 1000 1000" viewBox="0 0 1000 1000" height="1000" width="1000" y="0px" x="0px"
     id="Layer_1" version="1.1"><metadata
   id="metadata43"><rdf:RDF><cc:Work
       rdf:about=""><dc:format>image/svg+xml</dc:format><dc:type rdf:resource="http://purl.org/dc/dcmitype/StillImage"/><dc:title></dc:title></cc:Work></rdf:RDF></metadata>
  <defs id="defs41"/>
  <rect y="0" x="0" id="rect2" height="1000" width="1000"/>
  <g id="g8">
	<path style="fill:#fdb539" id="path4"
        d="m 479.46,124.73 c 11.75,-2.18 24.37,0.61 33.94,7.82 9.83,7.3 15.86,19.21 16.51,31.38 0.72,11.28 -3.18,22.83 -10.75,31.26 -11.39,12.78 -30.81,17.18 -46.73,11.12 -10.75,-3.79 -19.66,-12.28 -23.99,-22.81 -5.6,-13.01 -4.27,-28.72 3.49,-40.57 6.08,-9.6 16.43,-16.11 27.53,-18.2 z"/>
    <path style="fill:#fdb539" id="path6"
          d="m 450.79,252.6 c 24.27,-0.01 48.54,0.01 72.81,-0.01 0.03,63.52 0.01,127.04 0.01,190.55 -24.27,0.03 -48.55,0.02 -72.82,0.01 -0.01,-63.52 -0.01,-127.03 0,-190.55 z"/>
</g>
  <g id="g14">
	<g id="g12">
		<path style="fill:#e06a1f" id="path10"
          d="m 624.06,137.39 c 29.66,0.28 59.31,0.64 88.96,0.96 24.67,0.54 49.4,-0.01 74.02,1.87 12.76,0.74 24.94,5.51 35.8,12.06 16.78,10.12 29.4,26.37 36.38,44.57 8.08,21.21 10.19,44.81 5.22,67.01 -4.03,18.12 -12.86,35.32 -26.04,48.48 -11.04,11.14 -25.21,19.1 -40.43,22.84 -8.2,1.89 -16.63,2.39 -25,2.84 -24.42,0.97 -48.85,1.35 -73.27,1.96 -0.02,34.37 -0.01,68.73 0,103.1 -25.22,0.11 -50.43,0.04 -75.65,0.04 0,-101.91 -0.02,-203.82 0.01,-305.73 z m 74.24,60.36 c -0.02,27.08 0,54.16 -0.01,81.24 13.23,-0.01 26.46,0.08 39.69,-0.05 10.77,-0.28 21.74,0.02 32.26,-2.68 10.2,-3.33 17.24,-12.87 20.28,-22.83 3.6,-11.4 3.13,-24.18 -1.78,-35.12 -4.51,-10.1 -14.16,-18.09 -25.26,-19.51 -8.44,-1.18 -16.97,-0.88 -25.46,-0.99 -13.24,-0.13 -26.48,-0.08 -39.72,-0.06 z"/>
	</g>
</g>
  <g id="g20">
	<g id="g18">
		<path style="fill:#54bb46" id="path16"
          d="m 137.06,137.4 c 44.32,0.41 88.64,0.93 132.95,1.52 13.38,0.42 26.87,0.28 40.08,2.67 17.14,4.09 33.08,13.41 44.8,26.6 14.69,16.39 22.44,38.02 24.65,59.7 2.35,23.34 -2.48,47.61 -14.89,67.64 -10.33,16.9 -26.33,30.46 -45.1,37.03 -11.94,4.59 -24.89,5.03 -37.51,5.63 -23.11,0.82 -46.23,1.23 -69.34,1.78 -0.03,34.38 0,68.76 -0.02,103.15 -25.2,0.03 -50.41,0.01 -75.61,0 -0.02,-101.9 -0.01,-203.81 -0.01,-305.72 z m 74.22,60.37 c 0.01,27.07 0.01,54.14 0,81.21 18.87,-0.07 37.75,0.35 56.6,-0.53 6.34,-0.54 12.97,-0.8 18.83,-3.56 7.18,-3.7 12.48,-10.41 15.51,-17.81 4.86,-12.07 4.96,-26.12 -0.19,-38.12 -3.87,-9.14 -11.83,-16.59 -21.43,-19.33 -6.71,-1.62 -13.68,-1.69 -20.55,-1.77 -16.25,-0.13 -32.51,-0.19 -48.77,-0.09 z"/>
	</g>
</g>
  <g id="g26">
	<g id="g24">
		<path style="fill:#ee131e" id="path22"
          d="m 137.07,566.39 c 30.97,0.31 61.95,0.65 92.92,1.01 23.38,0.5 46.8,0.01 70.13,1.83 13.65,0.83 26.66,6.19 38.07,13.54 15.85,10.31 27.69,26.17 34.3,43.79 7.17,19.21 9.47,40.3 6.07,60.56 -3.27,19.55 -11.97,38.38 -25.74,52.76 -11.25,11.91 -26,20.42 -41.91,24.31 -8.18,1.87 -16.6,2.38 -24.96,2.83 -24.41,0.97 -48.84,1.36 -73.26,1.95 -0.02,34.38 0.01,68.76 -0.01,103.14 -25.21,0.04 -50.41,0.02 -75.62,0.01 -0.01,-101.91 -0.03,-203.82 0.01,-305.73 z m 74.22,60.37 c 0,27.07 0,54.15 -0.01,81.23 18.9,-0.1 37.82,0.36 56.7,-0.55 6.58,-0.58 13.53,-0.8 19.49,-3.95 6.78,-3.78 11.8,-10.23 14.73,-17.34 4.88,-12.09 4.99,-26.16 -0.16,-38.18 -3.87,-9.15 -11.83,-16.59 -21.42,-19.34 -7.74,-1.85 -15.77,-1.73 -23.68,-1.78 -15.22,-0.15 -30.44,-0.14 -45.65,-0.09 z"/>
	</g>
</g>
  <g id="g32">
	<path style="fill:#8b2e87" id="path28"
        d="m 450.76,566.55 c 24.28,-0.21 48.56,-0.04 72.84,-0.08 0.03,65.38 0.02,130.77 0.01,196.15 -24.29,-0.05 -48.58,0.15 -72.87,-0.1 0.08,-65.32 0.05,-130.65 0.02,-195.97 z"/>
    <path style="fill:#8b2e87" id="path30"
          d="m 483.21,805.22 c 11.34,-1.15 23.11,2.33 31.86,9.66 9.13,7.58 14.53,19.28 14.89,31.11 0.47,11.88 -4.18,23.95 -12.76,32.23 -8.76,8.4 -21.24,12.73 -33.33,11.67 -9.66,-0.86 -19.09,-4.94 -26.1,-11.68 -8.3,-8.07 -12.94,-19.66 -12.75,-31.21 0.08,-10.98 4.48,-21.92 12.26,-29.7 6.89,-6.89 16.26,-11.15 25.93,-12.08 z"/>
</g>
  <g id="g36">
	<path style="fill:#0092d6" id="path34"
        d="m 624.46,566.41 c 20.38,-0.02 40.76,-0.01 61.14,0 18.24,30.18 37.62,59.66 56.63,89.37 17.27,26.8 34.41,53.68 51.77,80.43 0.01,-56.13 -0.01,-112.26 0.01,-168.39 22.84,-0.44 45.68,-1.01 68.53,-1.5 0.02,101.84 -0.01,203.69 0.01,305.53 -23.31,-0.01 -46.62,0.1 -69.93,-0.05 -11.12,-19.39 -23.46,-38.04 -35.61,-56.79 -21.5,-33.33 -43.33,-66.44 -64.61,-99.9 -0.02,34.96 -0.46,69.92 -0.58,104.88 0.08,17.29 -0.8,34.59 -0.2,51.87 -22.39,0 -44.78,0.02 -67.17,-0.01 0.01,-101.81 -0.01,-203.63 0.01,-305.44 z"/>
</g>
</svg>