<?xml version="1.0" encoding="UTF-8" standalone="no"?>
<svg xmlns:dc="http://purl.org/dc/elements/1.1/" xmlns:cc="http://creativecommons.org/ns#"
     xmlns:rdf="http://www.w3.org/1999/02/22-rdf-syntax-ns#" xmlns="http://www.w3.org/2000/svg" style="overflow:visible"
     xml:space="preserve" enable-background="new 0 0 612.092 560.54" overflow="visible"
     viewBox="0 0 600.81281 552.85125" height="100.59856" width="131.77367" id="Layer_1" version="1.0"><metadata
   id="metadata20"><rdf:RDF><cc:Work
       rdf:about=""><dc:format>image/svg+xml</dc:format><dc:type rdf:resource="http://purl.org/dc/dcmitype/StillImage"/><dc:title></dc:title></cc:Work></rdf:RDF></metadata>
    <defs id="defs18"/>
    <g transform="translate(-65.9843,-316.03953)" id="g3">

	<path style="clip-rule:evenodd;fill:#de0029;fill-opacity:1;fill-rule:evenodd" id="path7"
          d="M 395.06807,434.21345 394.60021,863.39514 279.61012,825.99696 V 321.53515 l 146.77829,38.8061 c 93.9539,25.25126 151.45108,74.33572 150.5154,160.36064 -0.93425,100.0534 -47.2116,140.25584 -137.42843,114.07469 V 437.47977 c 0,-23.84477 -44.40731,-25.24111 -44.40731,-3.26632 z"/>
        <path style="clip-rule:evenodd;fill:#f3c202;fill-opacity:1;fill-rule:evenodd" id="path9"
              d="m 226.78568,742.76757 -54.22512,18.23778 c -35.06323,12.15852 -64.97567,-16.35908 -32.72249,-28.05407 l 26.17539,-9.34411 -98.632455,-31.33052 C 36.994899,702.56663 8.4787729,724.53999 10.3531,755.3983 c 1.869981,31.3204 73.38699,38.80466 128.55071,47.68813 51.4165,8.4113 98.16172,3.73706 140.70488,-11.2242 v -32.26192 z m 168.74878,120.62757 100.50242,-35.0676 -101.43667,-32.25463 v 64.98007 z"/>
        <path style="clip-rule:evenodd;fill:#326db3;fill-opacity:1;fill-rule:evenodd" id="path11"
              d="m 662.91715,769.42531 1.8685,-0.47074 c 43.94098,-15.42334 62.63936,-36.93754 57.96798,-57.03368 -7.4799,-33.65968 -61.23717,-51.89741 -143.97839,-57.97669 -59.36432,-4.20494 -117.79432,8.88207 -174.8237,28.51615 l -9.3499,3.27646 102.37241,31.79113 59.83219,-20.10628 c 62.6393,-11.68485 87.8862,8.88347 27.58184,28.05407 l -29.91827,10.2798 z m -383.30703,-148.67002 -45.3474,15.4234 45.3474,14.02701 z"/>
        <path style="clip-rule:evenodd;fill:#00aa9e;fill-opacity:1;fill-rule:evenodd" id="path13"
              d="m 496.03688,828.32754 166.88027,-58.90223 -108.4502,-33.66978 -159.86674,54.70022 v 5.61716 z m -216.42676,-103.32405 -52.823,17.76557 52.823,16.83125 z m 114.99009,27.59201 v -66.85869 l 102.37241,31.79113 z M 166.01492,723.60717 279.60869,682.93251 V 650.2057 L 234.26272,636.17869 69.718853,691.81461 c -0.46787,0 -1.402132,0.46204 -2.336393,0.46204 z"/>

</g>
</svg>