<?xml version="1.0" encoding="UTF-8" standalone="no"?>
<svg xmlns:dc="http://purl.org/dc/elements/1.1/" xmlns:cc="http://creativecommons.org/ns#"
     xmlns:rdf="http://www.w3.org/1999/02/22-rdf-syntax-ns#" xmlns="http://www.w3.org/2000/svg" xml:space="preserve"
     enable-background="new 0 0 1992 553" viewBox="0 0 1992 552.42468" height="552.42468" width="1992" y="0px" x="0px"
     id="Layer_1" version="1.0"><metadata
   id="metadata41"><rdf:RDF><cc:Work
       rdf:about=""><dc:format>image/svg+xml</dc:format><dc:type rdf:resource="http://purl.org/dc/dcmitype/StillImage"/><dc:title></dc:title></cc:Work></rdf:RDF></metadata>
    <defs id="defs39"/>
    <g id="g24">
	<path style="fill:#3e5ec0" id="path2"
          d="m 337,0.5 h 142 c -0.01,131 0.01,262 0,393 -47.33,0 -94.66,0 -141.99,0 -0.02,-131 0,-262 -0.01,-393 z"/>
        <g id="g6">
		<path style="fill:#3e5ec0" id="path4"
              d="m 1485,240.48 c 0.04,15.75 -2.43,31.5 -7.43,46.44 -10.28,31.34 -31.43,58.75 -58.51,77.45 -33.21,23.08 -75.08,33 -115.15,27.8 -37.97,-4.71 -74.34,-22.99 -99.97,-51.52 -26.17,-28.46 -40.72,-67.45 -38.78,-106.15 1.51,-38.37 19.14,-75.53 47.12,-101.7 25.6,-24.36 59.54,-39.66 94.649,-43.26 13.18,34.09 26.61,68.09 39.69,102.22 0.69,-4.06 0.38,-8.19 0.42,-12.28 0.05,-59.66 -0.06,-119.32 0.06,-178.98 L 1485,0 Z m -162.46,-19.24 c -6.46,1.27 -12.33,5.48 -15.28,11.4 -2.34,4.27 -2.54,9.34 -1.83,14.05 2.63,13.89 20.5,22.41 32.72,15.04 8.47,-4.62 13.47,-15.31 10.52,-24.68 -2.87,-10.98 -15.1,-18.29 -26.13,-15.81 z"/>
	</g>
        <g id="g10">
		<path style="fill:#3e5ec0" id="path8"
              d="m 80.15,23.86 c 26.38,-14.53 56.8,-21.52 86.88,-20.2 34.72,1.34 68.99,13.92 96.08,35.73 22.55,18.09 40.06,42.53 49.23,69.99 10.06,29.55 10.19,62.35 0.42,92 -8.43,25.91 -24.23,49.26 -44.75,67.13 -24.99,21.83 -56.92,35.56 -89.91,38.96 -13.6,-35.04 -27.38,-70.02 -40.84,-105.12 -0.53,6.69 -0.15,13.41 -0.26,20.12 0.05,56.98 -0.11,113.97 -0.02,170.96 C 91.32,393.44 45.66,393.47 0,393.42 V 150.75 C 1.03,127.03 7.66,103.54 19.55,82.97 33.73,58.14 55.07,37.54 80.15,23.86 Z m 70.37,95.42 c -8.66,1.7 -16.69,6.59 -21.92,13.73 -5.9,7.98 -8.24,18.74 -5.29,28.32 2.57,9.65 9.82,17.77 18.86,21.89 14.14,6.68 32.49,3.18 42.71,-8.82 8.29,-9.2 10.49,-23.2 5.65,-34.55 -6.23,-15.2 -24.09,-24.05 -40.01,-20.57 z"/>
	</g>
        <g id="g14">
		<path style="fill:#3e5ec0" id="path12"
              d="M 546.38,123.8 C 577.44,98.54 618.06,85.64 658,87.7 c 41.68,1.82 82.7,19.99 111.18,50.63 25.92,27.19 41.08,64.48 40.82,102.11 -0.02,50.99 -0.08,101.98 -0.04,152.97 -45.64,-0.01 -91.27,-0.03 -136.9,0.01 -0.13,-31.64 -0.02,-63.28 -0.06,-94.91 -0.05,-4.05 0.18,-8.1 -0.26,-12.13 -13.47,35.08 -27.25,70.03 -40.81,105.07 -39.56,-3.99 -77.58,-23.02 -103.95,-52.86 -26.04,-28.86 -40.21,-68.25 -37.72,-107.12 2.18,-41.77 23.61,-81.6 56.12,-107.67 z m 102.05,93.35 c -6.49,1.28 -12.49,5.28 -15.7,11.12 -2.77,4.52 -3.1,10.07 -2.25,15.18 1.63,7.39 7.43,13.53 14.54,15.96 7.35,2.55 16.03,1.26 22.1,-3.7 6.66,-5.16 10.11,-14.5 7.55,-22.65 -2.88,-11.07 -15.16,-18.22 -26.24,-15.91 z"/>
	</g>
        <g id="g18">
		<path style="fill:#3e5ec0" id="path16"
              d="m 1728.34,123.84 c 30.54,-24.88 70.37,-37.77 109.68,-36.22 39.06,1.27 77.69,16.79 106.15,43.68 28.7,26.49 46.43,64.5 47.83,103.59 V 393.4 c -45.66,0 -91.32,0 -136.97,0 -0.21,-35.71 0.27,-71.42 -0.24,-107.12 -13.51,35.11 -27.28,70.11 -40.87,105.18 -48.67,-4.82 -94.84,-32.82 -120.25,-74.82 -19.5,-31.64 -26.39,-70.82 -18.44,-107.17 7.09,-33.57 26.46,-64.14 53.11,-85.63 z m 101.25,93.48 c -6.16,1.45 -11.78,5.36 -14.85,10.93 -2.79,4.55 -3.12,10.15 -2.24,15.3 1.66,7.35 7.44,13.44 14.53,15.86 7.59,2.62 16.59,1.13 22.69,-4.2 6.43,-5.35 9.56,-14.71 6.771,-22.73 -3.201,-11.07 -15.841,-17.91 -26.901,-15.16 z"/>
	</g>
        <path style="fill:#3e5ec0" id="path20"
              d="m 837.03,123.65 c 42.62,-0.06 85.25,0.04 127.88,-0.04 0,32.29 -0.01,73.58 0,105.87 -0.04,4.67 -0.1,9.38 0.76,14 1.93,8.27 8.78,14.89 16.88,17.16 7.75,1.78 16.58,0.59 22.65,-4.9 6.11,-4.83 8.59,-12.76 8.88,-20.29 0.02,-34.28 -0.01,-77.56 0.01,-111.84 42.6,0.03 85.21,0.04 127.81,0 0.01,82.62 0,153.25 0.01,235.88 -0.2,10.85 0,20.01 -2.638,40.235 -5.9,35.26 -25.592,79.675 -52.372,102.655 -13.64,11.81 -28.75,21.89 -44.66,30.39 -21.42,11.34 -45.13,17.43 -69.34,19.07 -10.53,0.722 -9.275,0.657 -18.91,0.43 -12.115,-1.02 -22.82,-2.85 -33.88,-6.03 -22.37,-6.17 -43.84,-15.35 -62.1,-29.76 10.16,-28.86 20.34,-57.72 30.49,-86.57 0.31,-0.15 0.93,-0.45 1.24,-0.6 19.09,8.85 40.16,15 61.39,13.04 13.2,-1.28 25.11,-8.28 35.07,-16.69 11.83,-10.27 20.29,-24.2 24.55,-39.24 1.21,-5.03 2.66,-10.51 0.77,-15.55 -1.12,-3 -4.56,-4.18 -7.5,-3.53 -3.01,-0.07 -5.13,2.31 -7.46,3.84 -14.76,11.24 -32.88,18.27 -51.47,19.08 -15.45,0.72 -30.89,-2.72 -45.01,-8.87 -15.91,-6.84 -30.73,-16.76 -41.94,-30.07 -12.25,-14.47 -19.91,-32.86 -21.08,-51.82 0.01,-55.61 0.09,-120.23 -0.03,-175.85 z"/>
        <path style="fill:#3e5ec0" id="path22"
              d="m 1514.04,132.61 c 45.63,0.02 91.26,0.06 136.89,-0.02 0.05,86.94 0.01,173.87 0.021,260.8 -45.64,-0.04 -91.271,-0.03 -136.91,-0.01 0.019,-86.92 0.01,-173.84 -10e-4,-260.77 z"/>
</g>
    <g id="g28">
	<path style="fill:#fa3f3f" id="path26"
          d="m 1579.29,0.5 h 6.5 c 12.07,0.46 24.13,3.08 35.05,8.33 12.94,6.16 24.48,16.18 30.65,29.29 5.18,10.78 5.93,23.58 1.99,34.87 -2.65,7.58 -7.09,14.52 -12.79,20.16 -11.06,11.35 -26.13,18.17 -41.59,20.94 -19.79,3.46 -40.9,0.57 -58.52,-9.28 -11.77,-6.66 -22.04,-16.73 -27.16,-29.41 -5.01,-12.08 -4.45,-26.28 1.42,-37.96 3.94,-8.25 10.23,-15.14 17.37,-20.75 13.46,-10.25 30.3,-15.36 47.08,-16.19 z"/>
</g>
    <g id="g34">
	<path style="fill:#16b49b" id="path30"
          d="m 0,449.5 c 270.33,0 540.66,0 811,0 0,16 0,32 0,48 -270.34,0 -540.67,0 -811,0 z"/>
        <path style="fill:#16b49b" id="path32"
              d="m 1163,449.51 c 276.33,-0.02 552.67,-0.01 829,-0.01 v 48 c -276.33,0 -552.66,0 -828.99,0 -0.02,-16 0,-32 -0.01,-47.99 z"/>
</g>
</svg>