<?xml version="1.0" encoding="UTF-8" standalone="no"?>
<svg xmlns:dc="http://purl.org/dc/elements/1.1/" xmlns:cc="http://creativecommons.org/ns#"
     xmlns:rdf="http://www.w3.org/1999/02/22-rdf-syntax-ns#" xmlns="http://www.w3.org/2000/svg" id="svg18" version="1.1"
     viewBox="0 0 187.08799 100.08" height="1298.014" width="2426.4873">
  <metadata id="metadata24">
    <rdf:RDF>
      <cc:Work rdf:about="">
        <dc:format>image/svg+xml</dc:format>
        <dc:type rdf:resource="http://purl.org/dc/dcmitype/StillImage"/>
        <dc:title></dc:title>
      </cc:Work>
    </rdf:RDF>
  </metadata>
  <defs id="defs22"/>
  <path d="M 0,0 H 187.088 V 100.08 H 0 Z" id="path4" style="clip-rule:evenodd;fill-rule:evenodd"/>
  <path d="M 10.822,10.822 H 135.031 V 89.259 H 10.822 Z" id="path6"
        style="clip-rule:evenodd;fill:#ffffff;fill-rule:evenodd"/>
  <path d="m 145.385,10.822 h 30.881 v 78.437 h -30.881 z" id="path8"
        style="clip-rule:evenodd;fill:#c1352c;fill-rule:evenodd"/>
  <path
      d="m 45.358,42.743 -4.915,6.642 c -2.042,-1.885 -4.234,-3.017 -6.125,-3.017 -4.537,0 -6.579,3.921 -6.579,12.968 0,5.051 0.605,8.066 1.966,9.725 1.059,1.357 2.798,2.188 4.537,2.188 2.344,0 4.461,-0.98 6.957,-3.167 l 0.605,-0.527 4.613,6.115 c -1.512,1.515 -2.193,2.045 -3.554,2.878 -2.722,1.59 -5.747,2.423 -9.452,2.423 -10.67,0 -16.88,-7.421 -16.88,-19.935 0,-8.896 3.409,-14.782 7.953,-17.877 2.575,-1.737 6.357,-2.87 9.608,-2.87 2.571,0 5.293,0.68 7.486,1.737 1.436,0.754 2.117,1.282 3.78,2.717 z M 62.672,40.223 72.8,38.636 V 78.23 H 62.672 Z m 5.216,-17.642 c 3.401,0 6.123,2.803 6.123,6.289 0,3.486 -2.797,6.289 -6.274,6.289 -3.4,0 -6.198,-2.804 -6.198,-6.289 0,-3.485 2.872,-6.289 6.349,-6.289 z m 9.534,1.974 10.204,-2.496 c 0.453,2.874 0.604,7.411 0.604,12.553 V 78.23 H 78.103 V 34.611 c 0,-3.403 -0.075,-6.05 -0.681,-10.056 z m 19.89,14.819 h 12.174 L 97.162,55.707 112.359,78.229 H 100.414 L 87.408,56.312 Z M 46.943,24.579 57.148,22.083 c 0.454,2.873 0.604,7.41 0.604,12.552 V 78.253 H 47.624 V 34.635 c 0,-3.403 -0.075,-6.049 -0.681,-10.056 z m 75.321,36.515 h -7.453 l -2.193,-35.844 11.691,-1.769 z m -3.801,18.008 c -3.287,0 -5.918,-2.848 -5.918,-6.389 0,-3.541 2.703,-6.39 6.064,-6.39 3.289,0 5.992,2.849 5.992,6.39 0,3.541 -2.777,6.389 -6.138,6.389 z"
      id="path10" style="clip-rule:evenodd;fill-rule:evenodd"/>
  <path
      d="m 163.221,61.075 v 5.192 l -8.898,-5.133 v -0.06 h 8.898 z m 0,-5.315 h -13.746 v 7.504 l 14.516,8.487 h 3.846 V 61.075 h 4.789 V 55.76 h -4.789 v -2.654 h -4.615 v 2.654 z m -9.334,-13.556 c 0,-2.953 4.898,-3.655 7.133,-3.655 2.235,0 7.195,0.702 7.195,3.655 0,2.954 -4.961,3.656 -7.195,3.656 -2.234,0 -7.133,-0.701 -7.133,-3.656 z m -5.317,0 c 0,6.544 6.479,9.344 12.48,9.344 6,0 12.479,-2.771 12.479,-9.344 0,-6.572 -6.479,-9.343 -12.479,-9.343 -6.001,0 -12.48,2.801 -12.48,9.343 z"
      id="path12" style="clip-rule:evenodd;fill:#ffffff;fill-rule:evenodd"/>
  <path
      d="m 126.551,25.811 h -0.352 v -2.033 h -0.607 v -0.343 h 1.576 v 0.343 h -0.617 z m 3.205,0 h -0.354 v -2.145 h -0.018 l -0.566,2.145 h -0.439 l -0.566,-2.145 h -0.018 v 2.145 h -0.352 v -2.376 h 0.643 l 0.5,1.867 h 0.018 l 0.49,-1.867 h 0.662 z"
      id="path14" style="clip-rule:evenodd;fill-rule:evenodd"/>
</svg>
