<?xml version="1.0" encoding="UTF-8" standalone="no"?>
<svg xmlns:dc="http://purl.org/dc/elements/1.1/" xmlns:cc="http://creativecommons.org/ns#"
     xmlns:rdf="http://www.w3.org/1999/02/22-rdf-syntax-ns#" xmlns="http://www.w3.org/2000/svg" xml:space="preserve"
     width="64.999886mm" height="18.507248mm"
     style="clip-rule:evenodd;fill-rule:evenodd;image-rendering:optimizeQuality;shape-rendering:geometricPrecision;text-rendering:geometricPrecision"
     viewBox="0 0 64.999885 21.354551" id="svg2" version="1.1"><metadata
   id="metadata821"><rdf:RDF><cc:Work
       rdf:about=""><dc:format>image/svg+xml</dc:format><dc:type rdf:resource="http://purl.org/dc/dcmitype/StillImage"/><dc:title></dc:title></cc:Work></rdf:RDF></metadata>
  <defs id="defs4">
  <style type="text/css" id="style6">

    .fil31 {fill:#0065A7}
    .fil32 {fill:#0065A8}
    .fil33 {fill:#0067A9}
    .fil34 {fill:#0068AA}
    .fil35 {fill:#0069AB}
    .fil36 {fill:#006AAC}
    .fil37 {fill:#006BAD}
    .fil38 {fill:#006CAF}
    .fil39 {fill:#006DAF}
    .fil40 {fill:#006FB1}
    .fil41 {fill:#006FB2}
    .fil42 {fill:#0071B3}
    .fil43 {fill:#0072B4}
    .fil44 {fill:#0073B5}
    .fil45 {fill:#0074B6}
    .fil46 {fill:#0075B7}
    .fil47 {fill:#0075B8}
    .fil48 {fill:#0077B9}
    .fil49 {fill:#0078BB}
    .fil50 {fill:#0079BB}
    .fil51 {fill:#007ABD}
    .fil52 {fill:#007BBE}
    .fil53 {fill:#007CBF}
    .fil54 {fill:#007DC0}
    .fil55 {fill:#007FC2}
    .fil56 {fill:#0080C3}
    .fil57 {fill:#0081C4}
    .fil58 {fill:#0082C6}
    .fil59 {fill:#0083C7}
    .fil60 {fill:#0085C8}
    .fil61 {fill:#0085C9}
    .fil62 {fill:#0087CB}
    .fil63 {fill:#0088CC}
    .fil64 {fill:#0089CD}
    .fil65 {fill:#008ACE}
    .fil66 {fill:#008BD0}
    .fil67 {fill:#008CD1}
    .fil68 {fill:#008ED3}
    .fil69 {fill:#008ED4}
    .fil70 {fill:#008FD5}
    .fil71 {fill:#0091D7}
    .fil72 {fill:#0092D8}
    .fil73 {fill:#0093DA}
    .fil74 {fill:#0094DB}
    .fil75 {fill:#0095DD}
    .fil76 {fill:#0096DE}
    .fil77 {fill:#0098DF}
    .fil30 {fill:#0464A6}
    .fil29 {fill:#0863A5}
    .fil28 {fill:#0D62A4}
    .fil27 {fill:#1160A3}
    .fil26 {fill:#135FA2}
    .fil25 {fill:#165EA1}
    .fil24 {fill:#185DA0}
    .fil23 {fill:#1B5C9F}
    .fil22 {fill:#1C5B9E}
    .fil21 {fill:#1E599D}
    .fil1 {fill:#1F1A17}
    .fil20 {fill:#20599C}
    .fil19 {fill:#22579B}
    .fil18 {fill:#23569A}
    .fil17 {fill:#245599}
    .fil16 {fill:#255398}
    .fil15 {fill:#265297}
    .fil14 {fill:#275196}
    .fil13 {fill:#285095}
    .fil12 {fill:#294F94}
    .fil11 {fill:#2A4E93}
    .fil10 {fill:#2B4C92}
    .fil9 {fill:#2E4C91}
    .fil8 {fill:#2F4A90}
    .fil7 {fill:#30498F}
    .fil5 {fill:#31468D}
    .fil6 {fill:#31488E}
    .fil4 {fill:#32458C}
    .fil2 {fill:#33438A}
    .fil3 {fill:#33448B}
    .fil0 {fill:white}

  </style>

    <metadata id="CorelCorpID_0Corel-Layer"/>





















































































































































































































































































































































































































 </defs>
  <polygon style="fill:#1f1a17" id="polygon12"
           points="2.4855,3.86435 23.5185,3.86435 23.5185,10.1015 3.31742,10.1015 3.31742,15.5067 2.4855,15.5067 2.4855,9.26954 22.6872,9.26954 22.6872,4.69638 2.4855,4.69638 "
           class="fil1" transform="translate(-3.947083,-3.86435)"/>
  <polygon style="fill:#1f1a17" id="polygon14"
           points="49.798,10.1015 49.798,14.6747 69.9988,14.6747 69.9988,15.5067 69.9988,14.6331 69.9988,15.5067 48.966,15.5067 48.966,9.26954 69.1658,9.26954 69.1658,4.69638 48.966,4.69638 48.966,3.86435 69.9988,3.86435 69.9988,10.1015 "
           class="fil1" transform="translate(-3.947083,-3.86435)"/>
  <polygon style="fill:#1f1a17" id="polygon16"
           points="23.5185,14.6747 23.5185,15.5067 35.1198,15.5067 35.1198,4.69638 45.8488,4.69638 45.8488,3.86435 34.2474,3.86435 34.2474,14.6747 "
           class="fil1" transform="translate(-3.947083,-3.86435)"/>
  <polygon style="fill:#33438a" id="polygon18" points="23.5185,3.95527 2.4855,3.95527 2.4855,3.86435 23.5185,3.86435 "
           class="fil2" transform="translate(-3.947083,-3.86435)"/>
  <polygon style="fill:#33438a" id="polygon20" points="23.5185,4.04619 2.4855,4.04619 2.4855,3.95527 23.5185,3.95527 "
           class="fil2" transform="translate(-3.947083,-3.86435)"/>
  <polygon style="fill:#33448b" id="polygon22" points="23.5185,4.13723 2.4855,4.13723 2.4855,4.04619 23.5185,4.04619 "
           class="fil3" transform="translate(-3.947083,-3.86435)"/>
  <polygon style="fill:#32458c" id="polygon24" points="23.5185,4.22815 2.4855,4.22815 2.4855,4.13723 23.5185,4.13723 "
           class="fil4" transform="translate(-3.947083,-3.86435)"/>
  <polygon style="fill:#32458c" id="polygon26" points="23.5185,4.31908 2.4855,4.31908 2.4855,4.22815 23.5185,4.22815 "
           class="fil4" transform="translate(-3.947083,-3.86435)"/>
  <polygon style="fill:#31468d" id="polygon28" points="23.5185,4.41012 2.4855,4.41012 2.4855,4.31908 23.5185,4.31908 "
           class="fil5" transform="translate(-3.947083,-3.86435)"/>
  <polygon style="fill:#31488e" id="polygon30" points="23.5185,4.50104 2.4855,4.50104 2.4855,4.41012 23.5185,4.41012 "
           class="fil6" transform="translate(-3.947083,-3.86435)"/>
  <polygon style="fill:#31488e" id="polygon32" points="23.5185,4.59196 2.4855,4.59196 2.4855,4.50104 23.5185,4.50104 "
           class="fil6" transform="translate(-3.947083,-3.86435)"/>
  <polygon style="fill:#30498f" id="polygon34" points="23.5185,4.68288 2.4855,4.68288 2.4855,4.59196 23.5185,4.59196 "
           class="fil7" transform="translate(-3.947083,-3.86435)"/>
  <polygon style="fill:#30498f" id="polygon36"
           points="22.6872,4.69638 2.4855,4.69638 2.4855,4.68288 23.5185,4.68288 23.5185,4.77392 22.6872,4.77392 "
           class="fil7" transform="translate(-3.947083,-3.86435)"/>
  <polygon style="fill:#2f4a90" id="polygon38"
           points="23.5185,4.86485 22.6872,4.86485 22.6872,4.77392 23.5185,4.77392 " class="fil8"
           transform="translate(-3.947083,-3.86435)"/>
  <polygon style="fill:#2f4a90" id="polygon40"
           points="23.5185,4.95577 22.6872,4.95577 22.6872,4.86485 23.5185,4.86485 " class="fil8"
           transform="translate(-3.947083,-3.86435)"/>
  <polygon style="fill:#2e4c91" id="polygon42"
           points="23.5185,5.04681 22.6872,5.04681 22.6872,4.95577 23.5185,4.95577 " class="fil9"
           transform="translate(-3.947083,-3.86435)"/>
  <polygon style="fill:#2b4c92" id="polygon44"
           points="23.5185,5.13773 22.6872,5.13773 22.6872,5.04681 23.5185,5.04681 " class="fil10"
           transform="translate(-3.947083,-3.86435)"/>
  <polygon style="fill:#2b4c92" id="polygon46"
           points="23.5185,5.22865 22.6872,5.22865 22.6872,5.13773 23.5185,5.13773 " class="fil10"
           transform="translate(-3.947083,-3.86435)"/>
  <polygon style="fill:#2a4e93" id="polygon48"
           points="23.5185,5.31958 22.6872,5.31958 22.6872,5.22865 23.5185,5.22865 " class="fil11"
           transform="translate(-3.947083,-3.86435)"/>
  <polygon style="fill:#294f94" id="polygon50"
           points="23.5185,5.41062 22.6872,5.41062 22.6872,5.31958 23.5185,5.31958 " class="fil12"
           transform="translate(-3.947083,-3.86435)"/>
  <polygon style="fill:#294f94" id="polygon52"
           points="23.5185,5.50154 22.6872,5.50154 22.6872,5.41062 23.5185,5.41062 " class="fil12"
           transform="translate(-3.947083,-3.86435)"/>
  <polygon style="fill:#285095" id="polygon54"
           points="23.5185,5.59246 22.6872,5.59246 22.6872,5.50154 23.5185,5.50154 " class="fil13"
           transform="translate(-3.947083,-3.86435)"/>
  <polygon style="fill:#285095" id="polygon56" points="23.5185,5.6835 22.6872,5.6835 22.6872,5.59246 23.5185,5.59246 "
           class="fil13" transform="translate(-3.947083,-3.86435)"/>
  <polygon style="fill:#275196" id="polygon58" points="23.5185,5.77442 22.6872,5.77442 22.6872,5.6835 23.5185,5.6835 "
           class="fil14" transform="translate(-3.947083,-3.86435)"/>
  <polygon style="fill:#275196" id="polygon60"
           points="23.5185,5.86535 22.6872,5.86535 22.6872,5.77442 23.5185,5.77442 " class="fil14"
           transform="translate(-3.947083,-3.86435)"/>
  <polygon style="fill:#265297" id="polygon62"
           points="23.5185,5.95638 22.6872,5.95638 22.6872,5.86535 23.5185,5.86535 " class="fil15"
           transform="translate(-3.947083,-3.86435)"/>
  <polygon style="fill:#265297" id="polygon64"
           points="23.5185,6.04731 22.6872,6.04731 22.6872,5.95638 23.5185,5.95638 " class="fil15"
           transform="translate(-3.947083,-3.86435)"/>
  <polygon style="fill:#255398" id="polygon66"
           points="23.5185,6.13823 22.6872,6.13823 22.6872,6.04731 23.5185,6.04731 " class="fil16"
           transform="translate(-3.947083,-3.86435)"/>
  <polygon style="fill:#245599" id="polygon68"
           points="23.5185,6.22915 22.6872,6.22915 22.6872,6.13823 23.5185,6.13823 " class="fil17"
           transform="translate(-3.947083,-3.86435)"/>
  <polygon style="fill:#245599" id="polygon70"
           points="23.5185,6.32019 22.6872,6.32019 22.6872,6.22915 23.5185,6.22915 " class="fil17"
           transform="translate(-3.947083,-3.86435)"/>
  <polygon style="fill:#23569a" id="polygon72"
           points="23.5185,6.41112 22.6872,6.41112 22.6872,6.32019 23.5185,6.32019 " class="fil18"
           transform="translate(-3.947083,-3.86435)"/>
  <polygon style="fill:#22579b" id="polygon74"
           points="23.5185,6.50204 22.6872,6.50204 22.6872,6.41112 23.5185,6.41112 " class="fil19"
           transform="translate(-3.947083,-3.86435)"/>
  <polygon style="fill:#22579b" id="polygon76"
           points="23.5185,6.59308 22.6872,6.59308 22.6872,6.50204 23.5185,6.50204 " class="fil19"
           transform="translate(-3.947083,-3.86435)"/>
  <polygon style="fill:#20599c" id="polygon78" points="23.5185,6.684 22.6872,6.684 22.6872,6.59308 23.5185,6.59308 "
           class="fil20" transform="translate(-3.947083,-3.86435)"/>
  <polygon style="fill:#20599c" id="polygon80" points="23.5185,6.77492 22.6872,6.77492 22.6872,6.684 23.5185,6.684 "
           class="fil20" transform="translate(-3.947083,-3.86435)"/>
  <polygon style="fill:#1e599d" id="polygon82"
           points="23.5185,6.86585 22.6872,6.86585 22.6872,6.77492 23.5185,6.77492 " class="fil21"
           transform="translate(-3.947083,-3.86435)"/>
  <polygon style="fill:#1e599d" id="polygon84"
           points="23.5185,6.95688 22.6872,6.95688 22.6872,6.86585 23.5185,6.86585 " class="fil21"
           transform="translate(-3.947083,-3.86435)"/>
  <polygon style="fill:#1c5b9e" id="polygon86"
           points="23.5185,7.04781 22.6872,7.04781 22.6872,6.95688 23.5185,6.95688 " class="fil22"
           transform="translate(-3.947083,-3.86435)"/>
  <polygon style="fill:#1c5b9e" id="polygon88"
           points="23.5185,7.13873 22.6872,7.13873 22.6872,7.04781 23.5185,7.04781 " class="fil22"
           transform="translate(-3.947083,-3.86435)"/>
  <polygon style="fill:#1b5c9f" id="polygon90"
           points="23.5185,7.22977 22.6872,7.22977 22.6872,7.13873 23.5185,7.13873 " class="fil23"
           transform="translate(-3.947083,-3.86435)"/>
  <polygon style="fill:#185da0" id="polygon92"
           points="23.5185,7.32069 22.6872,7.32069 22.6872,7.22977 23.5185,7.22977 " class="fil24"
           transform="translate(-3.947083,-3.86435)"/>
  <polygon style="fill:#185da0" id="polygon94"
           points="23.5185,7.41162 22.6872,7.41162 22.6872,7.32069 23.5185,7.32069 " class="fil24"
           transform="translate(-3.947083,-3.86435)"/>
  <polygon style="fill:#165ea1" id="polygon96"
           points="23.5185,7.50265 22.6872,7.50265 22.6872,7.41162 23.5185,7.41162 " class="fil25"
           transform="translate(-3.947083,-3.86435)"/>
  <polygon style="fill:#135fa2" id="polygon98"
           points="23.5185,7.59358 22.6872,7.59358 22.6872,7.50265 23.5185,7.50265 " class="fil26"
           transform="translate(-3.947083,-3.86435)"/>
  <polygon style="fill:#135fa2" id="polygon100"
           points="23.5185,7.6845 22.6872,7.6845 22.6872,7.59358 23.5185,7.59358 " class="fil26"
           transform="translate(-3.947083,-3.86435)"/>
  <polygon style="fill:#1160a3" id="polygon102"
           points="23.5185,7.77542 22.6872,7.77542 22.6872,7.6845 23.5185,7.6845 " class="fil27"
           transform="translate(-3.947083,-3.86435)"/>
  <polygon style="fill:#0d62a4" id="polygon104"
           points="23.5185,7.86646 22.6872,7.86646 22.6872,7.77542 23.5185,7.77542 " class="fil28"
           transform="translate(-3.947083,-3.86435)"/>
  <polygon style="fill:#0d62a4" id="polygon106"
           points="23.5185,7.95738 22.6872,7.95738 22.6872,7.86646 23.5185,7.86646 " class="fil28"
           transform="translate(-3.947083,-3.86435)"/>
  <polygon style="fill:#0863a5" id="polygon108"
           points="23.5185,8.04831 22.6872,8.04831 22.6872,7.95738 23.5185,7.95738 " class="fil29"
           transform="translate(-3.947083,-3.86435)"/>
  <polygon style="fill:#0863a5" id="polygon110"
           points="23.5185,8.13935 22.6872,8.13935 22.6872,8.04831 23.5185,8.04831 " class="fil29"
           transform="translate(-3.947083,-3.86435)"/>
  <polygon style="fill:#0464a6" id="polygon112"
           points="23.5185,8.23027 22.6872,8.23027 22.6872,8.13935 23.5185,8.13935 " class="fil30"
           transform="translate(-3.947083,-3.86435)"/>
  <polygon style="fill:#0464a6" id="polygon114"
           points="23.5185,8.32119 22.6872,8.32119 22.6872,8.23027 23.5185,8.23027 " class="fil30"
           transform="translate(-3.947083,-3.86435)"/>
  <polygon style="fill:#0065a7" id="polygon116"
           points="23.5185,8.41212 22.6872,8.41212 22.6872,8.32119 23.5185,8.32119 " class="fil31"
           transform="translate(-3.947083,-3.86435)"/>
  <polygon style="fill:#0065a8" id="polygon118"
           points="23.5185,8.50315 22.6872,8.50315 22.6872,8.41212 23.5185,8.41212 " class="fil32"
           transform="translate(-3.947083,-3.86435)"/>
  <polygon style="fill:#0065a8" id="polygon120"
           points="23.5185,8.59408 22.6872,8.59408 22.6872,8.50315 23.5185,8.50315 " class="fil32"
           transform="translate(-3.947083,-3.86435)"/>
  <polygon style="fill:#0067a9" id="polygon122" points="23.5185,8.685 22.6872,8.685 22.6872,8.59408 23.5185,8.59408 "
           class="fil33" transform="translate(-3.947083,-3.86435)"/>
  <polygon style="fill:#0067a9" id="polygon124" points="23.5185,8.77604 22.6872,8.77604 22.6872,8.685 23.5185,8.685 "
           class="fil33" transform="translate(-3.947083,-3.86435)"/>
  <polygon style="fill:#0068aa" id="polygon126"
           points="23.5185,8.86696 22.6872,8.86696 22.6872,8.77604 23.5185,8.77604 " class="fil34"
           transform="translate(-3.947083,-3.86435)"/>
  <polygon style="fill:#0069ab" id="polygon128"
           points="23.5185,8.95788 22.6872,8.95788 22.6872,8.86696 23.5185,8.86696 " class="fil35"
           transform="translate(-3.947083,-3.86435)"/>
  <polygon style="fill:#0069ab" id="polygon130"
           points="23.5185,9.04881 22.6872,9.04881 22.6872,8.95788 23.5185,8.95788 " class="fil35"
           transform="translate(-3.947083,-3.86435)"/>
  <polygon style="fill:#006aac" id="polygon132"
           points="23.5185,9.13985 22.6872,9.13985 22.6872,9.04881 23.5185,9.04881 " class="fil36"
           transform="translate(-3.947083,-3.86435)"/>
  <polygon style="fill:#006aac" id="polygon134"
           points="23.5185,9.23077 22.6872,9.23077 22.6872,9.13985 23.5185,9.13985 " class="fil36"
           transform="translate(-3.947083,-3.86435)"/>
  <polygon style="fill:#006bad" id="polygon136"
           points="2.4855,9.26954 22.6872,9.26954 22.6872,9.23077 23.5185,9.23077 23.5185,9.32169 2.4855,9.32169 "
           class="fil37" transform="translate(-3.947083,-3.86435)"/>
  <polygon style="fill:#006bad" id="polygon138"
           points="23.5185,9.41273 2.4855,9.41273 2.4855,9.32169 23.5185,9.32169 " class="fil37"
           transform="translate(-3.947083,-3.86435)"/>
  <polygon style="fill:#006caf" id="polygon140"
           points="23.5185,9.50365 2.4855,9.50365 2.4855,9.41273 23.5185,9.41273 " class="fil38"
           transform="translate(-3.947083,-3.86435)"/>
  <polygon style="fill:#006daf" id="polygon142"
           points="23.5185,9.59458 2.4855,9.59458 2.4855,9.50365 23.5185,9.50365 " class="fil39"
           transform="translate(-3.947083,-3.86435)"/>
  <polygon style="fill:#006daf" id="polygon144"
           points="23.5185,9.68562 2.4855,9.68562 2.4855,9.59458 23.5185,9.59458 " class="fil39"
           transform="translate(-3.947083,-3.86435)"/>
  <polygon style="fill:#006fb1" id="polygon146"
           points="23.5185,9.77654 2.4855,9.77654 2.4855,9.68562 23.5185,9.68562 " class="fil40"
           transform="translate(-3.947083,-3.86435)"/>
  <polygon style="fill:#006fb2" id="polygon148"
           points="23.5185,9.86746 2.4855,9.86746 2.4855,9.77654 23.5185,9.77654 " class="fil41"
           transform="translate(-3.947083,-3.86435)"/>
  <polygon style="fill:#006fb2" id="polygon150"
           points="23.5185,9.95838 2.4855,9.95838 2.4855,9.86746 23.5185,9.86746 " class="fil41"
           transform="translate(-3.947083,-3.86435)"/>
  <polygon style="fill:#0071b3" id="polygon152"
           points="23.5185,10.0494 2.4855,10.0494 2.4855,9.95838 23.5185,9.95838 " class="fil42"
           transform="translate(-3.947083,-3.86435)"/>
  <polygon style="fill:#0071b3" id="polygon154"
           points="3.31742,10.1403 2.4855,10.1403 2.4855,10.0494 23.5185,10.0494 23.5185,10.1015 3.31742,10.1015 "
           class="fil42" transform="translate(-3.947083,-3.86435)"/>
  <polygon style="fill:#0072b4" id="polygon156"
           points="3.31742,10.2313 2.4855,10.2313 2.4855,10.1403 3.31742,10.1403 " class="fil43"
           transform="translate(-3.947083,-3.86435)"/>
  <polygon style="fill:#0072b4" id="polygon158"
           points="3.31742,10.3223 2.4855,10.3223 2.4855,10.2313 3.31742,10.2313 " class="fil43"
           transform="translate(-3.947083,-3.86435)"/>
  <polygon style="fill:#0073b5" id="polygon160"
           points="3.31742,10.4132 2.4855,10.4132 2.4855,10.3223 3.31742,10.3223 " class="fil44"
           transform="translate(-3.947083,-3.86435)"/>
  <polygon style="fill:#0073b5" id="polygon162"
           points="3.31742,10.5042 2.4855,10.5042 2.4855,10.4132 3.31742,10.4132 " class="fil44"
           transform="translate(-3.947083,-3.86435)"/>
  <polygon style="fill:#0074b6" id="polygon164"
           points="3.31742,10.5951 2.4855,10.5951 2.4855,10.5042 3.31742,10.5042 " class="fil45"
           transform="translate(-3.947083,-3.86435)"/>
  <polygon style="fill:#0075b7" id="polygon166"
           points="3.31742,10.6861 2.4855,10.6861 2.4855,10.5951 3.31742,10.5951 " class="fil46"
           transform="translate(-3.947083,-3.86435)"/>
  <polygon style="fill:#0075b7" id="polygon168" points="3.31742,10.777 2.4855,10.777 2.4855,10.6861 3.31742,10.6861 "
           class="fil46" transform="translate(-3.947083,-3.86435)"/>
  <polygon style="fill:#0075b8" id="polygon170" points="3.31742,10.868 2.4855,10.868 2.4855,10.777 3.31742,10.777 "
           class="fil47" transform="translate(-3.947083,-3.86435)"/>
  <polygon style="fill:#0077b9" id="polygon172" points="3.31742,10.959 2.4855,10.959 2.4855,10.868 3.31742,10.868 "
           class="fil48" transform="translate(-3.947083,-3.86435)"/>
  <polygon style="fill:#0077b9" id="polygon174" points="3.31742,11.0499 2.4855,11.0499 2.4855,10.959 3.31742,10.959 "
           class="fil48" transform="translate(-3.947083,-3.86435)"/>
  <polygon style="fill:#0078bb" id="polygon176"
           points="3.31742,11.1408 2.4855,11.1408 2.4855,11.0499 3.31742,11.0499 " class="fil49"
           transform="translate(-3.947083,-3.86435)"/>
  <polygon style="fill:#0078bb" id="polygon178"
           points="3.31742,11.2319 2.4855,11.2319 2.4855,11.1408 3.31742,11.1408 " class="fil49"
           transform="translate(-3.947083,-3.86435)"/>
  <polygon style="fill:#0079bb" id="polygon180"
           points="3.31742,11.3228 2.4855,11.3228 2.4855,11.2319 3.31742,11.2319 " class="fil50"
           transform="translate(-3.947083,-3.86435)"/>
  <polygon style="fill:#0079bb" id="polygon182"
           points="3.31742,11.4137 2.4855,11.4137 2.4855,11.3228 3.31742,11.3228 " class="fil50"
           transform="translate(-3.947083,-3.86435)"/>
  <polygon style="fill:#007abd" id="polygon184"
           points="3.31742,11.5047 2.4855,11.5047 2.4855,11.4137 3.31742,11.4137 " class="fil51"
           transform="translate(-3.947083,-3.86435)"/>
  <polygon style="fill:#007bbe" id="polygon186"
           points="3.31742,11.5957 2.4855,11.5957 2.4855,11.5047 3.31742,11.5047 " class="fil52"
           transform="translate(-3.947083,-3.86435)"/>
  <polygon style="fill:#007bbe" id="polygon188"
           points="3.31742,11.6866 2.4855,11.6866 2.4855,11.5957 3.31742,11.5957 " class="fil52"
           transform="translate(-3.947083,-3.86435)"/>
  <polygon style="fill:#007cbf" id="polygon190"
           points="3.31742,11.7775 2.4855,11.7775 2.4855,11.6866 3.31742,11.6866 " class="fil53"
           transform="translate(-3.947083,-3.86435)"/>
  <polygon style="fill:#007cbf" id="polygon192"
           points="3.31742,11.8686 2.4855,11.8686 2.4855,11.7775 3.31742,11.7775 " class="fil53"
           transform="translate(-3.947083,-3.86435)"/>
  <polygon style="fill:#007dc0" id="polygon194"
           points="3.31742,11.9595 2.4855,11.9595 2.4855,11.8686 3.31742,11.8686 " class="fil54"
           transform="translate(-3.947083,-3.86435)"/>
  <polygon style="fill:#007fc2" id="polygon196"
           points="3.31742,12.0504 2.4855,12.0504 2.4855,11.9595 3.31742,11.9595 " class="fil55"
           transform="translate(-3.947083,-3.86435)"/>
  <polygon style="fill:#007fc2" id="polygon198"
           points="3.31742,12.1413 2.4855,12.1413 2.4855,12.0504 3.31742,12.0504 " class="fil55"
           transform="translate(-3.947083,-3.86435)"/>
  <polygon style="fill:#0080c3" id="polygon200"
           points="3.31742,12.2324 2.4855,12.2324 2.4855,12.1413 3.31742,12.1413 " class="fil56"
           transform="translate(-3.947083,-3.86435)"/>
  <polygon style="fill:#0080c3" id="polygon202"
           points="3.31742,12.3233 2.4855,12.3233 2.4855,12.2324 3.31742,12.2324 " class="fil56"
           transform="translate(-3.947083,-3.86435)"/>
  <polygon style="fill:#0081c4" id="polygon204"
           points="3.31742,12.4142 2.4855,12.4142 2.4855,12.3233 3.31742,12.3233 " class="fil57"
           transform="translate(-3.947083,-3.86435)"/>
  <polygon style="fill:#0081c4" id="polygon206"
           points="3.31742,12.5053 2.4855,12.5053 2.4855,12.4142 3.31742,12.4142 " class="fil57"
           transform="translate(-3.947083,-3.86435)"/>
  <polygon style="fill:#0082c6" id="polygon208"
           points="3.31742,12.5962 2.4855,12.5962 2.4855,12.5053 3.31742,12.5053 " class="fil58"
           transform="translate(-3.947083,-3.86435)"/>
  <polygon style="fill:#0083c7" id="polygon210"
           points="3.31742,12.6871 2.4855,12.6871 2.4855,12.5962 3.31742,12.5962 " class="fil59"
           transform="translate(-3.947083,-3.86435)"/>
  <polygon style="fill:#0083c7" id="polygon212"
           points="3.31742,12.7782 2.4855,12.7782 2.4855,12.6871 3.31742,12.6871 " class="fil59"
           transform="translate(-3.947083,-3.86435)"/>
  <polygon style="fill:#0085c8" id="polygon214"
           points="3.31742,12.8691 2.4855,12.8691 2.4855,12.7782 3.31742,12.7782 " class="fil60"
           transform="translate(-3.947083,-3.86435)"/>
  <polygon style="fill:#0085c9" id="polygon216" points="3.31742,12.96 2.4855,12.96 2.4855,12.8691 3.31742,12.8691 "
           class="fil61" transform="translate(-3.947083,-3.86435)"/>
  <polygon style="fill:#0085c9" id="polygon218" points="3.31742,13.0509 2.4855,13.0509 2.4855,12.96 3.31742,12.96 "
           class="fil61" transform="translate(-3.947083,-3.86435)"/>
  <polygon style="fill:#0087cb" id="polygon220" points="3.31742,13.142 2.4855,13.142 2.4855,13.0509 3.31742,13.0509 "
           class="fil62" transform="translate(-3.947083,-3.86435)"/>
  <polygon style="fill:#0087cb" id="polygon222" points="3.31742,13.2329 2.4855,13.2329 2.4855,13.142 3.31742,13.142 "
           class="fil62" transform="translate(-3.947083,-3.86435)"/>
  <polygon style="fill:#0088cc" id="polygon224"
           points="3.31742,13.3238 2.4855,13.3238 2.4855,13.2329 3.31742,13.2329 " class="fil63"
           transform="translate(-3.947083,-3.86435)"/>
  <polygon style="fill:#0088cc" id="polygon226"
           points="3.31742,13.4148 2.4855,13.4148 2.4855,13.3238 3.31742,13.3238 " class="fil63"
           transform="translate(-3.947083,-3.86435)"/>
  <polygon style="fill:#0089cd" id="polygon228"
           points="3.31742,13.5058 2.4855,13.5058 2.4855,13.4148 3.31742,13.4148 " class="fil64"
           transform="translate(-3.947083,-3.86435)"/>
  <polygon style="fill:#0089cd" id="polygon230"
           points="3.31742,13.5967 2.4855,13.5967 2.4855,13.5058 3.31742,13.5058 " class="fil64"
           transform="translate(-3.947083,-3.86435)"/>
  <polygon style="fill:#008ace" id="polygon232"
           points="3.31742,13.6876 2.4855,13.6876 2.4855,13.5967 3.31742,13.5967 " class="fil65"
           transform="translate(-3.947083,-3.86435)"/>
  <polygon style="fill:#008bd0" id="polygon234"
           points="3.31742,13.7787 2.4855,13.7787 2.4855,13.6876 3.31742,13.6876 " class="fil66"
           transform="translate(-3.947083,-3.86435)"/>
  <polygon style="fill:#008bd0" id="polygon236"
           points="3.31742,13.8696 2.4855,13.8696 2.4855,13.7787 3.31742,13.7787 " class="fil66"
           transform="translate(-3.947083,-3.86435)"/>
  <polygon style="fill:#008cd1" id="polygon238"
           points="3.31742,13.9605 2.4855,13.9605 2.4855,13.8696 3.31742,13.8696 " class="fil67"
           transform="translate(-3.947083,-3.86435)"/>
  <polygon style="fill:#008ed3" id="polygon240"
           points="3.31742,14.0515 2.4855,14.0515 2.4855,13.9605 3.31742,13.9605 " class="fil68"
           transform="translate(-3.947083,-3.86435)"/>
  <polygon style="fill:#008ed3" id="polygon242"
           points="3.31742,14.1425 2.4855,14.1425 2.4855,14.0515 3.31742,14.0515 " class="fil68"
           transform="translate(-3.947083,-3.86435)"/>
  <polygon style="fill:#008ed4" id="polygon244"
           points="3.31742,14.2334 2.4855,14.2334 2.4855,14.1425 3.31742,14.1425 " class="fil69"
           transform="translate(-3.947083,-3.86435)"/>
  <polygon style="fill:#008ed4" id="polygon246"
           points="3.31742,14.3243 2.4855,14.3243 2.4855,14.2334 3.31742,14.2334 " class="fil69"
           transform="translate(-3.947083,-3.86435)"/>
  <polygon style="fill:#008fd5" id="polygon248"
           points="3.31742,14.4153 2.4855,14.4153 2.4855,14.3243 3.31742,14.3243 " class="fil70"
           transform="translate(-3.947083,-3.86435)"/>
  <polygon style="fill:#008fd5" id="polygon250"
           points="3.31742,14.5063 2.4855,14.5063 2.4855,14.4153 3.31742,14.4153 " class="fil70"
           transform="translate(-3.947083,-3.86435)"/>
  <polygon style="fill:#0091d7" id="polygon252"
           points="3.31742,14.5972 2.4855,14.5972 2.4855,14.5063 3.31742,14.5063 " class="fil71"
           transform="translate(-3.947083,-3.86435)"/>
  <polygon style="fill:#0092d8" id="polygon254"
           points="3.31742,14.6882 2.4855,14.6882 2.4855,14.5972 3.31742,14.5972 " class="fil72"
           transform="translate(-3.947083,-3.86435)"/>
  <polygon style="fill:#0092d8" id="polygon256"
           points="3.31742,14.7792 2.4855,14.7792 2.4855,14.6882 3.31742,14.6882 " class="fil72"
           transform="translate(-3.947083,-3.86435)"/>
  <polygon style="fill:#0093da" id="polygon258"
           points="3.31742,14.8701 2.4855,14.8701 2.4855,14.7792 3.31742,14.7792 " class="fil73"
           transform="translate(-3.947083,-3.86435)"/>
  <polygon style="fill:#0093da" id="polygon260"
           points="3.31742,14.9611 2.4855,14.9611 2.4855,14.8701 3.31742,14.8701 " class="fil73"
           transform="translate(-3.947083,-3.86435)"/>
  <polygon style="fill:#0094db" id="polygon262" points="3.31742,15.052 2.4855,15.052 2.4855,14.9611 3.31742,14.9611 "
           class="fil74" transform="translate(-3.947083,-3.86435)"/>
  <polygon style="fill:#0095dd" id="polygon264" points="3.31742,15.143 2.4855,15.143 2.4855,15.052 3.31742,15.052 "
           class="fil75" transform="translate(-3.947083,-3.86435)"/>
  <polygon style="fill:#0095dd" id="polygon266" points="3.31742,15.2339 2.4855,15.2339 2.4855,15.143 3.31742,15.143 "
           class="fil75" transform="translate(-3.947083,-3.86435)"/>
  <polygon style="fill:#0096de" id="polygon268"
           points="3.31742,15.3249 2.4855,15.3249 2.4855,15.2339 3.31742,15.2339 " class="fil76"
           transform="translate(-3.947083,-3.86435)"/>
  <polygon style="fill:#0096de" id="polygon270"
           points="3.31742,15.4158 2.4855,15.4158 2.4855,15.3249 3.31742,15.3249 " class="fil76"
           transform="translate(-3.947083,-3.86435)"/>
  <polygon style="fill:#0098df" id="polygon272"
           points="3.31742,15.5067 2.4855,15.5067 2.4855,15.4158 3.31742,15.4158 " class="fil77"
           transform="translate(-3.947083,-3.86435)"/>
  <polygon style="fill:#33438a" id="polygon274" points="48.966,3.86435 69.9988,3.86435 " class="fil2"
           transform="translate(-3.947083,-3.86435)"/>
  <polygon style="fill:#33438a" id="polygon276"
           points="69.9988,3.95527 48.966,3.95527 48.966,3.86435 69.9988,3.86435 " class="fil2"
           transform="translate(-3.947083,-3.86435)"/>
  <polygon style="fill:#33438a" id="polygon278"
           points="69.9988,4.04619 48.966,4.04619 48.966,3.95527 69.9988,3.95527 " class="fil2"
           transform="translate(-3.947083,-3.86435)"/>
  <polygon style="fill:#33448b" id="polygon280"
           points="69.9988,4.13723 48.966,4.13723 48.966,4.04619 69.9988,4.04619 " class="fil3"
           transform="translate(-3.947083,-3.86435)"/>
  <polygon style="fill:#32458c" id="polygon282"
           points="69.9988,4.22815 48.966,4.22815 48.966,4.13723 69.9988,4.13723 " class="fil4"
           transform="translate(-3.947083,-3.86435)"/>
  <polygon style="fill:#32458c" id="polygon284"
           points="69.9988,4.31908 48.966,4.31908 48.966,4.22815 69.9988,4.22815 " class="fil4"
           transform="translate(-3.947083,-3.86435)"/>
  <polygon style="fill:#31468d" id="polygon286"
           points="69.9988,4.41012 48.966,4.41012 48.966,4.31908 69.9988,4.31908 " class="fil5"
           transform="translate(-3.947083,-3.86435)"/>
  <polygon style="fill:#31488e" id="polygon288"
           points="69.9988,4.50104 48.966,4.50104 48.966,4.41012 69.9988,4.41012 " class="fil6"
           transform="translate(-3.947083,-3.86435)"/>
  <polygon style="fill:#31488e" id="polygon290"
           points="69.9988,4.59196 48.966,4.59196 48.966,4.50104 69.9988,4.50104 " class="fil6"
           transform="translate(-3.947083,-3.86435)"/>
  <polygon style="fill:#30498f" id="polygon292"
           points="69.9988,4.68288 48.966,4.68288 48.966,4.59196 69.9988,4.59196 " class="fil7"
           transform="translate(-3.947083,-3.86435)"/>
  <polygon style="fill:#30498f" id="polygon294"
           points="69.1658,4.69638 48.966,4.69638 48.966,4.68288 69.9988,4.68288 69.9988,4.77392 69.1658,4.77392 "
           class="fil7" transform="translate(-3.947083,-3.86435)"/>
  <polygon style="fill:#2f4a90" id="polygon296"
           points="69.9988,4.86485 69.1658,4.86485 69.1658,4.77392 69.9988,4.77392 " class="fil8"
           transform="translate(-3.947083,-3.86435)"/>
  <polygon style="fill:#2f4a90" id="polygon298"
           points="69.9988,4.95577 69.1658,4.95577 69.1658,4.86485 69.9988,4.86485 " class="fil8"
           transform="translate(-3.947083,-3.86435)"/>
  <polygon style="fill:#2e4c91" id="polygon300"
           points="69.9988,5.04681 69.1658,5.04681 69.1658,4.95577 69.9988,4.95577 " class="fil9"
           transform="translate(-3.947083,-3.86435)"/>
  <polygon style="fill:#2b4c92" id="polygon302"
           points="69.9988,5.13773 69.1658,5.13773 69.1658,5.04681 69.9988,5.04681 " class="fil10"
           transform="translate(-3.947083,-3.86435)"/>
  <polygon style="fill:#2b4c92" id="polygon304"
           points="69.9988,5.22865 69.1658,5.22865 69.1658,5.13773 69.9988,5.13773 " class="fil10"
           transform="translate(-3.947083,-3.86435)"/>
  <polygon style="fill:#2a4e93" id="polygon306"
           points="69.9988,5.31958 69.1658,5.31958 69.1658,5.22865 69.9988,5.22865 " class="fil11"
           transform="translate(-3.947083,-3.86435)"/>
  <polygon style="fill:#294f94" id="polygon308"
           points="69.9988,5.41062 69.1658,5.41062 69.1658,5.31958 69.9988,5.31958 " class="fil12"
           transform="translate(-3.947083,-3.86435)"/>
  <polygon style="fill:#294f94" id="polygon310"
           points="69.9988,5.50154 69.1658,5.50154 69.1658,5.41062 69.9988,5.41062 " class="fil12"
           transform="translate(-3.947083,-3.86435)"/>
  <polygon style="fill:#285095" id="polygon312"
           points="69.9988,5.59246 69.1658,5.59246 69.1658,5.50154 69.9988,5.50154 " class="fil13"
           transform="translate(-3.947083,-3.86435)"/>
  <polygon style="fill:#285095" id="polygon314"
           points="69.9988,5.6835 69.1658,5.6835 69.1658,5.59246 69.9988,5.59246 " class="fil13"
           transform="translate(-3.947083,-3.86435)"/>
  <polygon style="fill:#275196" id="polygon316"
           points="69.9988,5.77442 69.1658,5.77442 69.1658,5.6835 69.9988,5.6835 " class="fil14"
           transform="translate(-3.947083,-3.86435)"/>
  <polygon style="fill:#275196" id="polygon318"
           points="69.9988,5.86535 69.1658,5.86535 69.1658,5.77442 69.9988,5.77442 " class="fil14"
           transform="translate(-3.947083,-3.86435)"/>
  <polygon style="fill:#265297" id="polygon320"
           points="69.9988,5.95638 69.1658,5.95638 69.1658,5.86535 69.9988,5.86535 " class="fil15"
           transform="translate(-3.947083,-3.86435)"/>
  <polygon style="fill:#265297" id="polygon322"
           points="69.9988,6.04731 69.1658,6.04731 69.1658,5.95638 69.9988,5.95638 " class="fil15"
           transform="translate(-3.947083,-3.86435)"/>
  <polygon style="fill:#255398" id="polygon324"
           points="69.9988,6.13823 69.1658,6.13823 69.1658,6.04731 69.9988,6.04731 " class="fil16"
           transform="translate(-3.947083,-3.86435)"/>
  <polygon style="fill:#245599" id="polygon326"
           points="69.9988,6.22915 69.1658,6.22915 69.1658,6.13823 69.9988,6.13823 " class="fil17"
           transform="translate(-3.947083,-3.86435)"/>
  <polygon style="fill:#245599" id="polygon328"
           points="69.9988,6.32019 69.1658,6.32019 69.1658,6.22915 69.9988,6.22915 " class="fil17"
           transform="translate(-3.947083,-3.86435)"/>
  <polygon style="fill:#23569a" id="polygon330"
           points="69.9988,6.41112 69.1658,6.41112 69.1658,6.32019 69.9988,6.32019 " class="fil18"
           transform="translate(-3.947083,-3.86435)"/>
  <polygon style="fill:#22579b" id="polygon332"
           points="69.9988,6.50204 69.1658,6.50204 69.1658,6.41112 69.9988,6.41112 " class="fil19"
           transform="translate(-3.947083,-3.86435)"/>
  <polygon style="fill:#22579b" id="polygon334"
           points="69.9988,6.59308 69.1658,6.59308 69.1658,6.50204 69.9988,6.50204 " class="fil19"
           transform="translate(-3.947083,-3.86435)"/>
  <polygon style="fill:#20599c" id="polygon336" points="69.9988,6.684 69.1658,6.684 69.1658,6.59308 69.9988,6.59308 "
           class="fil20" transform="translate(-3.947083,-3.86435)"/>
  <polygon style="fill:#20599c" id="polygon338" points="69.9988,6.77492 69.1658,6.77492 69.1658,6.684 69.9988,6.684 "
           class="fil20" transform="translate(-3.947083,-3.86435)"/>
  <polygon style="fill:#1e599d" id="polygon340"
           points="69.9988,6.86585 69.1658,6.86585 69.1658,6.77492 69.9988,6.77492 " class="fil21"
           transform="translate(-3.947083,-3.86435)"/>
  <polygon style="fill:#1e599d" id="polygon342"
           points="69.9988,6.95688 69.1658,6.95688 69.1658,6.86585 69.9988,6.86585 " class="fil21"
           transform="translate(-3.947083,-3.86435)"/>
  <polygon style="fill:#1c5b9e" id="polygon344"
           points="69.9988,7.04781 69.1658,7.04781 69.1658,6.95688 69.9988,6.95688 " class="fil22"
           transform="translate(-3.947083,-3.86435)"/>
  <polygon style="fill:#1c5b9e" id="polygon346"
           points="69.9988,7.13873 69.1658,7.13873 69.1658,7.04781 69.9988,7.04781 " class="fil22"
           transform="translate(-3.947083,-3.86435)"/>
  <polygon style="fill:#1b5c9f" id="polygon348"
           points="69.9988,7.22977 69.1658,7.22977 69.1658,7.13873 69.9988,7.13873 " class="fil23"
           transform="translate(-3.947083,-3.86435)"/>
  <polygon style="fill:#185da0" id="polygon350"
           points="69.9988,7.32069 69.1658,7.32069 69.1658,7.22977 69.9988,7.22977 " class="fil24"
           transform="translate(-3.947083,-3.86435)"/>
  <polygon style="fill:#185da0" id="polygon352"
           points="69.9988,7.41162 69.1658,7.41162 69.1658,7.32069 69.9988,7.32069 " class="fil24"
           transform="translate(-3.947083,-3.86435)"/>
  <polygon style="fill:#165ea1" id="polygon354"
           points="69.9988,7.50265 69.1658,7.50265 69.1658,7.41162 69.9988,7.41162 " class="fil25"
           transform="translate(-3.947083,-3.86435)"/>
  <polygon style="fill:#135fa2" id="polygon356"
           points="69.9988,7.59358 69.1658,7.59358 69.1658,7.50265 69.9988,7.50265 " class="fil26"
           transform="translate(-3.947083,-3.86435)"/>
  <polygon style="fill:#135fa2" id="polygon358"
           points="69.9988,7.6845 69.1658,7.6845 69.1658,7.59358 69.9988,7.59358 " class="fil26"
           transform="translate(-3.947083,-3.86435)"/>
  <polygon style="fill:#1160a3" id="polygon360"
           points="69.9988,7.77542 69.1658,7.77542 69.1658,7.6845 69.9988,7.6845 " class="fil27"
           transform="translate(-3.947083,-3.86435)"/>
  <polygon style="fill:#0d62a4" id="polygon362"
           points="69.9988,7.86646 69.1658,7.86646 69.1658,7.77542 69.9988,7.77542 " class="fil28"
           transform="translate(-3.947083,-3.86435)"/>
  <polygon style="fill:#0d62a4" id="polygon364"
           points="69.9988,7.95738 69.1658,7.95738 69.1658,7.86646 69.9988,7.86646 " class="fil28"
           transform="translate(-3.947083,-3.86435)"/>
  <polygon style="fill:#0863a5" id="polygon366"
           points="69.9988,8.04831 69.1658,8.04831 69.1658,7.95738 69.9988,7.95738 " class="fil29"
           transform="translate(-3.947083,-3.86435)"/>
  <polygon style="fill:#0863a5" id="polygon368"
           points="69.9988,8.13935 69.1658,8.13935 69.1658,8.04831 69.9988,8.04831 " class="fil29"
           transform="translate(-3.947083,-3.86435)"/>
  <polygon style="fill:#0464a6" id="polygon370"
           points="69.9988,8.23027 69.1658,8.23027 69.1658,8.13935 69.9988,8.13935 " class="fil30"
           transform="translate(-3.947083,-3.86435)"/>
  <polygon style="fill:#0464a6" id="polygon372"
           points="69.9988,8.32119 69.1658,8.32119 69.1658,8.23027 69.9988,8.23027 " class="fil30"
           transform="translate(-3.947083,-3.86435)"/>
  <polygon style="fill:#0065a7" id="polygon374"
           points="69.9988,8.41212 69.1658,8.41212 69.1658,8.32119 69.9988,8.32119 " class="fil31"
           transform="translate(-3.947083,-3.86435)"/>
  <polygon style="fill:#0065a8" id="polygon376"
           points="69.9988,8.50315 69.1658,8.50315 69.1658,8.41212 69.9988,8.41212 " class="fil32"
           transform="translate(-3.947083,-3.86435)"/>
  <polygon style="fill:#0065a8" id="polygon378"
           points="69.9988,8.59408 69.1658,8.59408 69.1658,8.50315 69.9988,8.50315 " class="fil32"
           transform="translate(-3.947083,-3.86435)"/>
  <polygon style="fill:#0067a9" id="polygon380" points="69.9988,8.685 69.1658,8.685 69.1658,8.59408 69.9988,8.59408 "
           class="fil33" transform="translate(-3.947083,-3.86435)"/>
  <polygon style="fill:#0067a9" id="polygon382" points="69.9988,8.77604 69.1658,8.77604 69.1658,8.685 69.9988,8.685 "
           class="fil33" transform="translate(-3.947083,-3.86435)"/>
  <polygon style="fill:#0068aa" id="polygon384"
           points="69.9988,8.86696 69.1658,8.86696 69.1658,8.77604 69.9988,8.77604 " class="fil34"
           transform="translate(-3.947083,-3.86435)"/>
  <polygon style="fill:#0069ab" id="polygon386"
           points="69.9988,8.95788 69.1658,8.95788 69.1658,8.86696 69.9988,8.86696 " class="fil35"
           transform="translate(-3.947083,-3.86435)"/>
  <polygon style="fill:#0069ab" id="polygon388"
           points="69.9988,9.04881 69.1658,9.04881 69.1658,8.95788 69.9988,8.95788 " class="fil35"
           transform="translate(-3.947083,-3.86435)"/>
  <polygon style="fill:#006aac" id="polygon390"
           points="69.9988,9.13985 69.1658,9.13985 69.1658,9.04881 69.9988,9.04881 " class="fil36"
           transform="translate(-3.947083,-3.86435)"/>
  <polygon style="fill:#006aac" id="polygon392"
           points="69.9988,9.23077 69.1658,9.23077 69.1658,9.13985 69.9988,9.13985 " class="fil36"
           transform="translate(-3.947083,-3.86435)"/>
  <polygon style="fill:#006bad" id="polygon394"
           points="48.966,9.26954 69.1658,9.26954 69.1658,9.23077 69.9988,9.23077 69.9988,9.32169 48.966,9.32169 "
           class="fil37" transform="translate(-3.947083,-3.86435)"/>
  <polygon style="fill:#006bad" id="polygon396"
           points="69.9988,9.41273 48.966,9.41273 48.966,9.32169 69.9988,9.32169 " class="fil37"
           transform="translate(-3.947083,-3.86435)"/>
  <polygon style="fill:#006caf" id="polygon398"
           points="69.9988,9.50365 48.966,9.50365 48.966,9.41273 69.9988,9.41273 " class="fil38"
           transform="translate(-3.947083,-3.86435)"/>
  <polygon style="fill:#006daf" id="polygon400"
           points="69.9988,9.59458 48.966,9.59458 48.966,9.50365 69.9988,9.50365 " class="fil39"
           transform="translate(-3.947083,-3.86435)"/>
  <polygon style="fill:#006daf" id="polygon402"
           points="69.9988,9.68562 48.966,9.68562 48.966,9.59458 69.9988,9.59458 " class="fil39"
           transform="translate(-3.947083,-3.86435)"/>
  <polygon style="fill:#006fb1" id="polygon404"
           points="69.9988,9.77654 48.966,9.77654 48.966,9.68562 69.9988,9.68562 " class="fil40"
           transform="translate(-3.947083,-3.86435)"/>
  <polygon style="fill:#006fb2" id="polygon406"
           points="69.9988,9.86746 48.966,9.86746 48.966,9.77654 69.9988,9.77654 " class="fil41"
           transform="translate(-3.947083,-3.86435)"/>
  <polygon style="fill:#006fb2" id="polygon408"
           points="69.9988,9.95838 48.966,9.95838 48.966,9.86746 69.9988,9.86746 " class="fil41"
           transform="translate(-3.947083,-3.86435)"/>
  <polygon style="fill:#0071b3" id="polygon410"
           points="69.9988,10.0494 48.966,10.0494 48.966,9.95838 69.9988,9.95838 " class="fil42"
           transform="translate(-3.947083,-3.86435)"/>
  <polygon style="fill:#0071b3" id="polygon412"
           points="49.798,10.1403 48.966,10.1403 48.966,10.0494 69.9988,10.0494 69.9988,10.1015 49.798,10.1015 "
           class="fil42" transform="translate(-3.947083,-3.86435)"/>
  <polygon style="fill:#0072b4" id="polygon414" points="49.798,10.2313 48.966,10.2313 48.966,10.1403 49.798,10.1403 "
           class="fil43" transform="translate(-3.947083,-3.86435)"/>
  <polygon style="fill:#0072b4" id="polygon416" points="49.798,10.3223 48.966,10.3223 48.966,10.2313 49.798,10.2313 "
           class="fil43" transform="translate(-3.947083,-3.86435)"/>
  <polygon style="fill:#0073b5" id="polygon418" points="49.798,10.4132 48.966,10.4132 48.966,10.3223 49.798,10.3223 "
           class="fil44" transform="translate(-3.947083,-3.86435)"/>
  <polygon style="fill:#0073b5" id="polygon420" points="49.798,10.5042 48.966,10.5042 48.966,10.4132 49.798,10.4132 "
           class="fil44" transform="translate(-3.947083,-3.86435)"/>
  <polygon style="fill:#0074b6" id="polygon422" points="49.798,10.5951 48.966,10.5951 48.966,10.5042 49.798,10.5042 "
           class="fil45" transform="translate(-3.947083,-3.86435)"/>
  <polygon style="fill:#0075b7" id="polygon424" points="49.798,10.6861 48.966,10.6861 48.966,10.5951 49.798,10.5951 "
           class="fil46" transform="translate(-3.947083,-3.86435)"/>
  <polygon style="fill:#0075b7" id="polygon426" points="49.798,10.777 48.966,10.777 48.966,10.6861 49.798,10.6861 "
           class="fil46" transform="translate(-3.947083,-3.86435)"/>
  <polygon style="fill:#0075b8" id="polygon428" points="49.798,10.868 48.966,10.868 48.966,10.777 49.798,10.777 "
           class="fil47" transform="translate(-3.947083,-3.86435)"/>
  <polygon style="fill:#0077b9" id="polygon430" points="49.798,10.959 48.966,10.959 48.966,10.868 49.798,10.868 "
           class="fil48" transform="translate(-3.947083,-3.86435)"/>
  <polygon style="fill:#0077b9" id="polygon432" points="49.798,11.0499 48.966,11.0499 48.966,10.959 49.798,10.959 "
           class="fil48" transform="translate(-3.947083,-3.86435)"/>
  <polygon style="fill:#0078bb" id="polygon434" points="49.798,11.1408 48.966,11.1408 48.966,11.0499 49.798,11.0499 "
           class="fil49" transform="translate(-3.947083,-3.86435)"/>
  <polygon style="fill:#0078bb" id="polygon436" points="49.798,11.2319 48.966,11.2319 48.966,11.1408 49.798,11.1408 "
           class="fil49" transform="translate(-3.947083,-3.86435)"/>
  <polygon style="fill:#0079bb" id="polygon438" points="49.798,11.3228 48.966,11.3228 48.966,11.2319 49.798,11.2319 "
           class="fil50" transform="translate(-3.947083,-3.86435)"/>
  <polygon style="fill:#0079bb" id="polygon440" points="49.798,11.4137 48.966,11.4137 48.966,11.3228 49.798,11.3228 "
           class="fil50" transform="translate(-3.947083,-3.86435)"/>
  <polygon style="fill:#007abd" id="polygon442" points="49.798,11.5047 48.966,11.5047 48.966,11.4137 49.798,11.4137 "
           class="fil51" transform="translate(-3.947083,-3.86435)"/>
  <polygon style="fill:#007bbe" id="polygon444" points="49.798,11.5957 48.966,11.5957 48.966,11.5047 49.798,11.5047 "
           class="fil52" transform="translate(-3.947083,-3.86435)"/>
  <polygon style="fill:#007bbe" id="polygon446" points="49.798,11.6866 48.966,11.6866 48.966,11.5957 49.798,11.5957 "
           class="fil52" transform="translate(-3.947083,-3.86435)"/>
  <polygon style="fill:#007cbf" id="polygon448" points="49.798,11.7775 48.966,11.7775 48.966,11.6866 49.798,11.6866 "
           class="fil53" transform="translate(-3.947083,-3.86435)"/>
  <polygon style="fill:#007cbf" id="polygon450" points="49.798,11.8686 48.966,11.8686 48.966,11.7775 49.798,11.7775 "
           class="fil53" transform="translate(-3.947083,-3.86435)"/>
  <polygon style="fill:#007dc0" id="polygon452" points="49.798,11.9595 48.966,11.9595 48.966,11.8686 49.798,11.8686 "
           class="fil54" transform="translate(-3.947083,-3.86435)"/>
  <polygon style="fill:#007fc2" id="polygon454" points="49.798,12.0504 48.966,12.0504 48.966,11.9595 49.798,11.9595 "
           class="fil55" transform="translate(-3.947083,-3.86435)"/>
  <polygon style="fill:#007fc2" id="polygon456" points="49.798,12.1413 48.966,12.1413 48.966,12.0504 49.798,12.0504 "
           class="fil55" transform="translate(-3.947083,-3.86435)"/>
  <polygon style="fill:#0080c3" id="polygon458" points="49.798,12.2324 48.966,12.2324 48.966,12.1413 49.798,12.1413 "
           class="fil56" transform="translate(-3.947083,-3.86435)"/>
  <polygon style="fill:#0080c3" id="polygon460" points="49.798,12.3233 48.966,12.3233 48.966,12.2324 49.798,12.2324 "
           class="fil56" transform="translate(-3.947083,-3.86435)"/>
  <polygon style="fill:#0081c4" id="polygon462" points="49.798,12.4142 48.966,12.4142 48.966,12.3233 49.798,12.3233 "
           class="fil57" transform="translate(-3.947083,-3.86435)"/>
  <polygon style="fill:#0081c4" id="polygon464" points="49.798,12.5053 48.966,12.5053 48.966,12.4142 49.798,12.4142 "
           class="fil57" transform="translate(-3.947083,-3.86435)"/>
  <polygon style="fill:#0082c6" id="polygon466" points="49.798,12.5962 48.966,12.5962 48.966,12.5053 49.798,12.5053 "
           class="fil58" transform="translate(-3.947083,-3.86435)"/>
  <polygon style="fill:#0083c7" id="polygon468" points="49.798,12.6871 48.966,12.6871 48.966,12.5962 49.798,12.5962 "
           class="fil59" transform="translate(-3.947083,-3.86435)"/>
  <polygon style="fill:#0083c7" id="polygon470" points="49.798,12.7782 48.966,12.7782 48.966,12.6871 49.798,12.6871 "
           class="fil59" transform="translate(-3.947083,-3.86435)"/>
  <polygon style="fill:#0085c8" id="polygon472" points="49.798,12.8691 48.966,12.8691 48.966,12.7782 49.798,12.7782 "
           class="fil60" transform="translate(-3.947083,-3.86435)"/>
  <polygon style="fill:#0085c9" id="polygon474" points="49.798,12.96 48.966,12.96 48.966,12.8691 49.798,12.8691 "
           class="fil61" transform="translate(-3.947083,-3.86435)"/>
  <polygon style="fill:#0085c9" id="polygon476" points="49.798,13.0509 48.966,13.0509 48.966,12.96 49.798,12.96 "
           class="fil61" transform="translate(-3.947083,-3.86435)"/>
  <polygon style="fill:#0087cb" id="polygon478" points="49.798,13.142 48.966,13.142 48.966,13.0509 49.798,13.0509 "
           class="fil62" transform="translate(-3.947083,-3.86435)"/>
  <polygon style="fill:#0087cb" id="polygon480" points="49.798,13.2329 48.966,13.2329 48.966,13.142 49.798,13.142 "
           class="fil62" transform="translate(-3.947083,-3.86435)"/>
  <polygon style="fill:#0088cc" id="polygon482" points="49.798,13.3238 48.966,13.3238 48.966,13.2329 49.798,13.2329 "
           class="fil63" transform="translate(-3.947083,-3.86435)"/>
  <polygon style="fill:#0088cc" id="polygon484" points="49.798,13.4148 48.966,13.4148 48.966,13.3238 49.798,13.3238 "
           class="fil63" transform="translate(-3.947083,-3.86435)"/>
  <polygon style="fill:#0089cd" id="polygon486" points="49.798,13.5058 48.966,13.5058 48.966,13.4148 49.798,13.4148 "
           class="fil64" transform="translate(-3.947083,-3.86435)"/>
  <polygon style="fill:#0089cd" id="polygon488" points="49.798,13.5967 48.966,13.5967 48.966,13.5058 49.798,13.5058 "
           class="fil64" transform="translate(-3.947083,-3.86435)"/>
  <polygon style="fill:#008ace" id="polygon490" points="49.798,13.6876 48.966,13.6876 48.966,13.5967 49.798,13.5967 "
           class="fil65" transform="translate(-3.947083,-3.86435)"/>
  <polygon style="fill:#008bd0" id="polygon492" points="49.798,13.7787 48.966,13.7787 48.966,13.6876 49.798,13.6876 "
           class="fil66" transform="translate(-3.947083,-3.86435)"/>
  <polygon style="fill:#008bd0" id="polygon494" points="49.798,13.8696 48.966,13.8696 48.966,13.7787 49.798,13.7787 "
           class="fil66" transform="translate(-3.947083,-3.86435)"/>
  <polygon style="fill:#008cd1" id="polygon496" points="49.798,13.9605 48.966,13.9605 48.966,13.8696 49.798,13.8696 "
           class="fil67" transform="translate(-3.947083,-3.86435)"/>
  <polygon style="fill:#008ed3" id="polygon498" points="49.798,14.0515 48.966,14.0515 48.966,13.9605 49.798,13.9605 "
           class="fil68" transform="translate(-3.947083,-3.86435)"/>
  <polygon style="fill:#008ed3" id="polygon500" points="49.798,14.1425 48.966,14.1425 48.966,14.0515 49.798,14.0515 "
           class="fil68" transform="translate(-3.947083,-3.86435)"/>
  <polygon style="fill:#008ed4" id="polygon502" points="49.798,14.2334 48.966,14.2334 48.966,14.1425 49.798,14.1425 "
           class="fil69" transform="translate(-3.947083,-3.86435)"/>
  <polygon style="fill:#008ed4" id="polygon504" points="49.798,14.3243 48.966,14.3243 48.966,14.2334 49.798,14.2334 "
           class="fil69" transform="translate(-3.947083,-3.86435)"/>
  <polygon style="fill:#008fd5" id="polygon506" points="49.798,14.4153 48.966,14.4153 48.966,14.3243 49.798,14.3243 "
           class="fil70" transform="translate(-3.947083,-3.86435)"/>
  <polygon style="fill:#008fd5" id="polygon508" points="49.798,14.5063 48.966,14.5063 48.966,14.4153 49.798,14.4153 "
           class="fil70" transform="translate(-3.947083,-3.86435)"/>
  <polygon style="fill:#0091d7" id="polygon510" points="49.798,14.5972 48.966,14.5972 48.966,14.5063 49.798,14.5063 "
           class="fil71" transform="translate(-3.947083,-3.86435)"/>
  <path style="fill:#0092d8" id="path512"
        d="m 45.018917,10.73285 h 0.832038 v 0.07754 h 20.2007 v 0.0135 h -21.0328 v -0.09104 z m 21.0328,0.03588 v 0.04165"
        class="fil72"/>
  <polygon style="fill:#0092d8" id="polygon514"
           points="69.9988,14.7792 48.966,14.7792 48.966,14.6882 69.9988,14.6882 " class="fil72"
           transform="translate(-3.947083,-3.86435)"/>
  <polygon style="fill:#0093da" id="polygon516"
           points="69.9988,14.8701 48.966,14.8701 48.966,14.7792 69.9988,14.7792 " class="fil73"
           transform="translate(-3.947083,-3.86435)"/>
  <polygon style="fill:#0093da" id="polygon518"
           points="69.9988,14.9611 48.966,14.9611 48.966,14.8701 69.9988,14.8701 " class="fil73"
           transform="translate(-3.947083,-3.86435)"/>
  <polygon style="fill:#0094db" id="polygon520" points="69.9988,15.052 48.966,15.052 48.966,14.9611 69.9988,14.9611 "
           class="fil74" transform="translate(-3.947083,-3.86435)"/>
  <polygon style="fill:#0095dd" id="polygon522" points="69.9988,15.143 48.966,15.143 48.966,15.052 69.9988,15.052 "
           class="fil75" transform="translate(-3.947083,-3.86435)"/>
  <polygon style="fill:#0095dd" id="polygon524" points="69.9988,15.2339 48.966,15.2339 48.966,15.143 69.9988,15.143 "
           class="fil75" transform="translate(-3.947083,-3.86435)"/>
  <polygon style="fill:#0096de" id="polygon526"
           points="69.9988,15.3249 48.966,15.3249 48.966,15.2339 69.9988,15.2339 " class="fil76"
           transform="translate(-3.947083,-3.86435)"/>
  <polygon style="fill:#0096de" id="polygon528"
           points="69.9988,15.4158 48.966,15.4158 48.966,15.3249 69.9988,15.3249 " class="fil76"
           transform="translate(-3.947083,-3.86435)"/>
  <polygon style="fill:#0098df" id="polygon530"
           points="69.9988,15.5067 48.966,15.5067 48.966,15.4158 69.9988,15.4158 " class="fil77"
           transform="translate(-3.947083,-3.86435)"/>
  <polygon style="fill:#33438a" id="polygon532"
           points="45.8488,3.95527 34.2474,3.95527 34.2474,3.86435 45.8488,3.86435 " class="fil2"
           transform="translate(-3.947083,-3.86435)"/>
  <polygon style="fill:#33438a" id="polygon534"
           points="45.8488,4.04619 34.2474,4.04619 34.2474,3.95527 45.8488,3.95527 " class="fil2"
           transform="translate(-3.947083,-3.86435)"/>
  <polygon style="fill:#33448b" id="polygon536"
           points="45.8488,4.13723 34.2474,4.13723 34.2474,4.04619 45.8488,4.04619 " class="fil3"
           transform="translate(-3.947083,-3.86435)"/>
  <polygon style="fill:#32458c" id="polygon538"
           points="45.8488,4.22815 34.2474,4.22815 34.2474,4.13723 45.8488,4.13723 " class="fil4"
           transform="translate(-3.947083,-3.86435)"/>
  <polygon style="fill:#32458c" id="polygon540"
           points="45.8488,4.31908 34.2474,4.31908 34.2474,4.22815 45.8488,4.22815 " class="fil4"
           transform="translate(-3.947083,-3.86435)"/>
  <polygon style="fill:#31468d" id="polygon542"
           points="45.8488,4.41012 34.2474,4.41012 34.2474,4.31908 45.8488,4.31908 " class="fil5"
           transform="translate(-3.947083,-3.86435)"/>
  <polygon style="fill:#31488e" id="polygon544"
           points="45.8488,4.50104 34.2474,4.50104 34.2474,4.41012 45.8488,4.41012 " class="fil6"
           transform="translate(-3.947083,-3.86435)"/>
  <polygon style="fill:#31488e" id="polygon546"
           points="45.8488,4.59196 34.2474,4.59196 34.2474,4.50104 45.8488,4.50104 " class="fil6"
           transform="translate(-3.947083,-3.86435)"/>
  <polygon style="fill:#30498f" id="polygon548"
           points="45.8488,4.68288 34.2474,4.68288 34.2474,4.59196 45.8488,4.59196 " class="fil7"
           transform="translate(-3.947083,-3.86435)"/>
  <polygon style="fill:#30498f" id="polygon550"
           points="35.1198,4.77392 34.2474,4.77392 34.2474,4.68288 45.8488,4.68288 45.8488,4.69638 35.1198,4.69638 "
           class="fil7" transform="translate(-3.947083,-3.86435)"/>
  <polygon style="fill:#2f4a90" id="polygon552"
           points="35.1198,4.86485 34.2474,4.86485 34.2474,4.77392 35.1198,4.77392 " class="fil8"
           transform="translate(-3.947083,-3.86435)"/>
  <polygon style="fill:#2f4a90" id="polygon554"
           points="35.1198,4.95577 34.2474,4.95577 34.2474,4.86485 35.1198,4.86485 " class="fil8"
           transform="translate(-3.947083,-3.86435)"/>
  <polygon style="fill:#2e4c91" id="polygon556"
           points="35.1198,5.04681 34.2474,5.04681 34.2474,4.95577 35.1198,4.95577 " class="fil9"
           transform="translate(-3.947083,-3.86435)"/>
  <polygon style="fill:#2b4c92" id="polygon558"
           points="35.1198,5.13773 34.2474,5.13773 34.2474,5.04681 35.1198,5.04681 " class="fil10"
           transform="translate(-3.947083,-3.86435)"/>
  <polygon style="fill:#2b4c92" id="polygon560"
           points="35.1198,5.22865 34.2474,5.22865 34.2474,5.13773 35.1198,5.13773 " class="fil10"
           transform="translate(-3.947083,-3.86435)"/>
  <polygon style="fill:#2a4e93" id="polygon562"
           points="35.1198,5.31958 34.2474,5.31958 34.2474,5.22865 35.1198,5.22865 " class="fil11"
           transform="translate(-3.947083,-3.86435)"/>
  <polygon style="fill:#294f94" id="polygon564"
           points="35.1198,5.41062 34.2474,5.41062 34.2474,5.31958 35.1198,5.31958 " class="fil12"
           transform="translate(-3.947083,-3.86435)"/>
  <polygon style="fill:#294f94" id="polygon566"
           points="35.1198,5.50154 34.2474,5.50154 34.2474,5.41062 35.1198,5.41062 " class="fil12"
           transform="translate(-3.947083,-3.86435)"/>
  <polygon style="fill:#285095" id="polygon568"
           points="35.1198,5.59246 34.2474,5.59246 34.2474,5.50154 35.1198,5.50154 " class="fil13"
           transform="translate(-3.947083,-3.86435)"/>
  <polygon style="fill:#285095" id="polygon570"
           points="35.1198,5.6835 34.2474,5.6835 34.2474,5.59246 35.1198,5.59246 " class="fil13"
           transform="translate(-3.947083,-3.86435)"/>
  <polygon style="fill:#275196" id="polygon572"
           points="35.1198,5.77442 34.2474,5.77442 34.2474,5.6835 35.1198,5.6835 " class="fil14"
           transform="translate(-3.947083,-3.86435)"/>
  <polygon style="fill:#275196" id="polygon574"
           points="35.1198,5.86535 34.2474,5.86535 34.2474,5.77442 35.1198,5.77442 " class="fil14"
           transform="translate(-3.947083,-3.86435)"/>
  <polygon style="fill:#265297" id="polygon576"
           points="35.1198,5.95638 34.2474,5.95638 34.2474,5.86535 35.1198,5.86535 " class="fil15"
           transform="translate(-3.947083,-3.86435)"/>
  <polygon style="fill:#265297" id="polygon578"
           points="35.1198,6.04731 34.2474,6.04731 34.2474,5.95638 35.1198,5.95638 " class="fil15"
           transform="translate(-3.947083,-3.86435)"/>
  <polygon style="fill:#255398" id="polygon580"
           points="35.1198,6.13823 34.2474,6.13823 34.2474,6.04731 35.1198,6.04731 " class="fil16"
           transform="translate(-3.947083,-3.86435)"/>
  <polygon style="fill:#245599" id="polygon582"
           points="35.1198,6.22915 34.2474,6.22915 34.2474,6.13823 35.1198,6.13823 " class="fil17"
           transform="translate(-3.947083,-3.86435)"/>
  <polygon style="fill:#245599" id="polygon584"
           points="35.1198,6.32019 34.2474,6.32019 34.2474,6.22915 35.1198,6.22915 " class="fil17"
           transform="translate(-3.947083,-3.86435)"/>
  <polygon style="fill:#23569a" id="polygon586"
           points="35.1198,6.41112 34.2474,6.41112 34.2474,6.32019 35.1198,6.32019 " class="fil18"
           transform="translate(-3.947083,-3.86435)"/>
  <polygon style="fill:#22579b" id="polygon588"
           points="35.1198,6.50204 34.2474,6.50204 34.2474,6.41112 35.1198,6.41112 " class="fil19"
           transform="translate(-3.947083,-3.86435)"/>
  <polygon style="fill:#22579b" id="polygon590"
           points="35.1198,6.59308 34.2474,6.59308 34.2474,6.50204 35.1198,6.50204 " class="fil19"
           transform="translate(-3.947083,-3.86435)"/>
  <polygon style="fill:#20599c" id="polygon592" points="35.1198,6.684 34.2474,6.684 34.2474,6.59308 35.1198,6.59308 "
           class="fil20" transform="translate(-3.947083,-3.86435)"/>
  <polygon style="fill:#20599c" id="polygon594" points="35.1198,6.77492 34.2474,6.77492 34.2474,6.684 35.1198,6.684 "
           class="fil20" transform="translate(-3.947083,-3.86435)"/>
  <polygon style="fill:#1e599d" id="polygon596"
           points="35.1198,6.86585 34.2474,6.86585 34.2474,6.77492 35.1198,6.77492 " class="fil21"
           transform="translate(-3.947083,-3.86435)"/>
  <polygon style="fill:#1e599d" id="polygon598"
           points="35.1198,6.95688 34.2474,6.95688 34.2474,6.86585 35.1198,6.86585 " class="fil21"
           transform="translate(-3.947083,-3.86435)"/>
  <polygon style="fill:#1c5b9e" id="polygon600"
           points="35.1198,7.04781 34.2474,7.04781 34.2474,6.95688 35.1198,6.95688 " class="fil22"
           transform="translate(-3.947083,-3.86435)"/>
  <polygon style="fill:#1c5b9e" id="polygon602"
           points="35.1198,7.13873 34.2474,7.13873 34.2474,7.04781 35.1198,7.04781 " class="fil22"
           transform="translate(-3.947083,-3.86435)"/>
  <polygon style="fill:#1b5c9f" id="polygon604"
           points="35.1198,7.22977 34.2474,7.22977 34.2474,7.13873 35.1198,7.13873 " class="fil23"
           transform="translate(-3.947083,-3.86435)"/>
  <polygon style="fill:#185da0" id="polygon606"
           points="35.1198,7.32069 34.2474,7.32069 34.2474,7.22977 35.1198,7.22977 " class="fil24"
           transform="translate(-3.947083,-3.86435)"/>
  <polygon style="fill:#185da0" id="polygon608"
           points="35.1198,7.41162 34.2474,7.41162 34.2474,7.32069 35.1198,7.32069 " class="fil24"
           transform="translate(-3.947083,-3.86435)"/>
  <polygon style="fill:#165ea1" id="polygon610"
           points="35.1198,7.50265 34.2474,7.50265 34.2474,7.41162 35.1198,7.41162 " class="fil25"
           transform="translate(-3.947083,-3.86435)"/>
  <polygon style="fill:#135fa2" id="polygon612"
           points="35.1198,7.59358 34.2474,7.59358 34.2474,7.50265 35.1198,7.50265 " class="fil26"
           transform="translate(-3.947083,-3.86435)"/>
  <polygon style="fill:#135fa2" id="polygon614"
           points="35.1198,7.6845 34.2474,7.6845 34.2474,7.59358 35.1198,7.59358 " class="fil26"
           transform="translate(-3.947083,-3.86435)"/>
  <polygon style="fill:#1160a3" id="polygon616"
           points="35.1198,7.77542 34.2474,7.77542 34.2474,7.6845 35.1198,7.6845 " class="fil27"
           transform="translate(-3.947083,-3.86435)"/>
  <polygon style="fill:#0d62a4" id="polygon618"
           points="35.1198,7.86646 34.2474,7.86646 34.2474,7.77542 35.1198,7.77542 " class="fil28"
           transform="translate(-3.947083,-3.86435)"/>
  <polygon style="fill:#0d62a4" id="polygon620"
           points="35.1198,7.95738 34.2474,7.95738 34.2474,7.86646 35.1198,7.86646 " class="fil28"
           transform="translate(-3.947083,-3.86435)"/>
  <polygon style="fill:#0863a5" id="polygon622"
           points="35.1198,8.04831 34.2474,8.04831 34.2474,7.95738 35.1198,7.95738 " class="fil29"
           transform="translate(-3.947083,-3.86435)"/>
  <polygon style="fill:#0863a5" id="polygon624"
           points="35.1198,8.13935 34.2474,8.13935 34.2474,8.04831 35.1198,8.04831 " class="fil29"
           transform="translate(-3.947083,-3.86435)"/>
  <polygon style="fill:#0464a6" id="polygon626"
           points="35.1198,8.23027 34.2474,8.23027 34.2474,8.13935 35.1198,8.13935 " class="fil30"
           transform="translate(-3.947083,-3.86435)"/>
  <polygon style="fill:#0464a6" id="polygon628"
           points="35.1198,8.32119 34.2474,8.32119 34.2474,8.23027 35.1198,8.23027 " class="fil30"
           transform="translate(-3.947083,-3.86435)"/>
  <polygon style="fill:#0065a7" id="polygon630"
           points="35.1198,8.41212 34.2474,8.41212 34.2474,8.32119 35.1198,8.32119 " class="fil31"
           transform="translate(-3.947083,-3.86435)"/>
  <polygon style="fill:#0065a8" id="polygon632"
           points="35.1198,8.50315 34.2474,8.50315 34.2474,8.41212 35.1198,8.41212 " class="fil32"
           transform="translate(-3.947083,-3.86435)"/>
  <polygon style="fill:#0065a8" id="polygon634"
           points="35.1198,8.59408 34.2474,8.59408 34.2474,8.50315 35.1198,8.50315 " class="fil32"
           transform="translate(-3.947083,-3.86435)"/>
  <polygon style="fill:#0067a9" id="polygon636" points="35.1198,8.685 34.2474,8.685 34.2474,8.59408 35.1198,8.59408 "
           class="fil33" transform="translate(-3.947083,-3.86435)"/>
  <polygon style="fill:#0067a9" id="polygon638" points="35.1198,8.77604 34.2474,8.77604 34.2474,8.685 35.1198,8.685 "
           class="fil33" transform="translate(-3.947083,-3.86435)"/>
  <polygon style="fill:#0068aa" id="polygon640"
           points="35.1198,8.86696 34.2474,8.86696 34.2474,8.77604 35.1198,8.77604 " class="fil34"
           transform="translate(-3.947083,-3.86435)"/>
  <polygon style="fill:#0069ab" id="polygon642"
           points="35.1198,8.95788 34.2474,8.95788 34.2474,8.86696 35.1198,8.86696 " class="fil35"
           transform="translate(-3.947083,-3.86435)"/>
  <polygon style="fill:#0069ab" id="polygon644"
           points="35.1198,9.04881 34.2474,9.04881 34.2474,8.95788 35.1198,8.95788 " class="fil35"
           transform="translate(-3.947083,-3.86435)"/>
  <polygon style="fill:#006aac" id="polygon646"
           points="35.1198,9.13985 34.2474,9.13985 34.2474,9.04881 35.1198,9.04881 " class="fil36"
           transform="translate(-3.947083,-3.86435)"/>
  <polygon style="fill:#006aac" id="polygon648"
           points="35.1198,9.23077 34.2474,9.23077 34.2474,9.13985 35.1198,9.13985 " class="fil36"
           transform="translate(-3.947083,-3.86435)"/>
  <polygon style="fill:#006bad" id="polygon650"
           points="35.1198,9.32169 34.2474,9.32169 34.2474,9.23077 35.1198,9.23077 " class="fil37"
           transform="translate(-3.947083,-3.86435)"/>
  <polygon style="fill:#006bad" id="polygon652"
           points="35.1198,9.41273 34.2474,9.41273 34.2474,9.32169 35.1198,9.32169 " class="fil37"
           transform="translate(-3.947083,-3.86435)"/>
  <polygon style="fill:#006caf" id="polygon654"
           points="35.1198,9.50365 34.2474,9.50365 34.2474,9.41273 35.1198,9.41273 " class="fil38"
           transform="translate(-3.947083,-3.86435)"/>
  <polygon style="fill:#006daf" id="polygon656"
           points="35.1198,9.59458 34.2474,9.59458 34.2474,9.50365 35.1198,9.50365 " class="fil39"
           transform="translate(-3.947083,-3.86435)"/>
  <polygon style="fill:#006daf" id="polygon658"
           points="35.1198,9.68562 34.2474,9.68562 34.2474,9.59458 35.1198,9.59458 " class="fil39"
           transform="translate(-3.947083,-3.86435)"/>
  <polygon style="fill:#006fb1" id="polygon660"
           points="35.1198,9.77654 34.2474,9.77654 34.2474,9.68562 35.1198,9.68562 " class="fil40"
           transform="translate(-3.947083,-3.86435)"/>
  <polygon style="fill:#006fb2" id="polygon662"
           points="35.1198,9.86746 34.2474,9.86746 34.2474,9.77654 35.1198,9.77654 " class="fil41"
           transform="translate(-3.947083,-3.86435)"/>
  <polygon style="fill:#006fb2" id="polygon664"
           points="35.1198,9.95838 34.2474,9.95838 34.2474,9.86746 35.1198,9.86746 " class="fil41"
           transform="translate(-3.947083,-3.86435)"/>
  <polygon style="fill:#0071b3" id="polygon666"
           points="35.1198,10.0494 34.2474,10.0494 34.2474,9.95838 35.1198,9.95838 " class="fil42"
           transform="translate(-3.947083,-3.86435)"/>
  <polygon style="fill:#0071b3" id="polygon668"
           points="35.1198,10.1403 34.2474,10.1403 34.2474,10.0494 35.1198,10.0494 " class="fil42"
           transform="translate(-3.947083,-3.86435)"/>
  <polygon style="fill:#0072b4" id="polygon670"
           points="35.1198,10.2313 34.2474,10.2313 34.2474,10.1403 35.1198,10.1403 " class="fil43"
           transform="translate(-3.947083,-3.86435)"/>
  <polygon style="fill:#0072b4" id="polygon672"
           points="35.1198,10.3223 34.2474,10.3223 34.2474,10.2313 35.1198,10.2313 " class="fil43"
           transform="translate(-3.947083,-3.86435)"/>
  <polygon style="fill:#0073b5" id="polygon674"
           points="35.1198,10.4132 34.2474,10.4132 34.2474,10.3223 35.1198,10.3223 " class="fil44"
           transform="translate(-3.947083,-3.86435)"/>
  <polygon style="fill:#0073b5" id="polygon676"
           points="35.1198,10.5042 34.2474,10.5042 34.2474,10.4132 35.1198,10.4132 " class="fil44"
           transform="translate(-3.947083,-3.86435)"/>
  <polygon style="fill:#0074b6" id="polygon678"
           points="35.1198,10.5951 34.2474,10.5951 34.2474,10.5042 35.1198,10.5042 " class="fil45"
           transform="translate(-3.947083,-3.86435)"/>
  <polygon style="fill:#0075b7" id="polygon680"
           points="35.1198,10.6861 34.2474,10.6861 34.2474,10.5951 35.1198,10.5951 " class="fil46"
           transform="translate(-3.947083,-3.86435)"/>
  <polygon style="fill:#0075b7" id="polygon682"
           points="35.1198,10.777 34.2474,10.777 34.2474,10.6861 35.1198,10.6861 " class="fil46"
           transform="translate(-3.947083,-3.86435)"/>
  <polygon style="fill:#0075b8" id="polygon684" points="35.1198,10.868 34.2474,10.868 34.2474,10.777 35.1198,10.777 "
           class="fil47" transform="translate(-3.947083,-3.86435)"/>
  <polygon style="fill:#0077b9" id="polygon686" points="35.1198,10.959 34.2474,10.959 34.2474,10.868 35.1198,10.868 "
           class="fil48" transform="translate(-3.947083,-3.86435)"/>
  <polygon style="fill:#0077b9" id="polygon688"
           points="35.1198,11.0499 34.2474,11.0499 34.2474,10.959 35.1198,10.959 " class="fil48"
           transform="translate(-3.947083,-3.86435)"/>
  <polygon style="fill:#0078bb" id="polygon690"
           points="35.1198,11.1408 34.2474,11.1408 34.2474,11.0499 35.1198,11.0499 " class="fil49"
           transform="translate(-3.947083,-3.86435)"/>
  <polygon style="fill:#0078bb" id="polygon692"
           points="35.1198,11.2319 34.2474,11.2319 34.2474,11.1408 35.1198,11.1408 " class="fil49"
           transform="translate(-3.947083,-3.86435)"/>
  <polygon style="fill:#0079bb" id="polygon694"
           points="35.1198,11.3228 34.2474,11.3228 34.2474,11.2319 35.1198,11.2319 " class="fil50"
           transform="translate(-3.947083,-3.86435)"/>
  <polygon style="fill:#0079bb" id="polygon696"
           points="35.1198,11.4137 34.2474,11.4137 34.2474,11.3228 35.1198,11.3228 " class="fil50"
           transform="translate(-3.947083,-3.86435)"/>
  <polygon style="fill:#007abd" id="polygon698"
           points="35.1198,11.5047 34.2474,11.5047 34.2474,11.4137 35.1198,11.4137 " class="fil51"
           transform="translate(-3.947083,-3.86435)"/>
  <polygon style="fill:#007bbe" id="polygon700"
           points="35.1198,11.5957 34.2474,11.5957 34.2474,11.5047 35.1198,11.5047 " class="fil52"
           transform="translate(-3.947083,-3.86435)"/>
  <polygon style="fill:#007bbe" id="polygon702"
           points="35.1198,11.6866 34.2474,11.6866 34.2474,11.5957 35.1198,11.5957 " class="fil52"
           transform="translate(-3.947083,-3.86435)"/>
  <polygon style="fill:#007cbf" id="polygon704"
           points="35.1198,11.7775 34.2474,11.7775 34.2474,11.6866 35.1198,11.6866 " class="fil53"
           transform="translate(-3.947083,-3.86435)"/>
  <polygon style="fill:#007cbf" id="polygon706"
           points="35.1198,11.8686 34.2474,11.8686 34.2474,11.7775 35.1198,11.7775 " class="fil53"
           transform="translate(-3.947083,-3.86435)"/>
  <polygon style="fill:#007dc0" id="polygon708"
           points="35.1198,11.9595 34.2474,11.9595 34.2474,11.8686 35.1198,11.8686 " class="fil54"
           transform="translate(-3.947083,-3.86435)"/>
  <polygon style="fill:#007fc2" id="polygon710"
           points="35.1198,12.0504 34.2474,12.0504 34.2474,11.9595 35.1198,11.9595 " class="fil55"
           transform="translate(-3.947083,-3.86435)"/>
  <polygon style="fill:#007fc2" id="polygon712"
           points="35.1198,12.1413 34.2474,12.1413 34.2474,12.0504 35.1198,12.0504 " class="fil55"
           transform="translate(-3.947083,-3.86435)"/>
  <polygon style="fill:#0080c3" id="polygon714"
           points="35.1198,12.2324 34.2474,12.2324 34.2474,12.1413 35.1198,12.1413 " class="fil56"
           transform="translate(-3.947083,-3.86435)"/>
  <polygon style="fill:#0080c3" id="polygon716"
           points="35.1198,12.3233 34.2474,12.3233 34.2474,12.2324 35.1198,12.2324 " class="fil56"
           transform="translate(-3.947083,-3.86435)"/>
  <polygon style="fill:#0081c4" id="polygon718"
           points="35.1198,12.4142 34.2474,12.4142 34.2474,12.3233 35.1198,12.3233 " class="fil57"
           transform="translate(-3.947083,-3.86435)"/>
  <polygon style="fill:#0081c4" id="polygon720"
           points="35.1198,12.5053 34.2474,12.5053 34.2474,12.4142 35.1198,12.4142 " class="fil57"
           transform="translate(-3.947083,-3.86435)"/>
  <polygon style="fill:#0082c6" id="polygon722"
           points="35.1198,12.5962 34.2474,12.5962 34.2474,12.5053 35.1198,12.5053 " class="fil58"
           transform="translate(-3.947083,-3.86435)"/>
  <polygon style="fill:#0083c7" id="polygon724"
           points="35.1198,12.6871 34.2474,12.6871 34.2474,12.5962 35.1198,12.5962 " class="fil59"
           transform="translate(-3.947083,-3.86435)"/>
  <polygon style="fill:#0083c7" id="polygon726"
           points="35.1198,12.7782 34.2474,12.7782 34.2474,12.6871 35.1198,12.6871 " class="fil59"
           transform="translate(-3.947083,-3.86435)"/>
  <polygon style="fill:#0085c8" id="polygon728"
           points="35.1198,12.8691 34.2474,12.8691 34.2474,12.7782 35.1198,12.7782 " class="fil60"
           transform="translate(-3.947083,-3.86435)"/>
  <polygon style="fill:#0085c9" id="polygon730" points="35.1198,12.96 34.2474,12.96 34.2474,12.8691 35.1198,12.8691 "
           class="fil61" transform="translate(-3.947083,-3.86435)"/>
  <polygon style="fill:#0085c9" id="polygon732" points="35.1198,13.0509 34.2474,13.0509 34.2474,12.96 35.1198,12.96 "
           class="fil61" transform="translate(-3.947083,-3.86435)"/>
  <polygon style="fill:#0087cb" id="polygon734"
           points="35.1198,13.142 34.2474,13.142 34.2474,13.0509 35.1198,13.0509 " class="fil62"
           transform="translate(-3.947083,-3.86435)"/>
  <polygon style="fill:#0087cb" id="polygon736"
           points="35.1198,13.2329 34.2474,13.2329 34.2474,13.142 35.1198,13.142 " class="fil62"
           transform="translate(-3.947083,-3.86435)"/>
  <polygon style="fill:#0088cc" id="polygon738"
           points="35.1198,13.3238 34.2474,13.3238 34.2474,13.2329 35.1198,13.2329 " class="fil63"
           transform="translate(-3.947083,-3.86435)"/>
  <polygon style="fill:#0088cc" id="polygon740"
           points="35.1198,13.4148 34.2474,13.4148 34.2474,13.3238 35.1198,13.3238 " class="fil63"
           transform="translate(-3.947083,-3.86435)"/>
  <polygon style="fill:#0089cd" id="polygon742"
           points="35.1198,13.5058 34.2474,13.5058 34.2474,13.4148 35.1198,13.4148 " class="fil64"
           transform="translate(-3.947083,-3.86435)"/>
  <polygon style="fill:#0089cd" id="polygon744"
           points="35.1198,13.5967 34.2474,13.5967 34.2474,13.5058 35.1198,13.5058 " class="fil64"
           transform="translate(-3.947083,-3.86435)"/>
  <polygon style="fill:#008ace" id="polygon746"
           points="35.1198,13.6876 34.2474,13.6876 34.2474,13.5967 35.1198,13.5967 " class="fil65"
           transform="translate(-3.947083,-3.86435)"/>
  <polygon style="fill:#008bd0" id="polygon748"
           points="35.1198,13.7787 34.2474,13.7787 34.2474,13.6876 35.1198,13.6876 " class="fil66"
           transform="translate(-3.947083,-3.86435)"/>
  <polygon style="fill:#008bd0" id="polygon750"
           points="35.1198,13.8696 34.2474,13.8696 34.2474,13.7787 35.1198,13.7787 " class="fil66"
           transform="translate(-3.947083,-3.86435)"/>
  <polygon style="fill:#008cd1" id="polygon752"
           points="35.1198,13.9605 34.2474,13.9605 34.2474,13.8696 35.1198,13.8696 " class="fil67"
           transform="translate(-3.947083,-3.86435)"/>
  <polygon style="fill:#008ed3" id="polygon754"
           points="35.1198,14.0515 34.2474,14.0515 34.2474,13.9605 35.1198,13.9605 " class="fil68"
           transform="translate(-3.947083,-3.86435)"/>
  <polygon style="fill:#008ed3" id="polygon756"
           points="35.1198,14.1425 34.2474,14.1425 34.2474,14.0515 35.1198,14.0515 " class="fil68"
           transform="translate(-3.947083,-3.86435)"/>
  <polygon style="fill:#008ed4" id="polygon758"
           points="35.1198,14.2334 34.2474,14.2334 34.2474,14.1425 35.1198,14.1425 " class="fil69"
           transform="translate(-3.947083,-3.86435)"/>
  <polygon style="fill:#008ed4" id="polygon760"
           points="35.1198,14.3243 34.2474,14.3243 34.2474,14.2334 35.1198,14.2334 " class="fil69"
           transform="translate(-3.947083,-3.86435)"/>
  <polygon style="fill:#008fd5" id="polygon762"
           points="35.1198,14.4153 34.2474,14.4153 34.2474,14.3243 35.1198,14.3243 " class="fil70"
           transform="translate(-3.947083,-3.86435)"/>
  <polygon style="fill:#008fd5" id="polygon764"
           points="35.1198,14.5063 34.2474,14.5063 34.2474,14.4153 35.1198,14.4153 " class="fil70"
           transform="translate(-3.947083,-3.86435)"/>
  <polygon style="fill:#0091d7" id="polygon766"
           points="35.1198,14.5972 34.2474,14.5972 34.2474,14.5063 35.1198,14.5063 " class="fil71"
           transform="translate(-3.947083,-3.86435)"/>
  <polygon style="fill:#0092d8" id="polygon768"
           points="23.5185,14.6747 34.2474,14.6747 34.2474,14.5972 35.1198,14.5972 35.1198,14.6882 23.5185,14.6882 "
           class="fil72" transform="translate(-3.947083,-3.86435)"/>
  <polygon style="fill:#0092d8" id="polygon770"
           points="35.1198,14.7792 23.5185,14.7792 23.5185,14.6882 35.1198,14.6882 " class="fil72"
           transform="translate(-3.947083,-3.86435)"/>
  <polygon style="fill:#0093da" id="polygon772"
           points="35.1198,14.8701 23.5185,14.8701 23.5185,14.7792 35.1198,14.7792 " class="fil73"
           transform="translate(-3.947083,-3.86435)"/>
  <polygon style="fill:#0093da" id="polygon774"
           points="35.1198,14.9611 23.5185,14.9611 23.5185,14.8701 35.1198,14.8701 " class="fil73"
           transform="translate(-3.947083,-3.86435)"/>
  <polygon style="fill:#0094db" id="polygon776"
           points="35.1198,15.052 23.5185,15.052 23.5185,14.9611 35.1198,14.9611 " class="fil74"
           transform="translate(-3.947083,-3.86435)"/>
  <polygon style="fill:#0095dd" id="polygon778" points="35.1198,15.143 23.5185,15.143 23.5185,15.052 35.1198,15.052 "
           class="fil75" transform="translate(-3.947083,-3.86435)"/>
  <polygon style="fill:#0095dd" id="polygon780"
           points="35.1198,15.2339 23.5185,15.2339 23.5185,15.143 35.1198,15.143 " class="fil75"
           transform="translate(-3.947083,-3.86435)"/>
  <polygon style="fill:#0096de" id="polygon782"
           points="35.1198,15.3249 23.5185,15.3249 23.5185,15.2339 35.1198,15.2339 " class="fil76"
           transform="translate(-3.947083,-3.86435)"/>
  <polygon style="fill:#0096de" id="polygon784"
           points="35.1198,15.4158 23.5185,15.4158 23.5185,15.3249 35.1198,15.3249 " class="fil76"
           transform="translate(-3.947083,-3.86435)"/>
  <polygon style="fill:#0098df" id="polygon786"
           points="35.1198,15.5067 23.5185,15.5067 23.5185,15.4158 35.1198,15.4158 " class="fil77"
           transform="translate(-3.947083,-3.86435)"/>
  <path style="fill:#000000" id="path788"
        d="m 15.685517,15.69185 v 4.09465 h 0.639577 v -3.70188 h 0.592038 c 0,0 0.429115,-0.0016 0.576577,0.191077 0.124615,0.163846 0.147462,0.459692 0.147462,0.659769 0,0.214846 -0.01315,0.545192 -0.0855,0.666231 -0.108808,0.184731 -0.287077,0.221538 -0.451385,0.221538 h -0.390577 v 0.363231 h 0.561231 c 0,0 0.506654,0.02227 0.725192,-0.1995 0.267115,-0.272885 0.334731,-0.637038 0.334731,-1.12523 0,-0.445038 -0.160846,-0.892385 -0.490269,-1.04354 C 17.572171,15.69185 17.080863,15.69185 17.080863,15.69185 h -1.39535 z"
        class="fil1"/>
  <polygon style="fill:#000000" id="polygon790"
           points="23.4245,19.5562 22.784,19.5562 22.784,23.6508 23.4245,23.6508 " class="fil1"
           transform="translate(-3.947083,-3.86435)"/>
  <polygon style="fill:#000000" id="polygon792"
           points="27.321,25.2189 27.8514,25.2189 29.7839,20.5101 29.1921,20.5101 28.3499,22.8052 27.566,20.5101 26.8227,20.5101 27.9922,23.5753 "
           class="fil1" transform="translate(-3.947083,-3.86435)"/>
  <path style="fill:#000000" id="path794"
        d="m 26.318517,19.76045 v -0.386538 c 0,0 0.675692,0.02608 0.816,0.02608 0.312346,0 0.467654,-0.06669 0.584538,-0.191654 0.06935,-0.07454 0.132346,-0.409615 0.132346,-0.527885 0,-0.12 -0.02227,-0.376731 -0.069,-0.480462 -0.048,-0.103615 -0.156692,-0.1995 -0.320423,-0.213 -0.115962,-0.01062 -0.297,-0.033 -0.506423,-0.0435 -0.295269,-0.01362 -0.490154,-0.168577 -0.584769,-0.277846 -0.09254,-0.111808 -0.217731,-0.277038 -0.217731,-0.789346 0,-0.510462 0.132231,-0.796038 0.264346,-0.929769 0.133154,-0.133615 0.327692,-0.191885 0.476192,-0.217962 0.170538,-0.03 0.4515,-0.03196 0.4515,-0.03196 l 0.894923,0.02677 v 0.386423 c 0,0 -0.653077,-0.02515 -0.793154,-0.02515 -0.312346,0 -0.405923,0.06577 -0.522808,0.191077 -0.06831,0.07569 -0.122192,0.281423 -0.122192,0.401077 0,0.117692 0.01396,0.357346 0.06023,0.461077 0.04661,0.103962 0.156231,0.1995 0.319038,0.213923 0.115962,0.0088 0.297115,0.03254 0.506654,0.04269 0.296654,0.01454 0.491192,0.167654 0.584538,0.278885 0.09358,0.111231 0.218769,0.345577 0.218769,0.855923 0,0.510462 -0.133154,0.875654 -0.265385,1.00731 -0.132115,0.134654 -0.326423,0.193731 -0.475154,0.218885 -0.171577,0.03104 -0.452423,0.03104 -0.452423,0.03104 l -0.979615,-0.02608 z"
        class="fil1"/>
  <path style="fill:#000000" id="path796"
        d="m 29.804917,16.08465 h -0.638538 v 3.00462 c 0,0 0.01535,0.274038 0.03058,0.369923 0.01627,0.09681 0.156692,0.327346 0.522692,0.327346 l 0.662077,-0.01454 v -0.3855 c 0,0 -0.180115,0.0135 -0.288,0.0135 -0.109615,0 -0.243,-0.0077 -0.265269,-0.193731 -0.02354,-0.183922 -0.02354,-0.405807 -0.02354,-0.405807 v -1.76919 h 0.721038 v -0.3855 h -0.721038 v -0.561115 z"
        class="fil1"/>
  <polygon style="fill:#000000" id="polygon798"
           points="40.5572,20.5101 39.9179,20.5101 39.9179,23.6508 40.5572,23.6508 " class="fil1"
           transform="translate(-3.947083,-3.86435)"/>
  <polygon style="fill:#000000" id="polygon800"
           points="40.5572,19.5562 39.9179,19.5562 39.9179,20.1256 40.5572,20.1256 " class="fil1"
           transform="translate(-3.947083,-3.86435)"/>
  <path style="fill:#000000" id="path802"
        d="m 38.629017,16.61955 c 0.435231,0 0.772385,0.09785 0.953538,0.244154 0.183,0.147231 0.407192,0.456231 0.407192,1.35185 0,0.895846 -0.224192,1.20485 -0.407192,1.353 -0.181154,0.146308 -0.518308,0.244154 -0.953538,0.244154 -0.435346,0 -0.771923,-0.09785 -0.953538,-0.244154 -0.182077,-0.148154 -0.406846,-0.457154 -0.406846,-1.353 0,-0.895615 0.224769,-1.20462 0.406846,-1.35185 0.181615,-0.146308 0.518192,-0.244154 0.953538,-0.244154 z m -0.437308,0.602538 c -0.08815,0.107538 -0.194769,0.336 -0.194769,0.993462 0,0.659538 0.106615,0.886154 0.194769,0.993692 0.08665,0.107538 0.247962,0.180231 0.457615,0.180231 0.209769,0 0.370385,-0.07269 0.459115,-0.180231 0.08769,-0.107538 0.195115,-0.334154 0.195115,-0.993692 0,-0.657462 -0.107423,-0.885923 -0.195115,-0.993462 -0.08873,-0.107538 -0.249346,-0.179308 -0.459115,-0.179308 -0.209654,0 -0.370962,0.07177 -0.457615,0.179308 z"
        class="fil1"/>
  <path style="fill:#000000" id="path804"
        d="m 41.313817,17.08785 0.626077,-0.02665 c 0.164769,0 0.356538,0.04454 0.45,0.162231 0.08758,0.111923 0.142385,0.244615 0.142385,0.459692 v 2.0985 h 0.639692 v -2.15088 c 0,-0.407308 -0.124962,-0.643038 -0.312923,-0.791308 -0.268154,-0.213 -0.747692,-0.193731 -0.747692,-0.193731 l -1.4325,0.02712 v 3.10881 h 0.634962 v -2.69377 z"
        class="fil1"/>
  <path style="fill:#000000" id="path806"
        d="m 34.700117,16.08465 h -0.640154 v 3.00462 c 0,0 0.01523,0.274038 0.0315,0.369923 0.01523,0.09681 0.154615,0.327346 0.521538,0.327346 l 0.662538,-0.01454 v -0.3855 c 0,0 -0.179308,0.0135 -0.288231,0.0135 -0.108346,0 -0.242077,-0.0077 -0.264808,-0.193731 -0.02238,-0.183923 -0.02238,-0.405808 -0.02238,-0.405808 v -1.76919 h 0.719769 v -0.3855 H 34.70012 v -0.561115 z"
        class="fil1"/>
  <path style="fill:#000000" id="path808"
        d="m 21.901117,17.68315 c 0,-0.215077 -0.05492,-0.347769 -0.142385,-0.459692 -0.09346,-0.117692 -0.286615,-0.162231 -0.450462,-0.162231 l -0.843,0.02665 v -0.415038 l 1.01481,-0.02712 c 0,0 0.480115,-0.01927 0.748385,0.193731 0.186346,0.148269 0.312,0.384 0.312,0.791308 v 2.12088 l -1.22504,0.02619 c 0,0 -0.555231,0.0028 -0.833885,-0.111462 -0.272654,-0.110423 -0.421154,-0.414577 -0.421154,-0.835846 0,-0.406846 0.125308,-0.644077 0.312231,-0.793269 0.2685,-0.212077 0.747346,-0.191654 0.747346,-0.191654 h 0.391615 v 0.363115 h -0.219692 c -0.163846,0 -0.332885,0.03 -0.426,0.147231 -0.0885,0.112385 -0.135231,0.208269 -0.135231,0.422308 0,0.281769 0.05492,0.407769 0.187154,0.503654 0.117,0.08515 0.326423,0.103615 0.561,0.103615 l 0.422308,-0.02619 v -1.67619 z"
        class="fil1"/>
  <path style="fill:#000000" id="path810"
        d="m 32.676017,17.68315 c 0,-0.215077 -0.054,-0.347769 -0.141462,-0.459692 -0.0945,-0.117692 -0.286731,-0.162231 -0.450346,-0.162231 l -0.842192,0.02665 v -0.415038 l 1.01285,-0.02712 c 0,0 0.480115,-0.01927 0.7485,0.193731 0.187038,0.148269 0.311308,0.384 0.311308,0.791308 v 2.12088 l -1.22342,0.02619 c 0,0 -0.555231,0.0028 -0.835038,-0.111462 -0.2715,-0.110423 -0.420923,-0.414577 -0.420923,-0.835846 0,-0.406846 0.126,-0.644077 0.312,-0.793269 0.268615,-0.212077 0.748615,-0.191654 0.748615,-0.191654 h 0.390462 v 0.363115 h -0.219577 c -0.162808,0 -0.333462,0.03 -0.426231,0.147231 -0.08746,0.112385 -0.135115,0.208269 -0.135115,0.422308 0,0.281769 0.05596,0.407769 0.187154,0.503654 0.116885,0.08515 0.327346,0.103615 0.561231,0.103615 l 0.422192,-0.02619 v -1.67619 z"
        class="fil1"/>
  <path style="fill:#000000" id="path812"
        d="m 44.330317,19.81075 c 0.166615,0 0.323538,-0.06496 0.441231,-0.182077 0.117577,-0.118154 0.183,-0.275077 0.183,-0.441577 0,-0.166731 -0.06542,-0.323654 -0.183,-0.441692 -0.117692,-0.116308 -0.274615,-0.181154 -0.441231,-0.181154 -0.342923,0 -0.623192,0.279 -0.623192,0.622846 0,0.1665 0.06346,0.323423 0.183,0.441577 0.117692,0.117115 0.273115,0.182077 0.440192,0.182077 z m -0.519115,-0.623654 c 0,-0.139615 0.05423,-0.269423 0.152077,-0.367154 0.09785,-0.09785 0.228577,-0.152192 0.367038,-0.152192 0.1395,0 0.269654,0.05435 0.367154,0.152192 0.09785,0.09773 0.152885,0.227538 0.152885,0.367154 0,0.285577 -0.233308,0.518077 -0.520038,0.518077 -0.138462,0 -0.269192,-0.05331 -0.367038,-0.151154 -0.09785,-0.09877 -0.152077,-0.228462 -0.152078,-0.366923 z"
        class="fil1"/>
  <path style="fill:#000000" id="path814"
        d="m 44.638417,19.47655 c -0.0097,-0.0039 -0.01604,-0.01362 -0.02042,-0.03012 -0.0029,-0.01165 -0.0059,-0.02804 -0.0059,-0.05319 l -0.0033,-0.08815 c -0.0018,-0.04258 -0.01015,-0.0735 -0.02515,-0.09392 -0.01015,-0.01269 -0.02423,-0.02331 -0.04223,-0.03288 0.02192,-0.01465 0.04027,-0.03104 0.05435,-0.05146 0.01638,-0.02711 0.02665,-0.06277 0.02665,-0.105577 0,-0.08215 -0.03439,-0.140423 -0.103154,-0.170308 -0.03485,-0.01558 -0.078,-0.02435 -0.132231,-0.02435 h -0.321923 v 0.695538 h 0.12 v -0.284769 h 0.189808 c 0.03404,0 0.06012,0.0038 0.07558,0.0097 0.02319,0.01246 0.03635,0.03681 0.03831,0.0735 l 0.0053,0.111462 c 9.23e-4,0.02712 0.0029,0.04454 0.0047,0.05527 0.0035,0.0096 0.0059,0.01927 0.0097,0.02608 l 0.005,0.0088 h 0.134077 v -0.04073 l -0.0091,-0.0048 z m -0.139615,-0.446538 c 0,0.03773 -0.01004,0.06496 -0.02896,0.07846 -0.02227,0.01558 -0.05285,0.02227 -0.09162,0.02227 h -0.193154 v -0.196615 h 0.205385 c 0.02712,0 0.05077,0.005 0.06715,0.01269 0.02873,0.01442 0.04119,0.04154 0.04119,0.08319 z"
        class="fil1"/>
  <path style="fill:#000000" id="path816"
        d="m 48.903817,16.22065 c 0.0087,0.472154 -0.01454,0.720577 -0.172962,0.956769 -0.139962,0.207346 -0.416885,0.396692 -1.02854,0.396692 l -0.758885,-0.02273 c -0.119654,0.002 -0.429577,0.03681 -0.576346,0.194654 -0.125769,0.135346 -0.135462,0.237 -0.148154,0.598269 v 1.05958 h 2.57965 v 0.519115 h -2.81977 l -0.135577,-9.23e-4 c -0.191769,0 -0.380192,-0.129808 -0.380192,-0.390346 v -0.79027 c 0.0135,-0.922962 0.07938,-1.05542 0.279923,-1.29762 0.138923,-0.167538 0.465808,-0.354462 0.862385,-0.374885 0.078,-0.0033 0.224769,-0.0135 0.430154,-0.0077 0.150115,0.0063 0.300231,0.01073 0.366,0.01165 0.351115,0.0039 0.479538,-0.06104 0.575308,-0.186923 0.109962,-0.141462 0.168577,-0.309 0.168577,-0.583038 0,-0.256731 -0.05227,-0.498808 -0.150115,-0.611077 -0.118615,-0.129923 -0.231923,-0.217038 -0.561692,-0.217038 -0.834,-0.002 -1.80785,0.01985 -1.80785,0.01985 V 15.00461 c 0,0 0.951692,-0.04062 1.92208,-0.05469 0.604385,-0.01073 0.9375,0.150115 1.10654,0.370962 0.178731,0.230538 0.241731,0.448385 0.249462,0.899769 z"
        class="fil1"/>
  <path style="fill:#1f1a17" id="path818"
        d="m 68.336517,11.04565 c 0,-0.451269 0.340385,-0.791654 0.776769,-0.791654 0.432,0 0.771808,0.340385 0.771808,0.791654 0,0.459692 -0.339808,0.797192 -0.771808,0.797192 -0.436385,0 -0.776769,-0.3375 -0.776769,-0.797192 z m 0.776885,0.956423 c 0.519923,0 0.963462,-0.403269 0.963462,-0.956423 0,-0.546923 -0.443538,-0.950538 -0.963577,-0.950538 -0.524423,0 -0.968654,0.403615 -0.968654,0.950538 0,0.553154 0.444231,0.956423 0.968769,0.956423 z M 68.91171,11.121688 h 0.191885 l 0.2895,0.477115 h 0.187038 L 69.26721,11.114534 c 0.161192,-0.02042 0.285231,-0.106615 0.285231,-0.302885 0,-0.217269 -0.128769,-0.312923 -0.388385,-0.312923 h -0.418962 v 1.10008 h 0.166615 v -0.477115 z m 0,-0.141462 v -0.340385 h 0.227192 c 0.115731,0 0.239769,0.02538 0.239769,0.161538 0,0.168808 -0.126462,0.178846 -0.267923,0.178846 z"
        class="fil1"/>
</svg>