<?xml version="1.0" encoding="UTF-8" standalone="no"?>
<svg xmlns:dc="http://purl.org/dc/elements/1.1/" xmlns:cc="http://creativecommons.org/ns#"
     xmlns:rdf="http://www.w3.org/1999/02/22-rdf-syntax-ns#" xmlns="http://www.w3.org/2000/svg" width="500"
     height="336.26169" id="svg5032" version="1.1">
    <defs id="defs5034">
        <clipPath clipPathUnits="userSpaceOnUse" id="clipPath4681">
            <path d="m 252.24,84.68 h 53.88 V 45.74 h -53.88 z" id="path4683" style="clip-rule:evenodd"/>
        </clipPath>
        <clipPath clipPathUnits="userSpaceOnUse" id="clipPath4689">
            <path d="M 0,841.98 H 595.2 V 0 H 0 Z" id="path4691"/>
        </clipPath>
    </defs>
    <metadata id="metadata5037">
        <rdf:RDF>
            <cc:Work rdf:about="">
                <dc:format>image/svg+xml</dc:format>
                <dc:type rdf:resource="http://purl.org/dc/dcmitype/StillImage"/>
                <dc:title></dc:title>
            </cc:Work>
        </rdf:RDF>
    </metadata>
    <g id="layer1" transform="translate(-330.53256,-508.15651)">
        <g transform="matrix(14.75135,0,0,-14.75135,-3575.7872,1614.4533)" id="g4677"/>
        <g id="g4695" transform="matrix(12.843235,0,0,-12.843235,544.02576,775.52698)">
            <path
                d="m 0,0 c -4.047,0.982 -8.032,3.317 -10.038,7.023 -0.108,0.2 -1.1,1.814 0.897,1.928 2.001,0.115 5.781,0.13 7.57,-0.075 1.416,-0.163 3.678,-0.582 3.678,-2.763 0,-2.061 0,-0.784 0,-1.212 0,-0.426 -0.187,-0.613 -0.457,0 C 1.221,5.88 0.153,7.767 -3.056,7.954 -5.686,8.108 -5.352,8.093 -5.942,8.004 -6.532,7.92 -7.677,7.563 -6.986,5.872 -5.88,3.172 -1.975,1.199 0.64,0.673 1.944,0.408 3.178,0.321 3.272,1.846 c 0.067,1.111 0.099,2.629 0.166,3.859 0.057,1.006 0.134,2.894 3.614,3.138 2.46,0.17 5.701,0.256 6.813,0.17 1.391,-0.109 2.726,-0.1 1.96,-1.57 C 13.819,3.611 9.795,1.177 6.505,0.232 6.159,0.128 5.336,0.096 6.293,0.591 c 1.079,0.56 6.391,3.124 6.391,6.151 0,1.03 -0.797,1.195 -1.669,1.195 -1.133,0 -1.467,0 -2.33,-0.05 C 7.395,7.81 5.865,7.34 5.617,5.38 5.312,2.957 5.535,3.815 5.144,1.938 4.81,0.311 3.609,-0.1 2.569,-0.165 1.488,-0.232 0.426,-0.1 0,0"
                style="fill:#000000;fill-opacity:1;fill-rule:nonzero;stroke:none" id="path4697"/>
        </g>
        <g id="g4699" transform="matrix(12.724991,0,0,-12.724991,735.26364,593.57034)">
            <path
                d="M 0.29554943,0.1831783 C -1.8380944,3.9185689 -6.8431748,6.7122899 -12.307483,6.7122899 c -6.480665,0 -11.828905,-3.6384986 -13.264119,-8.4649342 -0.178645,-0.6035567 -0.194793,-1.4119998 0.0434,-1.7248804 0.333067,-0.4380329 1.057739,-0.4420699 1.568441,-0.02927 0,0 0.576305,0.3986705 2.115476,1.6834995 1.429158,1.19802989 3.815124,2.76546076 4.995997,2.76546076 0.951763,0 1.646156,-0.54602711 1.646156,-1.46246447 0,-1.78039149 -2.113458,-2.31834429 -3.592071,-2.58378819 -0.9558,-0.1705704 -2.943096,-0.3048062 -3.184317,-0.32802 -0.584381,-0.053492 -0.75596,-0.5621758 -0.08478,-0.5843802 0.545017,-0.018167 3.573903,0.035325 4.885983,0.087808 1.604775,0.060558 4.29252,0.2321373 4.29252,3.30341359 0,2.71600541 -1.999408,3.35791531 -2.743257,3.35791531 -2.002435,0 -4.294538,-1.79754949 -5.720668,-3.09953649 -1.052692,-0.96185551 -1.363554,-0.5167576 -0.906345,0.58135234 0.739812,1.78241015 4.348032,5.68837115 9.931436,5.68837115 2.7755542,0 6.0981442,-1.2434481 7.7836623,-2.9269476 2.0054637,-2.01454729 2.7896838,-3.23982809 2.7896838,-4.6326515 0,-1.1889461 -1.1082029,-1.3191448 -1.771308,-1.3191448 -0.6620957,0 -3.3185529,0.1301987 -4.29252,0.5934637 -0.9557997,0.4582187 -1.3433678,1.0405804 -1.3433678,1.84296772 0,0.85991701 0.6156682,1.60275608 1.6522113,1.60275608 1.0415896,0 3.1227503,-1.00929222 3.5405972,-1.43016709 0.4178471,-0.42087487 0.4430793,-0.0161487 0.08579,0.37949388 C -4.2331437,0.40824955 -6.2456726,2.699343 -8.657881,2.699343 c -2.421291,0 -2.916854,-1.98023143 -2.916854,-3.15000115 0,-1.42209285 0.589427,-3.49719775 4.3419747,-3.49719775 3.3205714,0 5.2473104,-0.1201057 6.47057257,-0.068632 0.43399566,0.019176 3.47600253,-0.035325 1.05773827,4.19966509"
                style="fill:#000000;fill-opacity:1;fill-rule:nonzero;stroke:none" id="path4701"/>
            <path style="fill:#000000;fill-opacity:1;stroke-width:0.86956519"
                  d="m 120.51616,135.08456 c -2.35766,-1.80336 -1.21519,-3.87436 2.70401,-4.90167 1.81877,-0.47674 11.71989,-1.67208 22.0025,-2.6563 20.89216,-1.99976 28.08514,-3.28626 39.73334,-7.10648 17.60424,-5.77362 26.31542,-14.95262 26.31542,-27.728645 0,-10.349185 -4.38375,-16.059359 -14.34355,-18.68357 -5.54327,-1.460545 -9.28593,-1.224499 -16.48782,1.039866 -13.01838,4.093135 -36.27648,18.737635 -57.82609,36.410269 C 95.124126,134.0022 91.629659,135.85767 83.725364,132.10684 76.191668,128.53187 76.284651,115.04845 83.973191,96.169726 101.05828,54.218383 143.83506,20.224629 196.21414,6.9743552 216.17941,1.9237603 224.84334,0.94281954 248.70093,1.03173 c 18.90936,0.070469 22.72178,0.3334612 33.91304,2.3394179 64.09774,11.4890821 115.99116,49.4882151 134.06722,98.1711821 3.42857,9.23393 3.91422,19.40987 1.15017,24.10042 -2.7559,4.67674 -7.25348,7.73865 -13.70611,9.331 -5.34983,1.3202 -10.26036,1.36739 -56.07857,0.53893 -54.76053,-0.99015 -56.64117,-1.16761 -67.72887,-6.3908 -14.74039,-6.94389 -22.06256,-19.43296 -22.04134,-37.594841 0.0163,-13.893403 3.18587,-22.972421 10.61701,-30.411077 6.38573,-6.392171 12.19619,-8.666446 23.31163,-9.12442 13.96617,-0.57543 24.51793,2.82464 39.5065,12.730093 10.43319,6.894955 28.1086,24.9665 26.24347,26.83163 -0.24162,0.241618 -2.32483,-1.005504 -4.62934,-2.771374 -5.18617,-3.973985 -19.2708,-10.885391 -28.53786,-14.003681 -9.0797,-3.055248 -18.98477,-3.746348 -24.34644,-1.698708 -7.20375,2.751137 -12.61707,11.030114 -12.60523,19.278068 0.0158,11.00194 7.14133,19.87765 19.82802,24.69822 9.17551,3.48641 47.26542,7.80537 56.85189,6.44634 9.03598,-1.28099 14.77509,-4.54144 16.88577,-9.59301 2.78974,-6.67681 0.81699,-19.760003 -4.51048,-29.913307 -7.1789,-13.681837 -30.0564,-39.010084 -43.02207,-47.630826 -14.43403,-9.597031 -32.57267,-17.333391 -51.45853,-21.947716 -27.1301,-6.6286137 -55.3833,-5.5167989 -81.5095,3.207548 -29.11003,9.720747 -57.54712,30.441963 -72.9472,53.154354 -11.62529,17.145231 -12.60604,30.511797 -1.82989,24.939231 1.40487,-0.726495 5.90405,-4.241521 9.99818,-7.811182 17.48308,-15.243486 33.59016,-26.137946 46.67181,-31.567737 6.6854,-2.774906 17.70966,-5.38715 22.73499,-5.38715 4.96246,0 14.06971,3.304134 18.70294,6.785475 11.6866,8.781143 16.22499,19.727775 15.57307,37.562351 -0.28018,7.664749 -0.82191,11.168049 -2.3198,15.001819 -5.69415,14.57377 -18.88649,22.04987 -42.44456,24.05332 -5.63913,0.47957 -24.33992,1.12604 -41.55731,1.43662 -26.74604,0.48246 -31.54651,0.37946 -32.96738,-0.70736 z"
                  id="path40" transform="matrix(0.07858552,0,0,-0.07858552,-31.806001,6.71229)"/>
            <path style="fill:#000000;fill-opacity:1;stroke-width:0.86956519"
                  d="m 219.13571,267.88376 c -14.75812,-2.31815 -39.71045,-11.03993 -57.53203,-20.10962 -30.5772,-15.56122 -54.20787,-35.87636 -70.38405,-60.5087 -6.760649,-10.2948 -9.663032,-16.48036 -10.16007,-21.65312 -0.879232,-9.15035 3.393387,-11.8974 20.19098,-12.98164 25.98857,-1.6775 79.63315,-0.66341 97.0156,1.83398 20.79288,2.98737 33.58081,9.9394 39.12566,21.27028 1.91528,3.91387 2.15974,5.67512 2.44931,17.64593 0.17691,7.31395 0.0859,13.91237 -0.20216,14.66315 -0.77986,2.03228 -2.99023,-0.0894 -5.12324,-4.91777 -4.91406,-11.12357 -15.30476,-22.93119 -25.12256,-28.54836 -12.05354,-6.89634 -22.41426,-9.13405 -49.01578,-10.58642 -19.61225,-1.07077 -27.37609,-0.18257 -33.4314,3.82464 -8.06254,5.33554 -7.93399,18.03787 0.32517,32.13106 12.61477,21.52548 42.79647,42.89609 76.2124,53.96335 14.92882,4.94438 23.74237,6.78115 33.08038,6.89403 6.54712,0.0791 7.89176,-0.18186 11.33623,-2.20046 7.15245,-4.19161 7.57633,-6.09694 9.13046,-41.0406 1.39116,-31.27942 2.32742,-38.21795 6.00343,-44.49058 4.33823,-7.40263 13.58047,-13.43617 25.16034,-16.42522 10.32774,-2.66585 47.97288,-4.83722 83.40366,-4.81072 36.98158,0.0277 47.53895,2.38125 47.53698,10.59758 -8.7e-4,3.64379 -3.87742,11.84857 -10.13162,21.44374 -17.77049,27.26341 -44.45916,50.03912 -78.12856,66.67373 -18.86024,9.31805 -42.27776,16.85497 -41.09496,13.2264 0.19487,-0.59782 6.46964,-4.41304 13.94392,-8.47826 26.32634,-14.31876 40.48021,-24.13069 53.26401,-36.92441 13.16735,-13.17757 18.69722,-23.39714 19.309,-35.68428 0.43871,-8.81136 -1.10991,-12.06259 -7.24832,-15.2174 -4.19173,-2.15432 -4.42193,-2.173 -25.54957,-2.07285 -23.34324,0.11066 -29.72344,0.95781 -39.18191,5.20252 -3.5844,1.60858 -6.71416,3.94574 -9.91803,7.4063 -7.18643,7.76219 -8.50632,12.36265 -11.32247,39.46403 -1.64373,15.81854 -4.88531,30.6652 -7.77015,35.58781 -4.67808,7.98254 -12.74199,13.36873 -22.79808,15.2277 -6.70527,1.23954 -24.2564,1.02611 -33.37257,-0.40582 z"
                  id="path42" transform="matrix(0.07858552,0,0,-0.07858552,-31.806001,6.71229)"/>
            <path style="fill:#000000;fill-opacity:1;stroke-width:0.86956519"
                  d="m 5.6724696,335.22569 c -4.6003194,-1.13175 -4.96297717,-1.62872 -4.2845444,-5.87141 0.6717181,-4.20069 2.0956109,-4.85724 2.0956109,-0.96627 0,2.20547 0.5087538,2.86564 3.015549,3.91304 5.9170489,2.4723 15.0353659,0.97958 16.4442939,-2.69202 1.808865,-4.71383 -0.206854,-6.96777 -8.155495,-9.11933 -10.0144507,-2.71074 -12.8841584,-7.41503 -8.478261,-13.89835 3.760618,-5.53378 12.738277,-8.20479 20.527659,-6.10733 3.27484,0.88183 3.708288,1.26883 3.266425,2.91644 -0.280207,1.04484 -0.51481,2.78014 -0.52134,3.85622 -0.0065,1.07609 -0.403179,1.95652 -0.88144,1.95652 -0.47826,0 -0.869565,-1.12644 -0.869565,-2.5032 0,-2.00275 -0.564999,-2.73872 -2.826087,-3.68129 -6.153129,-2.56501 -13.957448,-0.45286 -15.0965554,4.0857 -1.0774,4.29271 0.6878164,6.08687 7.6362224,7.76143 10.669875,2.57144 12.818711,4.39875 11.615389,9.87744 -0.608155,2.76891 -4.766025,7.06638 -8.801681,9.09719 -3.563016,1.79298 -10.3896539,2.43222 -14.6861804,1.37522 z"
                  id="path44" transform="matrix(0.07858552,0,0,-0.07858552,-31.806001,6.71229)"/>
            <path style="fill:#000000;fill-opacity:1;stroke-width:0.86956519"
                  d="m 46.458422,334.93588 c -4.827566,-2.10206 -5.35229,-5.16593 -3.129424,-18.27275 2.46298,-14.52262 2.450383,-14.92776 -0.497636,-16.00446 -2.030166,-0.74148 -1.504875,-0.88375 3.478261,-0.94203 3.228261,-0.0378 5.875195,0.22483 5.882075,0.58352 0.0069,0.3587 -1.021006,6.39521 -2.284191,13.41447 -1.263186,7.01927 -2.053782,13.73017 -1.756881,14.91311 0.769287,3.06509 4.505452,4.19054 8.869189,2.67168 4.314121,-1.50159 4.304403,-1.50235 2.874543,0.2255 -1.354093,1.63631 -7.485654,4.61422 -9.4543,4.59167 -0.717391,-0.008 -2.509128,-0.53953 -3.981636,-1.18071 z"
                  id="path46" transform="matrix(0.07858552,0,0,-0.07858552,-31.806001,6.71229)"/>
            <path style="fill:#000000;fill-opacity:1;stroke-width:0.86956519"
                  d="m 84.04046,334.23297 c 0.228404,-0.36957 1.151701,-0.67194 2.051772,-0.67194 0.90007,0 1.897896,-0.42296 2.217391,-0.93991 0.880094,-1.42403 5.430217,-28.90855 4.982522,-30.09639 -0.214819,-0.56996 -1.433551,-1.19612 -2.708291,-1.39145 -1.27474,-0.19533 3.080513,-0.41378 9.678336,-0.48544 11.6596,-0.12663 12.05591,-0.0704 14.13044,2.0041 1.65585,1.65585 2.13438,3.04351 2.13438,6.18926 0,3.53558 -0.4231,4.47797 -3.30383,7.3587 -3.64296,3.64297 -8.56349,5.15616 -11.75313,3.6144 -1.768784,-0.85496 -1.709895,-0.92223 0.85541,-0.97703 1.51523,-0.0324 3.3884,-0.30192 4.1626,-0.59901 3.75792,-1.44205 5.43398,-11.76216 2.36179,-14.54246 -2.22403,-2.01272 -8.57329,-1.95559 -9.181402,0.0826 -0.713271,2.39066 -4.880564,26.49145 -4.880564,28.22587 0,1.15 0.68159,1.55674 2.608696,1.55674 1.434782,0 2.6087,0.30237 2.6087,0.67194 0,0.36956 -3.685527,0.67193 -8.190053,0.67193 -4.504526,0 -8.003171,-0.30237 -7.774767,-0.67193 z"
                  id="path48" transform="matrix(0.07858552,0,0,-0.07858552,-31.806001,6.71229)"/>
            <path style="fill:#000000;fill-opacity:1;stroke-width:0.86956519"
                  d="m 121.45005,334.2132 c 0.21835,-0.35869 0.93449,-0.65217 1.59142,-0.65217 1.54049,0 1.75533,-0.75303 4.34646,-15.23456 2.83627,-15.85157 2.82564,-16.72642 -0.20874,-17.18609 -1.31522,-0.19924 3.38043,-0.42088 10.43478,-0.49254 l 12.82609,-0.13029 -0.0611,2.39131 c -0.0336,1.31521 -0.39742,3.17391 -0.80845,4.13043 -0.63305,1.47318 -0.75667,1.32119 -0.80845,-0.99392 -0.0733,-3.2779 -1.12596,-3.78869 -7.80801,-3.78869 h -4.99597 l -1.01987,5.53504 c -1.61122,8.7444 -1.8138,8.37801 4.6323,8.37801 3.18841,0 5.65218,0.37904 5.65218,0.86956 0,0.49594 -2.58567,0.86957 -6.01787,0.86957 -6.71727,0 -6.12107,-0.65612 -7.50659,8.26087 -0.29724,1.91304 -0.7283,4.16304 -0.9579,5 -0.37195,1.35587 0.32348,1.52028 6.38028,1.50842 3.73875,-0.007 7.22661,-0.3008 7.7508,-0.65217 0.52418,-0.35138 1.27158,-1.81278 1.66087,-3.24756 0.46614,-1.71803 0.82485,-2.11854 1.05063,-1.17307 0.18855,0.7896 0.001,2.74612 -0.41622,4.34783 l -0.75904,2.9122 h -12.67729 c -6.9725,0 -12.49864,-0.29348 -12.28029,-0.65218 z"
                  id="path50" transform="matrix(0.07858552,0,0,-0.07858552,-31.806001,6.71229)"/>
            <path style="fill:#000000;fill-opacity:1;stroke-width:0.86956519"
                  d="m 158.09251,334.29761 c 0.33463,-0.31228 1.3884,-0.70843 2.34172,-0.88035 1.50977,-0.27227 2.03634,-1.99329 4.08318,-13.34528 3.10701,-17.2318 3.11048,-18.46844 0.0531,-18.9316 -1.31521,-0.19924 2.98913,-0.42088 9.56522,-0.49254 10.84529,-0.11818 12.1161,0.0293 13.67353,1.58672 2.5006,2.5006 2.98419,5.51209 1.38251,8.6094 -1.40567,2.71828 -5.28916,5.32577 -7.93198,5.32577 -1.83441,0 -1.4181,1.10453 3.733,9.90428 2.20886,3.77344 4.72943,7.04734 5.60126,7.27533 3.11812,0.81541 1.50661,1.67937 -2.84675,1.52619 l -4.43191,-0.15594 -2.77149,-5.1445 c -1.52432,-2.82947 -3.87149,-7.00319 -5.21593,-9.27493 l -2.44445,-4.13043 h 3.00884 c 6.18062,0 10.41949,-6.88109 7.23386,-11.74297 -1.20075,-1.83258 -2.09496,-2.17008 -5.74967,-2.17008 -2.38028,0 -4.33276,0.29348 -4.33886,0.65218 -0.006,0.35869 -1.113,6.91842 -2.45978,14.57716 -1.34679,7.65874 -2.28746,14.40874 -2.09037,15 0.19708,0.59126 1.30399,1.07501 2.45978,1.07501 1.1558,0 2.10145,0.31136 2.10145,0.6919 0,0.38055 -3.50205,0.67403 -7.78233,0.65218 -4.28028,-0.0218 -7.50855,-0.29523 -7.17391,-0.6075 z"
                  id="path52" transform="matrix(0.07858552,0,0,-0.07858552,-31.806001,6.71229)"/>
            <path style="fill:#000000;fill-opacity:1;stroke-width:0.86956519"
                  d="m 208.70093,334.2132 c 0,-0.35869 0.68478,-0.65969 1.52174,-0.66887 1.04097,-0.0114 4.32302,-4.75852 10.38856,-15.02582 4.87675,-8.25501 9.12514,-15.68228 9.44086,-16.50504 0.35311,-0.92018 1.50767,-1.49592 2.99988,-1.49592 2.38838,0 2.44238,0.11751 3.4961,7.6087 3.11373,22.13643 3.77234,24.983 5.84851,25.27787 4.49671,0.63863 1.43716,1.46126 -5.43478,1.46126 -4.06522,0 -7.39131,-0.29348 -7.39131,-0.65218 0,-0.35869 0.97826,-0.65217 2.17392,-0.65217 2.41829,0 2.60625,-0.95084 1.61605,-8.17511 l -0.55786,-4.07003 -6.18117,0.25301 -6.18117,0.253 -2.3711,4.34783 c -3.03219,5.56008 -3.09111,7.3913 -0.2378,7.3913 1.19565,0 2.17392,0.29348 2.17392,0.65217 0,0.3587 -2.54348,0.65218 -5.65218,0.65218 -3.10869,0 -5.65217,-0.29348 -5.65217,-0.65218 z m 23.05839,-20.43478 c -0.34235,-3.22826 -0.9109,-6.39135 -1.26343,-7.02909 -0.5425,-0.98139 -3.71594,3.59402 -8.49398,12.24648 -0.19808,0.3587 2.05636,0.65218 5.00987,0.65218 h 5.37001 z"
                  id="path54" transform="matrix(0.07858552,0,0,-0.07858552,-31.806001,6.71229)"/>
            <path style="fill:#000000;fill-opacity:1;stroke-width:0.86956519"
                  d="m 259.38278,335.56763 c -2.22018,-0.4386 -6.33403,-4.96986 -6.33403,-6.97671 0,-0.74713 0.78223,-6.09755 1.73829,-11.88981 0.95605,-5.79226 1.88743,-11.45042 2.06973,-12.57369 0.26057,-1.60562 -0.25055,-2.29558 -2.39046,-3.22683 -2.63464,-1.14656 -2.52431,-1.18562 3.44145,-1.21857 l 6.16334,-0.034 -1.96499,10.09944 c -3.22566,16.57888 -3.32307,17.96801 -1.42437,20.31281 1.26244,1.55905 2.45254,2.02389 4.942,1.9303 1.80351,-0.0678 3.83009,-0.58055 4.50351,-1.13943 0.67342,-0.55889 1.4363,-0.80427 1.69528,-0.54529 0.25899,0.25899 -0.82656,1.44581 -2.41232,2.63739 -3.03064,2.2773 -6.79603,3.26279 -10.02743,2.62442 z"
                  id="path56" transform="matrix(0.07858552,0,0,-0.07858552,-31.806001,6.71229)"/>
            <path style="fill:#000000;fill-opacity:1;stroke-width:0.86956519"
                  d="m 297.09666,334.2132 c 0.22141,-0.35869 0.934,-0.65217 1.58353,-0.65217 1.31463,0 2.02079,-2.80782 4.78949,-19.04369 1.01133,-5.93055 1.64694,-11.28277 1.41246,-11.89381 -0.23448,-0.61104 -1.52552,-1.27623 -2.86899,-1.47819 -1.34346,-0.20197 3.0356,-0.42523 9.73126,-0.49615 13.37243,-0.14163 16.50233,0.68028 19.81641,5.20381 3.82734,5.22409 2.3232,16.01979 -3.0912,22.18644 -4.92302,5.60702 -8.3456,6.72381 -20.7721,6.77798 -6.05188,0.0264 -10.82226,-0.24552 -10.60086,-0.60422 z m 23.64323,-3.02908 c 4.80393,-3.58666 8.24034,-15.57689 6.31045,-22.01828 -1.48186,-4.94601 -4.48773,-6.90916 -10.57894,-6.90916 h -5.03848 l -0.92587,4.56522 c -0.72123,3.55616 -4.38864,24.84209 -4.41019,25.59708 -0.003,0.0893 1.26711,0.33864 2.82146,0.55417 4.73305,0.65631 9.51575,-0.0675 11.82157,-1.78903 z"
                  id="path58" transform="matrix(0.07858552,0,0,-0.07858552,-31.806001,6.71229)"/>
            <path style="fill:#000000;fill-opacity:1;stroke-width:0.86956519"
                  d="m 339.67173,334.26679 c 0.2399,-0.38817 1.20538,-0.70576 2.14552,-0.70576 0.97652,0 2.02246,-0.83879 2.43972,-1.95652 1.41431,-3.78856 5.4158,-28.72343 4.71686,-29.3926 -0.38923,-0.37264 -1.68595,-0.85303 -2.8816,-1.06752 -1.19565,-0.2145 1.54348,-0.39 6.08696,-0.39 4.54348,0 7.35832,0.17248 6.25521,0.38328 -1.10311,0.21081 -2.36494,1.2336 -2.80408,2.27289 -0.78172,1.85004 -5.19026,26.38285 -5.19026,28.88292 0,0.8435 0.92119,1.26755 2.75362,1.26755 1.51449,0 2.48207,0.27156 2.15016,0.60346 -0.85673,0.85673 -16.20027,0.95688 -15.67211,0.1023 z"
                  id="path60" transform="matrix(0.07858552,0,0,-0.07858552,-31.806001,6.71229)"/>
            <path style="fill:#000000;fill-opacity:1;stroke-width:0.86956519"
                  d="m 375.45802,335.1536 c -4.06175,-1.11131 -8.21562,-5.7343 -9.02395,-10.04306 -0.80683,-4.30075 0.79804,-11.67851 3.56887,-16.40658 6.33316,-10.80672 25.21333,-12.11843 30.21838,-2.09945 4.29884,8.60533 -0.62975,22.30665 -9.67325,26.89132 -4.02227,2.03912 -10.92475,2.79741 -15.09005,1.65777 z m 14.25473,-4.07698 c 4.52988,-5.06981 7.49385,-19.8181 4.97336,-24.74667 -2.75507,-5.38726 -10.62425,-6.78056 -15.43471,-2.73283 -4.71736,3.9694 -8.07175,16.93562 -6.18958,23.92549 1.93881,7.20018 11.5585,9.25343 16.65093,3.55401 z"
                  id="path62" transform="matrix(0.07858552,0,0,-0.07858552,-31.806001,6.71229)"/>
            <path style="fill:#000000;fill-opacity:1;stroke-width:0.86956519"
                  d="m 434.02151,335.29762 c -1.61716,-0.38175 -4.13431,-1.88811 -5.59366,-3.34746 -2.21122,-2.21122 -2.71427,-3.49515 -3.01876,-7.70473 -0.48653,-6.72622 0.87107,-11.31415 4.6566,-15.73669 6.04509,-7.06232 14.32583,-10.08819 21.9728,-8.02908 l 3.75434,1.01095 -0.59197,3.6439 c -0.78312,4.82056 -2.15211,6.20996 -2.15211,2.18419 0,-2.64049 -0.3967,-3.27622 -2.61876,-4.19662 -1.53014,-0.63381 -4.48993,-0.90494 -7.11998,-0.65222 -5.82247,0.55946 -9.59964,4.33029 -11.03318,11.01465 -3.08056,14.36415 1.77169,21.52215 12.96249,19.12215 2.37354,-0.50903 4.53779,-1.28515 4.80945,-1.7247 0.27166,-0.43956 0.95996,-0.78617 1.52956,-0.77026 2.15863,0.0603 -3.23815,3.48909 -7.46948,4.74566 -4.82693,1.43344 -5.7157,1.47223 -10.08734,0.44026 z"
                  id="path64" transform="matrix(0.07858552,0,0,-0.07858552,-31.806001,6.71229)"/>
            <path style="fill:#000000;fill-opacity:1;stroke-width:0.86956519"
                  d="m 462.61474,334.2132 c -4.2e-4,-0.35869 0.56309,-0.65217 1.25226,-0.65217 1.86331,0 2.01176,-0.47406 4.3847,-14.00205 2.88772,-16.4628 2.87131,-17.95289 -0.20295,-18.4186 -1.31521,-0.19924 3.08696,-0.42027 9.78261,-0.49119 10.04036,-0.10634 12.70212,0.13752 15.18781,1.39145 11.18256,5.64115 6.90136,26.02871 -6.65013,31.66864 -2.68915,1.11919 -23.75305,1.56604 -23.7543,0.50392 z m 23.84601,-2.7027 c 1.12277,-0.73567 2.96655,-3.21655 4.09731,-5.51309 1.69127,-3.43493 2.05591,-5.53803 2.05591,-11.85761 0,-7.33869 -0.10907,-7.77601 -2.43979,-9.78261 -2.03414,-1.75126 -3.3715,-2.10051 -8.04348,-2.10051 -3.89442,0 -5.60873,0.33155 -5.62021,1.08696 -0.009,0.59783 -0.98655,6.76087 -2.17213,13.69565 -1.18558,6.93478 -2.15641,13.26869 -2.15739,14.07534 -0.003,2.632 10.42577,2.92111 14.27978,0.39587 z"
                  id="path66" transform="matrix(0.07858552,0,0,-0.07858552,-31.806001,6.71229)"/>
            <path style="fill:#000000;fill-opacity:1;stroke-width:0.30743772"
                  d="M 8.4468675,335.91185 C 5.72736,335.63233 3.1612459,334.95666 1.39285,334.05449 c -1.02644874,-0.52366 -1.16371962,-0.71315 -0.99720849,-1.37658 0.10620013,-0.42314 0.40115533,-1.83192 0.65545599,-3.13063 0.2543007,-1.2987 0.5285829,-2.67257 0.6095159,-3.05302 0.1126912,-0.52974 0.3617671,-0.69173 1.063607,-0.69173 h 0.9164558 v 2.31255 2.31255 l 1.4603293,0.92631 c 1.9574741,1.24165 4.0061411,1.82405 7.1479275,2.03202 4.695313,0.31081 8.294363,-0.8164 9.781434,-3.06352 0.70453,-1.06462 0.825167,-1.57244 0.825167,-3.47352 0,-1.95055 -0.09529,-2.32868 -0.768594,-3.04989 -1.17389,-1.25742 -2.52695,-1.81744 -7.378505,-3.05391 -4.7353919,-1.20687 -7.3820295,-2.2389 -8.560411,-3.33804 -1.3528665,-1.26189 -2.0036298,-2.96173 -2.025725,-5.29135 -0.017474,-1.84238 0.1273496,-2.45823 0.9905477,-4.21219 1.7700147,-3.59655 5.6939103,-6.50603 10.5179013,-7.79879 2.477932,-0.66405 8.342997,-0.75048 10.76032,-0.15858 2.774993,0.67949 4.648416,1.57737 4.481698,2.14794 -0.443537,1.51798 -1.084632,4.3742 -1.267376,5.64645 -0.194834,1.35642 -0.272904,1.46033 -1.097165,1.46033 h -0.887406 v -2.12474 c 0,-1.99364 -0.05817,-2.17368 -0.942769,-2.91802 -1.621983,-1.36481 -4.766615,-2.11747 -8.260503,-1.97714 -2.608663,0.10478 -3.265471,0.2465 -4.815003,1.03896 -2.464508,1.2604 -3.6059742,3.07454 -3.6372369,5.7807 -0.039256,3.3981 1.1892229,4.27326 8.1067399,5.77518 5.257397,1.14148 7.893103,1.9857 9.167313,2.93629 3.201118,2.38811 3.187782,7.59226 -0.02926,11.41984 -4.338224,5.16154 -11.019664,7.57581 -18.7632285,6.77989 z"
                  id="path158" transform="matrix(0.07858552,0,0,-0.07858552,-31.806001,6.71229)"/>
        </g>
        <g id="g4703" transform="matrix(12.843235,0,0,-12.843235,330.53256,841.68248)">
            <path
                d="m 0,0 c 0.016,0.059 0.04,0.154 0.071,0.295 0.031,0.146 0.046,0.25 0.056,0.322 H 0.285 L 0.283,0.391 c 0,-0.024 0,-0.067 0.002,-0.119 C 0.338,0.206 0.435,0.148 0.577,0.089 0.723,0.039 0.878,0.011 1.04,0.011 c 0.27,0 0.459,0.05 0.575,0.143 0.115,0.098 0.171,0.217 0.171,0.354 0,0.074 -0.01,0.133 -0.028,0.181 C 1.739,0.739 1.708,0.773 1.662,0.81 1.618,0.845 1.559,0.875 1.494,0.891 1.424,0.91 1.307,0.945 1.139,0.986 0.85,1.049 0.649,1.114 0.537,1.193 0.381,1.306 0.301,1.464 0.301,1.675 c 0,0.263 0.134,0.491 0.394,0.693 0.261,0.2 0.584,0.298 0.967,0.298 0.145,0 0.285,-0.016 0.412,-0.044 C 2.201,2.592 2.319,2.546 2.425,2.487 2.398,2.39 2.376,2.305 2.357,2.227 2.338,2.149 2.322,2.038 2.298,1.894 H 2.139 C 2.143,1.949 2.146,1.996 2.146,2.031 2.146,2.051 2.143,2.116 2.139,2.22 2.102,2.261 2.065,2.29 2.027,2.314 1.969,2.348 1.895,2.379 1.801,2.403 1.704,2.429 1.6,2.446 1.484,2.446 1.335,2.446 1.207,2.42 1.098,2.372 0.994,2.329 0.913,2.264 0.863,2.188 0.811,2.114 0.782,2.018 0.779,1.901 0.782,1.797 0.807,1.718 0.85,1.66 0.896,1.61 1.002,1.562 1.168,1.518 1.378,1.475 1.549,1.442 1.673,1.412 1.801,1.386 1.913,1.349 2.009,1.314 2.108,1.275 2.183,1.212 2.239,1.127 2.295,1.041 2.322,0.939 2.322,0.826 2.322,0.632 2.245,0.452 2.096,0.293 1.947,0.126 1.767,0.002 1.565,-0.085 1.359,-0.169 1.13,-0.213 0.878,-0.213 c -0.167,0 -0.329,0.02 -0.484,0.057 C 0.242,-0.117 0.108,-0.065 0,0"
                style="fill:#000000;fill-opacity:1;fill-rule:nonzero;stroke:none" id="path4705"/>
        </g>
        <g id="g4707" transform="matrix(12.843235,0,0,-12.843235,410.03229,807.48107)">
            <path
                d="m 0,0 -0.018,-0.143 c -0.146,0.006 -0.237,-0.005 -0.277,-0.015 -0.015,-0.009 -0.032,-0.018 -0.044,-0.035 -0.015,-0.016 -0.034,-0.059 -0.046,-0.12 -0.034,-0.139 -0.084,-0.4 -0.152,-0.777 -0.066,-0.381 -0.118,-0.665 -0.152,-0.865 -0.053,-0.339 -0.081,-0.534 -0.081,-0.58 0,-0.039 0.006,-0.063 0.019,-0.074 0.012,-0.024 0.028,-0.033 0.055,-0.039 0.047,-0.015 0.122,-0.024 0.217,-0.024 l 0.085,0.002 -0.022,-0.137 c -0.245,0.013 -0.373,0.016 -0.385,0.016 l -0.528,-0.016 -0.019,0.026 c 0.038,0.179 0.072,0.339 0.097,0.491 -0.215,-0.23 -0.41,-0.393 -0.587,-0.488 -0.122,-0.068 -0.255,-0.098 -0.411,-0.098 -0.124,0 -0.233,0.019 -0.329,0.056 -0.071,0.029 -0.137,0.072 -0.192,0.128 -0.059,0.055 -0.103,0.109 -0.131,0.172 -0.05,0.091 -0.072,0.187 -0.072,0.282 0,0.042 0,0.083 0.004,0.129 0.006,0.06 0.013,0.134 0.028,0.234 0.028,0.17 0.062,0.363 0.102,0.589 0.044,0.222 0.072,0.389 0.09,0.504 0.038,0.235 0.062,0.369 0.065,0.404 0.007,0.039 0.01,0.078 0.01,0.113 0,0.028 -0.006,0.05 -0.013,0.061 -0.008,0.011 -0.024,0.019 -0.046,0.03 -0.031,0.011 -0.075,0.02 -0.134,0.024 -0.102,0.005 -0.154,0.007 -0.167,0.007 L -3.012,0 c 0.027,-0.004 0.102,-0.004 0.217,-0.009 l 0.457,-0.01 h 0.025 c 0.061,0 0.139,0.002 0.226,0.019 l 0.021,-0.033 C -2.121,-0.28 -2.158,-0.463 -2.18,-0.58 -2.236,-0.886 -2.298,-1.212 -2.358,-1.568 -2.4,-1.816 -2.426,-1.959 -2.428,-2.007 -2.431,-2.051 -2.435,-2.096 -2.435,-2.14 c 0,-0.124 0.038,-0.219 0.115,-0.289 0.078,-0.076 0.179,-0.108 0.316,-0.108 0.097,0 0.197,0.021 0.305,0.071 0.106,0.053 0.218,0.133 0.335,0.25 0.075,0.076 0.118,0.128 0.135,0.167 0.005,0.022 0.033,0.166 0.08,0.435 0.056,0.319 0.093,0.537 0.112,0.645 0.074,0.435 0.108,0.676 0.108,0.721 0,0.031 -0.012,0.053 -0.034,0.063 -0.033,0.02 -0.146,0.035 -0.335,0.042 L -1.279,0 h 0.037 L -0.598,-0.019 0,0"
                style="fill:#000000;fill-opacity:1;fill-rule:nonzero;stroke:none" id="path4709"/>
        </g>
        <g id="g4711" transform="matrix(12.843235,0,0,-12.843235,413.89799,843.51907)">
            <path
                d="m 0,0 0.015,0.137 c 0.162,0 0.261,0.006 0.299,0.026 C 0.331,0.165 0.345,0.174 0.35,0.189 0.372,0.219 0.4,0.33 0.438,0.521 0.531,1.01 0.609,1.44 0.671,1.818 0.733,2.192 0.763,2.422 0.763,2.5 0.763,2.526 0.757,2.55 0.746,2.57 0.729,2.589 0.707,2.598 0.676,2.603 0.637,2.613 0.534,2.62 0.372,2.62 l 0.019,0.139 c 0.261,-0.013 0.475,-0.02 0.646,-0.02 0.087,0 0.217,0.005 0.395,0.009 0.173,0.009 0.316,0.011 0.425,0.011 0.201,0 0.357,-0.028 0.463,-0.08 C 2.428,2.622 2.509,2.546 2.562,2.446 2.615,2.344 2.639,2.227 2.639,2.094 2.639,1.955 2.612,1.827 2.559,1.71 2.504,1.595 2.434,1.497 2.351,1.419 2.267,1.34 2.174,1.277 2.081,1.234 1.944,1.169 1.798,1.138 1.648,1.138 1.525,1.138 1.394,1.16 1.252,1.208 L 1.23,1.356 C 1.354,1.321 1.459,1.297 1.543,1.297 c 0.088,0 0.177,0.032 0.264,0.087 0.091,0.058 0.162,0.152 0.218,0.28 0.056,0.13 0.081,0.263 0.081,0.402 0,0.106 -0.017,0.2 -0.05,0.278 C 2.022,2.418 1.963,2.477 1.882,2.52 1.804,2.559 1.708,2.579 1.6,2.579 1.543,2.579 1.444,2.57 1.307,2.55 1.257,2.309 1.187,1.916 1.093,1.371 1,0.828 0.941,0.484 0.926,0.35 0.922,0.317 0.919,0.289 0.919,0.261 0.919,0.224 0.926,0.204 0.941,0.185 0.959,0.172 0.994,0.163 1.052,0.154 1.087,0.146 1.177,0.143 1.326,0.137 L 1.307,0 0.642,0.015 C 0.571,0.015 0.357,0.013 0,0"
                style="fill:#000000;fill-opacity:1;fill-rule:nonzero;stroke:none" id="path4713"/>
        </g>
        <g id="g4715" transform="matrix(12.843235,0,0,-12.843235,451.1177,843.51907)">
            <path
                d="M 0,0 0.019,0.126 C 0.147,0.143 0.224,0.163 0.248,0.182 0.264,0.191 0.274,0.209 0.283,0.23 0.308,0.289 0.349,0.467 0.401,0.773 0.429,0.915 0.478,1.212 0.557,1.666 0.646,2.172 0.69,2.457 0.69,2.513 0.69,2.542 0.684,2.559 0.671,2.572 0.655,2.592 0.619,2.603 0.566,2.611 0.531,2.618 0.444,2.622 0.308,2.631 L 0.333,2.759 C 0.724,2.746 0.935,2.739 0.972,2.739 L 1.68,2.75 c 0.124,0.007 0.283,0.009 0.463,0.009 0.09,0 0.165,-0.002 0.23,-0.013 L 2.395,2.724 C 2.376,2.653 2.352,2.503 2.311,2.27 2.301,2.209 2.296,2.153 2.289,2.103 H 2.153 l 0.003,0.284 c 0,0.04 0,0.066 -0.006,0.077 C 2.143,2.477 2.134,2.483 2.119,2.494 2.096,2.507 2.066,2.52 2.028,2.526 1.988,2.533 1.913,2.542 1.808,2.553 1.739,2.559 1.668,2.563 1.594,2.563 1.447,2.563 1.327,2.555 1.227,2.542 L 1.09,1.842 C 1.072,1.76 1.056,1.657 1.032,1.54 1.363,1.532 1.548,1.529 1.581,1.529 c 0.121,0 0.243,0.003 0.373,0.011 L 1.966,1.518 1.917,1.323 c -0.026,0 -0.153,0.002 -0.386,0.009 L 1.193,1.349 C 1.168,1.349 1.106,1.342 1.003,1.336 0.975,1.188 0.945,0.988 0.9,0.741 L 0.833,0.358 C 0.823,0.315 0.817,0.269 0.817,0.228 0.919,0.213 1.068,0.209 1.27,0.209 c 0.109,0 0.196,0 0.259,0.004 C 1.68,0.228 1.777,0.241 1.811,0.25 1.842,0.258 1.87,0.269 1.886,0.282 1.905,0.291 1.92,0.315 1.932,0.339 1.944,0.365 1.979,0.482 2.042,0.695 H 2.187 C 2.162,0.589 2.143,0.497 2.13,0.428 L 2.059,0.039 2.042,0.015 C 1.979,0.004 1.895,0 1.796,0 1.612,0 1.413,0 1.203,0.007 0.851,0.013 0.665,0.015 0.637,0.015 0.385,0.015 0.173,0.013 0,0"
                style="fill:#000000;fill-opacity:1;fill-rule:nonzero;stroke:none" id="path4717"/>
        </g>
        <g id="g4719" transform="matrix(12.843235,0,0,-12.843235,487.81091,843.51907)">
            <path
                d="M 0,0 0.012,0.137 H 0.046 C 0.168,0.135 0.245,0.143 0.283,0.159 0.298,0.163 0.31,0.172 0.323,0.182 0.338,0.204 0.357,0.241 0.37,0.291 0.382,0.348 0.425,0.6 0.504,1.047 L 0.628,1.762 C 0.702,2.183 0.739,2.433 0.739,2.511 0.739,2.535 0.733,2.559 0.717,2.579 0.708,2.594 0.681,2.603 0.649,2.611 0.618,2.62 0.528,2.622 0.376,2.622 L 0.398,2.763 0.794,2.746 C 0.898,2.744 0.975,2.739 1.032,2.739 c 0.03,0 0.179,0.007 0.444,0.018 0.118,0.002 0.235,0.002 0.35,0.002 0.19,0 0.333,-0.022 0.432,-0.061 C 2.357,2.661 2.438,2.598 2.5,2.507 2.562,2.416 2.593,2.307 2.593,2.183 2.593,2.023 2.534,1.868 2.414,1.729 2.296,1.586 2.084,1.49 1.777,1.44 1.848,1.323 2,1.067 2.233,0.66 2.383,0.404 2.476,0.258 2.509,0.217 2.534,0.185 2.562,0.165 2.591,0.154 2.618,0.143 2.674,0.137 2.759,0.137 L 2.746,0 2.327,0.015 2.096,0.004 C 2.081,0 2.056,0 2.026,0 L 1.773,0.474 C 1.622,0.736 1.509,0.932 1.441,1.051 1.413,1.101 1.389,1.145 1.367,1.173 1.339,1.225 1.283,1.31 1.202,1.44 L 1.218,1.497 C 1.271,1.492 1.311,1.492 1.339,1.492 c 0.139,0 0.267,0.029 0.379,0.079 0.112,0.045 0.199,0.126 0.254,0.228 0.059,0.1 0.087,0.219 0.087,0.36 0,0.137 -0.037,0.244 -0.115,0.315 C 1.867,2.544 1.746,2.579 1.578,2.579 1.454,2.579 1.354,2.57 1.274,2.55 1.242,2.405 1.177,2.042 1.072,1.458 1.022,1.164 0.975,0.882 0.929,0.595 0.904,0.426 0.885,0.33 0.885,0.311 c 0,-0.02 0,-0.04 0,-0.053 0,-0.03 0.003,-0.049 0.019,-0.069 C 0.916,0.172 0.938,0.159 0.97,0.154 1.016,0.143 1.109,0.137 1.249,0.137 L 1.236,0 0.544,0.015 C 0.482,0.015 0.302,0.013 0,0"
                style="fill:#000000;fill-opacity:1;fill-rule:nonzero;stroke:none" id="path4721"/>
        </g>
        <g id="g4723" transform="matrix(12.843235,0,0,-12.843235,544.75773,843.32653)">
            <path
                d="M 0,0 0.446,-0.015 0.461,0.122 C 0.338,0.128 0.264,0.13 0.235,0.135 0.186,0.139 0.158,0.15 0.135,0.167 0.124,0.182 0.117,0.193 0.117,0.209 c 0,0.032 0.018,0.084 0.056,0.169 0.096,0.2 0.218,0.43 0.367,0.686 h 0.72 c 0.031,0 0.084,0 0.162,0 C 1.478,0.608 1.506,0.326 1.506,0.232 1.506,0.202 1.499,0.182 1.493,0.167 1.481,0.156 1.462,0.148 1.428,0.139 1.382,0.128 1.294,0.122 1.176,0.122 V -0.015 C 1.537,-0.002 1.732,0 1.761,0 L 2.384,-0.015 V 0.122 C 2.232,0.128 2.145,0.139 2.121,0.148 2.104,0.154 2.096,0.163 2.084,0.174 2.068,0.198 2.05,0.263 2.034,0.369 1.987,0.634 1.919,1.073 1.828,1.694 1.776,2.051 1.73,2.403 1.682,2.744 H 1.304 C 1.279,2.696 1.114,2.413 0.816,1.905 L 0.012,0.55 C -0.122,0.321 -0.199,0.193 -0.218,0.174 -0.23,0.159 -0.246,0.15 -0.268,0.148 -0.277,0.143 -0.352,0.135 -0.489,0.122 V -0.015 Z M 1.245,2.29 1.397,1.243 C 1.354,1.24 1.142,1.238 0.761,1.238 0.714,1.238 0.67,1.24 0.633,1.243 L 1.245,2.29"
                style="fill:#000000;fill-opacity:1;fill-rule:nonzero;stroke:none" id="path4725"/>
        </g>
        <g id="g4727" transform="matrix(12.843235,0,0,-12.843235,621.5345,807.48107)">
            <path
                d="m 0,0 -0.018,-0.143 c -0.143,0.006 -0.238,-0.005 -0.273,-0.015 -0.019,-0.009 -0.036,-0.018 -0.044,-0.035 -0.017,-0.016 -0.037,-0.059 -0.051,-0.12 -0.032,-0.139 -0.082,-0.4 -0.151,-0.777 -0.065,-0.381 -0.116,-0.665 -0.151,-0.865 -0.054,-0.339 -0.082,-0.534 -0.082,-0.58 0,-0.039 0.005,-0.063 0.018,-0.074 0.012,-0.024 0.029,-0.033 0.055,-0.039 0.051,-0.015 0.121,-0.024 0.217,-0.024 l 0.086,0.002 -0.021,-0.137 c -0.246,0.013 -0.374,0.016 -0.39,0.016 l -0.525,-0.016 -0.016,0.026 c 0.036,0.179 0.07,0.339 0.093,0.491 -0.212,-0.23 -0.407,-0.393 -0.585,-0.488 -0.123,-0.068 -0.258,-0.098 -0.412,-0.098 -0.123,0 -0.234,0.019 -0.328,0.056 -0.072,0.029 -0.137,0.072 -0.193,0.128 -0.055,0.055 -0.102,0.109 -0.133,0.172 -0.047,0.091 -0.071,0.187 -0.071,0.282 0,0.042 0.003,0.083 0.005,0.129 0.007,0.06 0.016,0.134 0.031,0.234 0.025,0.17 0.056,0.363 0.101,0.589 0.039,0.222 0.074,0.389 0.092,0.504 0.035,0.235 0.056,0.369 0.062,0.404 0.006,0.039 0.006,0.078 0.006,0.113 0,0.028 -0.002,0.05 -0.012,0.061 -0.006,0.011 -0.021,0.019 -0.043,0.03 -0.028,0.011 -0.071,0.02 -0.134,0.024 -0.103,0.005 -0.158,0.007 -0.168,0.007 L -3.013,0 c 0.028,-0.004 0.099,-0.004 0.214,-0.009 l 0.461,-0.01 h 0.024 c 0.064,0 0.14,0.002 0.227,0.019 l 0.024,-0.033 C -2.12,-0.28 -2.158,-0.463 -2.184,-0.58 -2.241,-0.886 -2.299,-1.212 -2.357,-1.568 -2.4,-1.816 -2.421,-1.959 -2.43,-2.007 -2.435,-2.051 -2.435,-2.096 -2.435,-2.14 c 0,-0.124 0.038,-0.219 0.115,-0.289 0.074,-0.076 0.18,-0.108 0.315,-0.108 0.099,0 0.199,0.021 0.307,0.071 0.106,0.053 0.216,0.133 0.333,0.25 0.077,0.076 0.118,0.128 0.132,0.167 0.009,0.022 0.037,0.166 0.085,0.435 0.056,0.319 0.092,0.537 0.111,0.645 0.072,0.435 0.108,0.676 0.108,0.721 0,0.031 -0.012,0.053 -0.03,0.063 -0.039,0.02 -0.153,0.035 -0.339,0.042 L -1.278,0 h 0.035 L -0.596,-0.019 0,0"
                style="fill:#000000;fill-opacity:1;fill-rule:nonzero;stroke:none" id="path4729"/>
        </g>
        <g id="g4731" transform="matrix(12.843235,0,0,-12.843235,631.17988,843.32653)">
            <path
                d="m 0,0 c 0.06,0 0.142,0 0.235,0 0.125,0 0.25,0 0.368,-0.007 0.205,-0.004 0.346,-0.008 0.42,-0.008 0.223,0 0.434,0.039 0.626,0.13 0.192,0.087 0.368,0.211 0.516,0.38 C 2.318,0.656 2.438,0.843 2.506,1.064 2.585,1.28 2.621,1.49 2.621,1.69 2.621,1.912 2.575,2.107 2.48,2.272 2.383,2.437 2.256,2.555 2.087,2.626 1.92,2.702 1.706,2.735 1.442,2.735 1.364,2.735 1.195,2.735 0.939,2.731 0.731,2.728 0.553,2.724 0.412,2.724 0.235,2.724 0.085,2.731 -0.04,2.744 L -0.064,2.605 c 0.005,0 0.071,-0.007 0.192,-0.016 C 0.201,2.585 0.246,2.583 0.263,2.576 0.279,2.574 0.292,2.563 0.301,2.548 0.312,2.535 0.317,2.516 0.317,2.487 0.317,2.411 0.298,2.255 0.259,2.014 0.171,1.503 0.1,1.082 0.038,0.754 -0.021,0.428 -0.059,0.248 -0.078,0.213 -0.087,0.193 -0.099,0.174 -0.11,0.163 -0.141,0.143 -0.217,0.126 -0.34,0.111 l -0.01,-0.126 z m 0.655,1.432 0.2,1.099 C 0.967,2.544 1.097,2.555 1.243,2.555 1.392,2.555 1.517,2.537 1.614,2.507 1.711,2.479 1.796,2.431 1.868,2.351 1.939,2.283 1.987,2.192 2.023,2.077 2.053,1.959 2.069,1.851 2.069,1.738 2.069,1.571 2.05,1.392 2.01,1.197 1.972,1.006 1.917,0.841 1.854,0.71 1.787,0.576 1.709,0.46 1.622,0.374 1.566,0.315 1.502,0.274 1.427,0.241 1.319,0.196 1.195,0.174 1.046,0.174 0.988,0.174 0.92,0.182 0.851,0.187 l -0.393,0.05 c 0.027,0.182 0.091,0.58 0.197,1.195"
                style="fill:#000000;fill-opacity:1;fill-rule:nonzero;stroke:none" id="path4733"/>
        </g>
        <g id="g4735" transform="matrix(12.843235,0,0,-12.843235,669.55533,843.51907)">
            <path
                d="M 0,0 0.015,0.137 C 0.135,0.135 0.229,0.141 0.294,0.159 0.311,0.163 0.322,0.169 0.332,0.174 0.347,0.198 0.366,0.224 0.381,0.263 0.39,0.298 0.429,0.465 0.483,0.76 L 0.67,1.801 C 0.742,2.185 0.782,2.422 0.782,2.507 0.782,2.535 0.769,2.561 0.754,2.579 0.735,2.594 0.704,2.603 0.655,2.609 0.623,2.611 0.543,2.613 0.406,2.62 l 0.023,0.139 c 0.204,-0.013 0.391,-0.02 0.562,-0.02 0.113,0 0.347,0.007 0.698,0.02 L 1.666,2.62 C 1.519,2.62 1.429,2.613 1.394,2.603 1.375,2.598 1.36,2.589 1.345,2.572 1.33,2.559 1.316,2.533 1.307,2.503 1.285,2.429 1.242,2.201 1.178,1.801 1.091,1.293 1.028,0.943 0.991,0.741 0.944,0.484 0.917,0.328 0.917,0.263 0.917,0.23 0.928,0.209 0.94,0.189 0.952,0.172 0.977,0.163 1.014,0.15 1.056,0.141 1.148,0.137 1.304,0.137 L 1.285,0 C 0.969,0.013 0.76,0.015 0.666,0.015 0.605,0.015 0.381,0.013 0,0"
                style="fill:#000000;fill-opacity:1;fill-rule:nonzero;stroke:none" id="path4737"/>
        </g>
        <g id="g4739" transform="matrix(12.843235,0,0,-12.843235,697.1941,835.96734)">
            <path
                d="m 0,0 c 0.049,-0.132 0.125,-0.252 0.227,-0.356 0.1,-0.096 0.226,-0.17 0.375,-0.224 0.152,-0.052 0.319,-0.078 0.503,-0.078 0.355,0 0.656,0.085 0.911,0.26 C 2.273,-0.224 2.47,0.013 2.609,0.308 2.724,0.56 2.784,0.821 2.784,1.093 2.784,1.44 2.677,1.716 2.47,1.918 2.256,2.118 1.959,2.22 1.576,2.22 1.342,2.22 1.143,2.188 0.971,2.127 0.801,2.055 0.655,1.975 0.54,1.877 0.423,1.777 0.327,1.671 0.246,1.553 0.141,1.39 0.062,1.212 0.009,1.019 -0.043,0.823 -0.068,0.639 -0.068,0.463 -0.068,0.287 -0.049,0.132 0,0 Z M 0.527,0.839 C 0.555,1.03 0.609,1.21 0.671,1.375 0.739,1.536 0.81,1.671 0.888,1.76 0.964,1.857 1.053,1.927 1.153,1.975 1.25,2.02 1.372,2.042 1.514,2.042 1.646,2.042 1.758,2.02 1.854,1.975 1.954,1.927 2.027,1.873 2.081,1.805 2.131,1.736 2.171,1.649 2.196,1.551 2.221,1.447 2.233,1.332 2.233,1.21 2.233,1.019 2.206,0.815 2.155,0.606 2.107,0.393 2.044,0.209 1.968,0.052 1.914,-0.067 1.852,-0.163 1.786,-0.239 1.717,-0.313 1.64,-0.369 1.547,-0.417 1.454,-0.458 1.342,-0.482 1.215,-0.482 c -0.091,0 -0.174,0.017 -0.259,0.039 -0.087,0.028 -0.157,0.063 -0.214,0.111 -0.06,0.041 -0.109,0.091 -0.147,0.149 -0.036,0.066 -0.064,0.137 -0.083,0.229 -0.021,0.091 -0.03,0.189 -0.03,0.291 0,0.141 0.014,0.308 0.045,0.502"
                style="fill:#000000;fill-opacity:1;fill-rule:nonzero;stroke:none" id="path4741"/>
        </g>
        <g id="g4743" transform="matrix(12.843235,0,0,-12.843235,783.73191,837.44422)">
            <path
                d="m 0,0 -0.045,-0.156 c -0.106,-0.07 -0.224,-0.144 -0.348,-0.203 -0.13,-0.062 -0.238,-0.106 -0.339,-0.13 -0.126,-0.035 -0.264,-0.054 -0.413,-0.054 -0.195,0 -0.356,0.026 -0.49,0.082 -0.133,0.053 -0.246,0.124 -0.329,0.211 -0.085,0.094 -0.147,0.189 -0.182,0.293 -0.054,0.142 -0.077,0.3 -0.077,0.472 0,0.239 0.036,0.471 0.11,0.688 0.077,0.17 0.164,0.32 0.271,0.446 0.107,0.128 0.263,0.271 0.474,0.419 0.155,0.089 0.299,0.157 0.432,0.202 0.14,0.044 0.283,0.065 0.435,0.065 0.158,0 0.314,-0.019 0.456,-0.058 C 0.098,2.244 0.2,2.198 0.262,2.148 0.182,1.883 0.13,1.66 0.114,1.475 h -0.141 l 0.014,0.339 c 0,0.03 -0.006,0.052 -0.019,0.067 -0.016,0.022 -0.043,0.048 -0.082,0.07 -0.033,0.021 -0.099,0.05 -0.187,0.087 -0.104,0.03 -0.222,0.047 -0.352,0.047 -0.151,0 -0.273,-0.026 -0.378,-0.065 C -1.131,1.979 -1.22,1.92 -1.302,1.838 -1.387,1.755 -1.451,1.649 -1.51,1.516 -1.571,1.386 -1.61,1.24 -1.635,1.093 -1.659,0.936 -1.673,0.754 -1.673,0.541 c 0,-0.163 0.029,-0.309 0.084,-0.43 0.057,-0.128 0.143,-0.226 0.258,-0.287 0.118,-0.067 0.253,-0.096 0.412,-0.096 0.11,0 0.217,0.011 0.322,0.04 0.102,0.028 0.194,0.06 0.274,0.099 0.022,0.014 0.117,0.066 0.278,0.172 L 0,0"
                style="fill:#000000;fill-opacity:1;fill-rule:nonzero;stroke:none" id="path4745"/>
        </g>
        <g id="g4747" transform="matrix(12.843235,0,0,-12.843235,796.84475,843.32653)">
            <path
                d="m 0,0 c 0.062,0 0.14,0 0.235,0 0.129,0 0.25,0 0.368,-0.007 0.205,-0.004 0.347,-0.008 0.419,-0.008 0.226,0 0.435,0.039 0.63,0.13 0.193,0.087 0.364,0.211 0.517,0.38 C 2.32,0.656 2.434,0.843 2.511,1.064 2.585,1.28 2.623,1.49 2.623,1.69 2.623,1.912 2.575,2.107 2.479,2.272 2.386,2.437 2.255,2.555 2.091,2.626 1.923,2.702 1.708,2.735 1.443,2.735 1.368,2.735 1.196,2.735 0.935,2.731 0.731,2.728 0.553,2.724 0.409,2.724 c -0.174,0 -0.322,0.007 -0.446,0.02 L -0.064,2.605 c 0.005,0 0.073,-0.007 0.192,-0.016 C 0.202,2.585 0.246,2.583 0.263,2.576 0.279,2.574 0.294,2.563 0.304,2.548 0.314,2.535 0.32,2.516 0.32,2.487 0.32,2.411 0.298,2.255 0.258,2.014 0.173,1.503 0.1,1.082 0.041,0.754 -0.021,0.428 -0.059,0.248 -0.07,0.213 -0.084,0.193 -0.097,0.174 -0.112,0.163 -0.141,0.143 -0.214,0.126 -0.338,0.111 L -0.35,-0.015 Z m 0.655,1.432 0.198,1.099 c 0.116,0.013 0.246,0.024 0.39,0.024 0.151,0 0.276,-0.018 0.373,-0.048 C 1.711,2.479 1.796,2.431 1.867,2.351 1.938,2.283 1.991,2.192 2.023,2.077 2.057,1.959 2.072,1.851 2.072,1.738 2.072,1.571 2.05,1.392 2.01,1.197 1.972,1.006 1.92,0.841 1.855,0.71 1.789,0.576 1.711,0.46 1.621,0.374 1.567,0.315 1.503,0.274 1.427,0.241 1.32,0.196 1.196,0.174 1.051,0.174 c -0.063,0 -0.125,0.008 -0.2,0.013 l -0.39,0.05 c 0.024,0.182 0.089,0.58 0.194,1.195"
                style="fill:#000000;fill-opacity:1;fill-rule:nonzero;stroke:none" id="path4749"/>
        </g>
    </g>
</svg>
