<?xml version="1.0" encoding="UTF-8" standalone="no"?>
<svg xmlns:dc="http://purl.org/dc/elements/1.1/" xmlns:cc="http://creativecommons.org/ns#"
     xmlns:rdf="http://www.w3.org/1999/02/22-rdf-syntax-ns#" xmlns="http://www.w3.org/2000/svg" id="svg137"
     viewBox="0 0 201.4388 191.00612" height="191.00612" width="201.4388" y="0px" x="0px" version="1.1">
    <metadata id="metadata143">
        <rdf:RDF>
            <cc:Work rdf:about="">
                <dc:format>image/svg+xml</dc:format>
                <dc:type rdf:resource="http://purl.org/dc/dcmitype/StillImage"/>
                <dc:title>Sega Saturn Logo</dc:title>
            </cc:Work>
        </rdf:RDF>
    </metadata>
    <defs id="defs141"/>
    <title id="title2">Sega Saturn Logo</title>
    <linearGradient gradientTransform="translate(-4.2812101,-4.1360002)" y2="123.7017" x2="70.132103" y1="155.3213"
                    x1="38.512199" gradientUnits="userSpaceOnUse" id="SVGID_1_">
        <stop id="stop4" stop-color="#999999" offset="0"/>
        <stop id="stop6" stop-color="#F3F3F3" offset="0.98"/>
    </linearGradient>
    <path id="path9"
          d="m 64.97579,122.063 c -0.447,-0.744 -1.049,-1.191 -1.797,-1.439 -13.635,-3.826 -22.427,-3.277 -26.321,1.74 -1.4,1.641 -2.249,3.23 -2.499,4.869 -0.301,1.639 -0.101,3.18 0.647,4.672 h -0.05 c 0.551,1.141 1.399,2.184 2.499,3.129 h 0.05 c 0.899,0.744 1.847,1.342 2.946,1.84 0.748,0.396 2.499,0.645 5.294,0.693 0.551,0.051 1.6,0.051 3.197,0.051 1.399,0.051 2.499,0.051 3.297,0.1 h 0.05 c 2.499,0.051 5.033,0.293 5.846,0.545 0.809,0.254 2.233,1.725 2.344,2.387 0.115,0.658 0,0 0,0 0.15,0.398 0.301,0.502 0.158,1.508 -0.146,1.006 -0.455,0.826 -0.855,1.324 v -0.051 c -0.451,0.398 -1.199,0.695 -2.248,0.996 -1.497,0.348 -3.297,0.594 -5.395,0.645 -2.098,0.051 -4.196,0 -6.343,-0.248 -2.048,-0.25 -3.845,-0.598 -5.345,-1.045 -0.748,-0.246 -1.546,-0.197 -2.248,0.201 -0.748,0.348 -1.249,0.945 -1.497,1.74 -0.25,0.744 -0.15,1.539 0.197,2.283 0.401,0.695 1.002,1.191 1.75,1.443 1.797,0.594 3.945,0.99 6.443,1.291 2.449,0.248 4.843,0.348 7.242,0.297 2.599,-0.1 4.847,-0.396 6.694,-0.844 2.595,-0.648 4.396,-1.641 5.344,-2.932 h 0.05 c 0.798,-0.996 1.396,-1.891 1.747,-2.686 v -0.051 c 0.401,-0.99 0.601,-1.986 0.601,-3.027 v -0.1 c -0.05,-0.746 0.014,-1.834 -0.387,-2.879 -0.15,-0.545 -0.297,-0.846 -1.099,-2.582 -0.805,-1.732 -2.663,-2.838 -5.91,-3.533 h -0.05 c -1.597,-0.299 -3.895,-0.547 -6.841,-0.646 -0.848,-0.051 -1.998,-0.051 -3.497,-0.102 -1.497,0 -2.545,0 -3.097,-0.049 -1.597,-0.047 -2.646,-0.098 -3.046,-0.197 -0.551,-0.25 -1.049,-0.547 -1.45,-0.895 -0.447,-0.398 -0.798,-0.795 -0.999,-1.191 v -0.051 c -0.201,-0.297 -0.251,-0.645 -0.15,-0.996 0.15,-0.645 0.501,-1.338 1.149,-1.986 2.996,-2.881 9.69,-2.881 20.129,0.1 0.802,0.197 1.55,0.15 2.248,-0.297 0.752,-0.396 1.25,-0.994 1.45,-1.789 0.254,-0.744 0.154,-1.492 -0.248,-2.238 z"
          style="fill:url(#SVGID_1_);stroke:#484848;stroke-width:1.44000006;stroke-linecap:round;stroke-linejoin:round"/>
    <linearGradient gradientTransform="translate(-4.2812101,-4.1360002)" y2="161.3224" x2="36.637501" y1="193.53909"
                    x1="4.4208999" gradientUnits="userSpaceOnUse" id="SVGID_2_">
        <stop id="stop11" stop-color="#999999" offset="0"/>
        <stop id="stop13" stop-color="#F3F3F3" offset="0.98"/>
    </linearGradient>
    <path id="path16"
          d="m 31.46979,159.694 c -0.447,-0.744 -1.049,-1.191 -1.797,-1.439 -13.635,-3.826 -22.4270001,-3.279 -26.3220001,1.74 -1.399,1.639 -2.248,3.229 -2.49899997,4.869 -0.301,1.639 -0.1,3.178 0.64799997,4.67 h -0.05 c 0.551,1.143 1.4,2.184 2.499,3.129 h 0.05 c 0.898,0.744 1.847,1.342 2.946,1.84 0.748,0.398 2.499,0.645 5.2940001,0.695 0.552,0.049 1.601,0.049 3.197,0.049 1.4,0.051 2.499,0.051 3.297,0.102 h 0.05 c 2.499,0.049 5.033,0.293 5.846,0.543 0.809,0.254 2.234,1.727 2.345,2.389 0.115,0.658 0,0 0,0 0.15,0.396 0.301,0.5 0.157,1.506 -0.146,1.008 -0.455,0.828 -0.855,1.326 v -0.051 c -0.451,0.396 -1.2,0.693 -2.249,0.996 -1.496,0.346 -3.297,0.594 -5.395,0.643 -2.098,0.051 -4.195,0 -6.343,-0.246 -2.047,-0.25 -3.8440001,-0.598 -5.3440001,-1.045 -0.749,-0.248 -1.546,-0.197 -2.248,0.199 -0.749,0.348 -1.25,0.945 -1.497,1.74 -0.25,0.744 -0.15,1.539 0.197,2.283 0.401,0.695 1.002,1.193 1.75,1.443 1.797,0.594 3.945,0.992 6.4440001,1.293 2.448,0.246 4.843,0.348 7.242,0.297 2.599,-0.1 4.847,-0.398 6.694,-0.846 2.595,-0.648 4.396,-1.639 5.345,-2.932 h 0.05 c 0.798,-0.994 1.396,-1.889 1.747,-2.684 v -0.051 c 0.401,-0.992 0.602,-1.986 0.602,-3.029 v -0.1 c -0.05,-0.744 0.014,-1.832 -0.387,-2.879 -0.15,-0.543 -0.297,-0.844 -1.099,-2.58 -0.806,-1.732 -2.663,-2.838 -5.91,-3.533 h -0.05 c -1.597,-0.301 -3.895,-0.547 -6.841,-0.648 -0.849,-0.049 -1.998,-0.049 -3.498,-0.1 -1.496,0 -2.545,0 -3.096,-0.051 -1.597,-0.045 -2.6460001,-0.096 -3.0460001,-0.195 -0.552,-0.252 -1.049,-0.549 -1.45,-0.896 -0.448,-0.396 -0.798,-0.795 -0.999,-1.191 v -0.051 c -0.201,-0.297 -0.25,-0.645 -0.15,-0.994 0.15,-0.645 0.501,-1.34 1.149,-1.986 2.9960001,-2.883 9.6900001,-2.883 20.1280001,0.1 0.802,0.197 1.55,0.15 2.248,-0.297 0.752,-0.398 1.25,-0.996 1.45,-1.791 0.251,-0.745 0.151,-1.493 -0.25,-2.237 z"
          style="fill:url(#SVGID_2_);stroke:#484848;stroke-width:1.44000006;stroke-linecap:round;stroke-linejoin:round"/>
    <linearGradient gradientTransform="translate(-4.2812101,-4.1360002)" y2="121.8574" x2="102.8901" y1="152.6436"
                    x1="72.103996" gradientUnits="userSpaceOnUse" id="SVGID_3_">
        <stop id="stop18" stop-color="#999999" offset="0"/>
        <stop id="stop20" stop-color="#F3F3F3" offset="0.98"/>
    </linearGradient>
    <path id="path23"
          d="m 94.36579,119.544 c -0.602,-0.547 -1.299,-0.846 -2.148,-0.846 h -19.982 c -0.798,0 -1.546,0.299 -2.098,0.846 -0.598,0.594 -0.898,1.293 -0.898,2.137 v 24.844 c 0,0.795 0.301,1.543 0.898,2.088 0.551,0.598 1.299,0.895 2.098,0.895 h 19.982 c 0.849,0 1.546,-0.297 2.148,-0.895 0.548,-0.545 0.849,-1.293 0.849,-2.088 0,-0.844 -0.301,-1.539 -0.849,-2.137 -0.602,-0.545 -1.299,-0.846 -2.148,-0.846 h -16.982 v -6.457 h 12.486 c 0.849,0 1.546,-0.297 2.148,-0.895 0.547,-0.549 0.849,-1.293 0.849,-2.088 0,-0.844 -0.301,-1.539 -0.849,-2.137 -0.602,-0.549 -1.299,-0.846 -2.148,-0.846 h -12.486 v -6.457 h 16.982 c 0.849,0 1.546,-0.301 2.148,-0.895 0.548,-0.549 0.849,-1.242 0.849,-2.088 0,-0.842 -0.301,-1.542 -0.849,-2.135 z"
          style="fill:url(#SVGID_3_);stroke:#484848;stroke-width:1.44000006;stroke-linecap:round;stroke-linejoin:round"/>
    <linearGradient gradientTransform="translate(-4.2812101,-4.1360002)" y2="122.0172" x2="135.2655" y1="155.9043"
                    x1="101.3784" gradientUnits="userSpaceOnUse" id="SVGID_4_">
        <stop id="stop25" stop-color="#999999" offset="0"/>
        <stop id="stop27" stop-color="#F3F3F3" offset="0.98"/>
    </linearGradient>
    <path id="path30"
          d="m 128.85979,123.059 c -0.15,-0.863 -0.598,-1.561 -1.245,-2.047 -5.484,-3.938 -11.491,-4.684 -17.301,-3.666 -2.291,0.537 -3.032,0.486 -5.534,1.725 -2.499,1.236 -4.239,3.533 -4.239,3.533 -1.195,1.297 -1.843,2.879 -2.642,4.977 -0.799,2.098 -0.795,3.139 -0.895,5.727 -0.1,2.588 0.247,4.963 0.995,7.225 0.748,2.266 1.894,4.264 3.44,5.936 v -0.055 c 1.496,1.727 3.34,3.072 5.484,3.934 2.144,0.918 4.488,1.404 7.029,1.404 5.982,0 10.321,-1.35 13.013,-4.045 3.14,-2.75 4.436,-6.902 3.938,-12.457 -0.05,-0.863 -0.396,-1.512 -0.948,-2.102 -0.598,-0.541 -1.246,-0.809 -2.044,-0.809 h -12.962 c -0.795,0 -1.543,0.32 -2.095,0.916 -0.598,0.645 -0.895,1.398 -0.895,2.318 0,0.863 0.297,1.672 0.895,2.264 0.552,0.646 1.3,0.969 2.095,0.969 h 9.973 c -0.2,1.619 -0.849,2.969 -1.847,3.992 -1.944,1.672 -4.983,2.48 -9.122,2.48 -1.746,0 -3.39,-0.322 -4.835,-0.916 l -0.051,-0.053 c -1.296,-0.541 -2.391,-1.297 -3.34,-2.375 -0.948,-1.023 -1.646,-2.266 -2.094,-3.611 -0.498,-1.457 -0.698,-3.074 -0.647,-4.801 0.049,-1.832 0.25,-2.828 0.597,-4.066 0.251,-0.92 0.648,-1.672 1.196,-2.266 0,0 0.892,-1.385 2.395,-2.133 1.504,-0.752 2.592,-0.971 4.436,-1.457 h 0.05 c 4.389,-1.078 8.577,-0.162 12.615,2.803 0.697,0.486 1.445,0.646 2.24,0.486 0.799,-0.215 1.446,-0.648 1.897,-1.402 0.448,-0.699 0.598,-1.508 0.448,-2.428 z"
          style="fill:url(#SVGID_4_);stroke:#484848;stroke-width:1.44000006;stroke-linecap:round;stroke-linejoin:round"/>
    <linearGradient gradientTransform="translate(-4.2812101,-4.1360002)" y2="124.0427" x2="173.5679" y1="157.2148"
                    x1="140.39549" gradientUnits="userSpaceOnUse" id="SVGID_5_">
        <stop id="stop32" stop-color="#999999" offset="0"/>
        <stop id="stop34" stop-color="#F3F3F3" offset="0.98"/>
    </linearGradient>
    <path id="path37"
          d="m 166.60479,149.27 c 0.501,-0.695 0.697,-1.389 0.598,-2.234 -3.146,-20.723 -8.788,-30.861 -16.982,-30.363 -8.19,-0.498 -13.886,9.293 -16.932,29.367 -0.101,0.795 0.05,1.541 0.551,2.189 0.498,0.693 1.149,1.09 1.948,1.191 0.798,0.146 1.546,-0.051 2.247,-0.549 0.648,-0.496 1.049,-1.141 1.199,-1.936 0.376,-2.496 0.788,-4.797 1.231,-6.91 h 0.015 19.377 c 0.505,2.389 0.974,5.023 1.403,7.9 0.15,0.795 0.501,1.443 1.199,1.941 0.647,0.498 1.399,0.693 2.198,0.543 0.798,-0.094 1.447,-0.49 1.948,-1.139 z m -24.655,-15.203 c 2.185,-7.354 4.951,-11.162 8.27,-11.43 3.219,0.264 5.953,4.076 8.144,11.43 z"
          style="fill:url(#SVGID_5_);stroke:#484848;stroke-width:1.44000006;stroke-linecap:round;stroke-linejoin:round"/>
    <linearGradient gradientTransform="translate(-4.2812101,-4.1360002)" y2="162.6313" x2="76.365898" y1="197.4736"
                    x1="41.523399" gradientUnits="userSpaceOnUse" id="SVGID_6_">
        <stop id="stop39" stop-color="#999999" offset="0"/>
        <stop id="stop41" stop-color="#F3F3F3" offset="0.98"/>
    </linearGradient>
    <path id="path44"
          d="m 39.58579,188.7 c 0.651,-0.498 1.052,-1.145 1.199,-1.939 0.379,-2.492 0.791,-4.797 1.231,-6.906 h 19.398 c 0.505,2.389 0.97,5.023 1.399,7.9 0.15,0.795 0.498,1.443 1.199,1.938 0.648,0.496 1.396,0.697 2.198,0.547 0.798,-0.1 1.446,-0.498 1.947,-1.141 0.498,-0.699 0.698,-1.393 0.598,-2.238 -3.146,-20.719 -8.792,-30.857 -16.982,-30.359 -8.19,-0.498 -13.835,9.293 -16.932,29.367 -0.15,0.795 0.05,1.539 0.548,2.186 0.501,0.697 1.149,1.094 1.951,1.191 0.85,0.149 1.547,-0.048 2.246,-0.546 z m 3.916,-14.809 c 2.188,-7.35 4.955,-11.158 8.273,-11.426 3.25,0.26 5.975,4.076 8.151,11.426 z"
          style="fill:url(#SVGID_6_);stroke:#484848;stroke-width:1.44000006;stroke-linecap:round;stroke-linejoin:round"/>
    <linearGradient gradientTransform="translate(-4.2812101,-4.1360002)" y2="157.05881" x2="97.999802" y1="189.6338"
                    x1="65.424797" gradientUnits="userSpaceOnUse" id="SVGID_7_">
        <stop id="stop46" stop-color="#999999" offset="0"/>
        <stop id="stop48" stop-color="#F3F3F3" offset="0.98"/>
    </linearGradient>
    <path id="path51"
          d="m 94.37979,158.835 c -0.598,-0.545 -1.299,-0.844 -2.147,-0.844 h -25.972 c -0.802,0 -1.55,0.299 -2.101,0.844 -0.598,0.598 -0.898,1.293 -0.898,2.137 0,0.795 0.301,1.539 0.898,2.088 0.551,0.598 1.299,0.895 2.101,0.895 h 9.988 v 22.855 c 0,0.795 0.3,1.543 0.898,2.088 0.551,0.598 1.299,0.895 2.098,0.895 0.852,0 1.55,-0.297 2.147,-0.895 0.552,-0.545 0.853,-1.293 0.853,-2.088 v -22.856 h 9.987 c 0.848,0 1.55,-0.297 2.147,-0.895 0.551,-0.549 0.849,-1.293 0.849,-2.088 0.001,-0.843 -0.297,-1.539 -0.848,-2.136 z"
          style="fill:url(#SVGID_7_);stroke:#484848;stroke-width:1.44000006;stroke-linecap:round;stroke-linejoin:round"/>
    <linearGradient gradientTransform="translate(-4.2812101,-4.1360002)" y2="159.7188" x2="132.3989" y1="192.6514"
                    x1="99.466301" gradientUnits="userSpaceOnUse" id="SVGID_8_">
        <stop id="stop53" stop-color="#999999" offset="0"/>
        <stop id="stop55" stop-color="#F3F3F3" offset="0.98"/>
    </linearGradient>
    <path id="path58"
          d="m 129.37479,158.241 c -0.598,-0.598 -1.296,-0.895 -2.147,-0.895 -0.799,0 -1.547,0.297 -2.098,0.895 -0.598,0.543 -0.899,1.291 -0.899,2.086 v 14.756 c 0,1.146 -0.2,2.238 -0.647,3.232 -0.4,1.041 -1.049,1.887 -1.801,2.682 -0.798,0.744 -1.646,1.393 -2.695,1.789 -0.998,0.447 -2.098,0.645 -3.247,0.645 h -4.445 c -1.149,0 -2.198,-0.197 -3.247,-0.645 -1.049,-0.396 -1.897,-1.045 -2.695,-1.789 -0.752,-0.795 -1.35,-1.641 -1.801,-2.635 v -0.047 c -0.397,-0.994 -0.647,-2.086 -0.647,-3.232 v -14.756 c 0,-0.795 -0.301,-1.543 -0.849,-2.086 -0.602,-0.598 -1.299,-0.895 -2.148,-0.895 -0.798,0 -1.55,0.297 -2.098,0.895 -0.602,0.543 -0.898,1.291 -0.898,2.086 v 14.756 c 0,1.941 0.397,3.777 1.099,5.566 h 0.05 c 0.698,1.74 1.747,3.229 3.046,4.572 1.347,1.291 2.847,2.334 4.593,3.082 1.751,0.744 3.598,1.092 5.596,1.092 h 4.445 c 1.998,0 3.845,-0.348 5.646,-1.092 h -0.05 c 1.747,-0.748 3.247,-1.791 4.597,-3.082 1.295,-1.344 2.345,-2.832 3.096,-4.572 v 0.051 c 0.748,-1.791 1.099,-3.627 1.099,-5.617 v -14.756 c -0.003,-0.795 -0.303,-1.543 -0.855,-2.086 z"
          style="fill:url(#SVGID_8_);stroke:#484848;stroke-width:1.44000006;stroke-linecap:round;stroke-linejoin:round"/>
    <linearGradient gradientTransform="translate(-4.2812101,-4.1360002)" y2="160.9399" x2="170.1333" y1="194.1104"
                    x1="136.96291" gradientUnits="userSpaceOnUse" id="SVGID_9_">
        <stop id="stop60" stop-color="#999999" offset="0"/>
        <stop id="stop62" stop-color="#F3F3F3" offset="0.98"/>
    </linearGradient>
    <path id="path65"
          d="m 133.40279,158.27 c -0.529,0.543 -0.849,1.184 -0.849,1.971 v 25.664 c 0,0.787 0.319,1.527 0.902,2.072 0.638,0.59 1.436,0.887 2.284,0.887 0.905,0 1.646,-0.297 2.233,-0.887 0.638,-0.545 0.956,-1.285 0.956,-2.072 v -22.9 c 6.852,-0.393 12.11,-0.047 15.775,0.988 2.76,0.838 4.249,2.219 4.406,4.145 0.055,1.529 -0.583,2.617 -1.911,3.258 -2.126,0.889 -5.259,1.135 -9.4,0.691 -0.744,-0.051 -1.382,0.051 -2.019,0.443 -0.638,0.344 -1.063,0.838 -1.328,1.482 -0.266,0.592 -0.266,1.232 -0.107,1.873 0.211,0.645 0.637,1.135 1.221,1.531 l 15.937,10.857 c 0.691,0.49 1.485,0.691 2.338,0.541 0.902,-0.098 1.593,-0.494 2.123,-1.186 0.479,-0.641 0.69,-1.381 0.587,-2.17 -0.161,-0.84 -0.587,-1.48 -1.278,-1.975 l -8.444,-5.725 c 1.221,-0.293 2.283,-0.641 3.186,-1.084 3.612,-1.68 5.42,-4.539 5.474,-8.539 0.211,-4.734 -2.764,-7.992 -8.816,-9.771 -4.729,-1.479 -11.796,-1.826 -21.196,-1.084 -0.796,0.051 -1.487,0.395 -2.074,0.99 z"
          style="fill:url(#SVGID_9_);stroke:#484848;stroke-width:1.44000006;stroke-linecap:round;stroke-linejoin:round"/>
    <linearGradient gradientTransform="translate(-4.2812101,-4.1360002)" y2="161.62469" x2="205.4281" y1="193.8428"
                    x1="173.21001" gradientUnits="userSpaceOnUse" id="SVGID_10_">
        <stop id="stop67" stop-color="#999999" offset="0"/>
        <stop id="stop69" stop-color="#F3F3F3" offset="0.98"/>
    </linearGradient>
    <path id="path72"
          d="m 170.29879,158.784 c -0.352,0.498 -0.548,1.047 -0.548,1.689 v 25.84 c 0,0.797 0.297,1.543 0.898,2.086 0.548,0.598 1.296,0.895 2.098,0.895 0.849,0 1.546,-0.297 2.147,-0.895 0.548,-0.543 0.849,-1.289 0.849,-2.086 v -18.432 l 19.828,20.471 c 0.451,0.445 0.948,0.746 1.55,0.893 0.598,0.1 1.149,0.049 1.747,-0.146 0.551,-0.252 0.998,-0.598 1.35,-1.143 0.351,-0.498 0.501,-1.045 0.501,-1.643 v -25.84 c 0,-0.844 -0.301,-1.539 -0.853,-2.137 -0.597,-0.543 -1.295,-0.844 -2.147,-0.844 -0.798,0 -1.546,0.301 -2.098,0.844 -0.598,0.598 -0.898,1.293 -0.898,2.137 v 18.436 l -19.777,-20.521 c -0.451,-0.396 -0.949,-0.695 -1.551,-0.846 -0.598,-0.096 -1.199,-0.049 -1.746,0.201 -0.552,0.197 -1.049,0.547 -1.35,1.041 z"
          style="fill:url(#SVGID_10_);stroke:#484848;stroke-width:1.44000006;stroke-linecap:round;stroke-linejoin:round"/>
    <radialGradient gradientTransform="translate(-4.2812101,-4.1360002)" gradientUnits="userSpaceOnUse" r="22.196199"
                    cy="52.9604" cx="157.4951" id="SVGID_11_">
        <stop id="stop74" stop-color="#FFFFFF" offset="0.43"/>
        <stop id="stop76" stop-color="#7A7A7A" offset="0.64"/>
        <stop id="stop78" stop-color="#000000" offset="0.99"/>
    </radialGradient>
    <path id="path81"
          d="m 162.71679,42.276 c 1.59,-0.151 2.738,-0.154 3.447,-0.015 v 0.104 c 2.266,1.442 3.504,2.889 3.608,4.536 -0.827,2.577 -3.404,5.466 -7.528,8.663 -4.947,3.708 -11.752,7.524 -20.104,11.441 -3.791,1.729 -7.782,3.39 -11.978,5.004 -4.814,1.854 -4.092,14.738 -0.559,13.456 6.304,-2.284 12.21,-4.711 17.69,-7.22 9.279,-4.332 16.807,-8.559 22.478,-12.887 7.217,-5.57 11.34,-10.825 12.06,-15.879 1.336,-4.886 0.169,-9.239 -3.536,-13.177 -1.453,-1.547 -16.298,6.042 -15.578,5.974 z"
          style="fill:url(#SVGID_11_)"/>
    <radialGradient gradientTransform="translate(-4.2812101,-4.1360002)" gradientUnits="userSpaceOnUse" r="22.9105"
                    cy="85.897003" cx="50.105499" id="SVGID_12_">
        <stop id="stop83" stop-color="#FFFFFF" offset="0"/>
        <stop id="stop85" stop-color="#000000" offset="1"/>
    </radialGradient>
    <path id="path88"
          d="m 79.13079,86.514 c -3.623,0.684 -7.145,1.281 -10.599,1.833 l 0.104,-0.104 c -7.009,1.031 -13.095,1.546 -18.35,1.65 h -0.104 c -4.535,0 -8.043,-0.308 -10.309,-1.135 -1.547,-0.619 -3.093,-0.515 -4.64,0.208 -1.65,0.619 -2.681,1.854 -3.3,3.4 -0.62,1.65 -0.516,3.197 0.208,4.744 0.719,1.547 1.854,2.682 3.401,3.301 3.3,1.234 8.144,1.854 14.845,1.854 5.67,-0.104 12.271,-0.619 19.899,-1.754 h 0.104 c 3.813,-0.529 7.732,-1.191 11.749,-1.969 3.8,-0.731 0.833,-12.751 -3.008,-12.028 z"
          style="fill:url(#SVGID_12_)"/>
    <radialGradient gradientTransform="translate(-4.2812101,-4.1360002)" gradientUnits="userSpaceOnUse" r="52.493401"
                    cy="37.691399" cx="61.441898" id="SVGID_13_">
        <stop id="stop90" stop-color="#FFFFFF" offset="0.8128"/>
        <stop id="stop92" stop-color="#575757" offset="1"/>
    </radialGradient>
    <path id="path95"
          d="m 78.32479,20.103 c -3.487,1.156 -6.888,2.359 -10.206,3.601 -7.732,2.993 -14.641,5.981 -20.827,9.178 h 0.104 c -6.701,3.401 -12.164,6.702 -16.392,10.206 v -0.104 c -5.155,4.02 -8.659,7.94 -10.517,11.648 v 0.104 c -2.885,5.259 -3.093,10.106 -0.72,14.641 1.443,4.432 5.875,6.805 13.402,7.217 4.328,0.308 10.206,-0.312 17.63,-1.754 3.73,-0.77 7.983,-1.826 12.783,-3.107 2.892,-0.773 -0.548,-12.679 -3.397,-11.906 -4.417,1.203 -8.352,2.158 -11.863,2.849 -6.082,1.235 -10.825,1.75 -14.433,1.546 -1.443,0 -2.474,-0.104 -2.885,-0.104 l -0.104,-0.104 c -0.308,-1.031 -0.204,-2.266 0.516,-3.504 v -0.104 c 1.342,-2.37 3.712,-4.947 7.217,-7.628 3.816,-2.989 8.559,-5.978 14.33,-8.867 5.774,-3.093 12.271,-5.875 19.488,-8.659 v 0.104 c 2.044,-0.77 4.124,-1.525 6.232,-2.259 5.234,-1.818 3.949,-14.419 -0.358,-12.994 z"
          style="fill:url(#SVGID_13_)"/>
    <path id="path97"
          d="m 129.68279,20.769 c 3.981,-0.512 7.865,-0.87 11.635,-1.084 7.424,-0.619 14.125,-0.516 20,0.104 1.753,0.208 3.196,-0.308 4.535,-1.339 1.342,-1.135 2.063,-2.477 2.27,-4.124 0.207,-1.754 -0.309,-3.3 -1.339,-4.5390002 -1.135,-1.339 -2.477,-2.162 -4.124,-2.266 -6.601,-0.723 -14.021,-0.723 -22.165,-0.208 -5.23,0.354 -10.65,0.949 -16.299,1.787 -2.596,0.382 1.85,12.1340002 5.487,11.6690002 z"
          style="fill:#cccccc"/>
    <radialGradient gradientTransform="translate(-4.2812101,-4.1360002)" gradientUnits="userSpaceOnUse" r="29.353399"
                    cy="1.0562" cx="162.86819" id="SVGID_14_">
        <stop id="stop99" stop-color="#FFFFFF" offset="0"/>
        <stop id="stop101" stop-color="#000000" offset="1"/>
    </radialGradient>
    <path id="path104"
          d="m 129.68279,20.769 c 3.981,-0.512 7.865,-0.87 11.635,-1.084 7.424,-0.619 14.125,-0.516 20,0.104 1.753,0.208 3.196,-0.308 4.535,-1.339 1.342,-1.135 2.063,-2.477 2.27,-4.124 0.207,-1.754 -0.309,-3.3 -1.339,-4.5390002 -1.135,-1.339 -2.477,-2.162 -4.124,-2.266 -6.601,-0.723 -14.021,-0.723 -22.165,-0.208 -5.23,0.354 -10.65,0.949 -16.299,1.787 -2.596,0.382 1.85,12.1340002 5.487,11.6690002 z"
          style="fill:url(#SVGID_14_)"/>
    <linearGradient gradientTransform="translate(-4.2812101,-4.1360002)" y2="37.913101" x2="44.934898" y1="44.713902"
                    x1="53.883301" gradientUnits="userSpaceOnUse" id="SVGID_15_">
        <stop id="stop106" stop-color="#000000" offset="0"/>
        <stop id="stop108" stop-color="#FFFFFF" offset="1"/>
    </linearGradient>
    <path id="path111"
          d="m 26.75979,57.98 c 0,6.684 4.278,6.197 4.271,6.143 0,-0.003 -0.007,-0.003 -0.025,-0.003 l -0.104,-0.104 c -0.308,-1.031 -0.204,-2.266 0.516,-3.504 v -0.104 c 1.342,-2.37 3.712,-4.947 7.217,-7.628 3.816,-2.989 8.559,-5.978 14.33,-8.867 5.774,-3.093 12.271,-5.875 19.488,-8.659 v 0.104 c 2.044,-0.77 4.124,-1.525 6.232,-2.259 2.305,-0.802 3.347,-3.698 3.422,-6.562 -2.696,-0.369 -5.474,-0.562 -8.316,-0.562 -6.143,0 -11.996,0.902 -17.315,2.531 -3.226,1.428 -6.282,2.878 -9.182,4.378 h 0.104 c -2.087,1.06 -4.052,2.109 -5.903,3.157 -7.462,5.719 -14.735,13.469 -14.735,21.939 z"
          style="fill:url(#SVGID_15_)"/>
    <path id="path113"
          d="m 168.12179,14.325 c 0.207,-1.754 -0.309,-3.3 -1.339,-4.5390002 -1.135,-1.339 -2.477,-2.162 -4.124,-2.266 -6.601,-0.723 -14.021,-0.723 -22.165,-0.208 -7.633,0.516 -15.673,1.546 -24.229,3.0930002 -8.146,1.443 -16.395,3.404 -24.642,5.67 -8.248,2.27 -16.08,4.847 -23.504,7.628 -7.732,2.993 -14.641,5.981 -20.827,9.178 h 0.104 c -6.701,3.401 -12.164,6.702 -16.392,10.206 v -0.104 c -5.155,4.02 -8.659,7.94 -10.517,11.648 v 0.104 c -2.885,5.259 -3.093,10.106 -0.72,14.641 1.443,4.432 5.795,6.485 13.323,6.896 4.328,0.308 10.286,0.009 17.71,-1.434 5.978,-1.235 13.298,-3.197 22.062,-5.67 6.39,-1.958 14.537,-4.535 24.432,-7.836 l 24.539,-8.04 c 8.967,-2.989 16.287,-5.259 21.958,-6.805 6.908,-2.062 12.371,-3.297 16.495,-3.917 2.889,-0.412 4.847,-0.516 5.878,-0.312 v 0.104 c 2.266,1.442 3.504,2.889 3.608,4.536 -0.827,2.577 -3.404,5.466 -7.528,8.663 -4.947,3.708 -11.752,7.524 -20.104,11.441 -8.144,3.712 -17.215,7.116 -27.217,10.413 h -0.104 c -7.732,2.474 -15.668,4.64 -23.813,6.598 -7.939,1.858 -15.364,3.197 -22.477,4.332 l 0.104,-0.104 c -7.009,1.031 -13.095,1.546 -18.35,1.65 h -0.104 c -4.535,0 -8.043,-0.308 -10.309,-1.135 -1.547,-0.619 -3.093,-0.515 -4.64,0.208 -1.65,0.619 -2.681,1.854 -3.3,3.4 -0.62,1.65 -0.516,3.197 0.208,4.744 0.719,1.547 1.854,2.682 3.401,3.301 3.3,1.234 8.144,1.854 14.845,1.854 5.67,-0.104 12.271,-0.619 19.899,-1.754 h 0.104 c 7.421,-1.031 15.257,-2.576 23.401,-4.432 h 0.104 c 8.456,-2.062 16.703,-4.332 24.744,-6.909 10.517,-3.297 20.104,-7.009 28.658,-10.925 9.279,-4.332 16.807,-8.559 22.478,-12.887 7.217,-5.57 11.34,-10.825 12.06,-15.879 1.858,-6.802 -1.131,-12.576 -9.071,-17.626 -2.474,-1.962 -7.112,-2.477 -14.125,-1.546 h -0.1 c -4.54,0.719 -10.622,2.062 -18.146,4.224 -5.773,1.65 -13.198,3.919 -22.477,7.013 l -24.536,8.04 c -9.794,3.197 -17.734,5.774 -24.02,7.628 -8.352,2.478 -15.26,4.332 -21.035,5.466 -6.082,1.235 -10.825,1.75 -14.433,1.546 -1.443,0 -2.474,-0.104 -2.885,-0.104 l -0.104,-0.104 c -0.308,-1.031 -0.204,-2.266 0.516,-3.504 v -0.104 c 1.342,-2.37 3.712,-4.947 7.217,-7.628 3.816,-2.989 8.559,-5.978 14.33,-8.867 5.774,-3.093 12.271,-5.875 19.488,-8.659 v 0.104 c 7.113,-2.681 14.638,-5.155 22.474,-7.32 7.94,-2.27 15.772,-4.124 23.608,-5.463 7.939,-1.546 15.568,-2.477 22.785,-2.889 7.424,-0.619 14.125,-0.516 20,0.104 1.753,0.208 3.196,-0.308 4.535,-1.339 1.342,-1.134 2.062,-2.477 2.269,-4.124 z"
          style="fill:none;stroke:#333333;stroke-width:1.44000006;stroke-linecap:round;stroke-linejoin:round"/>
    <radialGradient gradientTransform="translate(-4.2812101,-4.1360002)" gradientUnits="userSpaceOnUse" r="47.610298"
                    cy="35.629902" cx="113.4971" id="SVGID_16_">
        <stop id="stop115" stop-color="#FFFFFF" offset="0.04"/>
        <stop id="stop117" stop-color="#FFFFFF" offset="0.04"/>
        <stop id="stop119" stop-color="#6E93E1" offset="0.23"/>
        <stop id="stop121" stop-color="#363499" offset="1"/>
    </radialGradient>
    <circle id="circle124" r="52.578999" cy="54.018997" cx="100.62479"
            style="fill:url(#SVGID_16_);stroke:#33317a;stroke-width:2.88000011;stroke-linecap:round;stroke-linejoin:round"/>
    <linearGradient gradientTransform="translate(-4.2812101,-4.1360002)" y2="51.730499" x2="106.9759" y1="63.437"
                    x1="110.5596" gradientUnits="userSpaceOnUse" id="SVGID_17_">
        <stop id="stop126" stop-color="#000000" offset="0"/>
        <stop id="stop128" stop-color="#FFFFFF" offset="0.9893"/>
    </linearGradient>
    <path id="path131"
          d="m 47.83479,62.824 c -0.604,0.116 -16.489,3.589 -19.115,0.964 -0.771,-0.771 1.671,1.196 4.16,4.434 0.316,0.411 0.112,1.094 -0.257,1.935 -0.084,0.193 -0.176,0.253 -0.334,0.461 -0.074,0.099 -0.096,0.497 -0.109,0.598 -0.04,0.322 -0.21,0.578 -0.257,0.862 -0.15,0.901 -0.681,1.62 -0.795,2.195 -0.043,0.217 0.281,0.414 0.259,0.592 -0.023,0.191 -0.411,0.239 -0.398,0.391 0.013,0.152 -0.439,0.203 -0.4,0.329 0.011,0.035 -0.014,0.16 0.067,0.179 0.308,0.071 1.039,0.142 1.141,0.157 0.157,0.022 1.572,0.23 3.602,0.246 2.03,0.015 4.526,0.019 6.712,-0.224 1.338,-0.148 2.733,-0.337 4.045,-0.529 1.724,-0.253 3.303,-0.511 4.416,-0.688 1.035,-0.164 1.498,-0.042 1.644,-0.028 5.699,-1.242 12.54,-3.085 20.604,-5.362 6.39,-1.958 14.538,-4.535 24.432,-7.836 l 24.539,-8.04 c 4.947,-1.65 9.394,-3.079 13.338,-4.289 3.207,-0.984 6.078,-1.822 8.62,-2.517 3.129,-0.931 5.957,-1.693 8.502,-2.309 3.078,-0.745 5.734,-1.271 7.993,-1.607 2.889,-0.412 4.847,-0.516 5.878,-0.312 v 0.104 c 0.87,0.555 4.665,0.114 6.583,3.014 3.09,4.668 4.604,13.073 5.863,11.348 1.801,-2.466 2.886,-4.879 3.222,-7.249 1.858,-6.802 -1.131,-12.318 -9.07,-17.369 -2.474,-1.962 -7.113,-2.478 -14.126,-1.546 h -0.1 c -2.75,0.437 -6.067,1.103 -9.931,2.041 -2.509,0.608 -5.251,1.074 -8.216,1.926 -2.863,0.82 -6.135,1.79 -9.837,2.939 -3.758,1.167 -7.961,2.513 -12.64,4.073 l -24.535,8.04 c -6.941,2.266 -12.948,4.221 -18.099,5.828 z"
          style="fill:url(#SVGID_17_)"/>
    <path id="path133"
          d="m 149.35979,32.06 c -2.51,0.609 -6.005,1.618 -8.97,2.47 -5.773,1.65 -13.198,3.919 -22.477,7.013 l -24.536,8.04 c -7.467,2.438 -13.784,4.411 -19.184,5.987 -2.343,0.684 -3.99,1.048 -4.832,1.296 -8.151,2.416 -28.108,8.23 -35.859,7.381"
          style="fill:none;stroke:#333333;stroke-linecap:round;stroke-linejoin:round"/>
    <path id="path135"
          d="m 50.65379,74.841 c 5.699,-1.242 14.144,-3.394 22.208,-5.67 6.39,-1.958 14.537,-4.535 24.432,-7.836 l 24.539,-8.04 c 8.967,-2.989 16.287,-5.259 21.958,-6.805 3.129,-0.931 6.733,-1.823 9.278,-2.439"
          style="fill:none;stroke:#333333;stroke-linecap:round;stroke-linejoin:round"/>
</svg>
