<?xml version="1.0" encoding="UTF-8" standalone="no"?>
<svg xmlns:dc="http://purl.org/dc/elements/1.1/" xmlns:cc="http://creativecommons.org/ns#"
     xmlns:rdf="http://www.w3.org/1999/02/22-rdf-syntax-ns#" xmlns="http://www.w3.org/2000/svg" id="svg1979"
     height="292.66086" width="902.66119" version="1.0">
  <metadata id="metadata14">
    <rdf:RDF>
      <cc:Work rdf:about="">
        <dc:format>image/svg+xml</dc:format>
        <dc:type rdf:resource="http://purl.org/dc/dcmitype/StillImage"/>
        <dc:title></dc:title>
      </cc:Work>
    </rdf:RDF>
  </metadata>
  <defs id="defs1981"/>
  <g id="layer1" transform="translate(54.826719,-236.01245)">
    <g id="g25789" transform="translate(3.541442,3.551494)">
      <path id="path13557" style="fill:#000000;fill-rule:nonzero;stroke:none"
            d="m 203.25824,425.35124 c 0,12.57906 -18.9547,13.61298 -73.23404,12.57906 -84.434505,-1.37852 -155.256117,-9.82204 -155.256117,-9.82204 l -33.136244,91.32721 c 0,0 80.385116,5.51405 166.163691,5.51405 122.34389,0 223.14837,4.82487 241.58612,-75.99111 13.09597,-57.03638 -36.70318,-83.91747 -95.97965,-101.49369 -39.97716,-11.88974 -112.86655,-28.25975 -112.86655,-42.56191 0,-18.26542 48.93755,-17.74853 82.88367,-18.78231 37.0478,-1.03392 180.58649,-1.20622 180.58649,-1.20622 l 18.26542,-51.69461 c 0,0 -103.21689,-2.75703 -205.74452,2.24013 -147.674251,7.40946 -175.244695,40.14948 -178.691007,71.51085 -4.480205,40.66636 50.316075,68.92611 83.572937,81.67746 31.70603,12.06203 81.8498,21.02244 81.8498,36.70313"/>
      <path id="path13559" style="fill:#000000;fill-rule:nonzero;stroke:none"
            d="m 597.51575,328.50998 c -0.68928,-1.37852 -1.55084,-2.75703 -2.41242,-4.13554 l 178.00175,-44.80191 c 28.25971,13.78513 51.86692,31.53366 64.10131,54.27921 11.02818,19.98865 8.78808,40.6665 -3.96326,60.82732 C 731.40477,521.15858 466.55608,520.29695 370.92107,524.60493 l 41.52799,-117.00222 v 0 c 25.33036,-0.86148 61.86121,-4.48013 83.74526,-8.78797 21.71173,-4.30798 41.18337,-9.99433 57.03638,-16.7146 15.85301,-6.72028 28.25971,-14.30217 36.18622,-22.4011 7.75419,-8.09878 11.54512,-16.36987 9.99429,-24.98568 -0.34463,-2.0677 -1.0339,-4.13554 -1.89546,-6.20338"/>
      <path id="path13561" style="fill:#000000;fill-rule:nonzero;stroke:none"
            d="m 735.36802,264.06414 c -10.33892,-4.30798 -24.6411,-9.64974 -35.15233,-12.40676 l -130.2704,52.55624 c 3.79093,1.8954 9.47734,6.20324 12.40671,8.09878 0.86156,0.68919 1.55083,1.20622 2.4124,1.72311 l 150.60362,-49.97137"/>
      <path id="path13563" style="fill:#000000;fill-rule:nonzero;stroke:none"
            d="m 628.5325,239.59535 c -21.53941,-3.10176 -39.4602,-4.48028 -49.97145,-4.82487 -41.52799,-1.03392 -57.89795,-1.89541 -104.07847,-1.72311 l -18.43773,52.03921 v 0 c 11.37281,0.3446 16.54227,-0.1723 35.66927,1.72311 17.57617,1.72325 33.77381,4.30798 48.07598,8.09879 l 88.7424,-55.31313"/>
      <path id="path13565" style="fill:#000000;fill-rule:nonzero;stroke:none"
            d="m 793.26597,486.52315 h -12.4067 l -5.34178,38.59867 h -6.20335 l 5.51409,-38.59867 h -12.4067 l 0.86157,-5.51405 h 30.84445 l -0.86158,5.51405"/>
      <path id="path13567" style="fill:#000000;fill-rule:nonzero;stroke:none"
            d="m 838.92954,525.12182 h -5.85872 v -33.4292 0 l -17.74848,33.4292 -7.58188,-33.7738 h -0.17231 l -10.85587,33.7738 h -5.85872 l 14.6468,-44.11272 h 4.99715 l 6.7203,29.81055 15.85301,-29.81055 h 5.85872 v 44.11272"/>
    </g>
  </g>
</svg>
