<?xml version="1.0" encoding="UTF-8" standalone="no"?>
<svg xmlns:dc="http://purl.org/dc/elements/1.1/" xmlns:cc="http://creativecommons.org/ns#"
     xmlns:rdf="http://www.w3.org/1999/02/22-rdf-syntax-ns#" xmlns="http://www.w3.org/2000/svg"
     viewBox="0 0 249.44863 35.487866" height="35.487865" width="249.44862" xml:space="preserve" id="svg2"
     version="1.1"><metadata
     id="metadata8"><rdf:RDF><cc:Work
         rdf:about=""><dc:format>image/svg+xml</dc:format><dc:type
    rdf:resource="http://purl.org/dc/dcmitype/StillImage"/><dc:title></dc:title></cc:Work></rdf:RDF></metadata>
    <defs id="defs6"/>
    <g transform="matrix(1.3333333,0,0,-1.3333333,-4.1260399,147.004)" id="g10"><path
       d="m 11.5227,83.6926 c 0,0 -8.42817,2.2179 -8.42817,6.2101 0,7.9293 45.24687,17.6883 45.24687,17.6883 v 0 l -7.4855,-8.539 c 0,0 -33.04809,-3.8817 -33.04809,-11.0344 0,-1.8852 3.71489,-4.325 3.71489,-4.325 v 0"
       style="fill:#c3392f;fill-opacity:1;fill-rule:evenodd;stroke:none;stroke-width:0.1"
       id="path16" />
        <path d="m 34.7563,83.6371 -21.6254,0.0555 v 6.7648 c 0,0.1664 15.8031,5.1567 21.6254,5.1567 v 0 -11.977"
              style="fill:#c3392f;fill-opacity:1;fill-rule:evenodd;stroke:none;stroke-width:0.1" id="path18"/>
        <path
            d="m 34.7563,106.815 c -1.6637,0 -21.6809,-6.211 -21.6809,-6.8759 v 0 5.7109 l 4.4359,4.603 h 17.245 v -3.438"
            style="fill:#c3392f;fill-opacity:1;fill-rule:evenodd;stroke:none;stroke-width:0.1" id="path20"/>
        <path
            d="m 57.934,100.827 c 0,0 -1.9961,1.33 -4.8793,1.33 -5.157,0 -8.3176,-5.323 -8.0402,-7.7074 0.4433,-3.6598 5.6003,-2.2734 5.6003,-4.4359 0,-2.0516 -4.2695,-3.1051 -6.0441,-0.3324 v 0 l -3.0496,-3.4379 c 0,0 2.2734,-2.1071 5.4894,-2.1071 5.0461,0 8.65,4.436 8.65,7.8184 0,3.7703 -5.3785,2.9387 -5.3785,4.6023 0,0.7207 0.7207,1.8297 2.3289,1.8297 1.7746,0 2.495,-0.998 2.495,-0.998 v 0 l 2.8281,3.4383"
            style="fill:#c3392f;fill-opacity:1;fill-rule:evenodd;stroke:none;stroke-width:0.1" id="path22"/>
        <path
            d="m 61.982,91.2891 -2.1625,-6.4875 h -3.8261 l 3.3824,10.8125 h 3.8816 l -0.2773,-1.1645 c 0,0 1.6633,1.5527 4.1031,1.5527 1.8297,0 2.6063,-1.2753 2.8277,-1.996 1.1645,1.6632 3.3829,1.996 4.3809,1.996 3.493,0 2.5504,-3.6043 2.5504,-3.6043 v 0 l -2.3289,-7.5414 -4.1031,-0.055 2.107,6.7648 c 0.4437,1.8297 -2.4949,1.7191 -3.216,-0.2773 v 0 l -2.218,-6.4875 h -3.8258 l 1.9961,6.9308 c 0.4438,1.6637 -2.6062,1.6637 -3.2715,-0.4433 v 0"
            style="fill:#c3392f;fill-opacity:1;fill-rule:evenodd;stroke:none;stroke-width:0.1" id="path24"/>
        <path
            d="m 89.2078,84.9125 h -3.9371 l 0.2219,0.8871 c 0,0 -0.943,-1.3308 -3.6598,-1.3308 -2.107,0 -3.8816,1.4972 -3.8816,3.8257 0,4.6582 4.4359,7.7078 7.7629,7.7078 1.7746,0 2.6617,-1.1089 2.6617,-1.1089 v 0 l 0.3328,0.8871 h 3.7707 z m -6.9871,4.9352 c 0,-1.6637 0.6102,-1.9411 1.7746,-1.9411 1.8297,0 3.1051,1.6082 3.1051,2.7727 0,0.7762 -0.0555,1.8852 -1.8852,1.8852 -1.4414,0 -2.9945,-1.5528 -2.9945,-2.7168 v 0"
            style="fill:#c3392f;fill-opacity:1;fill-rule:evenodd;stroke:none;stroke-width:0.1" id="path26"/>
        <path
            d="m 95.5844,95.7805 h 3.8812 l -0.3879,-1.6082 c 0.277,0.3328 1.2753,1.6636 4.5463,1.6636 0,-0.0554 -0.942,-3.4933 -0.942,-3.4933 -0.61,0.1109 -3.6043,0.7207 -4.6582,-1.7742 v 0 l -1.8851,-5.6559 h -3.8258 l 3.2715,10.868"
            style="fill:#c3392f;fill-opacity:1;fill-rule:evenodd;stroke:none;stroke-width:0.1" id="path28"/>
        <path
            d="m 105.399,95.8359 h 1.885 l 1.054,3.1051 h 3.77 l -0.887,-3.0496 h 2.107 l -0.998,-3.2715 h -2.051 l -2.44,-7.6519 h -3.882 l 2.273,7.7074 h -1.829 l 0.998,3.1605"
            style="fill:#c3392f;fill-opacity:1;fill-rule:evenodd;stroke:none;stroke-width:0.1" id="path30"/>
        <path
            d="m 111.498,84.968 7.541,15.803 h 4.159 l 0.61,-7.9292 6.044,7.9852 4.048,0.055 -2.606,-15.8031 h -4.159 l 1.608,8.7609 -6.432,-8.7609 h -1.663 l -0.888,8.7609 -4.269,-8.8168 -3.993,-0.055"
            style="fill:#c3392f;fill-opacity:1;fill-rule:evenodd;stroke:none;stroke-width:0.1" id="path32"/>
        <path
            d="m 139.833,87.5188 c 1.275,0 2.107,1.0535 2.107,1.0535 v 0 l 3.881,-0.0555 c 0,-0.4438 -2.606,-3.8262 -6.653,-3.8262 -2.385,0 -5.102,0.8871 -5.102,4.0477 0,3.5492 3.05,7.8738 8.207,7.8738 6.765,0 4.103,-6.1547 4.103,-6.6539 v 0 l -8.262,-0.1105 c -0.055,-0.4993 -0.61,-2.3289 1.719,-2.3289 z m -0.998,4.6023 h 4.824 c 0,0 0.499,1.9402 -1.719,1.8852 -2.218,0 -3.216,-2.1075 -3.105,-1.8852 v 0"
            style="fill:#c3392f;fill-opacity:1;fill-rule:evenodd;stroke:none;stroke-width:0.1" id="path34"/>
        <path d="m 170.607,104.32 h 3.827 l -3.882,-6.0997 h -4.048 l 4.103,6.0997"
              style="fill:#c3392f;fill-opacity:1;fill-rule:evenodd;stroke:none;stroke-width:0.1" id="path36"/>
        <path d="m 165.728,96.1133 h 3.826 l -3.327,-10.868 -3.937,0.0551 3.438,10.8129"
              style="fill:#c3392f;fill-opacity:1;fill-rule:evenodd;stroke:none;stroke-width:0.1" id="path38"/>
        <path
            d="m 159.185,85.2453 h -3.881 l 0.166,0.8871 c 0,0 -1.331,-1.1644 -3.715,-1.1644 -1.165,0 -3.826,0.3879 -3.826,3.6043 0,4.1582 3.548,7.8183 7.43,7.8183 2.162,0 2.883,-1.2203 2.883,-1.2203 v 0 l 2.329,7.5417 3.937,-0.112 z m -6.987,4.5465 c 0,-1.0535 0.555,-1.5523 1.886,-1.5523 1.829,0 3.049,1.8296 3.049,3.105 0,1.0535 -0.332,1.6637 -1.885,1.6637 -1.885,0 -3.05,-1.5527 -3.05,-3.2164 v 0"
            style="fill:#c3392f;fill-opacity:1;fill-rule:evenodd;stroke:none;stroke-width:0.1" id="path40"/>
        <path
            d="m 181.42,85.3559 h -3.937 l 0.222,0.9425 c 0,0 -0.942,-1.3304 -3.66,-1.3304 -2.107,0 -3.881,1.4968 -3.881,3.8258 0,4.6578 4.436,7.7632 7.763,7.7632 1.83,0 2.717,-1.1644 2.717,-1.1644 v 0 l 0.277,0.8871 h 3.826 z m -6.986,4.9906 c 0,-1.6633 0.665,-1.9406 1.829,-1.9406 1.775,0 3.05,1.6078 3.05,2.7722 0,0.7207 0,1.8852 -1.83,1.8852 -1.441,0 -3.049,-1.5524 -3.049,-2.7168 v 0"
            style="fill:#c3392f;fill-opacity:1;fill-rule:evenodd;stroke:none;stroke-width:0.1" id="path42"/>
        <path
            d="m 185.302,98.6637 0.499,2.4403 h -0.887 l 0.055,0.332 h 2.218 l -0.111,-0.332 h -0.887 l -0.5,-2.4403 h -0.387"
            style="fill:#c3392f;fill-opacity:1;fill-rule:evenodd;stroke:none;stroke-width:0.1" id="path44"/>
        <path
            d="m 186.965,98.6637 0.61,2.7723 h 0.444 l 0.277,-1.7739 c 0.055,-0.2773 0.055,-0.4992 0.055,-0.7211 0.111,0.1664 0.222,0.4438 0.388,0.7766 v 0 l 0.999,1.7184 h 0.443 l -0.554,-2.7723 h -0.388 l 0.277,1.3308 c 0.055,0.3325 0.166,0.6655 0.277,1.0535 -0.055,-0.166 -0.166,-0.388 -0.277,-0.554 v 0 l -1.054,-1.8303 h -0.333 l -0.277,1.7743 c 0,0.166 0,0.333 -0.055,0.555 0,-0.222 -0.056,-0.444 -0.056,-0.555 v 0 l -0.388,-1.7743 h -0.388"
            style="fill:#c3392f;fill-opacity:1;fill-rule:evenodd;stroke:none;stroke-width:0.1" id="path46"/></g></svg>