<?xml version="1.0" encoding="UTF-8" standalone="no"?>
<svg xmlns:dc="http://purl.org/dc/elements/1.1/" xmlns:cc="http://creativecommons.org/ns#"
     xmlns:rdf="http://www.w3.org/1999/02/22-rdf-syntax-ns#" xmlns="http://www.w3.org/2000/svg" id="svg14" version="1.1"
     viewBox="0 0 187.08583 134.71596" height="1747.2344" width="2426.4592">
    <metadata id="metadata20">
        <rdf:RDF>
            <cc:Work rdf:about="">
                <dc:format>image/svg+xml</dc:format>
                <dc:type rdf:resource="http://purl.org/dc/dcmitype/StillImage"/>
                <dc:title></dc:title>
            </cc:Work>
        </rdf:RDF>
    </metadata>
    <defs id="defs18"/>
    <path id="path4"
          d="m 139.33292,0 c -36.598,0 -73.999035,32.496011 -77.354035,35.966011 h -2.409902 c -0.645,0 -0.94601,0.558911 -0.94601,1.060911 0,0.502 0.02801,1.836001 0.02801,1.836001 0,0 -3.814086,3.786086 -4.675087,4.675086 -0.861,0.889 -1.548962,0.603038 -1.634962,-0.257962 -0.086,-0.861 -0.08607,-1.865139 -0.516074,-2.840139 -0.43,-0.975 -2.236934,-4.38791 -2.838934,-4.38791 H 37.971878 c -0.688,0 -0.832025,0.08603 -1.205027,1.205027 -0.372999,1.118999 -2.924921,8.518957 -2.924921,10.238957 0,1.176002 3.269924,5.679021 3.269924,6.023021 v 11.10004 c 0,0.659996 -1.921997,2.351962 -2.408998,0.257961 -1.290999,-5.076006 -5.10492,-11.014039 -11.87392,-13.509034 0.064,-0.237005 0.06393,-0.171954 0.08493,-0.343954 0.086,-0.278995 1.61405,-0.129 2.06505,0 0.452,0.129 3.871938,1.183005 4.560938,1.377003 0.688,0.193002 0.946013,1.5e-5 1.291013,-1.462988 0.345,-1.463002 2.324065,-9.70212 2.324065,-10.15312 0,-0.451 -1.592065,-3.720859 -2.324065,-4.731859 -0.301,-0.344 -0.58101,-0.645049 -0.94601,-0.688049 -0.366,-0.043 -9.485958,-1.033038 -10.238957,-1.119038 -0.473001,0 -1.032947,1.054028 -1.375948,1.333028 -0.451999,0 -4.646021,-0.129056 -4.646021,-0.129056 C 6.8549336,35.449937 0,39.435908 0,46.520908 c 0,9.177996 7.5148916,15.316095 9.6228912,16.011096 0.8169998,0.302002 1.8710678,0.709944 3.8290678,1.311944 0.624001,0.215 1.11904,0.559054 1.119039,0.688054 0,0.129 -1.54e-4,0.171969 -1.549125,0.171969 -4.3880005,0 -7.1849124,-2.49498 -8.5189121,-2.49498 -0.538,0 -0.624023,-0.04298 -0.8600231,0.860016 -0.209,0.797 -2.4089982,8.79797 -2.4089982,9.807973 0,0.710999 1.8069599,4.088054 2.66696,5.164048 0.194,0.279003 5.0340077,3.011967 13.6810084,3.011967 7.679999,0 8.389046,-0.946979 9.637046,-1.548979 0.86,-0.34599 1.291014,-0.107072 1.291014,0.51593 0,0.622995 0.258026,1.033049 1.205026,1.033049 h 40.247905 c 0.903999,-4.496003 3.098091,-9.464998 7.507094,-14.111998 0.322998,-0.107998 1.118887,-0.08608 1.118887,0.515923 v 8.002088 c 0,0.301 2.68907,5.336026 2.925072,5.336026 h 11.874973 c 0.452005,0 0.688054,-0.453054 0.688054,-1.033049 v -6.195001 c 0,-0.796999 0.537959,-1.462987 1.634956,-1.462987 7.744005,0 17.036925,-4.475069 17.036925,-15.660068 0,-4.991 -2.04493,-8.001872 -2.23793,-8.431873 -0.174,-0.386 0.064,-0.860023 1.11904,-0.860023 1.055,0 0.9689,1.031978 1.0329,1.548972 0.258,0.430001 3.01001,4.925911 3.01001,5.419914 v 13.595019 c 0,1.892995 -10.9839,12.160043 -12.6189,13.537038 h 42.592 c 0.467,-0.284994 4.07999,-4.438007 4.44498,-4.846002 0.367,-0.41 0.8609,-0.32403 1.1189,0.171977 0.258,0.493987 1.95713,3.699057 2.15013,4.043049 0.26,0.518013 0.6039,0.604021 1.0329,0.604021 h 10.75609 c 0.77299,0 1.03289,-0.646011 1.03289,-1.291011 v -8.948998 c 0,-0.559 1.527,-0.81609 2.064,0.94691 0.408,1.227 3.82806,7.938039 4.04306,8.346034 0.217,0.408003 0.56103,1.033057 1.20502,1.033057 h 12.81994 c 0.71599,0 0.97506,-0.574004 0.60206,-1.377003 -1.26201,-3.213003 -5.50797,-9.092046 -6.45296,-11.014047 0,-1.807002 6.02287,-3.35592 6.02287,-13.250918 0,-5.048002 -2.66796,-8.80501 -4.81995,-12.304011 -4.02101,-6.518 -10.36691,-6.970087 -10.92792,-6.970087 -1.203,0 -1.80709,-0.452023 -1.80709,-0.860023 v -1.291013 c 0,-0.474 0.7751,-5.764896 0.7751,-8.259896 C 169.706,9.206015 157.57292,0 139.33292,0 Z m -2.35403,4.8484156 c 3.47848,-0.00606 6.87672,0.3239195 9.32397,1.1746072 0.164,0.057 0.86113,0.5809335 0.17212,1.461934 -0.688,0.8819998 -24.76,28.6959772 -25.039,28.9969772 h -4.73201 c -0.62299,0 -0.83811,0.366049 -0.94511,0.688049 -0.109,0.323 -2.10893,7.205985 -2.23793,7.657985 -0.129,0.451 -0.51596,0.688048 -1.01197,0.688048 h -2.2581 c -1.42,0 -2.32196,-1.355049 -2.32196,-2.065049 V 42.41897 c 0,-1.097001 15.01408,-34.5040547 15.22908,-35.0210549 0.215,-0.5160001 0.56194,-0.8778594 0.77494,-0.9458598 2.70691,-0.868062 7.96204,-1.5947799 13.04597,-1.6036397 z m -21.96696,3.8995448 c 0.853,0 1.26793,0.3800262 0.97493,1.2050257 -0.295,0.8249999 -10.38287,27.9929909 -10.72687,28.9109909 -0.092,0.242 -0.56108,0.523001 -0.79708,0.523001 -0.344,0 -1.32192,-0.945957 -1.48392,-1.161957 -0.129,-0.172 -0.11902,-0.384071 -0.07,-0.56607 0.179,-0.681 6.78796,-25.011018 7.05396,-25.871018 0.266,-0.861 0.43792,-1.168899 0.97493,-1.605898 0.53899,-0.4380002 3.22107,-1.4340746 4.07407,-1.4340746 z M 20.786325,35.414548 c 1.818305,0.0019 5.590925,0.533146 6.775675,0.636396 0.989,0.088 1.569959,0.56003 1.289959,1.550029 -0.279,0.99 -2.091024,7.254985 -2.237023,7.657985 -0.258,0.709 -0.645947,0.703949 -1.375947,0.34395 -1.441,-0.710001 -5.1201,-1.548976 -6.8841,-1.548976 -3.915,0 -5.506949,1.549101 -5.506949,3.098101 0,3.463001 6.056059,4.342886 6.797059,4.559883 3.162,0.925005 11.271859,2.83901 11.271859,10.863003 v 0.409005 c 0,6.861004 -6.130932,11.875127 -14.196931,11.875127 h -3.786 c -5.8299997,0 -9.35096,-2.023036 -10.12496,-2.496036 -0.774,-0.473 -0.7020613,-0.571992 -0.6020614,-1.003989 0.2360001,-1.033003 1.5620236,-5.714051 1.7780235,-6.769051 0.216,-1.055 0.9249877,-0.802952 1.4629882,-0.802952 1.872,0 4.2380206,2.207966 8.4320207,2.207966 3.119,0 5.592936,-0.624051 5.592936,-3.442052 0,-2.816998 -4.937872,-3.826962 -6.022873,-4.043959 -0.645,-0.129 -12.73409319,-2.021956 -12.73409319,-11.270957 0,-8.841 8.73295639,-10.842074 12.64795619,-10.842074 4.044,0 5.356056,0.3441 5.356056,0.3441 0.667001,-0.559 1.058071,-1.238013 1.42007,-1.291013 0.16675,-0.02413 0.386578,-0.03476 0.646335,-0.03449 z m 113.843645,0.981399 c 1.39101,0 6.94896,0.05798 7.68796,0.05798 0.739,0 1.06797,0.394048 0.85897,1.147048 -0.207,0.753001 -2.13695,7.621999 -2.40795,8.489999 -0.273,0.868 -0.81109,1.147049 -1.2621,1.147049 h -10.61287 c -0.703,0 -1.31812,0.257997 -1.31812,1.031997 v 3.441898 c 0,0.86 0.70912,1.319021 1.31812,1.319021 h 11.87497 c 0.84601,0 1.30503,0.667052 1.20503,1.147053 -0.102,0.480001 -0.95703,3.669951 -1.20503,4.474954 -0.20899,0.673998 -0.63102,0.975068 -1.20502,0.975068 h -10.66995 c -0.703,0 -1.377,0.372975 -1.377,1.089981 v 3.899993 c 0,0.903001 0.71695,1.205026 1.14795,1.205026 H 140.653 c 0.853,0 1.31987,0.752997 1.20488,1.377003 -0.115,0.622995 -1.82196,6.437996 -2.06596,7.112997 -0.242,0.673998 -0.70894,0.917996 -1.26195,0.917996 h -20.70711 c -0.884,0.001 -1.3779,-0.702071 -1.3779,-1.548069 0,-0.848003 0.17196,-24.816973 0.17196,-25.641969 0,-0.889 -0.40799,-0.824023 -1.14598,-0.860024 -0.66001,-0.032 -1.32008,-0.337 -1.32008,-1.377 0,-1.04 1.50599,-5.821895 1.836,-6.882895 0.33,-1.062 0.48807,-1.377001 1.89307,-1.377001 1.406,0 13.60897,0.207898 15.31597,0.228898 0.609,-0.774001 0.95308,-1.377001 1.43407,-1.377001 z M 60.286999,36.97301 h 8.546922 c 0.738,0 1.089975,0.357902 1.089975,1.032902 v 23.633092 c 0,3.183998 -1.349022,13.421994 -15.890022,13.421986 -14.512,-0.003 -16.004019,-10.413998 -16.004019,-13.538997 V 47.639947 c 0,-0.789001 -0.186975,-0.810924 -1.089974,-0.974924 -0.753001,-0.072 -0.881972,-0.09298 -1.139972,-0.135983 -0.537999,-0.086 -0.522936,-0.941083 -0.429936,-1.398084 0.258,-1.269 1.118933,-4.5599 1.856933,-6.8969 0.229,-0.738999 0.660087,-1.205025 1.348088,-1.205026 h 9.091908 c 0.717,0 1.089975,0.300978 1.089975,0.975978 v 23.001965 c 0,0.903 0.939074,4.761073 5.220073,4.761073 4.044001,0 5.506949,-3.878999 5.506949,-4.817998 V 37.889957 c 0,-0.588 0.1871,-0.916947 0.8031,-0.916947 z m 20.134867,0.340938 h 12.562125 c 6.208994,0 15.888959,3.126068 15.888959,13.824072 0,12.877997 -11.357967,14.684992 -15.315965,14.684992 h -1.490999 c -1.241001,0 -1.721095,0.774 -1.721095,1.490999 v 5.909027 c 0,0.731 -0.502029,1.261943 -1.205033,1.261943 h -8.546917 c -0.501004,0 -0.953086,-0.488051 -0.953086,-1.111053 l -0.02199,-25.56291 c 0,-1.09 -0.864897,-1.001049 -1.719893,-1.147049 -0.796005,-0.136 -1.126003,-0.394049 -0.918004,-1.147049 0.207999,-0.753 1.744974,-6.314997 2.007978,-7.112997 0.222001,-0.674001 0.436924,-1.089975 1.433919,-1.089975 z m 72.792044,0.05798 h 16.00402 c 5.049,0 13.71098,3.584995 13.71098,13.307998 0,8.374994 -5.422,10.78402 -6.654,12.218017 -0.563,0.652001 -0.33797,0.896045 -0.17197,1.147044 0.165,0.251007 5.66604,8.76497 6.07904,9.462971 0.236,0.402999 0.17997,1.436032 -0.28703,1.436032 h -10.61302 c -0.478,0 -0.72197,-0.230004 -0.85897,-0.459006 -0.136,-0.230999 -4.82603,-9.285997 -5.10502,-9.866995 -0.279,-0.580997 -0.72408,-0.688046 -1.32008,-0.688046 -0.594,0 -1.26195,0.136001 -1.26195,0.917997 v 9.120072 c 0,0.566996 -0.60094,0.977027 -1.03094,0.977027 H 153.502 c -0.76801,0 -1.37701,-0.6681 -1.37701,-1.721096 0,-1.055 -0.0571,-23.949971 -0.0571,-25.18297 0,-1.233 -0.16603,-1.433925 -1.66403,-1.433925 -1.498,0 -1.05492,-0.674026 -0.97492,-1.205025 0.078,-0.530001 1.50589,-5.677998 1.8339,-6.653998 0.32999,-0.975 0.62504,-1.376097 1.95104,-1.376097 z m -61.749985,8.862107 c -0.81,0 -1.089974,0.416889 -1.089974,1.118889 0,0.702 0.02801,8.088037 0.02801,8.805035 0,0.716999 0.308903,1.147045 1.032903,1.147045 h 1.463133 c 2.274005,0 6.25198,-1.827967 6.252974,-5.448965 0,-4.726004 -5.292008,-5.622004 -6.109008,-5.622004 z m 72.133965,0.122882 c -0.58,0 -0.94692,0.301091 -0.94692,0.839092 v 8.065936 c 0,0.560002 0.36692,0.710036 0.94692,0.710036 h 4.02303 c 1.397,0 4.88305,-0.387987 4.88305,-4.839988 0,-4.774997 -4.73199,-4.775076 -5.12098,-4.775076 z m -68.623092,6.557167 c 0.03511,-7.71e-4 0.07155,0 0.109177,0.0029 h 1.161956 c 0.646003,0 0.861064,0.237059 0.883062,0.538059 v 0.774039 c 0,0.344 -0.883023,1.096905 -1.141023,1.096905 h -0.86108 c -0.278995,0 -0.924018,-0.06397 -0.924018,-0.73097 v -0.924928 c 0,-0.362813 0.245239,-0.74504 0.771926,-0.755966 z m 72.323112,0.0029 h 2.38896 c 0.58,0 0.85912,0.129062 0.85912,0.538059 -10e-4,0.258 -0.83908,1.612982 -2.90308,1.612982 -0.41,0 -1.44101,-0.301054 -1.44101,-1.097059 0,-0.387 0.387,-1.053982 1.09601,-1.053982 z M 22.427914,106.95292 c -2.072,0 -2.065049,0.051 -2.065049,2.98199 0,14.69901 12.835089,24.78105 28.796089,24.78105 35.621997,0 68.147986,-27.76304 68.147986,-27.76304 z"
          style="clip-rule:evenodd;fill-rule:evenodd;stroke-width:1"/>
    <path
        d="m 0.25692677,95.881982 c 0,-6.203 5.78600003,-8.633 8.14500003,-8.633 0.853,0 1.32,0.143 1.32,0.975 v 2.295 c 0,0.408 -0.022,0.816 -0.875,0.816 -0.853,0 -4.029,1.299 -4.029,4.316 0,3.062 2.524,4.503998 3.958,4.503998 0.653,0 0.832,0.322 0.832,0.859 v 2.84 c 0,0.344 -0.33,0.516 -1.233,0.516 -2.497,0.001 -8.11800003,-2.601 -8.11800003,-8.487998 z m 16.92200023,-8.691 h -4.79 c -0.358,0 -0.918,0.33 -0.918,1.004 v 15.229998 c 0,0.501 0.438,0.945 0.918,0.945 h 4.99 c 3.471,0 8.777,-3.184 8.777,-8.718998 0,-4.933 -4.962,-8.46 -8.977,-8.46 z m 0.143,12.878998 c -1.119,0 -1.248,-0.774998 -1.248,-0.989998 v -6.883 c 0,-0.453 0.193,-0.604 1.398,-0.604 1.269,0 3.937,0.926 3.937,4.195 0.001,3.077 -3.033,4.281998 -4.087,4.281998 z m 12.477,-1.962998 c 1.344,0 2.434,-1.035 2.434,-2.311 0,-1.277 -1.09,-2.312 -2.434,-2.312 -1.344,0 -2.434,1.035 -2.434,2.312 0,1.276 1.09,2.311 2.434,2.311 z m 14.369,0.178 c 0,-0.625 1.663,-1.873 1.663,-4.496 0,-5.594 -5.041,-6.539 -7.313,-6.539 h -4.044 c -0.573,0 -0.917,0.365 -0.917,0.945 v 15.487998 c 0,0.623 0.395,1.146 0.803,1.146 h 3.04 c 0.48,0 0.889,-0.352 0.889,-0.803 v -2.553 c 0,-0.529 0.201,-0.803 0.86,-0.803 0.803,0 1.75,0.279 1.75,2.475 v 0.566 c 0,0.695 0.495,1.176 0.947,1.176 h 2.667 c 0.774,0 1.09,-0.365 1.09,-0.861 v -0.688 c 0,-3.655998 -1.434,-4.302998 -1.434,-4.796998 -10e-4,-0.207 -10e-4,0.066 -10e-4,-0.256 z m -4.991,-2.754 c -0.473,0 -0.677,-0.363 -0.731,-0.561 -0.237,-0.859 -0.215,-1.893 0,-2.602 0.045,-0.15 0.215,-0.582 0.731,-0.582 0.517,0 1.829,0.689 1.829,1.873 0,1.182 -1.355,1.872 -1.829,1.872 z m 17.209,-8.424 c -5.286,0 -9.572,4.031 -9.572,9.004 0,4.974998 4.286,9.005998 9.572,9.005998 5.287,0 9.573,-4.031 9.573,-9.005998 0,-4.973 -4.286,-9.004 -9.573,-9.004 z m -0.057,13.421998 c -2.788,0 -5.048,-2.028998 -5.048,-4.532998 0,-2.502 2.26,-4.531 5.048,-4.531 2.788,0 5.048,2.029 5.048,4.531 0,2.504 -2.26,4.532998 -5.048,4.532998 z m 21.74,-12.548998 c 1.033,0 0.667,-0.816 4.388,-0.816 4.044,0 6.626,2.859 6.626,5.076 v 11.958998 c 0,0.367 -0.129,0.732 -0.688,0.732 h -3.184 c -0.56,0 -0.731,-0.365 -0.731,-0.732 V 93.573982 c 0,-0.711 -0.495,-2.066 -1.979,-2.066 -1.484,0 -2.065,1.119 -2.065,1.828 v 10.690998 c 0,0.408 -0.452,0.861 -1.119,0.861 h -2.71 c -0.603,0 -0.99,-0.453 -0.99,-0.947 V 93.055982 c 0,-1.031 -0.667,-1.592 -1.979,-1.592 -1.312,0 -1.936,1.141 -1.936,1.807 v 10.841998 c 0,0.496 -0.366,0.775 -0.946,0.775 h -2.796 c -0.688,0 -0.946,-0.494 -0.946,-0.947 V 92.583982 c 0,-1.398 1.032,-5.465 6.883,-5.465 3.247,0 3.14,0.861 4.172,0.861 z m 12.671,6.539 c 0.193,-0.322 3.377,-4.99 3.678,-5.441 0.301,-0.453 0.494,-0.539 0.537,-1.205 0.039,-0.602 -0.451,-0.861 -0.817,-0.861 -0.366,0 -0.751,0.26 -0.839,0.346 -0.559,0.537 -0.848,0.746 -1.506,1.074 -0.172,0.086 -0.473,0.215 -1.097,0.215 -0.882,0 -0.947,-0.838 -1.076,-1.42 -0.062,-0.281 0.021,-0.816 0.129,-1.16 0.24,-0.768 1.592,-3.098 4.432,-3.098 h 0.494 c 1.549,0 4.453,0.924 4.453,3.592 0,0.99 -0.15,1.57 -0.258,1.85 -0.107,0.281 -1.678,2.346 -1.678,3.141 0,0.303 0.107,0.518 0.516,0.518 1.312,0 1.57,0.064 1.57,0.645 0,0.451 -0.129,1.27 -0.258,1.979 -0.129,0.711 -0.344,1.141 -0.797,1.141 h -7.292 c -0.301,0 -0.516,-0.086 -0.581,-0.193 -0.117,-0.203 0.196,-0.801 0.39,-1.123 z m 13.688003,6.210998 h 4.617 c 0.689,0 1.406,-0.402 1.406,-1.233998 0,-1.168 -1.611,-1.27 -2.697,-1.578 -1.139,-0.322 -4.473,-1.506 -4.473,-5.363 0,-3.908 3.656,-5.105 5.936,-5.105 h 2.439 c 0.701,0 1.117,0.389 1.117,1.062 v 2.008 c 0,0.602 -0.473,1.004 -0.918,1.004 h -2.236 c -0.789,0 -1.463,0.523 -1.463,1.146 0,1.592 1.523,1.275 2.496,1.578 1.018,0.314 4.674,1.176 4.674,5.133 0,3.464998 -2.322,5.563998 -5.678,5.563998 h -5.479 c -0.502,0 -0.889,-0.357 -0.889,-1.004 v -2.18 c 0,-0.682 0.359,-1.031 1.148,-1.031 z m 14.369,-4.101998 c 0,-0.453 -0.094,-0.703 -0.287,-1.148 -0.193,-0.445 -3.764,-6.217 -3.957,-6.74 -0.193,-0.523 -0.309,-0.637 -0.23,-0.945 0.08,-0.309 0.338,-0.316 0.574,-0.316 h 3.385 c 0.314,0 0.465,0.107 0.572,0.229 0.109,0.123 1.809,2.381 2.152,2.381 0.343,0 1.85,-2.143 1.979,-2.266 0.129,-0.121 0.387,-0.314 0.689,-0.314 h 2.953 c 0.316,0 0.553,0 0.811,0.344 0.191,0.254 0.078,0.746 -0.064,1.205 -0.142,0.459 -3.451,6.125 -3.613,6.453 -0.193,0.387 -0.316,0.623 -0.316,1.061 v 7.563998 c 0,0.531 -0.201,0.84 -0.631,0.84 h -3.299 c -0.443,0 -0.688,-0.395 -0.688,-0.918 0,-0.523 -0.03,-6.977998 -0.03,-7.429998 z m 9.422,4.158998 h 4.617 c 0.689,0 1.406,-0.402 1.406,-1.233998 0,-1.168 -1.609,-1.27 -2.695,-1.576 -1.141,-0.322 -4.475,-1.506 -4.475,-5.363 0,-3.908 3.656,-5.105 5.938,-5.105 h 2.438 c 0.701,0 1.117,0.387 1.117,1.061 v 2.008 c 0,0.602 -0.473,1.004 -0.918,1.004 h -2.236 c -0.789,0 -1.463,0.523 -1.463,1.146 0,1.592 1.523,1.277 2.496,1.578 1.018,0.316 4.674,1.176 4.674,5.135 0,3.462998 -2.322,5.563998 -5.678,5.563998 h -5.479 c -0.502,0 -0.889,-0.359 -0.889,-1.006 v -2.178 c 0,-0.683 0.358,-1.034 1.147,-1.034 z m 9.746,-12.040998 a 1.231,1.231 0 0 1 1.23,-1.238 h 11.031 a 1.24,1.24 0 0 1 1.238,1.238 v 1.738 a 1.24,1.24 0 0 1 -1.238,1.238 h -2.197 c -0.682,0 -1.238,0.559 -1.238,1.24 v 10.942998 c 0,0.682 -0.559,1.24 -1.24,1.24 h -1.967 c -0.682,0 -1.24,-0.559 -1.24,-1.24 V 92.961982 c 0,-0.682 -0.557,-1.24 -1.238,-1.24 h -1.881 a 1.252,1.252 0 0 1 -1.248,-1.238 z m 15.629,-1.325 c -0.682,0 -1.24,0.557 -1.24,1.238 v 15.188998 c 0,0.682 0.559,1.24 1.24,1.24 h 9.137 c 0.682,0 1.24,-0.559 1.24,-1.24 v -1.824 c 0,-0.682 -0.559,-1.238 -1.24,-1.238 h -4.375 c -0.781,0 -1.24,-0.51 -1.24,-1.132998 0,-0.818 0.373,-1.133 1.24,-1.133 h 1.967 c 0.682,0 1.238,-0.559 1.238,-1.24 v -1.938 c 0,-0.682 -0.557,-1.24 -1.238,-1.24 h -1.996 c -0.895,0 -1.24,-0.43 -1.24,-1.189 0,-0.789 0.373,-1.191 1.24,-1.191 h 4.318 c 0.682,0 1.24,-0.557 1.24,-1.238 v -1.824 c 0,-0.682 -0.559,-1.238 -1.24,-1.238 h -9.051 z m 22.136,0.645 c 1.031,0 0.666,-0.816 4.389,-0.816 4.043,0 6.625,2.859 6.625,5.076 v 11.958998 c 0,0.367 -0.129,0.732 -0.689,0.732 h -3.184 c -0.559,0 -0.73,-0.365 -0.73,-0.732 V 93.659982 c 0,-0.711 -0.496,-2.066 -1.98,-2.066 -1.484,0 -2.064,1.119 -2.064,1.83 v 10.688998 c 0,0.41 -0.451,0.861 -1.119,0.861 h -2.709 c -0.604,0 -0.99,-0.451 -0.99,-0.947 V 93.141982 c 0,-1.031 -0.666,-1.592 -1.979,-1.592 -1.313,0 -1.936,1.141 -1.936,1.807 v 10.841998 c 0,0.496 -0.367,0.775 -0.947,0.775 h -2.797 c -0.688,0 -0.945,-0.496 -0.945,-0.947 V 92.669982 c 0,-1.398 1.031,-5.463 6.883,-5.463 3.247,0 3.139,0.859 4.172,0.859 z"
        id="path10" style="clip-rule:evenodd;fill-rule:evenodd"/>
</svg>
