<?xml version="1.0" encoding="UTF-8" standalone="no"?>
<svg xmlns:dc="http://purl.org/dc/elements/1.1/" xmlns:cc="http://creativecommons.org/ns#"
     xmlns:rdf="http://www.w3.org/1999/02/22-rdf-syntax-ns#" xmlns="http://www.w3.org/2000/svg" xml:space="preserve"
     id="svg2917" viewBox="0 0 3.9370142 2.7017553" height="2.7017553in" width="3.9370143in" version="1.0"><metadata
   id="metadata32"><rdf:RDF><cc:Work
       rdf:about=""><dc:format>image/svg+xml</dc:format><dc:type rdf:resource="http://purl.org/dc/dcmitype/StillImage"/><dc:title></dc:title></cc:Work></rdf:RDF></metadata>
    <defs id="defs2919">
  <style id="style2921" type="text/css"/>
 </defs>
    <g transform="translate(-0.05649186,-0.0491218)" id="Layer_x0020_1">

  <g id="_58331456">
   <path id="_59985200" style="fill:#000000"
         d="m 3.5932,0.298492 c -3.032e-4,0.0111969 -6.614e-4,0.0203898 -0.00104,0.0236929 -0.00287,0.0252244 0,0.0371535 -0.072732,0.0371535 -0.072732,0 -0.069866,-0.0119291 -0.072732,-0.0371535 -9.331e-4,-0.008224 -0.0018,-0.0531299 -0.00172,-0.0741535 8.67e-5,-0.0210039 7.796e-4,-0.0659331 0.00172,-0.0741417 0.00287,-0.0252244 0,-0.0371535 0.072732,-0.0371535 0.072736,0 0.069866,0.0119291 0.072732,0.0371535 3.898e-4,0.003445 7.401e-4,0.0133386 0.00102,0.0252205 l 0.099508,-3.94e-6 c -6.378e-4,-0.0225551 -0.00171,-0.0414055 -0.00282,-0.0512126 -0.00574,-0.0504606 0.014142,-0.0987677 -0.170315,-0.0987677 -0.184472,-3.93e-6 -0.1645911,0.048311 -0.1703351,0.0987677 -0.00187,0.0164331 -0.00359,0.0581102 -0.00342,0.100138 1.772e-4,0.0420394 0.00154,0.0837126 0.00342,0.100154 0.00574,0.0504528 -0.014142,0.0987756 0.1703351,0.0987756 0.184457,-3.93e-6 0.1645789,-0.0483189 0.170315,-0.0987756 0.00109,-0.009598 0.00201,-0.0278189 0.00263,-0.049689 z"/>
      <path id="_120216384" style="fill:#000000"
            d="m 2.62558,1.05036 -0.335583,1.654e-4 c -0.030307,0 -0.054874,-0.023783 -0.054874,-0.0540945 3.9e-6,-0.0302756 0.024563,-0.0542874 0.05487,-0.0542874 l 0.445232,-4.2126e-4 c 0.045681,0 0.082709,-0.0367638 0.082709,-0.0824173 l 3.032e-4,-0.231846 c 0,-0.0456732 -0.037031,-0.0826929 -0.082709,-0.0826929 l -0.651945,1.1418e-4 c -0.134028,0 -0.242685,0.108823 -0.242685,0.242866 V 1.2051552 c 0,0.13402 0.108657,0.24189 0.242681,0.24189 l 0.328732,2.362e-4 c 0.030291,0 0.054854,0.024551 0.054854,0.054866 0,0.030291 -0.024563,0.05485 -0.054858,0.05485 l -0.489378,-9.06e-5 c -0.045658,0 -0.082697,0.037024 -0.082697,0.082705 l 3.9e-6,0.231366 c 0,0.045705 0.037032,0.082728 0.082693,0.082728 l 0.701535,-1.574e-4 c 0.134043,0 0.242697,-0.108657 0.242697,-0.242681 l 3.346e-4,-0.417823 c 0,-0.134035 -0.107866,-0.242681 -0.241917,-0.242685 z m 0.158094,0.660504 c 0,0.087925 -0.071283,0.159197 -0.159209,0.159197 l -0.666209,4.37e-4 c -0.019146,0 -0.034677,-0.015539 -0.034677,-0.034701 l 3.9e-6,-0.161783 c 0,-0.019161 0.015528,-0.034689 0.034669,-0.034689 l 0.454059,-6.85e-4 c 0.07537,0 0.136496,-0.06111 0.136496,-0.136492 4e-6,-0.075386 -0.061126,-0.136488 -0.1365,-0.136488 l -0.328724,-1.3e-4 c -0.087917,0 -0.159197,-0.072449 -0.159197,-0.160374 V 0.78774325 c 0,-0.0879173 0.071276,-0.16213 0.159193,-0.16213 l 0.617555,3.543e-5 c 0.019153,0 0.034657,0.0155433 0.034657,0.0346811 l 1.18e-5,0.165512 c 0,0.0191299 -0.015512,0.0346614 -0.034669,0.0346614 l -0.411138,3.937e-4 c -0.075386,0 -0.1365,0.0601693 -0.1365,0.135535 4e-6,0.0753858 0.06111,0.13728002 0.136496,0.13728002 l 0.335587,1.26e-4 c 0.087925,0 0.158039,0.071291 0.158039,0.159209 l 5.52e-5,0.417819 z"/>
      <path id="_60265160" style="fill:#000000"
            d="m 1.25487,1.87207 c 0,0.045689 0.036744,0.083476 0.082421,0.083476 l 0.292988,-4.606e-4 c 0.045689,0 0.08272,-0.037012 0.08272,-0.082701 l -9.45e-5,-1.24376003 c 0,-0.0456575 -0.037035,-0.0827008 -0.082724,-0.0827008 l -0.292528,-3.94e-6 c -0.045673,0 -0.082693,0.0370512 -0.082693,0.0827047 L 1.254869,1.8720643 Z M 1.630083,1.837464 c 0,0.019146 -0.015532,0.034677 -0.034669,0.034677 H 1.372442 c -0.019161,0 -0.034669,-0.015532 -0.034669,-0.034673 l 7.9e-6,-1.17351 c 0,-0.0191417 0.015528,-0.0346732 0.034665,-0.0346732 h 0.222976 c 0.019158,0 0.034665,0.0155315 0.034665,0.0346772 l -4e-6,1.1735 z"/>
      <path id="_60341896" style="fill:#000000"
            d="M 1.05617,0.0575472 H 0.763646 c -0.045685,0 -0.0827205,0.0370157 -0.0827205,0.082685 l 2.756e-5,0.37078 c 0,0.0191457 -0.0155315,0.0346772 -0.0346772,0.0346772 l -0.347071,-6.4173e-4 c -0.134035,0 -0.242713,0.108657 -0.242713,0.242701 l 3.94e-6,0.92501203 c 0,0.13402 0.108673,0.242677 0.242709,0.242677 l 0.756965,-2.166e-4 c 0.045673,0 0.082701,-0.037008 0.082701,-0.082689 V 0.14023213 c 0,-0.0456693 -0.037028,-0.0826811 -0.082701,-0.0826811 z m -0.034839,1.81526 -0.722126,-8.465e-4 c -0.0879252,0 -0.159201,-0.071272 -0.159201,-0.159197 V 0.78774774 c 0,-0.0879173 0.0712756,-0.159193 0.159201,-0.159193 L 0.679941,0.6281138 c 0.0456732,0 0.0827165,-0.0370118 0.0827165,-0.0826929 l 7.2047e-4,-0.36985 c 0,-0.0191457 0.0155079,-0.0346575 0.0346535,-0.0346575 l 0.22296903,-3.94e-6 c 0.01915,0 0.034673,0.0155197 0.034673,0.0346654 L 1.055993,1.8381349 c 0,0.019146 -0.015516,0.034677 -0.034661,0.034677 z"/>
      <path id="_59920856" style="fill:#000000"
            d="M 3.91079,1.34048 H 3.642676 c -0.045657,0 -0.082705,0.037032 -0.082705,0.082713 l 9.961e-4,0.156528 c 0,0.050154 -0.023327,0.090819 -0.073465,0.090819 -0.050169,0 -0.0735,-0.040661 -0.0735,-0.090819 V 0.933752 c 0,-0.0501457 0.023331,-0.090815 0.0735,-0.090815 0.050138,0 0.073465,0.0406693 0.073465,0.090815 l 1.85e-4,0.156709 c 0,0.045677 0.03626,0.082705 0.081917,0.082705 h 0.26772 c 0.045693,0 0.082713,-0.037028 0.082713,-0.082701 L 3.9933682,0.787741 c 0,-0.134039 -0.108669,-0.242693 -0.242705,-0.242693 l -0.526327,-3.94e-6 c -0.134028,0 -0.242709,0.108657 -0.242709,0.242701 l 4e-6,0.92501204 c 0,0.13402 0.108673,0.242677 0.242705,0.242677 l 0.526331,-4e-6 c 0.134031,0 0.242701,-0.108654 0.242701,-0.242673 l 1.378e-4,-0.289563 c 0,-0.045685 -0.037024,-0.082709 -0.082717,-0.082713 z m -9.173e-4,0.372276 c 0,0.087925 -0.071284,0.159201 -0.159209,0.159201 l -0.526327,-3.9e-6 c -0.087929,0 -0.159224,-0.071272 -0.159224,-0.159197 V 0.78774006 c 0,-0.0879173 0.071295,-0.159193 0.159224,-0.159193 h 0.526331 c 0.087925,0 0.159205,0.0712756 0.159205,0.159197 l 4.291e-4,0.26740604 c 0,0.019138 -0.015512,0.034661 -0.034669,0.034661 h -0.197768 c -0.019142,0 -0.034658,-0.015524 -0.034658,-0.034661 l 3.15e-4,-0.12139804 c 0,-0.0957323 -0.060283,-0.173362 -0.15602,-0.173362 -0.095748,-3.93e-6 -0.156035,0.0776299 -0.156035,0.173362 l 3.9e-6,0.64596904 c 0,0.095748 0.060284,0.173366 0.156031,0.173366 0.09574,0 0.15602,-0.077614 0.15602,-0.173366 l -0.0011,-0.121217 c 0,-0.019142 0.015508,-0.034681 0.034654,-0.034681 h 0.198165 c 0.019153,0 0.034665,0.015543 0.034665,0.034681 l -3.55e-5,0.254252 z"/>
      <polygon id="_58422080" style="fill:#000000"
               points="2.21917,0.0592087 2.07392,0.0584409 2.07392,0.439154 2.17101,0.439154 2.17101,0.155535 2.26809,0.439154 2.36519,0.439154 2.46152,0.155535 2.46152,0.439154 2.55859,0.439154 2.55859,0.0584409 2.41334,0.0592087 2.31627,0.342843 "/>
      <polygon id="_60122432" style="fill:#000000"
               points="3.9935,0.155535 3.90253,0.155535 3.90253,0.439154 3.80544,0.439154 3.80544,0.155535 3.71447,0.155535 3.71447,0.0584409 3.9935,0.0584409 "/>
      <polygon id="_59999280" style="fill:#000000"
               points="3.22215,0.0580748 3.33377,0.439154 3.23668,0.439154 3.21375,0.360409 3.06009,0.360409 3.06009,0.298492 3.19541,0.298492 3.1503,0.143303 3.06314,0.439154 2.96606,0.439154 3.07742,0.0580748 "/>
      <path id="_59996176" style="fill:#000000"
            d="m 1.84012,0.136736 c 0.072744,0 0.069874,0.0119291 0.072744,0.0371535 9.331e-4,0.008209 0.00161,0.0531378 0.00172,0.0741417 8.27e-5,0.0210236 -7.874e-4,0.0659331 -0.00172,0.0741535 -0.00287,0.0252244 0,0.0371535 -0.072748,0.0371535 -0.072732,0 -0.069866,-0.0119291 -0.072732,-0.0371535 -9.291e-4,-0.008224 -0.0018,-0.0531299 -0.00171,-0.0741535 1.024e-4,-0.0210039 7.796e-4,-0.0659331 0.00171,-0.0741417 0.00287,-0.0252244 0,-0.0371535 0.072732,-0.0371535 l 1.26e-4,-0.0876142 c -0.184465,0 -0.164594,0.048315 -0.170327,0.0987717 -0.00187,0.0164331 -0.0036,0.0581102 -0.00342,0.100138 1.771e-4,0.0420394 0.00155,0.0837126 0.00342,0.100154 0.00573,0.0504528 -0.014138,0.0987756 0.170323,0.0987756 0.184449,-3.94e-6 0.164579,-0.0483189 0.170307,-0.0987756 0.00187,-0.0164409 0.00324,-0.0581142 0.00342,-0.100154 C 2.014154,0.2060039 2.012415,0.1643268 2.010545,0.1478935 2.004825,0.0974329 2.024687,0.0491258 1.840238,0.0491258 Z"/>
      <path id="_120072960" style="fill:#000000"
            d="m 1.51232,0.298492 c -2.913e-4,0.0111969 -6.654e-4,0.0203898 -0.00104,0.0236929 -0.00287,0.0252244 0,0.0371535 -0.072732,0.0371535 -0.07274,0 -0.069874,-0.0119291 -0.07274,-0.0371535 -9.37e-4,-0.008224 -0.0018,-0.0531299 -0.0017,-0.0741535 9.06e-5,-0.0210039 7.677e-4,-0.0659331 0.0017,-0.0741417 0.00287,-0.0252244 0,-0.0371535 0.07274,-0.0371535 0.072736,0 0.069866,0.0119291 0.072732,0.0371535 3.937e-4,0.003445 7.481e-4,0.0133386 0.00102,0.0252205 l 0.099504,-3.94e-6 c -6.378e-4,-0.0225551 -0.00171,-0.0414055 -0.00282,-0.0512126 -0.00574,-0.0504606 0.014138,-0.0987677 -0.170331,-0.0987677 -0.184461,-3.93e-6 -0.164583,0.048311 -0.170315,0.0987677 -0.00187,0.0164331 -0.00359,0.0581102 -0.00342,0.100138 1.772e-4,0.0420394 0.00155,0.0837126 0.00342,0.100154 0.00573,0.0504528 -0.014146,0.0987756 0.170315,0.0987756 0.184469,-3.93e-6 0.164594,-0.0483189 0.170331,-0.0987756 0.00109,-0.009598 0.00201,-0.0278189 0.00262,-0.049689 l -0.099287,-3.93e-6 z"/>
      <path id="_120216864" style="fill:#000000"
            d="M 2.79499,0.352091 2.694671,0.35170517 v -0.0868425 h 0.100307 c 0.072736,0 0.070472,-0.0119252 0.07335,-0.0371535 9.291e-4,-0.008224 7.323e-4,-0.001465 6.417e-4,-0.0224803 -8.66e-5,-0.0210118 2.835e-4,-0.0138031 -6.417e-4,-0.0220157 -0.00288,-0.0252283 -6.181e-4,-0.0371496 -0.07335,-0.0371496 l -0.058925,1.4961e-4 9.45e-5,0.292575 h -0.097272 v -0.380346 h 0.156114 c 0.184457,0 0.164236,0.0484528 0.171035,0.0987756 8.031e-4,0.005957 7.992e-4,0.0334843 7.992e-4,0.0483071 3.9e-6,0.0119252 0,0.0394567 -7.992e-4,0.048185 -0.00466,0.0505512 0.013421,0.0983819 -0.1710345,0.0983811 z"/>
      <path id="_119772576" style="fill:#000000"
            d="m 0.590102,0.76039 c -0.0957402,0 -0.173354,0.0776339 -0.173354,0.173366 v 0.645969 c 0,0.095748 0.0776142,0.173366 0.173354,0.173366 0.095748,0 0.173366,-0.077614 0.173366,-0.173366 V 0.933756 c 0,-0.0957323 -0.0776181,-0.173362 -0.173366,-0.173366 z m 0.0908189,0.819335 c 0,0.050153 -0.0406496,0.090819 -0.0908189,0.090819 -0.0501575,0 -0.0908071,-0.040661 -0.0908071,-0.090819 V 0.933756 c 0,-0.0501457 0.0406496,-0.090815 0.0908071,-0.090815 0.0501693,0 0.0908189,0.0406693 0.0908189,0.090815 z"/>
      <path id="_59228224" style="fill:#000000"
            d="m 0.232217,2.66737 c -0.0508425,0 -0.0922087,-0.041362 -0.0922087,-0.092213 V 2.23672 c 0,-0.050842 0.0413661,-0.092209 0.0922087,-0.092209 h 3.58556 c 0.050847,0 0.092213,0.04137 0.092213,0.092213 v 0.338429 c 0,0.05085 -0.04137,0.09222 -0.092216,0.09222 l -3.58556,-3.9e-6 z m 0,-0.60637 c -0.0968858,0 -0.17572,0.078835 -0.17572,0.175724 l 3.94e-6,0.338429 c 0,0.096898 0.0788268,0.175724 0.175717,0.175724 l 3.58555996,-3.9e-6 c 0.096894,0 0.17572,-0.078819 0.17572,-0.175717 l 4e-6,-0.338437 c 0,-0.096886 -0.078835,-0.175717 -0.175728,-0.175717 l -3.58556003,-4e-6 z"/>
      <path id="_59393768" style="fill:#000000"
            d="m 0.4075,2.4211 c 0.0727795,0.00585 0.106776,-0.00691 0.106776,0.069067 0,0.078091 -0.023378,0.078091 -0.108374,0.078091 -0.0844685,0 -0.101465,0 -0.100409,-0.087654 H 0.2603434 c -0.008508,0.11528 0.0440945,0.127496 0.145559,0.127496 0.100406,0 0.153531,-0.00372 0.153531,-0.116339 0,-0.107846 -0.0478189,-0.105193 -0.142374,-0.1105 -0.074374,-0.00213 -0.1105,0.00424 -0.1105,-0.071724 0,-0.055244 0.0122205,-0.066406 0.100402,-0.066406 0.0844724,0 0.097752,0.00266 0.099874,0.072252 l 0.0451614,-3.9e-6 c 0.00478,-0.10837 -0.057374,-0.112083 -0.143441,-0.112083 -0.0982717,0 -0.147157,0.00956 -0.147157,0.115803 0,0.105189 0.0674724,0.09563 0.146102,0.102 z"/>
      <path id="_59865552" style="fill:#000000"
            d="m 0.896382,2.20647 v 0.28687 c 0,0.074386 -0.0324016,0.074913 -0.112622,0.074913 -0.0972205,0 -0.11263,-0.010091 -0.11263,-0.074909 V 2.20647 H 0.6259765 v 0.28687 c 0,0.11263 0.0706575,0.114756 0.157783,0.114756 0.0940276,0 0.157776,-0.00797 0.157776,-0.114752 V 2.20647 Z"/>
      <path id="_120766168" style="fill:#000000"
            d="M 1.02178,2.60491 H 1.06693 V 2.449788 h 0.155654 c 0.096697,0 0.097224,-0.087126 0.097224,-0.122717 0,-0.068535 -0.018067,-0.120598 -0.095095,-0.120598 H 1.0217805 Z M 1.205056,2.246323 c 0.055783,0 0.069591,0.010091 0.069591,0.086587 0,0.077563 -0.030807,0.077035 -0.090839,0.077035 l -0.116878,-3.9e-6 v -0.163618 z"/>
      <polygon id="_60257400" style="fill:#000000"
               points="1.63064,2.20647 1.37459,2.20647 1.37459,2.60491 1.63064,2.60491 1.63064,2.56507 1.41974,2.56507 1.41974,2.41898 1.62161,2.41898 1.62161,2.38179 1.41974,2.38179 1.41974,2.24632 1.63064,2.24632 "/>
      <path id="_59993504" style="fill:#000000"
            d="m 1.74328,2.44554 h 0.145035 c 0.054713,0 0.066917,0.024437 0.066917,0.074906 l 3.9e-6,0.084465 h 0.045153 V 2.499194 c 0,-0.043031 -0.01965,-0.068531 -0.064276,-0.071716 l 4e-6,-0.00107 c 0.063217,-0.00797 0.069591,-0.049402 0.069591,-0.105181 3.9e-6,-0.09085 -0.037721,-0.114756 -0.123772,-0.114756 h -0.183819 v 0.398437 h 0.045161 v -0.15937 z m 0,-0.039846 v -0.15937 h 0.139189 c 0.071181,0 0.078083,0.019126 0.078083,0.070122 0,0.065874 -0.00849,0.087126 -0.078087,0.089248 z"/>
      <polygon id="_120766384" style="fill:#000000"
               points="2.40031,2.57038 2.27494,2.20647 2.22659,2.20647 2.36896,2.60491 2.43325,2.60491 2.57456,2.20647 2.52622,2.20647 2.4019,2.57038 "/>
      <polygon id="_57375352" style="fill:#000000"
               points="2.62469,2.60491 2.66984,2.60491 2.66984,2.20647 2.62469,2.20647 "/>
      <path id="_40598656" style="fill:#000000"
            d="m 2.75256,2.60491 h 0.204528 c 0.119528,0 0.125909,-0.1105 0.125909,-0.149807 V 2.360009 c 0,-0.147157 -0.088189,-0.153535 -0.136531,-0.153535 H 2.75256 Z M 2.797714,2.565068 V 2.246324 h 0.156185 c 0.075972,0 0.083937,0.073839 0.083937,0.09615 V 2.447131 C 3.036776,2.518316 3.026151,2.565072 2.946466,2.565072 Z"/>
      <polygon id="_59795536" style="fill:#000000"
               points="3.40353,2.20647 3.14747,2.20647 3.14747,2.60491 3.40353,2.60491 3.40353,2.56507 3.19263,2.56507 3.19263,2.41898 3.3945,2.41898 3.3945,2.38179 3.19263,2.38179 3.19263,2.24632 3.40353,2.24632 "/>
      <path id="_40450704" style="fill:#000000"
            d="M 3.58576,2.2033 C 3.486413,2.20435 3.45613,2.237296 3.45613,2.33717 l 3.9e-6,0.141843 c 0,0.094028 0.033992,0.129091 0.129622,0.129091 h 0.053657 c 0.095622,0 0.129618,-0.035059 0.129618,-0.129087 v -0.14185 c 0,-0.09987 -0.030276,-0.132811 -0.129618,-0.133866 h -0.053654 z m 0.053653,0.039835 c 0.066933,0 0.084465,0.016472 0.084465,0.094035 v 0.141843 c 0,0.079157 -0.026035,0.08872 -0.084465,0.089248 H 3.58576 C 3.527323,2.5677334 3.5012836,2.5581704 3.5012836,2.4790169 l 3.9e-6,-0.14185 c 0,-0.077563 0.017528,-0.094032 0.084468,-0.094032 z"/>
  </g>
 </g>
</svg>