<?xml version="1.0" encoding="UTF-8" standalone="no"?>
<svg xmlns:dc="http://purl.org/dc/elements/1.1/" xmlns:cc="http://creativecommons.org/ns#"
     xmlns:rdf="http://www.w3.org/1999/02/22-rdf-syntax-ns#" xmlns="http://www.w3.org/2000/svg" id="svg40"
     preserveAspectRatio="xMidYMid meet" viewBox="0 0 716.30695 764.98566" height="764.98566pt" width="716.30695pt"
     version="1.0">
    <defs id="defs44"/>
    <metadata id="metadata2">
        Created by potrace 1.13, written by Peter Selinger 2001-2015
        <rdf:RDF>
            <cc:Work rdf:about="">
                <dc:format>image/svg+xml</dc:format>
                <dc:type rdf:resource="http://purl.org/dc/dcmitype/StillImage"/>
                <dc:title></dc:title>
            </cc:Work>
        </rdf:RDF>
    </metadata>
    <g style="fill:#000000;stroke:none" id="g38" transform="matrix(0.1,0,0,-0.1,-74.193046,833)">
        <path id="path4"
              d="m 2965,8314 c -481,-86 -868,-442 -990,-910 -44,-169 -47,-268 -42,-1579 3,-1204 4,-1232 24,-1325 111,-501 467,-858 973,-976 66,-15 150,-18 691,-21 560,-4 618,-3 633,12 15,15 16,208 16,2396 0,1622 -3,2386 -10,2400 -10,18 -27,19 -613,18 -476,-1 -619,-4 -682,-15 z M 3870,5914 V 3888 l -407,5 c -375,4 -415,6 -490,25 -322,83 -561,331 -628,654 -22,101 -22,2589 -1,2688 60,281 255,514 518,619 132,53 193,59 621,60 l 387,1 z"/>
        <path id="path6"
              d="m 3051,7329 c -63,-12 -159,-60 -210,-105 -105,-91 -157,-220 -149,-372 4,-79 9,-100 41,-164 47,-97 118,-168 215,-216 67,-33 84,-37 171,-40 79,-3 107,0 160,18 217,73 348,284 311,500 -43,257 -287,429 -539,379 z"/>
        <path id="path8"
              d="m 4757,8323 c -4,-3 -7,-1087 -7,-2409 0,-2181 1,-2402 16,-2408 27,-10 803,-6 899,4 406,46 764,293 959,660 25,47 58,126 75,175 63,188 61,138 61,1575 0,1147 -2,1318 -16,1391 -99,521 -496,914 -1018,1004 -70,12 -178,15 -526,15 -240,0 -440,-3 -443,-7 z M 5825,6145 c 156,-41 284,-160 336,-312 33,-94 32,-232 -1,-318 -61,-158 -181,-269 -335,-310 -250,-65 -516,86 -589,334 -22,76 -21,204 4,282 75,245 335,389 585,324 z"/>
        <path id="path10"
              d="m 7493,2776 c -155,-51 -247,-200 -221,-362 16,-104 76,-186 168,-233 125,-62 258,-46 358,44 75,68 107,139 107,240 0,95 -28,166 -91,229 -79,79 -221,115 -321,82 z m 177,-146 c 60,-31 93,-81 98,-149 6,-89 -32,-153 -111,-186 -134,-56 -286,73 -248,212 16,62 43,97 93,122 54,26 117,27 168,1 z"/>
        <path id="path12"
              d="m 790,2465 v -306 l 63,3 62,3 5,193 5,193 145,-195 145,-196 60,2 60,3 v 300 300 l -62,3 -63,3 v -197 -198 l -147,197 -148,197 h -62 -63 z"/>
        <path id="path14" d="m 1790,2465 v -305 h 65 65 v 305 305 h -65 -65 z"/>
        <path id="path16"
              d="m 2375,2757 c -3,-7 -4,-143 -3,-302 l 3,-290 63,-3 62,-3 v 202 203 l 150,-202 150,-202 h 60 60 v 305 305 h -65 -65 l -2,-192 -3,-192 -144,192 -143,192 h -59 c -39,0 -61,-4 -64,-13 z"/>
        <path id="path18"
              d="m 3347,2763 c -4,-3 -7,-33 -7,-65 v -58 h 100 100 v -240 -240 h 65 65 v 240 240 h 95 95 v 65 65 h -253 c -140,0 -257,-3 -260,-7 z"/>
        <path id="path20"
              d="m 4300,2465 v -305 h 235 235 v 60 60 h -175 -175 v 70 70 h 160 160 v 55 55 h -160 -160 v 60 60 l 173,2 172,3 3,58 3,57 h -236 -235 z"/>
        <path id="path22"
              d="m 5265,2757 c -3,-7 -4,-143 -3,-302 l 3,-290 63,-3 62,-3 v 203 202 l 150,-202 150,-202 h 60 60 v 305 305 h -65 -65 l -2,-192 -3,-192 -144,192 -143,192 h -59 c -39,0 -61,-4 -64,-13 z"/>
        <path id="path24"
              d="m 6320,2466 v -306 h 133 c 154,0 227,15 293,61 195,134 165,421 -54,522 -41,19 -69,22 -209,25 l -163,4 z m 327,155 c 84,-39 120,-146 78,-235 -32,-66 -97,-96 -211,-96 h -74 v 175 175 h 83 c 59,0 94,-6 124,-19 z"/>
        <path id="path26"
              d="m 6018,1889 c -139,-18 -263,-83 -365,-192 -223,-240 -216,-605 17,-837 86,-87 164,-132 276,-160 184,-47 370,-10 522,105 59,44 136,130 130,145 -2,4 -43,41 -92,84 l -88,77 -27,-35 c -129,-169 -390,-187 -541,-36 -22,22 -52,63 -67,92 -25,48 -28,63 -28,153 0,86 3,107 25,150 74,153 257,236 416,190 74,-21 144,-65 188,-118 l 34,-41 44,36 c 24,19 66,56 93,80 l 50,45 -39,48 c -130,158 -340,240 -548,214 z"/>
        <path id="path28"
              d="m 1072,1850 c -238,-63 -361,-222 -308,-402 38,-133 164,-198 499,-258 225,-40 291,-73 291,-144 0,-49 -29,-85 -92,-114 -54,-25 -66,-27 -202,-27 -161,0 -224,13 -343,67 -37,17 -69,29 -71,27 -12,-15 -107,-192 -104,-194 10,-11 170,-69 236,-87 110,-29 345,-36 465,-14 224,42 335,145 345,318 8,143 -32,217 -155,281 -88,46 -164,68 -358,107 -169,33 -217,49 -252,82 -31,29 -31,81 1,113 72,72 330,75 530,5 33,-11 63,-17 67,-13 7,8 79,177 79,187 0,9 -153,54 -239,70 -116,22 -296,20 -389,-4 z"/>
        <path id="path30"
              d="m 1924,1843 c 3,-10 73,-259 156,-553 83,-294 153,-543 156,-552 5,-16 21,-18 144,-18 h 139 l 11,38 c 99,358 199,694 204,682 3,-8 50,-172 104,-365 l 98,-350 140,-3 140,-3 159,558 c 87,307 160,564 163,571 3,9 -25,12 -122,12 h -125 l -14,-47 c -8,-27 -56,-207 -107,-400 -52,-194 -96,-353 -100,-353 -3,0 -50,152 -104,338 -54,185 -107,365 -118,400 l -19,63 -102,-3 -102,-3 -117,-400 c -64,-220 -117,-402 -118,-405 -1,-3 -46,159 -99,360 -54,201 -104,384 -110,408 l -12,42 h -125 c -115,0 -125,-1 -120,-17 z"/>
        <path id="path32" d="M 3820,1290 V 720 h 130 130 l -2,568 -3,567 -127,3 -128,3 z"/>
        <path id="path34"
              d="m 4350,1735 v -125 h 180 180 V 1165 720 h 125 125 v 445 445 l 178,2 177,3 v 120 120 l -482,3 -483,2 z"/>
        <path id="path36"
              d="M 6860,1290 V 720 h 120 120 v 225 225 h 265 265 V 945 720 h 120 120 l -2,568 -3,567 -117,3 -118,3 v -226 -225 h -265 -265 v 225 225 h -120 -120 z"/>
    </g>
</svg>
