<?xml version="1.0" encoding="UTF-8" standalone="no"?>
<svg xmlns:dc="http://purl.org/dc/elements/1.1/" xmlns:cc="http://creativecommons.org/ns#"
     xmlns:rdf="http://www.w3.org/1999/02/22-rdf-syntax-ns#" xmlns="http://www.w3.org/2000/svg" xml:space="preserve"
     id="svg2" viewBox="0 0 4.5694425 3.3330152" height="3.3330152in" width="4.5694423in" version="1.0"><metadata
   id="metadata34"><rdf:RDF><cc:Work
       rdf:about=""><dc:format>image/svg+xml</dc:format><dc:type rdf:resource="http://purl.org/dc/dcmitype/StillImage"/><dc:title></dc:title></cc:Work></rdf:RDF></metadata>
  <defs id="defs4">
  <style id="style6" type="text/css"/>
 </defs>
  <g transform="translate(-0.07823869,-0.082795)" id="Layer_x0020_1">

  <g id="_57704480">
   <path id="_40125992" style="fill:none;stroke:#000000;stroke-width:0.0972205"
         d="m 4.48098,3.3672 c 0.065205,0 0.118087,-0.052878 0.118087,-0.118102 l 3.9e-6,-0.749902 c 0,-0.065224 -0.05289,-0.118106 -0.118091,-0.118106 H 0.24493994 c -0.0652047,0 -0.118091,0.052882 -0.118091,0.118106 v 0.749902 c 0,0.065221 0.0528858,0.118102 0.118091,0.118102 z"/>
    <path id="_58915192" style="fill:#000000"
          d="m 0.687134,2.82235 v 0.120406 c 0,0.064177 -0.00978,0.10574 -0.0391142,0.133244 -0.0256693,0.025059 -0.0635669,0.028728 -0.114906,0.028728 l -0.250594,-3.9e-6 v -0.444343 h 0.250594 c 0.0513386,0 0.0892323,0.00367 0.114906,0.028728 C 0.6773544,2.7166131 0.687134,2.7581761 0.687134,2.82235 Z M 0.323473,3.055216 h 0.236535 c 0.0617283,0 0.0843425,-0.0275 0.0843425,-0.107567 V 2.818074 c 0,-0.083126 -0.0189449,-0.108185 -0.0843425,-0.108185 H 0.323473 Z"/>
    <polygon id="_59059024" style="fill:#000000"
             points="0.778028,3.10473 0.73463,3.10473 0.73463,2.66039 0.778028,2.66039 "/>
    <path id="_59169752" style="fill:#000000"
          d="M 1.19471,2.92993 H 1.023576 V 2.880422 h 0.212697 v 0.072122 c 0,0.058067 0,0.09963 -0.026894,0.129579 C 1.187375,3.107178 1.150092,3.110237 1.093863,3.110237 l -0.119185,-3.9e-6 c -0.052563,0 -0.088622,-0.00367 -0.113685,-0.031779 C 0.8371587,3.0515602 0.829824,3.0100011 0.829824,2.9470479 v -0.12102 c 0,-0.068457 0.007335,-0.113071 0.0311693,-0.139965 0.0238425,-0.026894 0.0599016,-0.031173 0.113075,-0.031173 h 0.119795 c 0.108181,0 0.144854,0.026894 0.13874,0.149134 h -0.037894 c 0.00122,-0.076398 -0.019559,-0.100236 -0.078232,-0.100236 l -0.158913,-4e-6 c -0.0360591,0 -0.058063,0.00673 -0.0715079,0.032398 C 0.873832,2.7594057 0.873832,2.7893545 0.873832,2.8309175 v 0.100843 c 0,0.041563 0,0.071516 0.0122244,0.09474 0.0134449,0.025059 0.0354488,0.032394 0.0715079,0.032394 h 0.157693 c 0.067232,0 0.079453,-0.022614 0.079453,-0.10635 z"/>
    <polygon id="_58644048" style="fill:#000000"
             points="1.32907,3.10473 1.28567,3.10473 1.28567,2.66039 1.32907,2.66039 "/>
    <polygon id="_59126952" style="fill:#000000"
             points="1.35764,2.66039 1.72925,2.66039 1.72925,2.70989 1.56606,2.70989 1.56606,3.10473 1.52266,3.10473 1.52266,2.70989 1.35764,2.70989 "/>
    <path id="_59170696" style="fill:#000000"
          d="M 1.96378,2.66039 2.157532,3.104733 H 2.113524 L 2.07013,3.006942 H 1.80487 L 1.7626972,3.104733 H 1.715024 L 1.908772,2.66039 Z M 1.936886,2.704398 1.82504,2.959878 h 0.224921 z"/>
    <polygon id="_59126160" style="fill:#000000"
             points="2.47341,3.05583 2.47341,3.10473 2.17331,3.10473 2.17331,2.66039 2.21426,2.66039 2.21426,3.05583 "/>
    <polygon id="_58640296" style="fill:#000000"
             points="3.02764,2.66039 3.07531,2.66039 2.89012,3.10473 2.83695,3.10473 2.65176,2.66039 2.69881,2.66039 2.86262,3.05767 "/>
    <polygon id="_59105992" style="fill:#000000"
             points="3.13511,3.10473 3.09171,3.10473 3.09171,2.66039 3.13511,2.66039 "/>
    <path id="_59105488" style="fill:#000000"
          d="M 3.59824,2.82235 V 2.942756 C 3.59824,3.006933 3.58846,3.048496 3.559122,3.076 3.533453,3.101059 3.495555,3.104728 3.444216,3.104728 l -0.250594,-3.9e-6 v -0.444343 h 0.250594 c 0.051343,0 0.089236,0.00367 0.114906,0.028728 0.029339,0.027504 0.039114,0.069067 0.039118,0.1332409 z M 3.234579,3.055216 H 3.47111 c 0.061732,0 0.084342,-0.0275 0.084342,-0.107567 l 3.9e-6,-0.129575 c 0,-0.083126 -0.018949,-0.108185 -0.084347,-0.108185 h -0.236531 v 0.345327 z"/>
    <polygon id="_58610512" style="fill:#000000"
             points="3.68608,2.70989 3.68608,2.84925 3.96173,2.84925 3.96173,2.89875 3.68608,2.89875 3.68608,3.05522 3.97395,3.05522 3.97395,3.10473 3.64574,3.10473 3.64574,2.66039 3.97395,2.66039 3.97395,2.70989 "/>
    <path id="_57345256" style="fill:#000000"
          d="M 4.00381,2.94704 V 2.826024 c 0,-0.068457 0.00794,-0.113071 0.033004,-0.139965 0.025673,-0.026894 0.064177,-0.031173 0.12102,-0.031173 h 0.11124 c 0.056228,0 0.095342,0.00428 0.120402,0.031173 0.023839,0.025059 0.033618,0.068457 0.033618,0.134465 v 0.124071 c 0,0.065398 -0.00917,0.108795 -0.033618,0.134465 C 4.363807,3.106564 4.325303,3.110233 4.26907,3.110233 l -0.111236,-3.9e-6 c -0.055622,0 -0.094126,-0.00367 -0.120409,-0.031169 C 4.01237,3.0521701 4.003811,3.0106071 4.003811,2.9470401 Z M 4.060653,2.736178 C 4.047818,2.759402 4.047814,2.789351 4.047814,2.830914 l 3.9e-6,0.100843 c 0,0.041563 -3.9e-6,0.071516 0.012835,0.09474 0.014669,0.025673 0.039114,0.032394 0.077012,0.032394 h 0.150965 c 0.037898,0 0.062342,-0.00672 0.077012,-0.032394 0.013449,-0.023228 0.01222,-0.053173 0.01222,-0.094736 l 4e-6,-0.100846 c 0,-0.041563 0.00122,-0.071512 -0.012224,-0.094736 C 4.3509769,2.710506 4.3265239,2.703785 4.2886299,2.703785 l -0.150965,-3.9e-6 c -0.037894,0 -0.062342,0.00673 -0.077012,0.032398 z"/>
    <path id="_59920344" style="fill:#000000"
          d="m 4.14101,0.367669 c -3.386e-4,0.0127874 -7.52e-4,0.0232913 -0.00118,0.0270551 -0.00328,0.0288189 0,0.0424409 -0.083094,0.0424409 -0.083091,0 -0.079811,-0.013622 -0.083091,-0.0424409 -0.00106,-0.009382 -0.00205,-0.0606929 -0.00195,-0.0847008 9.84e-5,-0.0240079 8.819e-4,-0.0753189 0.00195,-0.0846969 0.00328,-0.0288228 0,-0.0424449 0.083091,-0.0424449 0.083094,0 0.079815,0.013626 0.083094,0.0424449 4.449e-4,0.003925 8.425e-4,0.0152323 0.00116,0.0288031 l 0.113665,-3.94e-6 c -7.322e-4,-0.0257598 -0.00195,-0.0472835 -0.00322,-0.0585 -0.00655,-0.0576378 0.016153,-0.112827 -0.194567,-0.112827 -0.210717,-3.93e-6 -0.188012,0.055189 -0.194567,0.112827 -0.00213,0.0187598 -0.00411,0.0663819 -0.0039,0.114398 2.047e-4,0.0480157 0.00177,0.0956378 0.0039,0.114402 0.00656,0.0576339 -0.01615,0.112827 0.194567,0.112827 0.210724,-3.93e-6 0.188016,-0.0551929 0.194567,-0.112827 0.00125,-0.0109646 0.0023,-0.0317717 0.003,-0.056752 z"/>
    <polygon id="_58658680" style="fill:#000000"
             points="2.57143,0.0943228 2.4055,0.0934567 2.4055,0.52835 2.51641,0.52835 2.51641,0.204354 2.62731,0.52835 2.73822,0.52835 2.84825,0.204354 2.84825,0.52835 2.95915,0.52835 2.95915,0.0934567 2.79323,0.0943228 2.68234,0.418315 "/>
    <polygon id="_58659280" style="fill:#000000"
             points="4.5983,0.204354 4.49437,0.204354 4.49437,0.52835 4.38348,0.52835 4.38348,0.204354 4.27955,0.204354 4.27955,0.0934567 4.5983,0.0934567 "/>
    <polygon id="_59789168" style="fill:#000000"
             points="3.71715,0.0930276 3.84465,0.52835 3.73376,0.52835 3.70756,0.438394 3.56203,0.438394 3.58265,0.367669 3.6866,0.367669 3.63507,0.190382 3.53552,0.52835 3.42461,0.52835 3.55182,0.0930276 "/>
    <path id="_59224032" style="fill:#000000"
          d="m 2.13841,0.182882 c 0.083095,0 0.079815,0.013626 0.083095,0.0424449 0.00107,0.009378 0.00185,0.060689 0.00195,0.0846969 1.024e-4,0.0240079 -8.858e-4,0.0753189 -0.00195,0.0847008 -0.00328,0.0288189 0,0.0424409 -0.083095,0.0424409 -0.083087,0 -0.079815,-0.013622 -0.083091,-0.0424409 -0.00106,-0.009382 -0.00205,-0.0606929 -0.00195,-0.0847008 1.023e-4,-0.0240079 8.819e-4,-0.0753189 0.00195,-0.0846969 0.00328,-0.0288228 0,-0.0424449 0.083091,-0.0424449 l 1.299e-4,-0.100087 c -0.210717,0 -0.188012,0.0551929 -0.194567,0.112831 -0.00213,0.0187598 -0.00411,0.0663819 -0.0039,0.114398 2.047e-4,0.0480157 0.00177,0.0956378 0.0039,0.114402 0.00656,0.0576339 -0.01615,0.112827 0.194567,0.112827 0.21072,-3.94e-6 0.188016,-0.0551929 0.194567,-0.112827 0.00213,-0.0187638 0.0037,-0.0663858 0.0039,-0.114402 2.047e-4,-0.0480157 -0.00177,-0.0956339 -0.0039,-0.114398 -0.00655,-0.0576378 0.016153,-0.112827 -0.194567,-0.112827 z"/>
    <path id="_58662704" style="fill:#000000"
          d="m 1.76396,0.367669 c -3.386e-4,0.0127874 -7.52e-4,0.0232913 -0.00118,0.0270551 -0.00328,0.0288189 0,0.0424409 -0.083091,0.0424409 -0.083087,0 -0.079811,-0.013622 -0.083091,-0.0424409 -0.00106,-0.009382 -0.00205,-0.0606929 -0.00195,-0.0847008 9.84e-5,-0.0240079 8.858e-4,-0.0753189 0.00195,-0.0846969 0.00328,-0.0288228 0,-0.0424449 0.083091,-0.0424449 0.083091,0 0.079815,0.013626 0.083091,0.0424449 4.488e-4,0.003925 8.425e-4,0.0152323 0.00116,0.0288031 l 0.113669,-3.94e-6 c -7.323e-4,-0.0257598 -0.00195,-0.0472835 -0.00322,-0.0585 -0.00655,-0.0576378 0.01615,-0.112827 -0.194567,-0.112827 -0.210717,-3.93e-6 -0.188012,0.055189 -0.194567,0.112827 -0.00213,0.0187598 -0.00411,0.0663819 -0.0039,0.114398 2.048e-4,0.0480157 0.00177,0.0956378 0.0039,0.114402 0.00656,0.0576339 -0.01615,0.112827 0.194567,0.112827 0.21072,-3.93e-6 0.188012,-0.0551929 0.194567,-0.112827 0.00124,-0.0109646 0.0023,-0.0317717 0.003,-0.056752 l -0.113421,-3.93e-6 z"/>
    <path id="_58662944" style="fill:#000000"
          d="m 3.22919,0.428886 -0.067291,-3.543e-5 v -0.0992008 l 0.067276,-4.0552e-4 c 0.083095,0 0.080516,-0.013622 0.083791,-0.0424409 0.00107,-0.009386 8.465e-4,-0.001673 7.441e-4,-0.0256811 -1.024e-4,-0.0240079 3.228e-4,-0.0157638 -7.441e-4,-0.0251417 -0.00328,-0.0288189 -7.008e-4,-0.0424488 -0.083791,-0.0424488 l -0.067311,1.7717e-4 1.142e-4,0.334209 h -0.111122 v -0.434461 l 0.178335,-3.94e-6 c 0.210724,0 0.187626,0.0553386 0.195378,0.112827 9.212e-4,0.006811 9.212e-4,0.038248 9.212e-4,0.0551969 0,0.0136181 0,0.0450551 -9.212e-4,0.0550236 -0.00532,0.0577598 0.015343,0.11239 -0.195378,0.112386 z"/>
    <path id="_60117992" style="fill:#000000"
          d="M 1.07238,2.1659 0.378183,2.1650929 c -0.100445,0 -0.181862,-0.081429 -0.181862,-0.181862 V 0.92656091 c 0,-0.100449 0.0814173,-0.181866 0.181862,-0.181866 l 0.434472,-4.9212e-4 c 0.0521772,0 0.0944843,-0.0422953 0.0944843,-0.0944803 l 0.001272,-0.422484 c 0,-0.0218661 0.0177283,-0.0395984 0.0395984,-0.0395984 h 0.2547007 c 0.02187,0 0.039614,0.0177323 0.039614,0.0396024 l 0.00261,1.89920001 c 0,0.021866 -0.017732,0.039614 -0.039594,0.039614 l -0.132961,-1.575e-4 -0.00323,0.094366 0.173736,-5.12e-5 c 0.052173,0 0.09448,-0.042291 0.09448,-0.09448 V 0.18688383 c 0,-0.0521693 -0.042307,-0.0944646 -0.094484,-0.0944646 l -0.33416099,-3.94e-6 c -0.0521732,0 -0.0944843,0.0422992 -0.0944843,0.0944724 l 4.7638e-4,0.423543 c 0,0.0218661 -0.0177323,0.0396142 -0.0396142,0.0396142 l -0.396913,-7.2835e-4 c -0.153122,0 -0.277256,0.124118 -0.277256,0.277244 l 3.94e-6,1.05665996 c 0,0.153106 0.12413,0.27724 0.277252,0.27724 l 0.69096497,-2.007e-4 0.00323,-0.094366 v 3.9e-6 z"/>
    <path id="_60119800" style="fill:#000000"
          d="M 0.814224,1.77696 V 1.093346 c 0,-0.057283 -0.0464449,-0.103728 -0.103748,-0.103728 -0.0572835,0 -0.103728,0.0464449 -0.103728,0.103732 v 0.737921 c 0,0.057291 0.0464409,0.103748 0.103728,0.103748 0.0573031,0 0.103748,-0.046457 0.103748,-0.103744 V 1.77696 l 0.0942992,0.00323 v 0.051079 c 0,0.109366 -0.0886693,0.198035 -0.198047,0.198035 -0.109358,0 -0.198028,-0.088669 -0.198028,-0.198031 V 1.093346 c 0,-0.10936202 0.0886693,-0.19802802 0.198028,-0.19802802 0.109378,-3.94e-6 0.198047,0.0886693 0.198047,0.19803102 V 1.780192 L 0.814224,1.7769597 Z"/>
    <path id="_60121136" style="fill:#000000"
          d="m 1.73219,2.1659 -0.129921,7.9e-6 c -0.021886,0 -0.039614,-0.017748 -0.039614,-0.039614 l 0.00159,-1.34114003 c 0,-0.0218819 0.017728,-0.0396102 0.039606,-0.0396102 H 1.85856 c 0.021878,0 0.03961,0.0177283 0.03961,0.0396102 L 1.90078,2.1262839 c 0,0.021882 -0.017732,0.039614 -0.039602,0.039614 l -0.128996,7.8e-6 v 0.09398 l 0.166543,1.733e-4 c 0.052189,0 0.09448,-0.042291 0.09448,-0.094469 V 0.74480078 c 0,-0.0521693 -0.042295,-0.0944803 -0.09448,-0.0944803 H 1.564548 c -0.052173,0 -0.094469,0.042311 -0.094469,0.0944803 L 1.4698912,2.1652308 c 0,0.052185 0.041972,0.09448 0.094146,0.09448 l 0.168154,1.771e-4 v -0.09398 -3.9e-6 z"/>
    <path id="_60122704" style="fill:#000000"
          d="M 2.93214,1.00943 2.652329,1.0090481 c -0.086098,0 -0.155921,0.069819 -0.155921,0.155921 0,0.08611 0.069819,0.155917 0.155917,0.155917 l 0.38337,0.00104 c 0.100433,0 0.181862,0.081437 0.181862,0.18187 l -0.00128,0.477268 c 0,0.100449 -0.081433,0.181866 -0.181866,0.181866 l -0.761028,0.00138 c -0.021866,0 -0.03961,-0.017744 -0.03961,-0.03961 v -0.184843 c 0,-0.021882 0.017744,-0.03961 0.03961,-0.03961 l 0.518665,-0.00169 c 0.08611,0 0.155929,-0.069803 0.155929,-0.155917 4e-6,-0.086114 -0.069819,-0.155917 -0.155933,-0.155917 l -0.3755,-0.00148 c -0.100433,0 -0.181866,-0.081429 -0.181866,-0.181862 V 0.92657175 c 0,-0.100449 0.081433,-0.181866 0.181866,-0.181866 l 0.705449,-0.003299 c 0.021866,0 0.039594,0.017748 0.039594,0.0396142 l 1.58e-5,0.189059 c 0,0.0218661 -0.017732,0.0396141 -0.039614,0.0396141 l -0.189846,-2.637e-4 -0.00323,0.092953 0.232024,7.08e-5 c 0.052169,0 0.09448,-0.041972 0.09448,-0.094142 L 3.255762,0.74347313 c 0,-0.052189 -0.042295,-0.0944803 -0.094484,-0.0944803 l -0.744736,3.3464e-4 c -0.15311,0 -0.27724,0.124118 -0.27724,0.277244 V 1.4033785 c 0,0.153106 0.12413,0.27724 0.27724,0.27724 l 0.375504,-6.418e-4 c 0.034622,0 0.062677,0.028055 0.062677,0.062665 0,0.034622 -0.028055,0.062681 -0.062681,0.062681 L 2.23303,1.8052086 c -0.052177,0 -0.094469,0.042295 -0.094469,0.094484 v 0.264303 c 0,0.052185 0.042291,0.09448 0.094465,0.09448 l 0.801386,-1.693e-4 c 0.15311,0 0.277236,-0.124114 0.277236,-0.277236 l 0.00129,-0.477276 c 0,-0.153106 -0.12413,-0.27724 -0.27724,-0.27724 l -0.383366,0.00109 c -0.03461,0 -0.062669,-0.028059 -0.062669,-0.062681 0,-0.034614 0.028055,-0.062669 0.062665,-0.062669 l 0.276583,8.26e-5 0.00323,-0.092953 z"/>
    <path id="_60125752" style="fill:#000000"
          d="m 4.34232,1.27163 h 0.120181 c 0.021878,0 0.039606,-0.017728 0.039606,-0.03961 l -5e-4,-0.305449 c 0,-0.100449 -0.081417,-0.181866 -0.181866,-0.181866 H 3.718509 c -0.100445,0 -0.181882,0.0814173 -0.181882,0.181866 v 1.05666 c 0,0.100437 0.081433,0.181866 0.181878,0.181866 h 0.601236 c 0.100449,0 0.181866,-0.081429 0.181866,-0.181862 l 5e-4,-0.290437 c 0,-0.021878 -0.017728,-0.039606 -0.03961,-0.039606 H 4.235682 c -0.021866,0 -0.039598,0.017728 -0.039598,0.03961 l 0.00128,0.138476 c 0,0.109366 -0.068874,0.198035 -0.178236,0.198035 C 3.909754,2.029313 3.8409,1.940644 3.8409,1.831282 V 1.093353 c 0,-0.109362 0.068854,-0.198028 0.178228,-0.198028 0.109366,-3.94e-6 0.178236,0.0886693 0.178236,0.198031 l -0.00127,0.138661 c 0,0.021882 0.017728,0.03961 0.039594,0.03961 h 0.106638 l -0.00323,0.09522 H 4.196403 c -0.052173,0 -0.094484,-0.042303 -0.094484,-0.094476 l 0.00115,-0.17902 c 0,-0.057284 -0.02665,-0.103728 -0.083937,-0.103728 -0.057299,0 -0.083945,0.0464449 -0.083945,0.103732 v 0.737921 c 0,0.057291 0.026646,0.103748 0.083945,0.103748 0.057291,0 0.083933,-0.046457 0.083933,-0.103744 L 4.101925,1.652445 c 0,-0.052173 0.042303,-0.09448 0.09448,-0.09448 l 0.306272,-3.9e-6 c 0.052189,0 0.094484,0.042311 0.094484,0.094488 l -1.653e-4,0.33078 c 0,0.153106 -0.124122,0.27724 -0.277244,0.27724 h -0.601232 c -0.153122,0 -0.277256,-0.12413 -0.277256,-0.277236 V 0.92656296 c 0,-0.153126 0.12413,-0.277244 0.277252,-0.277244 h 0.601236 c 0.153126,0 0.27724,0.124118 0.27724,0.277244 L 4.5971511,1.272362 c 0,0.052177 -0.042295,0.094484 -0.094484,0.094484 l -0.163579,-4e-6 0.00323,-0.095221 v 4e-6 z"/>
  </g>
 </g>
</svg>