<?xml version="1.0" encoding="UTF-8" standalone="no"?>
<svg xmlns:dc="http://purl.org/dc/elements/1.1/" xmlns:cc="http://creativecommons.org/ns#"
     xmlns:rdf="http://www.w3.org/1999/02/22-rdf-syntax-ns#" xmlns="http://www.w3.org/2000/svg" id="svg1354"
     height="418.01904" width="949.65656" version="1.0">
  <metadata id="metadata8">
    <rdf:RDF>
      <cc:Work rdf:about="">
        <dc:format>image/svg+xml</dc:format>
        <dc:type rdf:resource="http://purl.org/dc/dcmitype/StillImage"/>
        <dc:title></dc:title>
      </cc:Work>
    </rdf:RDF>
  </metadata>
  <defs id="defs1357"/>
  <path id="path1372" style="fill:#999999"
        d="M 143.2646,416.53425 C 125.09144,411.54445 107.37601,394.70585 99.626616,375.05624 94.431906,361.88435 75.66072,295.80088 9.86597,59.056242 L 0,23.556242 44.51784,23.295812 c 24.48482,-0.14324 44.831186,0.08176 45.214176,0.5 0.38298,0.41824 17.050124,64.935125 37.038084,143.370858 l 36.34175,142.61044 17.27409,-66.11044 C 221.40689,86.673597 228.37433,61.356402 233.55135,50.482502 c 6.97641,-14.65338 19.169,-25.1241 33.64674,-28.89507 7.62818,-1.98689 25.2073,-2.00809 32.76515,-0.03952 15.95481,4.1557 28.42515,15.65952 35.29053,32.55534 4.18659,10.30325 13.19644,43.472595 46.84372,172.452988 11.33485,43.45 20.93513,79.78553 21.33394,80.74563 0.45144,1.08679 14.50093,-52.22143 37.22511,-141.24384 l 36.5,-142.989468 45.21862,-0.0062 c 35.74101,-0.0049 45.12796,0.25583 44.78612,1.24384 -0.23787,0.6875 -9.86657,35.225 -21.39711,76.749998 -55.10311,198.44306 -74.28561,265.0842 -79.68785,276.84028 -9.1764,19.96923 -24.59684,33.84523 -42.9144,38.61633 -7.65155,1.993 -24.288,2.0115 -31.87432,0.0355 -10.56485,-2.7518 -16.60788,-6.3892 -25.67169,-15.4522 -7.07925,-7.0786 -9.33893,-10.1655 -13.20602,-18.03991 -6.32218,-12.87371 -12.41614,-33.8704 -51.22641,-176.5 -9.12914,-33.55 -16.85032,-61.675 -17.15819,-62.5 -0.30786,-0.825 -9.72775,31.98003 -20.93307,72.90006 -24.62792,89.93722 -37.60121,136.39885 -41.63256,149.09994 -8.71389,27.45381 -24.55782,45.02981 -45.44746,50.41581 -7.53313,1.9423 -25.77409,1.9769 -32.7476,0.0622 z M 611.65654,278.55624 v -136.5 h 42.5 42.5 v 136.5 136.50001 h -42.5 -42.5 z m 171,0 v -136.5 h 42.5 42.5 v 136.5 136.50001 h -42.5 -42.5 z m 117,123.00001 v -13.5 h -5 c -4.66667,0 -5,-0.1667 -5,-2.50001 v -2.5 h 13 13 v 2.5 c 0,2.33331 -0.33333,2.50001 -5,2.50001 h -5 v 13.5 13.5 h -3 -3 z m 18,-2.5 v -16.00001 h 4.45706 4.45705 l 3.04295,9.86081 c 1.67362,5.4235 3.04294,10.4635 3.04294,11.2 0,3.122 1.95359,-1.1785 4.91108,-10.8108 l 3.14714,-10.25001 h 4.4709 4.4709 v 16.00001 16 h -3 -3 l -0.0789,-11.25 c -0.0854,-12.1625 -0.036,-12.191 -4.44454,2.5575 -2.63056,8.8004 -2.63527,8.8073 -5.77422,8.5 -3.07928,-0.3014 -3.20155,-0.5155 -6.17194,-10.8075 l -3.03042,-10.5 -0.28383,10.75 -0.28383,10.75 h -2.96617 -2.96617 z m -275.5,-304.103823 C 622.89547,91.049917 606.94633,74.560342 603.67525,55.167182 599.69014,31.540772 615.44457,7.7744419 639.1915,1.5891519 c 12.11902,-3.1566 27.64229,-1.51720997 38.70225,4.08729 6.62388,3.35658 16.68824,12.9895101 20.07767,19.2170101 11.64037,21.38719 4.74486,49.29049 -15.3706,62.198545 -11.15327,7.15703 -27.87543,10.40701 -40.44428,7.86043 z m 171,0 c -24.943,-5.05373 -42.59818,-29.910785 -38.56985,-54.303225 3.08999,-18.71061 17.29119,-34.2899601 35.60481,-39.0600501 12.10791,-3.15371 27.64265,-1.51702997 38.6779,4.07495 6.64769,3.36864 16.02784,12.3215601 19.7793,18.8784301 12.04812,21.05793 5.19063,49.56245 -15.04788,62.549465 -11.15327,7.15703 -27.87543,10.40701 -40.44428,7.86043 z"/>
  <path id="path1363" style="fill:#000000" d=""/>
</svg>
