<?xml version="1.0" encoding="UTF-8" standalone="no"?>
<svg xmlns:dc="http://purl.org/dc/elements/1.1/" xmlns:cc="http://creativecommons.org/ns#"
     xmlns:rdf="http://www.w3.org/1999/02/22-rdf-syntax-ns#" xmlns:xlink="http://www.w3.org/1999/xlink"
     xmlns="http://www.w3.org/2000/svg" version="1.0" width="341.44489" height="316.2869"
     viewBox="0 0 1101.7307 273.98557" id="svg2" xml:space="preserve"><metadata
   id="metadata144"><rdf:RDF><cc:Work
       rdf:about=""><dc:format>image/svg+xml</dc:format><dc:type rdf:resource="http://purl.org/dc/dcmitype/StillImage"/><dc:title></dc:title></cc:Work></rdf:RDF></metadata>
  <defs id="defs224">




















		<radialGradient cx="184.3857" cy="146.99319" r="333.0943" id="radialGradient4729"
                    gradientUnits="userSpaceOnUse">
			<stop style="stop-color:#000000;stop-opacity:1" offset="0" id="stop4731"/>
      <stop style="stop-color:#4a4a4c;stop-opacity:1" offset="0.0311" id="stop4733"/>
      <stop style="stop-color:#747678;stop-opacity:1" offset="0.0824" id="stop4735"/>
      <stop style="stop-color:#96989b;stop-opacity:1" offset="0.13609999" id="stop4737"/>
      <stop style="stop-color:#b4b6b8;stop-opacity:1" offset="0.1912" id="stop4739"/>
      <stop style="stop-color:#cecfd1;stop-opacity:1" offset="0.248" id="stop4741"/>
      <stop style="stop-color:#e2e3e4;stop-opacity:1" offset="0.30700001" id="stop4743"/>
      <stop style="stop-color:#f1f1f2;stop-opacity:1" offset="0.36919999" id="stop4745"/>
      <stop style="stop-color:#fafafb;stop-opacity:1" offset="0.4368" id="stop4747"/>
      <stop style="stop-color:#ffffff;stop-opacity:1" offset="0.51980001" id="stop4749"/>
		</radialGradient>


    <radialGradient cx="184.7793" cy="146.87399" r="337.9549" id="radialGradient4755"
                    gradientUnits="userSpaceOnUse">
			<stop style="stop-color:#000000;stop-opacity:1" offset="0" id="stop4757"/>
      <stop style="stop-color:#595a5c;stop-opacity:1" offset="0.0688" id="stop4759"/>
      <stop style="stop-color:#909294;stop-opacity:1" offset="0.171" id="stop4761"/>
      <stop style="stop-color:#bdbfc1;stop-opacity:1" offset="0.2631" id="stop4763"/>
      <stop style="stop-color:#dfe0e1;stop-opacity:1" offset="0.3416" id="stop4765"/>
      <stop style="stop-color:#f4f5f5;stop-opacity:1" offset="0.40329999" id="stop4767"/>
      <stop style="stop-color:#ffffff;stop-opacity:1" offset="0.44069999" id="stop4769"/>
		</radialGradient>


    <linearGradient x1="228.51711" y1="198.37399" x2="379.46579" y2="198.37399" id="linearGradient4703"
                    gradientUnits="userSpaceOnUse">
			<stop style="stop-color:#ffffff;stop-opacity:1" offset="0" id="stop4705"/>
      <stop style="stop-color:#eef1eb;stop-opacity:1" offset="0.1339" id="stop4707"/>
      <stop style="stop-color:#d1dbc7;stop-opacity:1" offset="0.3723" id="stop4709"/>
      <stop style="stop-color:#a8b893;stop-opacity:1" offset="0.68620002" id="stop4711"/>
      <stop style="stop-color:#7d9461;stop-opacity:1" offset="1" id="stop4713"/>
		</linearGradient>


    <linearGradient x1="29.4063" y1="38.911598" x2="132.7511" y2="38.911598" id="linearGradient4673"
                    gradientUnits="userSpaceOnUse">
			<stop style="stop-color:#000000;stop-opacity:1" offset="0" id="stop4675"/>
      <stop style="stop-color:#7d9461;stop-opacity:1" offset="0" id="stop4677"/>
      <stop style="stop-color:#829967;stop-opacity:1" offset="0.0451" id="stop4679"/>
      <stop style="stop-color:#b1c09f;stop-opacity:1" offset="0.3732" id="stop4681"/>
      <stop style="stop-color:#d6decc;stop-opacity:1" offset="0.65319997" id="stop4683"/>
      <stop style="stop-color:#eff3ec;stop-opacity:1" offset="0.87099999" id="stop4685"/>
      <stop style="stop-color:#ffffff;stop-opacity:1" offset="1" id="stop4687"/>
		</linearGradient>


    <linearGradient x1="184.1992" y1="42.0415" x2="315.9444" y2="42.0415" id="linearGradient4693"
                    gradientUnits="userSpaceOnUse">
			<stop style="stop-color:#dbe7e2;stop-opacity:1" offset="0" id="stop4695"/>
      <stop style="stop-color:#728858;stop-opacity:1" offset="1" id="stop4697"/>
		</linearGradient>


    <linearGradient x1="-33.566399" y1="199.8506" x2="110.035" y2="199.8506" id="linearGradient4719"
                    gradientUnits="userSpaceOnUse">
			<stop style="stop-color:#659240;stop-opacity:1" offset="0" id="stop4721"/>
      <stop style="stop-color:#dbe7e2;stop-opacity:1" offset="1" id="stop4723"/>
		</linearGradient>


    <linearGradient x1="180.06351" y1="161.39549" x2="44.0877" y2="297.37131" id="XMLID_74_"
                    gradientUnits="userSpaceOnUse">
			<stop style="stop-color:#49702e;stop-opacity:1" offset="0" id="stop79"/>
      <stop style="stop-color:#80b350;stop-opacity:1" offset="0.2712" id="stop81"/>
      <stop style="stop-color:#8eb84d;stop-opacity:1" offset="0.31639999" id="stop83"/>
      <stop style="stop-color:#a5bf48;stop-opacity:1" offset="0.4093" id="stop85"/>
      <stop style="stop-color:#b6c443;stop-opacity:1" offset="0.51069999" id="stop87"/>
      <stop style="stop-color:#c2c93f;stop-opacity:1" offset="0.62339997" id="stop89"/>
      <stop style="stop-color:#c8ca3d;stop-opacity:1" offset="0.75639999" id="stop91"/>
      <stop style="stop-color:#cacb3d;stop-opacity:1" offset="0.9605" id="stop93"/>
		</linearGradient>


    <linearGradient x1="35.897499" y1="195.1333" x2="167.7796" y2="63.251202" id="XMLID_71_"
                    gradientUnits="userSpaceOnUse">
			<stop style="stop-color:#cacb3d;stop-opacity:1" offset="0.16949999" id="stop12"/>
      <stop style="stop-color:#c8ca3d;stop-opacity:1" offset="0.4181" id="stop14"/>
      <stop style="stop-color:#c2c93f;stop-opacity:1" offset="0.57800001" id="stop16"/>
      <stop style="stop-color:#b6c443;stop-opacity:1" offset="0.71280003" id="stop18"/>
      <stop style="stop-color:#a5bf48;stop-opacity:1" offset="0.8337" id="stop20"/>
      <stop style="stop-color:#8eb84d;stop-opacity:1" offset="0.9443" id="stop22"/>
      <stop style="stop-color:#80b350;stop-opacity:1" offset="1" id="stop24"/>
		</linearGradient>


    <linearGradient x1="199.5601" y1="63.605" x2="330.8761" y2="194.92101" id="XMLID_72_"
                    gradientUnits="userSpaceOnUse">
			<stop style="stop-color:#557e36;stop-opacity:1" offset="0" id="stop31"/>
      <stop style="stop-color:#6a9843;stop-opacity:1" offset="0.077" id="stop33"/>
      <stop style="stop-color:#7aac4c;stop-opacity:1" offset="0.1512" id="stop35"/>
      <stop style="stop-color:#80b350;stop-opacity:1" offset="0.1921" id="stop37"/>
      <stop style="stop-color:#83b44f;stop-opacity:1" offset="0.1969" id="stop39"/>
      <stop style="stop-color:#9bbb4b;stop-opacity:1" offset="0.2289" id="stop41"/>
      <stop style="stop-color:#adc146;stop-opacity:1" offset="0.26570001" id="stop43"/>
      <stop style="stop-color:#bbc642;stop-opacity:1" offset="0.3087" id="stop45"/>
      <stop style="stop-color:#c3c83f;stop-opacity:1" offset="0.36199999" id="stop47"/>
      <stop style="stop-color:#c9cb3d;stop-opacity:1" offset="0.43669999" id="stop49"/>
      <stop style="stop-color:#cacb3d;stop-opacity:1" offset="0.64410001" id="stop51"/>
		</linearGradient>


    <linearGradient x1="188.3931" y1="160.51559" x2="324.37" y2="296.49249" id="XMLID_73_"
                    gradientUnits="userSpaceOnUse">
			<stop style="stop-color:#588237;stop-opacity:1" offset="0" id="stop58"/>
      <stop style="stop-color:#80b350;stop-opacity:1" offset="0.226" id="stop60"/>
      <stop style="stop-color:#88b64f;stop-opacity:1" offset="0.2586" id="stop62"/>
      <stop style="stop-color:#a1bd49;stop-opacity:1" offset="0.3788" id="stop64"/>
      <stop style="stop-color:#b4c344;stop-opacity:1" offset="0.50669998" id="stop66"/>
      <stop style="stop-color:#c1c841;stop-opacity:1" offset="0.64410001" id="stop68"/>
      <stop style="stop-color:#c8ca3d;stop-opacity:1" offset="0.79759997" id="stop70"/>
      <stop style="stop-color:#cacb3d;stop-opacity:1" offset="1" id="stop72"/>
		</linearGradient>


    <radialGradient cx="184.7793" cy="146.87399" r="337.9549" id="XMLID_80_" xlink:href="#XMLID_79_"
                    gradientUnits="userSpaceOnUse">
			<stop style="stop-color:#000000;stop-opacity:1" offset="0" id="stop177"/>


      <stop style="stop-color:#ffffff;stop-opacity:0" offset="0.44069999" id="stop189"/>
		</radialGradient>


    <radialGradient cx="184.3857" cy="146.99319" r="333.0943" id="XMLID_79_" gradientUnits="userSpaceOnUse">
			<stop style="stop-color:#000000;stop-opacity:1" offset="0" id="stop152"/>


      <stop style="stop-color:#ffffff;stop-opacity:0" offset="0.51980001" id="stop170"/>
		</radialGradient>


    <linearGradient x1="-33.566399" y1="199.8506" x2="110.035" y2="199.8506" id="XMLID_78_"
                    gradientUnits="userSpaceOnUse">
			<stop style="stop-color:#659240;stop-opacity:1" offset="0" id="stop143"/>
      <stop style="stop-color:#dbe7e2;stop-opacity:0" offset="1" id="stop145"/>
		</linearGradient>


    <linearGradient x1="228.51711" y1="198.37399" x2="379.46579" y2="198.37399" id="XMLID_77_"
                    gradientUnits="userSpaceOnUse">
			<stop style="stop-color:#ffffff;stop-opacity:0" offset="0" id="stop128"/>


      <stop style="stop-color:#7d9461;stop-opacity:1" offset="1" id="stop136"/>
		</linearGradient>


    <linearGradient x1="184.1992" y1="42.0415" x2="315.9444" y2="42.0415" id="XMLID_76_"
                    gradientUnits="userSpaceOnUse">
			<stop style="stop-color:#dbe7e2;stop-opacity:0" offset="0" id="stop119"/>
      <stop style="stop-color:#728858;stop-opacity:1" offset="1" id="stop121"/>
		</linearGradient>


    <linearGradient x1="29.4063" y1="38.911598" x2="132.7511" y2="38.911598" id="XMLID_75_"
                    gradientUnits="userSpaceOnUse">
			<stop style="stop-color:#000000;stop-opacity:1" offset="0" id="stop100"/>
      <stop style="stop-color:#7d9461;stop-opacity:1" offset="0" id="stop102"/>


      <stop style="stop-color:#ffffff;stop-opacity:0" offset="1" id="stop112"/>
		</linearGradient>

    <linearGradient x1="180.06351" y1="161.39549" x2="44.0877" y2="297.37131" id="linearGradient6025"
                    xlink:href="#XMLID_74_" gradientUnits="userSpaceOnUse"/>
    <linearGradient x1="188.3931" y1="160.51559" x2="324.37" y2="296.49249" id="linearGradient6028"
                    xlink:href="#XMLID_73_" gradientUnits="userSpaceOnUse"/>
    <linearGradient x1="199.5601" y1="63.605" x2="330.8761" y2="194.92101" id="linearGradient6031"
                    xlink:href="#XMLID_72_" gradientUnits="userSpaceOnUse"/>
    <linearGradient x1="35.897499" y1="195.1333" x2="167.7796" y2="63.251202" id="linearGradient6034"
                    xlink:href="#XMLID_71_" gradientUnits="userSpaceOnUse"/>
    <radialGradient cx="184.3857" cy="146.99319" r="333.0943" id="radialGradient7010" xlink:href="#XMLID_79_"
                    gradientUnits="userSpaceOnUse"/>
    <linearGradient x1="-33.566399" y1="199.8506" x2="110.035" y2="199.8506" id="linearGradient7012"
                    xlink:href="#XMLID_78_" gradientUnits="userSpaceOnUse"/>
    <linearGradient x1="228.51711" y1="198.37399" x2="379.46579" y2="198.37399" id="linearGradient7017"
                    xlink:href="#XMLID_77_" gradientUnits="userSpaceOnUse"/>
    <linearGradient x1="35.897499" y1="195.1333" x2="167.7796" y2="63.251202" id="linearGradient7090"
                    xlink:href="#XMLID_71_" gradientUnits="userSpaceOnUse"/>
    <linearGradient x1="199.5601" y1="63.605" x2="330.8761" y2="194.92101" id="linearGradient7092"
                    xlink:href="#XMLID_72_" gradientUnits="userSpaceOnUse"/>
    <linearGradient x1="188.3931" y1="160.51559" x2="324.37" y2="296.49249" id="linearGradient7094"
                    xlink:href="#XMLID_73_" gradientUnits="userSpaceOnUse"/>
    <linearGradient x1="180.06351" y1="161.39549" x2="44.0877" y2="297.37131" id="linearGradient7096"
                    xlink:href="#XMLID_74_" gradientUnits="userSpaceOnUse"/>
    <linearGradient x1="29.4063" y1="38.911598" x2="132.7511" y2="38.911598" id="linearGradient7098"
                    xlink:href="#XMLID_75_" gradientUnits="userSpaceOnUse"/>
    <linearGradient x1="184.1992" y1="42.0415" x2="315.9444" y2="42.0415" id="linearGradient7100"
                    xlink:href="#XMLID_76_" gradientUnits="userSpaceOnUse"/>
    <linearGradient x1="228.51711" y1="198.37399" x2="379.46579" y2="198.37399" id="linearGradient7102"
                    xlink:href="#XMLID_77_" gradientUnits="userSpaceOnUse"/>
    <linearGradient x1="-33.566399" y1="199.8506" x2="110.035" y2="199.8506" id="linearGradient7104"
                    xlink:href="#XMLID_78_" gradientUnits="userSpaceOnUse"/>
    <radialGradient cx="184.7793" cy="146.87399" r="337.9549" id="radialGradient7106" xlink:href="#XMLID_80_"
                    gradientUnits="userSpaceOnUse"/>
    <radialGradient cx="184.3857" cy="146.99319" r="333.0943" id="radialGradient7108" xlink:href="#XMLID_79_"
                    gradientUnits="userSpaceOnUse"/></defs>
  <g transform="translate(-406.46272,127.12817)" id="Layer_3">
</g>
  <g transform="translate(-406.46272,127.12817)" id="Layer_2">
</g>

  <g transform="matrix(1.4255889,0,0,1.4255889,0,-373.28427)" id="g7066"><g
     transform="translate(-367.44,508.77445)"
     id="g201">
		<g id="g203">
			<path
          d="m 1140.265,83.606 h -1.978 l -2.383,7.52 c -0.391,0.596 -0.591,1.191 -0.591,1.582 -0.2,-0.391 -0.4,-0.791 -0.596,-1.382 l -2.578,-7.72 h -1.978 v 10.688 h 1.191 v -9.106 l 3.169,9.106 h 1.182 l 3.174,-8.911 v 8.911 h 1.387 V 83.606 Z"
          style="fill:#89c056" id="path205"/>
      <polygon
          points="1120.265,84.988 1123.829,84.988 1123.829,94.295 1125.211,94.295 1125.211,84.988 1128.58,84.988 1128.58,83.606 1120.265,83.606 "
          style="fill:#89c056" id="polygon207"/>
		</g>
		<polygon
        points="1000.113,145.364 923.688,207.107 957.252,207.107 1016.598,158.553 1076.236,207.107 1109.503,207.107 1033.38,145.364 1109.503,83.621 1076.236,83.621 1016.598,131.878 957.252,83.621 923.688,83.621 "
        style="fill:#89c056" id="polygon209"/>
		<path
        d="m 913.8,145.364 c 0,-27.573 -7.192,-47.949 -20.977,-61.743 H 770.846 c -14.39,13.794 -21.582,34.17 -21.582,61.743 0,27.568 7.192,47.949 21.582,61.743 H 892.824 C 906.607,193.313 913.8,172.635 913.8,145.364 Z m -20.381,0 c 0,9.292 -2.09,18.877 -5.996,28.774 l -5.693,12.886 H 781.627 l -5.693,-12.886 c -4.194,-9.897 -5.996,-19.482 -5.996,-28.774 0,-14.683 3.901,-28.477 11.689,-41.362 H 881.73 c 7.792,12.886 11.689,26.68 11.689,41.362 z"
        style="fill:#89c056" id="path211"/>
		<path
        d="m 718.097,150.462 v -10.19 l 8.989,-4.8 C 724.984,112.396 718.097,95.018 706.407,83.621 H 584.425 c -11.689,11.094 -18.879,28.477 -20.681,51.548 h -19.775 v 20.386 h 19.775 c 1.802,23.071 8.992,40.161 20.681,51.553 h 121.982 c 11.689,-11.694 18.577,-28.774 20.679,-51.553 z m -22.779,-46.46 c 5.396,9.292 9.287,19.482 11.089,31.167 H 584.425 c 1.799,-11.685 5.393,-21.875 11.089,-31.167 z m 11.089,51.553 c -1.802,11.689 -5.693,22.178 -11.089,31.47 h -99.805 c -5.696,-9.292 -9.29,-19.78 -11.089,-31.47 z"
        style="fill:#89c056" id="path213"/>
		<polygon
        points="400.406,83.621 367.44,83.621 443.265,145.364 367.44,207.107 400.406,207.107 460.05,158.553 519.386,207.107 552.955,207.107 476.834,145.364 552.955,83.621 519.386,83.621 460.05,131.878 "
        style="fill:#89c056" id="polygon215"/>
	</g>
    <g transform="matrix(1.6202149,0,0,1.6202149,74.50756,78.548018)" id="g7023"><path
       d="m 51.875,21.46875 c 1.718168,1.893278 3.443758,3.785212 5.1875,5.65625 10.354,11.559 23.600998,24.789503 39.25,40.4375 l 43.3125,41.875 -0.25,15.65625 c -20.27514,31.1249 -39.36554,58.3507 -57.21875,81.71875 l 33.96875,-0.0937 c 23.77382,-18.83843 46.32393,-38.84183 67.71875,-60 0.0329,0.0291 0.0609,0.0646 0.0937,0.0937 V 82.71875 c -0.0221,-0.0077 -0.0404,-0.0236 -0.0625,-0.03125 h -0.0312 C 127.64826,63.212096 83.66068,42.947006 51.875,21.46875 Z"
       style="fill:url(#linearGradient7090)"
       id="path26" />
      <path
          d="m 311.1875,23.34375 c -24.25276,14.675868 -66.64482,34.465214 -127.25,59.34375 v 0.03125 c -0.0132,-0.0046 -0.0191,-0.02427 -0.0312,-0.03125 h -0.0312 l -0.0312,0.03125 v 64 c 23.31878,20.65826 47.98569,40.72004 73.9375,60.25 h 32.4375 C 269.04702,180.07137 248.60583,152.54564 229,124.34375 l -0.46875,-15.03125 c -0.0219,-0.0317 -0.0406,-0.062 -0.0625,-0.0937 0.0151,-0.0141 0.0474,-0.0171 0.0625,-0.0312 15.95736,-14.993798 43.63316,-43.821959 82.65625,-85.84375 z"
          style="fill:url(#linearGradient7092)" id="path53"/>
      <path
          d="m 229,124.34375 v 60.3125 c 31.87061,25.45214 65.86187,50.00051 101.9375,73.78125 0.93007,0.60127 1.90307,1.20742 2.84375,1.8125 C 296.81437,216.70248 261.75521,171.46029 229,124.34375 Z"
          style="fill:url(#linearGradient7094)" id="path74"/>
      <path
          d="m 139.40625,124.09375 -0.0312,1 C 99.011581,187.05678 63.410589,233.61132 32.7188,264.90625 c 1.825904,-1.1245 3.68797,-2.22638 5.46875,-3.34375 36.089502,-22.49561 69.76806,-47.18187 101.21875,-74.03125 z"
          style="fill:url(#linearGradient7096)" id="path95"/>
      <path
          d="m 34.15625,1.0625 c 5.754178,6.9293145 11.666122,13.710619 17.71875,20.375 31.804599,21.4939 75.81333,41.79287 132.0625,61.28125 V 71.1875 Z"
          style="fill:url(#linearGradient7098)" id="path114"/>
      <path
          d="m 331.5,1.34375 -147.6875,69.8125 0.0312,11.5625 C 244.4985,57.822287 286.92234,38.027116 311.1875,23.34375 317.54231,16.502631 324.12698,9.3659545 331.09375,1.8125 Z"
          style="fill:url(#linearGradient7100)" id="path123"/>
      <path
          d="M 228.53125,109.3125 229,124.34375 c 32.75521,47.11654 67.81437,92.35873 104.78125,135.90625 10.63241,6.84177 21.94493,13.94397 33.875,21.25 -29.29051,-28.71917 -55.47354,-58.16096 -79,-88.5 -15.63506,-20.20399 -35.59701,-48.10294 -60.125,-83.6875 z"
          style="fill:url(#linearGradient7102)" id="path138"/>
      <path
          d="m 139.625,109.4375 c -30.337,46.705 -59.683499,87.16675 -88.8125,121.59375 -17.220429,20.4094 -32.870789,37.10062 -47.0625,50.1875 l -1.28125,1.625 C 13.107003,276.75002 23.162206,270.83607 32.625,265 63.337914,233.70428 98.970595,187.11962 139.375,125.09375 Z"
          style="fill:url(#linearGradient7104)" id="path147"/>
      <path
          d="m 291.697,25.67 c 33.225,-16.854 54.41,-33.223 64.038,-48.389 L 174.362,-44.26 3.526,-29.221 c 14.926,20.464 41.167,40.206 78.724,58.742 14.203,7.224 31.055,14.687 51.037,22.63 7.946,3.131 25.04,9.871 50.557,19.742 47.188,-18.055 83.058,-33.221 107.853,-46.223 z"
          style="fill:url(#radialGradient7106);fill-opacity:1" id="path191"/>
      <g id="g217">
		<path
        d="m 349.986,2.007 h -1.239 l -1.486,4.7 c -0.244,0.374 -0.369,0.745 -0.369,0.991 -0.125,-0.246 -0.25,-0.497 -0.372,-0.866 l -1.611,-4.825 h -1.236 v 6.682 h 0.745 V 2.996 l 1.981,5.693 h 0.738 l 1.98,-5.571 v 5.571 h 0.87 V 2.007 Z"
        style="fill:#80b350" id="path219"/>
        <polygon
            points="337.486,2.872 339.714,2.872 339.714,8.688 340.578,8.688 340.578,2.872 342.683,2.872 342.683,2.007 337.486,2.007 "
            style="fill:#80b350" id="polygon221"/>
	</g>
      <path
          d="m 288.658,192.989 c 27.444,35.391 58.499,69.577 93.89,102.798 L 377.253,-48.48 C 301.899,34.096 252.306,86.821 228.471,109.209 c 24.558,35.63 44.538,63.558 60.187,83.78 z"
          style="fill:url(#radialGradient7108);fill-opacity:1" id="path172"/></g></g></svg>