<?xml version="1.0" encoding="UTF-8" standalone="no"?>
<svg xmlns:dc="http://purl.org/dc/elements/1.1/" xmlns:cc="http://creativecommons.org/ns#"
     xmlns:rdf="http://www.w3.org/1999/02/22-rdf-syntax-ns#" xmlns:xlink="http://www.w3.org/1999/xlink"
     xmlns="http://www.w3.org/2000/svg" id="svg3009" viewBox="6.9335938 -0.1396484 170.1747 33.357586" x="0px"
     y="0px" version="1.1" width="170.1747" height="33.357586" xml:space="preserve"
     enable-background="new 6.9335938 -0.1396484 175 36"><metadata
   id="metadata3011"><rdf:RDF><cc:Work
       rdf:about=""><dc:format>image/svg+xml</dc:format><dc:type rdf:resource="http://purl.org/dc/dcmitype/StillImage"/><dc:title></dc:title></cc:Work></rdf:RDF></metadata>
    <defs id="defs3013"><linearGradient
   id="linearGradient4002"><stop
     id="stop4004"
     offset="0"
     style="stop-color:#97ca43;stop-opacity:1;" /><stop id="stop4006" offset="1"
                                                        style="stop-color:#97ca43;stop-opacity:0;"/></linearGradient>
        <linearGradient id="linearGradient3992"><stop
     id="stop3994"
     offset="0"
     style="stop-color:#97ca43;stop-opacity:1;" />
            <stop id="stop3996" offset="1" style="stop-color:#97ca43;stop-opacity:0;"/></linearGradient>
        <linearGradient id="linearGradient3909"><stop
     id="stop3911"
     offset="0"
     style="stop-color:#97ca43;stop-opacity:1;" />
            <stop id="stop3913" offset="1" style="stop-color:#97ca43;stop-opacity:0;"/></linearGradient>
        <linearGradient id="linearGradient3864"><stop
     id="stop3866"
     offset="0"
     style="stop-color:#97c949;stop-opacity:1;" />
            <stop id="stop3868" offset="1" style="stop-color:#97c949;stop-opacity:0;"/></linearGradient>
        <linearGradient id="linearGradient3079"><stop
     id="stop3081"
     offset="0"
     style="stop-color:#ffffff;stop-opacity:1;" />
            <stop id="stop3083" offset="1" style="stop-color:#ffffff;stop-opacity:0;"/></linearGradient>
        <linearGradient id="linearGradient3037"><stop
     id="stop3039"
     offset="0"
     style="stop-color:#ffffff;stop-opacity:1;" />
            <stop id="stop3041" offset="1" style="stop-color:#ffffff;stop-opacity:0;"/></linearGradient>
        <radialGradient gradientUnits="userSpaceOnUse"
                        gradientTransform="matrix(0,1.4985192,-1.279154,0,38.156167,-20.965255)" r="14.35"
                        fy="11.820745" fx="24.528753" cy="11.820745" cx="24.528753" id="radialGradient3043"
                        xlink:href="#linearGradient3037"/>
        <radialGradient r="14.35" fy="11.820745" fx="24.528753" cy="11.820745" cx="24.528753"
                        gradientTransform="matrix(0,1.4985192,-1.279154,0,38.156167,-20.965255)"
                        gradientUnits="userSpaceOnUse" id="radialGradient3051" xlink:href="#linearGradient3037"/>
        <radialGradient r="14.35" fy="11.820745" fx="24.528753" cy="11.820745" cx="24.528753"
                        gradientTransform="matrix(0,1.4985192,-1.279154,0,38.156167,-20.965255)"
                        gradientUnits="userSpaceOnUse" id="radialGradient3053" xlink:href="#linearGradient3037"/>
        <radialGradient r="14.35" fy="11.820745" fx="24.528753" cy="11.820745" cx="24.528753"
                        gradientTransform="matrix(0,1.4985192,-1.279154,0,38.156167,-20.965255)"
                        gradientUnits="userSpaceOnUse" id="radialGradient3061" xlink:href="#linearGradient3037"/>
        <radialGradient r="14.35" fy="11.820745" fx="24.528753" cy="11.820745" cx="24.528753"
                        gradientTransform="matrix(0,1.4985192,-1.279154,0,38.156167,-20.965255)"
                        gradientUnits="userSpaceOnUse" id="radialGradient3063" xlink:href="#linearGradient3037"/>
        <radialGradient r="14.35" fy="11.820745" fx="24.528753" cy="11.820745" cx="24.528753"
                        gradientTransform="matrix(0,1.4985192,-1.279154,0,38.156167,-20.965255)"
                        gradientUnits="userSpaceOnUse" id="radialGradient3065" xlink:href="#linearGradient3037"/>
        <radialGradient gradientUnits="userSpaceOnUse"
                        gradientTransform="matrix(0,0.80572268,-1.0856049,0,42.902657,-1.1039015)" r="14.35"
                        fy="17.843363" fx="23.531815" cy="17.843363" cx="23.531815" id="radialGradient3085"
                        xlink:href="#linearGradient3079"/>
        <linearGradient gradientUnits="userSpaceOnUse" y2="7.7451916" x2="22.067625" y1="11.952477" x1="19.01528"
                        id="linearGradient3870" xlink:href="#linearGradient3864"/>
        <linearGradient gradientTransform="matrix(-1,0,0,1,41.029427,-1.0729817)" y2="7.7451916" x2="22.067625"
                        y1="11.952477" x1="19.01528" gradientUnits="userSpaceOnUse" id="linearGradient3874"
                        xlink:href="#linearGradient3864"/>
        <linearGradient y2="7.7451916" x2="22.067625" y1="11.952477" x1="19.01528" gradientUnits="userSpaceOnUse"
                        id="linearGradient3886" xlink:href="#linearGradient3864"/>
        <linearGradient y2="7.7451916" x2="22.067625" y1="11.952477" x1="19.01528" gradientUnits="userSpaceOnUse"
                        id="linearGradient3896" xlink:href="#linearGradient3864"/>
        <linearGradient y2="7.7451916" x2="22.067625" y1="11.952477" x1="19.01528" gradientUnits="userSpaceOnUse"
                        id="linearGradient3898" xlink:href="#linearGradient3864"/>
        <linearGradient gradientUnits="userSpaceOnUse" y2="16.866667" x2="10.849999" y1="19.9" x1="16.799999"
                        id="linearGradient3915" xlink:href="#linearGradient3909"/>
        <linearGradient y2="16.079166" x2="12.891666" y1="20.512499" x1="16.158333" gradientUnits="userSpaceOnUse"
                        id="linearGradient3921" xlink:href="#linearGradient3909"/>
        <linearGradient y2="16.866667" x2="10.849999" y1="19.9" x1="16.799999" gradientUnits="userSpaceOnUse"
                        id="linearGradient3929" xlink:href="#linearGradient3909"/>
        <linearGradient y2="16.079166" x2="12.891666" y1="20.512499" x1="16.158333" gradientUnits="userSpaceOnUse"
                        id="linearGradient3976" xlink:href="#linearGradient3909"/>
        <linearGradient y2="7.7451916" x2="22.067625" y1="11.952477" x1="19.01528" gradientUnits="userSpaceOnUse"
                        id="linearGradient3978" xlink:href="#linearGradient3864"/>
        <linearGradient gradientTransform="translate(17.63776,-0.7229817)" y2="7.7451916" x2="22.067625" y1="11.952477"
                        x1="19.01528" gradientUnits="userSpaceOnUse" id="linearGradient3980"
                        xlink:href="#linearGradient3864"/>
        <linearGradient gradientTransform="translate(7.4294271,-1.1896484)" y2="16.079166" x2="12.891666" y1="20.512499"
                        x1="16.158333" gradientUnits="userSpaceOnUse" id="linearGradient3984"
                        xlink:href="#linearGradient3909"/>
        <linearGradient gradientUnits="userSpaceOnUse" y2="16.899706" x2="13.205508" y1="21.540094" x1="17.160885"
                        id="linearGradient3998" xlink:href="#linearGradient3992"/>
        <linearGradient gradientUnits="userSpaceOnUse" y2="5.046401" x2="23.287384" y1="13.089741" x1="19.663462"
                        id="linearGradient4008" xlink:href="#linearGradient4002"/>
        <linearGradient y2="16.899706" x2="13.205508" y1="21.540094" x1="17.160885" gradientUnits="userSpaceOnUse"
                        id="linearGradient4041" xlink:href="#linearGradient3992"/>
        <linearGradient y2="6.9876728" x2="20.646738" y1="12.030865" x1="17.550945" gradientUnits="userSpaceOnUse"
                        id="linearGradient4043" xlink:href="#linearGradient4002"/>
        <linearGradient y2="16.899706" x2="13.205508" y1="21.540094" x1="17.160885" gradientUnits="userSpaceOnUse"
                        id="linearGradient4045" xlink:href="#linearGradient3992"/>
        <linearGradient y2="5.046401" x2="23.287384" y1="13.089741" x1="19.663462" gradientUnits="userSpaceOnUse"
                        id="linearGradient4047" xlink:href="#linearGradient4002"/>
        <linearGradient y2="16.899706" x2="13.205508" y1="21.540094" x1="17.160885" gradientUnits="userSpaceOnUse"
                        id="linearGradient4148" xlink:href="#linearGradient3992"/>
        <linearGradient y2="5.046401" x2="23.287384" y1="13.089741" x1="19.663462" gradientUnits="userSpaceOnUse"
                        id="linearGradient4150" xlink:href="#linearGradient4002"/>
        <linearGradient y2="16.899706" x2="13.205508" y1="21.540094" x1="17.160885" gradientUnits="userSpaceOnUse"
                        id="linearGradient4152" xlink:href="#linearGradient3992"/>
        <linearGradient y2="6.9876728" x2="20.646738" y1="12.030865" x1="17.550945" gradientUnits="userSpaceOnUse"
                        id="linearGradient4154" xlink:href="#linearGradient4002"/>
        <radialGradient r="14.35" fy="17.843363" fx="23.531815" cy="17.843363" cx="23.531815"
                        gradientTransform="matrix(0,0.80572268,-1.0856049,0,42.902657,-1.1039015)"
                        gradientUnits="userSpaceOnUse" id="radialGradient4156" xlink:href="#linearGradient3079"/>
        <radialGradient r="14.35" fy="11.820745" fx="24.528753" cy="11.820745" cx="24.528753"
                        gradientTransform="matrix(0,1.4985192,-1.279154,0,38.156167,-20.965255)"
                        gradientUnits="userSpaceOnUse" id="radialGradient4158" xlink:href="#linearGradient3037"/>
        <radialGradient r="14.35" fy="11.820745" fx="24.528753" cy="11.820745" cx="24.528753"
                        gradientTransform="matrix(0,1.4985192,-1.279154,0,38.156167,-20.965255)"
                        gradientUnits="userSpaceOnUse" id="radialGradient4187" xlink:href="#linearGradient3037"/>
        <radialGradient r="14.35" fy="11.820745" fx="24.528753" cy="11.820745" cx="24.528753"
                        gradientTransform="matrix(0,1.4985192,-1.279154,0,38.156167,-20.965255)"
                        gradientUnits="userSpaceOnUse" id="radialGradient4189" xlink:href="#linearGradient3037"/>
        <radialGradient r="14.35" fy="11.820745" fx="24.528753" cy="11.820745" cx="24.528753"
                        gradientTransform="matrix(0,1.4985192,-1.279154,0,38.156167,-20.965255)"
                        gradientUnits="userSpaceOnUse" id="radialGradient4191" xlink:href="#linearGradient3037"/>
        <linearGradient y2="16.899706" x2="13.205508" y1="21.540094" x1="17.160885" gradientUnits="userSpaceOnUse"
                        id="linearGradient4193" xlink:href="#linearGradient3992"/>
        <linearGradient y2="5.046401" x2="23.287384" y1="13.089741" x1="19.663462" gradientUnits="userSpaceOnUse"
                        id="linearGradient4195" xlink:href="#linearGradient4002"/>
        <linearGradient y2="16.899706" x2="13.205508" y1="21.540094" x1="17.160885" gradientUnits="userSpaceOnUse"
                        id="linearGradient4197" xlink:href="#linearGradient3992"/>
        <linearGradient y2="6.9876728" x2="20.646738" y1="12.030865" x1="17.550945" gradientUnits="userSpaceOnUse"
                        id="linearGradient4199" xlink:href="#linearGradient4002"/></defs>


    <g transform="translate(-4.3385042,-2.0378732)" id="g4201"><polygon
     style="fill:#6b6b6b"
     points="149.3628,7.899414 147.3081,7.895508 147.3081,28.61523 149.6128,28.61523 149.6128,11.97412 161.896,28.62891 164.2065,28.63086 164.2065,7.912109 161.8979,7.912109 161.8979,24.92969 "
     id="polygon3015" />
        <path style="fill:#6b6b6b"
              d="m 135.3237,7.431152 c -5.82617,0 -9.89844,4.456055 -9.89844,10.83496 0,6.38916 4.07227,10.84424 9.89844,10.84424 5.82031,0 9.87891,-4.455078 9.87891,-10.84424 0,-6.3789 -4.0586,-10.83496 -9.8789,-10.83496 m 0,19.48389 c -4.4375,0 -7.54883,-3.556641 -7.54883,-8.648926 0,-5.087891 3.11133,-8.64502 7.54883,-8.64502 4.43164,0 7.52343,3.557129 7.52343,8.64502 1e-4,5.09229 -3.0917,8.64893 -7.5234,8.64893"
              id="path3017"/>
        <polygon style="fill:#6b6b6b"
                 points="180.5288,18.9375 180.5288,16.90918 169.1226,16.90918 169.1226,9.925293 181.3042,9.925293 181.3042,7.898438 166.7983,7.898438 166.7983,28.63281 181.4468,28.63281 181.4468,26.60449 169.1226,26.60449 169.1226,18.9375 "
                 id="polygon3019"/>
        <polygon style="fill:#177d3e"
                 points="105.6885,28.65039 102.96,28.65039 110.9253,17.78564 103.6523,7.911621 106.3789,7.911621 112.3081,15.96582 118.2319,7.911621 120.9565,7.911621 113.687,17.78564 121.6558,28.65039 118.9312,28.65039 112.3081,19.65771 "
                 id="polygon3021"/>
        <path style="fill:#177d3e"
              d="m 82.4668,18.57031 c -0.432617,-0.368652 -0.902344,-0.653809 -1.358398,-0.864746 1.504883,-0.816895 2.492188,-2.36084 2.492188,-4.151856 0,-1.327148 -0.489258,-5.6411131 -6.741211,-5.6411131 h -8.420898 v 8.9399411 h -2.805664 c -0.365234,0.474121 -1.19043,1.612793 -1.505859,2.081055 h 4.311523 v 9.714844 l 8.420898,9.76e-4 c 4.561523,0 7.396484,-2.317383 7.396484,-6.053711 0,-1.6328 -0.61719,-3.02098 -1.78906,-4.02538 m -11.7002,-8.49463 h 6.092773 c 1.650391,0 4.411133,0.410645 4.411133,3.295898 0,2.181152 -1.609375,3.480957 -4.411133,3.480957 h -6.092773 z m 6.09278,16.41065 H 70.76661 v -7.549805 h 6.092773 c 2.310547,0 5.074219,0.638184 5.074219,3.614258 -10e-6,3.42187 -3.17774,3.93554 -5.07422,3.93554"
              id="path3023"/>
        <path style="fill:#177d3e"
              d="m 95.20898,7.432617 c -5.824219,0 -9.895508,4.456055 -9.895508,10.83496 0,6.388672 4.071289,10.8418 9.895508,10.8418 5.82031,0 9.87891,-4.453125 9.87891,-10.8418 0,-6.37891 -4.0586,-10.83496 -9.878924,-10.83496 m 0,19.4834 c -4.4375,0 -7.545898,-3.556641 -7.545898,-8.648438 0,-5.087891 3.108398,-8.643555 7.545898,-8.643555 4.430664,0 7.523434,3.555664 7.523434,8.643555 0,5.0918 -3.092746,8.64844 -7.523416,8.64844"
              id="path3025"/>
        <polygon style="fill:#177d3e"
                 points="66.6084,7.912109 63.88281,7.912109 57.95312,15.96826 52.02832,7.912109 49.31055,7.912109 56.58008,17.78516 48.60938,28.64844 51.33984,28.64844 57.95703,19.6582 64.57812,28.64844 67.30566,28.64844 59.33398,17.78516 "
                 id="polygon3027"/>
        <g id="g3055" transform="translate(-1.2833333,0.93333333)"><g
       transform="matrix(-1,0,0,1,61.715049,-34.927083)"
       id="g3923" />
            <g id="g4049"><g
         id="g4160"
         transform="translate(-2.125,35.625)"><ellipse
           ry="14.758333"
           rx="14.35"
           cy="17.391666"
           cx="23.333334"
           transform="matrix(1.1755978,0,0,1.1301272,4.1196441,-37.63611)"
           id="path3033"
           style="fill:#666666;fill-opacity:1;stroke:none" /><ellipse ry="14.758333" rx="14.35" cy="17.391666"
                                                                      cx="23.333334"
                                                                      style="fill:url(#radialGradient4187);fill-opacity:1;stroke:none"
                                                                      id="path3035"
                                                                      transform="matrix(1.1755978,0,0,1.1301272,4.1196441,-37.63611)"/><ellipse
                ry="14.758333" rx="14.35" cy="17.391666" cx="23.333334"
                transform="matrix(1.1755978,0,0,1.1301272,4.1196441,-37.63611)" id="path3045"
                style="fill:url(#radialGradient4189);fill-opacity:1;stroke:none"/><ellipse ry="14.758333" rx="14.35"
                                                                                           cy="17.391666" cx="23.333334"
                                                                                           style="fill:url(#radialGradient4191);fill-opacity:1;stroke:none"
                                                                                           id="path3047"
                                                                                           transform="matrix(1.1755978,0,0,1.1301272,4.1196441,-37.63611)"/><g
                transform="translate(3.7995054e-7,0.05177686)" id="g4126"><g
             transform="matrix(1.0075011,0,0,1.0008426,-0.23709798,0.02715301)"
             id="g4010"><g
               id="g3951"><g
                 transform="translate(1.334375,-34.927083)"
                 id="g3917"><path
                   style="fill:#00a54d;fill-opacity:1;stroke:none"
                   d="m 17.75,10.65625 c -1.847688,2.256035 -9.5926641,11.425091 -8.90625,17.625 0.4783172,0.610018 1.0047273,1.180327 1.5625,1.71875 -0.08129,-4.745696 5.4515,-9.824588 9.769368,-13.658449 z"
                   transform="translate(8.2169271,-1.0729817)"
                   id="path3900" /></g><g id="g3988" transform="translate(1.334375,-34.927083)"
                                          style="fill:#97ca43;fill-opacity:1"><path
                   id="path3990"
                   transform="translate(8.2169271,-1.0729817)"
                   d="m 17.75,10.65625 c -1.847688,2.256035 -9.5926641,11.425091 -8.90625,17.625 0.4783172,0.610018 1.0047273,1.180327 1.5625,1.71875 -0.08129,-4.745696 5.4515,-9.824588 9.769368,-13.658449 z"
                   style="fill:url(#linearGradient4193);fill-opacity:1;stroke:none" /></g><g
                transform="translate(1.196189,-34.89572)" id="g3888"><g
                   id="g3876"><path
                     transform="translate(8.2169271,-1.0729817)"
                     id="path3089"
                     d="m 13.34375,3.75 c -0.965665,0.5849225 -1.862933,1.2722918 -2.6875,2.03125 2.656255,0.5079752 5.32084,2.8624365 6.78125,4.8125 1.272411,2.001434 1.963367,3.836737 2.861547,5.731248 0.608132,-0.518349 1.226492,-1.046358 1.896265,-1.586717 l -0.0039,-8.2265622 C 20.212403,5.2739256 16.941625,3.6447553 13.375,3.75 c -0.0076,0.00461 -0.02361,-0.00463 -0.03125,0 z"
                     style="fill:#02a74d;fill-opacity:1;stroke:none" /><path
                style="fill:url(#linearGradient4195);fill-opacity:1;stroke:none"
                d="m 13.34375,3.75 c -0.965665,0.5849225 -1.862933,1.2722918 -2.6875,2.03125 2.656255,0.5079752 5.32084,2.8624365 6.78125,4.8125 1.272411,2.001434 1.963367,3.836737 2.861547,5.731248 0.608132,-0.518349 1.226492,-1.046358 1.896265,-1.586717 l -0.0039,-8.2265622 C 20.212403,5.2739256 16.941625,3.6447553 13.375,3.75 c -0.0076,0.00461 -0.02361,-0.00463 -0.03125,0 z"
                id="path4000" transform="translate(8.2169271,-1.0729817)"/></g></g></g></g>
                <g transform="matrix(-1.0041673,0,0,1.0016853,63.252358,0.05430602)" id="g4021"><g
               id="g4023"><g
                 id="g4025"
                 transform="translate(1.334375,-34.927083)"><path
                   id="path4027"
                   transform="translate(8.2169271,-1.0729817)"
                   d="m 17.75,10.65625 c -1.847688,2.256035 -9.5926641,11.425091 -8.90625,17.625 0.4783172,0.610018 1.0047273,1.180327 1.5625,1.71875 -0.08129,-4.745696 5.4515,-9.824588 9.769368,-13.658449 z"
                   style="fill:#00a54d;fill-opacity:1;stroke:none" /></g><g style="fill:#97ca43;fill-opacity:1"
                                                                            transform="translate(1.334375,-34.927083)"
                                                                            id="g4029"><path
                   style="fill:url(#linearGradient4197);fill-opacity:1;stroke:none"
                   d="m 17.75,10.65625 c -1.847688,2.256035 -9.5926641,11.425091 -8.90625,17.625 0.4783172,0.610018 1.0047273,1.180327 1.5625,1.71875 -0.08129,-4.745696 5.4515,-9.824588 9.769368,-13.658449 z"
                   transform="translate(8.2169271,-1.0729817)"
                   id="path4031" /></g><g id="g4033" transform="translate(1.196189,-34.89572)"><g
                   id="g4035"><path
                     style="fill:#02a74d;fill-opacity:1;stroke:none"
                     d="m 13.34375,3.75 c -0.965665,0.5849225 -1.862933,1.2722918 -2.6875,2.03125 2.656255,0.5079752 5.32084,2.8624365 6.78125,4.8125 1.272411,2.001434 1.963367,3.836737 2.861547,5.731248 0.608132,-0.518349 1.226492,-1.046358 1.896265,-1.586717 l -0.0039,-8.2265622 C 20.212403,5.2739256 16.941625,3.6447553 13.375,3.75 c -0.0076,0.00461 -0.02361,-0.00463 -0.03125,0 z"
                     id="path4037"
                     transform="translate(8.2169271,-1.0729817)" /><path transform="translate(8.2169271,-1.0729817)"
                                                                         id="path4039"
                                                                         d="m 13.34375,3.75 c -0.965665,0.5849225 -1.862933,1.2722918 -2.6875,2.03125 2.656255,0.5079752 5.32084,2.8624365 6.78125,4.8125 1.272411,2.001434 1.963367,3.836737 2.861547,5.731248 0.608132,-0.518349 1.226492,-1.046358 1.896265,-1.586717 l -0.0039,-8.2265622 C 20.212403,5.2739256 16.941625,3.6447553 13.375,3.75 c -0.0076,0.00461 -0.02361,-0.00463 -0.03125,0 z"
                                                                         style="fill:url(#linearGradient4199);fill-opacity:1;stroke:none"/></g></g></g></g></g></g></g></g></g></svg>