<?xml version="1.0" encoding="UTF-8" standalone="no"?>
<svg xmlns:dc="http://purl.org/dc/elements/1.1/" xmlns:cc="http://creativecommons.org/ns#"
     xmlns:rdf="http://www.w3.org/1999/02/22-rdf-syntax-ns#" xmlns="http://www.w3.org/2000/svg" xml:space="preserve"
     enable-background="new 0 0 187.086 101.33" viewBox="0 0 187.086 101.33" height="101.33" width="187.086" y="0px"
     x="0px" id="Layer_1" version="1.1"><metadata
   id="metadata29"><rdf:RDF><cc:Work
       rdf:about=""><dc:format>image/svg+xml</dc:format><dc:type rdf:resource="http://purl.org/dc/dcmitype/StillImage"/><dc:title></dc:title></cc:Work></rdf:RDF></metadata>
  <defs id="defs27"/>
  <polygon style="clip-rule:evenodd;fill-rule:evenodd" id="polygon2" points="0,0 187.086,0 187.086,101.33 0,101.33 "/>
  <polygon style="clip-rule:evenodd;fill:#ffffff;fill-rule:evenodd" id="polygon4"
           points="8.845,8.652 148.439,8.652 148.439,92.293 8.845,92.293 "/>
  <polygon style="clip-rule:evenodd;fill:#e03127;fill-rule:evenodd" id="polygon6"
           points="178.206,92.465 157.54,92.465 157.545,8.743 178.238,8.743 "/>
  <polygon style="clip-rule:evenodd;fill:#ffffff;fill-rule:evenodd" id="polygon8"
           points="176.392,63.837 160.655,63.837 160.655,70.181 164.119,70.181 164.119,67.927 176.392,67.927 "/>
  <path style="clip-rule:evenodd;fill:#ffffff;fill-rule:evenodd" id="path10"
        d="m 160.029,56.109 c 0,4.674 4.403,6.678 8.494,6.678 4.091,0 8.494,-1.982 8.494,-6.678 0,-4.696 -4.403,-6.678 -8.494,-6.678 -4.091,0 -8.494,2.004 -8.494,6.678 v 0 z m 3.61,0 c 0,-2.108 3.339,-2.608 4.863,-2.608 1.523,0 4.904,0.5 4.904,2.608 0,2.107 -3.381,2.608 -4.904,2.608 -1.524,0.001 -4.863,-0.5 -4.863,-2.608 v 0 z"/>
  <path style="clip-rule:evenodd;fill:#ffffff;fill-rule:evenodd" id="path12"
        d="m 160.029,41.691 c 0,4.675 4.403,6.678 8.494,6.678 4.091,0 8.494,-1.982 8.494,-6.678 0,-4.695 -4.403,-6.678 -8.494,-6.678 -4.091,0 -8.494,2.004 -8.494,6.678 v 0 z m 3.61,0 c 0,-2.107 3.339,-2.608 4.863,-2.608 1.523,0 4.904,0.501 4.904,2.608 0,2.108 -3.381,2.609 -4.904,2.609 -1.524,0 -4.863,-0.501 -4.863,-2.609 v 0 z"/>
  <polygon style="clip-rule:evenodd;fill-rule:evenodd" id="polygon14"
           points="33.345,69.445 33.345,76.332 64.625,76.332 67.28,68.615 47.782,68.615 66.533,41.733 66.533,34.1 35.004,34.1 35.004,41.9 53.341,41.9 "/>
  <path style="clip-rule:evenodd;fill-rule:evenodd" id="path16"
        d="M 71.778,76.332 H 82.896 V 32.856 L 71.778,34.598 V 76.332 Z M 70.533,22.153 c 0,3.816 3.07,6.886 6.804,6.886 3.816,0 6.887,-3.07 6.887,-6.886 0,-3.817 -2.987,-6.887 -6.721,-6.887 -3.817,0 -6.97,3.07 -6.97,6.887 v 0 z"/>
  <path style="clip-rule:evenodd;fill-rule:evenodd" id="path18"
        d="m 88.536,45.467 v 49.118 l 10.703,-2.82 v -13.276 0 c 0,0 0,-2.489 -0.166,-3.484 2.406,1.41 5.56,2.24 8.878,2.24 4.646,0 8.463,-1.743 11.366,-4.813 4.481,-4.646 5.892,-9.376 5.892,-18.503 0,-9.79 -3.319,-15.266 -7.883,-18.336 -2.323,-1.576 -5.393,-2.572 -8.38,-2.572 -4.313,0 -8.545,1.66 -10.453,3.982 -0.084,-1.327 -0.332,-2.489 -0.747,-3.982 v 0 l -9.874,1.743 v 0 c 0.581,3.568 0.664,5.144 0.664,10.703 v 0 z m 10.786,-0.166 c 1.991,-2.074 4.646,-3.236 7.384,-3.236 2.738,0 4.48,1.245 5.311,3.568 0.746,2.074 1.078,5.31 1.078,9.375 0,9.707 -2.157,13.441 -7.633,13.441 -2.24,0 -4.646,-1.245 -6.14,-2.489 v 0 -20.659 z"/>
  <polygon style="clip-rule:evenodd;fill-rule:evenodd" id="polygon20"
           points="124.217,37.719 124.943,37.719 124.943,34.761 125.791,34.761 125.909,34.167 123.348,34.167 123.348,34.761 124.217,34.761 "/>
  <path style="clip-rule:evenodd;fill-rule:evenodd" id="path22"
        d="m 126.054,37.719 h 0.721 l 0.122,-1.855 v 0 c 0.016,-0.219 0.025,-0.419 0.025,-0.628 0,0 0.098,0.445 0.144,0.618 v 0 l 0.506,1.865 h 0.628 l 0.563,-1.942 v 0 c 0.062,-0.214 0.087,-0.316 0.128,-0.521 0,0.189 0.015,0.342 0.03,0.567 v 0 l 0.133,1.896 h 0.705 l -0.316,-3.552 h -0.936 l -0.48,1.763 v 0 c -0.056,0.209 -0.092,0.373 -0.127,0.557 -0.031,-0.184 -0.057,-0.286 -0.123,-0.542 v 0 l -0.465,-1.779 h -0.925 l -0.333,3.553 z"/>
</svg>