<?xml version="1.0" encoding="UTF-8" standalone="no"?>
<svg xmlns:dc="http://purl.org/dc/elements/1.1/" xmlns:cc="http://creativecommons.org/ns#"
     xmlns:rdf="http://www.w3.org/1999/02/22-rdf-syntax-ns#" xmlns="http://www.w3.org/2000/svg" id="svg1978"
     height="408.01767" width="762.76117" version="1.0">
    <metadata id="metadata25">
        <rdf:RDF>
            <cc:Work rdf:about="">
                <dc:format>image/svg+xml</dc:format>
                <dc:type rdf:resource="http://purl.org/dc/dcmitype/StillImage"/>
                <dc:title></dc:title>
            </cc:Work>
        </rdf:RDF>
    </metadata>
    <defs id="defs1980"/>
    <path id="path34853" style="fill:#141113;fill-rule:nonzero;stroke:none" d="M 0,0 H 762.76116 V 408.01768 H 0 Z"/>
    <path id="path34855" style="fill:#ffffff;fill-rule:nonzero;stroke:none"
          d="m 44.12566,44.08763 h 506.4121 V 363.85472 H 44.12566 Z"/>
    <path id="path34857" style="fill:#e12526;fill-rule:nonzero;stroke:none"
          d="m 592.74106,44.08763 h 125.8571 v 319.76709 h -125.8571 z"/>
    <path id="path34859"
          style="fill:#141113;fill-rule:nonzero;stroke:#141113;stroke-width:3.99426198;stroke-linecap:butt;stroke-linejoin:miter;stroke-miterlimit:3.86400008;stroke-dasharray:none"
          d="m 127.56016,181.2491 h 67.35999 l -73.45678,101.21313 v 25.24669 h 114.90677 l 9.75173,-28.33661 h -71.6254 l 68.88224,-98.72614 V 152.611 H 127.56016 Z"/>
    <path id="path34861"
          style="fill:#141113;fill-rule:nonzero;stroke:#141113;stroke-width:3.99426198;stroke-linecap:butt;stroke-linejoin:miter;stroke-miterlimit:3.86400008;stroke-dasharray:none"
          d="m 262.64895,307.70892 h 40.83953 V 148.01384 l -40.83953,6.40588 z M 258.0744,108.67408 c 0,14.01762 11.27458,25.32215 24.991,25.32215 14.02497,0 25.29955,-11.30453 25.29955,-25.32215 0,-14.01755 -10.97326,-25.24675 -24.68909,-25.24675 -14.01774,0 -25.60146,11.2292 -25.60146,25.24675 z"/>
    <path id="path34863"
          style="fill:#141113;fill-rule:nonzero;stroke:#141113;stroke-width:3.99426198;stroke-linecap:butt;stroke-linejoin:miter;stroke-miterlimit:3.86400008;stroke-dasharray:none"
          d="m 324.20624,194.36236 v 180.42006 l 39.31668,-10.40016 v -48.76017 c 0,0 0,-9.11897 -0.60986,-12.73643 8.83995,5.12475 20.39294,8.21467 32.60219,8.21467 17.10742,0 31.12455,-6.40594 41.7513,-17.71046 16.50419,-17.03209 21.62894,-34.44106 21.62894,-67.97781 0,-35.94835 -12.13332,-56.07041 -28.93942,-67.29955 -8.51635,-5.80295 -19.82045,-9.4958 -30.74851,-9.4958 -15.90156,0 -31.41864,6.10445 -38.42781,14.62055 -0.30131,-4.89864 -1.22092,-9.11903 -2.74316,-14.62055 l -36.2722,6.40588 c 2.14053,13.11326 2.44185,18.91627 2.44185,39.33977 z m 39.6186,-0.60293 c 7.31771,-7.61168 17.06944,-11.9074 27.09296,-11.9074 10.09885,0 16.50479,4.59715 19.51914,13.11319 2.78836,7.61174 3.99422,19.51914 3.99422,34.44112 0,35.64692 -7.91312,49.36304 -28.03488,49.36304 -8.21503,0 -17.07788,-4.59715 -22.57144,-9.11897 z"/>
    <path id="path34865"
          style="fill:#231f20;fill-rule:nonzero;stroke:none;stroke-width:0.52999997;stroke-linecap:butt;stroke-linejoin:miter;stroke-miterlimit:3.86400008;stroke-dasharray:none"
          d="m 458.51885,167.6837 c 5.12471,0 9.49561,-3.9189 9.49561,-9.34508 0,-5.3508 -4.3709,-9.26969 -9.49561,-9.26969 -5.12476,0 -9.42029,3.91889 -9.42029,9.26969 0,5.42618 4.29553,9.34508 9.42029,9.34508 z m -7.53647,-9.34508 c 0,-4.37111 3.31626,-7.76246 7.53647,-7.76246 4.29551,0 7.61181,3.39135 7.61181,7.76246 0,4.52182 -3.3163,7.83778 -7.61181,7.83778 -4.22021,0 -7.53647,-3.31596 -7.53647,-7.83778 z m 5.57672,0.75364 h 1.88442 l 2.86364,4.67254 h 1.8091 l -3.0149,-4.74793 c 1.5072,-0.2261 2.7883,-1.05508 2.7883,-2.93913 0,-2.11023 -1.2811,-3.08992 -3.84351,-3.08992 h -4.06955 v 10.77698 h 1.5825 z m 0,-1.35657 v -3.39135 h 2.26106 c 1.1305,0 2.3364,0.30149 2.3364,1.58262 0,1.65801 -1.2812,1.80873 -2.63771,1.80873 h -1.95975"/>
    <path id="path34879"
          style="fill:#ffffff;fill-rule:nonzero;stroke:none;stroke-width:0.52999997;stroke-linecap:butt;stroke-linejoin:miter;stroke-miterlimit:3.86400008;stroke-dasharray:none"
          d="m 681.82096,278.24184 -13.0378,-17.93651 c -4.3715,-5.65224 -13.7918,-14.31906 -28.1862,-14.31906 -19.2178,0 -31.4264,15.60025 -31.4264,34.0643 0,20.87565 13.7158,33.76279 33.9888,34.44111 v -24.94532 c -1.4318,0 -2.5624,0 -3.7682,0 -5.954,0 -10.7768,-3.39135 -10.7768,-9.57118 0,-6.10439 5.878,-10.09867 11.4547,-10.09867 6.4813,0 10.6268,6.40588 14.7716,11.00303 l 26.9803,34.81794 h 20.8003 v -70.08803 h -20.8003 v 32.63239"/>
    <path id="path34881"
          style="fill:#ffffff;fill-rule:nonzero;stroke:none;stroke-width:0.52999997;stroke-linecap:butt;stroke-linejoin:miter;stroke-miterlimit:3.86400008;stroke-dasharray:none"
          d="m 627.33316,185.54482 -19.2178,-0.75365 v 48.76017 l 49.8904,5.50151 c -0.3767,-8.2146 -0.5273,-19.14231 -0.5273,-25.54819 0,-10.17405 2.8636,-19.66985 11.7566,-19.66985 7.9885,0 12.3593,8.59144 12.3593,16.12779 0,9.34501 0,19.66985 0,27.50763 h 21.0269 c 0,-9.7219 0,-15.14809 0,-25.54819 0,-9.04364 -1.809,-19.29309 -7.6118,-26.52794 -6.1046,-7.46102 -15.0729,-11.68135 -24.5685,-11.68135 -18.8412,0 -30.3719,13.26397 -30.3719,32.33089 v 12.20889 l -12.7359,-1.28119 v -31.42652"/>
    <path id="path34883"
          style="fill:#ffffff;fill-rule:nonzero;stroke:none;stroke-width:0.52999997;stroke-linecap:butt;stroke-linejoin:miter;stroke-miterlimit:3.86400008;stroke-dasharray:none"
          d="m 606.00496,131.28313 c 0,27.2062 25.6237,38.81216 49.4384,38.81216 23.8152,0 49.4384,-11.53057 49.4384,-38.81216 0,-27.35691 -25.6232,-38.88755 -49.4384,-38.88755 -23.8147,0 -49.4384,11.68135 -49.4384,38.88755 z m 21.0263,0 c 0,-12.28421 19.4438,-15.22341 28.3367,-15.22341 8.8177,0 28.4875,2.9392 28.4875,15.22341 0,12.20889 -19.6698,15.14803 -28.4875,15.14803 -8.8929,0 -28.3367,-2.93914 -28.3367,-15.14803"/>
</svg>
